<svg xmlns="http://www.w3.org/2000/svg" viewBox="0 0 801.69 319.54"><defs><style>.cls-1{fill:#1b1b1b;}.cls-2{fill:#eea345;}.cls-3{fill:#000075;}</style></defs><title>Learning-English-Logo</title><g id="Capa_2" data-name="Capa 2"><g id="Capa_1-2" data-name="Capa 1"><path class="cls-1" d="M475.75,62.53h10.32v44.58h23.25v9.32H475.75Z"/><path class="cls-1" d="M549,80.54q5,5.62,5,15.79,0,2-.08,3H523.49a11.47,11.47,0,0,0,11.78,9.39,15.65,15.65,0,0,0,6-1.19,14.76,14.76,0,0,0,5-3.43l5.39,5.62a20.85,20.85,0,0,1-7.51,5.24,25.27,25.27,0,0,1-9.82,1.85,22.9,22.9,0,0,1-11.13-2.62,18.29,18.29,0,0,1-7.43-7.35,23.9,23.9,0,0,1,0-21.83,18.81,18.81,0,0,1,7.43-7.43,22,22,0,0,1,10.86-2.66Q544.05,74.92,549,80.54Zm-4.2,12.09a10,10,0,0,0-3-7.24,11.71,11.71,0,0,0-14.9,0,11.73,11.73,0,0,0-3.66,7.28Z"/><path class="cls-1" d="M586.94,116.43v-5a13.5,13.5,0,0,1-5.54,4.08,20.41,20.41,0,0,1-7.78,1.39,16.57,16.57,0,0,1-7.58-1.66,12.13,12.13,0,0,1-5-4.58,12.38,12.38,0,0,1-1.77-6.54,11,11,0,0,1,4.08-9q4.08-3.27,11.55-3.35h12V90.63A6.94,6.94,0,0,0,584.48,85q-2.39-2-6.93-2a23.81,23.81,0,0,0-12.24,3.85l-3.62-6.93A45.65,45.65,0,0,1,570.5,76a32.35,32.35,0,0,1,9.28-1.19q8,0,12.44,3.85t4.5,10.78l.08,27Zm-3.54-9.28a7.1,7.1,0,0,0,3.47-5v-3.7h-10.4q-4,0-5.89,1.19a4.25,4.25,0,0,0-1.89,3.89,5,5,0,0,0,2,4.16,8.45,8.45,0,0,0,5.35,1.54A13.08,13.08,0,0,0,583.4,107.15Z"/><path class="cls-1" d="M623.71,77a16.66,16.66,0,0,1,8.35-2.19v9.7q-6.39-.38-10.2,3a11.43,11.43,0,0,0-3.81,9v19.87H608V75.23h10v7.93A14.88,14.88,0,0,1,623.71,77Z"/><path class="cls-1" d="M675,79.12q4.08,4.27,4.08,11.59v25.72H669V93.63a9.29,9.29,0,0,0-2.46-6.81,9,9,0,0,0-6.7-2.5A10.15,10.15,0,0,0,652,87.71a12.42,12.42,0,0,0-2.89,8.47v20.25h-10V75.23h10v7.7q4.23-7.93,14.78-8.08Q670.95,74.85,675,79.12Z"/><path class="cls-1" d="M699.36,59.22A6,6,0,0,1,701,63.53a5.89,5.89,0,0,1-1.62,4.24,5.76,5.76,0,0,1-8.16,0,5.89,5.89,0,0,1-1.62-4.24,6,6,0,0,1,1.62-4.31,5.76,5.76,0,0,1,8.16,0Zm-9,16h10v41.2h-10Z"/><path class="cls-1" d="M748.72,79.12q4.08,4.27,4.08,11.59v25.72H742.71V93.63a9.29,9.29,0,0,0-2.46-6.81,9,9,0,0,0-6.7-2.5,10.15,10.15,0,0,0-7.89,3.39,12.42,12.42,0,0,0-2.89,8.47v20.25h-10V75.23h10v7.7Q727,75,737.55,74.85,744.63,74.85,748.72,79.12Z"/><path class="cls-1" d="M801.69,75.23V112.5A19.19,19.19,0,0,1,799,122.7a17.46,17.46,0,0,1-7.55,6.7,26,26,0,0,1-11.36,2.35,30.25,30.25,0,0,1-17.4-5.47l4-7.24a21.2,21.2,0,0,0,12.86,4.31q5.54,0,8.82-2.85a9.78,9.78,0,0,0,3.27-7.78v-4.85a13.69,13.69,0,0,1-5.39,4.81,17,17,0,0,1-7.7,1.66,18.15,18.15,0,0,1-9.55-2.5,17.08,17.08,0,0,1-6.47-7,22.38,22.38,0,0,1-2.31-10.36,21.74,21.74,0,0,1,2.31-10.2A16.94,16.94,0,0,1,769,77.39a18.37,18.37,0,0,1,9.55-2.46,16.75,16.75,0,0,1,7.66,1.69,14.13,14.13,0,0,1,5.43,4.77V75.23Zm-13.05,28a12,12,0,0,0,3-8.51,12,12,0,0,0-3-8.51,11.11,11.11,0,0,0-15.78,0,13.11,13.11,0,0,0,0,17,11.15,11.15,0,0,0,15.78,0Z"/><path class="cls-1" d="M475.75,132.79h39.5v9H486.07v13.32h26.18v9H486.07v13.55h30.11v9H475.75Z"/><path class="cls-1" d="M562.23,149.39q4.08,4.27,4.08,11.59V186.7H556.22V163.9a9.3,9.3,0,0,0-2.46-6.81,9,9,0,0,0-6.7-2.5,10.15,10.15,0,0,0-7.89,3.39,12.42,12.42,0,0,0-2.89,8.47V186.7h-10V145.5h10v7.7q4.23-7.93,14.78-8.08Q558.14,145.12,562.23,149.39Z"/><path class="cls-1" d="M615.2,145.5v37.27a19.18,19.18,0,0,1-2.66,10.2,17.47,17.47,0,0,1-7.55,6.7A26,26,0,0,1,593.64,202a30.25,30.25,0,0,1-17.4-5.47l4-7.24a21.2,21.2,0,0,0,12.86,4.31q5.54,0,8.82-2.85a9.78,9.78,0,0,0,3.27-7.78v-4.85A13.69,13.69,0,0,1,599.8,183a17,17,0,0,1-7.7,1.66,18.15,18.15,0,0,1-9.55-2.5,17.07,17.07,0,0,1-6.47-7,22.37,22.37,0,0,1-2.31-10.36,21.73,21.73,0,0,1,2.31-10.2,16.93,16.93,0,0,1,6.47-6.89,18.37,18.37,0,0,1,9.55-2.46,16.76,16.76,0,0,1,7.66,1.69,14.14,14.14,0,0,1,5.43,4.77V145.5Zm-13.05,28a13.42,13.42,0,0,0,0-17,11.11,11.11,0,0,0-15.79,0,13.11,13.11,0,0,0,0,17,11.15,11.15,0,0,0,15.79,0Z"/><path class="cls-1" d="M627.37,129.56h10V186.7h-10Z"/><path class="cls-1" d="M659.24,129.48a6,6,0,0,1,1.62,4.31,5.89,5.89,0,0,1-1.62,4.24,5.76,5.76,0,0,1-8.16,0,5.89,5.89,0,0,1-1.62-4.24,6,6,0,0,1,1.62-4.31,5.76,5.76,0,0,1,8.16,0Zm-9,16h10v41.2h-10Z"/><path class="cls-1" d="M690.85,153.89a19.83,19.83,0,0,0-5.89-1,8,8,0,0,0-4,.88,3,3,0,0,0-1.5,2.73,3.24,3.24,0,0,0,1.89,3,30.31,30.31,0,0,0,6,2.19,57.61,57.61,0,0,1,7.08,2.58,13.35,13.35,0,0,1,4.81,3.77,10.1,10.1,0,0,1,2,6.58,10.6,10.6,0,0,1-4.62,9.24A19.8,19.8,0,0,1,685,187.08a29.49,29.49,0,0,1-9.32-1.5,21.94,21.94,0,0,1-7.7-4.27l3.46-7A20.27,20.27,0,0,0,678,178a22.15,22.15,0,0,0,7.32,1.35,8.77,8.77,0,0,0,4.43-1,3.13,3.13,0,0,0,1.66-2.89,3.49,3.49,0,0,0-1.93-3.23,34.19,34.19,0,0,0-6.24-2.39,52.72,52.72,0,0,1-6.78-2.43,12.24,12.24,0,0,1-4.54-3.62,9.92,9.92,0,0,1-1.92-6.35q0-6.08,4.43-9.28a18.53,18.53,0,0,1,11.13-3.2,28.62,28.62,0,0,1,8,1.16,25,25,0,0,1,7,3.23L697,156.67A29.71,29.71,0,0,0,690.85,153.89Z"/><path class="cls-1" d="M746.17,149.39q4.08,4.27,4.08,11.59V186.7H740.17V163.9a9.3,9.3,0,0,0-2.46-6.81,9,9,0,0,0-6.7-2.5,10.27,10.27,0,0,0-7.93,3.39,12.31,12.31,0,0,0-2.93,8.47V186.7h-10V129.56h10v23.79q4.23-8.09,14.86-8.24Q742.09,145.12,746.17,149.39Z"/><path id="Path_6956" data-name="Path 6956" class="cls-2" d="M346.67,24h-321A25.68,25.68,0,0,0,0,49.68v192.6A25.68,25.68,0,0,0,25.68,268H51.36v48.7c0,5.72,6.92,8.58,64.2-48.7H346.67a25.68,25.68,0,0,0,25.68-25.68h0V49.68A25.68,25.68,0,0,0,346.67,24Z"/><path id="Path_6957" data-name="Path 6957" class="cls-3" d="M421.67,0h-321A25.68,25.68,0,0,0,75,25.68v192.6A25.68,25.68,0,0,0,100.68,244H346.36c53,55.42,59.92,58.28,64,54.24l.24-54.24h11.12a25.68,25.68,0,0,0,25.68-25.68h0V25.68A25.68,25.68,0,0,0,421.67,0Z"/></g></g></svg>