<svg xmlns="http://www.w3.org/2000/svg" viewBox="0 0 776.65 244.32"><defs><style>.cls-1{fill:#282561;}.cls-2{fill:#26a9e1;}.cls-3{fill:#673090;}.cls-4{fill:#1377bc;}</style></defs><title>BusinessSenior</title><g id="Capa_2" data-name="Capa 2"><g id="Capa_1-2" data-name="Capa 1"><g id="Capa_2-2" data-name="Capa 2"><g id="Layer_1" data-name="Layer 1"><path class="cls-1" d="M56.37,72.37a22.89,22.89,0,0,1-1.52,8.57,17.71,17.71,0,0,1-4.41,6.49,20,20,0,0,1-7,4.16A27.07,27.07,0,0,1,34.27,93H0V22.7H32.44q10.65,0,15.92,5.07t5.27,14a16.94,16.94,0,0,1-1.82,8,16.48,16.48,0,0,1-5.07,5.83,17.27,17.27,0,0,1,7.1,6.54A19.62,19.62,0,0,1,56.37,72.37Zm-43-37.51V50.37H32.44a8.44,8.44,0,0,0,5.83-2.13,7.24,7.24,0,0,0,2.38-5.68,7.41,7.41,0,0,0-2.18-5.63,8.39,8.39,0,0,0-6-2.08Zm29.3,37A8.67,8.67,0,0,0,40,65q-2.69-2.38-7.86-2.38H13.38V80.79H32.44a17.24,17.24,0,0,0,3.75-.41,8.82,8.82,0,0,0,3.29-1.47,7.66,7.66,0,0,0,2.33-2.74,9.41,9.41,0,0,0,.87-4.3Z"/><path class="cls-1" d="M111.83,93H99.05V88.29a17.12,17.12,0,0,1-5.78,4.41,17.45,17.45,0,0,1-7.5,1.57A20.8,20.8,0,0,1,77.3,92.6a18.74,18.74,0,0,1-6.49-4.66,20.93,20.93,0,0,1-4.16-7.2,28.27,28.27,0,0,1-1.47-9.38V40.84H78.57V71.36a17,17,0,0,0,.3,2.84,9.82,9.82,0,0,0,1.32,3.4,8.46,8.46,0,0,0,2.94,2.84,9.92,9.92,0,0,0,5.17,1.17,9.66,9.66,0,0,0,7.35-2.94,10.2,10.2,0,0,0,2.79-7.3V40.84h13.38Z"/><path class="cls-1" d="M168,76.63a15,15,0,0,1-1.71,7.1,17,17,0,0,1-4.73,5.58A22.85,22.85,0,0,1,154.35,93a30.43,30.43,0,0,1-9.16,1.32,33.26,33.26,0,0,1-8.57-1.06,24.8,24.8,0,0,1-7.15-3.09,20.52,20.52,0,0,1-5.32-4.92A19.29,19.29,0,0,1,121,78.67l13.18-2.33a7.66,7.66,0,0,0,2,2.74,10.47,10.47,0,0,0,2.79,1.77,14.46,14.46,0,0,0,3.19,1,17.33,17.33,0,0,0,3.09.3A17,17,0,0,0,151.95,81q2.69-1.16,2.69-3.5a4.28,4.28,0,0,0-.41-1.93,3.44,3.44,0,0,0-1.62-1.42A17.86,17.86,0,0,0,149.26,73a54.32,54.32,0,0,0-5.58-1.07q-3.55-.51-7.35-1.37a28.18,28.18,0,0,1-7-2.58A15.7,15.7,0,0,1,124,63.43a11.64,11.64,0,0,1-2.08-7.15,14.72,14.72,0,0,1,1.37-6.08,15.26,15.26,0,0,1,4.11-5.37,21.58,21.58,0,0,1,6.94-3.8,30,30,0,0,1,9.88-1.47,25.66,25.66,0,0,1,14.09,3.75,18.33,18.33,0,0,1,7.91,10.14l-13.38,2.23A6.2,6.2,0,0,0,150,52.74a11.72,11.72,0,0,0-5.73-1.22q-4.66,0-6.69,1.37t-2,2.79q0,2,2.73,2.94a52.24,52.24,0,0,0,7.58,1.72q4.85.81,8.94,1.88a26.39,26.39,0,0,1,7,2.84,13.24,13.24,0,0,1,4.6,4.56A13.54,13.54,0,0,1,168,76.63Z"/><path class="cls-1" d="M184.21,36.59a7,7,0,0,1-4.89-11.89,6.56,6.56,0,0,1,4.87-2.08,7.1,7.1,0,0,1,7.1,7.1h0a6.56,6.56,0,0,1-2.08,4.87A6.92,6.92,0,0,1,184.21,36.59ZM191,93H177.62V40.84H191Z"/><path class="cls-1" d="M250.11,93H236.73V62.54a17.87,17.87,0,0,0-.3-2.89,10.43,10.43,0,0,0-1.27-3.45,8.06,8.06,0,0,0-2.89-2.84A10.17,10.17,0,0,0,227,52.2a9.66,9.66,0,0,0-7.35,2.94,10.33,10.33,0,0,0-2.79,7.4V93H203.47V40.84h12.77v5.07a19.52,19.52,0,0,1,5.88-4.66,16.37,16.37,0,0,1,7.6-1.72,20.54,20.54,0,0,1,8.36,1.67,18.28,18.28,0,0,1,6.44,4.66,21.39,21.39,0,0,1,4.11,7.25,28.77,28.77,0,0,1,1.47,9.43Z"/><path class="cls-1" d="M307.39,83.93l-.51.71a23.33,23.33,0,0,1-8.82,7.1,28.69,28.69,0,0,1-12.37,2.54,25.52,25.52,0,0,1-10.34-2.13,27.07,27.07,0,0,1-8.52-5.83,27.79,27.79,0,0,1-5.78-8.67A26.73,26.73,0,0,1,258.93,67a27.1,27.1,0,0,1,2.13-10.7,27.46,27.46,0,0,1,14.29-14.6,25,25,0,0,1,10.34-2.18,27.54,27.54,0,0,1,10.9,2.18,23.85,23.85,0,0,1,8.77,6.39,27.55,27.55,0,0,1,5.47,10.29A36.27,36.27,0,0,1,312,72.17H272.51a13.94,13.94,0,0,0,4.82,7.6,13,13,0,0,0,8.26,2.74,15,15,0,0,0,5.83-1.17,9.83,9.83,0,0,0,4.51-3.8Zm-8.72-22.71A13.1,13.1,0,0,0,294,54a13.33,13.33,0,0,0-8.36-2.69,12.66,12.66,0,0,0-8,2.69,14.29,14.29,0,0,0-4.87,7.25Z"/><path class="cls-1" d="M365.28,76.63a15,15,0,0,1-1.71,7.1,17,17,0,0,1-4.73,5.58A22.85,22.85,0,0,1,351.63,93a30.43,30.43,0,0,1-9.16,1.32,33.26,33.26,0,0,1-8.57-1.06,24.8,24.8,0,0,1-7.15-3.09,20.52,20.52,0,0,1-5.32-4.92,19.29,19.29,0,0,1-3.19-6.54l13.18-2.33a7.66,7.66,0,0,0,2,2.74,10.47,10.47,0,0,0,2.79,1.77,14.46,14.46,0,0,0,3.19,1,17.33,17.33,0,0,0,3.09.3A17,17,0,0,0,349.23,81q2.69-1.16,2.69-3.5a4.28,4.28,0,0,0-.41-1.93,3.44,3.44,0,0,0-1.62-1.42A17.86,17.86,0,0,0,346.54,73,54.32,54.32,0,0,0,341,71.89q-3.55-.51-7.35-1.37a28.18,28.18,0,0,1-7-2.58,15.7,15.7,0,0,1-5.32-4.51,11.64,11.64,0,0,1-2.08-7.15,14.72,14.72,0,0,1,1.37-6.08,15.26,15.26,0,0,1,4.11-5.37,21.58,21.58,0,0,1,6.94-3.8,30,30,0,0,1,9.88-1.47,25.66,25.66,0,0,1,14.09,3.75,18.33,18.33,0,0,1,7.91,10.14l-13.38,2.23a6.2,6.2,0,0,0-2.89-2.94,11.72,11.72,0,0,0-5.73-1.22q-4.66,0-6.69,1.37t-2,2.79q0,2,2.73,2.94A52.24,52.24,0,0,0,343,60.31q4.85.81,8.94,1.88A26.39,26.39,0,0,1,359,65a13.24,13.24,0,0,1,4.6,4.56A13.54,13.54,0,0,1,365.28,76.63Z"/><path class="cls-1" d="M418.6,76.63a15,15,0,0,1-1.71,7.1,17,17,0,0,1-4.73,5.58A22.85,22.85,0,0,1,405,93a30.42,30.42,0,0,1-9.16,1.32,33.26,33.26,0,0,1-8.57-1.06,24.81,24.81,0,0,1-7.15-3.09,20.52,20.52,0,0,1-5.32-4.92,19.29,19.29,0,0,1-3.19-6.54l13.18-2.33a7.67,7.67,0,0,0,2,2.74,10.48,10.48,0,0,0,2.79,1.77,14.45,14.45,0,0,0,3.19,1,17.34,17.34,0,0,0,3.09.3A17,17,0,0,0,402.6,81q2.69-1.16,2.69-3.5a4.28,4.28,0,0,0-.41-1.93,3.44,3.44,0,0,0-1.62-1.42A17.89,17.89,0,0,0,399.91,73a54.3,54.3,0,0,0-5.58-1.07q-3.55-.51-7.35-1.37a28.18,28.18,0,0,1-7-2.58,15.7,15.7,0,0,1-5.32-4.51,11.64,11.64,0,0,1-2.08-7.15,14.72,14.72,0,0,1,1.37-6.08A15.26,15.26,0,0,1,378,44.8,21.58,21.58,0,0,1,384.9,41a30,30,0,0,1,9.88-1.47,25.66,25.66,0,0,1,14.09,3.75,18.33,18.33,0,0,1,7.91,10.14l-13.38,2.2a6.2,6.2,0,0,0-2.89-2.94,11.72,11.72,0,0,0-5.73-1.22q-4.66,0-6.69,1.37t-2,2.79q0,2,2.73,2.94a52.24,52.24,0,0,0,7.58,1.72q4.85.81,8.94,1.88a26.38,26.38,0,0,1,7,2.84,13.25,13.25,0,0,1,4.6,4.56A13.54,13.54,0,0,1,418.6,76.63Z"/><path class="cls-2" d="M464.91,30.55h3.24L473,49.89l-4.18,1.26a33.15,33.15,0,0,0-10.56-12.82,19.88,19.88,0,0,0-12-3.91,17.13,17.13,0,0,0-7.1,1.41,11.16,11.16,0,0,0-4.72,3.66A7.91,7.91,0,0,0,432.92,44a7.69,7.69,0,0,0,1.21,4.09,10.78,10.78,0,0,0,3.69,3.48,36.82,36.82,0,0,0,8.1,3.17l11.74,3.47a57.27,57.27,0,0,1,6.27,2.43,25,25,0,0,1,6.41,3.8,14.08,14.08,0,0,1,3.6,4.91,15.15,15.15,0,0,1,1.3,6.28q0,7.47-6.54,13.08t-16.94,5.6a27.66,27.66,0,0,1-9.58-1.55A33.18,33.18,0,0,1,433,87.28l-2.07,6h-3.16l-4.18-22.54,4.18-.85a33.57,33.57,0,0,0,6.09,10.62,26.43,26.43,0,0,0,8.41,6.59,21.35,21.35,0,0,0,9.38,2.23A17.53,17.53,0,0,0,463,85.42a9.73,9.73,0,0,0,4-7.74,8.58,8.58,0,0,0-2.92-6.7q-3-2.61-10.62-4.86l-11.25-3.24q-9.45-2.74-13.31-7a14.18,14.18,0,0,1-3.8-9.85,13.81,13.81,0,0,1,2.52-8,18.92,18.92,0,0,1,7.74-6.14,26.33,26.33,0,0,1,11.43-2.47,28.06,28.06,0,0,1,10,1.8,21.54,21.54,0,0,1,6.21,3.6Z"/><path class="cls-2" d="M522.43,81.7,525.3,84a38.77,38.77,0,0,1-6.37,6.21,21.35,21.35,0,0,1-5.83,3.22,20.24,20.24,0,0,1-6.43.92,22,22,0,0,1-11.25-2.7,21.76,21.76,0,0,1-8.14-8.1,23.49,23.49,0,0,1-2.83-11.79,25.07,25.07,0,0,1,2.74-12.15,20.34,20.34,0,0,1,7.67-7.94,22,22,0,0,1,11.4-2.9,21.36,21.36,0,0,1,8.37,1.5,15.46,15.46,0,0,1,6,4.53,19.26,19.26,0,0,1,3.6,6.93,25.28,25.28,0,0,1,.72,5.92h-31.8Q493,69.89,493,71a24.59,24.59,0,0,0,2,10.12,14.47,14.47,0,0,0,5.24,6.54,13.38,13.38,0,0,0,7.4,2.1,15,15,0,0,0,6.79-1.64A33,33,0,0,0,522.43,81.7Zm-5.76-18.17a17.2,17.2,0,0,0-1.91-6.12,8.76,8.76,0,0,0-3.51-3.15,11,11,0,0,0-5.11-1.17,12.26,12.26,0,0,0-5.31,1.17,11.38,11.38,0,0,0-4.12,3.24,18.53,18.53,0,0,0-2.86,6Z"/><path class="cls-2" d="M533.35,56.33V52.59a33.54,33.54,0,0,0,6-1.08,35.15,35.15,0,0,0,5.71-2.7h3.24v8.55a42.81,42.81,0,0,1,10.13-6.77,21.67,21.67,0,0,1,8.51-1.78A16.13,16.13,0,0,1,573.43,50a12.35,12.35,0,0,1,4.6,3.35,11,11,0,0,1,2.36,4.81,25.93,25.93,0,0,1,.36,5V83a12.34,12.34,0,0,0,.52,4.57A3,3,0,0,0,582.92,89a19.79,19.79,0,0,0,5.53.45v3.78H565.33V89.52h1.26a11.16,11.16,0,0,0,4.41-.58,3.52,3.52,0,0,0,1.69-1.71,13,13,0,0,0,.52-4.59V66.09q0-5.13-.83-7.11a6.89,6.89,0,0,0-2.83-3.22,9.48,9.48,0,0,0-5.06-1.24,19,19,0,0,0-7.78,1.87,29.37,29.37,0,0,0-8,5.51V82.64a13.64,13.64,0,0,0,.52,4.68A3.48,3.48,0,0,0,550.89,89q.81.45,4.32.45h1.3v3.78H533.3V89.52h1.13A12.43,12.43,0,0,0,539,89a3.24,3.24,0,0,0,1.72-2A23.3,23.3,0,0,0,541,82V56.33Z"/><path class="cls-2" d="M595.23,56.33V52.59a35,35,0,0,0,6.28-1.24,34.42,34.42,0,0,0,5.78-2.53h3.28V84.89a5.85,5.85,0,0,0,.54,2.83,3.17,3.17,0,0,0,1.51,1.37,9.86,9.86,0,0,0,3.53.43h2.11V93.3h-23V89.52h1.84a10,10,0,0,0,4-.54,3.08,3.08,0,0,0,1.46-1.53,15,15,0,0,0,.43-4.63V56.33Zm11.43-27.8a5.07,5.07,0,0,1,3.68,1.5,5,5,0,0,1,1.53,3.67,5.22,5.22,0,0,1-10.44,0h0A5,5,0,0,1,603,30,5.06,5.06,0,0,1,606.66,28.53Z"/><path class="cls-2" d="M647.4,48.81a22.83,22.83,0,0,1,11.45,2.74,19.38,19.38,0,0,1,7.62,8,25.26,25.26,0,0,1,2.79,12,24.77,24.77,0,0,1-2.86,12,19.8,19.8,0,0,1-7.78,8,23.66,23.66,0,0,1-11.76,2.77q-10.89,0-16.35-6.79a24.7,24.7,0,0,1-5.46-16,24.44,24.44,0,0,1,2.83-11.9,20,20,0,0,1,7.94-8A23.31,23.31,0,0,1,647.4,48.81Zm-.4,4.37a11.12,11.12,0,0,0-8.68,4q-4.5,5-4.5,14.66,0,9.27,3.82,14.12a11.41,11.41,0,0,0,9.4,4.32,11.87,11.87,0,0,0,6.81-2,14,14,0,0,0,4.84-6.46,27,27,0,0,0,1.84-10.41,26.45,26.45,0,0,0-2-10.48A12.21,12.21,0,0,0,647,53.18Z"/><path class="cls-2" d="M677.7,56.33V52.59a26,26,0,0,0,5.83-1.09,31.68,31.68,0,0,0,5.83-2.69h3.36v8.5a24.78,24.78,0,0,1,7.42-6.21,16.28,16.28,0,0,1,7.6-2.29A8.1,8.1,0,0,1,713,50.39a4.78,4.78,0,0,1,1.93,3.82A3.86,3.86,0,0,1,713.67,57a4.28,4.28,0,0,1-3.08,1.24,3.87,3.87,0,0,1-1.39-.22,9.54,9.54,0,0,1-1.71-1,8.11,8.11,0,0,0-4.14-1.62,8.85,8.85,0,0,0-5,1.89,27.83,27.83,0,0,0-5.4,4.81V82.87a15,15,0,0,0,.29,3.67,4,4,0,0,0,1,1.66,3.92,3.92,0,0,0,1.66,1,12.92,12.92,0,0,0,3.46.32h1.48V93.3H677.66V89.52h1.93a8.38,8.38,0,0,0,3.6-.5,4.16,4.16,0,0,0,1.73-1.87,11.24,11.24,0,0,0,.56-4.3V56.33Z"/><path class="cls-3" d="M499.3,105.71s5.76,95.58,106.52,111.12c0,0,58.15,7.49,96.73-29.94,0,0,38-29.36,41.46-82.33,0,0,2.3,58.73-42.61,94.43,0,0-36.85,36.27-97.3,28.79,0,0-55.85-4-91.55-64.49C512.54,163.28,499.88,144.28,499.3,105.71Z"/><path class="cls-4" d="M549.35,206.91s72.91,62.07,153.93.18c0,0,45.69-36.75,45.43-90.49,0,0,5.15-47.75-30.65-86.94,0,0,43.94,39,38.57,96.15,0,0,.63,51.7-46.66,90.11,0,0-41.6,37.48-109.93,21.34C600,237.25,577.57,233.22,549.35,206.91Z"/><path class="cls-2" d="M642.52,243.82s95.7,3,120.34-96c0,0,12.74-57.23-21-99.05,0,0-25.79-40.51-78.22-48.77,0,0,58.69,3,90.16,51,0,0,32.77,40,19.82,99.52,0,0-9.09,55.25-72.54,85.31C701.06,235.87,681,246.76,642.52,243.82Z"/><circle class="cls-3" cx="621.94" cy="179.98" r="32.24"/><path class="cls-2" d="M64,106H77.31v2.27H66.36v7.25H77.22v2.26H66.36v9.09H77.22v2.27H64Z"/><path class="cls-2" d="M79,112.09h2.64l4.55,6.26,4.5-6.26h2.65l-5.83,8.09,6.57,9H91.4L86.19,122,81,129.21H78.38l6.49-9Z"/><path class="cls-2" d="M96.44,112.09h2.2v3.15a8.83,8.83,0,0,1,3-2.69,8,8,0,0,1,3.79-.9,8.45,8.45,0,0,1,6.24,2.63,8.68,8.68,0,0,1,2.59,6.32A8.84,8.84,0,0,1,111.7,127a8.65,8.65,0,0,1-10,1.79,9.46,9.46,0,0,1-3.1-2.53v9.2H96.4Zm8.81,1.68a6.47,6.47,0,0,0-4.81,2,6.82,6.82,0,0,0-2,5,7,7,0,0,0,.87,3.5,6.35,6.35,0,0,0,2.5,2.47,6.9,6.9,0,0,0,3.43.91,6.47,6.47,0,0,0,3.33-.92,6.74,6.74,0,0,0,2.49-2.57,6.94,6.94,0,0,0,0-6.91,6.63,6.63,0,0,0-5.86-3.44Z"/><path class="cls-2" d="M132.8,123.53l1.86,1a10.12,10.12,0,0,1-2.11,2.89,8.4,8.4,0,0,1-2.69,1.68,9.4,9.4,0,0,1-3.39.57,8.18,8.18,0,0,1-6.55-2.75,9.26,9.26,0,0,1-2.36-6.21,9.15,9.15,0,0,1,2-5.8,8.17,8.17,0,0,1,6.79-3.24,8.44,8.44,0,0,1,7,3.32,9.27,9.27,0,0,1,1.89,5.85h-15.4a7,7,0,0,0,1.91,4.89,6.08,6.08,0,0,0,4.55,1.91,7.32,7.32,0,0,0,2.54-.45,6.68,6.68,0,0,0,2.1-1.21A10.26,10.26,0,0,0,132.8,123.53Zm0-4.61a7.31,7.31,0,0,0-1.28-2.82,6.08,6.08,0,0,0-2.23-1.7,6.84,6.84,0,0,0-2.91-.65,6.28,6.28,0,0,0-4.33,1.62,7.32,7.32,0,0,0-2,3.54Z"/><path class="cls-2" d="M138.49,112.09h2.25v2.5a7.89,7.89,0,0,1,2.12-2.21,4.19,4.19,0,0,1,2.33-.73,4,4,0,0,1,2,.58L146,114.09a3.06,3.06,0,0,0-1.16-.3,3.18,3.18,0,0,0-2.12.91,5.71,5.71,0,0,0-1.56,2.81,26.93,26.93,0,0,0-.41,5.92v5.79H138.5Z"/><path class="cls-2" d="M149.78,105a1.83,1.83,0,0,1,1.81,1.83,1.81,1.81,0,0,1-3.62,0,1.76,1.76,0,0,1,.53-1.29A1.73,1.73,0,0,1,149.78,105Zm-1.09,7h2.2v17.12h-2.2Z"/><path class="cls-2" d="M169.88,123.53l1.86,1a10.12,10.12,0,0,1-2.11,2.89,8.4,8.4,0,0,1-2.69,1.68,9.4,9.4,0,0,1-3.39.57,8.18,8.18,0,0,1-6.55-2.75,9.26,9.26,0,0,1-2.36-6.21,9.15,9.15,0,0,1,2-5.8,8.17,8.17,0,0,1,6.79-3.24,8.44,8.44,0,0,1,7,3.32,9.27,9.27,0,0,1,1.89,5.85H156.9a7,7,0,0,0,1.91,4.89,6.08,6.08,0,0,0,4.55,1.91,7.32,7.32,0,0,0,2.54-.45A6.68,6.68,0,0,0,168,126,10.26,10.26,0,0,0,169.88,123.53Zm0-4.61a7.31,7.31,0,0,0-1.28-2.82,6.08,6.08,0,0,0-2.23-1.7,6.84,6.84,0,0,0-2.91-.65,6.28,6.28,0,0,0-4.33,1.62,7.32,7.32,0,0,0-2,3.54Z"/><path class="cls-2" d="M176.41,112.09h2.2v3.07a9.21,9.21,0,0,1,2.93-2.64,7.19,7.19,0,0,1,3.49-.87,6.07,6.07,0,0,1,3.41,1,5.81,5.81,0,0,1,2.19,2.63,13.9,13.9,0,0,1,.71,5.15v8.81h-2.2V121a20.11,20.11,0,0,0-.24-3.95,4.33,4.33,0,0,0-1.47-2.56,4.43,4.43,0,0,0-2.83-.86A5.43,5.43,0,0,0,181,115a6.19,6.19,0,0,0-2.08,3.27,22.75,22.75,0,0,0-.31,4.66v6.28h-2.2Z"/><path class="cls-2" d="M212.67,115.65l-1.75,1.09a7.31,7.31,0,0,0-6.18-3,7.15,7.15,0,0,0-5.19,2,6.57,6.57,0,0,0-2.07,4.89,6.94,6.94,0,0,0,1,3.52,6.67,6.67,0,0,0,2.61,2.56,7.89,7.89,0,0,0,9.88-2.09l1.75,1.15a8.25,8.25,0,0,1-3.3,2.87,10.53,10.53,0,0,1-4.71,1,9.31,9.31,0,0,1-6.73-2.58,8.4,8.4,0,0,1-2.67-6.28,9,9,0,0,1,1.25-4.62,8.81,8.81,0,0,1,3.44-3.33,10,10,0,0,1,4.89-1.2,10.45,10.45,0,0,1,3.28.52,9.15,9.15,0,0,1,2.68,1.35A7.38,7.38,0,0,1,212.67,115.65Z"/><path class="cls-2" d="M217.67,105a1.83,1.83,0,0,1,1.81,1.83,1.81,1.81,0,0,1-3.62,0,1.76,1.76,0,0,1,.53-1.29A1.73,1.73,0,0,1,217.67,105Zm-1.09,7h2.2v17.12h-2.2Z"/><path class="cls-2" d="M240.41,112.09v17.12h-2.17v-2.94a9.43,9.43,0,0,1-3.11,2.53,8.68,8.68,0,0,1-10-1.79,8.84,8.84,0,0,1-2.57-6.41,8.67,8.67,0,0,1,2.6-6.32,8.46,8.46,0,0,1,6.25-2.63,8.07,8.07,0,0,1,3.82.9,8.68,8.68,0,0,1,3,2.69v-3.15Zm-8.8,1.68a6.64,6.64,0,0,0-5.87,3.44,6.93,6.93,0,0,0,0,6.91,6.74,6.74,0,0,0,2.49,2.57,6.51,6.51,0,0,0,3.35.92,6.88,6.88,0,0,0,3.43-.91,6.37,6.37,0,0,0,2.49-2.47,7,7,0,0,0,.87-3.5,6.81,6.81,0,0,0-2-5,6.48,6.48,0,0,0-4.76-1.95Z"/><path class="cls-2" d="M268.69,123.53l1.86,1a10.12,10.12,0,0,1-2.11,2.89,8.4,8.4,0,0,1-2.69,1.68,9.4,9.4,0,0,1-3.39.57,8.18,8.18,0,0,1-6.55-2.75,9.26,9.26,0,0,1-2.36-6.21,9.15,9.15,0,0,1,2-5.8,8.17,8.17,0,0,1,6.79-3.24,8.44,8.44,0,0,1,7,3.32,9.27,9.27,0,0,1,1.89,5.85h-15.4a7,7,0,0,0,1.91,4.89,6.08,6.08,0,0,0,4.55,1.91,7.32,7.32,0,0,0,2.54-.45,6.68,6.68,0,0,0,2.1-1.21A10.26,10.26,0,0,0,268.69,123.53Zm0-4.61a7.31,7.31,0,0,0-1.28-2.82,6.08,6.08,0,0,0-2.23-1.7,6.84,6.84,0,0,0-2.91-.65,6.28,6.28,0,0,0-4.33,1.62,7.32,7.32,0,0,0-2,3.54Z"/><path class="cls-2" d="M275.21,112.09h2.2v3a8.51,8.51,0,0,1,2.36-2.39,6.7,6.7,0,0,1,3.51-1,5.85,5.85,0,0,1,2.36.49,5.09,5.09,0,0,1,1.83,1.3,7,7,0,0,1,1.23,2.32,8.12,8.12,0,0,1,2.75-3.06,6.49,6.49,0,0,1,3.55-1,5.55,5.55,0,0,1,3.13.9,5.34,5.34,0,0,1,2,2.5,13.34,13.34,0,0,1,.66,4.81v9.34h-2.25V120a12.21,12.21,0,0,0-.39-3.78,3.41,3.41,0,0,0-1.34-1.66,4,4,0,0,0-2.27-.63,4.92,4.92,0,0,0-2.92.94,5.43,5.43,0,0,0-1.94,2.52,16,16,0,0,0-.61,5.25v6.7h-2.2v-8.76a15,15,0,0,0-.39-4.21,3.52,3.52,0,0,0-1.35-1.78,3.89,3.89,0,0,0-2.28-.67,4.92,4.92,0,0,0-2.86.92,5.45,5.45,0,0,0-2,2.48,13.36,13.36,0,0,0-.64,4.77v7.25h-2.2Z"/><path class="cls-2" d="M305.48,112.09h2.2v3.15a8.83,8.83,0,0,1,3-2.69,8,8,0,0,1,3.79-.9,8.45,8.45,0,0,1,6.24,2.63,8.68,8.68,0,0,1,2.59,6.32,8.84,8.84,0,0,1-2.57,6.41,8.65,8.65,0,0,1-10,1.79,9.46,9.46,0,0,1-3.1-2.53v9.2h-2.2Zm8.81,1.68a6.47,6.47,0,0,0-4.81,2,6.82,6.82,0,0,0-2,5,7,7,0,0,0,.87,3.5,6.35,6.35,0,0,0,2.5,2.47,6.9,6.9,0,0,0,3.43.91,6.47,6.47,0,0,0,3.33-.92,6.74,6.74,0,0,0,2.49-2.57,6.94,6.94,0,0,0,0-6.91,6.63,6.63,0,0,0-5.86-3.44Z"/><path class="cls-2" d="M326.59,112.09h2.25v2.5a7.89,7.89,0,0,1,2.12-2.21,4.19,4.19,0,0,1,2.33-.73,4,4,0,0,1,2,.58l-1.15,1.86a3.06,3.06,0,0,0-1.16-.3,3.18,3.18,0,0,0-2.12.91,5.71,5.71,0,0,0-1.56,2.81,26.93,26.93,0,0,0-.41,5.92v5.79h-2.25Z"/><path class="cls-2" d="M351.4,123.53l1.86,1a10.12,10.12,0,0,1-2.11,2.89,8.4,8.4,0,0,1-2.69,1.68,9.4,9.4,0,0,1-3.39.57,8.18,8.18,0,0,1-6.55-2.75,9.26,9.26,0,0,1-2.36-6.21,9.15,9.15,0,0,1,2-5.8,8.17,8.17,0,0,1,6.79-3.24,8.44,8.44,0,0,1,7,3.32,9.27,9.27,0,0,1,1.89,5.85h-15.4a7,7,0,0,0,1.91,4.89,6.08,6.08,0,0,0,4.55,1.91,7.32,7.32,0,0,0,2.54-.45,6.68,6.68,0,0,0,2.1-1.21A10.26,10.26,0,0,0,351.4,123.53Zm0-4.61a7.31,7.31,0,0,0-1.28-2.82,6.08,6.08,0,0,0-2.23-1.7,6.84,6.84,0,0,0-2.91-.65,6.28,6.28,0,0,0-4.33,1.62,7.32,7.32,0,0,0-2,3.54Z"/><path class="cls-2" d="M357.93,112.09h2.2v3.07a9.21,9.21,0,0,1,2.93-2.64,7.19,7.19,0,0,1,3.49-.87,6.07,6.07,0,0,1,3.41,1,5.81,5.81,0,0,1,2.19,2.63,13.9,13.9,0,0,1,.71,5.15v8.81h-2.2V121a20.11,20.11,0,0,0-.24-3.95,4.33,4.33,0,0,0-1.47-2.56,4.43,4.43,0,0,0-2.83-.86,5.43,5.43,0,0,0-3.58,1.32,6.19,6.19,0,0,0-2.08,3.27,22.75,22.75,0,0,0-.31,4.66v6.28H358Z"/><path class="cls-2" d="M394.66,105.49v23.72h-2.17v-2.94a9.43,9.43,0,0,1-3.11,2.53,8.68,8.68,0,0,1-10-1.79,8.83,8.83,0,0,1-2.57-6.41,8.67,8.67,0,0,1,2.6-6.32,8.46,8.46,0,0,1,6.25-2.63,8.07,8.07,0,0,1,3.82.9,8.68,8.68,0,0,1,3,2.69v-9.75Zm-8.8,8.29a6.64,6.64,0,0,0-5.87,3.44,6.94,6.94,0,0,0,0,6.91,6.75,6.75,0,0,0,2.49,2.57,6.51,6.51,0,0,0,3.35.92,6.88,6.88,0,0,0,3.43-.91,6.37,6.37,0,0,0,2.49-2.47,7,7,0,0,0,.87-3.5,6.81,6.81,0,0,0-2-5,6.48,6.48,0,0,0-4.76-2Z"/><path class="cls-2" d="M414.06,123.53l1.86,1a10.14,10.14,0,0,1-2.11,2.89,8.38,8.38,0,0,1-2.69,1.68,9.4,9.4,0,0,1-3.39.57,8.18,8.18,0,0,1-6.55-2.75,9.26,9.26,0,0,1-2.36-6.21,9.15,9.15,0,0,1,2-5.8,8.17,8.17,0,0,1,6.79-3.24,8.44,8.44,0,0,1,7,3.32,9.27,9.27,0,0,1,1.89,5.85H401.1a7,7,0,0,0,1.91,4.89,6.08,6.08,0,0,0,4.55,1.91,7.32,7.32,0,0,0,2.54-.45,6.68,6.68,0,0,0,2.1-1.21A10.25,10.25,0,0,0,414.06,123.53Zm0-4.61a7.3,7.3,0,0,0-1.28-2.82,6.08,6.08,0,0,0-2.23-1.7,6.83,6.83,0,0,0-2.91-.65,6.28,6.28,0,0,0-4.33,1.62,7.33,7.33,0,0,0-2,3.54Z"/><path class="cls-2" d="M437.68,105.49v23.72H435.5v-2.94a9.43,9.43,0,0,1-3.11,2.53,8.68,8.68,0,0,1-10-1.79,8.84,8.84,0,0,1-2.57-6.41,8.67,8.67,0,0,1,2.6-6.32,8.46,8.46,0,0,1,6.25-2.63,8.07,8.07,0,0,1,3.82.9,8.68,8.68,0,0,1,3,2.69v-9.75Zm-8.8,8.29a6.64,6.64,0,0,0-5.87,3.44,6.93,6.93,0,0,0,0,6.91,6.75,6.75,0,0,0,2.49,2.57,6.51,6.51,0,0,0,3.35.92,6.88,6.88,0,0,0,3.43-.91,6.37,6.37,0,0,0,2.49-2.47,7,7,0,0,0,.87-3.5,6.81,6.81,0,0,0-2-5,6.48,6.48,0,0,0-4.77-2Z"/><path class="cls-2" d="M450.77,111.65a8.48,8.48,0,0,1,6.56,2.86A9.19,9.19,0,0,1,457.2,127a9.05,9.05,0,0,1-12.8.06l-.06-.06a9.17,9.17,0,0,1-.13-12.44A8.47,8.47,0,0,1,450.77,111.65Zm0,2.16a6.36,6.36,0,0,0-4.72,2,6.78,6.78,0,0,0-2,4.91,7,7,0,0,0,.9,3.46,6.37,6.37,0,0,0,2.43,2.48,6.92,6.92,0,0,0,6.73,0,6.39,6.39,0,0,0,2.43-2.48,7,7,0,0,0,.9-3.46,6.77,6.77,0,0,0-2-4.91,6.36,6.36,0,0,0-4.68-2Z"/><path class="cls-2" d="M462.93,112.09h2.25v2.5a7.9,7.9,0,0,1,2.12-2.21,4.19,4.19,0,0,1,2.33-.73,4,4,0,0,1,2,.58l-1.15,1.86a3.06,3.06,0,0,0-1.16-.3,3.19,3.19,0,0,0-2.12.91,5.72,5.72,0,0,0-1.56,2.81,26.89,26.89,0,0,0-.41,5.92v5.79H463Z"/><path class="cls-2" d="M490.51,112.09v17.12h-2.17v-2.94a9.44,9.44,0,0,1-3.11,2.53,8.68,8.68,0,0,1-10-1.79,8.84,8.84,0,0,1-2.57-6.41,8.67,8.67,0,0,1,2.6-6.32,8.46,8.46,0,0,1,6.25-2.63,8.07,8.07,0,0,1,3.82.9,8.68,8.68,0,0,1,3,2.69v-3.15Zm-8.8,1.68a6.64,6.64,0,0,0-5.87,3.44,6.94,6.94,0,0,0,0,6.91,6.75,6.75,0,0,0,2.49,2.57,6.51,6.51,0,0,0,3.35.92,6.87,6.87,0,0,0,3.43-.91,6.38,6.38,0,0,0,2.49-2.47,7,7,0,0,0,.87-3.5,6.81,6.81,0,0,0-2-5,6.48,6.48,0,0,0-4.77-1.95Z"/></g></g></g></g></svg>