<svg xmlns="http://www.w3.org/2000/svg" xmlns:xlink="http://www.w3.org/1999/xlink" viewBox="0 0 800 600">
  <defs>
    <style>
      .cls-1 {
        clip-path: url(#clip-Custom_Size_1);
      }

      .cls-2 {
        fill: #fff;
      }

      .cls-3 {
        fill: #ea8713;
      }
    </style>
    <clipPath id="clip-Custom_Size_1">
      <rect width="800" height="600"/>
    </clipPath>
  </defs>
  <g id="Custom_Size_1" data-name="Custom Size – 1" class="cls-1">
    <rect class="cls-3" width="800" height="600"/>
    <g id="Astros" transform="translate(55.266 217.016)">
      <g id="Capa_1" data-name="Capa 1" transform="translate(-0.007 -0.044)">
        <path id="Path_10" data-name="Path 10" class="cls-2" d="M73.2,28.172a23.611,23.611,0,0,1,.713,2.794,2.536,2.536,0,1,0,4.979-.958,28.8,28.8,0,0,0-.865-3.4A2.536,2.536,0,0,0,73.2,28.161Z" transform="translate(12.349 4.256)"/>
        <path id="Path_11" data-name="Path 11" class="cls-2" d="M51.08,11.371A2.536,2.536,0,0,0,53.6,13.908a24.908,24.908,0,0,1,19.181,9.351A2.536,2.536,0,0,0,76.7,20.068,30.016,30.016,0,0,0,53.616,8.8h0a2.536,2.536,0,0,0-2.536,2.571Z" transform="translate(8.633 1.537)"/>
        <path id="Path_12" data-name="Path 12" class="cls-2" d="M62.491,84.11H51.106a2.536,2.536,0,1,0,0,5.073H62.491a2.536,2.536,0,1,0,0-5.073Z" transform="translate(8.209 14.252)"/>
        <path id="Path_13" data-name="Path 13" class="cls-2" d="M239.333,117.125l-7.773-7.773a14.353,14.353,0,0,0-18.3-1.636l-5.084-5.073,1.309.164a2.536,2.536,0,0,0,2.513-2.2l6.312-46.216a2.536,2.536,0,0,0-2.162-2.852l-10.894-1.5a14.353,14.353,0,0,0-15.569,9.783l-24.546-3.355a28.052,28.052,0,0,0-5.2-.222V45.066a19.952,19.952,0,1,0-39.892,0V58.59h-9.877L100.112,48.538A39.191,39.191,0,1,0,23.273,33.553L5.214,51.6a17.813,17.813,0,0,0,0,25.2l40.909,40.909v4.243A27.912,27.912,0,0,0,74,149.829h3.986l2,2a50.19,50.19,0,0,0,70.9,0l25.072-24.978,26.79,26.813a2.536,2.536,0,0,0,3.588,0l32.985-32.985a2.536,2.536,0,0,0,.012-3.553Zm-60.78,5.12V103.064a18.959,18.959,0,0,0,13.781-9.129L203.3,104.9l-21.039,21.039ZM149,97.43,137.924,86.4l.736-5.365v-.07a18.993,18.993,0,0,0,4.675,1.578,19.2,19.2,0,0,0,3.705.362,18.807,18.807,0,0,0,8.521-2.045l4.582,6.031a28.181,28.181,0,0,0-3.951,3.284ZM160.787,61.3a13.944,13.944,0,0,1-20.77,14.6,22.816,22.816,0,0,1,20.77-14.6ZM175.982,81.99a27.8,27.8,0,0,0-11.291,2.338l-4.862-6.394a19.017,19.017,0,0,0,6.148-16.2L180,63.651l-2.5,18.4c-.514-.035-1.005-.047-1.519-.047Zm0,5.073a22.64,22.64,0,0,1,12.32,3.612,13.944,13.944,0,0,1-24.7,0,22.64,22.64,0,0,1,12.378-3.6Zm31.325,10.356-4.009-.549,5.622-41.19,4.009.549ZM191.27,65.182a2.536,2.536,0,0,0,2.852-2.174,9.269,9.269,0,0,1,9.771-7.983L198.7,93.164l-2.992-2.992a27.69,27.69,0,0,0-13.2-7.4l2.5-18.479Zm-46.835-3.226a27.8,27.8,0,0,0-7.761,9.117L124.985,59.384V44.447h29.724v12.53a27.783,27.783,0,0,0-10.274,4.979Zm-4.523-31.781A14.926,14.926,0,0,1,153.68,39.4H126.154a14.9,14.9,0,0,1,13.769-9.222ZM122.133,63.662s12.355,12.32,12.472,12.413a28.206,28.206,0,0,0-.923,4.278l-.21,1.555L115.237,63.674h6.9Zm23.283,37.4-7.808,7.808L92.562,63.768a39.214,39.214,0,0,0,5.844-9.818ZM96.173,39.2A34.258,34.258,0,0,1,96,42.705c-8.31,8.077-19.543,11.49-29.221,8.988A12.962,12.962,0,0,0,53.768,39.456a13.162,13.162,0,0,0-1.648.117C47.351,29.217,50.483,15.728,60.115,6.1c.351-.351.7-.69,1.052-1.005h.842A34.165,34.165,0,0,1,96.173,39.2Zm-42.405,5.33a7.913,7.913,0,1,1-5.6,2.338,7.913,7.913,0,0,1,5.6-2.338Zm-.479-38.3c-8.357,10.59-10.695,24.1-5.949,34.983a12.986,12.986,0,1,0,18.7,15.522,30.881,30.881,0,0,0,7.142.83,37.192,37.192,0,0,0,20.946-6.814A34.118,34.118,0,1,1,53.218,6.226Zm-7.13,79.329-33.9-33.9L22.875,41.045a39.25,39.25,0,0,0,23.248,33.9v10.52Zm-26.965-1.94,8.93-8.93,4,4-8.93,8.93ZM5.074,64.2a12.659,12.659,0,0,1,3.647-8.918L24.547,71.1l-8.93,8.93L8.8,73.223A12.67,12.67,0,0,1,5.074,64.2ZM26.779,91.177l8.93-8.93L46.159,92.7v17.872Zm24.8,34.738a12.951,12.951,0,0,1,14.575,2.665,13.114,13.114,0,0,1,2.186,15.5,22.874,22.874,0,0,1-16.761-18.14ZM73.638,144.78a17.93,17.93,0,0,0-1.683-17.123l12.623-12.635h15.6v29.735Zm40.909-14.868a14.9,14.9,0,0,1-9.222,13.757V116.143a14.9,14.9,0,0,1,9.152,13.769Zm32.727,18.362a45.117,45.117,0,0,1-62.065,1.578H99.6a19.952,19.952,0,0,0,0-39.9H86.063V81.826a2.536,2.536,0,0,0-5.073,0v29.618L68.542,123.9a17.988,17.988,0,0,0-17.31-3.261V76.859a39.063,39.063,0,0,0,37.894-9.351l44.907,44.907-6.136,6.136a2.537,2.537,0,1,0,3.588,3.588l28.146-28.157a18.97,18.97,0,0,0,13.827,9.094v19.181Zm38.466-18.7,21.039-21.039L211.245,113a2.536,2.536,0,0,0,3.588,0,9.269,9.269,0,0,1,12.6-.444l-29.314,29.314Zm18.807,18.736-2.864-2.864,29.4-29.4,2.864,2.864Z" transform="translate(0.007 0.044)"/>
        <path id="Path_14" data-name="Path 14" class="cls-2" d="M217.73,118.255,248.213,35.91h6.861L284.1,118.255h-7.539l-8.1-24.861H234.047L225.5,118.255Zm18.7-31.278h29.805L251.591,45.249Z" transform="translate(36.77 6.114)"/>
        <path id="Path_15" data-name="Path 15" class="cls-2" d="M308.9,35.33q4.617,0,13.839.9t13.839,1.578v4.956l-27.105-1.017h-1.578q-6.639,0-10.344,2.583T293.83,55.352v7.422q0,5.4,1.239,7.317a10.263,10.263,0,0,0,2.338,2.7,8.182,8.182,0,0,0,2.642,1.239,30.46,30.46,0,0,0,7.013.678H322q10.683,0,14.505,5.844a22.465,22.465,0,0,1,3.261,12.6V100.8q0,12.857-9.783,16.539a30.659,30.659,0,0,1-10.917,1.917q-5.844,0-15.581-.842t-13.816-1.648v-4.944q10.905,1.017,20.42,1.017t11.361-.164a20.829,20.829,0,0,0,4.219-.9,12.086,12.086,0,0,0,3.927-2.022q3.717-2.922,3.717-9v-7.6q0-5.961-2.583-8.942T322,81.23H307.213q-14.283,0-18-7.983a25.937,25.937,0,0,1-1.8-10.52V55.352q0-11.817,6.3-16.2Q299.452,35.33,308.9,35.33Z" transform="translate(48.532 6.017)"/>
        <path id="Path_16" data-name="Path 16" class="cls-2" d="M345.83,42.315V35.91H403.3v6.417H377.435V118.3h-6.417V42.327Z" transform="translate(58.398 6.114)"/>
        <path id="Path_17" data-name="Path 17" class="cls-2" d="M411,118.255V35.91h33.744q19.239,0,19.239,23.961a41.962,41.962,0,0,1-1.169,10.52A22.28,22.28,0,0,1,460,77.252a13.372,13.372,0,0,1-4,3.822,17.136,17.136,0,0,1-7.539,2.338l17.661,34.761h-7.013L441.577,83.634q-1.578,0-12.857-.678t-11.361-.783v36Zm46.438-58.863a31.937,31.937,0,0,0-1.064-8.778,11.174,11.174,0,0,0-2.98-5.4,13.36,13.36,0,0,0-8.661-2.817H417.394V76.854h27.339q7.644,0,10.122-4.044T457.438,59.392Z" transform="translate(69.401 6.114)"/>
        <path id="Path_18" data-name="Path 18" class="cls-2" d="M472.78,77.615a117.564,117.564,0,0,1,.783-14.342,69.878,69.878,0,0,1,2.081-10.812,25.818,25.818,0,0,1,3.506-7.6,21.883,21.883,0,0,1,4.558-4.944,17.719,17.719,0,0,1,5.844-2.817,44.1,44.1,0,0,1,12.483-1.683q6.744,0,10.017.339A38.371,38.371,0,0,1,518.8,37.1a17.076,17.076,0,0,1,5.844,2.817,22.65,22.65,0,0,1,4.5,4.944,24.954,24.954,0,0,1,3.366,7.6,79.865,79.865,0,0,1,2.817,22.044,150.627,150.627,0,0,1-.9,18.865,43.82,43.82,0,0,1-2.817,11.139,30.1,30.1,0,0,1-4.278,7.364,14.564,14.564,0,0,1-6.183,4.336q-6.417,2.595-17.1,2.583-15.195,0-20.817-4.383a22.208,22.208,0,0,1-7.855-12.156Q472.769,92.8,472.78,77.615Zm9.5-24.8a33.9,33.9,0,0,0-2.42,10.064,128.381,128.381,0,0,0-.678,13.839q0,7.656.4,12.542a63.182,63.182,0,0,0,1.239,8.661,20.442,20.442,0,0,0,2.338,6.242,19.952,19.952,0,0,0,3.32,4.161,10.905,10.905,0,0,0,4.5,2.478,39.577,39.577,0,0,0,11.922,1.578,59.88,59.88,0,0,0,10.742-.736,18.946,18.946,0,0,0,6.919-2.817,13.219,13.219,0,0,0,4.839-6.02q3.507-8.1,3.507-25.083,0-17.661-2.922-24.639a31.021,31.021,0,0,0-2.081-4.558,9.455,9.455,0,0,0-2.875-3.074,25.71,25.71,0,0,0-3.319-1.964,13.6,13.6,0,0,0-4-1.064,63.76,63.76,0,0,0-9.117-.561q-5.295,0-7.878.222a30.262,30.262,0,0,0-5.961,1.239,9.351,9.351,0,0,0-5.049,3.3,34.73,34.73,0,0,0-3.425,6.195Z" transform="translate(79.832 6.031)"/>
        <path id="Path_19" data-name="Path 19" class="cls-2" d="M565.968,35.33q4.617,0,13.839.9t13.839,1.578v4.956L566.54,41.747h-1.578q-6.639,0-10.344,2.583t-3.682,11.022v7.422q0,5.4,1.239,7.317a10.265,10.265,0,0,0,2.338,2.7,8.182,8.182,0,0,0,2.642,1.239,30.46,30.46,0,0,0,7.013.678h14.821q10.683,0,14.505,5.844a22.466,22.466,0,0,1,3.261,12.6V100.8q0,12.857-9.783,16.539a30.658,30.658,0,0,1-10.917,1.917q-5.844,0-15.581-.842t-13.745-1.648v-4.944q10.905,1.017,20.42,1.017t11.361-.164a20.829,20.829,0,0,0,4.219-.9,12.086,12.086,0,0,0,3.939-2.022q3.717-2.922,3.717-9v-7.6q0-5.961-2.583-8.942t-8.813-2.981H564.273q-14.283,0-18-7.983a25.937,25.937,0,0,1-1.8-10.52V55.352q0-11.817,6.3-16.2Q556.512,35.33,565.968,35.33Z" transform="translate(91.933 6.017)"/>
      </g>
    </g>
  </g>
</svg>
