<svg xmlns="http://www.w3.org/2000/svg" viewBox="0 0 640.7 353.4"><defs><style>.cls-1{fill:none;}</style></defs><title>innovation-award</title><g id="Capa_2" data-name="Capa 2"><g id="Layer_1" data-name="Layer 1"><path d="M100.06,89.69a33.41,33.41,0,0,0-9.78-12.8,40.48,40.48,0,0,0-15.1-7.33,76.56,76.56,0,0,0-19.41-2.3q-15.53,0-24.44,4.17T18.11,80.92a25.76,25.76,0,0,0-5.46,10.49A39.51,39.51,0,0,0,11.5,98.6q0,10.93,4.46,16.82a28.48,28.48,0,0,0,11.93,9.06,127.46,127.46,0,0,0,16.82,5.46q9.06,2.3,21.13,5.46,8.63,2.3,17.11,4.74a58.1,58.1,0,0,1,15.24,6.76,35,35,0,0,1,10.93,10.93q4.17,6.62,4.17,17.25,0,11.21-4.74,19a39,39,0,0,1-12.36,12.65,53.12,53.12,0,0,1-17.25,7,87.28,87.28,0,0,1-19.12,2.16q-29.62,0-44.71-12.94T0,162.15H5.75q0,25,13.95,36.66t40.11,11.65a76.58,76.58,0,0,0,16.53-1.87,50.54,50.54,0,0,0,15.38-6,35.89,35.89,0,0,0,11.36-10.78q4.45-6.61,4.46-16.1,0-9.77-4.46-15.82a35.17,35.17,0,0,0-11.5-9.92,67.68,67.68,0,0,0-16.25-6.18q-9.21-2.3-18.69-4.6Q46,136.56,38,134.26a102.91,102.91,0,0,1-14.38-5.18q-9.21-4-13.51-11.21T5.75,98.6A34.7,34.7,0,0,1,8.34,86,32.09,32.09,0,0,1,17,73.88,46.62,46.62,0,0,1,32.49,65Q42,61.51,55.78,61.51q24.73,0,39.1,11.21t14.38,35.94h-5.75Q103.51,97.45,100.06,89.69Z" transform="translate(0 -2)"/><path d="M137.54,7.45v94h.57a52.25,52.25,0,0,1,6.47-15.81,49.94,49.94,0,0,1,26.88-21.13,61.55,61.55,0,0,1,19.84-3A62.27,62.27,0,0,1,212.45,65a46.41,46.41,0,0,1,16.68,10.21,45.94,45.94,0,0,1,10.93,16.68,62.43,62.43,0,0,1,3.88,22.86v98.05h-5.75V115.57q0-12.94-3.74-22a41.08,41.08,0,0,0-10.21-15,40.36,40.36,0,0,0-15-8.63,58.34,58.34,0,0,0-18-2.73,51.45,51.45,0,0,0-23.29,5A49.48,49.48,0,0,0,151.2,85.81,59.17,59.17,0,0,0,141,105.5a79.75,79.75,0,0,0-3.45,23.58v83.67h-5.75V7.45Z" transform="translate(0 -2)"/><path d="M435.44,212.76V65h5.75v36.52h.58a57.09,57.09,0,0,1,6.33-15.67A44.11,44.11,0,0,1,459.59,73a56.34,56.34,0,0,1,17.11-8.63,71.33,71.33,0,0,1,23.15-2.88v5.75q-15.24-.86-26.31,4.17a49.85,49.85,0,0,0-18.26,13.8,57.82,57.82,0,0,0-10.64,20.27,81.64,81.64,0,0,0-3.45,23.58v83.67Z" transform="translate(0 -2)"/><path d="M525.4,212.76h-5.75V7.45h5.75V149.79L627.47,65h8.34L568,121.32l72.75,91.44h-7.76l-69.3-87.41L525.4,157Z" transform="translate(0 -2)"/><line class="cls-1" x1="258.9" y1="210.76" x2="342.03" y2="4.4"/><path d="M262.8,212l-5.86-.37c0-.73,4.81-73.9,24.66-123.16,21.63-53.69,58-84,59.54-85.29l3.73,4.53c-.37.3-36.78,30.72-57.83,83C267.56,139,262.85,211.24,262.8,212Z" transform="translate(0 -2)"/><path d="M422.22,214c-51.38-46.5-64.32-114.8-76.83-180.85-1.7-9-3.45-18.21-5.25-27.12l5.75-1.17C347.7,13.76,349.46,23,351.16,32c12.33,65.1,25.08,132.42,75,177.59Z" transform="translate(0 -2)"/><path d="M344.24,6.15c.29-.63.54-1.29.88-1.9l-2.59-1.51q.18-.19,0,0a1.54,1.54,0,0,0,0,2.12,1.51,1.51,0,0,0,2.12,0,2.83,2.83,0,0,0,.46-.61,1.54,1.54,0,0,0-.54-2.05,1.52,1.52,0,0,0-2.05.54c-.33.61-.58,1.27-.88,1.9a1.54,1.54,0,0,0,.54,2.05,1.51,1.51,0,0,0,2.05-.54Z" transform="translate(0 -2)"/><path d="M342.94,5.77a3.37,3.37,0,0,0,1.22-.84,1.54,1.54,0,0,0,0-2.12,1.53,1.53,0,0,0-2.12,0c.17-.15-.15.05-.19.07l1.82,2.36c-.19.17.12-.07.16-.09L344.2,5a1.51,1.51,0,0,0,.54-2.05,1.54,1.54,0,0,0-2.05-.54,4.14,4.14,0,0,0-1.14.73,1.49,1.49,0,0,0-.12,2,1.54,1.54,0,0,0,1.94.39,3,3,0,0,0,.8-.54L342,2.81c-.21.24.1,0-.18.17l-.43.21a1.51,1.51,0,0,0-.54,2.05,1.54,1.54,0,0,0,2.05.54Z" transform="translate(0 -2)"/><path d="M342.32,4.48a10.87,10.87,0,0,0,.24,1.65,1.51,1.51,0,0,0,2.74.36,3.09,3.09,0,0,0,.31-1.57,7.48,7.48,0,0,0-.32-1.38,1.5,1.5,0,0,0-2.89.8c.06.22.12.43.19.65s0,.22,0,.1q0,.39.08-.11l2.74.36a6.8,6.8,0,0,1-.14-.86,1.5,1.5,0,0,0-3,0Z" transform="translate(0 -2)"/><path d="M9,253.59V237.11h3.26v16.48Zm0,100V269.74h3.26v83.86Z" transform="translate(0 -2)"/><path d="M33.44,269.74v20.72h.33a29.62,29.62,0,0,1,3.67-9,28.35,28.35,0,0,1,15.25-12A34.94,34.94,0,0,1,64,267.79a35.35,35.35,0,0,1,12,2,26.35,26.35,0,0,1,9.46,5.79,26.07,26.07,0,0,1,6.2,9.46,35.43,35.43,0,0,1,2.2,13v55.64H90.55V298.46A32.76,32.76,0,0,0,88.43,286a23.31,23.31,0,0,0-5.79-8.48,22.89,22.89,0,0,0-8.48-4.89A33.08,33.08,0,0,0,64,271a29.19,29.19,0,0,0-13.22,2.86,28.08,28.08,0,0,0-9.54,7.67,33.58,33.58,0,0,0-5.79,11.18,45.25,45.25,0,0,0-2,13.38v47.48H30.18V269.74Z" transform="translate(0 -2)"/><path d="M115,269.74v20.72h.33a29.62,29.62,0,0,1,3.67-9,28.35,28.35,0,0,1,15.25-12,34.94,34.94,0,0,1,11.26-1.71,35.35,35.35,0,0,1,12,2,26.35,26.35,0,0,1,9.46,5.79,26.07,26.07,0,0,1,6.2,9.46,35.43,35.43,0,0,1,2.2,13v55.64h-3.26V298.46A32.76,32.76,0,0,0,170,286a23.31,23.31,0,0,0-5.79-8.48,22.89,22.89,0,0,0-8.48-4.89,33.08,33.08,0,0,0-10.2-1.55,29.19,29.19,0,0,0-13.22,2.86,28.08,28.08,0,0,0-9.54,7.67A33.58,33.58,0,0,0,117,292.75a45.25,45.25,0,0,0-2,13.38v47.48h-3.26V269.74Z" transform="translate(0 -2)"/><path d="M191.38,295.11a42.07,42.07,0,0,1,7.26-13.95,36.69,36.69,0,0,1,11.83-9.71,34.69,34.69,0,0,1,16.32-3.67,34.34,34.34,0,0,1,16.15,3.67,36.75,36.75,0,0,1,11.83,9.71A42.12,42.12,0,0,1,262,295.11a57.26,57.26,0,0,1,0,33.12,42.07,42.07,0,0,1-7.26,13.95,35.77,35.77,0,0,1-11.83,9.63,35.38,35.38,0,0,1-16.32,3.59,35,35,0,0,1-16.15-3.59,35.71,35.71,0,0,1-11.83-9.63,42,42,0,0,1-7.26-13.95,57.26,57.26,0,0,1,0-33.12Zm3,31.9A39,39,0,0,0,201,340a32.74,32.74,0,0,0,10.85,9,31.94,31.94,0,0,0,14.93,3.34A31.58,31.58,0,0,0,241.55,349a32.77,32.77,0,0,0,10.85-9A39,39,0,0,0,259,327a53.09,53.09,0,0,0,2.2-15.34A52.53,52.53,0,0,0,259,296.5a39,39,0,0,0-6.61-13,33.69,33.69,0,0,0-10.85-9.06A31,31,0,0,0,226.78,271a31.33,31.33,0,0,0-14.93,3.43A33.66,33.66,0,0,0,201,283.53a39,39,0,0,0-6.61,13,52.53,52.53,0,0,0-2.2,15.17A53.09,53.09,0,0,0,194.4,327Z" transform="translate(0 -2)"/><path d="M337.4,269.74l-31.65,83.86h-4.08l-34.43-83.86H271l32.47,80.6h.33l30-80.6Z" transform="translate(0 -2)"/><path d="M346.7,284.67a25.25,25.25,0,0,1,6.12-8.89,28.34,28.34,0,0,1,9.79-5.87,39.64,39.64,0,0,1,13.62-2.12,47.07,47.07,0,0,1,10.52,1.14,22.6,22.6,0,0,1,8.73,4,20.94,20.94,0,0,1,6,7.42A26.93,26.93,0,0,1,404,291.77v53.35a5.44,5.44,0,0,0,1,3.59,4.87,4.87,0,0,0,2.61,1.55,12.12,12.12,0,0,0,3.51.33q1.87-.08,3.51-.24v3.26h-4.89a11.44,11.44,0,0,1-6.28-1.71q-2.69-1.71-2.69-6.44V334.52h-.33a26.07,26.07,0,0,1-4.16,7.83A30.32,30.32,0,0,1,389,349a36.74,36.74,0,0,1-9.87,4.65,40.75,40.75,0,0,1-12.07,1.71q-12.73,0-20.39-5.63T339,332.88q0-7.83,2.53-12.56a19.94,19.94,0,0,1,6.61-7.42,26.15,26.15,0,0,1,9.3-3.75,76.56,76.56,0,0,1,10.44-1.39q8.65-.49,14.85-.9a45.83,45.83,0,0,0,10.2-1.63,11.05,11.05,0,0,0,5.87-3.75q1.87-2.53,1.88-7.26a49.87,49.87,0,0,0-.65-7.83,17,17,0,0,0-3.18-7.5,18.3,18.3,0,0,0-7.42-5.63q-4.89-2.2-13.22-2.2-13.22,0-20.56,6.44t-8.16,18.19h-3.26A33.5,33.5,0,0,1,346.7,284.67Zm53.68,19.66a10.18,10.18,0,0,1-5.06,3.51,41.25,41.25,0,0,1-7.83,1.88,82.78,82.78,0,0,1-9.54.82q-5.14.16-10,.49a78.26,78.26,0,0,0-9.54,1.22,22.6,22.6,0,0,0-8.24,3.26,16.71,16.71,0,0,0-5.71,6.53,23.91,23.91,0,0,0-2.12,10.85,21.41,21.41,0,0,0,1.22,7.1,15.07,15.07,0,0,0,4.16,6.2,22.69,22.69,0,0,0,7.59,4.41,33.51,33.51,0,0,0,11.5,1.71,36,36,0,0,0,14.52-2.77A32.84,32.84,0,0,0,392,342.27a29.91,29.91,0,0,0,6.53-10.36,34.12,34.12,0,0,0,2.2-12.07v-15.5Z" transform="translate(0 -2)"/><path d="M431.86,337.29a20.11,20.11,0,0,0,1.06,7.34,9.39,9.39,0,0,0,2.69,3.92,7,7,0,0,0,3.59,1.55,31.58,31.58,0,0,0,3.92.24q2.45,0,4.41-.08a9.24,9.24,0,0,0,2.77-.41v3.26l-2.86.33q-1.39.16-5.14.16a14.61,14.61,0,0,1-9.71-3.34q-4-3.34-4-12.32V273H413.27v-3.26H428.6V243.31h3.26v26.43h18.93V273H431.86Z" transform="translate(0 -2)"/><path d="M462.21,253.59V237.11h3.26v16.48Zm0,100V269.74h3.26v83.86Z" transform="translate(0 -2)"/><path d="M481.46,295.11a42.07,42.07,0,0,1,7.26-13.95,36.69,36.69,0,0,1,11.83-9.71,34.69,34.69,0,0,1,16.32-3.67A34.34,34.34,0,0,1,533,271.46a36.75,36.75,0,0,1,11.83,9.71,42.12,42.12,0,0,1,7.26,13.95,57.26,57.26,0,0,1,0,33.12,42.07,42.07,0,0,1-7.26,13.95A35.77,35.77,0,0,1,533,351.81a35.38,35.38,0,0,1-16.32,3.59,35,35,0,0,1-16.15-3.59,35.71,35.71,0,0,1-11.83-9.63,42,42,0,0,1-7.26-13.95,57.26,57.26,0,0,1,0-33.12Zm3,31.9a39,39,0,0,0,6.61,13,32.74,32.74,0,0,0,10.85,9,31.94,31.94,0,0,0,14.93,3.34A31.58,31.58,0,0,0,531.63,349a32.77,32.77,0,0,0,10.85-9,39,39,0,0,0,6.61-13,53.09,53.09,0,0,0,2.2-15.34,52.53,52.53,0,0,0-2.2-15.17,39,39,0,0,0-6.61-13,33.69,33.69,0,0,0-10.85-9.06A31,31,0,0,0,516.87,271a31.33,31.33,0,0,0-14.93,3.43,33.66,33.66,0,0,0-10.85,9.06,39,39,0,0,0-6.61,13,52.53,52.53,0,0,0-2.2,15.17A53.09,53.09,0,0,0,484.48,327Z" transform="translate(0 -2)"/><path d="M571.36,269.74v20.72h.33a29.62,29.62,0,0,1,3.67-9,28.35,28.35,0,0,1,15.25-12,34.94,34.94,0,0,1,11.26-1.71,35.35,35.35,0,0,1,12,2,26.35,26.35,0,0,1,9.46,5.79,26.07,26.07,0,0,1,6.2,9.46,35.43,35.43,0,0,1,2.2,13v55.64h-3.26V298.46A32.76,32.76,0,0,0,626.34,286a23.31,23.31,0,0,0-5.79-8.48,22.89,22.89,0,0,0-8.48-4.89,33.08,33.08,0,0,0-10.2-1.55,29.19,29.19,0,0,0-13.22,2.86,28.08,28.08,0,0,0-9.54,7.67,33.58,33.58,0,0,0-5.79,11.18,45.25,45.25,0,0,0-2,13.38v47.48H568.1V269.74Z" transform="translate(0 -2)"/></g></g></svg>
