<svg xmlns="http://www.w3.org/2000/svg" xmlns:xlink="http://www.w3.org/1999/xlink" viewBox="0 0 750 750"><defs><style>.a{clip-path:url(#b);}.b{fill:#fff;}.c{fill:#197cce;}</style><clipPath id="b"><rect width="750" height="750"/></clipPath></defs><g id="a" class="a"><rect class="c" width="750" height="750"/><g transform="translate(0 -20)"><g transform="translate(0 -0.316)"><path class="b" d="M8.006,0S42.92,22.555,43.743,48.455c0,13.375-7.48,26.741-14.96,40.108S12.14,121.988,13.016,133.681s5.816,25.068,21.609,40.94c-41.579-24.228-34.1-51.8-34.1-52.633C2.19,106.948,17.983,80.207,22.134,71.824S42.044,30.911,8.006,0Z" transform="translate(59.671 281.316)"/><path class="b" d="M30.778,8.58S65.692,31.143,66.524,57.044c0,13.366-7.48,26.733-14.969,40.108s-16.642,33.416-15.766,45.109S41.6,167.329,57.4,183.2c-41.562-24.228-34.082-51.8-34.082-52.633C24.962,115.528,40.755,88.8,44.872,80.439S64.86,39.5,30.778,8.58Z" transform="translate(56.843 280.252)"/><path class="b" d="M53.556,15.26s34.9,22.546,35.737,48.464c0,13.366-7.48,26.733-14.96,40.1S57.69,137.248,58.566,148.941s5.772,25.068,21.582,40.94c-41.553-24.228-34.073-51.8-34.073-52.633,1.62-15.039,17.448-41.781,21.609-50.128S87.629,46.18,53.556,15.26Z" transform="translate(54.018 279.423)"/></g><g transform="translate(0 26.626)"><path class="b" d="M158.666,65.888a23.212,23.212,0,0,0-10.581-2.628,22.712,22.712,0,0,0-20.067,11.755A24.315,24.315,0,0,0,124.979,87.1a24.631,24.631,0,0,0,3.039,12.14,23.036,23.036,0,0,0,8.347,8.707,22.283,22.283,0,0,0,11.72,3.136,24.525,24.525,0,0,0,10.362-2.444,32.68,32.68,0,0,0,9.381-6.587l10.09,10.993a45.617,45.617,0,0,1-14.269,10.02,39.687,39.687,0,0,1-16.432,3.7,40.291,40.291,0,0,1-20.286-5.168,37.664,37.664,0,0,1-14.321-14.207A39.635,39.635,0,0,1,107.4,87.243a38.041,38.041,0,0,1,19.909-33.968,41.781,41.781,0,0,1,20.558-5.115A42.753,42.753,0,0,1,177.814,60.9l-9.985,12.263A28.9,28.9,0,0,0,158.666,65.888Z" transform="translate(46.344 275.341)"/><path class="b" d="M226.939,128.594v-6.911a18.806,18.806,0,0,1-7.594,5.711,27.451,27.451,0,0,1-10.747,1.971q-9.206,0-14.645-5.107a17.39,17.39,0,0,1-5.422-13.331q0-8.339,5.807-13.007t16.432-4.774h16.055v-1.1a8.951,8.951,0,0,0-3.092-7.3c-2.067-1.717-5.08-2.628-9.057-2.628q-8.128,0-17.36,5.159l-5.2-11.632a69.258,69.258,0,0,1,13.016-5.159,51.03,51.03,0,0,1,13.349-1.647q11.7,0,18.166,5.6t6.6,15.635l.114,38.54Zm-4.669-13.831a9.854,9.854,0,0,0,4.555-6.359v-5.255H213.686q-4.888,0-7.217,1.594a5.721,5.721,0,0,0-2.33,5.107,6.7,6.7,0,0,0,2.435,5.431,10.108,10.108,0,0,0,6.674,2.032A15.837,15.837,0,0,0,222.27,114.763Z" transform="translate(36.276 272.774)"/><path class="b" d="M287.222,71.894a22.774,22.774,0,0,1,11.387-3V85.015a21.314,21.314,0,0,0-2.628-.114q-7.7,0-12.2,4.283t-4.5,11.387v28.791H262.6V69.556h16.7V80.373a21.5,21.5,0,0,1,7.918-8.479Z" transform="translate(27.084 272.768)"/><path class="b" d="M366.066,44.37v81.3H349.485v-8.654a20.637,20.637,0,0,1-7.8,6.955,23.194,23.194,0,0,1-10.634,2.356,27.46,27.46,0,0,1-14.488-3.775,25.3,25.3,0,0,1-9.635-10.686,35.36,35.36,0,0,1-3.416-15.889,34.87,34.87,0,0,1,3.363-15.67A24.832,24.832,0,0,1,316.42,69.8a27.013,27.013,0,0,1,14.207-3.723q12.377,0,18.876,9.311V44.37ZM345.4,108.2q4.073-4.546,4.064-11.781T345.4,84.635a14.452,14.452,0,0,0-21.022,0q-4.073,4.546-4.178,11.781.105,7.226,4.178,11.781a14.452,14.452,0,0,0,21.022,0Z" transform="translate(22.008 275.81)"/><path class="b" d="M422.259,128.6v-6.911a18.806,18.806,0,0,1-7.594,5.711,27.407,27.407,0,0,1-10.739,1.971q-9.223,0-14.645-5.107a17.5,17.5,0,0,1-5.431-13.331q0-8.339,5.807-13.007t16.432-4.774h16.055v-1.1a8.951,8.951,0,0,0-3.092-7.3c-2.067-1.717-5.08-2.628-9.057-2.628q-8.137,0-17.36,5.159l-5.2-11.632a69.257,69.257,0,0,1,13.016-5.159,51.074,51.074,0,0,1,13.314-1.6q11.7,0,18.166,5.6T438.5,90.078l.105,38.54Zm-4.669-13.831a9.819,9.819,0,0,0,4.555-6.359v-5.255H409.006c-3.258,0-5.658.534-7.217,1.594a5.721,5.721,0,0,0-2.33,5.107,6.718,6.718,0,0,0,2.435,5.431,10.108,10.108,0,0,0,6.674,2.032,15.819,15.819,0,0,0,9.022-2.549Z" transform="translate(12.038 272.768)"/><path class="b" d="M458.54,44.37h16.7v81.959h-16.7Z" transform="translate(2.769 275.81)"/><path class="b" d="M506.433,42.683a9.451,9.451,0,0,1,2.549,6.841,9.46,9.46,0,0,1-2.549,6.841,8.707,8.707,0,0,1-6.569,2.628,8.487,8.487,0,0,1-6.455-2.707,9.512,9.512,0,0,1-2.549-6.788,9.451,9.451,0,0,1,2.549-6.841,8.575,8.575,0,0,1,6.455-2.628,8.707,8.707,0,0,1,6.569,2.654ZM491.621,66.412h16.712v59.378H491.621Z" transform="translate(-1.24 276.35)"/><path class="b" d="M616.772,75.064q5.7,6.131,5.7,16.73V129.37h-16.6V96.795q0-5.781-3.039-9a10.8,10.8,0,0,0-8.251-3.223,11.842,11.842,0,0,0-9.434,4.336,16.517,16.517,0,0,0-3.5,10.9V129.37H565.006V96.795q0-5.667-2.987-8.952a10.489,10.489,0,0,0-8.19-3.276,12.017,12.017,0,0,0-9.495,4.336,16.517,16.517,0,0,0-3.5,10.9V129.37H524.18V69.554h16.712V79.9q6.07-10.782,19.743-11.01a21.022,21.022,0,0,1,12.438,3.6,19.576,19.576,0,0,1,7.27,10.169,21.591,21.591,0,0,1,8.225-10.169,24.053,24.053,0,0,1,12.858-3.556Q611.087,68.889,616.772,75.064Z" transform="translate(-5.376 272.769)"/><path class="b" d="M698.063,72.757A25.156,25.156,0,0,1,707.7,83.329,34.755,34.755,0,0,1,711.114,99.1a33.881,33.881,0,0,1-3.346,15.451,24.788,24.788,0,0,1-9.495,10.362,27.084,27.084,0,0,1-14.295,3.653,24,24,0,0,1-10.8-2.33,21.582,21.582,0,0,1-7.971-6.779V148.97H648.53V69.551h16.712v8.575a20.742,20.742,0,0,1,7.883-6.78A23.465,23.465,0,0,1,683.68,69a27.4,27.4,0,0,1,14.383,3.758Zm-7.883,37.427q4-4.5,4.012-11.667T690.2,86.964a13.34,13.34,0,0,0-10.423-4.5,13.489,13.489,0,0,0-10.511,4.5A16.638,16.638,0,0,0,665.2,98.517q0,7.279,4.064,11.72a13.533,13.533,0,0,0,10.511,4.45,13.305,13.305,0,0,0,10.423-4.52Z" transform="translate(-20.807 272.755)"/></g></g></g></svg>