<svg xmlns="http://www.w3.org/2000/svg" xmlns:xlink="http://www.w3.org/1999/xlink" viewBox="0 0 750 750"><defs><style>.a{clip-path:url(#b);}.b{fill:#eb3b5a;}.c{fill:#fff;}</style><clipPath id="b"><rect width="750" height="750"/></clipPath></defs><g id="a" class="a"><rect class="c" width="750" height="750"/><rect class="b" width="749.05" height="750.05" transform="translate(-0.05 -0.05)"/><g transform="translate(-2155.301 462.699)"><rect class="b" width="324.591" height="324.591" rx="6.05" transform="translate(2368 -250)"/><path class="c" d="M7.63,9.55H47.589V242.956H7.63Z" transform="translate(2396.796 -213.957)"/><path class="c" d="M163.844,71.217A93.383,93.383,0,0,1,168,97.426a152.778,152.778,0,0,1-1.384,21.436H59.912a57.289,57.289,0,0,0,9.835,32.512,32.321,32.321,0,0,0,27.929,12.6q24.778,0,29.6-21.77H168a59.1,59.1,0,0,1-22.82,39.1A74.714,74.714,0,0,1,97.913,196.3a71.611,71.611,0,0,1-54.807-23.871Q20,147.745,20,108.98q0-39.721,22.772-63.925A71.946,71.946,0,0,1,97.579,21.9c22.916,0,40.675,8.068,53.422,24.157a76.72,76.72,0,0,1,12.842,25.16ZM98.009,53.887A33.419,33.419,0,0,0,71.465,64.915,49.6,49.6,0,0,0,60.246,93.559h70.418q0-26.926-17-36.092A33.7,33.7,0,0,0,98.009,53.887Z" transform="translate(2443.482 -167.443)"/><circle class="c" cx="17.521" cy="17.521" r="17.521" transform="translate(2621.123 -6.043)"/></g></g></svg>