<svg xmlns="http://www.w3.org/2000/svg" xmlns:xlink="http://www.w3.org/1999/xlink" viewBox="0 0 750 750"><defs><style>.a{clip-path:url(#b);}.b{fill:#fff;}.c{fill:#00002d;}</style><clipPath id="b"><rect width="750" height="750"/></clipPath></defs><g id="a" class="a"><rect class="c" width="750" height="750"/><g transform="translate(189.504 226.81)"><path class="b" d="M56.364,59.2,67.476,89.352H45.735L36.652,66.838H28.535V89.352H6.31V5.671H36.169A28.989,28.989,0,0,1,48.054,8.087a30.535,30.535,0,0,1,9.663,6.571,30.052,30.052,0,0,1,6.571,9.663A29.472,29.472,0,0,1,66.7,36.3a30.439,30.439,0,0,1-2.8,12.852A32.661,32.661,0,0,1,56.364,59.2ZM36.072,45.193a8.793,8.793,0,0,0,6.378-2.609,8.987,8.987,0,0,0,0-12.658,8.793,8.793,0,0,0-6.378-2.609H28.535V45.193Z" transform="translate(54.663 49.118)"/><path class="b" d="M68.4,89.351,64.921,76.5H41.44L37.865,89.641H15.35L38.058,5.67H68.206L90.818,89.351ZM47.431,53.985h11.5l-5.8-21.355Z" transform="translate(132.976 49.119)"/><path class="b" d="M60.24,64.944V44.555H91.548V60.692a32.178,32.178,0,0,1-2.609,12.852,34.4,34.4,0,0,1-7.151,10.533,33.047,33.047,0,0,1-10.533,7.054A31.791,31.791,0,0,1,58.4,93.74a32.178,32.178,0,0,1-12.852-2.609A32.661,32.661,0,0,1,27.966,73.544,32.274,32.274,0,0,1,25.26,60.692V38.564a31.884,31.884,0,0,1,2.7-12.849A33.047,33.047,0,0,1,35.02,15.18,34.4,34.4,0,0,1,45.552,8.029,32.178,32.178,0,0,1,58.4,5.42,31.791,31.791,0,0,1,71.062,8.029,34.69,34.69,0,0,1,81.6,15.083a33.337,33.337,0,0,1,7.151,10.533,31.791,31.791,0,0,1,2.609,12.852H69.806a11.015,11.015,0,0,0-.87-4.445,11.693,11.693,0,0,0-2.416-3.672,11.4,11.4,0,0,0-3.575-2.512,11.6,11.6,0,0,0-12.562,2.512,10.919,10.919,0,0,0-3.285,8.02V60.5a11.209,11.209,0,0,0,3.285,8.214A10.919,10.919,0,0,0,58.4,72a9.663,9.663,0,0,0,6.378-2.029,11.306,11.306,0,0,0,4.155-5.121Z" transform="translate(218.826 46.953)"/><path class="b" d="M68.353,100.091,64.874,87.239H41.49l-3.575,13.142H15.4L38.108,16.7H68.256l22.611,83.681ZM47.481,64.725h11.4l-5.7-21.355Z" transform="translate(133.409 144.671)"/><path class="b" d="M51.049,16.8H72.115V97.969H51.049L27.375,57.384V97.969H6.31V16.8H27.375L51.049,57.384Z" transform="translate(54.663 145.537)"/><path class="b" d="M74.315,68.691,85.137,97.68H64.072L54.989,76.131H47.162V97.97H26V16.8H54.989a28.989,28.989,0,0,1,11.6,2.319A30.246,30.246,0,0,1,76.247,25.5a28.989,28.989,0,0,1,6.378,9.663,28.988,28.988,0,0,1,2.319,11.5,28.989,28.989,0,0,1-9.663,22.225ZM54.989,55.163a8.7,8.7,0,0,0,6.184-2.512,8.89,8.89,0,0,0,0-12.369,8.7,8.7,0,0,0-6.184-2.222H47.742V55.453Z" transform="translate(225.237 145.537)"/><path class="b" d="M371.347,297.135H0V0H371.347ZM22.225,274.911h326.9V22.225H22.225Z"/></g></g></svg>