<svg xmlns="http://www.w3.org/2000/svg" xmlns:xlink="http://www.w3.org/1999/xlink" viewBox="0 0 750 750"><defs><style>.a{clip-path:url(#b);}.b{fill:#1908a1;}.c{fill:#fff;}</style><clipPath id="b"><rect width="750" height="750"/></clipPath></defs><g id="a" class="a"><rect class="c" width="750" height="750"/><rect class="b" width="749.05" height="750.05" rx="374.525" transform="translate(-0.05 -0.05)"/><g transform="translate(167.869 190.355)"><rect class="c" width="31.118" height="414.745" transform="translate(0.024 31.118) rotate(-90)"/><rect class="c" width="31.118" height="414.745" transform="translate(0 370.065) rotate(-90)"/><g transform="translate(0 65.871)"><path class="c" d="M69.52,121.444h35.709a175.629,175.629,0,0,1,17.923.561c23.143,2.619,34.536,21.272,34.536,38.26,0,8.4-2.806,17.735-10.458,23.806,8.213,5.781,13.825,17,13.825,28.907,0,19.98-15.678,37.41-41.814,37.41H69.52Zm46.473,49.466a9.794,9.794,0,0,0,9.9-9.709,9.948,9.948,0,0,0-9.9-9.88H101.25v19.606Zm3.18,49.466a9.573,9.573,0,0,0,10.067-9.709,9.743,9.743,0,0,0-10.067-9.9H101.25v19.606Z" transform="translate(-69.52 -121.389)"/><path class="c" d="M214.178,241.86v8.4H182.464v-8.4c0-14.386-10.2-26.136-25.2-26.136V250.26H125.5V121.453h20.541a213.339,213.339,0,0,1,23.33.748c25.387,2.806,43.871,20.711,43.871,45.912,0,14.76-6.36,25.949-17.361,33.226C207.631,209.926,214.178,223.564,214.178,241.86ZM157.23,185.848c13.076,0,24.265-3.724,24.265-16.8s-11.189-17.719-24.265-17.719Z" transform="translate(-30.31 -121.398)"/><path class="c" d="M271.526,121.43V250.238H239.8v-18.7H211.79v18.7H180.06v-39.96C180.06,148.875,218.32,121.43,271.526,121.43ZM239.8,200.755V158.584c-17.174,6.717-25.762,21.459-27.632,42.171Z" transform="translate(7.906 -121.375)"/><path class="c" d="M237.14,121.43h31.747V250.238H237.14Z" transform="translate(47.886 -121.375)"/><path class="c" d="M351.5,121.43V250.238h-31.73v-39.96c0-25.762-9.148-43.123-28.907-49.653v89.613H259.1V121.43c25.762,0,46.1,8.213,60.671,22.208V121.43Z" transform="translate(63.268 -121.375)"/><path class="c" d="M69.8,281.576H99.322c6.122,0,8.876-2.908,8.876-6.394,0-3.928-3.4-6.547-6.8-7.72C88.3,263.11,82.335,261.222,77.4,256.121a28.72,28.72,0,0,1-7.856-20.8c0-14.267,7.7-26.187,22.259-29.247,2.466-.578,5.237-.867,15.3-.867h13.6V229.2H101.227c-5.1,0-6.989,2.772-6.989,6.258s2.041,6.411,6.547,7.72c9.9,2.908,17.889,5.237,23.279,9.88,5.969,5.1,8.876,13.093,8.876,21.681,0,18.484-13.825,30.846-30.608,30.846H69.8Z" transform="translate(-69.514 -62.693)"/><path class="c" d="M171.947,229.2H149.4v76.383H124.658V229.2H102.11V205.21h69.837Z" transform="translate(-46.693 -62.693)"/><path class="c" d="M140.7,256.284a52.526,52.526,0,1,1,52.373,52.509A51.948,51.948,0,0,1,140.7,256.284Zm80.311.289c0-15.3-12.668-28.363-27.785-28.363a28.3,28.3,0,0,0-27.8,28.363,27.8,27.8,0,1,0,55.587,0Z" transform="translate(-19.664 -63.723)"/><path class="c" d="M273.376,299.05V305.6H248.634V299.05c0-11.206-7.992-20.405-19.64-20.405v26.918H204.27V205.238h16a167.422,167.422,0,0,1,18.178.578c19.793,2.176,34.2,16.154,34.2,35.709a29.5,29.5,0,0,1-13.6,25.881C268.274,274.173,273.376,284.784,273.376,299.05ZM228.994,255.4c10.2,0,18.909-2.908,18.909-13.093s-8.723-13.825-18.909-13.825Z" transform="translate(24.863 -62.704)"/><path class="c" d="M247.05,205.21h24.724c13.6,0,26.629,7.261,31.713,14.539,5.1-7.278,18.195-14.539,31.713-14.539h24.741V305.536H335.2v-75.6c-9.454.442-20.405,7.125-20.405,21.1v54.55h-22.65v-54.55c0-13.978-10.917-20.66-20.405-21.1v75.652H247.05Z" transform="translate(54.828 -62.693)"/></g></g></g></svg>