<svg xmlns="http://www.w3.org/2000/svg" xmlns:xlink="http://www.w3.org/1999/xlink" viewBox="0 0 750 750"><defs><style>.a{clip-path:url(#b);}.b{fill:#197cce;}.c{fill:#fff;}</style><clipPath id="b"><rect width="750" height="750"/></clipPath></defs><g id="a" class="a"><rect class="c" width="750" height="750"/><rect class="b" width="749.05" height="750.05" rx="374.525" transform="translate(-0.05 -0.05)"/><g transform="translate(23.636 -12.955)"><g transform="translate(59.673 281)"><path class="c" d="M7.406,0S39.7,20.864,40.464,44.823c0,12.373-6.92,24.737-13.839,37.1S11.23,112.844,12.041,123.661s5.38,23.189,19.989,37.871C-6.433,139.12.487,113.613.487,112.844c1.539-13.912,16.148-38.649,19.989-46.4S38.892,28.594,7.406,0Z" transform="translate(-0.002)"/><path class="c" d="M30.18,8.58s32.3,20.872,33.066,44.831c0,12.364-6.92,24.729-13.847,37.1S34,121.424,34.814,132.241s5.38,23.189,19.989,37.871C16.357,147.7,23.276,122.193,23.276,121.424c1.523-13.912,16.132-38.641,19.94-46.371S61.707,37.182,30.18,8.58Z" transform="translate(-4.326 -1.628)"/><path class="c" d="M52.956,15.26S85.245,36.116,86.014,60.091c0,12.364-6.92,24.729-13.839,37.093S56.78,128.1,57.591,138.921s5.34,23.189,19.965,37.871C39.117,154.38,46.036,128.873,46.036,128.1c1.5-13.912,16.14-38.649,19.989-46.371S84.475,43.862,52.956,15.26Z" transform="translate(-8.645 -2.896)"/></g><g transform="translate(146.689 338.353)"><path class="c" d="M154.823,64.559a21.472,21.472,0,0,0-9.788-2.431A21.01,21.01,0,0,0,126.473,73a22.493,22.493,0,0,0-2.812,11.181,22.784,22.784,0,0,0,2.812,11.23,21.31,21.31,0,0,0,7.722,8.054,20.613,20.613,0,0,0,10.841,2.9,22.687,22.687,0,0,0,9.585-2.261,30.231,30.231,0,0,0,8.678-6.093l9.334,10.169a42.2,42.2,0,0,1-13.2,9.269,36.712,36.712,0,0,1-15.2,3.419,37.271,37.271,0,0,1-18.765-4.78,34.841,34.841,0,0,1-13.248-13.142A36.664,36.664,0,0,1,107.4,84.313a35.189,35.189,0,0,1,18.417-31.422,38.649,38.649,0,0,1,19.017-4.732,39.548,39.548,0,0,1,27.7,11.781L163.3,71.284A26.738,26.738,0,0,0,154.823,64.559Z" transform="translate(-107.396 -41.567)"/><path class="c" d="M224.06,124.115v-6.393A17.4,17.4,0,0,1,217.035,123a25.393,25.393,0,0,1-9.942,1.823q-8.516,0-13.547-4.724a16.086,16.086,0,0,1-5.015-12.332q0-7.714,5.372-12.032t15.2-4.416h14.852V90.3a8.28,8.28,0,0,0-2.86-6.749c-1.912-1.588-4.7-2.431-8.378-2.431q-7.519,0-16.059,4.772l-4.813-10.76a64.067,64.067,0,0,1,12.04-4.772,47.205,47.205,0,0,1,12.348-1.523q10.825,0,16.8,5.178t6.109,14.463l.105,35.651Zm-4.319-12.794a9.115,9.115,0,0,0,4.213-5.882v-4.862H211.8q-4.521,0-6.676,1.475a5.292,5.292,0,0,0-2.155,4.724,6.2,6.2,0,0,0,2.252,5.024,9.35,9.35,0,0,0,6.174,1.88A14.649,14.649,0,0,0,219.741,111.321Z" transform="translate(-122.791 -45.491)"/><path class="c" d="M285.376,71.669a21.067,21.067,0,0,1,10.533-2.779V83.807a19.717,19.717,0,0,0-2.431-.105q-7.122,0-11.287,3.962A13.86,13.86,0,0,0,278.027,98.2V124.83H262.6V69.506h15.451V79.512a19.892,19.892,0,0,1,7.325-7.843Z" transform="translate(-136.846 -45.501)"/><path class="c" d="M361.377,44.37v75.208H346.039v-8.005a19.09,19.09,0,0,1-7.219,6.433,21.456,21.456,0,0,1-9.836,2.18,25.4,25.4,0,0,1-13.4-3.492,23.408,23.408,0,0,1-8.913-9.885,32.71,32.71,0,0,1-3.16-14.7,32.256,32.256,0,0,1,3.111-14.5,22.971,22.971,0,0,1,8.832-9.723,24.988,24.988,0,0,1,13.142-3.444q11.449,0,17.461,8.613V44.37Zm-19.114,59.043a15.683,15.683,0,0,0,3.76-10.9,15.785,15.785,0,0,0-3.76-10.9,13.369,13.369,0,0,0-19.446,0,17.3,17.3,0,0,0,0,21.8,13.369,13.369,0,0,0,19.446,0Z" transform="translate(-144.607 -40.849)"/><path class="c" d="M419.379,124.124v-6.393a17.4,17.4,0,0,1-7.025,5.283,25.353,25.353,0,0,1-9.934,1.823q-8.532,0-13.547-4.724a16.188,16.188,0,0,1-5.024-12.332q0-7.714,5.372-12.032t15.2-4.416h14.852V90.312a8.281,8.281,0,0,0-2.86-6.749c-1.912-1.588-4.7-2.431-8.378-2.431q-7.527,0-16.059,4.772l-4.813-10.76a64.067,64.067,0,0,1,12.04-4.772,47.246,47.246,0,0,1,12.316-1.483q10.825,0,16.8,5.178T434.4,88.489l.1,35.651Zm-4.319-12.794a9.083,9.083,0,0,0,4.213-5.882v-4.862H407.12c-3.014,0-5.234.494-6.676,1.475a5.292,5.292,0,0,0-2.155,4.724,6.215,6.215,0,0,0,2.253,5.024,9.35,9.35,0,0,0,6.174,1.88,14.633,14.633,0,0,0,8.346-2.358Z" transform="translate(-159.853 -45.5)"/><path class="c" d="M458.54,44.37h15.451v75.815H458.54Z" transform="translate(-174.025 -40.849)"/><path class="c" d="M505.265,42.484a8.743,8.743,0,0,1,2.358,6.328,8.751,8.751,0,0,1-2.358,6.328,8.054,8.054,0,0,1-6.077,2.431,7.851,7.851,0,0,1-5.972-2.5,8.8,8.8,0,0,1-2.358-6.279,8.742,8.742,0,0,1,2.358-6.328,7.932,7.932,0,0,1,5.972-2.431,8.054,8.054,0,0,1,6.077,2.455Zm-13.7,21.95h15.46v54.927h-15.46Z" transform="translate(-180.156 -40.024)"/><path class="c" d="M609.832,74.6q5.275,5.672,5.275,15.476v34.76H599.752V94.7q0-5.348-2.812-8.329a9.99,9.99,0,0,0-7.632-2.982,10.955,10.955,0,0,0-8.727,4.011,15.279,15.279,0,0,0-3.241,10.08v27.354H561.946V94.7q0-5.242-2.763-8.281a9.7,9.7,0,0,0-7.576-3.03,11.117,11.117,0,0,0-8.783,4.011,15.279,15.279,0,0,0-3.241,10.08v27.354h-15.4V69.5h15.46v9.569Q545.255,69.1,557.9,68.888a19.446,19.446,0,0,1,11.505,3.33,18.108,18.108,0,0,1,6.725,9.407,19.973,19.973,0,0,1,7.608-9.407,22.249,22.249,0,0,1,11.894-3.29Q604.573,68.888,609.832,74.6Z" transform="translate(-186.48 -45.499)"/><path class="c" d="M694.35,72.475a23.271,23.271,0,0,1,8.913,9.78,32.151,32.151,0,0,1,3.16,14.585,31.341,31.341,0,0,1-3.1,14.293,22.931,22.931,0,0,1-8.783,9.585,25.053,25.053,0,0,1-13.223,3.379,22.2,22.2,0,0,1-9.99-2.155,19.965,19.965,0,0,1-7.373-6.271v27.305H648.53V69.509h15.46v7.932a19.187,19.187,0,0,1,7.292-6.271A21.706,21.706,0,0,1,681.045,69a25.345,25.345,0,0,1,13.3,3.476ZM687.057,107.1A15.665,15.665,0,0,0,690.768,96.3q.008-6.628-3.695-10.687a12.34,12.34,0,0,0-9.642-4.165,12.478,12.478,0,0,0-9.723,4.165,15.391,15.391,0,0,0-3.76,10.687q0,6.733,3.76,10.841a12.518,12.518,0,0,0,9.723,4.116,12.308,12.308,0,0,0,9.642-4.181Z" transform="translate(-210.075 -45.521)"/></g></g></g></svg>