<svg id="Group_1" data-name="Group 1" xmlns="http://www.w3.org/2000/svg" viewBox="249.992 311 453.762 173.74">
  <defs>
    <style>
      .cls-1 {
        fill: #eee;
      }

      .cls-2 {
        fill: #0666ff;
      }
    </style>
  </defs>
  <path id="Union_1" data-name="Union 1" class="cls-1" d="M360.6,166.47a19.676,19.676,0,0,1-7.27-6.681,17.588,17.588,0,0,1-3-10,18,18,0,0,1,5.89-13.79,19.123,19.123,0,0,1,29.45,24,18.815,18.815,0,0,1-7.28,6.61,19.678,19.678,0,0,1-8.879,2.13A19.008,19.008,0,0,1,360.6,166.47Zm4.25-21.911a6.191,6.191,0,0,0-2.16,5.12,6,6,0,0,0,2.23,5.05v.031a7.349,7.349,0,0,0,4.52,1.7,7.574,7.574,0,0,0,4.6-1.74,7,7,0,0,0,.14-10.23,7.493,7.493,0,0,0-4.67-1.67A7.278,7.278,0,0,0,364.846,144.56Zm41.53,24.11a23.908,23.908,0,0,1-12.919-3.88,2.91,2.91,0,0,1-1.32-2.65c0-1.2.88-3,2.64-5.5a2.734,2.734,0,0,1,2.48-1.18,10.185,10.185,0,0,1,4.62,1.7,10.728,10.728,0,0,0,5.3,1.71c2.83,0,4.24-.56,4.24-1.669q0-1.32-4.659-1.95a22.792,22.792,0,0,1-8.74-3.25,9.382,9.382,0,0,1-3.351-3.94,14.217,14.217,0,0,1-1.319-6.37q0-11,15.109-11a24.493,24.493,0,0,1,10.2,2.31c1.63.74,2.44,1.67,2.44,2.79a8.2,8.2,0,0,1-1.53,4.1c-1,1.63-2.07,2.44-3.14,2.44a9.477,9.477,0,0,1-3.09-1,11.54,11.54,0,0,0-4.91-1.049q-4.109,0-4.11,1.53c0,1.4,1.58,2.3,4.74,2.72a26,26,0,0,1,8.91,2.64,8,8,0,0,1,3.37,3.38,12,12,0,0,1,1.36,6,12.833,12.833,0,0,1-1.36,6.16,8.8,8.8,0,0,1-3.791,3.8,25.561,25.561,0,0,1-10.314,2.174Q406.8,168.684,406.375,168.67Zm-130.42-1.03a4.054,4.054,0,0,1-1.74-1.32Q258.546,145.44,253.6,139v22.9a20.451,20.451,0,0,1-.1,2.44,5.664,5.664,0,0,1-.661,1.81q-1,1.881-5.43,1.88t-5.29-1.88a5.407,5.407,0,0,1-.67-1.88,24,24,0,0,1-.1-2.44V123a8.538,8.538,0,0,1,.66-3.87,3.3,3.3,0,0,1,2-1.63,14.262,14.262,0,0,1,6.71,0,4.394,4.394,0,0,1,1.71.869,20.226,20.226,0,0,1,1.6,1.81q14.689,20,19.63,26.391V123a8.536,8.536,0,0,1,.65-3.85,3.361,3.361,0,0,1,2-1.63,11.058,11.058,0,0,1,3.31-.42,12.121,12.121,0,0,1,3.2.35,5.2,5.2,0,0,1,1.811.83,3,3,0,0,1,.869,1.471,10.827,10.827,0,0,1,.42,3.55v38.63a19.9,19.9,0,0,1-.11,2.44,5.649,5.649,0,0,1-.661,1.81q-1,1.881-5.43,1.88-.315.017-.63.017A11.44,11.44,0,0,1,275.955,167.64Zm16.21-1.461a6.737,6.737,0,0,1-.59-1.81,19.541,19.541,0,0,1-.11-2.44V137.5a19.613,19.613,0,0,1,.11-2.4,6.612,6.612,0,0,1,.59-1.85q1-1.81,5.431-1.811c2.229,0,3.81.4,4.73,1.181a3.857,3.857,0,0,1,1.26,3c0,.46.07,1.14.07,2V162a20.157,20.157,0,0,1-.11,2.41,5.654,5.654,0,0,1-.66,1.84q-.9,1.81-5.36,1.81T292.165,166.18Zm41.84-.75a11.233,11.233,0,0,1-.419-3.55V149.61a5.932,5.932,0,0,0-1.631-4.45,6.76,6.76,0,0,0-8.84.07,5.842,5.842,0,0,0-1.71,4.379v12.32a20.336,20.336,0,0,1-.1,2.41,5.007,5.007,0,0,1-.67,1.77q-.9,1.879-5.36,1.88t-5.36-1.88a6.656,6.656,0,0,1-.59-1.84,20.718,20.718,0,0,1-.1-2.41V137.22a19.367,19.367,0,0,1,.1-2.33,5.009,5.009,0,0,1,.66-1.78q1-1.74,5.36-1.74c2.83,0,4.57.54,5.22,1.6a5.49,5.49,0,0,1,.7,2.86,7.169,7.169,0,0,1,1.25-1.4,12.464,12.464,0,0,1,1.88-1.461,9.174,9.174,0,0,1,5.219-1.6,14.736,14.736,0,0,1,11.6,5.33,19.128,19.128,0,0,1,4.621,13v12.25a20.718,20.718,0,0,1-.1,2.41,5.831,5.831,0,0,1-.59,1.77q-1,1.879-5.43,1.88Q334.765,168.01,334.005,165.43Zm-180.93-34.14a6.786,6.786,0,0,1-2-.24,1.7,1.7,0,0,1-1.06-.81,3.127,3.127,0,0,1-.36-1,10.719,10.719,0,0,1-.08-1.38V104.17a10.71,10.71,0,0,1,.07-1.38,3.288,3.288,0,0,1,.34-1c.38-.73,1.28-1.09,2.72-1.09a5.382,5.382,0,0,1,2.9.54,2.2,2.2,0,0,1,.87,1.61,5.6,5.6,0,0,1,4.85-2.111,8.631,8.631,0,0,1,6.269,3.12,10.419,10.419,0,0,1,0,14.53,8.587,8.587,0,0,1-6.269,3.12q-3.33,0-4.83-1.86v8.19a11.225,11.225,0,0,1-.06,1.381,3.288,3.288,0,0,1-.36,1,1.728,1.728,0,0,1-1,.83,6.551,6.551,0,0,1-1.773.244Q153.189,131.294,153.076,131.29Zm3.57-20.14a3.477,3.477,0,0,0,1,2.37,3.1,3.1,0,0,0,2.43,1.08,3.415,3.415,0,0,0,2.52-1.059,3.334,3.334,0,0,0,1-2.39,3.522,3.522,0,0,0-1-2.42,3.245,3.245,0,0,0-2.541-1.07,3.1,3.1,0,0,0-2.44,1.09h-.04A3.629,3.629,0,0,0,156.646,111.15Zm171.319,14.79a15.02,15.02,0,0,1-2.579-1.81,2.855,2.855,0,0,0-1.631-.9,2.5,2.5,0,0,0-1.81.83c-1.07,1.86-2.06,2.79-3,2.79a5.456,5.456,0,0,1-3.27-1.67c-1.281-1.12-1.921-2-1.921-2.75a3.771,3.771,0,0,1,.56-2,14.6,14.6,0,0,0,.761-1.29,10.961,10.961,0,0,1,1-1.32,12.475,12.475,0,0,1,1.78-1.7,9.529,9.529,0,0,1,9.68-1,14.629,14.629,0,0,1,2.5,1.74,2.77,2.77,0,0,0,1.6.87,2.239,2.239,0,0,0,1.81-.84c1-1.76,2-2.641,3.14-2.641a4.542,4.542,0,0,1,2.57,1.04c1.67,1.16,2.51,2.27,2.51,3.34a3.537,3.537,0,0,1-.56,1.88,14.53,14.53,0,0,0-.76,1.29,12.228,12.228,0,0,1-1,1.36,10.276,10.276,0,0,1-1.741,1.741,9,9,0,0,1-5.359,1.949q-.219.011-.438.011A8.471,8.471,0,0,1,327.965,125.94Zm-33.889.07a3,3,0,0,1-1.85-1.46,6.166,6.166,0,0,1-.62-1.85,26.228,26.228,0,0,1,0-4.8,5.84,5.84,0,0,1,.59-1.77c.65-1.26,2.46-1.88,5.43-1.88s4.69.62,5.29,1.88a5.569,5.569,0,0,1,.66,1.84,26.228,26.228,0,0,1,0,4.8,5.723,5.723,0,0,1-.65,1.81,3,3,0,0,1-1.85,1.43,14.912,14.912,0,0,1-7,0Zm-95.961-4.69a2.391,2.391,0,0,1-.73-1.74V104.21a11.934,11.934,0,0,1,.06-1.4,3.312,3.312,0,0,1,.34-1c.38-.73,1.44-1.09,3.17-1.09s2.64.311,3,.93a2.321,2.321,0,0,1,.45,1.34,5.822,5.822,0,0,1,.59-.689,7.268,7.268,0,0,1,1.64-1.1,4.76,4.76,0,0,1,2.21-.689,11.59,11.59,0,0,1,1.6.1,10.111,10.111,0,0,1,1.461.31,2.727,2.727,0,0,1,1.28.831,2.849,2.849,0,0,1,.509,1.89,6.477,6.477,0,0,1-.77,2.84,2.41,2.41,0,0,1-2.23,1.54,3.231,3.231,0,0,1-1.4-.32,4.04,4.04,0,0,0-1.77-.33,3.226,3.226,0,0,0-2,.77,2.346,2.346,0,0,0-1,1.869v8.52a12.132,12.132,0,0,1-.06,1.4,3.262,3.262,0,0,1-.39,1.08c-.4.7-1.461,1-3.161,1q-.192.017-.384.016A4.487,4.487,0,0,1,198.115,121.32Zm31.351.11a2.151,2.151,0,0,1-.88-1.6q-1.5,2.151-5,2.15a8.839,8.839,0,0,1-6.51-3.209,10.691,10.691,0,0,1,0-14.871,9,9,0,0,1,6.63-3.18,6.434,6.434,0,0,1,2.52.48,5.519,5.519,0,0,1,1.58.921,5.366,5.366,0,0,1,.78.879c.16-1.519,1.23-2.27,3.21-2.27a8.5,8.5,0,0,1,2.35.24,1.719,1.719,0,0,1,1.08.85,3.61,3.61,0,0,1,.36,1.08,12.131,12.131,0,0,1,.059,1.4v14.2a12.116,12.116,0,0,1-.059,1.4,3.756,3.756,0,0,1-.34,1.08c-.38.7-1.31,1-2.78,1a5.4,5.4,0,0,1-3-.55Zm-2.16-7.6a3.483,3.483,0,0,0,1-2.41,3.791,3.791,0,0,0-.95-2.46,3.2,3.2,0,0,0-2.56-1.13,3.309,3.309,0,0,0-2.6,1.13,3.709,3.709,0,0,0-.99,2.43v.049a3.358,3.358,0,0,0,1.05,2.41,3.458,3.458,0,0,0,2.56,1.08A3.219,3.219,0,0,0,227.306,113.83Zm-39.351,7.6a2.178,2.178,0,0,1-.869-1.6q-1.5,2.151-5,2.15a8.839,8.839,0,0,1-6.51-3.209,10.661,10.661,0,0,1,0-14.871,9,9,0,0,1,6.63-3.18,6.434,6.434,0,0,1,2.52.48,5.676,5.676,0,0,1,1.579.921,5.349,5.349,0,0,1,.77.879c.159-1.519,1.229-2.27,3.209-2.27a8.5,8.5,0,0,1,2.35.24,1.7,1.7,0,0,1,1.07.85,3.343,3.343,0,0,1,.37,1.08,11.934,11.934,0,0,1,.06,1.4v14.2a11.918,11.918,0,0,1-.06,1.4,4.087,4.087,0,0,1-.339,1.08c-.381.7-1.31,1-2.78,1a5.432,5.432,0,0,1-3-.55Zm-2.16-7.6a3.523,3.523,0,0,0,1-2.41,3.749,3.749,0,0,0-1-2.46,3.177,3.177,0,0,0-2.55-1.13,3.31,3.31,0,0,0-2.6,1.13,3.73,3.73,0,0,0-.959,2.43v.049a3.37,3.37,0,0,0,1.059,2.41,3.451,3.451,0,0,0,2.561,1.08A3.219,3.219,0,0,0,185.8,113.83Zm62.42-6.23q-4.8-2.581-4.8-4.66a6.6,6.6,0,0,1,2.09-4.811,18.234,18.234,0,0,1,2.05-2,2.739,2.739,0,0,1,1.71-.55,3.269,3.269,0,0,1,2,.83,11.613,11.613,0,0,0,7.24,2.58,5.279,5.279,0,0,0,4.32-2.09,7.783,7.783,0,0,0,1.67-5l.02-2.119q-2.639,3.479-8.419,3.479t-10.831-5.33a17.8,17.8,0,0,1,0-24.88q5.071-5.37,11.14-5.36a10.469,10.469,0,0,1,4.31.87,7.446,7.446,0,0,1,3.829,3,4.262,4.262,0,0,1,1.43-3,6.083,6.083,0,0,1,3.93-1,13.984,13.984,0,0,1,4,.41,3,3,0,0,1,1.78,1.43,5.851,5.851,0,0,1,.62,1.78,18.956,18.956,0,0,1,.11,2.36V92.36a16.388,16.388,0,0,1-5.57,12.91,18.491,18.491,0,0,1-12.53,4.91H258.3A21,21,0,0,1,248.215,107.6Zm14.21-28.021a5.878,5.878,0,0,0,1.669-4,6.249,6.249,0,0,0-1.6-4.1,5.322,5.322,0,0,0-4.31-1.92,5.6,5.6,0,0,0-4.39,1.88,6.123,6.123,0,0,0-1.67,4.1,5.682,5.682,0,0,0,1.78,4.081,5.83,5.83,0,0,0,4.31,1.81A5.44,5.44,0,0,0,262.426,79.58Zm-51.48,13.87a15.6,15.6,0,0,1-6.23-4.69,20.047,20.047,0,0,1-4.39-12.61q0-8.76,5.68-14a20,20,0,0,1,14.17-5.261q9.681,0,14.2,6.82a14.139,14.139,0,0,1,2.36,7.93c0,2.86-.7,5-2.12,6.34a6.6,6.6,0,0,1-4.7,2h-16.5c0,1.3.77,2.39,2.3,3.28a9.147,9.147,0,0,0,4.6,1.32,18.989,18.989,0,0,0,6.33-.841l.77-.28a7.008,7.008,0,0,1,2.78-.76c1.49,0,2.759,1,3.829,3.13a7.679,7.679,0,0,1,.9,3.2q0,6.21-14.819,6.2c-.142,0-.285,0-.427,0A22.262,22.262,0,0,1,210.946,93.45Zm9.01-25.56a7,7,0,0,0-4.49,1.85,5.193,5.193,0,0,0-2.23,3.93l8.78.03c1.759,0,2.64-.74,2.64-2.23a3.161,3.161,0,0,0-1.219-2.58,5.443,5.443,0,0,0-3.157-1.01Q220.117,67.88,219.956,67.89ZM112.486,93.45a15.638,15.638,0,0,1-6.24-4.69,20,20,0,0,1-4.38-12.61q0-8.76,5.67-14a20,20,0,0,1,14.17-5.261q9.67,0,14.2,6.82a14.151,14.151,0,0,1,2.37,7.93q0,4.29-2.119,6.34a6.64,6.64,0,0,1-4.7,2h-16.5c0,1.3.761,2.39,2.291,3.28a9.206,9.206,0,0,0,4.6,1.32,18.99,18.99,0,0,0,6.33-.841l.77-.28a7.008,7.008,0,0,1,2.78-.76q2.23,0,3.829,3.13a7.585,7.585,0,0,1,.91,3.2q0,6.21-14.829,6.2c-.142,0-.285,0-.427,0A22.213,22.213,0,0,1,112.486,93.45Zm9.049-25.56a7,7,0,0,0-4.52,1.88,5.163,5.163,0,0,0-2.23,3.93h8.8c1.76,0,2.65-.74,2.65-2.23a3.162,3.162,0,0,0-1.22-2.58,5.488,5.488,0,0,0-3.17-1.009Q121.69,67.881,121.535,67.89ZM432.465,95a23.884,23.884,0,0,1-12.91-3.9,2.88,2.88,0,0,1-1.33-2.64q0-1.81,2.65-5.5a2.719,2.719,0,0,1,2.47-1.19,10.126,10.126,0,0,1,4.67,1.71,10.679,10.679,0,0,0,5.29,1.7c2.83,0,4.25-.55,4.25-1.67q0-1.32-4.67-2a22.582,22.582,0,0,1-8.7-3.271,9.2,9.2,0,0,1-3.34-3.929,14.287,14.287,0,0,1-1.36-6.31q0-11,15.1-11a24.5,24.5,0,0,1,10.17,2.371c1.62.74,2.43,1.67,2.43,2.78a8.19,8.19,0,0,1-1.53,4.109c-1,1.62-2.06,2.44-3.13,2.44a9.349,9.349,0,0,1-3.1-1,11.658,11.658,0,0,0-4.91-1c-2.74,0-4.1.51-4.1,1.53,0,1.39,1.57,2.3,4.73,2.71a25.992,25.992,0,0,1,8.87,2.551,7.851,7.851,0,0,1,3.38,3.38,12.16,12.16,0,0,1,1.36,6,13,13,0,0,1-1.36,6.16,8.8,8.8,0,0,1-3.8,3.79,25.528,25.528,0,0,1-10.35,2.193Q432.855,95.012,432.465,95ZM386.686,92.74a19.862,19.862,0,0,1-7.28-6.68,17.589,17.589,0,0,1-3-10,18,18,0,0,1,5.9-13.78,19.13,19.13,0,0,1,26.67,0A18,18,0,0,1,414.745,76a18,18,0,0,1-3,10.26,18.816,18.816,0,0,1-7.27,6.62A19.862,19.862,0,0,1,395.6,95,18.925,18.925,0,0,1,386.686,92.74Zm4.26-21.91a6.2,6.2,0,0,0-2.16,5.17,6,6,0,0,0,2.23,5,7.41,7.41,0,0,0,4.53,1.71,7.58,7.58,0,0,0,4.58-1.71,6,6,0,0,0,2.3-5.15,6,6,0,0,0-2.16-5.09,7.48,7.48,0,0,0-4.659-1.67A7.256,7.256,0,0,0,390.946,70.83Zm-99.72,21.91a19.848,19.848,0,0,1-7.27-6.68,17.588,17.588,0,0,1-3-10,18,18,0,0,1,5.84-13.78,19.11,19.11,0,0,1,26.66,0A18,18,0,0,1,319.235,76a18.087,18.087,0,0,1-3,10.26,18.779,18.779,0,0,1-7.22,6.62,19.806,19.806,0,0,1-8.88,2.12A19.007,19.007,0,0,1,291.226,92.74Zm4.2-21.91a6.2,6.2,0,0,0-2.16,5.17,6,6,0,0,0,2.229,5,7.393,7.393,0,0,0,4.521,1.75,7.575,7.575,0,0,0,4.6-1.75,6.07,6.07,0,0,0,2.3-5.15,6,6,0,0,0-2.16-5.09,7.488,7.488,0,0,0-4.67-1.67A7.277,7.277,0,0,0,295.426,70.83Zm46.229,23.92a20.06,20.06,0,0,1-12.469-4.66,16.7,16.7,0,0,1-4.66-6,18.545,18.545,0,0,1-1.81-8.22,17.994,17.994,0,0,1,1.81-8.14,16.832,16.832,0,0,1,4.66-5.89,19.5,19.5,0,0,1,12.33-4.59,18.2,18.2,0,0,1,5.15.73,17.07,17.07,0,0,1,3.69,1.43l1.11.69c.841.56,1.49,1,1.95,1.33a4,4,0,0,1,1.81,3.16,7.566,7.566,0,0,1-1.46,4q-2.5,3.82-4.8,3.82a7.927,7.927,0,0,1-3.759-1.53,5,5,0,0,0-3.59-1.181,6.737,6.737,0,0,0-4.351,1.67,6.358,6.358,0,0,0-.069,9.23,6.346,6.346,0,0,0,4.14,1.63A7.214,7.214,0,0,0,345.445,81a6.193,6.193,0,0,1,3.1-1.28q2.09,0,5.08,3.68a6.114,6.114,0,0,1,1.6,3.63q0,2.641-3.83,4.94a16.556,16.556,0,0,1-9.2,2.789Q341.927,94.759,341.655,94.75Zm-155.78-.79a4,4,0,0,1-1.74-1.33q-15.669-20.879-20.61-27.29V88.25a19.91,19.91,0,0,1-.11,2.44,5.56,5.56,0,0,1-.661,1.8c-.65,1.26-2.46,1.88-5.43,1.88s-4.64-.62-5.29-1.88a5.56,5.56,0,0,1-.66-1.87,21.239,21.239,0,0,1-.1-2.44V49.33a8.5,8.5,0,0,1,.66-3.86,3.329,3.329,0,0,1,2-1.64,11.517,11.517,0,0,1,3.41-.42,11.228,11.228,0,0,1,3.31.391,4.077,4.077,0,0,1,1.7.869,18.056,18.056,0,0,1,1.61,1.81q14.68,20,19.63,26.381V49.33a8.494,8.494,0,0,1,.62-3.86,3.329,3.329,0,0,1,2-1.64,11.182,11.182,0,0,1,3.31-.42,12.047,12.047,0,0,1,3.2.35,5.1,5.1,0,0,1,1.811.841,2.734,2.734,0,0,1,.869,1.46,10.9,10.9,0,0,1,.42,3.55V88.25a20.454,20.454,0,0,1-.1,2.44,5.56,5.56,0,0,1-.661,1.8c-.66,1.26-2.47,1.88-5.44,1.88q-.325.019-.65.018A11.416,11.416,0,0,1,185.875,93.96Zm174.57-1.47a6.582,6.582,0,0,1-.59-1.8,20.641,20.641,0,0,1-.1-2.44V63.81a20.55,20.55,0,0,1,.1-2.4,6.581,6.581,0,0,1,.59-1.84q1-1.81,5.43-1.81c2.23,0,3.811.39,4.74,1.18a3.85,3.85,0,0,1,1.25,3c0,.47.07,1.14.07,2V88.32a22.727,22.727,0,0,1-.1,2.4,5.618,5.618,0,0,1-.671,1.84q-.9,1.81-5.359,1.811C362.885,94.37,361.1,93.75,360.445,92.49ZM90.665,94.3c-3.229,0-5-1.13-5.4-3.41a10.238,10.238,0,0,1-8.14,3.35q-6.269,0-11.42-5.47a18.329,18.329,0,0,1,0-25.51q5.191-5.511,11.39-5.5a9.771,9.771,0,0,1,8,3.479V46.62a19.616,19.616,0,0,1,.11-2.4,5.471,5.471,0,0,1,.679-1.81A3,3,0,0,1,87.736,41a14.916,14.916,0,0,1,7,0,2.876,2.876,0,0,1,1.84,1.46,5.985,5.985,0,0,1,.63,1.849,20.17,20.17,0,0,1,.1,2.4V88.25a20.155,20.155,0,0,1-.1,2.4,5.009,5.009,0,0,1-.66,1.78Q95.5,94.3,90.713,94.3ZM74.486,71.8a6.289,6.289,0,0,0-1.67,4.22,6.214,6.214,0,0,0,6.2,6.1A5.53,5.53,0,0,0,83.3,80.24,6,6,0,0,0,85,76.1a6.416,6.416,0,0,0-1.63-4.21,5.477,5.477,0,0,0-4.42-2q-.116,0-.233,0A5.625,5.625,0,0,0,74.486,71.8ZM362.355,52.33a2.92,2.92,0,0,1-1.84-1.47,5.9,5.9,0,0,1-.63-1.84,20.176,20.176,0,0,1-.1-2.4,20.176,20.176,0,0,1,.1-2.4,5.784,5.784,0,0,1,.59-1.779q1-1.871,5.431-1.88t5.289,1.88a5.637,5.637,0,0,1,.671,1.85,28.873,28.873,0,0,1,0,4.8,5.609,5.609,0,0,1-.66,1.811,3,3,0,0,1-1.85,1.429,15.253,15.253,0,0,1-7,0ZM131.965,47.68a2,2,0,0,1-1.22-1,3.9,3.9,0,0,1-.43-1.22,12.965,12.965,0,0,1-.07-1.63V34.15a6.778,6.778,0,0,1-5.41,2.2,10.39,10.39,0,0,1-7.7-3.68,12.182,12.182,0,0,1-3.441-8.56,12,12,0,0,1,3.49-8.56c2.33-2.461,4.79-3.68,7.39-3.68s4.5.83,5.72,2.48q.279-2.539,3.73-2.53a8.762,8.762,0,0,1,2.67.291,2,2,0,0,1,1.219,1,3.6,3.6,0,0,1,.43,1.21,12.972,12.972,0,0,1,.07,1.63V43.86a12.965,12.965,0,0,1-.07,1.63,3.436,3.436,0,0,1-.43,1.191,2,2,0,0,1-1.239,1,8.014,8.014,0,0,1-2.371.28q-.135,0-.27,0A7.672,7.672,0,0,1,131.965,47.68ZM128.905,27a4.074,4.074,0,0,0,1.111-2.82,4.35,4.35,0,0,0-1.1-2.821,3.659,3.659,0,0,0-2.9-1.36,3.85,3.85,0,0,0-3,1.27,4.125,4.125,0,0,0-1.15,2.85A3.9,3.9,0,0,0,123.1,27a4,4,0,0,0,2.92,1.22A3.7,3.7,0,0,0,128.905,27Zm-35.32,9.42a10.745,10.745,0,0,1-4.28-3.22,13.759,13.759,0,0,1-3-8.66,12.511,12.511,0,0,1,3.9-9.64,13.786,13.786,0,0,1,9.73-3.611q6.65,0,9.751,4.691a9.689,9.689,0,0,1,1.62,5.43,5.81,5.81,0,0,1-1.46,4.35,4.553,4.553,0,0,1-3.23,1.41H95.286a2.621,2.621,0,0,0,1.579,2.25,6.32,6.32,0,0,0,3.15.91,13.188,13.188,0,0,0,4.351-.58l.53-.191a4.847,4.847,0,0,1,1.91-.529c1,0,1.9.72,2.63,2.16a5.2,5.2,0,0,1,.63,2.2q0,4.24-10.19,4.25-.153,0-.305,0A15.259,15.259,0,0,1,93.586,36.42Zm6.22-17.571a4.817,4.817,0,0,0-3.09,1.271,3.537,3.537,0,0,0-1.53,2.7h6.03c1.21,0,1.82-.51,1.82-1.53a2.141,2.141,0,0,0-.84-1.77,3.746,3.746,0,0,0-2.149-.678Q99.926,18.842,99.806,18.85ZM177.8,36.39a10.671,10.671,0,0,1-4.28-3.219,13.774,13.774,0,0,1-3-8.661,12.509,12.509,0,0,1,3.9-9.64,13.8,13.8,0,0,1,9.73-3.61q6.65,0,9.76,4.69a9.766,9.766,0,0,1,1.609,5.46,5.806,5.806,0,0,1-1.45,4.35,4.568,4.568,0,0,1-3.23,1.41H179.5a2.642,2.642,0,0,0,1.58,2.25,6.354,6.354,0,0,0,3.16.91,13.18,13.18,0,0,0,4.35-.58l.53-.191a4.825,4.825,0,0,1,1.9-.56c1,0,1.9.72,2.631,2.16a5.325,5.325,0,0,1,.62,2.2q0,4.239-10.191,4.25l-.3,0A15.226,15.226,0,0,1,177.8,36.39Zm6.22-17.54a4.815,4.815,0,0,0-3.081,1.271,3.54,3.54,0,0,0-1.53,2.7h6.02c1.22,0,1.821-.51,1.821-1.53a2.142,2.142,0,0,0-.841-1.77,3.7,3.7,0,0,0-2.136-.679Q184.143,18.841,184.016,18.85Zm179.72,17.1a13.58,13.58,0,0,1-5-4.59,12.045,12.045,0,0,1-2-6.87A12.4,12.4,0,0,1,360.7,15a13.148,13.148,0,0,1,9.19-3.731A13,13,0,0,1,379.015,15a12.349,12.349,0,0,1,4,9.45,12.437,12.437,0,0,1-2.06,7.05,12.812,12.812,0,0,1-5,4.54,13.514,13.514,0,0,1-6.1,1.461A13.049,13.049,0,0,1,363.736,35.95Zm2.869-15.089a4.26,4.26,0,0,0-1.48,3.51,4.111,4.111,0,0,0,1.55,3.49l.02.03A5.09,5.09,0,0,0,369.786,29a5.216,5.216,0,0,0,3.16-1.19,4.167,4.167,0,0,0,1.57-3.54,4.131,4.131,0,0,0-1.5-3.46,5.092,5.092,0,0,0-3.2-1.15A5,5,0,0,0,366.605,20.86ZM233.945,35.95a13.584,13.584,0,0,1-5-4.59,12.038,12.038,0,0,1-2-6.87,12.4,12.4,0,0,1,3.96-9.49,13.148,13.148,0,0,1,9.19-3.731A13,13,0,0,1,249.225,15a12.349,12.349,0,0,1,4,9.45,12.437,12.437,0,0,1-2.06,7.05,12.812,12.812,0,0,1-5,4.54,13.515,13.515,0,0,1-6.1,1.461A13.054,13.054,0,0,1,233.945,35.95Zm2.911-15.12a4.261,4.261,0,0,0-1.481,3.51,4.112,4.112,0,0,0,1.51,3.521l.02.03a5.086,5.086,0,0,0,3.11,1.11,5.216,5.216,0,0,0,3.16-1.19,4.167,4.167,0,0,0,1.57-3.54,4.129,4.129,0,0,0-1.48-3.49,5.092,5.092,0,0,0-3.2-1.15A5.007,5.007,0,0,0,236.856,20.83Zm-200.25,16q-3.691-.479-4.78-2.44c-.9-1.56-1.34-4-1.34-7.46V4.17a13.289,13.289,0,0,1,.07-1.65,4.29,4.29,0,0,1,.46-1.27C31.406.39,32.656,0,34.7,0s3.15.43,3.63,1.29a3.814,3.814,0,0,1,.46,1.291,16.67,16.67,0,0,1,.07,1.67V26.36a4.986,4.986,0,0,0,.28,2.17c.2.31.62.46,1.27.46a7.535,7.535,0,0,1,1.32.07,2.513,2.513,0,0,1,.81.4c.64.42,1,1.551,1,3.4,0,2-.32,3.24-1,3.68a5.089,5.089,0,0,1-2.729.519A27.124,27.124,0,0,1,36.606,36.83Zm260.35-1.1a4.342,4.342,0,0,1-.41-1.24,13.415,13.415,0,0,1-.07-1.679V16a13.306,13.306,0,0,1,.07-1.651,4.3,4.3,0,0,1,.41-1.27c.439-.83,1.689-1.239,3.73-1.239a5.065,5.065,0,0,1,3.25.81,2.642,2.642,0,0,1,.86,2.059c0,.311.049.78.049,1.381V32.86a15.775,15.775,0,0,1-.07,1.65,3.777,3.777,0,0,1-.46,1.271c-.41.83-1.64,1.239-3.68,1.239S297.4,36.59,296.956,35.73Zm40.88.46a2.9,2.9,0,0,1-.86-2.06V16a16.3,16.3,0,0,1,.07-1.651,4.066,4.066,0,0,1,.41-1.22c.45-.86,1.689-1.29,3.73-1.29s3.11.36,3.59,1.1a2.749,2.749,0,0,1,.53,1.58A5.94,5.94,0,0,1,346,13.7a9.087,9.087,0,0,1,1.94-1.29,5.547,5.547,0,0,1,2.6-.81,12.529,12.529,0,0,1,1.89.12,10.314,10.314,0,0,1,1.67.391,3.156,3.156,0,0,1,1.51,1,3.343,3.343,0,0,1,.6,2.219,7.529,7.529,0,0,1-.91,3.351,2.851,2.851,0,0,1-2.63,1.81,3.694,3.694,0,0,1-1.651-.381,4.9,4.9,0,0,0-2.08-.38,3.775,3.775,0,0,0-2.42.91,2.73,2.73,0,0,0-1.12,2.2v10a13.649,13.649,0,0,1-.07,1.65,3.809,3.809,0,0,1-.46,1.27c-.47.831-1.72,1.24-3.73,1.24q-.227.02-.455.02A5.292,5.292,0,0,1,337.836,36.19ZM23.116,37H4.186c-2.24,0-3.541-.6-3.92-1.82a7.27,7.27,0,0,1-.25-2.42V6.18c0-1.63.3-2.741.91-3.33S2.635,2,4.325,2h18.84a13.29,13.29,0,0,1,1.651,0,4.016,4.016,0,0,1,1.27.45c.86.45,1.29,1.69,1.29,3.731,0,2.24-.59,3.54-1.769,3.919a7.709,7.709,0,0,1-2.49.29H8.436v4.83h9.47a15.772,15.772,0,0,1,1.65.07,3.81,3.81,0,0,1,1.27.46c.86.44,1.291,1.69,1.291,3.73,0,2.23-.61,3.541-1.82,3.92a7.987,7.987,0,0,1-2.48.29H8.436v4.87H23.165a13.3,13.3,0,0,1,1.651.07,4.016,4.016,0,0,1,1.27.45c.86.45,1.29,1.69,1.29,3.731,0,2.229-.59,3.54-1.769,3.919a7.726,7.726,0,0,1-2.067.282Q23.327,37.011,23.116,37Zm286.03-1.29a4.639,4.639,0,0,1-.41-1.27,16.048,16.048,0,0,1-.069-1.651V4.21a16.048,16.048,0,0,1,.069-1.651,4.007,4.007,0,0,1,.41-1.21c.45-.87,1.69-1.3,3.73-1.3s3.22.429,3.64,1.3a3.914,3.914,0,0,1,.5,1.26,13.272,13.272,0,0,1,0,1.65v10a6.641,6.641,0,0,1,5.47-2.39,10.619,10.619,0,0,1,7.82,3.77,12.581,12.581,0,0,1,0,17.53c-2.36,2.5-4.9,3.759-7.609,3.759s-4.64-.77-5.781-2.3Q316.556,37,312.826,37C310.826,37,309.6,36.57,309.146,35.71Zm9.15-14.14a4.427,4.427,0,0,0-1.121,2.9,4.14,4.14,0,0,0,1.13,2.84,3.8,3.8,0,0,0,2.939,1.291,4.174,4.174,0,0,0,3.11-7.051,3.872,3.872,0,0,0-3.06-1.319l-.118,0A3.768,3.768,0,0,0,318.3,21.57ZM199.105,35.71a4.637,4.637,0,0,1-.41-1.27,15.8,15.8,0,0,1-.07-1.651V15.84a15.519,15.519,0,0,1,.07-1.61,3.435,3.435,0,0,1,.46-1.219c.45-.79,1.669-1.191,3.68-1.191s3.14.36,3.59,1.1a3.768,3.768,0,0,1,.48,2,4.71,4.71,0,0,1,.86-1,7.714,7.714,0,0,1,1.29-1,6.206,6.206,0,0,1,3.59-1.1,10.122,10.122,0,0,1,8,3.66,13.124,13.124,0,0,1,3.18,8.92V32.81a15.771,15.771,0,0,1-.07,1.65,3.982,3.982,0,0,1-.41,1.219c-.45.86-1.69,1.291-3.73,1.291q-3.39,0-3.92-1.77a7.787,7.787,0,0,1-.291-2.44V24.35a3.835,3.835,0,0,0-4.119-4.161,4.158,4.158,0,0,0-3.06,1.15,4,4,0,0,0-1.17,3V32.8a13.3,13.3,0,0,1-.07,1.651,3.465,3.465,0,0,1-.45,1.22q-.69,1.331-3.75,1.33C200.786,37,199.555,36.57,199.105,35.71Zm-39.489.12a3.833,3.833,0,0,1-.481-2,4.518,4.518,0,0,1-.859,1,11.008,11.008,0,0,1-1.291,1,6.384,6.384,0,0,1-3.55,1.1,10.161,10.161,0,0,1-8-3.659,13.12,13.12,0,0,1-3.18-8.92V16a13.608,13.608,0,0,1,.069-1.68,4.379,4.379,0,0,1,.41-1.24c.44-.859,1.69-1.29,3.73-1.29,2.23,0,3.541.61,3.92,1.82a7.527,7.527,0,0,1,.29,2.44V24.4a3.84,3.84,0,0,0,4.13,4.16,4.209,4.209,0,0,0,3.06-1.149,4,4,0,0,0,1.18-3V15.93a13.646,13.646,0,0,1,.07-1.65,4.061,4.061,0,0,1,.45-1.27c.42-.831,1.64-1.24,3.68-1.24s3.24.43,3.69,1.29a4.254,4.254,0,0,1,.4,1.27,13.13,13.13,0,0,1,.08,1.651V32.91a12.491,12.491,0,0,1-.08,1.6,3.333,3.333,0,0,1-.45,1.22c-.48.83-1.71,1.24-3.68,1.24S160.066,36.59,159.616,35.83Zm-101.13-.66a8.013,8.013,0,0,1-.28-2.48V6.18a13.463,13.463,0,0,1,.07-1.661,3.969,3.969,0,0,1,.45-1.26C59.2,2.4,60.436,2,62.475,2h10.24a13.241,13.241,0,0,1,8.17,3A10.994,10.994,0,0,1,84.1,9a12.647,12.647,0,0,1,1.24,5.65,12.492,12.492,0,0,1-1.24,5.62,11.055,11.055,0,0,1-3.209,4,13.292,13.292,0,0,1-8.221,3.06h-6v5.4a13.291,13.291,0,0,1-.07,1.65,3.81,3.81,0,0,1-.46,1.27c-.44.86-1.69,1.29-3.731,1.29C60.176,36.94,58.875,36.35,58.486,35.17Zm8.18-16.27h6a4.616,4.616,0,0,0,2.87-1.06V17.8a3.71,3.71,0,0,0,1.381-3.15,3.781,3.781,0,0,0-1.381-3.181,4.635,4.635,0,0,0-2.87-1.08h-6Zm223.19,18.01h-17.25c-2.23,0-3.53-.6-3.92-1.82a7.6,7.6,0,0,1-.28-2.44V6.18a13.822,13.822,0,0,1,.07-1.661,4.014,4.014,0,0,1,.45-1.26c.45-.86,1.69-1.26,3.73-1.26q3.344,0,4,1.77a9.458,9.458,0,0,1,.24,2.479l-.031,23.691h13a5.376,5.376,0,0,1,2.29.36,1.826,1.826,0,0,1,1,1.129,6.979,6.979,0,0,1,.24,2,6.982,6.982,0,0,1-.24,2,1.651,1.651,0,0,1-.81,1,5.4,5.4,0,0,1-2.239.485Q289.981,36.916,289.856,36.91ZM211.515,8.14a10.379,10.379,0,0,1-1.769-1.249,2,2,0,0,0-1.12-.62,1.738,1.738,0,0,0-1.25.58c-.73,1.27-1.409,1.91-2,1.91a3.75,3.75,0,0,1-2.25-1.149c-.87-.76-1.31-1.391-1.31-1.89A2.583,2.583,0,0,1,202.2,4.36c.26-.409.429-.709.53-.879a5.654,5.654,0,0,1,.689-.91,8.382,8.382,0,0,1,1.22-1.17,6.118,6.118,0,0,1,3.68-1.3,6,6,0,0,1,3,.6,10.146,10.146,0,0,1,1.7,1.15,1.862,1.862,0,0,0,1.1.59,1.541,1.541,0,0,0,1.24-.57c.67-1.211,1.39-1.82,2.16-1.82a3.164,3.164,0,0,1,1.68.72V.82c1.149.8,1.72,1.56,1.72,2.3a2.5,2.5,0,0,1-.381,1.29c-.259.41-.429.71-.529.88a9.178,9.178,0,0,1-.671.94,7.4,7.4,0,0,1-1.19,1.19,6.208,6.208,0,0,1-3.69,1.34q-.135.006-.271.006A6,6,0,0,1,211.515,8.14Zm89.14.3a8.309,8.309,0,0,1-2.41-.28,2,2,0,0,1-1.27-1,4.129,4.129,0,0,1-.43-1.271,13.284,13.284,0,0,1-.07-1.65,13.643,13.643,0,0,1,.07-1.65,3.751,3.751,0,0,1,.41-1.21c.439-.869,1.689-1.3,3.73-1.3s3.22.43,3.63,1.3a3.741,3.741,0,0,1,.461,1.26,16.048,16.048,0,0,1,.069,1.651,15.766,15.766,0,0,1-.069,1.65,4.233,4.233,0,0,1-.43,1.22,2.094,2.094,0,0,1-1.27,1,8.389,8.389,0,0,1-2.162.284Q300.785,8.444,300.656,8.44Z" transform="translate(254.992 316)"/>
  <path id="Union_2" data-name="Union 2" class="cls-2" d="M360.6,166.47a19.676,19.676,0,0,1-7.27-6.681,17.588,17.588,0,0,1-3-10,18,18,0,0,1,5.89-13.79,19.123,19.123,0,0,1,29.45,24,18.815,18.815,0,0,1-7.28,6.61,19.678,19.678,0,0,1-8.879,2.13A19.008,19.008,0,0,1,360.6,166.47Zm4.25-21.911a6.191,6.191,0,0,0-2.16,5.12,6,6,0,0,0,2.23,5.05v.031a7.349,7.349,0,0,0,4.52,1.7,7.574,7.574,0,0,0,4.6-1.74,7,7,0,0,0,.14-10.23,7.493,7.493,0,0,0-4.67-1.67A7.278,7.278,0,0,0,364.846,144.56Zm41.53,24.11a23.908,23.908,0,0,1-12.919-3.88,2.91,2.91,0,0,1-1.32-2.65c0-1.2.88-3,2.64-5.5a2.734,2.734,0,0,1,2.48-1.18,10.185,10.185,0,0,1,4.62,1.7,10.728,10.728,0,0,0,5.3,1.71c2.83,0,4.24-.56,4.24-1.669q0-1.32-4.659-1.95a22.792,22.792,0,0,1-8.74-3.25,9.382,9.382,0,0,1-3.351-3.94,14.217,14.217,0,0,1-1.319-6.37q0-11,15.109-11a24.493,24.493,0,0,1,10.2,2.31c1.63.74,2.44,1.67,2.44,2.79a8.2,8.2,0,0,1-1.53,4.1c-1,1.63-2.07,2.44-3.14,2.44a9.477,9.477,0,0,1-3.09-1,11.54,11.54,0,0,0-4.91-1.049q-4.109,0-4.11,1.53c0,1.4,1.58,2.3,4.74,2.72a26,26,0,0,1,8.91,2.64,8,8,0,0,1,3.37,3.38,12,12,0,0,1,1.36,6,12.833,12.833,0,0,1-1.36,6.16,8.8,8.8,0,0,1-3.791,3.8,25.561,25.561,0,0,1-10.314,2.174Q406.8,168.684,406.375,168.67Zm-130.42-1.03a4.054,4.054,0,0,1-1.74-1.32Q258.546,145.44,253.6,139v22.9a20.451,20.451,0,0,1-.1,2.44,5.664,5.664,0,0,1-.661,1.81q-1,1.881-5.43,1.88t-5.29-1.88a5.407,5.407,0,0,1-.67-1.88,24,24,0,0,1-.1-2.44V123a8.538,8.538,0,0,1,.66-3.87,3.3,3.3,0,0,1,2-1.63,14.262,14.262,0,0,1,6.71,0,4.394,4.394,0,0,1,1.71.869,20.226,20.226,0,0,1,1.6,1.81q14.689,20,19.63,26.391V123a8.536,8.536,0,0,1,.65-3.85,3.361,3.361,0,0,1,2-1.63,11.058,11.058,0,0,1,3.31-.42,12.121,12.121,0,0,1,3.2.35,5.2,5.2,0,0,1,1.811.83,3,3,0,0,1,.869,1.471,10.827,10.827,0,0,1,.42,3.55v38.63a19.9,19.9,0,0,1-.11,2.44,5.649,5.649,0,0,1-.661,1.81q-1,1.881-5.43,1.88-.315.017-.63.017A11.44,11.44,0,0,1,275.955,167.64Zm16.21-1.461a6.737,6.737,0,0,1-.59-1.81,19.541,19.541,0,0,1-.11-2.44V137.5a19.613,19.613,0,0,1,.11-2.4,6.612,6.612,0,0,1,.59-1.85q1-1.81,5.431-1.811c2.229,0,3.81.4,4.73,1.181a3.857,3.857,0,0,1,1.26,3c0,.46.07,1.14.07,2V162a20.157,20.157,0,0,1-.11,2.41,5.654,5.654,0,0,1-.66,1.84q-.9,1.81-5.36,1.81T292.165,166.18Zm41.84-.75a11.233,11.233,0,0,1-.419-3.55V149.61a5.932,5.932,0,0,0-1.631-4.45,6.76,6.76,0,0,0-8.84.07,5.842,5.842,0,0,0-1.71,4.379v12.32a20.336,20.336,0,0,1-.1,2.41,5.007,5.007,0,0,1-.67,1.77q-.9,1.879-5.36,1.88t-5.36-1.88a6.656,6.656,0,0,1-.59-1.84,20.718,20.718,0,0,1-.1-2.41V137.22a19.367,19.367,0,0,1,.1-2.33,5.009,5.009,0,0,1,.66-1.78q1-1.74,5.36-1.74c2.83,0,4.57.54,5.22,1.6a5.49,5.49,0,0,1,.7,2.86,7.169,7.169,0,0,1,1.25-1.4,12.464,12.464,0,0,1,1.88-1.461,9.174,9.174,0,0,1,5.219-1.6,14.736,14.736,0,0,1,11.6,5.33,19.128,19.128,0,0,1,4.621,13v12.25a20.718,20.718,0,0,1-.1,2.41,5.831,5.831,0,0,1-.59,1.77q-1,1.879-5.43,1.88Q334.765,168.01,334.005,165.43Zm-180.93-34.14a6.786,6.786,0,0,1-2-.24,1.7,1.7,0,0,1-1.06-.81,3.127,3.127,0,0,1-.36-1,10.719,10.719,0,0,1-.08-1.38V104.17a10.71,10.71,0,0,1,.07-1.38,3.288,3.288,0,0,1,.34-1c.38-.73,1.28-1.09,2.72-1.09a5.382,5.382,0,0,1,2.9.54,2.2,2.2,0,0,1,.87,1.61,5.6,5.6,0,0,1,4.85-2.111,8.631,8.631,0,0,1,6.269,3.12,10.419,10.419,0,0,1,0,14.53,8.587,8.587,0,0,1-6.269,3.12q-3.33,0-4.83-1.86v8.19a11.225,11.225,0,0,1-.06,1.381,3.288,3.288,0,0,1-.36,1,1.728,1.728,0,0,1-1,.83,6.551,6.551,0,0,1-1.773.244Q153.189,131.294,153.076,131.29Zm3.57-20.14a3.477,3.477,0,0,0,1,2.37,3.1,3.1,0,0,0,2.43,1.08,3.415,3.415,0,0,0,2.52-1.059,3.334,3.334,0,0,0,1-2.39,3.522,3.522,0,0,0-1-2.42,3.245,3.245,0,0,0-2.541-1.07,3.1,3.1,0,0,0-2.44,1.09h-.04A3.629,3.629,0,0,0,156.646,111.15Zm171.319,14.79a15.02,15.02,0,0,1-2.579-1.81,2.855,2.855,0,0,0-1.631-.9,2.5,2.5,0,0,0-1.81.83c-1.07,1.86-2.06,2.79-3,2.79a5.456,5.456,0,0,1-3.27-1.67c-1.281-1.12-1.921-2-1.921-2.75a3.771,3.771,0,0,1,.56-2,14.6,14.6,0,0,0,.761-1.29,10.961,10.961,0,0,1,1-1.32,12.475,12.475,0,0,1,1.78-1.7,9.529,9.529,0,0,1,9.68-1,14.629,14.629,0,0,1,2.5,1.74,2.77,2.77,0,0,0,1.6.87,2.239,2.239,0,0,0,1.81-.84c1-1.76,2-2.641,3.14-2.641a4.542,4.542,0,0,1,2.57,1.04c1.67,1.16,2.51,2.27,2.51,3.34a3.537,3.537,0,0,1-.56,1.88,14.53,14.53,0,0,0-.76,1.29,12.228,12.228,0,0,1-1,1.36,10.276,10.276,0,0,1-1.741,1.741,9,9,0,0,1-5.359,1.949q-.219.011-.438.011A8.471,8.471,0,0,1,327.965,125.94Zm-33.889.07a3,3,0,0,1-1.85-1.46,6.166,6.166,0,0,1-.62-1.85,26.228,26.228,0,0,1,0-4.8,5.84,5.84,0,0,1,.59-1.77c.65-1.26,2.46-1.88,5.43-1.88s4.69.62,5.29,1.88a5.569,5.569,0,0,1,.66,1.84,26.228,26.228,0,0,1,0,4.8,5.723,5.723,0,0,1-.65,1.81,3,3,0,0,1-1.85,1.43,14.912,14.912,0,0,1-7,0Zm-95.961-4.69a2.391,2.391,0,0,1-.73-1.74V104.21a11.934,11.934,0,0,1,.06-1.4,3.312,3.312,0,0,1,.34-1c.38-.73,1.44-1.09,3.17-1.09s2.64.311,3,.93a2.321,2.321,0,0,1,.45,1.34,5.822,5.822,0,0,1,.59-.689,7.268,7.268,0,0,1,1.64-1.1,4.76,4.76,0,0,1,2.21-.689,11.59,11.59,0,0,1,1.6.1,10.111,10.111,0,0,1,1.461.31,2.727,2.727,0,0,1,1.28.831,2.849,2.849,0,0,1,.509,1.89,6.477,6.477,0,0,1-.77,2.84,2.41,2.41,0,0,1-2.23,1.54,3.231,3.231,0,0,1-1.4-.32,4.04,4.04,0,0,0-1.77-.33,3.226,3.226,0,0,0-2,.77,2.346,2.346,0,0,0-1,1.869v8.52a12.132,12.132,0,0,1-.06,1.4,3.262,3.262,0,0,1-.39,1.08c-.4.7-1.461,1-3.161,1q-.192.017-.384.016A4.487,4.487,0,0,1,198.115,121.32Zm31.351.11a2.151,2.151,0,0,1-.88-1.6q-1.5,2.151-5,2.15a8.839,8.839,0,0,1-6.51-3.209,10.691,10.691,0,0,1,0-14.871,9,9,0,0,1,6.63-3.18,6.434,6.434,0,0,1,2.52.48,5.519,5.519,0,0,1,1.58.921,5.366,5.366,0,0,1,.78.879c.16-1.519,1.23-2.27,3.21-2.27a8.5,8.5,0,0,1,2.35.24,1.719,1.719,0,0,1,1.08.85,3.61,3.61,0,0,1,.36,1.08,12.131,12.131,0,0,1,.059,1.4v14.2a12.116,12.116,0,0,1-.059,1.4,3.756,3.756,0,0,1-.34,1.08c-.38.7-1.31,1-2.78,1a5.4,5.4,0,0,1-3-.55Zm-2.16-7.6a3.483,3.483,0,0,0,1-2.41,3.791,3.791,0,0,0-.95-2.46,3.2,3.2,0,0,0-2.56-1.13,3.309,3.309,0,0,0-2.6,1.13,3.709,3.709,0,0,0-.99,2.43v.049a3.358,3.358,0,0,0,1.05,2.41,3.458,3.458,0,0,0,2.56,1.08A3.219,3.219,0,0,0,227.306,113.83Zm-39.351,7.6a2.178,2.178,0,0,1-.869-1.6q-1.5,2.151-5,2.15a8.839,8.839,0,0,1-6.51-3.209,10.661,10.661,0,0,1,0-14.871,9,9,0,0,1,6.63-3.18,6.434,6.434,0,0,1,2.52.48,5.676,5.676,0,0,1,1.579.921,5.349,5.349,0,0,1,.77.879c.159-1.519,1.229-2.27,3.209-2.27a8.5,8.5,0,0,1,2.35.24,1.7,1.7,0,0,1,1.07.85,3.343,3.343,0,0,1,.37,1.08,11.934,11.934,0,0,1,.06,1.4v14.2a11.918,11.918,0,0,1-.06,1.4,4.087,4.087,0,0,1-.339,1.08c-.381.7-1.31,1-2.78,1a5.432,5.432,0,0,1-3-.55Zm-2.16-7.6a3.523,3.523,0,0,0,1-2.41,3.749,3.749,0,0,0-1-2.46,3.177,3.177,0,0,0-2.55-1.13,3.31,3.31,0,0,0-2.6,1.13,3.73,3.73,0,0,0-.959,2.43v.049a3.37,3.37,0,0,0,1.059,2.41,3.451,3.451,0,0,0,2.561,1.08A3.219,3.219,0,0,0,185.8,113.83Zm62.42-6.23q-4.8-2.581-4.8-4.66a6.6,6.6,0,0,1,2.09-4.811,18.234,18.234,0,0,1,2.05-2,2.739,2.739,0,0,1,1.71-.55,3.269,3.269,0,0,1,2,.83,11.613,11.613,0,0,0,7.24,2.58,5.279,5.279,0,0,0,4.32-2.09,7.783,7.783,0,0,0,1.67-5l.02-2.119q-2.639,3.479-8.419,3.479t-10.831-5.33a17.8,17.8,0,0,1,0-24.88q5.071-5.37,11.14-5.36a10.469,10.469,0,0,1,4.31.87,7.446,7.446,0,0,1,3.829,3,4.262,4.262,0,0,1,1.43-3,6.083,6.083,0,0,1,3.93-1,13.984,13.984,0,0,1,4,.41,3,3,0,0,1,1.78,1.43,5.851,5.851,0,0,1,.62,1.78,18.956,18.956,0,0,1,.11,2.36V92.36a16.388,16.388,0,0,1-5.57,12.91,18.491,18.491,0,0,1-12.53,4.91H258.3A21,21,0,0,1,248.215,107.6Zm14.21-28.021a5.878,5.878,0,0,0,1.669-4,6.249,6.249,0,0,0-1.6-4.1,5.322,5.322,0,0,0-4.31-1.92,5.6,5.6,0,0,0-4.39,1.88,6.123,6.123,0,0,0-1.67,4.1,5.682,5.682,0,0,0,1.78,4.081,5.83,5.83,0,0,0,4.31,1.81A5.44,5.44,0,0,0,262.426,79.58Zm-51.48,13.87a15.6,15.6,0,0,1-6.23-4.69,20.047,20.047,0,0,1-4.39-12.61q0-8.76,5.68-14a20,20,0,0,1,14.17-5.261q9.681,0,14.2,6.82a14.139,14.139,0,0,1,2.36,7.93c0,2.86-.7,5-2.12,6.34a6.6,6.6,0,0,1-4.7,2h-16.5c0,1.3.77,2.39,2.3,3.28a9.147,9.147,0,0,0,4.6,1.32,18.989,18.989,0,0,0,6.33-.841l.77-.28a7.008,7.008,0,0,1,2.78-.76c1.49,0,2.759,1,3.829,3.13a7.679,7.679,0,0,1,.9,3.2q0,6.21-14.819,6.2c-.142,0-.285,0-.427,0A22.262,22.262,0,0,1,210.946,93.45Zm9.01-25.56a7,7,0,0,0-4.49,1.85,5.193,5.193,0,0,0-2.23,3.93l8.78.03c1.759,0,2.64-.74,2.64-2.23a3.161,3.161,0,0,0-1.219-2.58,5.443,5.443,0,0,0-3.157-1.01Q220.117,67.88,219.956,67.89ZM112.486,93.45a15.638,15.638,0,0,1-6.24-4.69,20,20,0,0,1-4.38-12.61q0-8.76,5.67-14a20,20,0,0,1,14.17-5.261q9.67,0,14.2,6.82a14.151,14.151,0,0,1,2.37,7.93q0,4.29-2.119,6.34a6.64,6.64,0,0,1-4.7,2h-16.5c0,1.3.761,2.39,2.291,3.28a9.206,9.206,0,0,0,4.6,1.32,18.99,18.99,0,0,0,6.33-.841l.77-.28a7.008,7.008,0,0,1,2.78-.76q2.23,0,3.829,3.13a7.585,7.585,0,0,1,.91,3.2q0,6.21-14.829,6.2c-.142,0-.285,0-.427,0A22.213,22.213,0,0,1,112.486,93.45Zm9.049-25.56a7,7,0,0,0-4.52,1.88,5.163,5.163,0,0,0-2.23,3.93h8.8c1.76,0,2.65-.74,2.65-2.23a3.162,3.162,0,0,0-1.22-2.58,5.488,5.488,0,0,0-3.17-1.009Q121.69,67.881,121.535,67.89ZM432.465,95a23.884,23.884,0,0,1-12.91-3.9,2.88,2.88,0,0,1-1.33-2.64q0-1.81,2.65-5.5a2.719,2.719,0,0,1,2.47-1.19,10.126,10.126,0,0,1,4.67,1.71,10.679,10.679,0,0,0,5.29,1.7c2.83,0,4.25-.55,4.25-1.67q0-1.32-4.67-2a22.582,22.582,0,0,1-8.7-3.271,9.2,9.2,0,0,1-3.34-3.929,14.287,14.287,0,0,1-1.36-6.31q0-11,15.1-11a24.5,24.5,0,0,1,10.17,2.371c1.62.74,2.43,1.67,2.43,2.78a8.19,8.19,0,0,1-1.53,4.109c-1,1.62-2.06,2.44-3.13,2.44a9.349,9.349,0,0,1-3.1-1,11.658,11.658,0,0,0-4.91-1c-2.74,0-4.1.51-4.1,1.53,0,1.39,1.57,2.3,4.73,2.71a25.992,25.992,0,0,1,8.87,2.551,7.851,7.851,0,0,1,3.38,3.38,12.16,12.16,0,0,1,1.36,6,13,13,0,0,1-1.36,6.16,8.8,8.8,0,0,1-3.8,3.79,25.528,25.528,0,0,1-10.35,2.193Q432.855,95.012,432.465,95ZM386.686,92.74a19.862,19.862,0,0,1-7.28-6.68,17.589,17.589,0,0,1-3-10,18,18,0,0,1,5.9-13.78,19.13,19.13,0,0,1,26.67,0A18,18,0,0,1,414.745,76a18,18,0,0,1-3,10.26,18.816,18.816,0,0,1-7.27,6.62A19.862,19.862,0,0,1,395.6,95,18.925,18.925,0,0,1,386.686,92.74Zm4.26-21.91a6.2,6.2,0,0,0-2.16,5.17,6,6,0,0,0,2.23,5,7.41,7.41,0,0,0,4.53,1.71,7.58,7.58,0,0,0,4.58-1.71,6,6,0,0,0,2.3-5.15,6,6,0,0,0-2.16-5.09,7.48,7.48,0,0,0-4.659-1.67A7.256,7.256,0,0,0,390.946,70.83Zm-99.72,21.91a19.848,19.848,0,0,1-7.27-6.68,17.588,17.588,0,0,1-3-10,18,18,0,0,1,5.84-13.78,19.11,19.11,0,0,1,26.66,0A18,18,0,0,1,319.235,76a18.087,18.087,0,0,1-3,10.26,18.779,18.779,0,0,1-7.22,6.62,19.806,19.806,0,0,1-8.88,2.12A19.007,19.007,0,0,1,291.226,92.74Zm4.2-21.91a6.2,6.2,0,0,0-2.16,5.17,6,6,0,0,0,2.229,5,7.393,7.393,0,0,0,4.521,1.75,7.575,7.575,0,0,0,4.6-1.75,6.07,6.07,0,0,0,2.3-5.15,6,6,0,0,0-2.16-5.09,7.488,7.488,0,0,0-4.67-1.67A7.277,7.277,0,0,0,295.426,70.83Zm46.229,23.92a20.06,20.06,0,0,1-12.469-4.66,16.7,16.7,0,0,1-4.66-6,18.545,18.545,0,0,1-1.81-8.22,17.994,17.994,0,0,1,1.81-8.14,16.832,16.832,0,0,1,4.66-5.89,19.5,19.5,0,0,1,12.33-4.59,18.2,18.2,0,0,1,5.15.73,17.07,17.07,0,0,1,3.69,1.43l1.11.69c.841.56,1.49,1,1.95,1.33a4,4,0,0,1,1.81,3.16,7.566,7.566,0,0,1-1.46,4q-2.5,3.82-4.8,3.82a7.927,7.927,0,0,1-3.759-1.53,5,5,0,0,0-3.59-1.181,6.737,6.737,0,0,0-4.351,1.67,6.358,6.358,0,0,0-.069,9.23,6.346,6.346,0,0,0,4.14,1.63A7.214,7.214,0,0,0,345.445,81a6.193,6.193,0,0,1,3.1-1.28q2.09,0,5.08,3.68a6.114,6.114,0,0,1,1.6,3.63q0,2.641-3.83,4.94a16.556,16.556,0,0,1-9.2,2.789Q341.927,94.759,341.655,94.75Zm-155.78-.79a4,4,0,0,1-1.74-1.33q-15.669-20.879-20.61-27.29V88.25a19.91,19.91,0,0,1-.11,2.44,5.56,5.56,0,0,1-.661,1.8c-.65,1.26-2.46,1.88-5.43,1.88s-4.64-.62-5.29-1.88a5.56,5.56,0,0,1-.66-1.87,21.239,21.239,0,0,1-.1-2.44V49.33a8.5,8.5,0,0,1,.66-3.86,3.329,3.329,0,0,1,2-1.64,11.517,11.517,0,0,1,3.41-.42,11.228,11.228,0,0,1,3.31.391,4.077,4.077,0,0,1,1.7.869,18.056,18.056,0,0,1,1.61,1.81q14.68,20,19.63,26.381V49.33a8.494,8.494,0,0,1,.62-3.86,3.329,3.329,0,0,1,2-1.64,11.182,11.182,0,0,1,3.31-.42,12.047,12.047,0,0,1,3.2.35,5.1,5.1,0,0,1,1.811.841,2.734,2.734,0,0,1,.869,1.46,10.9,10.9,0,0,1,.42,3.55V88.25a20.454,20.454,0,0,1-.1,2.44,5.56,5.56,0,0,1-.661,1.8c-.66,1.26-2.47,1.88-5.44,1.88q-.325.019-.65.018A11.416,11.416,0,0,1,185.875,93.96Zm174.57-1.47a6.582,6.582,0,0,1-.59-1.8,20.641,20.641,0,0,1-.1-2.44V63.81a20.55,20.55,0,0,1,.1-2.4,6.581,6.581,0,0,1,.59-1.84q1-1.81,5.43-1.81c2.23,0,3.811.39,4.74,1.18a3.85,3.85,0,0,1,1.25,3c0,.47.07,1.14.07,2V88.32a22.727,22.727,0,0,1-.1,2.4,5.618,5.618,0,0,1-.671,1.84q-.9,1.81-5.359,1.811C362.885,94.37,361.1,93.75,360.445,92.49ZM90.665,94.3c-3.229,0-5-1.13-5.4-3.41a10.238,10.238,0,0,1-8.14,3.35q-6.269,0-11.42-5.47a18.329,18.329,0,0,1,0-25.51q5.191-5.511,11.39-5.5a9.771,9.771,0,0,1,8,3.479V46.62a19.616,19.616,0,0,1,.11-2.4,5.471,5.471,0,0,1,.679-1.81A3,3,0,0,1,87.736,41a14.916,14.916,0,0,1,7,0,2.876,2.876,0,0,1,1.84,1.46,5.985,5.985,0,0,1,.63,1.849,20.17,20.17,0,0,1,.1,2.4V88.25a20.155,20.155,0,0,1-.1,2.4,5.009,5.009,0,0,1-.66,1.78Q95.5,94.3,90.713,94.3ZM74.486,71.8a6.289,6.289,0,0,0-1.67,4.22,6.214,6.214,0,0,0,6.2,6.1A5.53,5.53,0,0,0,83.3,80.24,6,6,0,0,0,85,76.1a6.416,6.416,0,0,0-1.63-4.21,5.477,5.477,0,0,0-4.42-2q-.116,0-.233,0A5.625,5.625,0,0,0,74.486,71.8ZM362.355,52.33a2.92,2.92,0,0,1-1.84-1.47,5.9,5.9,0,0,1-.63-1.84,20.176,20.176,0,0,1-.1-2.4,20.176,20.176,0,0,1,.1-2.4,5.784,5.784,0,0,1,.59-1.779q1-1.871,5.431-1.88t5.289,1.88a5.637,5.637,0,0,1,.671,1.85,28.873,28.873,0,0,1,0,4.8,5.609,5.609,0,0,1-.66,1.811,3,3,0,0,1-1.85,1.429,15.253,15.253,0,0,1-7,0ZM131.965,47.68a2,2,0,0,1-1.22-1,3.9,3.9,0,0,1-.43-1.22,12.965,12.965,0,0,1-.07-1.63V34.15a6.778,6.778,0,0,1-5.41,2.2,10.39,10.39,0,0,1-7.7-3.68,12.182,12.182,0,0,1-3.441-8.56,12,12,0,0,1,3.49-8.56c2.33-2.461,4.79-3.68,7.39-3.68s4.5.83,5.72,2.48q.279-2.539,3.73-2.53a8.762,8.762,0,0,1,2.67.291,2,2,0,0,1,1.219,1,3.6,3.6,0,0,1,.43,1.21,12.972,12.972,0,0,1,.07,1.63V43.86a12.965,12.965,0,0,1-.07,1.63,3.436,3.436,0,0,1-.43,1.191,2,2,0,0,1-1.239,1,8.014,8.014,0,0,1-2.371.28q-.135,0-.27,0A7.672,7.672,0,0,1,131.965,47.68ZM128.905,27a4.074,4.074,0,0,0,1.111-2.82,4.35,4.35,0,0,0-1.1-2.821,3.659,3.659,0,0,0-2.9-1.36,3.85,3.85,0,0,0-3,1.27,4.125,4.125,0,0,0-1.15,2.85A3.9,3.9,0,0,0,123.1,27a4,4,0,0,0,2.92,1.22A3.7,3.7,0,0,0,128.905,27Zm-35.32,9.42a10.745,10.745,0,0,1-4.28-3.22,13.759,13.759,0,0,1-3-8.66,12.511,12.511,0,0,1,3.9-9.64,13.786,13.786,0,0,1,9.73-3.611q6.65,0,9.751,4.691a9.689,9.689,0,0,1,1.62,5.43,5.81,5.81,0,0,1-1.46,4.35,4.553,4.553,0,0,1-3.23,1.41H95.286a2.621,2.621,0,0,0,1.579,2.25,6.32,6.32,0,0,0,3.15.91,13.188,13.188,0,0,0,4.351-.58l.53-.191a4.847,4.847,0,0,1,1.91-.529c1,0,1.9.72,2.63,2.16a5.2,5.2,0,0,1,.63,2.2q0,4.24-10.19,4.25-.153,0-.305,0A15.259,15.259,0,0,1,93.586,36.42Zm6.22-17.571a4.817,4.817,0,0,0-3.09,1.271,3.537,3.537,0,0,0-1.53,2.7h6.03c1.21,0,1.82-.51,1.82-1.53a2.141,2.141,0,0,0-.84-1.77,3.746,3.746,0,0,0-2.149-.678Q99.926,18.842,99.806,18.85ZM177.8,36.39a10.671,10.671,0,0,1-4.28-3.219,13.774,13.774,0,0,1-3-8.661,12.509,12.509,0,0,1,3.9-9.64,13.8,13.8,0,0,1,9.73-3.61q6.65,0,9.76,4.69a9.766,9.766,0,0,1,1.609,5.46,5.806,5.806,0,0,1-1.45,4.35,4.568,4.568,0,0,1-3.23,1.41H179.5a2.642,2.642,0,0,0,1.58,2.25,6.354,6.354,0,0,0,3.16.91,13.18,13.18,0,0,0,4.35-.58l.53-.191a4.825,4.825,0,0,1,1.9-.56c1,0,1.9.72,2.631,2.16a5.325,5.325,0,0,1,.62,2.2q0,4.239-10.191,4.25l-.3,0A15.226,15.226,0,0,1,177.8,36.39Zm6.22-17.54a4.815,4.815,0,0,0-3.081,1.271,3.54,3.54,0,0,0-1.53,2.7h6.02c1.22,0,1.821-.51,1.821-1.53a2.142,2.142,0,0,0-.841-1.77,3.7,3.7,0,0,0-2.136-.679Q184.143,18.841,184.016,18.85Zm179.72,17.1a13.58,13.58,0,0,1-5-4.59,12.045,12.045,0,0,1-2-6.87A12.4,12.4,0,0,1,360.7,15a13.148,13.148,0,0,1,9.19-3.731A13,13,0,0,1,379.015,15a12.349,12.349,0,0,1,4,9.45,12.437,12.437,0,0,1-2.06,7.05,12.812,12.812,0,0,1-5,4.54,13.514,13.514,0,0,1-6.1,1.461A13.049,13.049,0,0,1,363.736,35.95Zm2.869-15.089a4.26,4.26,0,0,0-1.48,3.51,4.111,4.111,0,0,0,1.55,3.49l.02.03A5.09,5.09,0,0,0,369.786,29a5.216,5.216,0,0,0,3.16-1.19,4.167,4.167,0,0,0,1.57-3.54,4.131,4.131,0,0,0-1.5-3.46,5.092,5.092,0,0,0-3.2-1.15A5,5,0,0,0,366.605,20.86ZM233.945,35.95a13.584,13.584,0,0,1-5-4.59,12.038,12.038,0,0,1-2-6.87,12.4,12.4,0,0,1,3.96-9.49,13.148,13.148,0,0,1,9.19-3.731A13,13,0,0,1,249.225,15a12.349,12.349,0,0,1,4,9.45,12.437,12.437,0,0,1-2.06,7.05,12.812,12.812,0,0,1-5,4.54,13.515,13.515,0,0,1-6.1,1.461A13.054,13.054,0,0,1,233.945,35.95Zm2.911-15.12a4.261,4.261,0,0,0-1.481,3.51,4.112,4.112,0,0,0,1.51,3.521l.02.03a5.086,5.086,0,0,0,3.11,1.11,5.216,5.216,0,0,0,3.16-1.19,4.167,4.167,0,0,0,1.57-3.54,4.129,4.129,0,0,0-1.48-3.49,5.092,5.092,0,0,0-3.2-1.15A5.007,5.007,0,0,0,236.856,20.83Zm-200.25,16q-3.691-.479-4.78-2.44c-.9-1.56-1.34-4-1.34-7.46V4.17a13.289,13.289,0,0,1,.07-1.65,4.29,4.29,0,0,1,.46-1.27C31.406.39,32.656,0,34.7,0s3.15.43,3.63,1.29a3.814,3.814,0,0,1,.46,1.291,16.67,16.67,0,0,1,.07,1.67V26.36a4.986,4.986,0,0,0,.28,2.17c.2.31.62.46,1.27.46a7.535,7.535,0,0,1,1.32.07,2.513,2.513,0,0,1,.81.4c.64.42,1,1.551,1,3.4,0,2-.32,3.24-1,3.68a5.089,5.089,0,0,1-2.729.519A27.124,27.124,0,0,1,36.606,36.83Zm260.35-1.1a4.342,4.342,0,0,1-.41-1.24,13.415,13.415,0,0,1-.07-1.679V16a13.306,13.306,0,0,1,.07-1.651,4.3,4.3,0,0,1,.41-1.27c.439-.83,1.689-1.239,3.73-1.239a5.065,5.065,0,0,1,3.25.81,2.642,2.642,0,0,1,.86,2.059c0,.311.049.78.049,1.381V32.86a15.775,15.775,0,0,1-.07,1.65,3.777,3.777,0,0,1-.46,1.271c-.41.83-1.64,1.239-3.68,1.239S297.4,36.59,296.956,35.73Zm40.88.46a2.9,2.9,0,0,1-.86-2.06V16a16.3,16.3,0,0,1,.07-1.651,4.066,4.066,0,0,1,.41-1.22c.45-.86,1.689-1.29,3.73-1.29s3.11.36,3.59,1.1a2.749,2.749,0,0,1,.53,1.58A5.94,5.94,0,0,1,346,13.7a9.087,9.087,0,0,1,1.94-1.29,5.547,5.547,0,0,1,2.6-.81,12.529,12.529,0,0,1,1.89.12,10.314,10.314,0,0,1,1.67.391,3.156,3.156,0,0,1,1.51,1,3.343,3.343,0,0,1,.6,2.219,7.529,7.529,0,0,1-.91,3.351,2.851,2.851,0,0,1-2.63,1.81,3.694,3.694,0,0,1-1.651-.381,4.9,4.9,0,0,0-2.08-.38,3.775,3.775,0,0,0-2.42.91,2.73,2.73,0,0,0-1.12,2.2v10a13.649,13.649,0,0,1-.07,1.65,3.809,3.809,0,0,1-.46,1.27c-.47.831-1.72,1.24-3.73,1.24q-.227.02-.455.02A5.292,5.292,0,0,1,337.836,36.19ZM23.116,37H4.186c-2.24,0-3.541-.6-3.92-1.82a7.27,7.27,0,0,1-.25-2.42V6.18c0-1.63.3-2.741.91-3.33S2.635,2,4.325,2h18.84a13.29,13.29,0,0,1,1.651,0,4.016,4.016,0,0,1,1.27.45c.86.45,1.29,1.69,1.29,3.731,0,2.24-.59,3.54-1.769,3.919a7.709,7.709,0,0,1-2.49.29H8.436v4.83h9.47a15.772,15.772,0,0,1,1.65.07,3.81,3.81,0,0,1,1.27.46c.86.44,1.291,1.69,1.291,3.73,0,2.23-.61,3.541-1.82,3.92a7.987,7.987,0,0,1-2.48.29H8.436v4.87H23.165a13.3,13.3,0,0,1,1.651.07,4.016,4.016,0,0,1,1.27.45c.86.45,1.29,1.69,1.29,3.731,0,2.229-.59,3.54-1.769,3.919a7.726,7.726,0,0,1-2.067.282Q23.327,37.011,23.116,37Zm286.03-1.29a4.639,4.639,0,0,1-.41-1.27,16.048,16.048,0,0,1-.069-1.651V4.21a16.048,16.048,0,0,1,.069-1.651,4.007,4.007,0,0,1,.41-1.21c.45-.87,1.69-1.3,3.73-1.3s3.22.429,3.64,1.3a3.914,3.914,0,0,1,.5,1.26,13.272,13.272,0,0,1,0,1.65v10a6.641,6.641,0,0,1,5.47-2.39,10.619,10.619,0,0,1,7.82,3.77,12.581,12.581,0,0,1,0,17.53c-2.36,2.5-4.9,3.759-7.609,3.759s-4.64-.77-5.781-2.3Q316.556,37,312.826,37C310.826,37,309.6,36.57,309.146,35.71Zm9.15-14.14a4.427,4.427,0,0,0-1.121,2.9,4.14,4.14,0,0,0,1.13,2.84,3.8,3.8,0,0,0,2.939,1.291,4.174,4.174,0,0,0,3.11-7.051,3.872,3.872,0,0,0-3.06-1.319l-.118,0A3.768,3.768,0,0,0,318.3,21.57ZM199.105,35.71a4.637,4.637,0,0,1-.41-1.27,15.8,15.8,0,0,1-.07-1.651V15.84a15.519,15.519,0,0,1,.07-1.61,3.435,3.435,0,0,1,.46-1.219c.45-.79,1.669-1.191,3.68-1.191s3.14.36,3.59,1.1a3.768,3.768,0,0,1,.48,2,4.71,4.71,0,0,1,.86-1,7.714,7.714,0,0,1,1.29-1,6.206,6.206,0,0,1,3.59-1.1,10.122,10.122,0,0,1,8,3.66,13.124,13.124,0,0,1,3.18,8.92V32.81a15.771,15.771,0,0,1-.07,1.65,3.982,3.982,0,0,1-.41,1.219c-.45.86-1.69,1.291-3.73,1.291q-3.39,0-3.92-1.77a7.787,7.787,0,0,1-.291-2.44V24.35a3.835,3.835,0,0,0-4.119-4.161,4.158,4.158,0,0,0-3.06,1.15,4,4,0,0,0-1.17,3V32.8a13.3,13.3,0,0,1-.07,1.651,3.465,3.465,0,0,1-.45,1.22q-.69,1.331-3.75,1.33C200.786,37,199.555,36.57,199.105,35.71Zm-39.489.12a3.833,3.833,0,0,1-.481-2,4.518,4.518,0,0,1-.859,1,11.008,11.008,0,0,1-1.291,1,6.384,6.384,0,0,1-3.55,1.1,10.161,10.161,0,0,1-8-3.659,13.12,13.12,0,0,1-3.18-8.92V16a13.608,13.608,0,0,1,.069-1.68,4.379,4.379,0,0,1,.41-1.24c.44-.859,1.69-1.29,3.73-1.29,2.23,0,3.541.61,3.92,1.82a7.527,7.527,0,0,1,.29,2.44V24.4a3.84,3.84,0,0,0,4.13,4.16,4.209,4.209,0,0,0,3.06-1.149,4,4,0,0,0,1.18-3V15.93a13.646,13.646,0,0,1,.07-1.65,4.061,4.061,0,0,1,.45-1.27c.42-.831,1.64-1.24,3.68-1.24s3.24.43,3.69,1.29a4.254,4.254,0,0,1,.4,1.27,13.13,13.13,0,0,1,.08,1.651V32.91a12.491,12.491,0,0,1-.08,1.6,3.333,3.333,0,0,1-.45,1.22c-.48.83-1.71,1.24-3.68,1.24S160.066,36.59,159.616,35.83Zm-101.13-.66a8.013,8.013,0,0,1-.28-2.48V6.18a13.463,13.463,0,0,1,.07-1.661,3.969,3.969,0,0,1,.45-1.26C59.2,2.4,60.436,2,62.475,2h10.24a13.241,13.241,0,0,1,8.17,3A10.994,10.994,0,0,1,84.1,9a12.647,12.647,0,0,1,1.24,5.65,12.492,12.492,0,0,1-1.24,5.62,11.055,11.055,0,0,1-3.209,4,13.292,13.292,0,0,1-8.221,3.06h-6v5.4a13.291,13.291,0,0,1-.07,1.65,3.81,3.81,0,0,1-.46,1.27c-.44.86-1.69,1.29-3.731,1.29C60.176,36.94,58.875,36.35,58.486,35.17Zm8.18-16.27h6a4.616,4.616,0,0,0,2.87-1.06V17.8a3.71,3.71,0,0,0,1.381-3.15,3.781,3.781,0,0,0-1.381-3.181,4.635,4.635,0,0,0-2.87-1.08h-6Zm223.19,18.01h-17.25c-2.23,0-3.53-.6-3.92-1.82a7.6,7.6,0,0,1-.28-2.44V6.18a13.822,13.822,0,0,1,.07-1.661,4.014,4.014,0,0,1,.45-1.26c.45-.86,1.69-1.26,3.73-1.26q3.344,0,4,1.77a9.458,9.458,0,0,1,.24,2.479l-.031,23.691h13a5.376,5.376,0,0,1,2.29.36,1.826,1.826,0,0,1,1,1.129,6.979,6.979,0,0,1,.24,2,6.982,6.982,0,0,1-.24,2,1.651,1.651,0,0,1-.81,1,5.4,5.4,0,0,1-2.239.485Q289.981,36.916,289.856,36.91ZM211.515,8.14a10.379,10.379,0,0,1-1.769-1.249,2,2,0,0,0-1.12-.62,1.738,1.738,0,0,0-1.25.58c-.73,1.27-1.409,1.91-2,1.91a3.75,3.75,0,0,1-2.25-1.149c-.87-.76-1.31-1.391-1.31-1.89A2.583,2.583,0,0,1,202.2,4.36c.26-.409.429-.709.53-.879a5.654,5.654,0,0,1,.689-.91,8.382,8.382,0,0,1,1.22-1.17,6.118,6.118,0,0,1,3.68-1.3,6,6,0,0,1,3,.6,10.146,10.146,0,0,1,1.7,1.15,1.862,1.862,0,0,0,1.1.59,1.541,1.541,0,0,0,1.24-.57c.67-1.211,1.39-1.82,2.16-1.82a3.164,3.164,0,0,1,1.68.72V.82c1.149.8,1.72,1.56,1.72,2.3a2.5,2.5,0,0,1-.381,1.29c-.259.41-.429.71-.529.88a9.178,9.178,0,0,1-.671.94,7.4,7.4,0,0,1-1.19,1.19,6.208,6.208,0,0,1-3.69,1.34q-.135.006-.271.006A6,6,0,0,1,211.515,8.14Zm89.14.3a8.309,8.309,0,0,1-2.41-.28,2,2,0,0,1-1.27-1,4.129,4.129,0,0,1-.43-1.271,13.284,13.284,0,0,1-.07-1.65,13.643,13.643,0,0,1,.07-1.65,3.751,3.751,0,0,1,.41-1.21c.439-.869,1.689-1.3,3.73-1.3s3.22.43,3.63,1.3a3.741,3.741,0,0,1,.461,1.26,16.048,16.048,0,0,1,.069,1.651,15.766,15.766,0,0,1-.069,1.65,4.233,4.233,0,0,1-.43,1.22,2.094,2.094,0,0,1-1.27,1,8.389,8.389,0,0,1-2.162.284Q300.785,8.444,300.656,8.44Z" transform="translate(249.992 311)"/>
</svg>
