<svg xmlns="http://www.w3.org/2000/svg" viewBox="8378.996 3906 711.538 272.444">
  <defs>
    <style>
      .cls-1 {
        fill: #060e19;
      }

      .cls-2 {
        fill: #fff;
      }
    </style>
  </defs>
  <g id="Logo" transform="translate(8379.008 3906)">
    <g id="Capa_1" data-name="Capa 1" transform="translate(-0.008)">
      <path id="Path_1" data-name="Path 1" class="cls-1" d="M18.212,48.663h23.1a20.966,20.966,0,0,1,2.587.11,6.272,6.272,0,0,1,1.991.706c1.349.706,2.023,2.65,2.023,5.849q0,5.25-2.776,6.147a12.106,12.106,0,0,1-3.9.423H11.548C8.035,61.9,6,60.957,5.4,59.044a11.384,11.384,0,0,1-.392-3.795V13.569c0-2.556.47-4.3,1.427-5.222s2.681-1.333,5.332-1.333H41.311a20.968,20.968,0,0,1,2.587,0,6.272,6.272,0,0,1,1.991.706c1.349.706,2.023,2.65,2.023,5.849,0,3.513-.925,5.551-2.776,6.147a12.106,12.106,0,0,1-3.9.455H18.212v7.574h14.85a24.918,24.918,0,0,1,2.587.11,5.959,5.959,0,0,1,1.992.721c1.349.69,2.023,2.65,2.023,5.849,0,3.5-.957,5.551-2.854,6.147a12.545,12.545,0,0,1-3.889.455H18.212Z" transform="translate(2.844 3.962)"/>
      <path id="Path_2" data-name="Path 2" class="cls-1" d="M35.471,11.539a20.966,20.966,0,0,1,.11-2.587A6.759,6.759,0,0,1,36.3,6.96C36.914,5.612,38.874,5,42.073,5s4.94.674,5.692,2.023a5.975,5.975,0,0,1,.721,2.023,26.093,26.093,0,0,1,.11,2.619v34.67a7.841,7.841,0,0,0,.439,3.4c.314.486.972.721,1.991.721a11.855,11.855,0,0,1,2.07.11,3.9,3.9,0,0,1,1.27.627c1,.659,1.568,2.431,1.568,5.332,0,3.136-.5,5.081-1.568,5.771-1.3.91-4.406,1.051-9.3.455q-5.786-.753-7.5-3.826c-1.411-2.446-2.1-6.272-2.1-11.7Z" transform="translate(20.161 2.841)"/>
      <path id="Path_3" data-name="Path 3" class="cls-1" d="M103.793,17.977a19.852,19.852,0,0,1,1.944,8.86,19.6,19.6,0,0,1-1.944,8.813,17.343,17.343,0,0,1-5.034,6.272,20.84,20.84,0,0,1-12.89,4.8H76.461V55.19a20.964,20.964,0,0,1-.11,2.587,5.959,5.959,0,0,1-.721,1.992c-.69,1.349-2.65,2.023-5.849,2.023-3.5,0-5.535-.925-6.147-2.776a12.544,12.544,0,0,1-.439-3.889V13.555a21.436,21.436,0,0,1,.11-2.6,6.272,6.272,0,0,1,.706-1.976C64.747,7.627,66.691,7,69.89,7H85.948a20.762,20.762,0,0,1,12.811,4.7,17.249,17.249,0,0,1,5.034,6.272ZM90.37,31.776a5.818,5.818,0,0,0,2.164-4.94A5.927,5.927,0,0,0,90.37,21.85a7.26,7.26,0,0,0-4.5-1.694H76.461V33.5H85.87a7.245,7.245,0,0,0,4.5-1.662Z" transform="translate(35.906 3.977)"/>
      <path id="Path_4" data-name="Path 4" class="cls-1" d="M130.5,32.163a9.111,9.111,0,0,1-2.289,6.821,7.135,7.135,0,0,1-5.065,2.211H105.379a4.108,4.108,0,0,0,2.478,3.528,9.91,9.91,0,0,0,4.94,1.427,20.683,20.683,0,0,0,6.821-.91l.831-.3a7.621,7.621,0,0,1,3-.831c1.568,0,2.979,1.129,4.124,3.387a8.17,8.17,0,0,1,.988,3.45q0,6.649-15.979,6.664a23.914,23.914,0,0,1-9.863-1.913A16.841,16.841,0,0,1,96,50.651a21.577,21.577,0,0,1-4.7-13.58,19.617,19.617,0,0,1,6.116-15.117,21.609,21.609,0,0,1,15.258-5.661q10.428,0,15.289,7.354a15.2,15.2,0,0,1,2.54,8.515Zm-15.822,2.211q2.85,0,2.854-2.4a3.356,3.356,0,0,0-1.317-2.776,5.865,5.865,0,0,0-3.748-1.051,7.558,7.558,0,0,0-4.845,1.991,5.551,5.551,0,0,0-2.4,4.234Z" transform="translate(51.868 9.251)"/>
      <path id="Path_5" data-name="Path 5" class="cls-1" d="M144.711,20.793q.439-3.983,5.849-3.967a13.736,13.736,0,0,1,4.187.455,3.136,3.136,0,0,1,1.913,1.568,5.676,5.676,0,0,1,.674,1.9,20.565,20.565,0,0,1,.11,2.556V67.067a20.562,20.562,0,0,1-.11,2.556,5.426,5.426,0,0,1-.674,1.866,3.136,3.136,0,0,1-1.944,1.568A12.544,12.544,0,0,1,151,73.5a12.043,12.043,0,0,1-3.669-.439,3.136,3.136,0,0,1-1.913-1.568,6.115,6.115,0,0,1-.674-1.913,20.378,20.378,0,0,1-.11-2.556V51.841a10.632,10.632,0,0,1-8.483,3.45,16.293,16.293,0,0,1-12.074-5.771,19.1,19.1,0,0,1-5.4-13.42,18.817,18.817,0,0,1,5.473-13.423c3.654-3.858,7.511-5.771,11.588-5.771S142.8,18.2,144.711,20.793ZM133.42,40.629A6.273,6.273,0,0,0,138,42.542a5.8,5.8,0,0,0,4.532-1.913,6.382,6.382,0,0,0,1.741-4.422,6.821,6.821,0,0,0-1.725-4.422A5.739,5.739,0,0,0,138,29.652a6.037,6.037,0,0,0-4.7,1.991,6.461,6.461,0,0,0-1.8,4.469,6.116,6.116,0,0,0,1.929,4.516Z" transform="translate(67.435 9.55)"/>
      <path id="Path_6" data-name="Path 6" class="cls-1" d="M164.774,56.224a15.932,15.932,0,0,1-12.545-5.739A20.574,20.574,0,0,1,147.243,36.5V23.4a21.341,21.341,0,0,1,.11-2.634A6.82,6.82,0,0,1,148,18.824c.69-1.349,2.65-2.023,5.849-2.023,3.5,0,5.551.957,6.147,2.854a11.807,11.807,0,0,1,.455,3.826V36.575a6.022,6.022,0,0,0,6.476,6.523,6.6,6.6,0,0,0,4.8-1.8,6.272,6.272,0,0,0,1.85-4.7V23.3a21.311,21.311,0,0,1,.11-2.587,6.367,6.367,0,0,1,.706-1.992c.659-1.3,2.572-1.944,5.771-1.944s5.081.674,5.786,2.023a6.664,6.664,0,0,1,.627,1.992,20.63,20.63,0,0,1,.125,2.587V49.92a19.74,19.74,0,0,1-.125,2.509,5.239,5.239,0,0,1-.706,1.913c-.753,1.3-2.681,1.944-5.771,1.944s-4.924-.6-5.63-1.788a6.006,6.006,0,0,1-.753-3.136,7.086,7.086,0,0,1-1.349,1.568,17.324,17.324,0,0,1-2.023,1.568,10.02,10.02,0,0,1-5.567,1.725Z" transform="translate(83.658 9.527)"/>
      <path id="Path_7" data-name="Path 7" class="cls-1" d="M214.71,32.18A9.111,9.111,0,0,1,212.436,39a7.166,7.166,0,0,1-5.065,2.211H189.589a4.14,4.14,0,0,0,2.478,3.528,9.957,9.957,0,0,0,4.955,1.427,20.683,20.683,0,0,0,6.821-.91l.831-.3a7.558,7.558,0,0,1,2.979-.878c1.568,0,2.979,1.129,4.124,3.387a8.342,8.342,0,0,1,.972,3.45q0,6.649-15.979,6.664a23.883,23.883,0,0,1-9.848-1.913,16.732,16.732,0,0,1-6.711-5.049,21.593,21.593,0,0,1-4.7-13.58,19.617,19.617,0,0,1,6.116-15.117,21.64,21.64,0,0,1,15.258-5.661q10.428,0,15.3,7.354a15.3,15.3,0,0,1,2.525,8.562Zm-15.822,2.211c1.913,0,2.854-.8,2.854-2.4a3.356,3.356,0,0,0-1.317-2.776,5.8,5.8,0,0,0-3.748-1.051,7.543,7.543,0,0,0-4.83,1.992,5.551,5.551,0,0,0-2.4,4.234Z" transform="translate(99.708 9.234)"/>
      <path id="Path_8" data-name="Path 8" class="cls-1" d="M225.6,23.507a15.869,15.869,0,0,1,12.545,5.739,20.573,20.573,0,0,1,4.987,13.988V56.421a24.694,24.694,0,0,1-.11,2.587,6.273,6.273,0,0,1-.643,1.913c-.706,1.349-2.65,2.023-5.849,2.023-3.544,0-5.6-.925-6.147-2.776a12.2,12.2,0,0,1-.455-3.826V43.155a6.014,6.014,0,0,0-6.461-6.523,6.523,6.523,0,0,0-4.8,1.8,6.272,6.272,0,0,0-1.835,4.7V56.406a20.964,20.964,0,0,1-.11,2.587,5.427,5.427,0,0,1-.706,1.913q-1.082,2.086-5.88,2.086c-3.136,0-5.065-.674-5.771-2.023a7.258,7.258,0,0,1-.643-1.991,24.7,24.7,0,0,1-.11-2.587V29.81a24.211,24.211,0,0,1,.11-2.525,5.393,5.393,0,0,1,.721-1.913c.706-1.239,2.619-1.866,5.771-1.866s4.924.565,5.63,1.725a5.912,5.912,0,0,1,.753,3.136,7.4,7.4,0,0,1,1.349-1.568,12.2,12.2,0,0,1,2.023-1.568,9.738,9.738,0,0,1,5.631-1.724Zm10.266-17.25c1.8,1.254,2.7,2.446,2.7,3.607a3.92,3.92,0,0,1-.6,2.023c-.408.643-.674,1.113-.831,1.38a14.115,14.115,0,0,1-1.051,1.474,11.666,11.666,0,0,1-1.866,1.866,9.738,9.738,0,0,1-5.786,2.1,9.408,9.408,0,0,1-4.61-.972,16.322,16.322,0,0,1-2.776-1.96,3.136,3.136,0,0,0-1.756-.972,2.729,2.729,0,0,0-1.96.909c-1.145,1.992-2.211,3-3.136,3a5.88,5.88,0,0,1-3.528-1.8c-1.364-1.192-2.054-2.18-2.054-2.964a4.045,4.045,0,0,1,.6-2.133c.408-.643.674-1.113.831-1.38A8.92,8.92,0,0,1,211.122,9a13.233,13.233,0,0,1,1.913-1.835,9.6,9.6,0,0,1,5.771-2.039,9.409,9.409,0,0,1,4.7.941,16.026,16.026,0,0,1,2.666,1.8A2.917,2.917,0,0,0,227.9,8.8a2.415,2.415,0,0,0,1.944-.894q1.576-2.85,3.387-2.854a4.971,4.971,0,0,1,2.634,1.129Z" transform="translate(115.684 2.869)"/>
      <path id="Path_9" data-name="Path 9" class="cls-1" d="M238.143,22.119a20.621,20.621,0,0,1,14.411-5.849,20.385,20.385,0,0,1,14.317,5.849,19.366,19.366,0,0,1,6.272,14.819,19.507,19.507,0,0,1-3.23,11.055,20.1,20.1,0,0,1-7.841,7.119,21.2,21.2,0,0,1-9.565,2.289,20.464,20.464,0,0,1-9.6-2.431,21.311,21.311,0,0,1-7.841-7.2A18.9,18.9,0,0,1,231.934,37a19.445,19.445,0,0,1,6.21-14.881Zm9.409,20.213a7.982,7.982,0,0,0,4.877,1.741,8.185,8.185,0,0,0,4.955-1.866,6.539,6.539,0,0,0,2.462-5.551,6.476,6.476,0,0,0-2.321-5.473,7.982,7.982,0,0,0-5.018-1.8,7.84,7.84,0,0,0-5.034,1.882,6.68,6.68,0,0,0-2.321,5.5,6.445,6.445,0,0,0,2.368,5.52Z" transform="translate(131.77 9.243)"/>
      <path id="Path_10" data-name="Path 10" class="cls-1" d="M286.661,50.813h20.385a8.436,8.436,0,0,1,3.591.565,2.87,2.87,0,0,1,1.568,1.772,13.252,13.252,0,0,1,0,6.272,2.587,2.587,0,0,1-1.27,1.568,8.468,8.468,0,0,1-3.9.753h-27.05c-3.5,0-5.535-.941-6.147-2.854a11.9,11.9,0,0,1-.439-3.826V13.555a21.429,21.429,0,0,1,.11-2.6,6.274,6.274,0,0,1,.706-1.976c.7-1.352,2.646-1.979,5.844-1.979,3.5,0,5.582.925,6.272,2.776a14.807,14.807,0,0,1,.376,3.889Z" transform="translate(155.322 3.977)"/>
      <path id="Path_11" data-name="Path 11" class="cls-1" d="M313.8,16.182a3.277,3.277,0,0,1-1.991,1.568,13.11,13.11,0,0,1-3.795.439,13,13,0,0,1-3.779-.439,3.136,3.136,0,0,1-1.991-1.568,6.475,6.475,0,0,1-.674-1.991,20.973,20.973,0,0,1-.11-2.587,21.3,21.3,0,0,1,.11-2.587,5.9,5.9,0,0,1,.643-1.9c.69-1.364,2.65-2.039,5.849-2.039s5.049.674,5.692,2.039a5.88,5.88,0,0,1,.721,1.976,25.074,25.074,0,0,1,.11,2.587,24.685,24.685,0,0,1-.11,2.587,6.62,6.62,0,0,1-.675,1.915ZM301.462,30.044a20.931,20.931,0,0,1,.11-2.587,6.756,6.756,0,0,1,.643-1.992c.69-1.3,2.65-1.944,5.849-1.944a7.95,7.95,0,0,1,5.1,1.27,4.14,4.14,0,0,1,1.349,3.23c0,.486.078,1.223.078,2.164v26.3a25.108,25.108,0,0,1-.11,2.587,5.959,5.959,0,0,1-.721,1.991c-.643,1.3-2.572,1.944-5.771,1.944s-5.081-.674-5.771-2.023a6.821,6.821,0,0,1-.643-1.944,21.16,21.16,0,0,1-.11-2.634Z" transform="translate(171.272 2.886)"/>
      <path id="Path_12" data-name="Path 12" class="cls-1" d="M335.322,23.585A16.653,16.653,0,0,1,347.584,29.5a19.727,19.727,0,0,1,0,27.489c-3.7,3.92-7.684,5.9-11.933,5.9s-7.276-1.207-9.064-3.607Q326.022,63,320.173,63c-3.136,0-5.065-.674-5.771-2.023a7.262,7.262,0,0,1-.643-1.991,24.719,24.719,0,0,1-.11-2.587V11.573a25.083,25.083,0,0,1,.11-2.587,6.27,6.27,0,0,1,.643-1.9c.706-1.364,2.65-2.039,5.849-2.039s5.049.674,5.708,2.039a6.179,6.179,0,0,1,.784,1.976,21.3,21.3,0,0,1,0,2.587V27.333a10.412,10.412,0,0,1,8.578-3.748ZM328.767,47.8a5.959,5.959,0,0,0,4.61,2.023,6.545,6.545,0,0,0,4.877-11.055,6.068,6.068,0,0,0-4.8-2.07,5.912,5.912,0,0,0-4.7,2.1A6.947,6.947,0,0,0,327,43.343,6.493,6.493,0,0,0,328.767,47.8Z" transform="translate(178.199 2.869)"/>
      <path id="Path_13" data-name="Path 13" class="cls-1" d="M368.806,17.4a4.956,4.956,0,0,1,2.368,1.568,5.253,5.253,0,0,1,.941,3.481,11.791,11.791,0,0,1-1.427,5.253,4.469,4.469,0,0,1-4.124,2.838,5.786,5.786,0,0,1-2.587-.6,7.668,7.668,0,0,0-3.262-.6,5.912,5.912,0,0,0-3.8,1.427,4.281,4.281,0,0,0-1.756,3.45v15.69a21.308,21.308,0,0,1-.11,2.587,5.958,5.958,0,0,1-.721,1.991c-.737,1.3-2.7,1.944-5.849,1.944a8.3,8.3,0,0,1-5.175-1.27,4.548,4.548,0,0,1-1.349-3.23V23.5a25.108,25.108,0,0,1,.11-2.587A6.383,6.383,0,0,1,342.713,19c.706-1.349,2.65-2.023,5.849-2.023s4.877.565,5.63,1.725a4.313,4.313,0,0,1,.831,2.478,9.193,9.193,0,0,1,1.082-1.286,14.19,14.19,0,0,1,3.042-2.023,8.7,8.7,0,0,1,4.077-1.27,19.586,19.586,0,0,1,2.964.188,16.248,16.248,0,0,1,2.619.612Z" transform="translate(194.282 9.43)"/>
      <path id="Path_14" data-name="Path 14" class="cls-1" d="M367.933,22.119a20.621,20.621,0,0,1,14.411-5.849,20.386,20.386,0,0,1,14.317,5.849,19.366,19.366,0,0,1,6.272,14.819,19.507,19.507,0,0,1-3.23,11.055,20.1,20.1,0,0,1-7.841,7.119A21.2,21.2,0,0,1,382.3,57.4a20.464,20.464,0,0,1-9.6-2.431,21.311,21.311,0,0,1-7.841-7.2A18.9,18.9,0,0,1,361.724,37a19.445,19.445,0,0,1,6.21-14.881Zm9.409,20.213a7.982,7.982,0,0,0,4.845,1.741,8.186,8.186,0,0,0,4.955-1.866,6.539,6.539,0,0,0,2.462-5.551,6.477,6.477,0,0,0-2.352-5.426,7.982,7.982,0,0,0-5.018-1.8,7.841,7.841,0,0,0-5.034,1.882,6.68,6.68,0,0,0-2.321,5.5,6.445,6.445,0,0,0,2.431,5.473Z" transform="translate(205.505 9.243)"/>
      <path id="Path_15" data-name="Path 15" class="cls-1" d="M105.269,48.448a4.7,4.7,0,0,1,2.9-2.211,23.4,23.4,0,0,1,10.977,0,4.516,4.516,0,0,1,2.885,2.289,9.409,9.409,0,0,1,.988,2.9,31.745,31.745,0,0,1,.157,3.763V120.33a31.737,31.737,0,0,1-.157,3.763,7.841,7.841,0,0,1-1.035,2.791q-1.647,2.948-9.22,2.932c-5.065,0-7.841-1.772-8.468-5.347a16.057,16.057,0,0,1-12.764,5.253q-9.832,0-17.908-8.578a28.743,28.743,0,0,1,0-40q8.139-8.64,17.861-8.625a15.32,15.32,0,0,1,12.545,5.457V55.049a31.015,31.015,0,0,1,.172-3.763,8.594,8.594,0,0,1,1.066-2.838ZM87.534,107.769a9.174,9.174,0,0,0,6.962,2.948,8.672,8.672,0,0,0,6.711-2.948,9.409,9.409,0,0,0,2.666-6.492,10.067,10.067,0,0,0-2.556-6.6,8.593,8.593,0,0,0-6.931-3.136,8.828,8.828,0,0,0-6.994,3,9.863,9.863,0,0,0-2.619,6.617,9.189,9.189,0,0,0,2.76,6.617Z" transform="translate(37.237 25.896)"/>
      <path id="Path_16" data-name="Path 16" class="cls-1" d="M163.945,85.025q0,6.727-3.324,9.942a10.412,10.412,0,0,1-7.37,3.136H127.377c0,2.039,1.192,3.748,3.591,5.143a14.427,14.427,0,0,0,7.213,2.07A29.794,29.794,0,0,0,148.107,104l1.207-.439a10.977,10.977,0,0,1,4.359-1.192q3.5,0,6.006,4.908a11.9,11.9,0,0,1,1.427,5.018q0,9.738-23.255,9.722a34.859,34.859,0,0,1-14.348-2.791,24.525,24.525,0,0,1-9.785-7.354A31.362,31.362,0,0,1,106.85,92.1q0-13.737,8.891-21.954a31.362,31.362,0,0,1,22.22-8.248q15.164,0,22.267,10.694A22.2,22.2,0,0,1,163.945,85.025Zm-23.035,3.23c2.76,0,4.155-1.16,4.155-3.5a4.955,4.955,0,0,0-1.913-4.046,8.593,8.593,0,0,0-5.457-1.568,10.977,10.977,0,0,0-7.088,2.948,8.091,8.091,0,0,0-3.5,6.163Z" transform="translate(60.714 35.154)"/>
      <path id="Path_17" data-name="Path 17" class="cls-1" d="M207.923,51.643a5.222,5.222,0,0,1,3.136-2.572,17.5,17.5,0,0,1,5.19-.659,18.912,18.912,0,0,1,5.018.549,8,8,0,0,1,2.838,1.317,4.3,4.3,0,0,1,1.364,2.289,17.092,17.092,0,0,1,.659,5.567v60.592a32.088,32.088,0,0,1-.157,3.826,8.719,8.719,0,0,1-1.035,2.823c-1.035,1.976-3.873,2.948-8.531,2.948a17.86,17.86,0,0,1-5.88-.643,6.273,6.273,0,0,1-2.725-2.08q-24.575-32.747-32.321-42.8v35.925a31.354,31.354,0,0,1-.173,3.826,8.718,8.718,0,0,1-1.035,2.823c-1.019,1.976-3.858,2.948-8.515,2.948s-7.276-.972-8.3-2.948a8.7,8.7,0,0,1-1.035-2.932,33.519,33.519,0,0,1-.157-3.826V57.7a13.314,13.314,0,0,1,1.035-6.053,5.222,5.222,0,0,1,3.136-2.572,18.049,18.049,0,0,1,5.347-.659,17.641,17.641,0,0,1,5.19.612,6.4,6.4,0,0,1,2.666,1.364,28.123,28.123,0,0,1,2.525,2.838q23.02,31.362,30.782,41.367V57.7a13.313,13.313,0,0,1,.972-6.053Z" transform="translate(88.775 27.499)"/>
      <path id="Path_18" data-name="Path 18" class="cls-1" d="M262.4,85.025c0,4.485-1.1,7.841-3.324,9.942a10.349,10.349,0,0,1-7.37,3.136H225.837c0,2.039,1.207,3.748,3.607,5.143a14.332,14.332,0,0,0,7.213,2.07A29.794,29.794,0,0,0,246.583,104l1.207-.439a10.978,10.978,0,0,1,4.359-1.192c2.336,0,4.328,1.568,6.006,4.908a12.073,12.073,0,0,1,1.411,5.018q0,9.738-23.239,9.722a34.937,34.937,0,0,1-14.364-2.791,24.478,24.478,0,0,1-9.769-7.354A31.441,31.441,0,0,1,205.31,92.1q0-13.737,8.907-21.954a31.362,31.362,0,0,1,22.22-8.248q15.179,0,22.267,10.694a22.188,22.188,0,0,1,3.7,12.433Zm-23.083,3.23c2.76,0,4.14-1.16,4.14-3.5a4.955,4.955,0,0,0-1.913-4.046,8.53,8.53,0,0,0-5.457-1.568,10.977,10.977,0,0,0-7.041,2.9,8.139,8.139,0,0,0-3.5,6.163Z" transform="translate(116.65 35.154)"/>
      <path id="Path_19" data-name="Path 19" class="cls-1" d="M283.316,113.1q-4.14,5.457-13.2,5.457T253.13,110.2a27.912,27.912,0,0,1,0-39.015q7.95-8.421,17.469-8.4a16.418,16.418,0,0,1,6.759,1.364,11.683,11.683,0,0,1,6.006,4.7,6.68,6.68,0,0,1,2.242-4.7,9.55,9.55,0,0,1,6.163-1.568,21.954,21.954,0,0,1,6.272.643,4.7,4.7,0,0,1,2.791,2.242,9.158,9.158,0,0,1,.972,2.791,29.665,29.665,0,0,1,.172,3.7v45.193a25.7,25.7,0,0,1-8.734,20.244,29,29,0,0,1-19.648,7.7,32.93,32.93,0,0,1-15.838-4.046q-7.527-4.046-7.527-7.307a10.35,10.35,0,0,1,3.277-7.543,28.636,28.636,0,0,1,3.215-3.136,4.3,4.3,0,0,1,2.681-.862,5.128,5.128,0,0,1,3.136,1.3,18.206,18.206,0,0,0,11.353,4.046,8.28,8.28,0,0,0,6.774-3.277,12.2,12.2,0,0,0,2.619-7.841ZM263.887,90.77a8.906,8.906,0,0,0,2.791,6.4,9.142,9.142,0,0,0,6.759,2.83,8.531,8.531,0,0,0,6.6-2.9,9.22,9.22,0,0,0,2.619-6.272,9.8,9.8,0,0,0-2.509-6.429,8.342,8.342,0,0,0-6.759-3.011,8.781,8.781,0,0,0-6.884,2.948,9.6,9.6,0,0,0-2.617,6.433Z" transform="translate(139.302 35.527)"/>
      <path id="Path_20" data-name="Path 20" class="cls-1" d="M295.1,70.357a29.967,29.967,0,0,1,41.806,0,28.226,28.226,0,0,1,9.064,21.514,28.368,28.368,0,0,1-4.7,16.089,29.449,29.449,0,0,1-11.322,10.381,31.049,31.049,0,0,1-13.925,3.324,29.794,29.794,0,0,1-13.972-3.544,31.127,31.127,0,0,1-11.4-10.475,27.583,27.583,0,0,1-4.7-15.681A28.226,28.226,0,0,1,295.1,70.357Zm13.643,29.355a11.588,11.588,0,0,0,7.088,2.744,11.886,11.886,0,0,0,7.213-2.744,9.518,9.518,0,0,0,3.607-8.076,9.409,9.409,0,0,0-3.387-7.982,11.745,11.745,0,0,0-7.323-2.619,11.416,11.416,0,0,0-7.307,2.729,9.722,9.722,0,0,0-3.387,8.107,9.409,9.409,0,0,0,3.5,7.841Z" transform="translate(162.453 35.145)"/>
      <path id="Path_21" data-name="Path 21" class="cls-1" d="M347.35,91.652a8.907,8.907,0,0,0,3.058,7.213,9.942,9.942,0,0,0,6.492,2.556,11.306,11.306,0,0,0,6.445-1.929,9.707,9.707,0,0,1,4.861-2.007q3.277,0,7.966,5.771a9.6,9.6,0,0,1,2.509,5.692q0,4.14-6.006,7.746a25.968,25.968,0,0,1-15.273,4.359,31.456,31.456,0,0,1-19.554-7.307,26.186,26.186,0,0,1-7.307-9.409,29.087,29.087,0,0,1-2.838-12.89,28.227,28.227,0,0,1,2.838-12.764,26.392,26.392,0,0,1,7.307-9.236,30.579,30.579,0,0,1,19.335-7.2,28.556,28.556,0,0,1,8.076,1.145,26.768,26.768,0,0,1,5.786,2.242l1.741,1.082c1.317.878,2.336,1.568,3.058,2.086a6.273,6.273,0,0,1,2.838,4.955,11.87,11.87,0,0,1-2.289,6.272q-3.92,5.99-7.527,5.99a12.419,12.419,0,0,1-5.9-2.4,7.84,7.84,0,0,0-5.629-1.85,10.553,10.553,0,0,0-6.821,2.619,8.891,8.891,0,0,0-3.166,7.264Z" transform="translate(186.18 35.365)"/>
      <path id="Path_22" data-name="Path 22" class="cls-1" d="M382.7,61.774a4.7,4.7,0,0,1-2.9,2.242,23.945,23.945,0,0,1-10.977,0,4.579,4.579,0,0,1-2.885-2.305,9.268,9.268,0,0,1-.988-2.885,31.711,31.711,0,0,1-.157-3.763,31.73,31.73,0,0,1,.157-3.763,9.08,9.08,0,0,1,.925-2.791q1.568-2.932,8.515-2.948t8.3,2.948a8.879,8.879,0,0,1,1.051,2.9,45.235,45.235,0,0,1,0,7.527,8.781,8.781,0,0,1-1.041,2.838ZM364.742,82.019a31.926,31.926,0,0,1,.157-3.763,10.285,10.285,0,0,1,.925-2.885q1.568-2.838,8.515-2.838,5.25,0,7.433,1.85a6.037,6.037,0,0,1,1.96,4.7c0,.737.11,1.788.11,3.136v38.23a35.554,35.554,0,0,1-.157,3.763,8.816,8.816,0,0,1-1.051,2.885q-1.411,2.838-8.4,2.838c-4.579,0-7.386-.972-8.4-2.948a10.287,10.287,0,0,1-.925-2.823,32.084,32.084,0,0,1-.157-3.826Z" transform="translate(207.222 25.883)"/>
      <path id="Path_23" data-name="Path 23" class="cls-1" d="M390.645,70.356a30,30,0,0,1,41.821,0,28.226,28.226,0,0,1,9.048,21.514,28.226,28.226,0,0,1-4.7,16.089,29.512,29.512,0,0,1-11.4,10.381,31.143,31.143,0,0,1-13.925,3.324,29.685,29.685,0,0,1-13.972-3.544A31.173,31.173,0,0,1,386.1,107.645a27.583,27.583,0,0,1-4.7-15.681,28.226,28.226,0,0,1,9.252-21.609ZM404.3,99.711a11.62,11.62,0,0,0,7.1,2.681,11.887,11.887,0,0,0,7.182-2.681,9.409,9.409,0,0,0,3.607-8.076,9.408,9.408,0,0,0-3.387-7.982,11.729,11.729,0,0,0-7.307-2.619,11.385,11.385,0,0,0-7.307,2.729A9.722,9.722,0,0,0,400.8,91.87a9.409,9.409,0,0,0,3.5,7.841Z" transform="translate(216.68 35.147)"/>
      <path id="Path_24" data-name="Path 24" class="cls-1" d="M425.3,115.473a4.516,4.516,0,0,1-2.086-4.14q0-2.838,4.155-8.625a4.265,4.265,0,0,1,3.873-1.866,15.9,15.9,0,0,1,7.323,2.682,16.748,16.748,0,0,0,8.3,2.666c4.438,0,6.664-.862,6.664-2.619q0-2.07-7.323-3.136a35.408,35.408,0,0,1-13.643-5.128,14.427,14.427,0,0,1-5.238-6.163,22.409,22.409,0,0,1-2.133-9.895Q425.19,62,448.868,62a38.434,38.434,0,0,1,15.948,3.716c2.54,1.16,3.81,2.619,3.81,4.359a12.843,12.843,0,0,1-2.4,6.445c-1.568,2.54-3.23,3.826-4.908,3.826a14.709,14.709,0,0,1-4.861-1.568,18.269,18.269,0,0,0-7.7-1.568c-4.3,0-6.429.8-6.429,2.4,0,2.18,2.462,3.607,7.417,4.25a40.77,40.77,0,0,1,13.909,4,12.31,12.31,0,0,1,5.3,5.3,19.067,19.067,0,0,1,2.133,9.409,20.385,20.385,0,0,1-2.133,9.66A13.8,13.8,0,0,1,463,118.17a40.033,40.033,0,0,1-17.453,3.418,37.447,37.447,0,0,1-20.244-6.116Z" transform="translate(240.437 35.223)"/>
      <path id="Path_25" data-name="Path 25" class="cls-1" d="M154.561,148.3V111.155a16.893,16.893,0,0,1,.11-2.164,5.159,5.159,0,0,1,.533-1.568c.6-1.145,2.007-1.709,4.265-1.709a8.436,8.436,0,0,1,4.548.847,3.45,3.45,0,0,1,1.364,2.525,8.782,8.782,0,0,1,7.605-3.309,13.533,13.533,0,0,1,9.832,4.893,16.34,16.34,0,0,1,0,22.785,13.47,13.47,0,0,1-9.832,4.893q-5.222,0-7.574-2.917v12.843a17.626,17.626,0,0,1-.094,2.164,5.191,5.191,0,0,1-.565,1.568,2.713,2.713,0,0,1-1.568,1.3,10.287,10.287,0,0,1-3.136.376,10.617,10.617,0,0,1-3.136-.376,2.666,2.666,0,0,1-1.662-1.27,4.922,4.922,0,0,1-.565-1.568A16.889,16.889,0,0,1,154.561,148.3Zm12.545-29.967a5.692,5.692,0,0,0-1.458,3.763,5.457,5.457,0,0,0,1.568,3.716,4.861,4.861,0,0,0,3.811,1.694,5.347,5.347,0,0,0,3.952-1.662,5.222,5.222,0,0,0,1.568-3.748,5.52,5.52,0,0,0-1.568-3.795A5.081,5.081,0,0,0,171,116.623a4.861,4.861,0,0,0-3.826,1.709Z" transform="translate(87.818 60.036)"/>
      <path id="Path_26" data-name="Path 26" class="cls-1" d="M200.309,109.3c.251-2.384,1.929-3.56,5.034-3.56a13.314,13.314,0,0,1,3.685.376,2.666,2.666,0,0,1,1.678,1.333,5.285,5.285,0,0,1,.58,1.694,18.81,18.81,0,0,1,.094,2.2V133.6a18.816,18.816,0,0,1-.094,2.2,6.447,6.447,0,0,1-.533,1.694c-.6,1.1-2.054,1.568-4.359,1.568a8.53,8.53,0,0,1-4.7-.863,3.418,3.418,0,0,1-1.364-2.509q-2.352,3.371-7.841,3.371a13.862,13.862,0,0,1-10.208-5.034,16.716,16.716,0,0,1,0-23.318,14.113,14.113,0,0,1,10.4-4.987,10.084,10.084,0,0,1,3.952.753,8.906,8.906,0,0,1,2.478,1.443,8.4,8.4,0,0,1,1.2,1.382Zm-11.588,13.23a5.285,5.285,0,0,0,1.662,3.779A5.41,5.41,0,0,0,194.4,128a5.049,5.049,0,0,0,3.9-1.725,5.52,5.52,0,0,0,1.568-3.779,5.88,5.88,0,0,0-1.568-3.857,4.987,4.987,0,0,0-4-1.772,5.19,5.19,0,0,0-4.077,1.772,5.849,5.849,0,0,0-1.505,3.811Z" transform="translate(100.873 60.06)"/>
      <path id="Path_27" data-name="Path 27" class="cls-1" d="M225.14,106.153a4.265,4.265,0,0,1,2.007,1.3,4.469,4.469,0,0,1,.8,2.964,10.177,10.177,0,0,1-1.207,4.453,3.779,3.779,0,0,1-3.5,2.415,5.064,5.064,0,0,1-2.2-.5,6.351,6.351,0,0,0-2.776-.517,5.065,5.065,0,0,0-3.136,1.207,3.685,3.685,0,0,0-1.568,2.932v13.36a18.8,18.8,0,0,1-.094,2.2,5.08,5.08,0,0,1-.612,1.694c-.627,1.1-2.289,1.568-4.955,1.568a7.025,7.025,0,0,1-4.391-1.082,3.748,3.748,0,0,1-1.145-2.729v-24.1a18.576,18.576,0,0,1,.094-2.2,5.19,5.19,0,0,1,.533-1.568c.6-1.145,2.258-1.709,4.971-1.709s4.14.486,4.7,1.458a3.638,3.638,0,0,1,.706,2.1,9.078,9.078,0,0,1,.925-1.082,11.367,11.367,0,0,1,2.572-1.725,7.464,7.464,0,0,1,3.466-1.082,18.252,18.252,0,0,1,2.509.157,15.82,15.82,0,0,1,2.289.486Z" transform="translate(114.979 59.941)"/>
      <path id="Path_28" data-name="Path 28" class="cls-1" d="M241.818,109.3c.251-2.384,1.929-3.56,5.034-3.56a13.313,13.313,0,0,1,3.685.376,2.7,2.7,0,0,1,1.694,1.333,5.613,5.613,0,0,1,.565,1.694,18.813,18.813,0,0,1,.094,2.2V133.6a18.823,18.823,0,0,1-.094,2.2,5.912,5.912,0,0,1-.533,1.694c-.6,1.1-2.054,1.568-4.359,1.568a8.468,8.468,0,0,1-4.7-.862,3.371,3.371,0,0,1-1.38-2.509q-2.352,3.371-7.841,3.371a13.862,13.862,0,0,1-10.208-5.034,16.763,16.763,0,0,1,0-23.318,14.113,14.113,0,0,1,10.4-4.987,10.083,10.083,0,0,1,3.952.753,8.672,8.672,0,0,1,2.478,1.443,8.4,8.4,0,0,1,1.223,1.38Zm-11.572,13.23a5.269,5.269,0,0,0,1.647,3.779A5.426,5.426,0,0,0,235.907,128a5.049,5.049,0,0,0,3.9-1.725,5.457,5.457,0,0,0,1.568-3.779,5.943,5.943,0,0,0-1.49-3.858,5.018,5.018,0,0,0-4.014-1.772,5.191,5.191,0,0,0-4.077,1.772,5.818,5.818,0,0,0-1.552,3.811Z" transform="translate(124.457 60.06)"/>
      <path id="Path_29" data-name="Path 29" class="cls-1" d="M298.024,125.317a5.269,5.269,0,0,1,3.136-2.556,17.36,17.36,0,0,1,5.191-.659,18.991,18.991,0,0,1,5.018.549,8.154,8.154,0,0,1,2.838,1.3,4.7,4.7,0,0,1,1.364,2.305,17.013,17.013,0,0,1,.659,5.567V192.4a30.958,30.958,0,0,1-.172,3.826,8.907,8.907,0,0,1-1.035,2.838q-1.568,2.948-8.515,2.948a17.923,17.923,0,0,1-5.9-.659,6.35,6.35,0,0,1-2.729-2.07q-24.572-32.742-32.334-42.841v35.91a31.717,31.717,0,0,1-.157,3.826,8.906,8.906,0,0,1-1.035,2.838q-1.568,2.948-8.515,2.948t-8.3-2.948a8.5,8.5,0,0,1-1.051-2.948,37.61,37.61,0,0,1-.157-3.826v-60.89a13.393,13.393,0,0,1,1.035-6.069,5.175,5.175,0,0,1,3.136-2.556,22.393,22.393,0,0,1,10.522,0,6.884,6.884,0,0,1,2.681,1.364,31.356,31.356,0,0,1,2.509,2.838q23.036,31.362,30.782,41.382v-36.96a13.391,13.391,0,0,1,1.019-6.037Z" transform="translate(139.945 69.364)"/>
      <path id="Path_30" data-name="Path 30" class="cls-1" d="M314.422,135.449a4.7,4.7,0,0,1-2.9,2.242,23.4,23.4,0,0,1-10.977,0,4.7,4.7,0,0,1-2.9-2.289,9.675,9.675,0,0,1-.972-2.9,41.147,41.147,0,0,1,0-7.527,9.141,9.141,0,0,1,.925-2.776c1.019-1.976,3.858-2.948,8.515-2.948s7.354.972,8.3,2.948a8.736,8.736,0,0,1,1.035,2.885,41.139,41.139,0,0,1,0,7.527,8.97,8.97,0,0,1-1.019,2.838Zm-17.971,20.26a31.026,31.026,0,0,1,.173-3.763,10.364,10.364,0,0,1,.925-2.9q1.568-2.838,8.515-2.838c3.5,0,5.974.627,7.417,1.85a6.053,6.053,0,0,1,1.976,4.7c0,.721.11,1.788.11,3.136v38.23a31.485,31.485,0,0,1-.173,3.779,8.857,8.857,0,0,1-1.035,2.885q-1.411,2.838-8.4,2.838t-8.4-2.948a10.534,10.534,0,0,1-.925-2.838,30.951,30.951,0,0,1-.172-3.826Z" transform="translate(168.426 67.747)"/>
      <path id="Path_31" data-name="Path 31" class="cls-1" d="M346.185,146.1a23.114,23.114,0,0,1,18.19,8.358,30,30,0,0,1,7.245,20.385v19.209a32.231,32.231,0,0,1-.157,3.779,9.142,9.142,0,0,1-.925,2.776q-1.568,2.948-8.515,2.948-7.762,0-8.954-4.046a17.607,17.607,0,0,1-.659-5.567V174.7a9.3,9.3,0,0,0-2.556-6.978,10.6,10.6,0,0,0-13.862.11,9.158,9.158,0,0,0-2.681,6.868v19.319a32.237,32.237,0,0,1-.157,3.779,7.842,7.842,0,0,1-1.051,2.776q-1.411,2.948-8.4,2.948t-8.4-2.948a10.441,10.441,0,0,1-.925-2.885,32.223,32.223,0,0,1-.157-3.779V155.275a30.539,30.539,0,0,1,.157-3.654,7.839,7.839,0,0,1,1.035-2.791q1.568-2.729,8.4-2.729c4.438,0,7.166.847,8.185,2.509a8.609,8.609,0,0,1,1.1,4.485,11.305,11.305,0,0,1,1.96-2.2A19.6,19.6,0,0,1,338,148.61a14.4,14.4,0,0,1,8.186-2.509Zm14.96-25.215q3.928,2.729,3.936,5.237a5.551,5.551,0,0,1-.878,2.948,22.814,22.814,0,0,0-1.192,2.023,19.2,19.2,0,0,1-1.568,2.133,16.039,16.039,0,0,1-2.728,2.729,14.113,14.113,0,0,1-8.4,3.058,13.3,13.3,0,0,1-6.712-1.427,23.724,23.724,0,0,1-4.046-2.838A4.469,4.469,0,0,0,337,133.337a3.92,3.92,0,0,0-2.838,1.3c-1.678,2.917-3.23,4.375-4.7,4.375a8.562,8.562,0,0,1-5.128-2.619c-2.007-1.756-3.011-3.136-3.011-4.312a5.9,5.9,0,0,1,.878-3.136,22.835,22.835,0,0,0,1.192-2.023,17.252,17.252,0,0,1,1.568-2.07,19.51,19.51,0,0,1,2.791-2.666,14.944,14.944,0,0,1,15.179-1.568,22.88,22.88,0,0,1,3.92,2.728,4.344,4.344,0,0,0,2.509,1.364,3.513,3.513,0,0,0,2.838-1.317c1.568-2.76,3.136-4.14,4.924-4.14a7.119,7.119,0,0,1,4.03,1.631Z" transform="translate(178.516 67.742)"/>
      <path id="Path_32" data-name="Path 32" class="cls-1" d="M364.55,144.073a29.987,29.987,0,0,1,46.181,37.635,29.512,29.512,0,0,1-11.416,10.365,30.861,30.861,0,0,1-13.925,3.34,29.794,29.794,0,0,1-13.972-3.56,30.859,30.859,0,0,1-11.4-10.475,27.583,27.583,0,0,1-4.7-15.681,28.226,28.226,0,0,1,9.232-21.624Zm13.643,29.418a11.526,11.526,0,0,0,7.088,2.666,11.886,11.886,0,0,0,7.213-2.729,10.977,10.977,0,0,0,.22-16.042,11.745,11.745,0,0,0-7.323-2.619,11.416,11.416,0,0,0-7.307,2.729,9.707,9.707,0,0,0-3.387,8.029,9.409,9.409,0,0,0,3.5,7.919Z" transform="translate(201.863 77.031)"/>
      <path id="Path_33" data-name="Path 33" class="cls-1" d="M399.194,189.162a4.563,4.563,0,0,1-2.07-4.155c0-1.882,1.38-4.7,4.14-8.625a4.281,4.281,0,0,1,3.889-1.85A15.963,15.963,0,0,1,412.4,177.2a16.826,16.826,0,0,0,8.311,2.681c4.438,0,6.649-.878,6.649-2.619q0-2.07-7.307-3.058a35.736,35.736,0,0,1-13.7-5.1,14.709,14.709,0,0,1-5.253-6.178,22.314,22.314,0,0,1-2.07-9.989q0-17.249,23.694-17.249a38.4,38.4,0,0,1,15.995,3.622c2.556,1.16,3.826,2.619,3.826,4.375a12.857,12.857,0,0,1-2.4,6.429c-1.568,2.556-3.246,3.826-4.924,3.826a14.9,14.9,0,0,1-4.845-1.568,18.1,18.1,0,0,0-7.7-1.647q-6.445,0-6.445,2.4c0,2.2,2.478,3.607,7.433,4.265a40.771,40.771,0,0,1,13.972,4.14,12.545,12.545,0,0,1,5.284,5.3,18.817,18.817,0,0,1,2.133,9.409,20.117,20.117,0,0,1-2.133,9.66,13.8,13.8,0,0,1-5.943,5.959,40.08,40.08,0,0,1-17.516,3.387,37.493,37.493,0,0,1-20.26-6.084Z" transform="translate(225.615 77.087)"/>
      <path id="Path_34" data-name="Path 34" class="cls-2" d="M13.27,43.713h23.1a20.964,20.964,0,0,1,2.587.11,6.273,6.273,0,0,1,1.991.706c1.349.706,2.023,2.65,2.023,5.849,0,3.513-.925,5.551-2.776,6.163a12.545,12.545,0,0,1-3.889.439H6.606c-3.466,0-5.551-.941-6.147-2.838A11.871,11.871,0,0,1,0,50.315V8.619C0,6.063.47,4.319,1.427,3.4S4.175,2,6.826,2H36.369a20.965,20.965,0,0,1,2.587.11,6.273,6.273,0,0,1,1.991.706c1.4.753,2.023,2.666,2.023,5.865,0,3.513-.925,5.551-2.776,6.163a12.545,12.545,0,0,1-3.889.439H13.27v7.574H28.12a20.275,20.275,0,0,1,2.587.125,5.551,5.551,0,0,1,1.991.706c1.349.706,2.023,2.65,2.023,5.849,0,3.5-.941,5.551-2.854,6.147a12.545,12.545,0,0,1-3.889.455H13.27Z" transform="translate(0.008 1.135)"/>
      <path id="Path_35" data-name="Path 35" class="cls-2" d="M30.511,6.6a21.141,21.141,0,0,1,.11-2.587,7.261,7.261,0,0,1,.659-1.992C31.954.674,33.914,0,37.113,0s4.955.674,5.692,2.023a5.975,5.975,0,0,1,.721,2.023,22.2,22.2,0,0,1,.11,2.634V41.4a7.84,7.84,0,0,0,.455,3.4c.3.486.957.721,1.976.721a11.73,11.73,0,0,1,2.07.11,3.7,3.7,0,0,1,1.27.643q1.568.957,1.568,5.316c0,3.136-.5,5.081-1.568,5.771-1.3.91-4.391,1.051-9.3.455-3.842-.5-6.351-1.772-7.5-3.826q-2.086-3.669-2.1-11.651Z" transform="translate(17.344)"/>
      <path id="Path_36" data-name="Path 36" class="cls-2" d="M98.833,13.118a19.789,19.789,0,0,1,1.944,8.844,19.6,19.6,0,0,1-1.944,8.813,17.469,17.469,0,0,1-5.018,6.272,20.919,20.919,0,0,1-12.906,4.8H71.5V50.33a21.309,21.309,0,0,1-.11,2.587,6.178,6.178,0,0,1-.706,1.976c-.706,1.349-2.65,2.039-5.849,2.039-3.513,0-5.551-.925-6.163-2.776a12.733,12.733,0,0,1-.439-3.9V8.617a20.963,20.963,0,0,1,.11-2.587,6.272,6.272,0,0,1,.706-1.992C59.787,2.69,61.731,2,64.93,2H80.988A20.84,20.84,0,0,1,93.815,6.8a17.39,17.39,0,0,1,5.018,6.318ZM85.41,26.917a5.88,5.88,0,0,0,2.258-4.955,5.959,5.959,0,0,0-2.18-4.987,7.26,7.26,0,0,0-4.5-1.694H71.579V28.564h9.409A7.307,7.307,0,0,0,85.41,26.917Z" transform="translate(33.089 1.136)"/>
      <path id="Path_37" data-name="Path 37" class="cls-2" d="M125.54,27.2a9.111,9.111,0,0,1-2.289,6.821,7.135,7.135,0,0,1-5.065,2.211H100.419A4.14,4.14,0,0,0,102.9,39.76a9.91,9.91,0,0,0,4.94,1.427,20.385,20.385,0,0,0,6.837-.91l.815-.3a7.621,7.621,0,0,1,3.011-.815c1.568,0,2.964,1.113,4.124,3.371a8.342,8.342,0,0,1,.972,3.45q0,6.68-15.979,6.664a23.961,23.961,0,0,1-9.863-1.913,16.7,16.7,0,0,1-6.712-5.049,21.577,21.577,0,0,1-4.7-13.58A19.617,19.617,0,0,1,92.453,17a21.64,21.64,0,0,1,15.32-5.661q10.412,0,15.3,7.354A15.3,15.3,0,0,1,125.54,27.2Zm-15.822,2.211q2.85,0,2.854-2.4a3.387,3.387,0,0,0-1.317-2.776,5.833,5.833,0,0,0-3.748-1.051,7.558,7.558,0,0,0-4.845,1.991,5.551,5.551,0,0,0-2.4,4.234Z" transform="translate(49.05 6.432)"/>
      <path id="Path_38" data-name="Path 38" class="cls-2" d="M139.763,15.831c.3-2.634,2.242-3.967,5.849-3.967a14.458,14.458,0,0,1,4.2.455,3.136,3.136,0,0,1,1.9,1.568,6.271,6.271,0,0,1,.69,1.913,23.635,23.635,0,0,1,.11,2.54V62.106a24,24,0,0,1-.11,2.556,5.724,5.724,0,0,1-.69,1.866,3.136,3.136,0,0,1-1.945,1.568,12.545,12.545,0,0,1-3.716.455,12.059,12.059,0,0,1-3.669-.455,3.136,3.136,0,0,1-1.913-1.568,6.116,6.116,0,0,1-.674-1.913,20.24,20.24,0,0,1-.11-2.556V46.88a10.632,10.632,0,0,1-8.468,3.45,16.183,16.183,0,0,1-12.074-5.771,19.272,19.272,0,0,1,0-26.846q5.488-5.755,11.588-5.771T139.763,15.831ZM128.473,35.6a6.273,6.273,0,0,0,4.61,1.944,5.849,5.849,0,0,0,4.5-1.944,6.273,6.273,0,0,0,1.8-4.359,6.821,6.821,0,0,0-1.694-4.422,5.708,5.708,0,0,0-4.7-2.054,6.037,6.037,0,0,0-4.7,1.976,6.492,6.492,0,0,0-1.8,4.469,6.178,6.178,0,0,0,1.991,4.391Z" transform="translate(64.605 6.734)"/>
      <path id="Path_39" data-name="Path 39" class="cls-2" d="M159.814,51.322a15.932,15.932,0,0,1-12.545-5.739A20.574,20.574,0,0,1,142.283,31.6V18.4a24.721,24.721,0,0,1,.11-2.619,7.435,7.435,0,0,1,.643-1.96c.706-1.349,2.65-2.023,5.849-2.023,3.5,0,5.551.957,6.147,2.854a11.808,11.808,0,0,1,.455,3.826V31.6a6.382,6.382,0,0,0,1.756,4.8,6.508,6.508,0,0,0,4.7,1.725,6.586,6.586,0,0,0,4.8-1.8,6.272,6.272,0,0,0,1.835-4.7V18.392a21.3,21.3,0,0,1,.11-2.587,6.178,6.178,0,0,1,.706-1.976c.659-1.3,2.587-1.96,5.786-1.96s5.065.674,5.771,2.023a7.26,7.26,0,0,1,.643,1.991,25.091,25.091,0,0,1,.11,2.587V45.05a23.877,23.877,0,0,1-.11,2.509,5.19,5.19,0,0,1-.721,1.913c-.753,1.3-2.666,1.96-5.771,1.96s-4.924-.612-5.63-1.8a5.959,5.959,0,0,1-.753-3.136,7.04,7.04,0,0,1-1.349,1.568,16.609,16.609,0,0,1-2.007,1.568A10,10,0,0,1,159.814,51.322Z" transform="translate(80.84 6.698)"/>
      <path id="Path_40" data-name="Path 40" class="cls-2" d="M209.76,27.2a9.111,9.111,0,0,1-2.289,6.821,7.135,7.135,0,0,1-5.065,2.211H184.639A4.124,4.124,0,0,0,187.1,39.76a10,10,0,0,0,4.955,1.427,20.276,20.276,0,0,0,6.821-.91l.831-.3a7.5,7.5,0,0,1,3-.815c1.568,0,2.979,1.113,4.124,3.371a8.107,8.107,0,0,1,.972,3.45q0,6.68-15.963,6.664a23.914,23.914,0,0,1-9.863-1.913,16.591,16.591,0,0,1-6.712-5.049,21.577,21.577,0,0,1-4.7-13.58,19.6,19.6,0,0,1,6.1-15.117,21.64,21.64,0,0,1,15.258-5.661q10.444,0,15.3,7.354a15.32,15.32,0,0,1,2.54,8.515Zm-15.822,2.211c1.9,0,2.838-.8,2.838-2.4a3.418,3.418,0,0,0-1.3-2.776,5.865,5.865,0,0,0-3.748-1.051,7.558,7.558,0,0,0-4.783,1.991,5.551,5.551,0,0,0-2.4,4.234Z" transform="translate(96.896 6.433)"/>
      <path id="Path_41" data-name="Path 41" class="cls-2" d="M220.607,18.548a15.838,15.838,0,0,1,12.545,5.739,20.573,20.573,0,0,1,4.987,13.988V51.462a20.97,20.97,0,0,1-.11,2.587,6.273,6.273,0,0,1-.643,1.913c-.69,1.349-2.65,2.039-5.849,2.039-3.544,0-5.6-.925-6.147-2.776a12.343,12.343,0,0,1-.455-3.826V38.2a6.382,6.382,0,0,0-1.756-4.8,7.307,7.307,0,0,0-9.518.078,6.272,6.272,0,0,0-1.85,4.7V51.447a20.975,20.975,0,0,1-.094,2.6,5.427,5.427,0,0,1-.706,1.913c-.659,1.351-2.572,2.04-5.771,2.04s-5.081-.69-5.786-2.039a6.586,6.586,0,0,1-.627-1.976A20.64,20.64,0,0,1,198.7,51.4V24.852a19.559,19.559,0,0,1,.125-2.509,5.128,5.128,0,0,1,.706-1.913c.706-1.254,2.619-1.882,5.771-1.882s4.924.58,5.63,1.725a5.959,5.959,0,0,1,.753,3.136,7.951,7.951,0,0,1,1.349-1.568,14.788,14.788,0,0,1,2.023-1.568,9.848,9.848,0,0,1,5.551-1.725ZM230.878,1.3c1.8,1.254,2.7,2.462,2.7,3.607a3.873,3.873,0,0,1-.6,2.023c-.408.643-.674,1.113-.831,1.38A11.941,11.941,0,0,1,231.1,9.782a11.664,11.664,0,0,1-1.866,1.866,9.628,9.628,0,0,1-5.786,2.1,9.409,9.409,0,0,1-4.61-.972,17.69,17.69,0,0,1-2.776-1.944,3.01,3.01,0,0,0-1.756-.988,2.728,2.728,0,0,0-1.944.909c-1.16,1.992-2.211,3-3.136,3a5.818,5.818,0,0,1-3.513-1.8q-2.07-1.788-2.07-2.964a4.093,4.093,0,0,1,.6-2.133c.408-.643.674-1.113.831-1.38a11.5,11.5,0,0,1,1.082-1.427,14.115,14.115,0,0,1,1.913-1.835,9.691,9.691,0,0,1,5.724-2.1,9.409,9.409,0,0,1,4.7.925,15.416,15.416,0,0,1,2.634,1.882,3,3,0,0,0,1.725.941,2.415,2.415,0,0,0,1.96-.909c1.019-1.9,2.164-2.838,3.371-2.838a4.892,4.892,0,0,1,2.7,1.113Z" transform="translate(112.894 0.05)"/>
      <path id="Path_42" data-name="Path 42" class="cls-2" d="M233.183,17.11a20.605,20.605,0,0,1,28.712,0,19.366,19.366,0,0,1,6.272,14.819,19.4,19.4,0,0,1-3.23,10.977,20.1,20.1,0,0,1-7.84,7.119,21.154,21.154,0,0,1-9.565,2.289,20.386,20.386,0,0,1-9.55-2.368,21.42,21.42,0,0,1-7.841-7.2A18.974,18.974,0,0,1,227,31.991a19.351,19.351,0,0,1,6.183-14.881Zm9.409,20.2a7.841,7.841,0,0,0,4.8,1.882,8.17,8.17,0,0,0,4.955-1.882,6.555,6.555,0,0,0,2.478-5.551,6.508,6.508,0,0,0-2.336-5.473,8.044,8.044,0,0,0-5.018-1.8,7.841,7.841,0,0,0-5.018,1.882,6.664,6.664,0,0,0-2.337,5.5,6.445,6.445,0,0,0,2.431,5.473Z" transform="translate(128.968 6.412)"/>
      <path id="Path_43" data-name="Path 43" class="cls-2" d="M281.7,45.9h20.385a8.562,8.562,0,0,1,3.607.565,2.885,2.885,0,0,1,1.49,1.772,10.976,10.976,0,0,1,.376,3.136,10.976,10.976,0,0,1-.376,3.136,2.588,2.588,0,0,1-1.27,1.568,8.468,8.468,0,0,1-3.9.753H275.037c-3.513,0-5.551-.941-6.147-2.838a11.448,11.448,0,0,1-.455-3.826V8.612a20.937,20.937,0,0,1,.11-2.587,6.273,6.273,0,0,1,.784-1.991c.706-1.349,2.65-2.023,5.849-2.023,3.513,0,5.582.925,6.272,2.776a14.8,14.8,0,0,1,.376,3.889Z" transform="translate(152.504 1.142)"/>
      <path id="Path_44" data-name="Path 44" class="cls-2" d="M308.843,11.234a3.215,3.215,0,0,1-1.992,1.568,13.109,13.109,0,0,1-3.8.439,13,13,0,0,1-3.779-.439,3.136,3.136,0,0,1-1.991-1.568,6.538,6.538,0,0,1-.674-1.976,21.3,21.3,0,0,1-.11-2.587,20.961,20.961,0,0,1,.11-2.587,5.848,5.848,0,0,1,.674-1.96C297.944.774,299.9.1,303.1.1s5.049.674,5.692,2.023a5.88,5.88,0,0,1,.721,1.976,21.32,21.32,0,0,1,.11,2.587,20.981,20.981,0,0,1-.11,2.666,6.071,6.071,0,0,1-.674,1.882ZM296.5,25.143a21.3,21.3,0,0,1,.11-2.587,6.76,6.76,0,0,1,.643-1.992c.69-1.3,2.65-1.944,5.849-1.944a7.95,7.95,0,0,1,5.1,1.27,4.14,4.14,0,0,1,1.349,3.23c0,.5.078,1.223.078,2.164v26.25a20.991,20.991,0,0,1-.11,2.587,5.961,5.961,0,0,1-.721,1.991c-.643,1.3-2.572,1.944-5.771,1.944s-5.081-.674-5.771-2.023a6.823,6.823,0,0,1-.643-1.944,21.171,21.171,0,0,1-.11-2.634Z" transform="translate(168.455 0.057)"/>
      <path id="Path_45" data-name="Path 45" class="cls-2" d="M330.378,18.619a16.622,16.622,0,0,1,12.247,5.927,19.711,19.711,0,0,1,0,27.473q-5.5,5.943-11.886,5.943c-4.25,0-7.26-1.207-9.064-3.607-.408,2.446-2.556,3.685-6.461,3.685-3.136,0-5.065-.69-5.771-2.039a6.588,6.588,0,0,1-.627-1.976,20.625,20.625,0,0,1-.125-2.587V6.623a20.277,20.277,0,0,1,.125-2.587,5.788,5.788,0,0,1,.627-1.913C310.149.774,312.094.1,315.293.1S320.342.774,321,2.123a6.178,6.178,0,0,1,.721,1.976,21.32,21.32,0,0,1,.11,2.587V22.367a10.443,10.443,0,0,1,8.547-3.748Zm-6.57,24.212a5.928,5.928,0,0,0,4.61,2.039,6.842,6.842,0,0,0,6.664-6.523,6.728,6.728,0,0,0-1.8-4.547,6.084,6.084,0,0,0-4.8-2.054,5.865,5.865,0,0,0-4.7,2.1,6.884,6.884,0,0,0-1.756,4.532,6.476,6.476,0,0,0,1.788,4.453Z" transform="translate(175.381 0.057)"/>
      <path id="Path_46" data-name="Path 46" class="cls-2" d="M363.857,12.452a5.1,5.1,0,0,1,2.352,1.568,5.253,5.253,0,0,1,.941,3.481,11.791,11.791,0,0,1-1.427,5.253,4.469,4.469,0,0,1-4.124,2.854A5.8,5.8,0,0,1,359.012,25a7.62,7.62,0,0,0-3.261-.6,5.833,5.833,0,0,0-3.779,1.427,4.312,4.312,0,0,0-1.772,3.45V44.959a20.961,20.961,0,0,1-.11,2.587,6.273,6.273,0,0,1-.706,1.991q-1.129,1.95-5.849,1.944a8.3,8.3,0,0,1-5.175-1.27,4.485,4.485,0,0,1-1.349-3.23V18.489a21.3,21.3,0,0,1,.11-2.587,5.91,5.91,0,0,1,.627-1.913c.706-1.349,2.65-2.023,5.849-2.023s4.877.58,5.629,1.725a4.344,4.344,0,0,1,.831,2.478,13.87,13.87,0,0,1,1.082-1.286,14.816,14.816,0,0,1,3.1-1.991,8.765,8.765,0,0,1,4.077-1.27,19.586,19.586,0,0,1,2.964.188,18.815,18.815,0,0,1,2.572.643Z" transform="translate(191.469 6.601)"/>
      <path id="Path_47" data-name="Path 47" class="cls-2" d="M362.978,17.1a20.605,20.605,0,0,1,28.649,0A19.366,19.366,0,0,1,397.9,31.918a19.491,19.491,0,0,1-3.215,10.977,20.244,20.244,0,0,1-7.762,7.135,21.154,21.154,0,0,1-9.565,2.289,20.385,20.385,0,0,1-9.6-2.431,21.42,21.42,0,0,1-7.841-7.2,18.974,18.974,0,0,1-3.136-10.757,19.351,19.351,0,0,1,6.2-14.831Zm9.409,20.2a7.84,7.84,0,0,0,4.877,1.85,8.17,8.17,0,0,0,4.955-1.882,6.555,6.555,0,0,0,2.478-5.551,6.507,6.507,0,0,0-2.336-5.473,8.044,8.044,0,0,0-5.018-1.8,7.84,7.84,0,0,0-5.018,1.882,6.664,6.664,0,0,0-2.336,5.5,6.445,6.445,0,0,0,2.352,5.5Z" transform="translate(202.698 6.423)"/>
      <path id="Path_48" data-name="Path 48" class="cls-2" d="M100.311,43.51a4.7,4.7,0,0,1,2.9-2.274,23.4,23.4,0,0,1,10.977,0,4.7,4.7,0,0,1,2.9,2.289,9.674,9.674,0,0,1,.972,2.9,31.019,31.019,0,0,1,.173,3.763v65.2a31.017,31.017,0,0,1-.173,3.763,7.84,7.84,0,0,1-1.035,2.791q-1.568,2.948-9.22,2.948t-8.468-5.347a16.1,16.1,0,0,1-12.764,5.237q-9.832,0-17.908-8.578a28.728,28.728,0,0,1,0-40q8.264-8.625,17.955-8.625a15.32,15.32,0,0,1,12.545,5.457V50.112a31.021,31.021,0,0,1,.173-3.763,8.97,8.97,0,0,1,.973-2.839ZM82.576,102.832a9.174,9.174,0,0,0,6.9,2.948,8.672,8.672,0,0,0,6.711-2.948,9.409,9.409,0,0,0,2.7-6.492,10.067,10.067,0,0,0-2.556-6.6A8.593,8.593,0,0,0,89.4,86.6a8.86,8.86,0,0,0-6.994,3,9.9,9.9,0,0,0-2.619,6.617,9.189,9.189,0,0,0,2.791,6.617Z" transform="translate(34.417 23.056)"/>
      <path id="Path_49" data-name="Path 49" class="cls-2" d="M158.974,80.041q0,6.712-3.324,9.926a10.428,10.428,0,0,1-7.37,3.23H122.437q0,3.059,3.607,5.128a14.333,14.333,0,0,0,7.2,2.07,30.5,30.5,0,0,0,9.942-1.3l1.192-.439a11.071,11.071,0,0,1,4.375-1.207c2.321,0,4.328,1.568,6.006,4.908a12.138,12.138,0,0,1,1.411,5.034q0,9.722-23.255,9.707a35.173,35.173,0,0,1-14.348-2.776,24.384,24.384,0,0,1-9.769-7.37,31.362,31.362,0,0,1-6.884-19.758q0-13.752,8.891-21.954a31.362,31.362,0,0,1,22.189-8.233q15.164,0,22.267,10.694a22.22,22.22,0,0,1,3.716,12.341Zm-23.036,3.136c2.76,0,4.156-1.16,4.156-3.5a4.924,4.924,0,0,0-1.976-3.952,8.531,8.531,0,0,0-5.457-1.568,10.977,10.977,0,0,0-7.041,2.9,8.091,8.091,0,0,0-3.5,6.163Z" transform="translate(57.908 32.377)"/>
      <path id="Path_50" data-name="Path 50" class="cls-2" d="M202.969,46.678a5.206,5.206,0,0,1,3.136-2.572,17.893,17.893,0,0,1,5.175-.643,18.283,18.283,0,0,1,5.018.549,8.107,8.107,0,0,1,2.854,1.3A4.454,4.454,0,0,1,220.5,47.6a17.093,17.093,0,0,1,.659,5.567v60.592a31.918,31.918,0,0,1-.157,3.826,8.907,8.907,0,0,1-1.035,2.838q-1.568,2.948-8.515,2.948a17.861,17.861,0,0,1-5.9-.659,6.351,6.351,0,0,1-2.729-2.07Q178.251,87.869,170.5,77.848v35.91a31.919,31.919,0,0,1-.157,3.826,8.625,8.625,0,0,1-1.051,2.838q-1.568,2.948-8.515,2.948c-4.5,0-7.276-.988-8.3-2.948a8.892,8.892,0,0,1-1.035-2.948,33.526,33.526,0,0,1-.157-3.826V52.73a13.312,13.312,0,0,1,1.035-6.053A5.222,5.222,0,0,1,155.46,44.1a18.645,18.645,0,0,1,5.347-.643,18.19,18.19,0,0,1,5.19.6,6.79,6.79,0,0,1,2.681,1.364,29.054,29.054,0,0,1,2.509,2.838q23.036,31.362,30.782,41.367V52.73a13.313,13.313,0,0,1,.988-6.053Z" transform="translate(85.951 24.687)"/>
      <path id="Path_51" data-name="Path 51" class="cls-2" d="M257.438,80.041q0,6.712-3.34,9.926a10.365,10.365,0,0,1-7.37,3.23H220.87c0,2.039,1.192,3.748,3.591,5.128a14.332,14.332,0,0,0,7.213,2.07,30.327,30.327,0,0,0,9.926-1.3l1.207-.439a10.977,10.977,0,0,1,4.359-1.207c2.336,0,4.328,1.568,6.006,4.908a12.2,12.2,0,0,1,1.427,5.034q0,9.722-23.255,9.707a35.189,35.189,0,0,1-14.317-2.776,24.494,24.494,0,0,1-9.769-7.37,31.362,31.362,0,0,1-6.868-19.758q0-13.752,8.891-21.954a31.362,31.362,0,0,1,22.173-8.233q15.179,0,22.267,10.694a22.22,22.22,0,0,1,3.716,12.341ZM234.4,83.177c2.76,0,4.14-1.16,4.14-3.5a4.892,4.892,0,0,0-1.913-4.03,8.531,8.531,0,0,0-5.488-1.4,10.977,10.977,0,0,0-7.041,2.9,8.123,8.123,0,0,0-3.481,6.163Z" transform="translate(113.855 32.377)"/>
      <path id="Path_52" data-name="Path 52" class="cls-2" d="M278.352,108.126q-4.14,5.457-13.2,5.457t-16.983-8.311a27.959,27.959,0,0,1,0-39.03q7.966-8.4,17.469-8.4A16.371,16.371,0,0,1,272.4,59.2a11.682,11.682,0,0,1,6.006,4.7,6.68,6.68,0,0,1,2.242-4.7,9.644,9.644,0,0,1,6.163-1.568,21.263,21.263,0,0,1,6.272.659,4.611,4.611,0,0,1,2.791,2.227,8.877,8.877,0,0,1,.972,2.791,29.8,29.8,0,0,1,.172,3.716v45.146a25.7,25.7,0,0,1-8.734,20.244,28.994,28.994,0,0,1-19.648,7.7,33.056,33.056,0,0,1-15.838-4.046c-5.018-2.681-7.527-5.128-7.527-7.307a10.349,10.349,0,0,1,3.277-7.527,26.061,26.061,0,0,1,3.215-3.136,4.234,4.234,0,0,1,2.681-.878,5.128,5.128,0,0,1,3.136,1.317,18.253,18.253,0,0,0,11.4,3.983,8.217,8.217,0,0,0,6.759-3.277,12.122,12.122,0,0,0,2.619-7.841ZM258.923,85.812a8.891,8.891,0,0,0,2.791,6.382,9.079,9.079,0,0,0,6.759,2.838,8.515,8.515,0,0,0,6.6-2.9,9.2,9.2,0,0,0,2.634-6.272,9.832,9.832,0,0,0-2.525-6.445,8.327,8.327,0,0,0-6.759-3.011,8.8,8.8,0,0,0-6.884,2.948,9.628,9.628,0,0,0-2.619,6.461Z" transform="translate(136.488 32.721)"/>
      <path id="Path_53" data-name="Path 53" class="cls-2" d="M290.169,65.4a29.935,29.935,0,0,1,20.966-8.515,29.622,29.622,0,0,1,20.84,8.468,28.226,28.226,0,0,1,9.064,21.5,28.461,28.461,0,0,1-4.7,16.1,29.527,29.527,0,0,1-11.384,10.428,30.814,30.814,0,0,1-13.925,3.262,29.637,29.637,0,0,1-13.972-3.544,31.049,31.049,0,0,1-11.416-10.475,27.583,27.583,0,0,1-4.7-15.681A28.226,28.226,0,0,1,290.169,65.4Zm13.643,29.418a11.62,11.62,0,0,0,7.1,2.681,11.886,11.886,0,0,0,7.2-2.729,9.518,9.518,0,0,0,3.607-8.076,9.409,9.409,0,0,0-3.387-7.966,11.636,11.636,0,0,0-7.307-2.619,11.463,11.463,0,0,0-7.323,2.728,9.675,9.675,0,0,0-3.387,8.013,9.409,9.409,0,0,0,3.5,7.966Z" transform="translate(159.608 32.32)"/>
      <path id="Path_54" data-name="Path 54" class="cls-2" d="M342.389,86.739a8.891,8.891,0,0,0,3.136,7.213,9.942,9.942,0,0,0,6.492,2.556,11.369,11.369,0,0,0,6.367-2.039,9.612,9.612,0,0,1,4.861-2.023c2.18,0,4.845,1.929,7.966,5.786a9.518,9.518,0,0,1,2.509,5.677c0,2.76-1.991,5.347-6.006,7.746a25.858,25.858,0,0,1-15.273,4.359,31.362,31.362,0,0,1-19.539-7.307,26.046,26.046,0,0,1-7.323-9.33,29.213,29.213,0,0,1-2.838-12.89,28.476,28.476,0,0,1,2.838-12.764A26.046,26.046,0,0,1,332.9,64.5a30.468,30.468,0,0,1,19.319-7.213,28.556,28.556,0,0,1,8.076,1.145,26.769,26.769,0,0,1,5.786,2.242l1.741,1.082c1.317.878,2.336,1.568,3.058,2.086a6.272,6.272,0,0,1,2.838,4.971,11.745,11.745,0,0,1-2.289,6.272q-3.936,5.99-7.527,6.006a12.639,12.639,0,0,1-5.9-2.305,7.841,7.841,0,0,0-5.629-1.866,10.553,10.553,0,0,0-6.821,2.619,8.954,8.954,0,0,0-3.168,7.2Z" transform="translate(183.363 32.547)"/>
      <path id="Path_55" data-name="Path 55" class="cls-2" d="M377.737,56.814a4.7,4.7,0,0,1-2.885,2.242,24.024,24.024,0,0,1-10.977,0,4.61,4.61,0,0,1-2.885-2.289,9.407,9.407,0,0,1-.988-2.9,31.73,31.73,0,0,1-.157-3.763A31.737,31.737,0,0,1,360,46.339a9.078,9.078,0,0,1,.925-2.791q1.568-2.932,8.515-2.948c4.6,0,7.354.988,8.311,2.948a8.8,8.8,0,0,1,1.035,2.9,31.73,31.73,0,0,1,.157,3.763,31.75,31.75,0,0,1-.157,3.763,8.781,8.781,0,0,1-1.051,2.838ZM359.782,77.059a32.111,32.111,0,0,1,.157-3.763,10.288,10.288,0,0,1,.925-2.885q1.568-2.838,8.515-2.838,5.25,0,7.433,1.85a6.037,6.037,0,0,1,1.96,4.7c.078.737.11,1.788.11,3.136v38.23a31.73,31.73,0,0,1-.157,3.763,8.8,8.8,0,0,1-1.035,2.9c-.956,1.882-3.763,2.838-8.421,2.838s-7.386-.988-8.4-2.948a10.535,10.535,0,0,1-.925-2.838,31.9,31.9,0,0,1-.157-3.826Z" transform="translate(204.404 23.065)"/>
      <path id="Path_56" data-name="Path 56" class="cls-2" d="M385.673,65.4a30,30,0,0,1,41.821,0,28.226,28.226,0,0,1,9.064,21.452,28.351,28.351,0,0,1-4.7,16.1,29.481,29.481,0,0,1-11.4,10.365,30.939,30.939,0,0,1-13.925,3.324,29.794,29.794,0,0,1-13.972-3.544,31,31,0,0,1-11.4-10.475,27.457,27.457,0,0,1-4.7-15.681A28.226,28.226,0,0,1,385.673,65.4Zm13.6,29.418a11.541,11.541,0,0,0,7.088,2.681,11.965,11.965,0,0,0,7.213-2.729,9.5,9.5,0,0,0,3.591-8.076,9.409,9.409,0,0,0-3.371-7.966,11.683,11.683,0,0,0-7.323-2.619,11.416,11.416,0,0,0-7.2,2.729,9.675,9.675,0,0,0-3.434,8.013,9.409,9.409,0,0,0,3.434,7.966Z" transform="translate(213.874 32.329)"/>
      <path id="Path_57" data-name="Path 57" class="cls-2" d="M420.334,110.535a4.516,4.516,0,0,1-2.07-4.14q0-2.838,4.14-8.625a4.25,4.25,0,0,1,3.873-1.85,15.822,15.822,0,0,1,7.26,2.666,16.779,16.779,0,0,0,8.3,2.681q6.657,0,6.664-2.619,0-2.1-7.323-3.136a35.706,35.706,0,0,1-13.643-5.143,14.537,14.537,0,0,1-5.237-6.163,22.362,22.362,0,0,1-2.07-9.957Q420.225,57,443.919,57a38.418,38.418,0,0,1,15.932,3.716c2.54,1.16,3.826,2.619,3.826,4.359a12.749,12.749,0,0,1-2.415,6.445c-1.568,2.556-3.23,3.826-4.908,3.826a14.709,14.709,0,0,1-4.861-1.568,18.2,18.2,0,0,0-7.684-1.568q-6.445,0-6.445,2.4,0,3.262,7.417,4.265a40.347,40.347,0,0,1,13.972,4.14,12.4,12.4,0,0,1,5.3,5.3,19.069,19.069,0,0,1,2.133,9.409,20.386,20.386,0,0,1-2.133,9.66,13.768,13.768,0,0,1-5.943,5.943,40.112,40.112,0,0,1-17.531,3.262,37.446,37.446,0,0,1-20.244-6.053Z" transform="translate(237.625 32.382)"/>
      <path id="Path_58" data-name="Path 58" class="cls-2" d="M149.611,143.359V106.2a17.984,17.984,0,0,1,.094-2.164,5.158,5.158,0,0,1,.533-1.568c.6-1.145,2.023-1.709,4.265-1.709a8.264,8.264,0,0,1,4.547.862,3.418,3.418,0,0,1,1.364,2.509,8.781,8.781,0,0,1,7.6-3.309,13.533,13.533,0,0,1,9.832,4.892,16.308,16.308,0,0,1,0,22.785,13.5,13.5,0,0,1-9.832,4.908c-3.466,0-5.99-.988-7.558-2.932v12.859a14.657,14.657,0,0,1-.11,2.164,5.252,5.252,0,0,1-.564,1.568,2.666,2.666,0,0,1-1.568,1.3,10.178,10.178,0,0,1-3.136.392,10.6,10.6,0,0,1-3.136-.392,2.744,2.744,0,0,1-1.662-1.27,4.971,4.971,0,0,1-.565-1.568A17.987,17.987,0,0,1,149.611,143.359Zm12.545-29.982a5.692,5.692,0,0,0-1.458,3.763,5.5,5.5,0,0,0,1.49,3.716,4.893,4.893,0,0,0,3.826,1.694,5.285,5.285,0,0,0,3.936-1.662,5.222,5.222,0,0,0,1.568-3.748,5.535,5.535,0,0,0-1.568-3.795,5.128,5.128,0,0,0-3.967-1.678,4.893,4.893,0,0,0-3.779,1.709Z" transform="translate(85.006 57.217)"/>
      <path id="Path_59" data-name="Path 59" class="cls-2" d="M195.344,104.3c.251-2.368,1.929-3.56,5.034-3.56a13.312,13.312,0,0,1,3.685.376,2.7,2.7,0,0,1,1.694,1.333,5.615,5.615,0,0,1,.565,1.694,18.82,18.82,0,0,1,.094,2.2V128.6a18.823,18.823,0,0,1-.094,2.2,5.911,5.911,0,0,1-.533,1.694c-.6,1.1-2.054,1.568-4.359,1.568a8.468,8.468,0,0,1-4.7-.862,3.356,3.356,0,0,1-1.38-2.509c-1.568,2.258-4.187,3.371-7.84,3.371a13.894,13.894,0,0,1-10.208-5.018,16.59,16.59,0,0,1-4.7-11.682,16.387,16.387,0,0,1,4.7-11.651,14.113,14.113,0,0,1,10.4-4.987,9.816,9.816,0,0,1,3.952.768,7.056,7.056,0,0,1,3.69,2.808Zm-11.573,13.23a5.332,5.332,0,0,0,1.647,3.795A5.441,5.441,0,0,0,189.432,123a5.034,5.034,0,0,0,3.9-1.709A5.519,5.519,0,0,0,194.9,117.5a5.8,5.8,0,0,0-1.568-3.842,4.924,4.924,0,0,0-4-1.788,5.143,5.143,0,0,0-4.077,1.788,5.755,5.755,0,0,0-1.49,3.858Z" transform="translate(98.062 57.22)"/>
      <path id="Path_60" data-name="Path 60" class="cls-2" d="M220.2,101.251a4.218,4.218,0,0,1,1.992,1.3,4.5,4.5,0,0,1,.8,2.964,9.927,9.927,0,0,1-1.207,4.453,3.779,3.779,0,0,1-3.5,2.415,4.892,4.892,0,0,1-2.2-.5,6.351,6.351,0,0,0-2.776-.517,5,5,0,0,0-3.215,1.223,3.638,3.638,0,0,0-1.49,2.917v13.36a18.573,18.573,0,0,1-.094,2.2,5.079,5.079,0,0,1-.612,1.694c-.627,1.1-2.289,1.568-4.955,1.568a7.025,7.025,0,0,1-4.391-1.082,3.779,3.779,0,0,1-1.145-2.729v-24.17a18.827,18.827,0,0,1,.094-2.2,5.253,5.253,0,0,1,.549-1.568c.58-1.145,2.242-1.709,4.955-1.709s4.14.486,4.7,1.458a3.638,3.638,0,0,1,.706,2.1,10.851,10.851,0,0,1,.925-1.082,12.371,12.371,0,0,1,2.572-1.725,7.605,7.605,0,0,1,3.466-1.066,16.42,16.42,0,0,1,2.525.157,14.584,14.584,0,0,1,2.289.533Z" transform="translate(112.161 57.128)"/>
      <path id="Path_61" data-name="Path 61" class="cls-2" d="M236.854,104.3c.267-2.368,1.944-3.56,5.034-3.56a13.25,13.25,0,0,1,3.685.376,2.666,2.666,0,0,1,1.694,1.333,5.614,5.614,0,0,1,.565,1.694,18.039,18.039,0,0,1,.11,2.2V128.6a18.042,18.042,0,0,1-.11,2.2,5.913,5.913,0,0,1-.533,1.694c-.6,1.1-2.054,1.568-4.359,1.568a8.468,8.468,0,0,1-4.7-.862,3.45,3.45,0,0,1-1.38-2.509c-1.568,2.258-4.187,3.371-7.841,3.371A13.893,13.893,0,0,1,218.8,129.04a16.575,16.575,0,0,1-4.7-11.682,16.371,16.371,0,0,1,4.7-11.651,14.113,14.113,0,0,1,10.412-4.987,9.785,9.785,0,0,1,3.936.768,8.138,8.138,0,0,1,2.478,1.427,8.4,8.4,0,0,1,1.228,1.385Zm-11.573,13.23a5.331,5.331,0,0,0,1.646,3.8A5.473,5.473,0,0,0,230.942,123a5.1,5.1,0,0,0,3.92-1.709,5.567,5.567,0,0,0,1.568-3.8,5.864,5.864,0,0,0-1.568-3.842,4.971,4.971,0,0,0-4.014-1.788,5.175,5.175,0,0,0-4.077,1.788,5.755,5.755,0,0,0-1.49,3.858Z" transform="translate(121.644 57.22)"/>
      <path id="Path_62" data-name="Path 62" class="cls-2" d="M293.069,120.373A5.159,5.159,0,0,1,296.2,117.8a17.422,17.422,0,0,1,5.19-.659,18.909,18.909,0,0,1,5.018.549,7.73,7.73,0,0,1,2.838,1.317,4.5,4.5,0,0,1,1.364,2.289,17.014,17.014,0,0,1,.659,5.567v60.623a30.811,30.811,0,0,1-.172,3.811,8.784,8.784,0,0,1-1.035,2.838c-1.019,1.976-3.858,2.948-8.515,2.948a17.924,17.924,0,0,1-5.9-.659,6.414,6.414,0,0,1-2.729-2.07q-24.557-32.742-32.319-42.794v35.925a31.6,31.6,0,0,1-.157,3.81,8.781,8.781,0,0,1-1.035,2.838c-1.019,1.976-3.858,2.948-8.515,2.948s-7.276-.972-8.3-2.948a8.656,8.656,0,0,1-1.035-2.948,32.469,32.469,0,0,1-.173-3.81v-60.95a13.312,13.312,0,0,1,1.035-6.053,5.237,5.237,0,0,1,3.136-2.572,18.05,18.05,0,0,1,5.347-.659,18.331,18.331,0,0,1,5.19.6,6.806,6.806,0,0,1,2.666,1.364,28.889,28.889,0,0,1,2.509,2.838q23.051,31.362,30.8,41.382v-36.9a13.312,13.312,0,0,1,.988-6.053Z" transform="translate(137.138 66.546)"/>
      <path id="Path_63" data-name="Path 63" class="cls-2" d="M309.535,130.5a4.7,4.7,0,0,1-2.9,2.227,23.4,23.4,0,0,1-10.977,0,4.563,4.563,0,0,1-2.885-2.289,9.407,9.407,0,0,1-.988-2.885,45.467,45.467,0,0,1,0-7.543,9.143,9.143,0,0,1,.925-2.776c1.019-1.976,3.857-2.948,8.515-2.948s7.354.972,8.3,2.948a8.389,8.389,0,0,1,1.035,2.885,41.317,41.317,0,0,1,0,7.543,8.467,8.467,0,0,1-1.025,2.838ZM291.5,150.748a31.724,31.724,0,0,1,.157-3.763,10.362,10.362,0,0,1,.925-2.9c1.019-1.882,3.857-2.838,8.515-2.838q5.25,0,7.433,1.866a6.053,6.053,0,0,1,1.96,4.7c.078.721.11,1.788.11,3.136v38.215a31.383,31.383,0,0,1-.172,3.763,8.388,8.388,0,0,1-1.035,2.885q-1.411,2.854-8.4,2.838c-4.579,0-7.386-.972-8.4-2.948a10.37,10.37,0,0,1-.925-2.838,31.612,31.612,0,0,1-.157-3.811Z" transform="translate(165.613 64.929)"/>
      <path id="Path_64" data-name="Path 64" class="cls-2" d="M341.23,141.137A23.1,23.1,0,0,1,359.4,149.5a30,30,0,0,1,7.26,20.385V189.11a31.383,31.383,0,0,1-.172,3.763,9.143,9.143,0,0,1-.925,2.776c-1.019,1.976-3.858,2.948-8.515,2.948q-7.841,0-8.954-4.03a17.749,17.749,0,0,1-.659-5.567V169.74a8.75,8.75,0,0,0-9.409-9.487,9.487,9.487,0,0,0-6.978,2.619,9.158,9.158,0,0,0-2.681,6.868v19.366a32.091,32.091,0,0,1-.157,3.763,7.84,7.84,0,0,1-1.035,2.776c-.957,1.976-3.763,2.948-8.421,2.948s-7.386-.972-8.4-2.948a10.286,10.286,0,0,1-.925-2.885,32.078,32.078,0,0,1-.157-3.763V150.311a30.508,30.508,0,0,1,.157-3.654,7.839,7.839,0,0,1,1.035-2.791q1.568-2.729,8.4-2.729c4.453,0,7.182.847,8.2,2.509a8.75,8.75,0,0,1,1.082,4.485,10.614,10.614,0,0,1,1.976-2.18,18.3,18.3,0,0,1,2.948-2.3A14.332,14.332,0,0,1,341.23,141.137Zm14.944-25.215c2.619,1.819,3.936,3.575,3.936,5.237a5.552,5.552,0,0,1-.878,2.948c-.58.957-.972,1.568-1.192,2.023a19.213,19.213,0,0,1-1.568,2.133,16.043,16.043,0,0,1-2.729,2.728,14.113,14.113,0,0,1-8.4,3.136,13.3,13.3,0,0,1-6.7-1.474,24.1,24.1,0,0,1-4.046-2.838,4.422,4.422,0,0,0-2.556-1.411,4,4,0,0,0-2.838,1.3c-1.678,2.917-3.23,4.375-4.7,4.375a8.562,8.562,0,0,1-5.128-2.619c-2.007-1.756-3.011-3.136-3.011-4.312a5.9,5.9,0,0,1,.878-3.136c.58-.941.988-1.568,1.207-2.007a13.378,13.378,0,0,1,1.568-2.086,19.424,19.424,0,0,1,2.776-2.666,14,14,0,0,1,8.405-2.948,13.847,13.847,0,0,1,6.774,1.364,22.877,22.877,0,0,1,3.92,2.729,4.344,4.344,0,0,0,2.509,1.364,3.481,3.481,0,0,0,2.838-1.317c1.568-2.76,3.136-4.14,4.924-4.14a7.245,7.245,0,0,1,4.014,1.615Z" transform="translate(175.709 64.928)"/>
      <path id="Path_65" data-name="Path 65" class="cls-2" d="M359.59,139.073a29.987,29.987,0,0,1,46.181,37.635,29.4,29.4,0,0,1-11.416,10.365,30.845,30.845,0,0,1-13.909,3.34,29.919,29.919,0,0,1-13.988-3.544,31.049,31.049,0,0,1-11.4-10.491,27.5,27.5,0,0,1-4.7-15.681,28.226,28.226,0,0,1,9.232-21.624Zm13.643,29.418a11.62,11.62,0,0,0,7.1,2.681,11.886,11.886,0,0,0,7.2-2.729,10.977,10.977,0,0,0,.22-16.057,11.729,11.729,0,0,0-7.307-2.619,11.463,11.463,0,0,0-7.323,2.729,9.707,9.707,0,0,0-3.387,8.029,9.409,9.409,0,0,0,3.5,7.982Z" transform="translate(199.045 74.19)"/>
      <path id="Path_66" data-name="Path 66" class="cls-2" d="M394.234,184.237a4.563,4.563,0,0,1-2.07-4.156q0-2.823,4.156-8.625a4.281,4.281,0,0,1,3.873-1.85,15.948,15.948,0,0,1,7.26,2.681,16.9,16.9,0,0,0,8.3,2.666c4.438,0,6.649-.878,6.649-2.619q0-2.07-7.307-3.136a35.831,35.831,0,0,1-13.643-5.128,14.521,14.521,0,0,1-5.237-6.163,22.19,22.19,0,0,1-2.086-9.989q0-17.249,23.694-17.249a38.716,38.716,0,0,1,15.948,3.7c2.54,1.176,3.81,2.619,3.81,4.375a12.952,12.952,0,0,1-2.4,6.445c-1.568,2.54-3.246,3.81-4.908,3.81a14.943,14.943,0,0,1-4.861-1.568,18.1,18.1,0,0,0-7.7-1.647c-4.3,0-6.445.815-6.445,2.415q0,3.262,7.433,4.25a40.772,40.772,0,0,1,13.972,4.155,12.325,12.325,0,0,1,5.284,5.285,18.818,18.818,0,0,1,2.133,9.409,20.229,20.229,0,0,1-2.133,9.675,13.847,13.847,0,0,1-5.943,5.943A40.035,40.035,0,0,1,414.5,190.3a37.494,37.494,0,0,1-20.26-6.069Z" transform="translate(222.797 74.235)"/>
    </g>
  </g>
</svg>
