<svg id="Group_2983" data-name="Group 2983" xmlns="http://www.w3.org/2000/svg" viewBox="6834 5502 710.538 271.443">
  <defs>
    <style>
      .cls-1 {
        fill: #022866;
      }

      .cls-2 {
        fill: #0666ff;
      }
    </style>
  </defs>
  <path id="Union_30" data-name="Union 30" class="cls-1" d="M565.453,261.043a30.863,30.863,0,0,1-11.4-10.475,27.587,27.587,0,0,1-4.7-15.682,28.226,28.226,0,0,1,9.232-21.623A29.987,29.987,0,0,1,604.766,250.9a29.5,29.5,0,0,1-11.416,10.365,30.862,30.862,0,0,1-13.925,3.34A29.8,29.8,0,0,1,565.453,261.043Zm6.666-34.358a9.706,9.706,0,0,0-3.387,8.029,9.407,9.407,0,0,0,3.5,7.919l0,.047a11.528,11.528,0,0,0,7.088,2.667,11.883,11.883,0,0,0,7.213-2.73,10.977,10.977,0,0,0,.221-16.042,11.748,11.748,0,0,0-7.323-2.619A11.416,11.416,0,0,0,572.119,226.686Zm65.129,37.805a37.5,37.5,0,0,1-20.26-6.084h-.007a4.563,4.563,0,0,1-2.07-4.155c0-1.882,1.38-4.7,4.14-8.625a4.282,4.282,0,0,1,3.889-1.85,15.963,15.963,0,0,1,7.247,2.668,16.833,16.833,0,0,0,8.312,2.681c4.438,0,6.649-.878,6.649-2.619q0-2.07-7.307-3.058a35.736,35.736,0,0,1-13.7-5.1,14.708,14.708,0,0,1-5.252-6.178,22.3,22.3,0,0,1-2.07-9.989q0-17.249,23.694-17.248a38.4,38.4,0,0,1,15.995,3.622c2.556,1.16,3.826,2.619,3.826,4.375a12.849,12.849,0,0,1-2.4,6.429c-1.568,2.556-3.246,3.827-4.924,3.827a14.9,14.9,0,0,1-4.845-1.569,18.11,18.11,0,0,0-7.7-1.647q-6.445,0-6.445,2.4c0,2.2,2.478,3.607,7.433,4.265a40.759,40.759,0,0,1,13.972,4.14,12.54,12.54,0,0,1,5.284,5.3,18.806,18.806,0,0,1,2.133,9.409,20.108,20.108,0,0,1-2.133,9.661,13.8,13.8,0,0,1-5.943,5.959,40.087,40.087,0,0,1-16.175,3.409Q637.919,264.514,637.249,264.491Zm-204.523-1.616a6.351,6.351,0,0,1-2.73-2.07q-24.571-32.742-32.333-42.841v35.91a31.758,31.758,0,0,1-.158,3.826,8.912,8.912,0,0,1-1.035,2.839q-1.567,2.947-8.515,2.947t-8.3-2.947a8.49,8.49,0,0,1-1.051-2.948,37.71,37.71,0,0,1-.157-3.826v-60.89a13.385,13.385,0,0,1,1.035-6.069,5.178,5.178,0,0,1,3.136-2.556,22.406,22.406,0,0,1,10.522,0,6.884,6.884,0,0,1,2.681,1.364,31.412,31.412,0,0,1,2.509,2.838q23.036,31.362,30.782,41.382v-36.96a13.388,13.388,0,0,1,1.02-6.036l.01,0a5.266,5.266,0,0,1,3.136-2.556,17.356,17.356,0,0,1,5.191-.659,18.959,18.959,0,0,1,5.017.549,8.158,8.158,0,0,1,2.839,1.3,4.7,4.7,0,0,1,1.363,2.3,17.017,17.017,0,0,1,.66,5.567v60.577a30.874,30.874,0,0,1-.173,3.826,8.907,8.907,0,0,1-1.035,2.838q-1.567,2.948-8.515,2.948-.493.027-.986.027A17.92,17.92,0,0,1,432.725,262.876Zm25.431-2.291a10.546,10.546,0,0,1-.924-2.838,30.7,30.7,0,0,1-.172-3.826l-.012-38.306a31.106,31.106,0,0,1,.174-3.763,10.378,10.378,0,0,1,.924-2.9q1.569-2.838,8.515-2.838c3.5,0,5.974.627,7.418,1.849a6.054,6.054,0,0,1,1.976,4.7c0,.721.11,1.787.11,3.136v38.23a31.555,31.555,0,0,1-.173,3.779,8.843,8.843,0,0,1-1.035,2.884q-1.411,2.838-8.4,2.839T458.157,260.584Zm65.6-1.174a17.629,17.629,0,0,1-.66-5.567V234.6a9.3,9.3,0,0,0-2.555-6.978,10.6,10.6,0,0,0-13.863.11A9.158,9.158,0,0,0,504,234.6v19.319a32.3,32.3,0,0,1-.157,3.779,7.833,7.833,0,0,1-1.051,2.776q-1.411,2.948-8.4,2.948t-8.4-2.948a10.467,10.467,0,0,1-.924-2.884,32.121,32.121,0,0,1-.158-3.779V215.176a30.386,30.386,0,0,1,.158-3.654,7.817,7.817,0,0,1,1.035-2.791q1.567-2.73,8.4-2.73c4.438,0,7.166.848,8.186,2.509a8.616,8.616,0,0,1,1.1,4.486,11.287,11.287,0,0,1,1.959-2.2,19.691,19.691,0,0,1,2.942-2.285A14.4,14.4,0,0,1,516.875,206v0a23.117,23.117,0,0,1,18.19,8.358,30,30,0,0,1,7.245,20.385v19.209a32.311,32.311,0,0,1-.157,3.779,9.153,9.153,0,0,1-.925,2.776q-1.569,2.947-8.515,2.948Q524.949,263.456,523.758,259.411ZM240.039,205.878a10.627,10.627,0,0,1-3.136-.376,2.668,2.668,0,0,1-1.662-1.27,4.923,4.923,0,0,1-.565-1.569,16.934,16.934,0,0,1-.125-2.167V163.35a17.04,17.04,0,0,1,.111-2.164,5.147,5.147,0,0,1,.533-1.568c.6-1.146,2.007-1.709,4.265-1.709a8.425,8.425,0,0,1,4.548.847,3.451,3.451,0,0,1,1.364,2.524,8.78,8.78,0,0,1,7.6-3.308,13.534,13.534,0,0,1,9.832,4.892,16.34,16.34,0,0,1,0,22.785,13.47,13.47,0,0,1-9.832,4.893q-5.222,0-7.574-2.917V200.47a17.538,17.538,0,0,1-.094,2.164,5.179,5.179,0,0,1-.565,1.568,2.712,2.712,0,0,1-1.568,1.3,10.3,10.3,0,0,1-2.784.382Q240.215,205.884,240.039,205.878Zm7.125-35.35H247.1a5.7,5.7,0,0,0-1.458,3.763,5.46,5.46,0,0,0,1.569,3.716,4.858,4.858,0,0,0,3.811,1.694,5.344,5.344,0,0,0,3.952-1.662,5.219,5.219,0,0,0,1.568-3.748,5.524,5.524,0,0,0-1.568-3.8,5.079,5.079,0,0,0-3.979-1.678l-.125,0A4.858,4.858,0,0,0,247.164,170.528Zm267.127,26.959a23.7,23.7,0,0,1-4.046-2.838,4.468,4.468,0,0,0-2.557-1.411,3.918,3.918,0,0,0-2.838,1.3c-1.679,2.917-3.23,4.375-4.7,4.375a8.558,8.558,0,0,1-5.128-2.619c-2.007-1.756-3.011-3.137-3.011-4.312a5.9,5.9,0,0,1,.878-3.137,22.687,22.687,0,0,0,1.192-2.022,17.113,17.113,0,0,1,1.569-2.07,19.506,19.506,0,0,1,2.791-2.667,14.944,14.944,0,0,1,15.178-1.568,22.909,22.909,0,0,1,3.92,2.728,4.346,4.346,0,0,0,2.509,1.364,3.513,3.513,0,0,0,2.838-1.318c1.568-2.759,3.136-4.14,4.924-4.14a7.119,7.119,0,0,1,4.03,1.632h-.007q3.928,2.728,3.936,5.237a5.549,5.549,0,0,1-.878,2.947,22.8,22.8,0,0,0-1.193,2.023,19.1,19.1,0,0,1-1.568,2.133,16.006,16.006,0,0,1-2.728,2.729,14.111,14.111,0,0,1-8.4,3.058q-.342.018-.684.018A13.3,13.3,0,0,1,514.292,197.487Zm-53.149.111a4.7,4.7,0,0,1-2.9-2.29,9.671,9.671,0,0,1-.972-2.9,41.229,41.229,0,0,1,0-7.527,9.145,9.145,0,0,1,.925-2.777c1.019-1.975,3.858-2.947,8.515-2.947s7.354.972,8.3,2.947a8.739,8.739,0,0,1,1.035,2.885,41.071,41.071,0,0,1,0,7.527,8.956,8.956,0,0,1-1.019,2.838h-.007a4.7,4.7,0,0,1-2.9,2.242,23.391,23.391,0,0,1-10.977,0Zm-150.484-7.35a3.749,3.749,0,0,1-1.145-2.73v-24.1a18.525,18.525,0,0,1,.094-2.2,5.2,5.2,0,0,1,.533-1.568c.6-1.145,2.258-1.709,4.972-1.709s4.14.486,4.7,1.458a3.632,3.632,0,0,1,.706,2.1,9.145,9.145,0,0,1,.925-1.082,11.356,11.356,0,0,1,2.572-1.724,7.464,7.464,0,0,1,3.466-1.083,18.275,18.275,0,0,1,2.509.158,15.756,15.756,0,0,1,2.289.486h.013a4.273,4.273,0,0,1,2.007,1.3,4.475,4.475,0,0,1,.8,2.965,10.183,10.183,0,0,1-1.208,4.452,3.779,3.779,0,0,1-3.5,2.416,5.06,5.06,0,0,1-2.2-.5,6.348,6.348,0,0,0-2.776-.517,5.06,5.06,0,0,0-3.137,1.207,3.685,3.685,0,0,0-1.568,2.932v13.36a18.887,18.887,0,0,1-.094,2.2,5.108,5.108,0,0,1-.612,1.695c-.627,1.1-2.29,1.568-4.955,1.568q-.3.026-.6.026A7.029,7.029,0,0,1,310.659,190.247Zm49.174.172a3.37,3.37,0,0,1-1.38-2.509q-2.353,3.371-7.842,3.371a13.861,13.861,0,0,1-10.208-5.035,16.762,16.762,0,0,1,0-23.318,14.115,14.115,0,0,1,10.4-4.987,10.083,10.083,0,0,1,3.952.753,8.681,8.681,0,0,1,2.478,1.443,8.377,8.377,0,0,1,1.215,1.369c.256-2.375,1.933-3.548,5.032-3.548a13.337,13.337,0,0,1,3.686.376,2.7,2.7,0,0,1,1.694,1.333,5.643,5.643,0,0,1,.565,1.694,18.916,18.916,0,0,1,.094,2.2v22.257a18.9,18.9,0,0,1-.094,2.2,5.924,5.924,0,0,1-.534,1.694c-.6,1.1-2.054,1.569-4.359,1.569a8.475,8.475,0,0,1-4.7-.862Zm-3.4-11.925A5.458,5.458,0,0,0,358,174.715a5.947,5.947,0,0,0-1.49-3.858,5.021,5.021,0,0,0-4.014-1.772,5.192,5.192,0,0,0-4.077,1.772,5.817,5.817,0,0,0-1.552,3.812l0,.081a5.271,5.271,0,0,0,1.647,3.779,5.428,5.428,0,0,0,4.014,1.691A5.05,5.05,0,0,0,356.436,178.494Zm-61.7,11.924a3.417,3.417,0,0,1-1.363-2.509q-2.353,3.371-7.842,3.371a13.864,13.864,0,0,1-10.208-5.035,16.716,16.716,0,0,1,0-23.318,14.116,14.116,0,0,1,10.4-4.987,10.083,10.083,0,0,1,3.952.753,8.916,8.916,0,0,1,2.478,1.443,8.449,8.449,0,0,1,1.2,1.379c.252-2.382,1.931-3.557,5.034-3.557a13.334,13.334,0,0,1,3.685.376,2.666,2.666,0,0,1,1.678,1.333,5.289,5.289,0,0,1,.58,1.694,18.723,18.723,0,0,1,.094,2.2v22.257a18.707,18.707,0,0,1-.094,2.2,6.48,6.48,0,0,1-.533,1.695c-.6,1.1-2.054,1.568-4.36,1.568a8.537,8.537,0,0,1-4.7-.863Zm-3.394-11.924a5.519,5.519,0,0,0,1.568-3.779,5.88,5.88,0,0,0-1.568-3.857,4.986,4.986,0,0,0-4-1.771,5.188,5.188,0,0,0-4.077,1.771,5.852,5.852,0,0,0-1.506,3.812l0,.08a5.288,5.288,0,0,0,1.661,3.779,5.413,5.413,0,0,0,4.018,1.691A5.051,5.051,0,0,0,291.345,178.494Zm2.012-16.975Zm95.873,7.214q-7.528-4.046-7.527-7.307a10.348,10.348,0,0,1,3.277-7.543,28.592,28.592,0,0,1,3.215-3.136,4.3,4.3,0,0,1,2.681-.862,5.127,5.127,0,0,1,3.136,1.3,18.2,18.2,0,0,0,11.354,4.046,8.281,8.281,0,0,0,6.773-3.277,12.194,12.194,0,0,0,2.619-7.841l.032-3.328q-4.14,5.457-13.2,5.457T384.6,137.886a27.911,27.911,0,0,1,0-39.015q7.95-8.421,17.469-8.4a16.423,16.423,0,0,1,6.759,1.364,11.679,11.679,0,0,1,6.006,4.7,6.682,6.682,0,0,1,2.242-4.7,9.55,9.55,0,0,1,6.163-1.568,21.94,21.94,0,0,1,6.272.643,4.7,4.7,0,0,1,2.791,2.242,9.16,9.16,0,0,1,.972,2.791,29.716,29.716,0,0,1,.172,3.7v45.194a25.7,25.7,0,0,1-8.734,20.244,29,29,0,0,1-19.648,7.7h-.021A32.932,32.932,0,0,1,389.23,168.734Zm22.281-43.948a9.223,9.223,0,0,0,2.619-6.272,9.805,9.805,0,0,0-2.509-6.429,8.345,8.345,0,0,0-6.759-3.011,8.782,8.782,0,0,0-6.884,2.948,9.6,9.6,0,0,0-2.617,6.433h0a8.91,8.91,0,0,0,2.791,6.4,9.144,9.144,0,0,0,6.759,2.83A8.53,8.53,0,0,0,411.512,124.786Zm-80.726,21.753a24.477,24.477,0,0,1-9.769-7.354,31.438,31.438,0,0,1-6.884-19.772q0-13.736,8.906-21.954a31.364,31.364,0,0,1,22.22-8.249q15.179,0,22.268,10.695a22.194,22.194,0,0,1,3.7,12.433h0c0,4.485-1.1,7.841-3.324,9.942a10.348,10.348,0,0,1-7.37,3.136H334.66c0,2.039,1.207,3.748,3.606,5.144a14.347,14.347,0,0,0,7.214,2.07,29.806,29.806,0,0,0,9.926-1.317l1.207-.438a10.973,10.973,0,0,1,4.359-1.193c2.336,0,4.328,1.568,6.007,4.908a12.076,12.076,0,0,1,1.41,5.018q0,9.738-23.239,9.722-.335.006-.669.006A34.927,34.927,0,0,1,330.785,146.539Zm14.125-40.085a10.978,10.978,0,0,0-7.042,2.9,8.14,8.14,0,0,0-3.5,6.163l13.771.051c2.76,0,4.14-1.16,4.14-3.5a4.955,4.955,0,0,0-1.913-4.046,8.534,8.534,0,0,0-4.951-1.583Q345.163,106.439,344.91,106.454Zm-168.52,40.085a24.524,24.524,0,0,1-9.785-7.354,31.359,31.359,0,0,1-6.868-19.772q0-13.736,8.891-21.954a31.361,31.361,0,0,1,22.219-8.249q15.165,0,22.268,10.695a22.2,22.2,0,0,1,3.717,12.433q0,6.727-3.325,9.942a10.411,10.411,0,0,1-7.37,3.136H180.263c0,2.039,1.193,3.748,3.591,5.144a14.436,14.436,0,0,0,7.214,2.07,29.806,29.806,0,0,0,9.926-1.317l1.207-.438a10.972,10.972,0,0,1,4.359-1.193q3.5,0,6.007,4.908a11.9,11.9,0,0,1,1.426,5.018q0,9.738-23.255,9.722-.334.006-.668.006A34.848,34.848,0,0,1,176.389,146.539Zm14.192-40.085a10.983,10.983,0,0,0-7.088,2.948,8.092,8.092,0,0,0-3.5,6.163l13.8,0c2.76,0,4.155-1.16,4.155-3.5a4.956,4.956,0,0,0-1.913-4.046,8.592,8.592,0,0,0-4.968-1.582Q190.826,106.44,190.581,106.454Zm487.575,42.517a37.448,37.448,0,0,1-20.244-6.116h0a4.515,4.515,0,0,1-2.085-4.14q0-2.838,4.154-8.625a4.265,4.265,0,0,1,3.874-1.867,15.906,15.906,0,0,1,7.322,2.682,16.743,16.743,0,0,0,8.3,2.667c4.439,0,6.664-.862,6.664-2.619q0-2.071-7.323-3.136a35.408,35.408,0,0,1-13.643-5.128,14.425,14.425,0,0,1-5.238-6.162,22.411,22.411,0,0,1-2.133-9.9q0-17.249,23.676-17.249A38.415,38.415,0,0,1,697.425,93.1c2.54,1.159,3.81,2.619,3.81,4.359a12.842,12.842,0,0,1-2.4,6.445c-1.568,2.54-3.23,3.826-4.909,3.826a14.709,14.709,0,0,1-4.861-1.568,18.254,18.254,0,0,0-7.7-1.568c-4.3,0-6.43.8-6.43,2.4,0,2.181,2.462,3.607,7.418,4.251a40.775,40.775,0,0,1,13.909,4,12.313,12.313,0,0,1,5.3,5.3,19.071,19.071,0,0,1,2.133,9.409,20.394,20.394,0,0,1-2.133,9.661,13.8,13.8,0,0,1-5.954,5.941,40.035,40.035,0,0,1-16.228,3.437Q678.768,148.989,678.156,148.971Zm-71.787-3.544a31.185,31.185,0,0,1-11.417-10.475,27.593,27.593,0,0,1-4.7-15.682A28.227,28.227,0,0,1,599.5,97.661l-.007,0a30,30,0,0,1,41.821,0,28.226,28.226,0,0,1,9.049,21.514,28.23,28.23,0,0,1-4.7,16.089,29.509,29.509,0,0,1-11.4,10.381,31.144,31.144,0,0,1-13.926,3.324A29.685,29.685,0,0,1,606.37,145.426Zm6.671-34.357a9.723,9.723,0,0,0-3.388,8.107,9.406,9.406,0,0,0,3.5,7.841,11.619,11.619,0,0,0,7.1,2.681,11.889,11.889,0,0,0,7.183-2.681,9.407,9.407,0,0,0,3.606-8.076,9.407,9.407,0,0,0-3.387-7.982,11.73,11.73,0,0,0-7.307-2.619A11.385,11.385,0,0,0,613.04,111.069ZM456.676,145.426a31.126,31.126,0,0,1-11.4-10.475,27.587,27.587,0,0,1-4.7-15.682,28.228,28.228,0,0,1,9.149-21.608,29.968,29.968,0,0,1,41.806,0,28.228,28.228,0,0,1,9.064,21.514,28.363,28.363,0,0,1-4.7,16.089,29.445,29.445,0,0,1-11.322,10.381,31.043,31.043,0,0,1-13.925,3.324A29.8,29.8,0,0,1,456.676,145.426Zm13.78-15.665a11.885,11.885,0,0,0,7.214-2.744,9.518,9.518,0,0,0,3.607-8.076,9.411,9.411,0,0,0-3.388-7.982,11.744,11.744,0,0,0-7.322-2.619,11.411,11.411,0,0,0-7.307,2.729,9.723,9.723,0,0,0-3.388,8.107,9.411,9.411,0,0,0,3.5,7.841h0A11.587,11.587,0,0,0,470.456,129.76Zm65.3,18.817A31.453,31.453,0,0,1,516.2,141.27a26.193,26.193,0,0,1-7.307-9.409,29.1,29.1,0,0,1-2.838-12.891,28.24,28.24,0,0,1,2.838-12.764,26.4,26.4,0,0,1,7.307-9.236,30.578,30.578,0,0,1,19.336-7.2,28.582,28.582,0,0,1,8.076,1.145,26.84,26.84,0,0,1,5.786,2.242l1.741,1.083c1.318.878,2.336,1.568,3.058,2.085a6.272,6.272,0,0,1,2.838,4.955,11.868,11.868,0,0,1-2.289,6.272q-3.92,5.99-7.527,5.99a12.425,12.425,0,0,1-5.9-2.4,7.842,7.842,0,0,0-5.629-1.85,10.556,10.556,0,0,0-6.821,2.619,9.975,9.975,0,0,0-.108,14.477,9.945,9.945,0,0,0,6.492,2.556,11.308,11.308,0,0,0,6.445-1.93,9.716,9.716,0,0,1,4.861-2.007q3.278,0,7.966,5.772a9.592,9.592,0,0,1,2.509,5.692q0,4.14-6.006,7.746a25.968,25.968,0,0,1-14.42,4.373C536.323,148.591,536.04,148.587,535.755,148.577Zm-244.283-1.239a6.269,6.269,0,0,1-2.725-2.08q-24.574-32.747-32.321-42.8v35.925a31.4,31.4,0,0,1-.173,3.826,8.728,8.728,0,0,1-1.035,2.823c-1.019,1.975-3.858,2.947-8.515,2.947s-7.277-.972-8.3-2.947a8.726,8.726,0,0,1-1.035-2.932,33.514,33.514,0,0,1-.157-3.826V77.359a13.318,13.318,0,0,1,1.035-6.053,5.222,5.222,0,0,1,3.136-2.572,18.039,18.039,0,0,1,5.348-.659,17.627,17.627,0,0,1,5.189.612,6.4,6.4,0,0,1,2.667,1.364,28.08,28.08,0,0,1,2.524,2.838q23.02,31.362,30.782,41.367v-36.9a13.318,13.318,0,0,1,.972-6.053l.006,0a5.218,5.218,0,0,1,3.136-2.572,17.471,17.471,0,0,1,5.19-.659,18.887,18.887,0,0,1,5.018.549,7.988,7.988,0,0,1,2.838,1.317,4.3,4.3,0,0,1,1.364,2.289,17.117,17.117,0,0,1,.659,5.567v60.592a32.128,32.128,0,0,1-.158,3.826,8.7,8.7,0,0,1-1.035,2.823c-1.035,1.976-3.873,2.948-8.531,2.948q-.511.029-1.023.029A17.857,17.857,0,0,1,291.472,147.338Zm273.757-2.309a10.273,10.273,0,0,1-.925-2.822,32.155,32.155,0,0,1-.157-3.826l-.01-38.319a31.838,31.838,0,0,1,.157-3.763,10.269,10.269,0,0,1,.925-2.885q1.567-2.838,8.515-2.838,5.25,0,7.433,1.849a6.039,6.039,0,0,1,1.959,4.7c0,.737.111,1.787.111,3.136v38.23a35.726,35.726,0,0,1-.158,3.763,8.815,8.815,0,0,1-1.051,2.885q-1.411,2.838-8.4,2.838C569.049,147.977,566.242,147.005,565.229,145.029Zm-423.056,2.842c-5.065,0-7.841-1.772-8.468-5.347a16.057,16.057,0,0,1-12.764,5.253q-9.832,0-17.908-8.578a28.744,28.744,0,0,1,0-40q8.139-8.64,17.861-8.625a15.321,15.321,0,0,1,12.545,5.457V73.1a31.09,31.09,0,0,1,.172-3.763,8.614,8.614,0,0,1,1.066-2.839h0a4.7,4.7,0,0,1,2.9-2.21,23.4,23.4,0,0,1,10.976,0,4.516,4.516,0,0,1,2.885,2.289,9.433,9.433,0,0,1,.988,2.9,31.835,31.835,0,0,1,.157,3.763v65.141a31.643,31.643,0,0,1-.157,3.763,7.861,7.861,0,0,1-1.035,2.792q-1.638,2.931-9.138,2.931Zm-18.268-19.1a8.672,8.672,0,0,0,6.711-2.948,9.409,9.409,0,0,0,2.666-6.493,10.068,10.068,0,0,0-2.556-6.6A8.593,8.593,0,0,0,123.8,109.6a8.827,8.827,0,0,0-6.994,3,9.862,9.862,0,0,0-2.619,6.617,9.188,9.188,0,0,0,2.76,6.617v-.005A9.173,9.173,0,0,0,123.9,128.772ZM568.218,82.058a4.58,4.58,0,0,1-2.885-2.306,9.281,9.281,0,0,1-.988-2.884,31.656,31.656,0,0,1-.157-3.763,31.657,31.657,0,0,1,.158-3.763,9.051,9.051,0,0,1,.924-2.791q1.569-2.932,8.515-2.948t8.3,2.948a8.87,8.87,0,0,1,1.05,2.9,45.1,45.1,0,0,1,0,7.527,8.766,8.766,0,0,1-1.04,2.838,4.7,4.7,0,0,1-2.9,2.243,23.957,23.957,0,0,1-10.977,0ZM206.939,74.77a3.136,3.136,0,0,1-1.913-1.568,6.135,6.135,0,0,1-.674-1.913,20.376,20.376,0,0,1-.11-2.556V53.55A10.631,10.631,0,0,1,195.758,57a16.291,16.291,0,0,1-12.074-5.771,19.1,19.1,0,0,1-5.4-13.42,18.813,18.813,0,0,1,5.473-13.423c3.654-3.858,7.51-5.772,11.587-5.772s7.062,1.294,8.973,3.887q.44-3.983,5.849-3.967a13.749,13.749,0,0,1,4.188.455,3.137,3.137,0,0,1,1.912,1.568,5.684,5.684,0,0,1,.674,1.9,20.555,20.555,0,0,1,.11,2.556V68.776a20.548,20.548,0,0,1-.11,2.556,5.422,5.422,0,0,1-.674,1.866,3.134,3.134,0,0,1-1.944,1.568,12.543,12.543,0,0,1-3.716.444q-.21.007-.419.007A12.05,12.05,0,0,1,206.939,74.77Zm-4.8-32.432a6.376,6.376,0,0,0,1.742-4.422,6.816,6.816,0,0,0-1.725-4.422,5.735,5.735,0,0,0-4.548-2.133,6.037,6.037,0,0,0-4.7,1.991,6.457,6.457,0,0,0-1.8,4.469,6.116,6.116,0,0,0,1.929,4.516h-.009a6.274,6.274,0,0,0,4.58,1.913A5.8,5.8,0,0,0,202.139,42.338Zm-55.38,14.769a16.84,16.84,0,0,1-6.718-5.045,21.579,21.579,0,0,1-4.7-13.58,19.621,19.621,0,0,1,6.116-15.117A21.606,21.606,0,0,1,156.714,17.7q10.429,0,15.289,7.354a15.2,15.2,0,0,1,2.54,8.515l0,0a9.11,9.11,0,0,1-2.289,6.82,7.136,7.136,0,0,1-5.065,2.211H149.42a4.106,4.106,0,0,0,2.478,3.528,9.919,9.919,0,0,0,4.94,1.427,20.694,20.694,0,0,0,6.821-.911l.831-.3a7.619,7.619,0,0,1,3-.831c1.569,0,2.979,1.129,4.125,3.387a8.173,8.173,0,0,1,.987,3.451q0,6.649-15.979,6.664-.239,0-.477,0A23.914,23.914,0,0,1,146.759,57.107Zm9.748-27.55a7.554,7.554,0,0,0-4.845,1.992,5.551,5.551,0,0,0-2.4,4.234l9.456,0q2.85,0,2.854-2.4a3.357,3.357,0,0,0-1.317-2.777,5.868,5.868,0,0,0-3.369-1.063Q156.7,29.545,156.507,29.557ZM278.8,57.059a16.736,16.736,0,0,1-6.71-5.049,21.585,21.585,0,0,1-4.7-13.58,19.617,19.617,0,0,1,6.115-15.117,21.642,21.642,0,0,1,15.258-5.661q10.429,0,15.3,7.355a15.3,15.3,0,0,1,2.525,8.562v0a9.109,9.109,0,0,1-2.274,6.82,7.166,7.166,0,0,1-5.064,2.211H281.47a4.14,4.14,0,0,0,2.478,3.528,9.955,9.955,0,0,0,4.955,1.426,20.673,20.673,0,0,0,6.821-.91l.831-.3a7.563,7.563,0,0,1,2.979-.878c1.568,0,2.979,1.13,4.124,3.388a8.332,8.332,0,0,1,.972,3.45q0,6.649-15.979,6.664c-.157,0-.314,0-.47,0A23.89,23.89,0,0,1,278.8,57.059Zm9.755-27.5a7.541,7.541,0,0,0-4.829,1.993,5.548,5.548,0,0,0-2.4,4.234h9.441c1.913,0,2.854-.8,2.854-2.4a3.356,3.356,0,0,0-1.317-2.776,5.8,5.8,0,0,0-3.35-1.065Q288.757,29.543,288.557,29.557Zm78.292,26.816a21.314,21.314,0,0,1-7.841-7.2,18.907,18.907,0,0,1-3.132-10.77,19.447,19.447,0,0,1,6.21-14.881h0A20.621,20.621,0,0,1,376.5,17.672a20.385,20.385,0,0,1,14.317,5.849,19.367,19.367,0,0,1,6.272,14.819,19.511,19.511,0,0,1-3.23,11.056,20.105,20.105,0,0,1-7.841,7.119,21.2,21.2,0,0,1-9.565,2.289A20.461,20.461,0,0,1,366.849,56.372Zm4.567-23.705a6.679,6.679,0,0,0-2.321,5.5,6.443,6.443,0,0,0,2.368,5.52l.032.048a7.982,7.982,0,0,0,4.876,1.741,8.184,8.184,0,0,0,4.955-1.866,6.542,6.542,0,0,0,2.462-5.551,6.477,6.477,0,0,0-2.321-5.473,7.984,7.984,0,0,0-5.018-1.8A7.839,7.839,0,0,0,371.416,32.667Zm198.961,23.7a21.314,21.314,0,0,1-7.841-7.2A18.9,18.9,0,0,1,559.4,38.4a19.444,19.444,0,0,1,6.21-14.881h0a20.619,20.619,0,0,1,14.411-5.849,20.387,20.387,0,0,1,14.317,5.849,19.367,19.367,0,0,1,6.272,14.819A19.511,19.511,0,0,1,597.38,49.4a20.106,20.106,0,0,1-7.841,7.119,21.2,21.2,0,0,1-9.562,2.288A20.472,20.472,0,0,1,570.377,56.372Zm4.5-23.657a6.682,6.682,0,0,0-2.32,5.5,6.441,6.441,0,0,0,2.431,5.473l.032.048a7.985,7.985,0,0,0,4.846,1.741,8.184,8.184,0,0,0,4.954-1.866,6.54,6.54,0,0,0,2.462-5.551,6.478,6.478,0,0,0-2.353-5.426,7.979,7.979,0,0,0-5.017-1.8A7.846,7.846,0,0,0,574.877,32.714ZM57.4,57.751Q51.613,57,49.9,53.925c-1.411-2.446-2.1-6.272-2.1-11.7l0-35.686a21.053,21.053,0,0,1,.11-2.588,6.772,6.772,0,0,1,.719-1.992C49.247.612,51.207,0,54.407,0s4.94.674,5.692,2.023a5.958,5.958,0,0,1,.721,2.023,25.951,25.951,0,0,1,.11,2.619v34.67a7.846,7.846,0,0,0,.439,3.4c.314.486.972.721,1.991.721a11.791,11.791,0,0,1,2.07.11,3.892,3.892,0,0,1,1.271.627c1,.659,1.568,2.431,1.568,5.332,0,3.136-.5,5.081-1.568,5.771q-1.169.818-4.28.815A42.555,42.555,0,0,1,57.4,57.751ZM465.663,56.03a6.8,6.8,0,0,1-.643-1.944,21.277,21.277,0,0,1-.11-2.634l0-26.362a20.858,20.858,0,0,1,.11-2.587,6.786,6.786,0,0,1,.643-1.993c.69-1.3,2.65-1.944,5.849-1.944a7.955,7.955,0,0,1,5.1,1.27,4.144,4.144,0,0,1,1.349,3.23c0,.486.077,1.223.077,2.164v26.3a25.049,25.049,0,0,1-.11,2.587,5.962,5.962,0,0,1-.721,1.992c-.643,1.3-2.572,1.944-5.771,1.944S466.352,57.379,465.663,56.03Zm64.1.719a4.548,4.548,0,0,1-1.349-3.23V25.089a25.075,25.075,0,0,1,.11-2.587,6.4,6.4,0,0,1,.648-1.913c.706-1.349,2.65-2.023,5.849-2.023s4.877.565,5.63,1.725a4.31,4.31,0,0,1,.832,2.478,9.171,9.171,0,0,1,1.082-1.286,14.189,14.189,0,0,1,3.042-2.022,8.684,8.684,0,0,1,4.077-1.27,19.669,19.669,0,0,1,2.964.187,16.318,16.318,0,0,1,2.619.612h0a4.964,4.964,0,0,1,2.368,1.568,5.253,5.253,0,0,1,.941,3.481,11.784,11.784,0,0,1-1.427,5.253,4.468,4.468,0,0,1-4.124,2.838,5.779,5.779,0,0,1-2.587-.6,7.666,7.666,0,0,0-3.262-.6,5.91,5.91,0,0,0-3.8,1.427,4.277,4.277,0,0,0-1.756,3.45V51.5a21.408,21.408,0,0,1-.11,2.588,5.965,5.965,0,0,1-.721,1.991c-.737,1.3-2.7,1.944-5.849,1.944q-.357.031-.713.031A8.3,8.3,0,0,1,529.759,56.749ZM36.254,58.019H6.565c-3.513,0-5.548-.941-6.148-2.854a11.4,11.4,0,0,1-.392-3.8V9.69c0-2.556.471-4.3,1.427-5.222S4.133,3.135,6.783,3.135H36.328a21.02,21.02,0,0,1,2.587,0,6.278,6.278,0,0,1,1.992.707c1.349.706,2.022,2.65,2.022,5.849,0,3.513-.924,5.551-2.776,6.147a12.094,12.094,0,0,1-3.9.454H13.228v7.574h14.85a25.078,25.078,0,0,1,2.587.11,5.963,5.963,0,0,1,1.992.721c1.349.69,2.023,2.65,2.023,5.849,0,3.5-.957,5.551-2.854,6.147a12.554,12.554,0,0,1-3.889.455H13.228v7.636h23.1a21.053,21.053,0,0,1,2.587.11,6.281,6.281,0,0,1,1.991.706c1.349.706,2.023,2.65,2.023,5.849q0,5.25-2.777,6.147a12.112,12.112,0,0,1-3.238.441Q36.585,58.038,36.254,58.019Zm448.52-2.014a7.277,7.277,0,0,1-.643-1.991,24.58,24.58,0,0,1-.11-2.587V6.6a25.094,25.094,0,0,1,.11-2.588,6.264,6.264,0,0,1,.643-1.9c.706-1.363,2.65-2.038,5.849-2.038s5.049.674,5.708,2.038a6.194,6.194,0,0,1,.785,1.976,21.387,21.387,0,0,1,0,2.587V22.361a10.413,10.413,0,0,1,8.578-3.749h0a16.653,16.653,0,0,1,12.262,5.916,19.727,19.727,0,0,1,0,27.489c-3.7,3.92-7.684,5.9-11.933,5.9s-7.276-1.208-9.064-3.607q-.564,3.718-6.413,3.718C487.409,58.028,485.48,57.354,484.773,56.005Zm14.352-22.179a6.947,6.947,0,0,0-1.754,4.545,6.494,6.494,0,0,0,1.767,4.457,5.962,5.962,0,0,0,4.611,2.023A6.546,6.546,0,0,0,508.626,33.8a6.072,6.072,0,0,0-4.8-2.07l-.177,0A5.912,5.912,0,0,0,499.126,33.826ZM312.222,56a7.248,7.248,0,0,1-.643-1.991,24.573,24.573,0,0,1-.11-2.587V24.838a24.362,24.362,0,0,1,.11-2.525A5.39,5.39,0,0,1,312.3,20.4c.707-1.239,2.619-1.866,5.772-1.866s4.924.564,5.63,1.724a5.913,5.913,0,0,1,.753,3.136,7.363,7.363,0,0,1,1.349-1.568,12.236,12.236,0,0,1,2.022-1.569,9.736,9.736,0,0,1,5.631-1.724A15.869,15.869,0,0,1,346,24.274a20.572,20.572,0,0,1,4.987,13.989V51.449a24.563,24.563,0,0,1-.11,2.587,6.278,6.278,0,0,1-.643,1.913c-.706,1.349-2.65,2.023-5.849,2.023-3.544,0-5.6-.925-6.147-2.777a12.182,12.182,0,0,1-.455-3.826V38.183a6.014,6.014,0,0,0-6.461-6.523,6.525,6.525,0,0,0-4.8,1.8,6.273,6.273,0,0,0-1.835,4.7V51.434a21.053,21.053,0,0,1-.11,2.588,5.419,5.419,0,0,1-.706,1.912q-1.081,2.086-5.88,2.086C314.856,58.02,312.927,57.346,312.222,56Zm-61.921.187a6,6,0,0,1-.753-3.136,7.088,7.088,0,0,1-1.349,1.568,17.237,17.237,0,0,1-2.023,1.569,10.023,10.023,0,0,1-5.566,1.724h0a15.929,15.929,0,0,1-12.544-5.738,20.576,20.576,0,0,1-4.987-13.985v-13.1a21.266,21.266,0,0,1,.11-2.633,6.79,6.79,0,0,1,.647-1.942c.689-1.349,2.65-2.023,5.849-2.023,3.5,0,5.55.957,6.147,2.854a11.82,11.82,0,0,1,.454,3.826V38.261a6.022,6.022,0,0,0,6.476,6.523,6.6,6.6,0,0,0,4.8-1.8,6.271,6.271,0,0,0,1.85-4.7v-13.3a21.225,21.225,0,0,1,.11-2.587,6.356,6.356,0,0,1,.706-1.993c.659-1.3,2.572-1.944,5.771-1.944s5.081.674,5.786,2.023a6.66,6.66,0,0,1,.627,1.993,20.686,20.686,0,0,1,.125,2.587V51.606a19.813,19.813,0,0,1-.125,2.509,5.226,5.226,0,0,1-.706,1.913c-.752,1.3-2.68,1.944-5.771,1.944S251.006,57.372,250.3,56.184ZM91.712,55.152a12.548,12.548,0,0,1-.438-3.889V9.691a21.441,21.441,0,0,1,.11-2.6,6.252,6.252,0,0,1,.706-1.976c.736-1.353,2.68-1.979,5.879-1.979h16.059a20.76,20.76,0,0,1,12.811,4.7,17.244,17.244,0,0,1,5.034,6.272v0a19.836,19.836,0,0,1,1.944,8.86,19.6,19.6,0,0,1-1.944,8.813,17.338,17.338,0,0,1-5.034,6.272,20.838,20.838,0,0,1-12.89,4.8H104.54v8.468a21.055,21.055,0,0,1-.111,2.588,5.95,5.95,0,0,1-.721,1.992c-.689,1.349-2.65,2.023-5.849,2.023C94.359,57.929,92.324,57,91.712,55.152ZM104.54,29.636h9.409a7.244,7.244,0,0,0,4.5-1.662v-.061a5.817,5.817,0,0,0,2.164-4.94,5.924,5.924,0,0,0-2.164-4.986,7.265,7.265,0,0,0-4.5-1.695H104.54ZM454.529,57.879H427.479c-3.5,0-5.535-.94-6.147-2.854a11.916,11.916,0,0,1-.439-3.826V9.691a21.448,21.448,0,0,1,.11-2.6,6.277,6.277,0,0,1,.707-1.976c.7-1.353,2.646-1.979,5.844-1.979,3.5,0,5.582.924,6.272,2.776A14.839,14.839,0,0,1,434.2,9.8l-.046,37.148H454.54a8.438,8.438,0,0,1,3.591.565,2.872,2.872,0,0,1,1.568,1.771,13.267,13.267,0,0,1,0,6.272,2.587,2.587,0,0,1-1.27,1.569,8.473,8.473,0,0,1-3.509.761Q454.725,57.888,454.529,57.879ZM331.679,12.763A16.322,16.322,0,0,1,328.9,10.8a3.132,3.132,0,0,0-1.756-.972,2.726,2.726,0,0,0-1.96.909c-1.145,1.992-2.21,3-3.136,3a5.877,5.877,0,0,1-3.528-1.8c-1.364-1.192-2.054-2.18-2.054-2.964a4.044,4.044,0,0,1,.6-2.133c.409-.644.674-1.113.832-1.381a8.95,8.95,0,0,1,1.078-1.435,13.273,13.273,0,0,1,1.913-1.835A9.6,9.6,0,0,1,326.662.154a9.414,9.414,0,0,1,4.7.941,16.076,16.076,0,0,1,2.667,1.8,2.92,2.92,0,0,0,1.728.933,2.415,2.415,0,0,0,1.944-.895Q339.276.084,341.087.08a4.971,4.971,0,0,1,2.634,1.129v.076c1.8,1.254,2.7,2.446,2.7,3.607a3.922,3.922,0,0,1-.6,2.023c-.408.643-.674,1.112-.831,1.38a14.222,14.222,0,0,1-1.051,1.474,11.649,11.649,0,0,1-1.866,1.866,9.734,9.734,0,0,1-5.786,2.1q-.215.01-.429.01A9.4,9.4,0,0,1,331.679,12.763Zm139.78.472a12.994,12.994,0,0,1-3.779-.439,3.139,3.139,0,0,1-1.992-1.568,6.477,6.477,0,0,1-.673-1.991,21.054,21.054,0,0,1-.111-2.588,21.394,21.394,0,0,1,.111-2.587,5.867,5.867,0,0,1,.643-1.9c.69-1.364,2.65-2.039,5.849-2.039S476.555.8,477.2,2.163a5.852,5.852,0,0,1,.721,1.976,25.086,25.086,0,0,1,.111,2.588,24.815,24.815,0,0,1-.111,2.587,6.618,6.618,0,0,1-.675,1.915,3.273,3.273,0,0,1-1.991,1.568,13.1,13.1,0,0,1-3.388.445Q471.662,13.241,471.459,13.234Z" transform="translate(6840.832 5508.841)"/>
  <path id="Union_31" data-name="Union 31" class="cls-2" d="M565.506,261.059a31.052,31.052,0,0,1-11.4-10.491,27.5,27.5,0,0,1-4.7-15.682,28.225,28.225,0,0,1,9.231-21.623A29.987,29.987,0,0,1,604.819,250.9,29.388,29.388,0,0,1,593.4,261.263a30.842,30.842,0,0,1-13.909,3.34A29.932,29.932,0,0,1,565.506,261.059Zm13.875-15.7a11.882,11.882,0,0,0,7.2-2.729,10.976,10.976,0,0,0,.22-16.057,11.725,11.725,0,0,0-7.306-2.619,11.463,11.463,0,0,0-7.323,2.729,9.706,9.706,0,0,0-3.387,8.029,9.409,9.409,0,0,0,3.5,7.982l0-.016A11.619,11.619,0,0,0,579.381,245.362ZM637.3,264.535a37.49,37.49,0,0,1-20.26-6.07l-.005.006a4.562,4.562,0,0,1-2.07-4.156q0-2.823,4.155-8.625a4.283,4.283,0,0,1,3.874-1.85,15.953,15.953,0,0,1,7.259,2.681,16.9,16.9,0,0,0,8.3,2.666c4.438,0,6.648-.877,6.648-2.619q0-2.07-7.307-3.136a35.833,35.833,0,0,1-13.642-5.128,14.517,14.517,0,0,1-5.237-6.163,22.182,22.182,0,0,1-2.086-9.989q0-17.249,23.694-17.249a38.706,38.706,0,0,1,15.948,3.7c2.54,1.176,3.81,2.619,3.81,4.375a12.948,12.948,0,0,1-2.4,6.445c-1.568,2.54-3.245,3.811-4.908,3.811a14.942,14.942,0,0,1-4.861-1.569,18.11,18.11,0,0,0-7.7-1.647c-4.3,0-6.445.815-6.445,2.416q0,3.262,7.433,4.25a40.781,40.781,0,0,1,13.972,4.155,12.328,12.328,0,0,1,5.284,5.285,18.815,18.815,0,0,1,2.133,9.409,20.237,20.237,0,0,1-2.133,9.675,13.852,13.852,0,0,1-5.944,5.944,40.047,40.047,0,0,1-16.161,3.407Q637.976,264.558,637.3,264.535ZM432.788,262.97a6.424,6.424,0,0,1-2.729-2.07q-24.557-32.743-32.319-42.794v35.925a31.673,31.673,0,0,1-.157,3.81,8.806,8.806,0,0,1-1.035,2.838c-1.02,1.976-3.858,2.948-8.516,2.948s-7.276-.972-8.3-2.948a8.665,8.665,0,0,1-1.035-2.948,32.458,32.458,0,0,1-.173-3.811v-60.95a13.312,13.312,0,0,1,1.035-6.053,5.238,5.238,0,0,1,3.136-2.572,18.039,18.039,0,0,1,5.348-.659,18.314,18.314,0,0,1,5.189.6,6.8,6.8,0,0,1,2.666,1.364,28.763,28.763,0,0,1,2.509,2.838q23.051,31.362,30.8,41.382v-36.9a13.319,13.319,0,0,1,.988-6.053h.014a5.156,5.156,0,0,1,3.131-2.573,17.4,17.4,0,0,1,5.189-.659,18.887,18.887,0,0,1,5.018.549,7.709,7.709,0,0,1,2.838,1.317,4.5,4.5,0,0,1,1.364,2.289,17.017,17.017,0,0,1,.659,5.567v60.623a30.791,30.791,0,0,1-.172,3.811,8.756,8.756,0,0,1-1.035,2.838c-1.019,1.976-3.858,2.948-8.515,2.948q-.494.027-.989.027A17.916,17.916,0,0,1,432.788,262.97Zm33.821.609c-4.579,0-7.386-.972-8.4-2.948a10.34,10.34,0,0,1-.924-2.838,31.521,31.521,0,0,1-.158-3.811l-.011-38.3a31.644,31.644,0,0,1,.157-3.763,10.37,10.37,0,0,1,.925-2.9c1.019-1.882,3.857-2.838,8.515-2.838q5.25,0,7.433,1.866a6.053,6.053,0,0,1,1.96,4.7c.078.721.11,1.788.11,3.137v38.215a31.475,31.475,0,0,1-.172,3.763,8.376,8.376,0,0,1-1.035,2.885q-1.4,2.839-8.321,2.839Zm57.2-4.084a17.758,17.758,0,0,1-.659-5.567v-19.26a8.75,8.75,0,0,0-9.409-9.487,9.488,9.488,0,0,0-6.978,2.619,9.16,9.16,0,0,0-2.681,6.868v19.366a32.035,32.035,0,0,1-.157,3.763,7.844,7.844,0,0,1-1.035,2.776c-.958,1.976-3.763,2.948-8.421,2.948s-7.386-.972-8.4-2.948a10.268,10.268,0,0,1-.925-2.885,32.035,32.035,0,0,1-.157-3.763V215.24a30.392,30.392,0,0,1,.157-3.654,7.834,7.834,0,0,1,1.035-2.791q1.567-2.73,8.4-2.73c4.453,0,7.182.847,8.2,2.509a8.748,8.748,0,0,1,1.083,4.485,10.629,10.629,0,0,1,1.975-2.18,18.3,18.3,0,0,1,2.948-2.3,14.334,14.334,0,0,1,8.159-2.515,23.1,23.1,0,0,1,18.17,8.364,30,30,0,0,1,7.26,20.385v19.225a31.462,31.462,0,0,1-.172,3.763,9.148,9.148,0,0,1-.925,2.776c-1.019,1.976-3.858,2.948-8.515,2.948Q524.92,263.525,523.806,259.5ZM240.088,205.974a10.579,10.579,0,0,1-3.136-.392,2.74,2.74,0,0,1-1.661-1.27,4.948,4.948,0,0,1-.565-1.568,17.984,17.984,0,0,1-.1-2.168V163.417a18.088,18.088,0,0,1,.094-2.164,5.147,5.147,0,0,1,.533-1.568c.6-1.146,2.023-1.709,4.265-1.709a8.266,8.266,0,0,1,4.547.861,3.421,3.421,0,0,1,1.364,2.509,8.779,8.779,0,0,1,7.6-3.308,13.53,13.53,0,0,1,9.832,4.891,16.308,16.308,0,0,1,0,22.785,13.5,13.5,0,0,1-9.832,4.908c-3.466,0-5.99-.988-7.558-2.932V200.55a14.625,14.625,0,0,1-.11,2.165,5.243,5.243,0,0,1-.564,1.568,2.664,2.664,0,0,1-1.568,1.3,10.174,10.174,0,0,1-2.816.4Q240.248,205.979,240.088,205.974Zm7.125-35.381h-.048a5.693,5.693,0,0,0-1.458,3.763,5.5,5.5,0,0,0,1.49,3.716,4.891,4.891,0,0,0,3.826,1.694,5.286,5.286,0,0,0,3.936-1.662,5.219,5.219,0,0,0,1.568-3.748,5.532,5.532,0,0,0-1.568-3.8,5.127,5.127,0,0,0-3.967-1.678h-.064A4.89,4.89,0,0,0,247.213,170.593Zm267.143,26.988a24.117,24.117,0,0,1-4.046-2.839,4.418,4.418,0,0,0-2.556-1.41,4,4,0,0,0-2.838,1.3c-1.678,2.917-3.23,4.375-4.7,4.375a8.56,8.56,0,0,1-5.128-2.619c-2.007-1.756-3.01-3.136-3.01-4.312a5.889,5.889,0,0,1,.878-3.136c.581-.941.988-1.569,1.207-2.007a13.418,13.418,0,0,1,1.568-2.086,19.4,19.4,0,0,1,2.777-2.666,14,14,0,0,1,8.405-2.948,13.836,13.836,0,0,1,6.773,1.364,22.864,22.864,0,0,1,3.92,2.729,4.339,4.339,0,0,0,2.509,1.364,3.48,3.48,0,0,0,2.838-1.317c1.568-2.76,3.137-4.14,4.924-4.14a7.247,7.247,0,0,1,4.014,1.615l0,0c2.619,1.819,3.936,3.575,3.936,5.237a5.549,5.549,0,0,1-.878,2.948c-.581.957-.972,1.568-1.193,2.023a19.1,19.1,0,0,1-1.568,2.133,16.035,16.035,0,0,1-2.729,2.728,14.114,14.114,0,0,1-8.4,3.136q-.3.013-.591.013A13.3,13.3,0,0,1,514.355,197.582Zm-53.081.075a4.567,4.567,0,0,1-2.885-2.289,9.428,9.428,0,0,1-.987-2.885,45.3,45.3,0,0,1,0-7.543,9.114,9.114,0,0,1,.924-2.776c1.02-1.976,3.857-2.948,8.515-2.948s7.355.972,8.3,2.948a8.4,8.4,0,0,1,1.035,2.885,41.406,41.406,0,0,1,0,7.543,8.484,8.484,0,0,1-1.025,2.839,4.7,4.7,0,0,1-2.9,2.227,23.4,23.4,0,0,1-10.977,0Zm-150.557-7.282a3.783,3.783,0,0,1-1.146-2.73v-24.17a18.717,18.717,0,0,1,.095-2.2,5.229,5.229,0,0,1,.549-1.568c.58-1.145,2.242-1.709,4.954-1.709s4.14.486,4.7,1.458a3.647,3.647,0,0,1,.706,2.1,10.815,10.815,0,0,1,.925-1.083,12.339,12.339,0,0,1,2.572-1.724,7.6,7.6,0,0,1,3.466-1.066,16.334,16.334,0,0,1,2.524.158,14.471,14.471,0,0,1,2.29.533l.012.006a4.215,4.215,0,0,1,1.992,1.3,4.5,4.5,0,0,1,.8,2.964,9.928,9.928,0,0,1-1.207,4.453,3.779,3.779,0,0,1-3.5,2.415,4.887,4.887,0,0,1-2.2-.5,6.351,6.351,0,0,0-2.777-.518,5.005,5.005,0,0,0-3.215,1.223,3.641,3.641,0,0,0-1.49,2.917v13.361a18.505,18.505,0,0,1-.094,2.2,5.088,5.088,0,0,1-.612,1.695c-.627,1.1-2.289,1.568-4.955,1.568q-.3.026-.6.026A7.026,7.026,0,0,1,310.717,190.374Zm49.171.046a3.448,3.448,0,0,1-1.38-2.509c-1.569,2.258-4.188,3.371-7.842,3.371a13.894,13.894,0,0,1-10.219-5.022,16.575,16.575,0,0,1-4.7-11.682,16.373,16.373,0,0,1,4.7-11.651,14.112,14.112,0,0,1,10.412-4.987,9.8,9.8,0,0,1,3.936.768,8.144,8.144,0,0,1,2.479,1.427,8.4,8.4,0,0,1,1.228,1.385c.267-2.368,1.944-3.56,5.034-3.56a13.269,13.269,0,0,1,3.685.376,2.668,2.668,0,0,1,1.694,1.333,5.643,5.643,0,0,1,.565,1.694,18.158,18.158,0,0,1,.11,2.2V185.82a18.143,18.143,0,0,1-.11,2.2,5.9,5.9,0,0,1-.534,1.695c-.6,1.1-2.054,1.568-4.359,1.568a8.475,8.475,0,0,1-4.7-.862Zm-3.378-11.909a5.568,5.568,0,0,0,1.568-3.8,5.866,5.866,0,0,0-1.568-3.842,4.974,4.974,0,0,0-4.014-1.788,5.175,5.175,0,0,0-4.077,1.788,5.756,5.756,0,0,0-1.49,3.857v.023a5.33,5.33,0,0,0,1.646,3.8,5.475,5.475,0,0,0,4.015,1.67A5.1,5.1,0,0,0,356.51,178.511ZM294.8,190.42a3.358,3.358,0,0,1-1.38-2.509c-1.568,2.258-4.187,3.371-7.84,3.371a13.894,13.894,0,0,1-10.208-5.018,16.588,16.588,0,0,1-4.7-11.682,16.381,16.381,0,0,1,4.7-11.65,14.108,14.108,0,0,1,10.4-4.987,9.811,9.811,0,0,1,3.952.768,7.051,7.051,0,0,1,3.69,2.808c.251-2.368,1.93-3.56,5.035-3.56a13.33,13.33,0,0,1,3.685.376,2.7,2.7,0,0,1,1.694,1.333,5.594,5.594,0,0,1,.565,1.694,18.725,18.725,0,0,1,.095,2.2V185.82a18.7,18.7,0,0,1-.095,2.2,5.9,5.9,0,0,1-.533,1.695c-.6,1.1-2.054,1.568-4.359,1.568a8.478,8.478,0,0,1-4.7-.862Zm-3.4-11.909a5.521,5.521,0,0,0,1.568-3.791,5.8,5.8,0,0,0-1.568-3.842,4.922,4.922,0,0,0-4-1.788,5.144,5.144,0,0,0-4.077,1.788,5.759,5.759,0,0,0-1.49,3.857l.006.014a5.33,5.33,0,0,0,1.647,3.8,5.444,5.444,0,0,0,4.014,1.675A5.034,5.034,0,0,0,291.4,178.511Zm97.892-9.721c-5.018-2.681-7.528-5.128-7.528-7.307a10.353,10.353,0,0,1,3.277-7.528,26.191,26.191,0,0,1,3.215-3.136,4.242,4.242,0,0,1,2.681-.878,5.132,5.132,0,0,1,3.137,1.318,18.253,18.253,0,0,0,11.4,3.982,8.216,8.216,0,0,0,6.759-3.277,12.124,12.124,0,0,0,2.618-7.841l-.005-3.277q-4.14,5.457-13.2,5.457t-16.983-8.311a27.959,27.959,0,0,1,0-39.03q7.966-8.4,17.469-8.4a16.361,16.361,0,0,1,6.763,1.358,11.683,11.683,0,0,1,6.006,4.7,6.679,6.679,0,0,1,2.242-4.7,9.642,9.642,0,0,1,6.163-1.569,21.291,21.291,0,0,1,6.272.66,4.612,4.612,0,0,1,2.791,2.227,8.864,8.864,0,0,1,.972,2.791,29.97,29.97,0,0,1,.172,3.716v45.146a25.7,25.7,0,0,1-8.734,20.245,28.99,28.99,0,0,1-19.648,7.7A33.05,33.05,0,0,1,389.29,168.79Zm22.275-43.937a9.2,9.2,0,0,0,2.633-6.272,9.832,9.832,0,0,0-2.524-6.445,8.327,8.327,0,0,0-6.759-3.011,8.8,8.8,0,0,0-6.884,2.948,9.625,9.625,0,0,0-2.619,6.461h0a8.891,8.891,0,0,0,2.791,6.382,9.08,9.08,0,0,0,6.759,2.838A8.515,8.515,0,0,0,411.565,124.853ZM176.478,146.7a24.387,24.387,0,0,1-9.769-7.37,31.363,31.363,0,0,1-6.884-19.758q0-13.752,8.891-21.955a31.365,31.365,0,0,1,22.189-8.233q15.165,0,22.267,10.695a22.215,22.215,0,0,1,3.716,12.341h0q0,6.712-3.324,9.926a10.433,10.433,0,0,1-7.37,3.23H180.348q0,3.059,3.607,5.127a14.321,14.321,0,0,0,7.2,2.07,30.474,30.474,0,0,0,9.942-1.3l1.192-.439a11.081,11.081,0,0,1,4.375-1.207c2.321,0,4.328,1.568,6.007,4.908a12.15,12.15,0,0,1,1.41,5.035q0,9.721-23.254,9.706c-.214,0-.429.006-.642.006A35.163,35.163,0,0,1,176.478,146.7Zm14.094-40.165a10.978,10.978,0,0,0-7.041,2.9,8.094,8.094,0,0,0-3.5,6.163l13.818-.043c2.76,0,4.156-1.16,4.156-3.5a4.925,4.925,0,0,0-1.975-3.952,8.532,8.532,0,0,0-4.949-1.583Q190.827,106.519,190.572,106.534ZM330.885,146.7a24.5,24.5,0,0,1-9.769-7.37,31.36,31.36,0,0,1-6.868-19.758q0-13.752,8.891-21.955a31.359,31.359,0,0,1,22.172-8.233q15.179,0,22.268,10.695a22.221,22.221,0,0,1,3.715,12.341h0q0,6.712-3.341,9.926a10.365,10.365,0,0,1-7.369,3.23H334.728q0,3.058,3.591,5.127a14.332,14.332,0,0,0,7.214,2.07,30.325,30.325,0,0,0,9.926-1.3l1.207-.439a10.983,10.983,0,0,1,4.359-1.207c2.336,0,4.328,1.568,6.007,4.908a12.218,12.218,0,0,1,1.426,5.035q0,9.721-23.255,9.706c-.2,0-.4.005-.606.005A35.179,35.179,0,0,1,330.885,146.7ZM345,106.624a10.978,10.978,0,0,0-7.041,2.9,8.126,8.126,0,0,0-3.481,6.163l13.784-.133c2.759,0,4.14-1.16,4.14-3.5a4.889,4.889,0,0,0-1.913-4.029,8.53,8.53,0,0,0-4.733-1.434Q345.375,106.59,345,106.624Zm333.211,42.347a37.452,37.452,0,0,1-20.245-6.053v0a4.516,4.516,0,0,1-2.07-4.14q0-2.838,4.14-8.625a4.251,4.251,0,0,1,3.874-1.85,15.816,15.816,0,0,1,7.259,2.666,16.791,16.791,0,0,0,8.3,2.681q6.657,0,6.664-2.619,0-2.1-7.323-3.137a35.716,35.716,0,0,1-13.643-5.143,14.531,14.531,0,0,1-5.236-6.163,22.342,22.342,0,0,1-2.07-9.957q0-17.249,23.691-17.249A38.429,38.429,0,0,1,697.479,93.1c2.54,1.16,3.826,2.619,3.826,4.359a12.745,12.745,0,0,1-2.415,6.445c-1.568,2.556-3.23,3.827-4.908,3.827a14.708,14.708,0,0,1-4.862-1.569,18.209,18.209,0,0,0-7.683-1.568q-6.445,0-6.445,2.4,0,3.262,7.417,4.265a40.338,40.338,0,0,1,13.972,4.14,12.39,12.39,0,0,1,5.3,5.3,19.07,19.07,0,0,1,2.133,9.409,20.391,20.391,0,0,1-2.133,9.66,13.768,13.768,0,0,1-5.943,5.944A40.12,40.12,0,0,1,679.82,149Q679.014,149,678.208,148.971Zm-71.769-3.544a31,31,0,0,1-11.4-10.475,27.453,27.453,0,0,1-4.7-15.682,28.225,28.225,0,0,1,9.211-21.541,30,30,0,0,1,41.821,0,29.921,29.921,0,0,1,4.364,37.552,29.478,29.478,0,0,1-11.4,10.365,30.931,30.931,0,0,1-13.925,3.324A29.794,29.794,0,0,1,606.439,145.426Zm6.71-34.259a9.671,9.671,0,0,0-3.434,8.013,9.406,9.406,0,0,0,3.434,7.966l0,0a11.54,11.54,0,0,0,7.088,2.68,11.957,11.957,0,0,0,7.213-2.729,9.5,9.5,0,0,0,3.591-8.076,9.407,9.407,0,0,0-3.371-7.966,11.682,11.682,0,0,0-7.323-2.619A11.416,11.416,0,0,0,613.148,111.167Zm-142.507,37.8a29.631,29.631,0,0,1-13.973-3.544,31.051,31.051,0,0,1-11.416-10.474,27.579,27.579,0,0,1-4.7-15.682A28.225,28.225,0,0,1,449.78,97.72,29.937,29.937,0,0,1,470.747,89.2a29.623,29.623,0,0,1,20.839,8.468,28.228,28.228,0,0,1,9.064,21.5,28.46,28.46,0,0,1-4.7,16.1A29.525,29.525,0,0,1,484.566,145.7a30.813,30.813,0,0,1-13.8,3.262Zm-7.328-37.805a9.672,9.672,0,0,0-3.388,8.013,9.413,9.413,0,0,0,3.5,7.966l0,0a11.619,11.619,0,0,0,7.1,2.681,11.89,11.89,0,0,0,7.2-2.729,9.516,9.516,0,0,0,3.606-8.076,9.409,9.409,0,0,0-3.387-7.967,11.643,11.643,0,0,0-7.307-2.619A11.463,11.463,0,0,0,463.314,111.157Zm72.493,37.4a31.367,31.367,0,0,1-19.539-7.307,26.055,26.055,0,0,1-7.322-9.33,29.215,29.215,0,0,1-2.839-12.89,28.475,28.475,0,0,1,2.839-12.764,26.041,26.041,0,0,1,7.321-9.223,30.473,30.473,0,0,1,19.319-7.214,28.551,28.551,0,0,1,8.076,1.146,26.746,26.746,0,0,1,5.786,2.242l1.741,1.082c1.318.878,2.336,1.568,3.058,2.086a6.27,6.27,0,0,1,2.838,4.971,11.74,11.74,0,0,1-2.289,6.272q-3.935,5.99-7.527,6.006a12.642,12.642,0,0,1-5.9-2.3,7.842,7.842,0,0,0-5.629-1.866,10.548,10.548,0,0,0-6.821,2.619,8.952,8.952,0,0,0-3.168,7.2h0a8.892,8.892,0,0,0,3.136,7.213,9.941,9.941,0,0,0,6.492,2.556,11.371,11.371,0,0,0,6.367-2.038,9.606,9.606,0,0,1,4.861-2.023c2.18,0,4.845,1.929,7.966,5.786a9.522,9.522,0,0,1,2.509,5.677c0,2.759-1.992,5.347-6.007,7.745a25.861,25.861,0,0,1-14.393,4.375Q536.247,148.576,535.807,148.561Zm-244.3-1.162a6.355,6.355,0,0,1-2.729-2.07q-24.573-32.774-32.323-42.794v35.91a31.949,31.949,0,0,1-.158,3.826,8.616,8.616,0,0,1-1.051,2.838q-1.567,2.948-8.515,2.948c-4.5,0-7.276-.988-8.3-2.948a8.881,8.881,0,0,1-1.035-2.948,33.522,33.522,0,0,1-.157-3.826V77.417a13.294,13.294,0,0,1,1.035-6.053,5.219,5.219,0,0,1,3.139-2.577,18.652,18.652,0,0,1,5.348-.643,18.185,18.185,0,0,1,5.189.6,6.782,6.782,0,0,1,2.681,1.364,29,29,0,0,1,2.509,2.838q23.036,31.362,30.782,41.367v-36.9a13.325,13.325,0,0,1,.988-6.053h.012a5.208,5.208,0,0,1,3.137-2.571,17.876,17.876,0,0,1,5.175-.644,18.3,18.3,0,0,1,5.018.549,8.1,8.1,0,0,1,2.854,1.3,4.452,4.452,0,0,1,1.348,2.288,17.084,17.084,0,0,1,.659,5.566v60.593a31.942,31.942,0,0,1-.157,3.826,8.906,8.906,0,0,1-1.035,2.838q-1.569,2.948-8.515,2.948-.5.028-.994.028A17.864,17.864,0,0,1,291.506,147.4Zm273.77-2.292a10.517,10.517,0,0,1-.925-2.838,31.958,31.958,0,0,1-.158-3.827l0-38.318a32.034,32.034,0,0,1,.157-3.763,10.3,10.3,0,0,1,.925-2.885q1.569-2.838,8.515-2.838,5.25,0,7.433,1.85a6.037,6.037,0,0,1,1.96,4.7c.078.736.11,1.787.11,3.136v38.23a31.656,31.656,0,0,1-.157,3.763,8.815,8.815,0,0,1-1.035,2.9c-.957,1.882-3.763,2.838-8.421,2.838S566.29,147.067,565.276,145.107ZM133.757,142.6a16.1,16.1,0,0,1-12.764,5.237q-9.832,0-17.908-8.578a28.729,28.729,0,0,1,0-40q8.265-8.625,17.955-8.626a15.322,15.322,0,0,1,12.545,5.458V73.168a31.271,31.271,0,0,1,.173-3.763,8.984,8.984,0,0,1,.974-2.84,4.7,4.7,0,0,1,2.9-2.273,23.4,23.4,0,0,1,10.976,0,4.7,4.7,0,0,1,2.9,2.289,9.7,9.7,0,0,1,.972,2.9,31.1,31.1,0,0,1,.173,3.763v65.2a31.1,31.1,0,0,1-.173,3.763A7.84,7.84,0,0,1,151.446,145q-1.569,2.948-9.221,2.948T133.757,142.6Zm-3.15-16.71a9.408,9.408,0,0,0,2.7-6.493,10.068,10.068,0,0,0-2.556-6.6,8.593,8.593,0,0,0-6.931-3.14,8.863,8.863,0,0,0-6.994,3,9.9,9.9,0,0,0-2.619,6.618,9.8,9.8,0,0,0,9.689,9.563A8.671,8.671,0,0,0,130.607,125.888Zm-13.61,0h0l0,0ZM568.283,82.12a4.609,4.609,0,0,1-2.885-2.289,9.433,9.433,0,0,1-.988-2.9,31.643,31.643,0,0,1-.157-3.763,31.7,31.7,0,0,1,.155-3.766,9.083,9.083,0,0,1,.925-2.791q1.567-2.931,8.515-2.948c4.6,0,7.354.988,8.311,2.948a8.8,8.8,0,0,1,1.035,2.9,31.657,31.657,0,0,1,.158,3.763,31.657,31.657,0,0,1-.158,3.763,8.75,8.75,0,0,1-1.05,2.838l0,0a4.7,4.7,0,0,1-2.885,2.242,24,24,0,0,1-10.976,0ZM206.99,74.83a3.134,3.134,0,0,1-1.913-1.568,6.107,6.107,0,0,1-.674-1.912,20.047,20.047,0,0,1-.11-2.556V53.614a10.633,10.633,0,0,1-8.468,3.45,16.18,16.18,0,0,1-12.074-5.771,19.272,19.272,0,0,1,0-26.846q5.488-5.755,11.588-5.771t9.032,3.889c.3-2.634,2.242-3.967,5.849-3.967a14.461,14.461,0,0,1,4.2.455,3.136,3.136,0,0,1,1.9,1.568,6.3,6.3,0,0,1,.69,1.913,23.7,23.7,0,0,1,.11,2.54V68.84a24,24,0,0,1-.11,2.556,5.728,5.728,0,0,1-.69,1.866,3.136,3.136,0,0,1-1.945,1.568,12.546,12.546,0,0,1-3.716.455q-.183.006-.367.006A12.065,12.065,0,0,1,206.99,74.83Zm-4.8-32.5a6.275,6.275,0,0,0,1.8-4.36,6.817,6.817,0,0,0-1.694-4.422,5.707,5.707,0,0,0-4.7-2.054,6.039,6.039,0,0,0-4.7,1.976,6.5,6.5,0,0,0-1.8,4.469,6.181,6.181,0,0,0,1.992,4.391h-.007a6.275,6.275,0,0,0,4.61,1.944A5.852,5.852,0,0,0,202.191,42.334Zm76.685,14.833a16.582,16.582,0,0,1-6.712-5.049,21.571,21.571,0,0,1-4.7-13.58,19.6,19.6,0,0,1,6.1-15.117,21.644,21.644,0,0,1,15.259-5.661q10.444,0,15.3,7.355a15.312,15.312,0,0,1,2.54,8.515l0,0a9.11,9.11,0,0,1-2.29,6.821,7.134,7.134,0,0,1-5.064,2.211H281.538A4.125,4.125,0,0,0,284,46.193a10,10,0,0,0,4.954,1.426,20.266,20.266,0,0,0,6.821-.91l.832-.3a7.491,7.491,0,0,1,3-.815c1.568,0,2.979,1.113,4.124,3.371a8.093,8.093,0,0,1,.972,3.45q0,6.68-15.962,6.665-.239,0-.477,0A23.91,23.91,0,0,1,278.877,57.167Zm9.751-27.55a7.556,7.556,0,0,0-4.783,1.991,5.55,5.55,0,0,0-2.4,4.235l9.393,0c1.9,0,2.838-.8,2.838-2.4a3.419,3.419,0,0,0-1.3-2.776,5.868,5.868,0,0,0-3.369-1.063Q288.817,29.6,288.627,29.617ZM146.81,57.166a16.694,16.694,0,0,1-6.711-5.049,21.578,21.578,0,0,1-4.7-13.58,19.62,19.62,0,0,1,6.108-15.1,21.637,21.637,0,0,1,15.32-5.661q10.413,0,15.3,7.354a15.291,15.291,0,0,1,2.467,8.507,9.109,9.109,0,0,1-2.289,6.821,7.136,7.136,0,0,1-5.065,2.211H149.472a4.14,4.14,0,0,0,2.481,3.528,9.909,9.909,0,0,0,4.94,1.426,20.381,20.381,0,0,0,6.836-.91l.815-.3a7.613,7.613,0,0,1,3.011-.815c1.568,0,2.964,1.113,4.124,3.371a8.346,8.346,0,0,1,.972,3.45q0,6.68-15.98,6.664c-.157,0-.314,0-.471,0A23.958,23.958,0,0,1,146.81,57.166Zm9.751-27.55a7.557,7.557,0,0,0-4.846,1.991,5.55,5.55,0,0,0-2.4,4.234l9.455,0q2.851,0,2.855-2.4a3.388,3.388,0,0,0-1.318-2.776A5.829,5.829,0,0,0,156.95,29.6Q156.755,29.6,156.56,29.616Zm413.9,26.695a21.417,21.417,0,0,1-7.841-7.2,18.98,18.98,0,0,1-3.137-10.758,19.355,19.355,0,0,1,6.2-14.831h0a20.6,20.6,0,0,1,28.649,0A19.364,19.364,0,0,1,600.6,38.341a19.49,19.49,0,0,1-3.215,10.977,20.237,20.237,0,0,1-7.763,7.134,21.15,21.15,0,0,1-9.564,2.29A20.392,20.392,0,0,1,570.46,56.311Zm9.506-10.738a8.17,8.17,0,0,0,4.955-1.883,6.553,6.553,0,0,0,2.478-5.55,6.509,6.509,0,0,0-2.336-5.474,8.043,8.043,0,0,0-5.018-1.8,7.834,7.834,0,0,0-5.018,1.882,6.661,6.661,0,0,0-2.336,5.5,6.445,6.445,0,0,0,2.352,5.5l.046-.026A7.841,7.841,0,0,0,579.965,45.573ZM366.953,56.358a21.417,21.417,0,0,1-7.841-7.2A18.965,18.965,0,0,1,355.972,38.4a19.346,19.346,0,0,1,6.183-14.881,20.6,20.6,0,0,1,28.712,0,19.367,19.367,0,0,1,6.272,14.819,19.4,19.4,0,0,1-3.23,10.977,20.109,20.109,0,0,1-7.84,7.119,21.155,21.155,0,0,1-9.565,2.289h-.017A20.382,20.382,0,0,1,366.953,56.358Zm9.41-10.754a8.169,8.169,0,0,0,4.955-1.882,6.554,6.554,0,0,0,2.478-5.551,6.508,6.508,0,0,0-2.336-5.473,8.047,8.047,0,0,0-5.018-1.8,7.843,7.843,0,0,0-5.017,1.882,6.662,6.662,0,0,0-2.337,5.5,6.446,6.446,0,0,0,2.431,5.474l.045-.032A7.843,7.843,0,0,0,376.363,45.6ZM57.455,57.816c-3.842-.5-6.351-1.772-7.5-3.826q-2.086-3.669-2.1-11.651l0-35.739a21.047,21.047,0,0,1,.111-2.587,7.237,7.237,0,0,1,.659-1.992C49.3.674,51.261,0,54.461,0s4.955.674,5.692,2.023a5.965,5.965,0,0,1,.721,2.023,22.18,22.18,0,0,1,.111,2.633V41.4a7.838,7.838,0,0,0,.455,3.4c.3.486.958.721,1.976.721a11.8,11.8,0,0,1,2.07.11,3.7,3.7,0,0,1,1.27.644q1.567.956,1.568,5.315c0,3.137-.5,5.081-1.568,5.771q-1.169.818-4.271.815A42.761,42.761,0,0,1,57.455,57.816Zm192.86-1.486a5.962,5.962,0,0,1-.753-3.136,7.061,7.061,0,0,1-1.348,1.568,16.7,16.7,0,0,1-2.007,1.568,10,10,0,0,1-5.549,1.69,15.933,15.933,0,0,1-12.545-5.739A20.574,20.574,0,0,1,223.126,38.3V25.1a24.693,24.693,0,0,1,.11-2.619,7.443,7.443,0,0,1,.643-1.96c.706-1.349,2.65-2.023,5.849-2.023,3.5,0,5.55.958,6.147,2.854a11.8,11.8,0,0,1,.454,3.827V38.3a6.38,6.38,0,0,0,1.756,4.8,6.509,6.509,0,0,0,4.7,1.725,6.589,6.589,0,0,0,4.8-1.8,6.274,6.274,0,0,0,1.835-4.7V25.09a21.207,21.207,0,0,1,.11-2.587,6.184,6.184,0,0,1,.706-1.976c.66-1.3,2.587-1.96,5.786-1.96s5.065.674,5.771,2.023a7.249,7.249,0,0,1,.644,1.991,25.094,25.094,0,0,1,.11,2.587v26.58a23.838,23.838,0,0,1-.11,2.509,5.187,5.187,0,0,1-.721,1.913c-.753,1.3-2.666,1.96-5.771,1.96S251.022,57.518,250.315,56.33Zm-214,1.785H6.617c-3.466,0-5.55-.941-6.147-2.838a11.909,11.909,0,0,1-.459-3.828V9.754c0-2.556.471-4.3,1.427-5.219s2.748-1.4,5.4-1.4H36.38a21.053,21.053,0,0,1,2.587.11,6.281,6.281,0,0,1,1.991.707c1.4.752,2.023,2.666,2.023,5.864,0,3.514-.925,5.551-2.777,6.163a12.548,12.548,0,0,1-3.889.439H13.281v7.574h14.85a20.354,20.354,0,0,1,2.587.124,5.562,5.562,0,0,1,1.992.707c1.348.706,2.022,2.65,2.022,5.849,0,3.5-.94,5.551-2.854,6.147a12.553,12.553,0,0,1-3.889.455H13.281v7.574h23.1a20.87,20.87,0,0,1,2.587.11,6.281,6.281,0,0,1,1.991.706c1.349.706,2.023,2.65,2.023,5.848,0,3.514-.925,5.551-2.776,6.163a12.547,12.547,0,0,1-3.337.451Q36.593,58.127,36.317,58.115Zm493.516-1.3a4.479,4.479,0,0,1-1.349-3.23V25.09a21.235,21.235,0,0,1,.11-2.587,5.908,5.908,0,0,1,.626-1.913c.707-1.349,2.651-2.023,5.849-2.023s4.877.58,5.63,1.725a4.344,4.344,0,0,1,.831,2.478,14.045,14.045,0,0,1,1.082-1.286,14.807,14.807,0,0,1,3.1-1.991,8.763,8.763,0,0,1,4.077-1.27,19.553,19.553,0,0,1,2.964.188,18.76,18.76,0,0,1,2.572.643h0a5.106,5.106,0,0,1,2.353,1.568,5.253,5.253,0,0,1,.94,3.481,11.8,11.8,0,0,1-1.426,5.253,4.471,4.471,0,0,1-4.124,2.854,5.8,5.8,0,0,1-2.587-.608,7.617,7.617,0,0,0-3.261-.6,5.828,5.828,0,0,0-3.779,1.427,4.31,4.31,0,0,0-1.772,3.451V51.56a21.043,21.043,0,0,1-.11,2.587,6.279,6.279,0,0,1-.707,1.992q-1.129,1.949-5.849,1.944-.357.031-.713.031A8.3,8.3,0,0,1,529.833,56.813Zm-64.118-.723a6.8,6.8,0,0,1-.643-1.944,21.263,21.263,0,0,1-.11-2.633l0-26.312a21.207,21.207,0,0,1,.11-2.587,6.786,6.786,0,0,1,.643-1.993c.69-1.3,2.651-1.944,5.849-1.944a7.957,7.957,0,0,1,5.1,1.27,4.144,4.144,0,0,1,1.349,3.23c0,.5.077,1.223.077,2.165V51.591a20.88,20.88,0,0,1-.11,2.587,5.966,5.966,0,0,1-.721,1.991c-.643,1.3-2.572,1.944-5.771,1.944S466.4,57.439,465.715,56.09Zm19.112-.032a6.589,6.589,0,0,1-.627-1.976,20.692,20.692,0,0,1-.125-2.587V6.68a20.349,20.349,0,0,1,.125-2.587,5.8,5.8,0,0,1,.627-1.913q1.058-2.024,5.85-2.022c3.2,0,5.049.673,5.707,2.022a6.163,6.163,0,0,1,.721,1.976,21.222,21.222,0,0,1,.11,2.587V22.424a10.446,10.446,0,0,1,8.547-3.749A16.623,16.623,0,0,1,518.009,24.6a19.71,19.71,0,0,1,0,27.473q-5.5,5.944-11.886,5.944c-4.25,0-7.259-1.207-9.064-3.607-.408,2.446-2.556,3.685-6.461,3.685C487.463,58.1,485.533,57.407,484.827,56.058ZM503.8,44.927a6.842,6.842,0,0,0,6.665-6.523,6.735,6.735,0,0,0-1.8-4.547,6.083,6.083,0,0,0-4.8-2.054,5.863,5.863,0,0,0-4.7,2.1,6.888,6.888,0,0,0-1.756,4.532,6.471,6.471,0,0,0,1.788,4.452h-.006A5.926,5.926,0,0,0,503.8,44.927ZM91.764,55.292a12.735,12.735,0,0,1-.438-3.9V9.753a20.878,20.878,0,0,1,.11-2.588,6.262,6.262,0,0,1,.706-1.992c.738-1.348,2.682-2.038,5.882-2.038H114.08a20.835,20.835,0,0,1,12.827,4.8,17.4,17.4,0,0,1,5.018,6.318A19.8,19.8,0,0,1,133.87,23.1a19.607,19.607,0,0,1-1.944,8.813,17.475,17.475,0,0,1-5.018,6.272A20.916,20.916,0,0,1,114,42.983h-9.409v8.483a21.41,21.41,0,0,1-.111,2.587,6.17,6.17,0,0,1-.706,1.976c-.706,1.349-2.65,2.038-5.849,2.038C94.415,58.068,92.376,57.143,91.764,55.292ZM104.671,29.7h9.41a7.3,7.3,0,0,0,4.422-1.647A5.879,5.879,0,0,0,120.76,23.1a5.956,5.956,0,0,0-2.18-4.987,7.261,7.261,0,0,0-4.5-1.695h-9.41ZM338.288,55.274a12.342,12.342,0,0,1-.455-3.826V38.25a6.384,6.384,0,0,0-1.756-4.8,7.307,7.307,0,0,0-9.517.078,6.271,6.271,0,0,0-1.85,4.7V51.5a21.079,21.079,0,0,1-.094,2.6,5.42,5.42,0,0,1-.707,1.912c-.659,1.351-2.572,2.04-5.771,2.04s-5.081-.69-5.786-2.039a6.573,6.573,0,0,1-.626-1.975,20.513,20.513,0,0,1-.128-2.586V24.9a19.634,19.634,0,0,1,.125-2.509,5.14,5.14,0,0,1,.707-1.913c.706-1.254,2.619-1.882,5.771-1.882s4.924.58,5.63,1.725a5.961,5.961,0,0,1,.752,3.136,7.986,7.986,0,0,1,1.349-1.568,14.822,14.822,0,0,1,2.023-1.568,9.849,9.849,0,0,1,5.551-1.725h0a15.837,15.837,0,0,1,12.545,5.739,20.568,20.568,0,0,1,4.987,13.988V51.512a20.88,20.88,0,0,1-.11,2.588,6.281,6.281,0,0,1-.643,1.912c-.69,1.349-2.65,2.039-5.849,2.039C340.89,58.051,338.835,57.126,338.288,55.274Zm116.231,2.7H427.544c-3.513,0-5.551-.941-6.147-2.838a11.456,11.456,0,0,1-.455-3.826V9.754a20.88,20.88,0,0,1,.11-2.587,6.265,6.265,0,0,1,.784-1.991c.706-1.349,2.65-2.023,5.849-2.023,3.513,0,5.582.925,6.272,2.776a14.831,14.831,0,0,1,.376,3.889l-.126,37.224h20.385a8.564,8.564,0,0,1,3.606.565,2.883,2.883,0,0,1,1.49,1.772,11.006,11.006,0,0,1,.376,3.136,11.012,11.012,0,0,1-.376,3.137,2.588,2.588,0,0,1-1.27,1.568,8.473,8.473,0,0,1-3.509.761Q454.715,57.981,454.519,57.972ZM331.736,12.826a17.681,17.681,0,0,1-2.776-1.944,3.011,3.011,0,0,0-1.757-.988,2.73,2.73,0,0,0-1.944.909c-1.159,1.992-2.21,3-3.136,3a5.811,5.811,0,0,1-3.513-1.8q-2.071-1.787-2.07-2.964a4.087,4.087,0,0,1,.6-2.132c.409-.643.674-1.114.832-1.381A11.488,11.488,0,0,1,319.054,4.1a14.127,14.127,0,0,1,1.912-1.835,9.7,9.7,0,0,1,5.724-2.1,9.4,9.4,0,0,1,4.7.925,15.374,15.374,0,0,1,2.633,1.882,3,3,0,0,0,1.725.941A2.416,2.416,0,0,0,337.71,3c1.019-1.9,2.164-2.838,3.37-2.838a4.889,4.889,0,0,1,2.7,1.113l0,.072c1.8,1.254,2.7,2.462,2.7,3.607a3.872,3.872,0,0,1-.6,2.022c-.408.643-.674,1.113-.831,1.381A11.951,11.951,0,0,1,344,9.832a11.655,11.655,0,0,1-1.866,1.867,9.627,9.627,0,0,1-5.786,2.1q-.212.01-.424.01A9.417,9.417,0,0,1,331.736,12.826Zm139.774.472a12.988,12.988,0,0,1-3.778-.439,3.139,3.139,0,0,1-1.992-1.568,6.572,6.572,0,0,1-.674-1.976,21.4,21.4,0,0,1-.11-2.587,21.047,21.047,0,0,1,.11-2.588,5.864,5.864,0,0,1,.674-1.96C466.4.831,468.358.157,471.559.157s5.049.673,5.692,2.022a5.863,5.863,0,0,1,.721,1.976,21.408,21.408,0,0,1,.111,2.587,20.944,20.944,0,0,1-.111,2.667,6.077,6.077,0,0,1-.673,1.882h0a3.216,3.216,0,0,1-1.992,1.568,13.137,13.137,0,0,1-3.394.445Q471.713,13.3,471.509,13.3Z" transform="translate(6834 5502)"/>
</svg>
