<svg id="Group_2975" data-name="Group 2975" xmlns="http://www.w3.org/2000/svg" viewBox="-8351.221 -1642.433 926.874 558.433">
  <defs>
    <style>
      .cls-1 {
        opacity: 0.95;
      }

      .cls-2 {
        fill: #f73939;
      }

      .cls-3 {
        fill: #ffd3ae;
      }

      .cls-4, .cls-5 {
        fill: #333;
      }

      .cls-4, .cls-8 {
        opacity: 0.44;
      }

      .cls-6 {
        fill: #fff;
      }

      .cls-7 {
        fill: #665a52;
      }

      .cls-9 {
        fill: #2ecc71;
      }

      .cls-10 {
        fill: #f7b239;
      }

      .cls-11 {
        fill: #413933;
      }

      .cls-12 {
        fill: #ffb61e;
      }

      .cls-13 {
        fill: #666;
      }
    </style>
  </defs>
  <g id="Group_2971" data-name="Group 2971" class="cls-1" transform="translate(-8432.221 -1650.319)">
    <g id="boy-1" transform="translate(81 342.662)">
      <path id="Path_562" data-name="Path 562" class="cls-2" d="M296.11,241.969c.232.061.477.11.709.171a108.311,108.311,0,0,1,82.668,105.2V451.184H91.984V347.341a108.29,108.29,0,0,1,82.656-105.2c.232-.061.477-.11.709-.171" transform="translate(-28.393 -234.867)"/>
      <path id="Path_563" data-name="Path 563" class="cls-3" d="M149.514,296.608V448.292H91.984V344.45a108.114,108.114,0,0,1,47.389-89.531A90.148,90.148,0,0,1,149.514,296.608Z" transform="translate(-28.393 -231.975)"/>
      <path id="Path_564" data-name="Path 564" class="cls-3" d="M337.517,344.45V448.292H279.975V296.608a90.147,90.147,0,0,1,10.141-41.689A108.128,108.128,0,0,1,337.517,344.45Z" transform="translate(13.579 -231.975)"/>
      <path id="Path_565" data-name="Path 565" class="cls-3" d="M281.734,242.14v16.891a61.09,61.09,0,0,1-122.179,0V242.14c.232-.061.477-.11.71-.171a108.34,108.34,0,0,0,120.76,0C281.256,242.03,281.5,242.079,281.734,242.14Z" transform="translate(-13.307 -234.867)"/>
      <path id="Path_566" data-name="Path 566" class="cls-4" d="M279.826,242.764a108.709,108.709,0,0,1-34.79,39.083c-.232.171-.477.33-.709.489a107.764,107.764,0,0,1-60.38,18.386c-7.951,0-7.666-8.9-15.128-10.536-.807-3.951-9.264-9.134-9.264-13.318V242.14c.232-.061.477-.11.71-.171a108.345,108.345,0,0,0,119.562.8Z" transform="translate(-13.307 -234.867)"/>
      <path id="Path_567" data-name="Path 567" class="cls-5" d="M221.983,327.55a68.507,68.507,0,0,1-68.429-68.429V241.569h14.679V259.12a53.75,53.75,0,0,0,107.5,0V241.569h14.679V259.12A68.506,68.506,0,0,1,221.983,327.55Z" transform="translate(-14.646 -234.956)"/>
      <path id="Path_568" data-name="Path 568" class="cls-2" d="M337.517,344.45V368.78H279.975V296.608a90.147,90.147,0,0,1,10.141-41.689A108.128,108.128,0,0,1,337.517,344.45Z" transform="translate(13.579 -231.975)"/>
      <path id="Path_569" data-name="Path 569" class="cls-2" d="M149.514,296.608V368.78H91.984V344.45a108.114,108.114,0,0,1,47.389-89.531A90.148,90.148,0,0,1,149.514,296.608Z" transform="translate(-28.393 -231.975)"/>
      <path id="Path_570" data-name="Path 570" class="cls-5" d="M288.653,448.91H273.974V297.225a98.148,98.148,0,0,1,10.968-45.072l13.025,6.768a82.252,82.252,0,0,0-9.314,38.3Z" transform="translate(12.239 -232.593)"/>
      <rect id="Rectangle_48" data-name="Rectangle 48" class="cls-5" width="57.53" height="14.679" transform="translate(295.193 129.465)"/>
      <path id="Path_571" data-name="Path 571" class="cls-6" d="M308.355,407.706a7.34,7.34,0,0,1-7.34-7.34V367.339a7.34,7.34,0,1,1,14.679,0v33.028A7.34,7.34,0,0,1,308.355,407.706Z" transform="translate(18.276 -208.515)"/>
      <g id="Group_180" data-name="Group 180" transform="translate(63.591 22.944)">
        <path id="Path_572" data-name="Path 572" class="cls-4" d="M145.416,269.6a107.909,107.909,0,0,0-30.043,74.851V368.78H91.984V344.45a108.114,108.114,0,0,1,47.389-89.531A90.175,90.175,0,0,1,145.416,269.6Z" transform="translate(-91.984 -254.919)"/>
        <rect id="Rectangle_49" data-name="Rectangle 49" class="cls-4" width="20.343" height="79.512" transform="translate(1.305 113.861)"/>
      </g>
      <path id="Path_573" data-name="Path 573" class="cls-5" d="M380.828,459.819H93.324a7.339,7.339,0,0,1-7.34-7.34V348.637A115.632,115.632,0,0,1,174.2,236.316c.16-.04.323-.08.486-.117l.146-.034,3.731,14.2c-.188.05-.38.1-.574.139l-.146.034-.135.034a100.949,100.949,0,0,0-77.042,98.066v96.5H373.487v-96.5a100.971,100.971,0,0,0-77.053-98.067c-.05-.012-.1-.024-.149-.038l-.135-.032c-.19-.044-.38-.089-.566-.138l3.732-14.2-1.865,7.1,1.858-7.1.146.034c.165.038.329.077.488.117a115.649,115.649,0,0,1,88.225,112.32V452.48A7.34,7.34,0,0,1,380.828,459.819Z" transform="translate(-29.732 -236.163)"/>
      <path id="Path_574" data-name="Path 574" class="cls-5" d="M149.393,448.91H134.714V297.225a82.26,82.26,0,0,0-9.314-38.3l13.025-6.768a98.145,98.145,0,0,1,10.968,45.072Z" transform="translate(-20.932 -232.593)"/>
      <rect id="Rectangle_50" data-name="Rectangle 50" class="cls-5" width="57.53" height="14.679" transform="translate(63.591 129.465)"/>
      <g id="Group_181" data-name="Group 181" transform="translate(164.716 134.865)">
        <path id="Path_575" data-name="Path 575" class="cls-6" d="M219.026,427.486a36.7,36.7,0,1,1,25.95-62.647h0a36.7,36.7,0,0,1-25.95,62.647Zm0-58.717a22.016,22.016,0,1,0,15.571,6.449h0A21.872,21.872,0,0,0,219.026,368.769Z" transform="translate(-172.938 -344.699)"/>
        <path id="Path_576" data-name="Path 576" class="cls-6" d="M186.147,431.66a11.13,11.13,0,0,1-8.223-3.262c-6.275-6.274-3.543-17.2,8.356-33.407a7.34,7.34,0,0,1,11.833,8.688,70.641,70.641,0,0,0-7.277,11.8,61.719,61.719,0,0,0,8.766-5.117,150.665,150.665,0,0,0,21.14-17.861,150.588,150.588,0,0,0,17.852-21.128,61.874,61.874,0,0,0,5.124-8.777,70.59,70.59,0,0,0-11.8,7.277,7.34,7.34,0,1,1-8.688-11.833c16.208-11.9,27.134-14.63,33.409-8.355,5.806,5.8,3.873,15.6-5.908,29.945a165.142,165.142,0,0,1-19.609,23.25A165.176,165.176,0,0,1,207.859,422.5C198.89,428.614,191.7,431.659,186.147,431.66Z" transform="translate(-174.652 -346.413)"/>
      </g>
      <g id="Group_182" data-name="Group 182" transform="translate(0 208.977)">
        <path id="Path_577" data-name="Path 577" class="cls-5" d="M401.006,421.678H79.569a7.34,7.34,0,1,1,0-14.679H401.006a7.34,7.34,0,1,1,0,14.679Z" transform="translate(-32.803 -406.999)"/>
        <path id="Path_578" data-name="Path 578" class="cls-5" d="M376.8,421.678H363.34a7.34,7.34,0,0,1,0-14.679H376.8a7.34,7.34,0,1,1,0,14.679Z" transform="translate(30.552 -406.999)"/>
        <path id="Path_579" data-name="Path 579" class="cls-5" d="M60.794,421.678H47.339a7.34,7.34,0,1,1,0-14.679H60.794a7.34,7.34,0,1,1,0,14.679Z" transform="translate(-39.999 -406.999)"/>
      </g>
    </g>
    <g id="Group_2739" data-name="Group 2739" transform="translate(161.094 65.974)">
      <g id="Group_2273" data-name="Group 2273" transform="translate(0 144.373)">
        <g id="Group_2271" data-name="Group 2271" transform="translate(6.462 6.417)">
          <ellipse id="Ellipse_337" data-name="Ellipse 337" class="cls-3" cx="30.036" cy="29.83" rx="30.036" ry="29.83"/>
          <ellipse id="Ellipse_338" data-name="Ellipse 338" class="cls-3" cx="30.036" cy="29.83" rx="30.036" ry="29.83" transform="translate(173.531)"/>
        </g>
        <g id="Group_2272" data-name="Group 2272">
          <path id="Path_5915" data-name="Path 5915" class="cls-5" d="M151.534,224.606a36.249,36.249,0,1,1,36.5-36.248A36.414,36.414,0,0,1,151.534,224.606Zm0-59.661a23.413,23.413,0,1,0,23.575,23.413A23.521,23.521,0,0,0,151.534,164.946Z" transform="translate(-115.037 -152.111)"/>
          <path id="Path_5916" data-name="Path 5916" class="cls-5" d="M312.67,224.606a36.249,36.249,0,1,1,36.5-36.248A36.415,36.415,0,0,1,312.67,224.606Zm0-59.661a23.413,23.413,0,1,0,23.574,23.413A23.522,23.522,0,0,0,312.67,164.946Z" transform="translate(-102.641 -152.111)"/>
        </g>
      </g>
      <path id="Path_5917" data-name="Path 5917" class="cls-3" d="M289.461,298.387a95.926,95.926,0,0,1-106.314,0c-.2-.139-.42-.278-.625-.428a94.377,94.377,0,0,1-41.526-78.153V140.658C140.995,88.381,183.666,46,236.3,46h0c52.637,0,95.308,42.38,95.308,94.657v79.148a94.377,94.377,0,0,1-41.526,78.153C289.88,298.109,289.665,298.248,289.461,298.387Z" transform="translate(-113.04 -15.12)"/>
      <path id="Path_5918" data-name="Path 5918" class="cls-5" d="M236.765,319.065A101.8,101.8,0,0,1,180,301.9l-.183-.124c-.187-.125-.375-.252-.56-.384a100.916,100.916,0,0,1-44.262-83.4V138.843C134.994,83.111,180.648,50,236.764,50s101.77,33.11,101.77,88.842v79.148a100.915,100.915,0,0,1-44.259,83.394c-.186.134-.377.262-.564.388l-.14.094-.042.029A101.786,101.786,0,0,1,236.765,319.065Zm0-256.229c-48.99,0-88.847,27.351-88.847,76.007v79.148a88.108,88.108,0,0,0,38.715,72.858c.061.042.12.083.18.126.075.056.156.107.234.159l.211.142a89.431,89.431,0,0,0,99.056-.029l.391-.264c.056-.041.134-.1.192-.135a88.108,88.108,0,0,0,38.716-72.858V138.843C325.612,90.187,285.754,62.836,236.765,62.836Z" transform="translate(-113.502 -13.305)"/>
      <g id="Group_2274" data-name="Group 2274" transform="translate(82.76 189.653)">
        <path id="Path_5919" data-name="Path 5919" class="cls-5" d="M198.347,207.272a6.533,6.533,0,0,1-4.566-1.872,6.386,6.386,0,0,1,0-9.081,6.554,6.554,0,0,1,5.826-1.754,6.923,6.923,0,0,1,1.217.364,6.844,6.844,0,0,1,1.109.588,5.917,5.917,0,0,1,.98.8,6.374,6.374,0,0,1,.808.973,6.507,6.507,0,0,1,.592,1.112,5.92,5.92,0,0,1,.366,1.2,6.172,6.172,0,0,1,.129,1.251,6.275,6.275,0,0,1-.129,1.262,5.918,5.918,0,0,1-.366,1.2,6.033,6.033,0,0,1-.592,1.1,6.456,6.456,0,0,1-.808.984A6.533,6.533,0,0,1,198.347,207.272Z" transform="translate(-191.885 -194.445)"/>
        <path id="Path_5920" data-name="Path 5920" class="cls-5" d="M266.347,207.272a7.084,7.084,0,0,1-1.26-.118,6.84,6.84,0,0,1-1.206-.374,6.2,6.2,0,0,1-1.12-.588,6.217,6.217,0,0,1-1.788-1.776,6.038,6.038,0,0,1-.592-1.1,5.917,5.917,0,0,1-.366-1.2,6.28,6.28,0,0,1-.129-1.262,6.176,6.176,0,0,1,.129-1.251,5.919,5.919,0,0,1,.366-1.2,6.508,6.508,0,0,1,.592-1.112,6.369,6.369,0,0,1,.808-.973,5.918,5.918,0,0,1,.98-.8,6.947,6.947,0,0,1,1.12-.588,6.808,6.808,0,0,1,1.206-.364,6.554,6.554,0,0,1,5.826,1.754,6.365,6.365,0,0,1,.808.973,6.5,6.5,0,0,1,.592,1.112,5.922,5.922,0,0,1,.366,1.2,6.176,6.176,0,0,1,.129,1.251,6.28,6.28,0,0,1-.129,1.262,5.92,5.92,0,0,1-.366,1.2,6.035,6.035,0,0,1-.592,1.1,6.448,6.448,0,0,1-.808.984A6.532,6.532,0,0,1,266.347,207.272Z" transform="translate(-186.654 -194.445)"/>
      </g>
      <g id="Group_2275" data-name="Group 2275" transform="translate(65.826 173.49)">
        <path id="Path_5921" data-name="Path 5921" class="cls-5" d="M226.121,222.83a6.441,6.441,0,0,1-6.462-6.417v-18.03a6.243,6.243,0,0,0-6.258-6.214H182.623a6.418,6.418,0,1,1,0-12.835H213.4a19.137,19.137,0,0,1,19.181,19.049v18.03A6.44,6.44,0,0,1,226.121,222.83Z" transform="translate(-176.161 -179.334)"/>
        <path id="Path_5922" data-name="Path 5922" class="cls-5" d="M279.136,192.17H253.29a6.418,6.418,0,1,1,0-12.835h25.846a6.418,6.418,0,1,1,0,12.835Z" transform="translate(-170.725 -179.334)"/>
      </g>
      <path id="Path_5923" data-name="Path 5923" class="cls-4" d="M216.531,298.052A95.348,95.348,0,0,0,253,312.683a96.387,96.387,0,0,1-16.692,1.444,95.335,95.335,0,0,1-53.157-16.076c-.2-.139-.42-.278-.625-.428a94.377,94.377,0,0,1-41.526-78.153V195.4c0-148.67,59.113-146.853,59.113-143.762L188.925,68.55c-16.546,25.014-12.759,36.949,2.691,61.611,2.609,4.166,7.208,38.421,7.067,41.707-.52,12.075-9.909,22.846-22.979,23.5q-.658.034-1.324.033V219.47a94.377,94.377,0,0,0,41.526,78.153C216.111,297.773,216.326,297.912,216.531,298.052Z" transform="translate(-113.04 -14.784)"/>
      <g id="Group_2276" data-name="Group 2276" transform="translate(23.971 6.421)">
        <path id="Path_5924" data-name="Path 5924" class="cls-7" d="M175.207,119.455a48,48,0,0,1-36.766,44.184c-.183-23.638,2.574-59.332,2.908-65.953,1.96-39.424,41.451-41.48,59.78-43.619a48.221,48.221,0,0,1,5.643-.332c21.829-.043,42.765-7.765,60.534-20.343a67.57,67.57,0,0,1,37.876-12.375c34.483-.652,64.2,6.807,68.17,40.82A67.2,67.2,0,0,1,311,136.44a67.879,67.879,0,0,1-20.02-1.6c-25.868-6.022-52.576-6.717-79-3.925-.614.064-1.228.118-1.852.16A48.338,48.338,0,0,1,175.207,119.455Z" transform="translate(-138.432 -20.979)"/>
      </g>
      <g id="Group_2277" data-name="Group 2277" class="cls-8" transform="translate(21.525 36.725)">
        <path id="Path_5925" data-name="Path 5925" class="cls-5" d="M180.73,83.991c1.96-39.424,41.451-32.917,59.78-35.056,1.906-.225-11.909-.374-33.738-.332a48.219,48.219,0,0,0-5.643.332c-18.329,2.139-57.82-4.368-59.78,35.056-.334,6.621-3.091,54.548-2.908,78.185a47.994,47.994,0,0,0,36.766-44.184q1.774,1.527,3.692,2.879C179.65,103.4,180.547,87.589,180.73,83.991Z" transform="translate(-138.432 -48.596)"/>
      </g>
      <path id="Path_5926" data-name="Path 5926" class="cls-5" d="M138.9,170.474a6.486,6.486,0,0,1-3.976-1.359,6.408,6.408,0,0,1-2.486-5.009c-.164-21.217,2.01-61.659,2.725-74.948.088-1.647.155-2.878.192-3.608,1.552-31.227,24.807-32.692,65.479-37.439a54.857,54.857,0,0,1,6.4-.375c19.5-.039,39.138-6.661,56.784-19.152a74.015,74.015,0,0,1,41.5-13.565c18.306-.35,40.9,1.214,54.8,13.277s17.809,15.18,19.916,33.22A73.5,73.5,0,0,1,345.147,132.8a74.425,74.425,0,0,1-55.181,8.7c-23.354-5.437-49.209-6.712-76.847-3.793-.7.073-1.388.134-2.09.182a54.677,54.677,0,0,1-30.571-6.843,54.79,54.79,0,0,1-40.037,39.247A6.494,6.494,0,0,1,138.9,170.474Zm168-142.633c-.379,0-.754,0-1.134.011a61.084,61.084,0,0,0-34.248,11.184c-19.841,14.045-42.066,21.492-64.272,21.535a41.945,41.945,0,0,0-4.895.287c-23.826,2.781-52.543-5.734-54.088,25.33-.038.741-.106,1.988-.195,3.655-.616,11.474-2.329,43.339-2.66,65.146a41.684,41.684,0,0,0,23.8-35.425,6.418,6.418,0,0,1,3.914-5.591,6.5,6.5,0,0,1,6.774,1.051,41.754,41.754,0,0,0,30.24,10.061c.543-.037,1.079-.084,1.616-.14,29.078-3.072,56.385-1.706,81.154,4.059a61.425,61.425,0,0,0,45.521-7.168,60.667,60.667,0,0,0,28.961-58.842C363.865,32.789,337.407,27.841,306.9,27.841Z" transform="translate(-113.699 -14.976)"/>
      <path id="Path_5927" data-name="Path 5927" class="cls-6" d="M5.188,67.566A5.186,5.186,0,0,1,.753,65.089a5.126,5.126,0,0,1,1.741-7.07,33.2,33.2,0,0,0,15.841-32.2,32.833,32.833,0,0,0-7.5-17.369A5.122,5.122,0,0,1,11.487,1.2a5.208,5.208,0,0,1,7.3.651,43.069,43.069,0,0,1,9.842,22.781A43.5,43.5,0,0,1,7.871,66.819,5.188,5.188,0,0,1,5.188,67.566Z" transform="matrix(0.996, -0.087, 0.087, 0.996, 218.376, 27.78)"/>
      <path id="Path_5929" data-name="Path 5929" class="cls-5" d="M179.5,115.2H166.58l12.923-.011Z" transform="translate(-111.072 -10.306)"/>
      <path id="Path_5930" data-name="Path 5930" class="cls-6" d="M300.462,224.288A6.441,6.441,0,0,1,294,217.871V149.418a6.462,6.462,0,0,1,12.923,0v68.452A6.439,6.439,0,0,1,300.462,224.288Z" transform="translate(-101.269 -8.372)"/>
      <path id="Path_5937" data-name="Path 5937" class="cls-5" d="M230.279,240.516a76.045,76.045,0,0,1-15.693-1.645,6.419,6.419,0,1,1,2.679-12.556,62.776,62.776,0,0,0,26.027,0,6.419,6.419,0,1,1,2.679,12.556A75.972,75.972,0,0,1,230.279,240.516Z" transform="translate(-104.851 17.683)"/>
    </g>
  </g>
  <g id="Group_2972" data-name="Group 2972" class="cls-1" transform="translate(-7813.874 -1584.683)">
    <g id="Group_198" data-name="Group 198" transform="translate(0 289.591)">
      <path id="Path_581" data-name="Path 581" class="cls-5" d="M338.575,355.973H301.564V421.5h49.65V368.613A12.64,12.64,0,0,0,338.575,355.973Z" transform="translate(-1.015 -218.305)"/>
      <path id="Path_582" data-name="Path 582" class="cls-5" d="M352.109,429.292h-49.65a6.9,6.9,0,0,1-6.894-6.894v-65.53a6.9,6.9,0,0,1,6.894-6.894h37.011A19.556,19.556,0,0,1,359,369.507V422.4A6.9,6.9,0,0,1,352.109,429.292ZM309.353,415.5h35.862v-46a5.752,5.752,0,0,0-5.745-5.745H309.353Z" transform="translate(-1.91 -219.2)"/>
      <path id="Path_585" data-name="Path 585" class="cls-9" d="M283.728,241.969c.218.057.448.1.666.161a101.74,101.74,0,0,1,77.653,98.818v97.543H91.986V340.948a101.72,101.72,0,0,1,77.641-98.818c.218-.057.448-.1.666-.161" transform="translate(-32.253 -235.298)"/>
      <path id="Path_586" data-name="Path 586" class="cls-3" d="M146.026,294.079V436.561H91.986V339.018a101.555,101.555,0,0,1,44.514-84.1A84.679,84.679,0,0,1,146.026,294.079Z" transform="translate(-32.253 -233.367)"/>
      <path id="Path_587" data-name="Path 587" class="cls-3" d="M334.027,339.018v97.543H279.976V294.079a84.678,84.678,0,0,1,9.526-39.16A101.565,101.565,0,0,1,334.027,339.018Z" transform="translate(-4.233 -233.367)"/>
      <path id="Path_588" data-name="Path 588" class="cls-9" d="M334.027,339.018v22.855H279.976V294.079a84.678,84.678,0,0,1,9.526-39.16A101.565,101.565,0,0,1,334.027,339.018Z" transform="translate(-4.233 -233.367)"/>
      <path id="Path_589" data-name="Path 589" class="cls-9" d="M146.026,294.079v67.794H91.986V339.018a101.555,101.555,0,0,1,44.514-84.1A84.679,84.679,0,0,1,146.026,294.079Z" transform="translate(-32.253 -233.367)"/>
      <rect id="Rectangle_51" data-name="Rectangle 51" class="cls-5" width="54.04" height="13.789" transform="translate(277.283 121.611)"/>
      <path id="Path_590" data-name="Path 590" class="cls-6" d="M307.91,404.812a6.9,6.9,0,0,1-6.894-6.894V366.893a6.894,6.894,0,0,1,13.789,0v31.024A6.9,6.9,0,0,1,307.91,404.812Z" transform="translate(-1.097 -217.705)"/>
      <g id="Group_187" data-name="Group 187" transform="translate(59.734 21.552)">
        <path id="Path_591" data-name="Path 591" class="cls-4" d="M142.177,268.708a101.362,101.362,0,0,0-28.221,70.31v22.855H91.987V339.018a101.555,101.555,0,0,1,44.514-84.1A85.011,85.011,0,0,1,142.177,268.708Z" transform="translate(-91.987 -254.919)"/>
        <rect id="Rectangle_52" data-name="Rectangle 52" class="cls-4" width="19.109" height="74.688" transform="translate(1.225 106.953)"/>
      </g>
      <path id="Path_592" data-name="Path 592" class="cls-5" d="M362.941,446.25H92.88a6.9,6.9,0,0,1-6.894-6.894V341.813a108.616,108.616,0,0,1,82.862-105.507c.149-.038.3-.074.453-.109l.137-.032,3.512,13.334c-.178.047-.361.091-.546.133l-.137.032-.124.031a94.825,94.825,0,0,0-72.367,92.117v90.65H356.048V341.813A94.845,94.845,0,0,0,283.669,249.7l-.14-.036-.126-.03c-.178-.041-.357-.084-.532-.13l3.5-13.338.137.032c.156.036.311.072.463.111a108.632,108.632,0,0,1,82.868,105.5v97.545A6.9,6.9,0,0,1,362.941,446.25Z" transform="translate(-33.147 -236.163)"/>
      <path id="Path_593" data-name="Path 593" class="cls-5" d="M147.939,436.973H134.151V294.491A77.28,77.28,0,0,0,125.4,258.51l12.235-6.358a92.2,92.2,0,0,1,10.3,42.338Z" transform="translate(-27.272 -233.78)"/>
      <rect id="Rectangle_53" data-name="Rectangle 53" class="cls-5" width="54.04" height="13.789" transform="translate(59.733 121.611)"/>
      <path id="Path_598" data-name="Path 598" class="cls-3" d="M274.323,242.13v20.556a57.383,57.383,0,1,1-114.767,0V242.13c.218-.057.448-.1.666-.161a101.767,101.767,0,0,0,113.434,0C273.875,242.026,274.1,242.072,274.323,242.13Z" transform="translate(-22.181 -235.298)"/>
      <path id="Path_599" data-name="Path 599" class="cls-4" d="M272.53,242.716a102.113,102.113,0,0,1-32.679,36.712c-.218.161-.448.31-.666.46a101.879,101.879,0,0,1-78.48,14.926,57.282,57.282,0,0,1-1.149-11.479v-41.2c.218-.057.448-.1.666-.161a101.772,101.772,0,0,0,112.308.747Z" transform="translate(-22.181 -235.298)"/>
      <path id="Path_602" data-name="Path 602" class="cls-5" d="M217.834,327.024a64.35,64.35,0,0,1-64.278-64.278V241.569h13.789v21.177a50.489,50.489,0,1,0,100.977,0V241.569H282.11v21.177A64.349,64.349,0,0,1,217.834,327.024Z" transform="translate(-23.076 -235.357)"/>
      <g id="Group_192" data-name="Group 192" transform="translate(0 196.299)">
        <path id="Path_607" data-name="Path 607" class="cls-5" d="M375.535,420.788H362.9a6.894,6.894,0,1,1,0-13.789h12.64a6.894,6.894,0,0,1,0,13.789Z" transform="translate(7.098 -406.999)"/>
        <path id="Path_608" data-name="Path 608" class="cls-5" d="M59.535,420.788H46.9A6.894,6.894,0,1,1,46.9,407h12.64a6.894,6.894,0,1,1,0,13.789Z" transform="translate(-40.001 -406.999)"/>
      </g>
      <path id="Path_614" data-name="Path 614" class="cls-10" d="M262.049,368.614V421.5H236.77V368.614a12.64,12.64,0,1,1,25.279,0Z" transform="translate(-10.673 -218.305)"/>
      <path id="Path_615" data-name="Path 615" class="cls-5" d="M284.781,355.974V421.5H260.41V368.614a12.632,12.632,0,0,0-12.64-12.64Z" transform="translate(-9.033 -218.305)"/>
      <path id="Path_616" data-name="Path 616" class="cls-5" d="M287.77,436.977H273.981V294.495a92.188,92.188,0,0,1,10.3-42.339l12.235,6.359a77.248,77.248,0,0,0-8.749,35.98Z" transform="translate(-5.127 -233.779)"/>
      <path id="Path_617" data-name="Path 617" class="cls-5" d="M354.15,420.792H259.665a6.894,6.894,0,0,1,0-13.789H354.15a6.894,6.894,0,1,1,0,13.789Z" transform="translate(-8.288 -210.7)"/>
      <path id="Path_618" data-name="Path 618" class="cls-5" d="M261.3,420.792H79.125a6.894,6.894,0,1,1,0-13.789H261.3a6.894,6.894,0,0,1,0,13.789Z" transform="translate(-35.197 -210.7)"/>
      <path id="Path_619" data-name="Path 619" class="cls-5" d="M262.944,429.292H237.665a6.9,6.9,0,0,1-6.894-6.894V369.507a19.534,19.534,0,0,1,39.068,0V422.4A6.9,6.9,0,0,1,262.944,429.292ZM244.56,415.5h11.49v-46a5.745,5.745,0,1,0-11.49,0Z" transform="translate(-11.567 -219.2)"/>
      <rect id="Rectangle_54" data-name="Rectangle 54" class="cls-5" width="37.011" height="13.789" transform="translate(238.738 130.773)"/>
    </g>
    <g id="Group_197" data-name="Group 197" transform="translate(63.247 31.92)">
      <g id="Group_186" data-name="Group 186" transform="translate(0 115.127)">
        <g id="Group_184" data-name="Group 184" transform="translate(6.894 6.894)">
          <ellipse id="Ellipse_5" data-name="Ellipse 5" class="cls-3" cx="32.047" cy="32.047" rx="32.047" ry="32.047"/>
          <ellipse id="Ellipse_6" data-name="Ellipse 6" class="cls-3" cx="32.047" cy="32.047" rx="32.047" ry="32.047" transform="translate(185.151)"/>
        </g>
        <g id="Group_185" data-name="Group 185" transform="translate(0)">
          <path id="Path_583" data-name="Path 583" class="cls-5" d="M133.985,189.991a38.941,38.941,0,1,1,38.941-38.941A38.985,38.985,0,0,1,133.985,189.991Zm0-64.094a25.153,25.153,0,1,0,25.153,25.153A25.181,25.181,0,0,0,133.985,125.9Z" transform="translate(-95.044 -112.109)"/>
          <path id="Path_584" data-name="Path 584" class="cls-5" d="M295.119,189.991a38.941,38.941,0,1,1,38.942-38.941A38.985,38.985,0,0,1,295.119,189.991Zm0-64.094a25.153,25.153,0,1,0,25.154,25.153A25.181,25.181,0,0,0,295.119,125.9Z" transform="translate(-71.027 -112.109)"/>
        </g>
      </g>
      <path id="Path_594" data-name="Path 594" class="cls-3" d="M279.4,272.418a101.767,101.767,0,0,1-113.434,0c-.218-.149-.448-.3-.666-.46A101.579,101.579,0,0,1,121,188v-85.03c0-56.162,30.7-59.117,86.859-59.117l14.832-6.171c56.162,0,101.691,9.127,101.691,65.289V188a101.579,101.579,0,0,1-44.307,83.961C279.852,272.119,279.622,272.269,279.4,272.418Z" transform="translate(-91.176 -8.076)"/>
      <path id="Path_595" data-name="Path 595" class="cls-4" d="M201.59,265.334A101.34,101.34,0,0,0,240.5,281.053a102.046,102.046,0,0,1-74.527-15.719c-.218-.149-.448-.3-.666-.46A101.579,101.579,0,0,1,121,180.913V95.884c15.156,0,27.451,20.384,27.451,5.217h0a15.83,15.83,0,0,1,22.188-14.558A132.936,132.936,0,0,0,186.722,92.3a15.667,15.667,0,0,0-2.654,8.8v26.509c0,15.167-5.665,12.319-20.822,12.319l-15.988,27.993c0,3.491,9.535,19.934,9.878,23.335a101.636,101.636,0,0,0,43.788,73.618C201.142,265.035,201.373,265.184,201.59,265.334Z" transform="translate(-91.176 -0.992)"/>
      <g id="Group_189" data-name="Group 189" transform="translate(88.295 163.771)">
        <path id="Path_603" data-name="Path 603" class="cls-5" d="M178.78,168.223a6.892,6.892,0,1,1,1.344-13.651,6.817,6.817,0,0,1,2.482,1.023,6.32,6.32,0,0,1,1.046.862,6.838,6.838,0,0,1,.862,1.046,7,7,0,0,1,.632,1.195,6.385,6.385,0,0,1,.391,1.287,6.675,6.675,0,0,1,.138,1.344,6.787,6.787,0,0,1-.138,1.356,6.389,6.389,0,0,1-.391,1.287,6.493,6.493,0,0,1-.632,1.184,6.839,6.839,0,0,1-5.734,3.068Z" transform="translate(-171.886 -154.443)"/>
        <path id="Path_604" data-name="Path 604" class="cls-5" d="M246.78,168.223a7.5,7.5,0,0,1-1.344-.126,7.261,7.261,0,0,1-1.287-.4,6.6,6.6,0,0,1-1.195-.632,6.653,6.653,0,0,1-1.907-1.907,6.5,6.5,0,0,1-.632-1.184,6.389,6.389,0,0,1-.391-1.287,6.785,6.785,0,0,1-.138-1.356,6.673,6.673,0,0,1,.138-1.344,6.389,6.389,0,0,1,.391-1.287,7,7,0,0,1,.632-1.2,6.838,6.838,0,0,1,.862-1.046,6.325,6.325,0,0,1,1.046-.862,7.405,7.405,0,0,1,1.195-.632,7.227,7.227,0,0,1,1.287-.391,6.962,6.962,0,0,1,6.216,1.884,6.836,6.836,0,0,1,.862,1.046,7,7,0,0,1,.632,1.2,6.39,6.39,0,0,1,.391,1.287,6.675,6.675,0,0,1,.138,1.344,6.788,6.788,0,0,1-.138,1.356,6.39,6.39,0,0,1-.391,1.287,6.5,6.5,0,0,1-.632,1.184,6.84,6.84,0,0,1-5.734,3.068Z" transform="translate(-161.751 -154.443)"/>
      </g>
      <path id="Path_612" data-name="Path 612" class="cls-5" d="M223.585,300.423a108.083,108.083,0,0,1-60.566-18.445l-.2-.136c-.2-.134-.4-.271-.6-.413A108.625,108.625,0,0,1,115,191.839v-85.03c0-59.873,48.712-94.8,108.585-94.8,29.005,0,56.275-2.493,76.783,18.015a107.922,107.922,0,0,1,31.8,76.783v85.03a108.613,108.613,0,0,1-47.228,89.6c-.193.139-.391.273-.587.406l-.155.106A108.13,108.13,0,0,1,223.585,300.423Zm0-288.411a94.9,94.9,0,0,0-94.8,94.8v85.03A94.836,94.836,0,0,0,170.1,270.109c.068.046.134.094.2.143l.468.319a94.876,94.876,0,0,0,105.688-.033l.192-.131c.08-.054.163-.108.242-.165.061-.045.123-.09.186-.132a94.839,94.839,0,0,0,41.307-78.272v-85.03a94.792,94.792,0,0,0-94.8-94.8Z" transform="translate(-92.07 -11.916)"/>
    </g>
    <g id="Group_199" data-name="Group 199" transform="translate(133.482 179.475)">
      <path id="Path_620" data-name="Path 620" class="cls-5" d="M209.471,186.059a6.9,6.9,0,0,1-6.894-6.894V159.8a6.683,6.683,0,0,0-6.676-6.676h-32.84a6.894,6.894,0,1,1,0-13.789H195.9A20.488,20.488,0,0,1,216.366,159.8v19.368A6.9,6.9,0,0,1,209.471,186.059Z" transform="translate(-156.167 -139.331)"/>
      <path id="Path_621" data-name="Path 621" class="cls-5" d="M261.3,153.12H233.727a6.894,6.894,0,0,1,0-13.789H261.3a6.894,6.894,0,0,1,0,13.789Z" transform="translate(-145.634 -139.331)"/>
    </g>
    <path id="Path_631" data-name="Path 631" class="cls-5" d="M231.673,241.582a80.605,80.605,0,0,1-16.744-1.767,6.894,6.894,0,0,1,2.859-13.489,66.532,66.532,0,0,0,27.77,0,6.894,6.894,0,0,1,2.859,13.489A80.527,80.527,0,0,1,231.673,241.582Z" transform="translate(-34.605 32.405)"/>
    <g id="Group_1885" data-name="Group 1885" transform="translate(85.699 0)">
      <g id="Group_1883" data-name="Group 1883" transform="translate(6.894 6.561)">
        <path id="Path_4853" data-name="Path 4853" class="cls-11" d="M175.3,125.41a48.825,48.825,0,0,1-36.859,45.172c-.184-24.166,2.58-73.165,2.915-79.933,1.965-40.306,41.556-48.66,59.931-50.847a47.416,47.416,0,0,1,5.657-.339c21.884-.044,42.873-7.939,60.687-20.8A66.862,66.862,0,0,1,305.6,6.013c34.57-.667,64.358,25.719,68.341,60.491a68.708,68.708,0,0,1-32.1,66.516,66.939,66.939,0,0,1-50.484,8.114c-25.933-6.156-52.708-6.867-79.2-4.013-.615.066-1.231.12-1.857.164A47.864,47.864,0,0,1,175.3,125.41Z" transform="translate(-138.432 -6.001)"/>
      </g>
      <g id="Group_1884" data-name="Group 1884" class="cls-8" transform="translate(6.894 40.017)">
        <path id="Path_4854" data-name="Path 4854" class="cls-5" d="M183.562,87.789c2.091-40.306,44.227-48.66,63.784-50.847,2.034-.23-12.706-.383-36-.339a53.669,53.669,0,0,0-6.021.339c-19.557,2.187-61.692,10.541-63.784,50.847-.356,6.769-3.3,55.767-3.1,79.933,22-5.063,38.125-23.444,39.229-45.172q1.893,1.562,3.939,2.944C182.411,107.629,183.368,91.468,183.562,87.789Z" transform="translate(-138.432 -36.596)"/>
      </g>
      <path id="Path_4855" data-name="Path 4855" class="cls-5" d="M138.962,177.7a6.491,6.491,0,0,1-4.013-1.39,6.581,6.581,0,0,1-2.508-5.121c-.165-21.691,2.028-63.037,2.75-76.623.089-1.684.156-2.943.193-3.688,1.566-31.925,25.035-52.182,66.082-57.035a54.658,54.658,0,0,1,6.456-.384c19.677-.039,39.5-6.81,57.307-19.58a74.077,74.077,0,0,1,92.245,4.707,75.2,75.2,0,0,1-10.368,120.6,74.262,74.262,0,0,1-55.689,8.892c-23.569-5.558-49.662-6.862-77.555-3.877-.7.074-1.4.137-2.11.186a54.6,54.6,0,0,1-30.852-7,55.642,55.642,0,0,1-40.406,40.124A6.475,6.475,0,0,1,138.962,177.7ZM308.506,13.123c-.383,0-.761,0-1.144.011A61.114,61.114,0,0,0,272.8,24.568c-20.024,14.358-42.453,21.972-64.864,22.016a41.8,41.8,0,0,0-4.94.293c-24.045,2.843-53.027,12.9-54.586,44.655-.038.758-.106,2.033-.2,3.736-.622,11.731-2.351,44.308-2.685,66.6a42.626,42.626,0,0,0,24.023-36.217,6.558,6.558,0,0,1,3.95-5.716,6.492,6.492,0,0,1,6.836,1.075A41.792,41.792,0,0,0,210.855,131.3c.548-.038,1.089-.086,1.631-.143,29.346-3.14,56.9-1.744,81.9,4.15a61.29,61.29,0,0,0,45.94-7.328,62.285,62.285,0,0,0,29.227-60.158C366,36.94,339.294,13.123,308.506,13.123Z" transform="translate(-132.432 0)"/>
      <path id="Path_4856" data-name="Path 4856" class="cls-6" d="M318.4,120.138a6.972,6.972,0,0,1-5.9-3.158,6.382,6.382,0,0,1,2.317-9.012c14.8-8.548,23.073-24.662,21.076-41.056a41,41,0,0,0-9.983-22.143,6.345,6.345,0,0,1,.872-9.241,7.139,7.139,0,0,1,9.712.83A53.786,53.786,0,0,1,349.591,65.4c2.616,21.474-8.224,42.585-27.617,53.786A7.13,7.13,0,0,1,318.4,120.138Z" transform="translate(-117.232 3.178)"/>
      <path id="Path_4857" data-name="Path 4857" class="cls-6" d="M316.671,35.995a7.172,7.172,0,0,1-3.023-.668,45.612,45.612,0,0,0-11.917-3.66,6.6,6.6,0,0,1-5.633-7.573,6.866,6.866,0,0,1,7.958-5.36,59.864,59.864,0,0,1,15.649,4.806,6.421,6.421,0,0,1,3.165,8.776A6.936,6.936,0,0,1,316.671,35.995Z" transform="translate(-119.543 1.742)"/>
      <path id="Path_4858" data-name="Path 4858" class="cls-5" d="M180.369,115.2H166.58l13.789-.011Z" transform="translate(-127.342 10.767)"/>
    </g>
  </g>
  <g id="Group_2974" data-name="Group 2974" transform="translate(-8168.747 -1668.433)">
    <g id="Group_2973" data-name="Group 2973" transform="translate(80 356.662)">
      <g id="Group_1854" data-name="Group 1854" transform="translate(57.13)">
        <path id="Path_4780" data-name="Path 4780" class="cls-12" d="M310.8,264.961c.236.062.485.112.721.174a110,110,0,0,1,83.96,106.844V477.444H103.481V371.979a109.982,109.982,0,0,1,83.947-106.844c.236-.062.484-.112.721-.174" transform="translate(-96.026 -257.747)"/>
        <path id="Path_4781" data-name="Path 4781" class="cls-5" d="M396.929,486.305H104.934a7.454,7.454,0,0,1-7.454-7.454V373.386a117.435,117.435,0,0,1,89.595-114.076c.163-.041.328-.081.493-.119l.152-.035,3.773,14.423c-.19.05-.384.1-.578.14l-.152.035-.129.032a102.524,102.524,0,0,0-78.245,99.6v98.011H389.476V373.384a102.547,102.547,0,0,0-78.258-99.6l-.142-.036-.14-.032c-.191-.045-.384-.089-.571-.138l3.766-14.425.15.035c.168.039.334.078.5.119a117.456,117.456,0,0,1,89.607,114.076V478.849A7.456,7.456,0,0,1,396.929,486.305Z" transform="translate(-97.48 -259.154)"/>
      </g>
      <path id="Path_4782" data-name="Path 4782" class="cls-3" d="M161.91,320.251V474.305H103.481V368.84a109.8,109.8,0,0,1,48.129-90.929A91.556,91.556,0,0,1,161.91,320.251Z" transform="translate(-38.895 -254.608)"/>
      <path id="Path_4783" data-name="Path 4783" class="cls-3" d="M349.912,368.84V474.305H291.471V320.251a91.556,91.556,0,0,1,10.3-42.34A109.814,109.814,0,0,1,349.912,368.84Z" transform="translate(6.668 -254.608)"/>
      <path id="Path_4784" data-name="Path 4784" class="cls-3" d="M295.139,265.135V282.29a62.044,62.044,0,0,1-124.088,0V265.135c.236-.062.484-.112.721-.174a110.032,110.032,0,0,0,122.647,0C294.655,265.023,294.9,265.073,295.139,265.135Z" transform="translate(-22.518 -257.747)"/>
      <path id="Path_4785" data-name="Path 4785" class="cls-4" d="M293.2,265.769a110.407,110.407,0,0,1-35.333,39.694c-.236.174-.484.335-.721.5a109.448,109.448,0,0,1-61.323,18.673c-8.075,0-7.786-9.036-15.364-10.7-.82-4.013-9.408-9.277-9.408-13.526V265.135c.236-.062.484-.112.721-.174a110.037,110.037,0,0,0,121.429.808Z" transform="translate(-22.518 -257.747)"/>
      <path id="Path_4786" data-name="Path 4786" class="cls-5" d="M234.548,351.886a69.578,69.578,0,0,1-69.5-69.5V264.562h14.908v17.826a54.59,54.59,0,1,0,109.18,0V264.562h14.909v17.826A69.577,69.577,0,0,1,234.548,351.886Z" transform="translate(-23.973 -257.843)"/>
      <g id="Group_1855" data-name="Group 1855" transform="translate(290.684 15.849)">
        <path id="Path_4787" data-name="Path 4787" class="cls-12" d="M349.912,368.84v24.711H291.471v-73.3a91.556,91.556,0,0,1,10.3-42.34A109.814,109.814,0,0,1,349.912,368.84Z" transform="translate(-284.016 -270.457)"/>
        <path id="Path_4788" data-name="Path 4788" class="cls-5" d="M351.365,402.459H292.924a7.455,7.455,0,0,1-7.454-7.454v-73.3a99.682,99.682,0,0,1,11.139-45.776,7.453,7.453,0,0,1,10.809-2.726,117.37,117.37,0,0,1,51.4,97.091v24.711A7.454,7.454,0,0,1,351.365,402.459Zm-50.987-14.908h43.533V370.294a102.45,102.45,0,0,0-37.741-79.441,83.706,83.706,0,0,0-5.792,30.852v65.846Z" transform="translate(-285.47 -271.911)"/>
      </g>
      <g id="Group_1856" data-name="Group 1856" transform="translate(57.132 15.849)">
        <path id="Path_4789" data-name="Path 4789" class="cls-12" d="M161.91,320.251v73.3H103.481V368.84a109.8,109.8,0,0,1,48.129-90.929A91.556,91.556,0,0,1,161.91,320.251Z" transform="translate(-96.027 -270.457)"/>
        <path id="Path_4790" data-name="Path 4790" class="cls-5" d="M163.364,402.459H104.935a7.455,7.455,0,0,1-7.454-7.454V370.294A117.364,117.364,0,0,1,148.87,273.2a7.454,7.454,0,0,1,10.809,2.725,99.679,99.679,0,0,1,11.139,45.778v73.3A7.455,7.455,0,0,1,163.364,402.459Zm-50.974-14.908h43.52V321.705a83.7,83.7,0,0,0-5.792-30.852,102.448,102.448,0,0,0-37.728,79.441Z" transform="translate(-97.481 -271.911)"/>
      </g>
      <path id="Path_4791" data-name="Path 4791" class="cls-5" d="M300.378,474.975H285.47V320.921a99.682,99.682,0,0,1,11.139-45.776l13.229,6.874a83.538,83.538,0,0,0-9.459,38.9Z" transform="translate(5.214 -255.278)"/>
      <rect id="Rectangle_261" data-name="Rectangle 261" class="cls-5" width="58.429" height="14.908" transform="translate(299.803 131.489)"/>
      <path id="Path_4792" data-name="Path 4792" class="cls-6" d="M319.964,431.443a7.455,7.455,0,0,1-7.454-7.454V390.445a7.454,7.454,0,0,1,14.909,0v33.544A7.454,7.454,0,0,1,319.964,431.443Z" transform="translate(11.768 -229.139)"/>
      <g id="Group_1857" data-name="Group 1857" transform="translate(64.586 23.303)">
        <path id="Path_4793" data-name="Path 4793" class="cls-4" d="M157.748,292.819a109.6,109.6,0,0,0-30.513,76.021V471.82H103.481V368.84a109.8,109.8,0,0,1,48.129-90.929A91.688,91.688,0,0,1,157.748,292.819Z" transform="translate(-103.481 -277.911)"/>
      </g>
      <path id="Path_4794" data-name="Path 4794" class="cls-5" d="M396.929,486.305H104.934a7.454,7.454,0,0,1-7.454-7.454V373.386a117.435,117.435,0,0,1,89.595-114.076c.163-.041.328-.081.493-.119l.152-.035,3.773,14.423c-.19.05-.384.1-.578.14l-.152.035-.129.032a102.524,102.524,0,0,0-78.245,99.6v98.011H389.476V373.384a102.547,102.547,0,0,0-78.258-99.6l-.142-.036-.14-.032c-.191-.045-.384-.089-.571-.138l3.766-14.425.15.035c.168.039.334.078.5.119a117.456,117.456,0,0,1,89.607,114.076V478.849A7.456,7.456,0,0,1,396.929,486.305Z" transform="translate(-40.35 -259.154)"/>
      <path id="Path_4795" data-name="Path 4795" class="cls-5" d="M161.265,474.975H146.356V320.921a83.545,83.545,0,0,0-9.459-38.9l13.229-6.874a99.679,99.679,0,0,1,11.139,45.778Z" transform="translate(-30.796 -255.278)"/>
      <rect id="Rectangle_262" data-name="Rectangle 262" class="cls-5" width="58.429" height="14.908" transform="translate(64.586 131.489)"/>
      <g id="Group_1858" data-name="Group 1858" transform="translate(0 212.243)">
        <path id="Path_4798" data-name="Path 4798" class="cls-5" d="M417.638,444.9H91.18a7.454,7.454,0,1,1,0-14.908H417.638a7.454,7.454,0,1,1,0,14.908Z" transform="translate(-43.683 -429.991)"/>
        <path id="Path_4799" data-name="Path 4799" class="cls-5" d="M388.616,444.9H374.95a7.454,7.454,0,1,1,0-14.908h13.666a7.454,7.454,0,1,1,0,14.908Z" transform="translate(25.095 -429.991)"/>
        <path id="Path_4800" data-name="Path 4800" class="cls-5" d="M72.615,444.9H58.949a7.454,7.454,0,1,1,0-14.908H72.615a7.454,7.454,0,1,1,0,14.908Z" transform="translate(-51.495 -429.991)"/>
      </g>
      <path id="Path_7750" data-name="Path 7750" class="cls-6" d="M273.549,0,231.83,74.571h83.446Zm0,33.518,14.326,25.6H259.231Z" transform="translate(-62.952 113.576)"/>
    </g>
    <g id="Group_1871" data-name="Group 1871" transform="translate(147.14 26)">
      <g id="Group_1861" data-name="Group 1861" transform="translate(0 176.553)">
        <g id="Group_1859" data-name="Group 1859" transform="translate(7.454 7.454)">
          <ellipse id="Ellipse_287" data-name="Ellipse 287" class="cls-3" cx="34.65" cy="34.65" rx="34.65" ry="34.65"/>
          <ellipse id="Ellipse_288" data-name="Ellipse 288" class="cls-3" cx="34.65" cy="34.65" rx="34.65" ry="34.65" transform="translate(200.189)"/>
        </g>
        <g id="Group_1860" data-name="Group 1860" transform="translate(0 0)">
          <path id="Path_4801" data-name="Path 4801" class="cls-5" d="M144.141,210.318a42.1,42.1,0,1,1,42.105-42.1A42.152,42.152,0,0,1,144.141,210.318Zm0-69.3a27.2,27.2,0,1,0,27.2,27.2A27.227,27.227,0,0,0,144.141,141.018Z" transform="translate(-102.037 -126.11)"/>
          <path id="Path_4802" data-name="Path 4802" class="cls-5" d="M305.277,210.318a42.1,42.1,0,1,1,42.1-42.1A42.152,42.152,0,0,1,305.277,210.318Zm0-69.3a27.2,27.2,0,1,0,27.2,27.2A27.228,27.228,0,0,0,305.277,141.018Z" transform="translate(-62.983 -126.11)"/>
        </g>
      </g>
      <path id="Path_4803" data-name="Path 4803" class="cls-3" d="M299.268,313.162a110.033,110.033,0,0,1-122.647,0c-.236-.161-.485-.323-.721-.5A109.829,109.829,0,0,1,128,221.885V129.95A109.95,109.95,0,0,1,237.945,20h0a109.95,109.95,0,0,1,109.95,109.95v91.935a109.829,109.829,0,0,1-47.906,90.78C299.753,312.839,299.5,313,299.268,313.162Z" transform="translate(-95.746 24.725)"/>
      <g id="Group_1862" data-name="Group 1862" transform="translate(134.744 62.119)">
        <path id="Path_4804" data-name="Path 4804" class="cls-5" d="M216.5,40a85.186,85.186,0,0,1,16.811,1.667" transform="translate(-209.04 -32.546)"/>
        <path id="Path_4805" data-name="Path 4805" class="cls-6" d="M234.769,50.577a7.515,7.515,0,0,1-1.478-.148,78,78,0,0,0-15.342-1.521,7.454,7.454,0,0,1,0-14.908,92.906,92.906,0,0,1,18.283,1.814,7.455,7.455,0,0,1-1.462,14.763Z" transform="translate(-210.494 -34)"/>
      </g>
      <g id="Group_1863" data-name="Group 1863" transform="translate(95.474 229.148)">
        <path id="Path_4806" data-name="Path 4806" class="cls-5" d="M186.339,183.344a7.451,7.451,0,1,1,1.454-14.759,7.369,7.369,0,0,1,2.684,1.106,6.84,6.84,0,0,1,1.131.932,7.4,7.4,0,0,1,.932,1.131,7.576,7.576,0,0,1,.683,1.292,6.911,6.911,0,0,1,.422,1.391,7.216,7.216,0,0,1,.149,1.454,7.337,7.337,0,0,1-.149,1.466,6.911,6.911,0,0,1-.422,1.391,7.027,7.027,0,0,1-.683,1.28,7.395,7.395,0,0,1-6.2,3.317Z" transform="translate(-178.885 -168.444)"/>
        <path id="Path_4807" data-name="Path 4807" class="cls-5" d="M254.339,183.344a8.114,8.114,0,0,1-1.454-.137,7.852,7.852,0,0,1-1.391-.435,7.131,7.131,0,0,1-1.292-.683,7.194,7.194,0,0,1-2.062-2.062,7.023,7.023,0,0,1-.683-1.28,6.9,6.9,0,0,1-.422-1.391,7.335,7.335,0,0,1-.149-1.466,7.214,7.214,0,0,1,.149-1.454,6.9,6.9,0,0,1,.422-1.391,7.567,7.567,0,0,1,.683-1.292,7.389,7.389,0,0,1,.932-1.131,6.836,6.836,0,0,1,1.131-.932,8.007,8.007,0,0,1,1.292-.683,7.814,7.814,0,0,1,1.391-.422,7.527,7.527,0,0,1,6.721,2.038,7.387,7.387,0,0,1,.932,1.131,7.569,7.569,0,0,1,.683,1.292,6.91,6.91,0,0,1,.422,1.391,7.22,7.22,0,0,1,.149,1.454,7.342,7.342,0,0,1-.149,1.466,6.909,6.909,0,0,1-.422,1.391,7.024,7.024,0,0,1-.683,1.28,7.4,7.4,0,0,1-6.2,3.317Z" transform="translate(-162.404 -168.444)"/>
      </g>
      <g id="Group_1864" data-name="Group 1864" transform="translate(75.939 210.374)">
        <path id="Path_4808" data-name="Path 4808" class="cls-5" d="M220.8,203.856a7.455,7.455,0,0,1-7.454-7.454V175.461a7.226,7.226,0,0,0-7.219-7.218H170.615a7.454,7.454,0,0,1,0-14.908h35.507a22.154,22.154,0,0,1,22.128,22.127V196.4A7.455,7.455,0,0,1,220.8,203.856Z" transform="translate(-163.161 -153.333)"/>
        <path id="Path_4809" data-name="Path 4809" class="cls-5" d="M275.752,168.241H232.777a7.47,7.47,0,1,1,0-14.908h42.975a7.47,7.47,0,1,1,0,14.908Z" transform="translate(-151.18 -153.333)"/>
      </g>
      <path id="Path_4810" data-name="Path 4810" class="cls-4" d="M215.135,311.992a109.571,109.571,0,0,0,42.067,17,110.334,110.334,0,0,1-80.58-17c-.236-.162-.484-.323-.721-.5A109.829,109.829,0,0,1,128,220.715V192.762c0-172.69,68.194-170.579,68.194-166.988l-12.9,19.638a87.945,87.945,0,0,0-1.19,94.707c3.01,4.839,12.611,21.486,12.447,25.3-.6,14.026-11.431,26.537-26.51,27.3q-.758.039-1.527.039v27.953a109.829,109.829,0,0,0,47.906,90.78C214.65,311.669,214.9,311.831,215.135,311.992Z" transform="translate(-95.746 25.895)"/>
      <path id="Path_4811" data-name="Path 4811" class="cls-6" d="M284.454,219.968A7.455,7.455,0,0,1,277,212.514V181.454a7.454,7.454,0,1,1,14.909,0v31.059A7.455,7.455,0,0,1,284.454,219.968Z" transform="translate(-59.631 62.051)"/>
      <path id="Path_4812" data-name="Path 4812" class="cls-5" d="M239.4,340.744A116.863,116.863,0,0,1,173.913,320.8l-.215-.147c-.214-.143-.427-.289-.637-.44a117.443,117.443,0,0,1-51.066-96.875V131.4a7.48,7.48,0,0,1,.65-3.046C124.736,123.689,174.59,14,239.4,14A117.538,117.538,0,0,1,356.8,131.4V223.34a117.443,117.443,0,0,1-51.063,96.871c-.212.153-.429.3-.644.445l-.165.112-.048.034A116.852,116.852,0,0,1,239.4,340.744Zm-102.5-207.7v90.3a102.542,102.542,0,0,0,44.662,84.63c.067.046.132.092.2.139.089.066.183.127.275.188l.25.169a102.583,102.583,0,0,0,114.273-.034l.461-.313c.066-.048.144-.1.211-.15a102.542,102.542,0,0,0,44.663-84.63V131.4a102.612,102.612,0,0,0-102.5-102.5c-28.223,0-54.574,28.219-71.708,51.891A346.832,346.832,0,0,0,136.9,133.042Z" transform="translate(-97.2 23.271)"/>
      <g id="XMLID_19_" transform="translate(24.802 146.6)">
        <g id="Group_1865" data-name="Group 1865" transform="translate(7.454 7.454)">
          <path id="Path_4813" data-name="Path 4813" class="cls-7" d="M308.847,108l1.23,86.966A105.475,105.475,0,0,1,284,125.53V108Z" transform="translate(-90.19 -108)"/>
          <path id="Path_4814" data-name="Path 4814" class="cls-7" d="M154.09,108v17.53A105.424,105.424,0,0,1,128,194.966L129.242,108Z" transform="translate(-128 -108)"/>
        </g>
        <g id="Group_1866" data-name="Group 1866">
          <path id="Path_4815" data-name="Path 4815" class="cls-5" d="M129.453,203.874A7.456,7.456,0,0,1,122,196.313l1.242-86.966A7.454,7.454,0,0,1,130.7,102h24.847A7.455,7.455,0,0,1,163,109.454v17.53a112.847,112.847,0,0,1-27.935,74.346A7.453,7.453,0,0,1,129.453,203.874Zm8.592-86.966-.784,54.859a97.962,97.962,0,0,0,10.828-44.784V116.908Z" transform="translate(-122 -102)"/>
          <path id="Path_4816" data-name="Path 4816" class="cls-5" d="M311.533,203.874a7.459,7.459,0,0,1-5.613-2.547A112.9,112.9,0,0,1,278,126.984v-17.53A7.455,7.455,0,0,1,285.454,102H310.3a7.454,7.454,0,0,1,7.453,7.349l1.23,86.966a7.454,7.454,0,0,1-7.452,7.56Zm-18.624-86.966v10.076a97.989,97.989,0,0,0,10.82,44.774l-.776-54.849Z" transform="translate(-84.191 -102)"/>
        </g>
      </g>
      <g id="Group_1870" data-name="Group 1870" transform="translate(17.271 0)">
        <g id="Group_1869" data-name="Group 1869" transform="translate(0 0)">
          <path id="Path_4817" data-name="Path 4817" class="cls-13" d="M354.371,65.634c20.549,13.542,17.517,56.826,16.8,64.628a262.321,262.321,0,0,0-225.18,0c-.721-7.8-3.752-51.086,16.8-64.628,0,0-4.771-21.12,8.324-29.817S212.169,7.242,258.584,6c46.4,1.242,74.368,21.12,87.463,29.817S354.371,65.634,354.371,65.634Z" transform="translate(-131.165 1.455)"/>
          <g id="Group_1867" data-name="Group 1867" class="cls-8" transform="translate(14.242 7.455)">
            <path id="Path_4818" data-name="Path 4818" class="cls-5" d="M209.495,65.634s-4.771-21.12,8.324-29.817c10.729-7.125,31.452-21.751,64.118-27.489A159.387,159.387,0,0,0,258.584,6C212.169,7.242,184.2,27.12,171.109,35.817s-8.324,29.817-8.324,29.817c-20.549,13.542-17.517,56.826-16.8,64.628a262.163,262.163,0,0,1,46.173-16.825C192.529,97.267,195.682,74.737,209.495,65.634Z" transform="translate(-145.408 -6)"/>
          </g>
          <path id="Path_4819" data-name="Path 4819" class="cls-13" d="M379.859,114.614v45.409a262.323,262.323,0,0,0-239.914,0V114.614c2.447-1.255,4.895-2.472,7.367-3.64a262.321,262.321,0,0,1,225.18,0C374.964,112.141,377.412,113.359,379.859,114.614Z" transform="translate(-132.49 20.743)"/>
          <g id="Group_1868" data-name="Group 1868" class="cls-8" transform="translate(7.456 119.767)">
            <path id="Path_4820" data-name="Path 4820" class="cls-5" d="M172.185,98.844c1.627-.835,3.257-1.645,4.892-2.443a262.244,262.244,0,0,0-29.765,11.95c-2.472,1.168-4.92,2.385-7.367,3.64V157.4a262.365,262.365,0,0,1,32.24-13.906Z" transform="translate(-139.945 -96.402)"/>
          </g>
          <path id="Path_4821" data-name="Path 4821" class="cls-5" d="M140.027,132.4c-1.119-12.121-3.015-51.1,16.213-68.508-.821-8.106-.62-24.314,12.206-32.832l1.577-1.051C184,20.677,213.082,1.255,259.846,0q.2-.006.4,0C307,1.255,336.079,20.677,350.056,30.011l1.577,1.051c12.824,8.516,13.027,24.719,12.208,32.827,8.311,7.505,13.606,19.827,15.762,36.722a153.633,153.633,0,0,1,.451,31.79l-14.845-1.37c1.579-17.1.516-48.5-13.476-57.719a7.455,7.455,0,0,1-3.169-7.867c.03-.137,3.3-16.337-5.177-21.965l-1.609-1.072c-13.775-9.2-39.4-26.312-81.731-27.5-42.342,1.185-67.968,18.3-81.743,27.5L176.7,43.479c-8.474,5.628-5.207,21.828-5.172,21.99a7.491,7.491,0,0,1-3.174,7.842c-13.994,9.222-15.055,40.621-13.476,57.718Z" transform="translate(-132.626 0)"/>
          <path id="Path_4822" data-name="Path 4822" class="cls-5" d="M381.314,168.953a7.443,7.443,0,0,1-3.408-.825,254.945,254.945,0,0,0-233.1,0,7.455,7.455,0,0,1-10.865-6.629V124.116a20.353,20.353,0,0,1,11.481-18.33l.142-.068a268.7,268.7,0,0,1,231.578,0l.161.078a20.35,20.35,0,0,1,11.46,18.32V161.5a7.452,7.452,0,0,1-7.452,7.454ZM261.363,125.01a270.258,270.258,0,0,1,112.5,24.574V124.116a5.378,5.378,0,0,0-3.014-4.884c-.062-.03-.125-.06-.186-.092a253.844,253.844,0,0,0-218.625.01c-.061.031-.125.062-.166.082a5.378,5.378,0,0,0-3.014,4.884v25.469A270.267,270.267,0,0,1,261.363,125.01Z" transform="translate(-133.944 19.266)"/>
        </g>
        <path id="Path_4823" data-name="Path 4823" class="cls-6" d="M312.183,90.577a7.456,7.456,0,0,1-7.187-5.5l-3.727-13.666a7.454,7.454,0,1,1,14.383-3.922l3.727,13.666a7.461,7.461,0,0,1-7.2,9.417Z" transform="translate(-93.453 15.027)"/>
      </g>
      <path id="Path_4824" data-name="Path 4824" class="cls-5" d="M233.477,242.833a87.155,87.155,0,0,1-18.1-1.911,7.454,7.454,0,0,1,3.091-14.584,71.934,71.934,0,0,0,30.026,0,7.454,7.454,0,0,1,3.091,14.584A87.07,87.07,0,0,1,233.477,242.833Z" transform="translate(-91.271 68.485)"/>
    </g>
  </g>
</svg>
