<svg xmlns="http://www.w3.org/2000/svg" xmlns:xlink="http://www.w3.org/1999/xlink" viewBox="0 0 258.1 141"><defs><style>.cls-1{fill:#5b728d;}.cls-2{fill:#fbd1ae;}.cls-3{fill:#1e252b;}.cls-4,.cls-5{fill:#333;}.cls-4,.cls-6{opacity:0.44;}.cls-4{isolation:isolate;}.cls-7{fill:#fff;}.cls-8{opacity:0.75;}.cls-9{fill:url(#Degradado_sin_nombre_2);}.cls-10{fill:url(#Degradado_sin_nombre_2-2);}.cls-11{fill:#9a9a9a;stroke:#1e252b;stroke-width:2px;}.cls-12{fill:#ffb61e;}.cls-13{fill:#665a52;}.cls-14{fill:#676767;}.cls-15{fill:#52b26e;}.cls-16{fill:#f6b138;}.cls-17{fill:#413933;}</style><linearGradient id="Degradado_sin_nombre_2" x1="1.72" y1="252.68" x2="1.72" y2="252.49" gradientTransform="matrix(224.42, 0, 0, -111.05, -348.7, 28122.17)" gradientUnits="userSpaceOnUse"><stop offset="0" stop-color="#4477ba"/><stop offset="1" stop-color="#cc3030"/></linearGradient><linearGradient id="Degradado_sin_nombre_2-2" x1="0.58" y1="252.68" x2="0.58" y2="252.49" gradientTransform="matrix(224.42, 0, 0, -111.05, -70.77, 28122.17)" xlink:href="#Degradado_sin_nombre_2"/></defs><title>About</title><g id="Capa_2" data-name="Capa 2"><g id="Capa_1-2" data-name="Capa 1"><path id="Path_6790" data-name="Path 6790" class="cls-1" d="M63,90l.17,0a25.5,25.5,0,0,1,19.46,24.77v24.45H15V114.82A25.49,25.49,0,0,1,34.43,90.06l.17,0"/><g id="Group_2689" data-name="Group 2689"><g id="Group_2687" data-name="Group 2687"><circle id="Ellipse_379" data-name="Ellipse 379" class="cls-2" cx="25.61" cy="62.38" r="8.03"/><circle id="Ellipse_380" data-name="Ellipse 380" class="cls-2" cx="72.02" cy="62.38" r="8.03"/></g><g id="Group_2688" data-name="Group 2688"><path id="Path_6791" data-name="Path 6791" class="cls-3" d="M25.61,72.14a9.76,9.76,0,1,1,9.76-9.76A9.76,9.76,0,0,1,25.61,72.14Zm0-16.06a6.3,6.3,0,1,0,6.3,6.3h0a6.31,6.31,0,0,0-6.3-6.3Z"/><path id="Path_6792" data-name="Path 6792" class="cls-3" d="M72,72.14a9.76,9.76,0,1,1,9.76-9.76A9.76,9.76,0,0,1,72,72.14Zm0-16.06a6.3,6.3,0,1,0,6.3,6.3,6.3,6.3,0,0,0-6.3-6.3Z"/></g></g><path id="Path_6793" data-name="Path 6793" class="cls-2" d="M63,90A25.51,25.51,0,0,1,34.6,90l-.17-.12a25.46,25.46,0,0,1-11.1-21V47.55c0-14.08,51-14.08,51,0V68.86a25.46,25.46,0,0,1-11.1,21Z"/><path id="Path_6794" data-name="Path 6794" class="cls-1" d="M28.52,103.56v35.71H15V114.82A25.45,25.45,0,0,1,26.13,93.75,21.22,21.22,0,0,1,28.52,103.56Z"/><path id="Path_6809" data-name="Path 6809" class="cls-4" d="M32.61,62.37a6.3,6.3,0,0,0,3.76-1.48L74.3,54.68V47.3L35.1,41l-1.45,4.29C32,39.63,23.33,22.35,23.33,62.38v6.48a25.46,25.46,0,0,0,11.1,21l.17.12A25.58,25.58,0,0,0,53.28,94,25.4,25.4,0,0,1,43.53,90l-.17-.12A25.48,25.48,0,0,1,32.47,72.18l-.19-2.29c0-.34,0-.69,0-1V62.38Z"/><path id="Path_6795" data-name="Path 6795" class="cls-1" d="M82.66,114.82v24.45H69.11V103.56a21.22,21.22,0,0,1,2.39-9.81A25.46,25.46,0,0,1,82.66,114.82Z"/><path id="Path_6796" data-name="Path 6796" class="cls-3" d="M48.81,96.08a27.09,27.09,0,0,1-15.18-4.62l0,0-.15-.1A27.22,27.22,0,0,1,21.6,68.86V47.55c0-.07,0-.14,0-.21a1.77,1.77,0,0,1,.09-.62L25,47.83a1.67,1.67,0,0,0,0-1,1.73,1.73,0,0,1,.05.49c0,.06,0,.13,0,.19V68.86A23.77,23.77,0,0,0,35.41,88.48l0,0,.06,0,.06,0a23.78,23.78,0,0,0,26.49,0l0,0,.06,0,0,0A23.77,23.77,0,0,0,72.57,68.86V47.55c0-.06,0-.12,0-.19a1.74,1.74,0,0,1,.06-.51,1.69,1.69,0,0,0,0,1L75.86,46s0-5.15.11-4.93.06,6.27.06,6.27,0,.14,0,.21V68.86A27.22,27.22,0,0,1,64.19,91.32l-.15.11,0,0A27.1,27.1,0,0,1,48.81,96.08Z"/><path id="Path_6801" data-name="Path 6801" class="cls-3" d="M70.84,139.27H67.38V103.56A23.11,23.11,0,0,1,70,93L73,94.54a19.36,19.36,0,0,0-2.19,9Z"/><g id="Group_2695" data-name="Group 2695"><path id="Path_6802" data-name="Path 6802" class="cls-4" d="M27.55,97.2a25.4,25.4,0,0,0-7.07,17.62v24.05H15V114.82A25.45,25.45,0,0,1,26.13,93.75,21.25,21.25,0,0,1,27.55,97.2Z"/></g><path id="Path_6803" data-name="Path 6803" class="cls-3" d="M82.66,141H15a1.73,1.73,0,0,1-1.73-1.73h0V114.82A27.22,27.22,0,0,1,34,88.38l.11,0h0L35,91.69l-.14,0h-.06A23.77,23.77,0,0,0,16.7,114.82v22.72H80.93V114.82A23.77,23.77,0,0,0,62.79,91.74h-.07l-.13,0,.88-3.34h0l.11,0a27.23,27.23,0,0,1,20.77,26.44v24.45A1.73,1.73,0,0,1,82.66,141Z"/><path id="Path_6804" data-name="Path 6804" class="cls-3" d="M30.24,139.27H26.79V103.56a19.37,19.37,0,0,0-2.19-9L27.66,93a23.11,23.11,0,0,1,2.58,10.61Z"/><g id="Group_2696" data-name="Group 2696"><path id="Path_6805" data-name="Path 6805" class="cls-3" d="M86.69,141H11a1.73,1.73,0,1,1,0-3.46H86.69a1.73,1.73,0,1,1,0,3.46Z"/><path id="Path_6806" data-name="Path 6806" class="cls-3" d="M95.9,141H92.73a1.73,1.73,0,0,1,0-3.46H95.9a1.73,1.73,0,1,1,0,3.46Z"/><path id="Path_6807" data-name="Path 6807" class="cls-3" d="M4.9,141H1.73a1.73,1.73,0,1,1,0-3.46H4.9a1.73,1.73,0,1,1,0,3.46Z"/></g><g id="Group_2697" data-name="Group 2697"><path id="Path_6811" data-name="Path 6811" class="cls-3" d="M46.81,74.37a1.73,1.73,0,0,1-1.73-1.73V62.76h-9.9a1.73,1.73,0,0,1,0-3.46H46.81A1.73,1.73,0,0,1,48.54,61V72.64A1.73,1.73,0,0,1,46.81,74.37Z"/><path id="Path_6812" data-name="Path 6812" class="cls-3" d="M62.44,62.76H55.53a1.73,1.73,0,1,1,0-3.46h6.91a1.73,1.73,0,1,1,0,3.46Z"/></g><g id="Group_2719" data-name="Group 2719"><path id="Path_6839" data-name="Path 6839" class="cls-5" d="M40.15,67.56a1.5,1.5,0,0,1-1.07-.46,1.63,1.63,0,0,1,0-2.24,1.5,1.5,0,0,1,1.37-.43,1.47,1.47,0,0,1,.55.24,1.41,1.41,0,0,1,.23.2,1.56,1.56,0,0,1,.19.24,1.63,1.63,0,0,1,.14.27,1.52,1.52,0,0,1,.09.3,1.6,1.6,0,0,1,0,.31,1.65,1.65,0,0,1-.26.88,1.58,1.58,0,0,1-.19.24A1.5,1.5,0,0,1,40.15,67.56Z"/><path id="Path_6840" data-name="Path 6840" class="cls-5" d="M57.39,67.56l-.3,0a1.56,1.56,0,0,1-.28-.09,1.44,1.44,0,0,1-.26-.15,1.53,1.53,0,0,1-.23-.2,1.58,1.58,0,0,1-.19-.24,1.65,1.65,0,0,1-.26-.88,1.6,1.6,0,0,1,0-.31,1.52,1.52,0,0,1,.09-.3,1.63,1.63,0,0,1,.14-.27,1.56,1.56,0,0,1,.19-.24,1.41,1.41,0,0,1,.23-.2,1.61,1.61,0,0,1,.26-.15,1.55,1.55,0,0,1,.28-.09,1.5,1.5,0,0,1,1.37.43,1.56,1.56,0,0,1,.19.24,1.63,1.63,0,0,1,.14.27,1.52,1.52,0,0,1,.09.3,1.6,1.6,0,0,1,0,.31,1.65,1.65,0,0,1-.26.88,1.58,1.58,0,0,1-.19.24A1.5,1.5,0,0,1,57.39,67.56Z"/></g><path id="Path_6823" data-name="Path 6823" class="cls-3" d="M40,106.77a1.73,1.73,0,0,1-1.14-.43c-.32-.28-7.89-7.06-7.38-16l3.45.19c-.26,4.55,2.21,8.57,4.11,11,2.24-5.24,8.68-8.48,9-8.64a1.73,1.73,0,0,1,1.53,0c.33.16,6.77,3.4,9,8.64,1.9-2.39,4.37-6.4,4.11-11l3.45-.19c.51,9-7.06,15.76-7.38,16A1.73,1.73,0,0,1,55.9,105c0-3.86-4.57-7.29-7.09-8.73-2.51,1.44-7.09,4.87-7.09,8.73A1.73,1.73,0,0,1,40,106.77Z"/><rect id="Rectangle_376" data-name="Rectangle 376" class="cls-3" x="47.09" y="94.35" width="3.46" height="44.93"/><g id="Group_2704" data-name="Group 2704"><g id="Group_2701" data-name="Group 2701"><path id="Path_6824" data-name="Path 6824" class="cls-3" d="M43.46,114.44a1.88,1.88,0,0,1-.34,0,1.82,1.82,0,0,1-.32-.1,1.71,1.71,0,0,1-.78-.64,1.63,1.63,0,0,1-.16-.3,1.6,1.6,0,0,1-.1-.32,1.7,1.7,0,0,1,0-.34,1.67,1.67,0,0,1,0-.34,1.6,1.6,0,0,1,.1-.32,1.75,1.75,0,0,1,.16-.3,1.71,1.71,0,0,1,.22-.26,1.59,1.59,0,0,1,.26-.22,1.86,1.86,0,0,1,.3-.16,1.81,1.81,0,0,1,.32-.1,1.74,1.74,0,0,1,1.56.47,1.71,1.71,0,0,1,.22.26,1.75,1.75,0,0,1,.16.3,1.6,1.6,0,0,1,.1.32,1.67,1.67,0,0,1,0,.34,1.7,1.7,0,0,1,0,.34,1.6,1.6,0,0,1-.1.32,1.63,1.63,0,0,1-.16.3,1.71,1.71,0,0,1-1.44.77Z"/></g><g id="Group_2702" data-name="Group 2702"><path id="Path_6825" data-name="Path 6825" class="cls-3" d="M43.46,133.32a1.88,1.88,0,0,1-.34,0,1.82,1.82,0,0,1-.32-.1,1.71,1.71,0,0,1-.78-.64,1.63,1.63,0,0,1-.16-.3,1.6,1.6,0,0,1-.1-.32,1.7,1.7,0,0,1,0-.34,1.67,1.67,0,0,1,0-.34,1.6,1.6,0,0,1,.1-.32,1.75,1.75,0,0,1,.16-.3,1.71,1.71,0,0,1,.22-.26,1.59,1.59,0,0,1,.26-.22,1.86,1.86,0,0,1,.3-.16,1.81,1.81,0,0,1,.32-.1,1.74,1.74,0,0,1,1.56.47,1.71,1.71,0,0,1,.22.26,1.75,1.75,0,0,1,.16.3,1.6,1.6,0,0,1,.1.32,1.67,1.67,0,0,1,0,.34,1.7,1.7,0,0,1,0,.34,1.6,1.6,0,0,1-.1.32,1.63,1.63,0,0,1-.16.3,1.71,1.71,0,0,1-1.44.77Z"/></g><g id="Group_2703" data-name="Group 2703"><path id="Path_6826" data-name="Path 6826" class="cls-3" d="M43.46,123.88a1.88,1.88,0,0,1-.34,0,1.82,1.82,0,0,1-.32-.1,1.71,1.71,0,0,1-.78-.64,1.63,1.63,0,0,1-.16-.3,1.6,1.6,0,0,1-.1-.32,1.7,1.7,0,0,1,0-.34,1.67,1.67,0,0,1,0-.34,1.6,1.6,0,0,1,.1-.32,1.76,1.76,0,0,1,.16-.3,1.71,1.71,0,0,1,.22-.26,1.59,1.59,0,0,1,.26-.22,1.86,1.86,0,0,1,.3-.16,1.81,1.81,0,0,1,.32-.1,1.74,1.74,0,0,1,1.56.47,1.71,1.71,0,0,1,.22.26,1.75,1.75,0,0,1,.16.3,1.6,1.6,0,0,1,.1.32,1.67,1.67,0,0,1,0,.34,1.7,1.7,0,0,1,0,.34,1.6,1.6,0,0,1-.1.32,1.63,1.63,0,0,1-.16.3,1.71,1.71,0,0,1-1.44.77Z"/></g></g><path id="Path_6827" data-name="Path 6827" class="cls-3" d="M64.28,116.8H56.22a1.73,1.73,0,1,1,0-3.46h8.06a1.73,1.73,0,1,1,0,3.46Z"/><path id="Path_6833" data-name="Path 6833" class="cls-3" d="M49.15,84.19a17.11,17.11,0,0,1-3.72,0,1.59,1.59,0,0,1-1.36-1.75A1.52,1.52,0,0,1,45.73,81a14.11,14.11,0,0,0,6.1-.64,1.52,1.52,0,0,1,1.92,1,1.59,1.59,0,0,1-1,2A17.09,17.09,0,0,1,49.15,84.19Z"/><g id="Group_2717" data-name="Group 2717"><path id="Path_6834" data-name="Path 6834" class="cls-5" d="M31.43,47.2a11.72,11.72,0,0,1-8.66,10.91c0-5.84.61-17.67.68-19.31.46-9.74,9.76-11.76,14.07-12.28a10.83,10.83,0,0,1,1.33-.08,24.12,24.12,0,0,0,14.25-5A15.41,15.41,0,0,1,62,18.36c8.12-.16,15.11,6.21,16,14.61A16.76,16.76,0,0,1,70.54,49a15.34,15.34,0,0,1-11.86,2,53.43,53.43,0,0,0-18.6-1l-.44,0A11,11,0,0,1,31.43,47.2Z"/></g><g id="Group_2718" data-name="Group 2718" class="cls-6"><path id="Path_6835" data-name="Path 6835" class="cls-5" d="M32.73,38.81c.46-9.74,9.76-11.76,14.07-12.28.45-.06-2.8-.09-7.94-.08a10.83,10.83,0,0,0-1.33.08c-4.32.53-13.61,2.55-14.07,12.28-.08,1.63-.73,13.47-.68,19.31A11.72,11.72,0,0,0,31.43,47.2q.42.38.87.71C32.48,43.6,32.69,39.69,32.73,38.81Z"/></g><path id="Path_6836" data-name="Path 6836" class="cls-3" d="M22.77,59.7a1.48,1.48,0,0,1-.94-.34,1.61,1.61,0,0,1-.59-1.24c0-5.24.47-15.23.64-18.51l0-.89C22.3,31,27.78,26.12,37.36,24.95a12.32,12.32,0,0,1,1.51-.09,22.57,22.57,0,0,0,13.37-4.73,16.82,16.82,0,0,1,21.52,1.14A18.55,18.55,0,0,1,71.33,50.4,16.91,16.91,0,0,1,63.5,53a16.72,16.72,0,0,1-5.16-.43,52.09,52.09,0,0,0-18.09-.94l-.49,0A12.38,12.38,0,0,1,32.56,50a13.22,13.22,0,0,1-9.43,9.69A1.46,1.46,0,0,1,22.77,59.7ZM62.33,19.94h-.27A13.93,13.93,0,0,0,54,22.71,25.5,25.5,0,0,1,38.86,28a9.42,9.42,0,0,0-1.15.07C32.1,28.78,25.34,31.21,25,38.88l0,.9c-.15,2.83-.55,10.7-.63,16.09a10.31,10.31,0,0,0,5.6-8.75,1.58,1.58,0,0,1,.92-1.38,1.47,1.47,0,0,1,1.59.26,9.54,9.54,0,0,0,7.12,2.48l.38,0a55,55,0,0,1,19.11,1,13.87,13.87,0,0,0,10.72-1.77,15.23,15.23,0,0,0,6.82-14.53C75.74,25.7,69.51,19.94,62.33,19.94Z"/><path id="Path_6837" data-name="Path 6837" class="cls-7" d="M68.17,46.56a1.51,1.51,0,0,1-1.3-.76,1.62,1.62,0,0,1,.51-2.18,10.49,10.49,0,0,0,2.45-15.27A1.63,1.63,0,0,1,70,26.12a1.48,1.48,0,0,1,2.09.13l.05.07a13.74,13.74,0,0,1-3.2,20A1.47,1.47,0,0,1,68.17,46.56Z"/><path id="Path_6838" data-name="Path 6838" class="cls-7" d="M67.28,25.89a1.47,1.47,0,0,1-.67-.16A9.44,9.44,0,0,0,64,24.84,1.58,1.58,0,0,1,62.74,23a1.53,1.53,0,0,1,1.76-1.29A12.39,12.39,0,0,1,68,22.88a1.62,1.62,0,0,1,.7,2.12A1.52,1.52,0,0,1,67.28,25.89Z"/><g id="Group_2720" data-name="Group 2720"><g id="Group_2698" data-name="Group 2698" class="cls-8"><path id="Path_6813" data-name="Path 6813" class="cls-9" d="M40,70.88h-7.5A4.57,4.57,0,0,1,28,66.31V61.66H46.59l-2.27,6.21A4.57,4.57,0,0,1,40,70.88Z"/><path id="Path_6814" data-name="Path 6814" class="cls-10" d="M57.59,70.88h7.5a4.57,4.57,0,0,0,4.57-4.57h0V61.66H51l2.27,6.21A4.56,4.56,0,0,0,57.59,70.88Z"/></g><path id="Path_6817" data-name="Path 6817" class="cls-11" d="M51,63.39H46.59a1.73,1.73,0,1,1,0-3.46H51a1.73,1.73,0,1,1,0,3.46Z"/><path id="Path_6819" data-name="Path 6819" class="cls-11" d="M28,63.39a1.72,1.72,0,0,1-.77-.18l-4.64-2.3a1.73,1.73,0,0,1,1.5-3.12l0,0,4.64,2.3A1.73,1.73,0,0,1,28,63.39Z"/><path id="Path_6815" data-name="Path 6815" class="cls-11" d="M40,73.39h-7.5c-3.47,0-6.29-3.12-6.29-7V61.27A1.83,1.83,0,0,1,28,59.36H46.59a1.69,1.69,0,0,1,1.42.82,2.09,2.09,0,0,1,.21,1.75l-2.27,6.88A6.38,6.38,0,0,1,40,73.39ZM29.7,63.19v3.24a3,3,0,0,0,2.84,3.14H40A2.88,2.88,0,0,0,42.7,67.5l1.42-4.31Z"/><path id="Path_6818" data-name="Path 6818" class="cls-11" d="M69.66,63.39a1.73,1.73,0,0,1-.77-3.28l4.64-2.3a1.73,1.73,0,1,1,1.58,3.08l0,0-4.64,2.3A1.72,1.72,0,0,1,69.66,63.39Z"/><path id="Path_6816" data-name="Path 6816" class="cls-11" d="M65.09,73.39h-7.5a6.38,6.38,0,0,1-5.91-4.58l-2.27-6.88a2.09,2.09,0,0,1,.21-1.75A1.69,1.69,0,0,1,51,59.36H69.66a1.83,1.83,0,0,1,1.73,1.91v5.15C71.39,70.26,68.56,73.39,65.09,73.39ZM53.5,63.19l1.42,4.31a2.88,2.88,0,0,0,2.67,2.06h7.5a3,3,0,0,0,2.84-3.14V63.19Z"/><path id="Path_6841" data-name="Path 6841" class="cls-7" d="M69.11,66.45V62.33a.56.56,0,0,1,1.12,0v4.12a.56.56,0,0,1-1.12,0Z"/></g><g id="Group_1854" data-name="Group 1854"><path id="Path_4780" data-name="Path 4780" class="cls-12" d="M144.53,85.32l.18,0a27.78,27.78,0,0,1,21.2,27V139H92.18V112.34a27.77,27.77,0,0,1,21.2-27l.18,0"/><path id="Path_4781" data-name="Path 4781" class="cls-5" d="M165.91,140.86H92.18A1.88,1.88,0,0,1,90.29,139V112.34a29.65,29.65,0,0,1,22.62-28.81l.12,0h0l1,3.64-.15,0h-.07a25.89,25.89,0,0,0-19.76,25.15v24.75h70V112.34a25.89,25.89,0,0,0-19.76-25.15h-.07l-.14,0,1-3.64h0l.13,0a29.66,29.66,0,0,1,22.63,28.81V139A1.88,1.88,0,0,1,165.91,140.86Z"/></g><path id="Path_4782" data-name="Path 4782" class="cls-2" d="M106.93,100.07V139H92.18V112.34a27.73,27.73,0,0,1,12.15-23A23.12,23.12,0,0,1,106.93,100.07Z"/><path id="Path_4783" data-name="Path 4783" class="cls-2" d="M165.91,112.34V139H151.15v-38.9a23.12,23.12,0,0,1,2.6-10.69A27.73,27.73,0,0,1,165.91,112.34Z"/><path id="Path_4784" data-name="Path 4784" class="cls-2" d="M144.71,85.36v4.33a15.67,15.67,0,0,1-31.33,0V85.36l.18,0a27.78,27.78,0,0,0,31,0Z"/><path id="Path_4785" data-name="Path 4785" class="cls-4" d="M144.22,85.52a27.88,27.88,0,0,1-8.92,10l-.18.13a27.64,27.64,0,0,1-15.49,4.72c-2,0-2-2.28-3.88-2.7-.21-1-2.38-2.34-2.38-3.42V85.36l.18,0A27.79,27.79,0,0,0,144.22,85.52Z"/><path id="Path_4786" data-name="Path 4786" class="cls-3" d="M129,107.24A17.57,17.57,0,0,1,111.49,89.7v-4.5h3.76v4.5a13.78,13.78,0,1,0,27.57,0v-4.5h3.76v4.5A17.57,17.57,0,0,1,129,107.24Z"/><g id="Group_1855" data-name="Group 1855"><path id="Path_4787" data-name="Path 4787" class="cls-12" d="M165.91,112.34v6.24H151.15V100.07a23.12,23.12,0,0,1,2.6-10.69A27.73,27.73,0,0,1,165.91,112.34Z"/><path id="Path_4788" data-name="Path 4788" class="cls-5" d="M165.91,120.46H151.15a1.88,1.88,0,0,1-1.88-1.88V100.07a25.17,25.17,0,0,1,2.81-11.56,1.88,1.88,0,0,1,2.54-.8l.19.11a29.64,29.64,0,0,1,13,24.52v6.24a1.88,1.88,0,0,1-1.88,1.88ZM153,116.7h11v-4.36a25.87,25.87,0,0,0-9.53-20.06,21.14,21.14,0,0,0-1.46,7.79V116.7Z"/></g><g id="Group_1856" data-name="Group 1856"><path id="Path_4789" data-name="Path 4789" class="cls-12" d="M106.93,100.07v18.51H92.18v-6.24a27.73,27.73,0,0,1,12.15-23A23.12,23.12,0,0,1,106.93,100.07Z"/><path id="Path_4790" data-name="Path 4790" class="cls-5" d="M106.93,120.46H92.18a1.88,1.88,0,0,1-1.88-1.88v-6.24a29.64,29.64,0,0,1,13-24.52,1.88,1.88,0,0,1,2.62.5l.11.19a25.17,25.17,0,0,1,2.81,11.56v18.51A1.88,1.88,0,0,1,106.93,120.46ZM94.06,116.7h11V100.07a21.14,21.14,0,0,0-1.46-7.79,25.87,25.87,0,0,0-9.53,20.06Z"/></g><path id="Path_4791" data-name="Path 4791" class="cls-3" d="M153,139h-3.76v-38.9a25.17,25.17,0,0,1,2.81-11.56l3.34,1.74a21.1,21.1,0,0,0-2.39,9.82Z"/><rect id="Rectangle_261" data-name="Rectangle 261" class="cls-3" x="151.57" y="116.7" width="14.75" height="3.76"/><path id="Path_4792" data-name="Path 4792" class="cls-7" d="M159.64,134.58a1.88,1.88,0,0,1-1.88-1.88v-8.47a1.88,1.88,0,0,1,3.76,0v8.47a1.88,1.88,0,0,1-1.88,1.88Z"/><g id="Group_1857" data-name="Group 1857"><path id="Path_4793" data-name="Path 4793" class="cls-4" d="M105.88,93.15a27.67,27.67,0,0,0-7.7,19.2v26h-6v-26a27.73,27.73,0,0,1,12.15-23A23.15,23.15,0,0,1,105.88,93.15Z"/></g><path id="Path_4794" data-name="Path 4794" class="cls-3" d="M165.91,140.86H92.18A1.88,1.88,0,0,1,90.29,139V112.34a29.65,29.65,0,0,1,22.62-28.81l.12,0h0l1,3.64-.15,0h-.07a25.89,25.89,0,0,0-19.76,25.15v24.75h70V112.34a25.89,25.89,0,0,0-19.76-25.15h-.07l-.14,0,1-3.64h0l.13,0a29.66,29.66,0,0,1,22.63,28.81V139A1.88,1.88,0,0,1,165.91,140.86Z"/><path id="Path_4795" data-name="Path 4795" class="cls-3" d="M108.81,139H105v-38.9a21.1,21.1,0,0,0-2.39-9.82L106,88.51a25.17,25.17,0,0,1,2.81,11.56Z"/><rect id="Rectangle_262" data-name="Rectangle 262" class="cls-3" x="92.18" y="116.7" width="14.75" height="3.76"/><path id="Path_4796" data-name="Path 4796" class="cls-7" d="M120.06,140.27a1.88,1.88,0,0,1-1.33-3.21l11.73-11.73h-6.28a1.88,1.88,0,0,1-1.33-3.21l14.78-14.78a1.88,1.88,0,1,1,2.69,2.63l0,0-11.57,11.57H135a1.88,1.88,0,0,1,1.33,3.21l-14.94,14.94A1.88,1.88,0,0,1,120.06,140.27Z"/><path id="Path_4797" data-name="Path 4797" class="cls-7" d="M129.51,135.21a11.61,11.61,0,1,1,11.61-11.61h0A11.62,11.62,0,0,1,129.51,135.21Zm0-19.45a7.84,7.84,0,1,0,7.84,7.84A7.84,7.84,0,0,0,129.51,115.76Z"/><g id="Group_1858" data-name="Group 1858"><path id="Path_4798" data-name="Path 4798" class="cls-3" d="M170.3,140.86H87.86a1.88,1.88,0,1,1,0-3.76H170.3a1.88,1.88,0,1,1,0,3.76Z"/><path id="Path_4799" data-name="Path 4799" class="cls-3" d="M180.34,140.86h-3.45a1.88,1.88,0,1,1,0-3.76h3.45a1.88,1.88,0,1,1,0,3.76Z"/><path id="Path_4800" data-name="Path 4800" class="cls-3" d="M81.2,140.86H77.75a1.88,1.88,0,1,1,0-3.76H81.2a1.88,1.88,0,1,1,0,3.76Z"/></g><g id="Group_1859" data-name="Group 1859"><circle id="Ellipse_287" data-name="Ellipse 287" class="cls-2" cx="103.45" cy="55.21" r="8.75"/><circle id="Ellipse_288" data-name="Ellipse 288" class="cls-2" cx="154.01" cy="55.21" r="8.75"/></g><path id="Path_4801" data-name="Path 4801" class="cls-3" d="M103.45,65.85a10.63,10.63,0,1,1,10.63-10.63A10.63,10.63,0,0,1,103.45,65.85Zm0-17.5a6.87,6.87,0,1,0,6.87,6.87A6.87,6.87,0,0,0,103.45,48.35Z"/><path id="Path_4802" data-name="Path 4802" class="cls-3" d="M154,65.85a10.63,10.63,0,1,1,10.63-10.63A10.63,10.63,0,0,1,154,65.85Zm0-17.5a6.87,6.87,0,1,0,6.87,6.87h0A6.88,6.88,0,0,0,154,48.35Z"/><path id="Path_4803" data-name="Path 4803" class="cls-2" d="M144.22,85.32a27.78,27.78,0,0,1-31,0l-.18-.13A27.73,27.73,0,0,1,101,62.27V39.06a27.76,27.76,0,0,1,27.76-27.76h0a27.76,27.76,0,0,1,27.76,27.76h0V62.27A27.73,27.73,0,0,1,144.4,85.2Z"/><g id="Group_1862" data-name="Group 1862"><path id="Path_4804" data-name="Path 4804" class="cls-5" d="M128.73,17.57A21.51,21.51,0,0,1,133,18"/><path id="Path_4805" data-name="Path 4805" class="cls-7" d="M133,19.87a1.9,1.9,0,0,1-.37,0,19.7,19.7,0,0,0-3.87-.38,1.88,1.88,0,0,1,0-3.76,23.46,23.46,0,0,1,4.62.46,1.88,1.88,0,0,1-.37,3.73Z"/></g><g id="Group_1863" data-name="Group 1863"><path id="Path_4806" data-name="Path 4806" class="cls-3" d="M118.81,61.63a1.88,1.88,0,1,1,.37-3.73,1.86,1.86,0,0,1,.68.28,1.73,1.73,0,0,1,.29.24,1.87,1.87,0,0,1,.24.29,1.91,1.91,0,0,1,.17.33,1.74,1.74,0,0,1,.11.35,1.82,1.82,0,0,1,0,.37,1.85,1.85,0,0,1,0,.37,1.74,1.74,0,0,1-.11.35,1.77,1.77,0,0,1-.17.32,1.87,1.87,0,0,1-1.57.84Z"/><path id="Path_4807" data-name="Path 4807" class="cls-3" d="M140.15,61.63a2,2,0,0,1-.37,0,2,2,0,0,1-.35-.11,1.86,1.86,0,0,1-.85-.69,1.77,1.77,0,0,1-.17-.32,1.74,1.74,0,0,1-.11-.35,1.85,1.85,0,0,1,0-.37,1.82,1.82,0,0,1,0-.37,1.74,1.74,0,0,1,.11-.35,1.91,1.91,0,0,1,.17-.33,1.87,1.87,0,0,1,.24-.29,1.73,1.73,0,0,1,.29-.24,2,2,0,0,1,.33-.17,2,2,0,0,1,.35-.11,1.9,1.9,0,0,1,1.7.51,1.87,1.87,0,0,1,.24.29,1.91,1.91,0,0,1,.17.33,1.74,1.74,0,0,1,.11.35,1.82,1.82,0,0,1,0,.37,1.85,1.85,0,0,1,0,.37,1.74,1.74,0,0,1-.11.35,1.77,1.77,0,0,1-.17.32,1.87,1.87,0,0,1-1.57.84Z"/></g><path id="Path_4808" data-name="Path 4808" class="cls-3" d="M126.55,65.88A1.88,1.88,0,0,1,124.67,64V58.71a1.82,1.82,0,0,0-1.82-1.82h-9a1.88,1.88,0,1,1,0-3.76h9a5.59,5.59,0,0,1,5.59,5.59V64A1.88,1.88,0,0,1,126.55,65.88Z"/><path id="Path_4809" data-name="Path 4809" class="cls-3" d="M143.45,56.89H132.6a1.89,1.89,0,1,1-.25-3.76h11.1a1.89,1.89,0,0,1,.25,3.76Z"/><path id="Path_4810" data-name="Path 4810" class="cls-4" d="M123,85.32a27.67,27.67,0,0,0,10.62,4.29,27.86,27.86,0,0,1-20.35-4.29l-.18-.13A27.73,27.73,0,0,1,101,62.27V55.21c0-43.61,17.22-43.07,17.22-42.17l-3.26,5a22.21,22.21,0,0,0-.3,23.91c.76,1.22,3.18,5.43,3.14,6.39a7.14,7.14,0,0,1-6.69,6.89h-.39v7.06a27.73,27.73,0,0,0,12.1,22.92Z"/><path id="Path_4811" data-name="Path 4811" class="cls-7" d="M149.59,71.21a1.88,1.88,0,0,1-1.88-1.88V61.49a1.88,1.88,0,0,1,3.76,0v7.84A1.88,1.88,0,0,1,149.59,71.21Z"/><path id="Path_4812" data-name="Path 4812" class="cls-3" d="M128.73,91.92a29.51,29.51,0,0,1-16.54-5l-.05,0-.16-.11A29.66,29.66,0,0,1,99.08,62.27V39.06a1.89,1.89,0,0,1,.16-.77c.53-1.18,13.12-28.88,29.48-28.88a29.68,29.68,0,0,1,29.65,29.65V62.27a29.66,29.66,0,0,1-12.89,24.46l-.16.11,0,0h0A29.51,29.51,0,0,1,128.73,91.92ZM102.85,39.47v22.8a25.89,25.89,0,0,0,11.28,21.37l0,0,.07,0,.06,0a25.9,25.9,0,0,0,28.86,0l.12-.08.05,0a25.89,25.89,0,0,0,11.28-21.37V39.06a25.91,25.91,0,0,0-25.88-25.88c-7.13,0-13.78,7.13-18.11,13.1A87.58,87.58,0,0,0,102.85,39.47Z"/><g id="Group_1865" data-name="Group 1865"><path id="Path_4813" data-name="Path 4813" class="cls-13" d="M156.18,38.9l.31,22a26.63,26.63,0,0,1-6.59-17.53V38.9Z"/><path id="Path_4814" data-name="Path 4814" class="cls-13" d="M107.56,38.9v4.43A26.62,26.62,0,0,1,101,60.86l.31-22Z"/></g><g id="Group_1866" data-name="Group 1866"><path id="Path_4815" data-name="Path 4815" class="cls-3" d="M101,62.74a1.88,1.88,0,0,1-1.88-1.88v0l.31-22A1.88,1.88,0,0,1,101.28,37h6.28a1.88,1.88,0,0,1,1.88,1.88v4.43a28.5,28.5,0,0,1-7.05,18.77A1.88,1.88,0,0,1,101,62.74Zm2.17-22-.2,13.85a24.74,24.74,0,0,0,2.73-11.31V40.78Z"/><path id="Path_4816" data-name="Path 4816" class="cls-3" d="M156.49,62.74a1.88,1.88,0,0,1-1.42-.64A28.51,28.51,0,0,1,148,43.33V38.9A1.88,1.88,0,0,1,149.91,37h6.27a1.88,1.88,0,0,1,1.88,1.86l.31,22a1.88,1.88,0,0,1-1.85,1.91h0Zm-4.7-22v2.54a24.74,24.74,0,0,0,2.73,11.31l-.2-13.85Z"/></g><path id="Path_4817" data-name="Path 4817" class="cls-14" d="M153.55,16.94c5.19,3.42,4.42,14.35,4.24,16.32a66.24,66.24,0,0,0-56.86,0c-.18-2-.95-12.9,4.24-16.32,0,0-1.2-5.33,2.1-7.53a39.06,39.06,0,0,1,22.09-7.53,39.06,39.06,0,0,1,22.09,7.53C154.75,11.61,153.55,16.94,153.55,16.94Z"/><g id="Group_1867" data-name="Group 1867" class="cls-6"><path id="Path_4818" data-name="Path 4818" class="cls-5" d="M117,16.94s-1.2-5.33,2.1-7.53a40,40,0,0,1,16.19-6.94,40.25,40.25,0,0,0-5.9-.59,39.06,39.06,0,0,0-22.09,7.53c-3.31,2.2-2.1,7.53-2.1,7.53-5.19,3.42-4.42,14.35-4.24,16.32A66.2,66.2,0,0,1,112.59,29C112.68,24.93,113.48,19.24,117,16.94Z"/></g><path id="Path_4819" data-name="Path 4819" class="cls-14" d="M159.65,34.18V45.65a66.24,66.24,0,0,0-60.58,0V34.18c.62-.32,1.24-.62,1.86-.92a66.24,66.24,0,0,1,56.86,0C158.41,33.56,159,33.86,159.65,34.18Z"/><g id="Group_1868" data-name="Group 1868" class="cls-6"><path id="Path_4820" data-name="Path 4820" class="cls-5" d="M107.21,30.86l1.24-.62a66.22,66.22,0,0,0-7.52,3c-.62.3-1.24.6-1.86.92V45.65a66.25,66.25,0,0,1,8.14-3.51Z"/></g><path id="Path_4821" data-name="Path 4821" class="cls-3" d="M99.05,33.43c-.28-3.06-.76-12.9,4.09-17.3-.21-2-.16-6.14,3.08-8.29l.4-.27A40.63,40.63,0,0,1,129.31,0h.1a40.62,40.62,0,0,1,22.68,7.58l.4.27c3.24,2.15,3.29,6.24,3.08,8.29,2.1,1.89,3.44,5,4,9.27a38.79,38.79,0,0,1,.11,8l-3.75-.35c.4-4.32.13-12.25-3.4-14.57a1.88,1.88,0,0,1-.8-2s.83-4.13-1.31-5.55l-.41-.27a36.64,36.64,0,0,0-20.64-6.94,36.64,36.64,0,0,0-20.64,6.94l-.41.27c-2.14,1.42-1.31,5.51-1.31,5.55a1.89,1.89,0,0,1-.8,2c-3.53,2.33-3.8,10.26-3.4,14.58Z"/><path id="Path_4822" data-name="Path 4822" class="cls-3" d="M159.65,47.53a1.88,1.88,0,0,1-.86-.21,64.38,64.38,0,0,0-58.86,0,1.88,1.88,0,0,1-2.74-1.67V36.21a5.14,5.14,0,0,1,2.9-4.63l0,0a67.85,67.85,0,0,1,58.48,0l0,0a5.14,5.14,0,0,1,2.89,4.63v9.44a1.88,1.88,0,0,1-1.88,1.88h0Zm-30.29-11.1a68.24,68.24,0,0,1,28.41,6.21V36.21A1.36,1.36,0,0,0,157,35l0,0a64.1,64.1,0,0,0-55.21,0l0,0a1.36,1.36,0,0,0-.76,1.23v6.43a68.25,68.25,0,0,1,28.41-6.21Z"/><path id="Path_4823" data-name="Path 4823" class="cls-7" d="M152.42,26.67a1.88,1.88,0,0,1-1.81-1.39l-.94-3.45a1.88,1.88,0,0,1,3.63-1l.94,3.45a1.88,1.88,0,0,1-1.82,2.38Z"/><path id="Path_4824" data-name="Path 4824" class="cls-3" d="M128.73,78.61a22,22,0,0,1-4.57-.48,1.88,1.88,0,0,1,.78-3.68,18.16,18.16,0,0,0,7.58,0,1.88,1.88,0,1,1,.78,3.68A22,22,0,0,1,128.73,78.61Z"/><path id="Path_581" data-name="Path 581" class="cls-5" d="M245,122.64h-9.32v16.51H248.2V125.82a3.18,3.18,0,0,0-3.18-3.18Z"/><path id="Path_582" data-name="Path 582" class="cls-3" d="M248.2,140.88H235.69a1.74,1.74,0,0,1-1.74-1.74h0V122.64a1.74,1.74,0,0,1,1.74-1.74H245a4.93,4.93,0,0,1,4.92,4.92v13.32A1.74,1.74,0,0,1,248.2,140.88Zm-10.77-3.47h9V125.82a1.45,1.45,0,0,0-1.45-1.45h-7.59Z"/><path id="Path_585" data-name="Path 585" class="cls-15" d="M223.33,89.64l.17,0a25.63,25.63,0,0,1,19.56,24.89v24.57H175V114.57a25.62,25.62,0,0,1,19.56-24.89l.17,0"/><path id="Path_586" data-name="Path 586" class="cls-2" d="M188.64,103.25v35.89H175V114.57a25.58,25.58,0,0,1,11.21-21.18A21.33,21.33,0,0,1,188.64,103.25Z"/><path id="Path_587" data-name="Path 587" class="cls-2" d="M243.06,114.57v24.57H229.44V103.25a21.33,21.33,0,0,1,2.4-9.86A25.58,25.58,0,0,1,243.06,114.57Z"/><path id="Path_588" data-name="Path 588" class="cls-15" d="M243.06,114.57v5.76H229.44V103.25a21.33,21.33,0,0,1,2.4-9.86A25.58,25.58,0,0,1,243.06,114.57Z"/><path id="Path_589" data-name="Path 589" class="cls-15" d="M188.64,103.25v17.08H175v-5.76a25.58,25.58,0,0,1,11.21-21.18A21.33,21.33,0,0,1,188.64,103.25Z"/><rect id="Rectangle_51" data-name="Rectangle 51" class="cls-3" x="229.83" y="118.6" width="13.61" height="3.47"/><path id="Path_590" data-name="Path 590" class="cls-7" d="M237.27,135.09a1.74,1.74,0,0,1-1.74-1.74h0v-7.82a1.74,1.74,0,1,1,3.47,0v7.82A1.74,1.74,0,0,1,237.27,135.09Z"/><g id="Group_187" data-name="Group 187"><path id="Path_591" data-name="Path 591" class="cls-4" d="M187.67,96.86a25.53,25.53,0,0,0-7.11,17.71v5.76H175v-5.76a25.58,25.58,0,0,1,11.21-21.18A21.42,21.42,0,0,1,187.67,96.86Z"/><rect id="Rectangle_52" data-name="Rectangle 52" class="cls-4" x="175.34" y="120.33" width="4.81" height="18.81"/></g><path id="Path_592" data-name="Path 592" class="cls-3" d="M243.06,140.88H175a1.74,1.74,0,0,1-1.74-1.74h0V114.57A27.36,27.36,0,0,1,194.16,88l.11,0h0l.88,3.36-.14,0H195a23.89,23.89,0,0,0-18.23,23.2v22.84h64.56V114.57a23.89,23.89,0,0,0-18.23-23.2H223l-.13,0,.88-3.36h0l.12,0a27.37,27.37,0,0,1,20.87,26.58v24.57A1.74,1.74,0,0,1,243.06,140.88Z"/><path id="Path_593" data-name="Path 593" class="cls-3" d="M190.38,139.15H186.9V103.25a19.47,19.47,0,0,0-2.2-9.06l3.08-1.6a23.22,23.22,0,0,1,2.6,10.67Z"/><rect id="Rectangle_53" data-name="Rectangle 53" class="cls-3" x="175.03" y="118.6" width="13.61" height="3.47"/><path id="Path_598" data-name="Path 598" class="cls-2" d="M223.5,89.68v5.18a14.46,14.46,0,0,1-28.91,0V89.68l.17,0a25.64,25.64,0,0,0,28.57,0Z"/><path id="Path_599" data-name="Path 599" class="cls-4" d="M223,89.83a25.72,25.72,0,0,1-8.23,9.25l-.17.12A25.66,25.66,0,0,1,194.87,103a14.43,14.43,0,0,1-.29-2.89V89.68l.17,0a25.64,25.64,0,0,0,28.29.19Z"/><path id="Path_602" data-name="Path 602" class="cls-3" d="M209,111.05a16.21,16.21,0,0,1-16.19-16.19V89.53h3.47v5.33a12.72,12.72,0,0,0,25.44.12s0-.08,0-.12V89.53h3.47v5.33A16.21,16.21,0,0,1,209,111.05Z"/><g id="Group_192" data-name="Group 192"><path id="Path_607" data-name="Path 607" class="cls-3" d="M256.37,140.88h-3.18a1.74,1.74,0,0,1,0-3.47h3.18a1.74,1.74,0,1,1,0,3.47Z"/><path id="Path_608" data-name="Path 608" class="cls-3" d="M164.9,140.88h-3.18a1.74,1.74,0,1,1,0-3.47h3.18a1.74,1.74,0,0,1,0,3.47Z"/></g><path id="Path_614" data-name="Path 614" class="cls-16" d="M223.3,125.82v13.32h-6.37V125.82a3.18,3.18,0,0,1,6.37,0Z"/><path id="Path_615" data-name="Path 615" class="cls-5" d="M229.44,122.64v16.51H223.3V125.82a3.18,3.18,0,0,0-3.18-3.18h9.32Z"/><path id="Path_616" data-name="Path 616" class="cls-3" d="M231.18,139.15h-3.47V103.26a23.22,23.22,0,0,1,2.6-10.67l3.08,1.6a19.46,19.46,0,0,0-2.2,9.06Z"/><path id="Path_617" data-name="Path 617" class="cls-3" d="M247.11,140.88H223.3a1.74,1.74,0,0,1,0-3.47h23.8a1.74,1.74,0,0,1,0,3.47Z"/><path id="Path_618" data-name="Path 618" class="cls-3" d="M216.93,140.88H171a1.74,1.74,0,0,1,0-3.47h45.89a1.74,1.74,0,0,1,0,3.47Z"/><path id="Path_619" data-name="Path 619" class="cls-3" d="M223.3,140.88h-6.37a1.74,1.74,0,0,1-1.74-1.74h0V125.82a4.92,4.92,0,1,1,9.84,0v13.32a1.74,1.74,0,0,1-1.74,1.74Zm-4.63-3.47h2.89V125.82a1.45,1.45,0,1,0-2.89,0Z"/><rect id="Rectangle_54" data-name="Rectangle 54" class="cls-3" x="220.12" y="120.9" width="9.32" height="3.47"/><g id="Group_184" data-name="Group 184"><circle id="Ellipse_5" data-name="Ellipse 5" class="cls-2" cx="185.72" cy="61.86" r="8.07"/><circle id="Ellipse_6" data-name="Ellipse 6" class="cls-2" cx="232.36" cy="61.86" r="8.07"/></g><g id="Group_185" data-name="Group 185"><path id="Path_583" data-name="Path 583" class="cls-3" d="M185.72,71.67a9.81,9.81,0,1,1,9.81-9.81h0A9.82,9.82,0,0,1,185.72,71.67Zm0-16.15a6.34,6.34,0,1,0,6.34,6.34,6.34,6.34,0,0,0-6.34-6.34Z"/><path id="Path_584" data-name="Path 584" class="cls-3" d="M232.36,71.67a9.81,9.81,0,1,1,9.81-9.81A9.81,9.81,0,0,1,232.36,71.67Zm0-16.15a6.34,6.34,0,1,0,6.34,6.34,6.34,6.34,0,0,0-6.34-6.34Z"/></g><path id="Path_594" data-name="Path 594" class="cls-2" d="M223.33,89.64a25.64,25.64,0,0,1-28.57,0l-.17-.12a25.59,25.59,0,0,1-11.16-21.15V47c0-14.15,7.73-14.89,21.88-14.89L209,30.51c14.15,0,25.62,2.3,25.62,16.45V68.38a25.59,25.59,0,0,1-11.16,21.15Z"/><path id="Path_595" data-name="Path 595" class="cls-4" d="M203.73,89.64a25.53,25.53,0,0,0,9.8,4,25.71,25.71,0,0,1-18.77-4l-.17-.12a25.59,25.59,0,0,1-11.16-21.15V47c3.82,0,6.91,5.14,6.91,1.31h0a4,4,0,0,1,5.59-3.67A33.49,33.49,0,0,0,200,46.05a4,4,0,0,0-.67,2.22v6.68c0,3.82-1.43,3.1-5.25,3.1l-4,7.05c0,.88,2.4,5,2.49,5.88a25.6,25.6,0,0,0,11,18.54Z"/><g id="Group_189" data-name="Group 189"><path id="Path_603" data-name="Path 603" class="cls-3" d="M199.89,67.78a1.74,1.74,0,1,1,.34-3.44,1.72,1.72,0,0,1,.63.26,1.59,1.59,0,0,1,.26.22,1.72,1.72,0,0,1,.22.26,1.76,1.76,0,0,1,.16.3,1.61,1.61,0,0,1,.1.32,1.68,1.68,0,0,1,0,.34,1.71,1.71,0,0,1,0,.34,1.61,1.61,0,0,1-.1.32,1.64,1.64,0,0,1-.16.3,1.72,1.72,0,0,1-1.44.77Z"/><path id="Path_604" data-name="Path 604" class="cls-3" d="M219.57,67.78a1.89,1.89,0,0,1-.34,0,1.83,1.83,0,0,1-.32-.1,1.71,1.71,0,0,1-.78-.64,1.64,1.64,0,0,1-.16-.3,1.61,1.61,0,0,1-.1-.32,1.71,1.71,0,0,1,0-.34,1.68,1.68,0,0,1,0-.34,1.61,1.61,0,0,1,.1-.32,1.76,1.76,0,0,1,.16-.3,1.72,1.72,0,0,1,.22-.26,1.59,1.59,0,0,1,.26-.22,1.87,1.87,0,0,1,.3-.16,1.82,1.82,0,0,1,.32-.1,1.75,1.75,0,0,1,1.57.47,1.72,1.72,0,0,1,.22.26,1.76,1.76,0,0,1,.16.3,1.61,1.61,0,0,1,.1.32,1.68,1.68,0,0,1,0,.34,1.71,1.71,0,0,1,0,.34,1.61,1.61,0,0,1-.1.32,1.64,1.64,0,0,1-.16.3,1.72,1.72,0,0,1-1.44.77Z"/></g><path id="Path_612" data-name="Path 612" class="cls-3" d="M209,95.73a27.23,27.23,0,0,1-15.26-4.65l-.05,0-.15-.1a27.36,27.36,0,0,1-11.9-22.57V47c0-15.08,12.27-23.88,27.35-23.88,7.31,0,14.18-.63,19.34,4.54a27.19,27.19,0,0,1,8,19.34V68.38a27.36,27.36,0,0,1-11.9,22.57l-.15.1,0,0A27.24,27.24,0,0,1,209,95.73Zm0-72.65A23.91,23.91,0,0,0,185.16,47V68.38a23.89,23.89,0,0,0,10.41,19.72l.05,0,.12.08a23.9,23.9,0,0,0,26.62,0l0,0,.06,0,0,0a23.89,23.89,0,0,0,10.41-19.72V47A23.88,23.88,0,0,0,209,23.08h0Z"/><g id="Group_199" data-name="Group 199"><path id="Path_620" data-name="Path 620" class="cls-3" d="M207,72a1.74,1.74,0,0,1-1.74-1.74V65.38a1.68,1.68,0,0,0-1.68-1.68h-8.27a1.74,1.74,0,0,1,0-3.47h8.27a5.16,5.16,0,0,1,5.16,5.16v4.88A1.74,1.74,0,0,1,207,72Z"/><path id="Path_621" data-name="Path 621" class="cls-3" d="M222.74,63.7H215.8a1.74,1.74,0,0,1,0-3.47h6.95a1.74,1.74,0,0,1,0,3.47Z"/></g><path id="Path_631" data-name="Path 631" class="cls-3" d="M209.62,84a20.31,20.31,0,0,1-4.22-.45,1.74,1.74,0,0,1,.72-3.4,16.76,16.76,0,0,0,7,0,1.74,1.74,0,0,1,.72,3.4A20.29,20.29,0,0,1,209.62,84Z"/><g id="Group_1883" data-name="Group 1883"><path id="Path_4853" data-name="Path 4853" class="cls-17" d="M192.59,46.74a12.3,12.3,0,0,1-9.28,11.38c0-6.09.65-18.43.73-20.14.49-10.15,10.47-12.26,15.1-12.81a11.94,11.94,0,0,1,1.42-.09,26.35,26.35,0,0,0,15.29-5.24,16.84,16.84,0,0,1,9.57-3.19,17.28,17.28,0,0,1,9.13,32,16.86,16.86,0,0,1-12.72,2,58.92,58.92,0,0,0-20-1l-.47,0A12.06,12.06,0,0,1,192.59,46.74Z"/></g><g id="Group_1884" data-name="Group 1884" class="cls-6"><path id="Path_4854" data-name="Path 4854" class="cls-5" d="M194.67,38c.53-10.15,11.14-12.26,16.07-12.81.51-.06-3.2-.1-9.07-.09a13.52,13.52,0,0,0-1.52.09c-4.93.55-15.54,2.66-16.07,12.81-.09,1.7-.83,14-.78,20.14a12.51,12.51,0,0,0,9.88-11.38q.48.39,1,.74C194.38,43,194.62,38.91,194.67,38Z"/></g><path id="Path_4855" data-name="Path 4855" class="cls-3" d="M183.21,59.78a1.64,1.64,0,0,1-1-.35,1.66,1.66,0,0,1-.63-1.29c0-5.46.51-15.88.69-19.3,0-.42,0-.74,0-.93.39-8,6.31-13.14,16.65-14.37a13.77,13.77,0,0,1,1.63-.1A24.92,24.92,0,0,0,215,18.51a18.66,18.66,0,0,1,23.24,1.19,18.94,18.94,0,0,1-2.61,30.38,18.71,18.71,0,0,1-14,2.24,58.22,58.22,0,0,0-19.54-1l-.53,0a13.75,13.75,0,0,1-7.77-1.76A14,14,0,0,1,183.6,59.73,1.63,1.63,0,0,1,183.21,59.78Zm42.71-41.46h-.29a15.39,15.39,0,0,0-8.71,2.88,28.16,28.16,0,0,1-16.34,5.55,10.53,10.53,0,0,0-1.24.07c-6.06.72-13.36,3.25-13.75,11.25,0,.19,0,.51,0,.94-.16,3-.59,11.16-.68,16.78a10.74,10.74,0,0,0,6.05-9.12,1.65,1.65,0,0,1,1-1.44,1.64,1.64,0,0,1,1.72.27,10.53,10.53,0,0,0,7.69,2.59l.41,0a61.46,61.46,0,0,1,20.63,1,15.44,15.44,0,0,0,11.57-1.85,15.61,15.61,0,0,0-8-28.93Z"/><path id="Path_4856" data-name="Path 4856" class="cls-7" d="M232.24,46.08a1.76,1.76,0,0,1-1.49-.8,1.61,1.61,0,0,1,.5-2.22l.09-.05a10.53,10.53,0,0,0,5.31-10.34,10.33,10.33,0,0,0-2.51-5.58,1.6,1.6,0,0,1,.13-2.26l.09-.07a1.8,1.8,0,0,1,2.45.21,13.55,13.55,0,0,1,3.3,7.32,13.79,13.79,0,0,1-7,13.55A1.8,1.8,0,0,1,232.24,46.08Z"/><path id="Path_4857" data-name="Path 4857" class="cls-7" d="M231.22,24.52a1.81,1.81,0,0,1-.76-.17,11.49,11.49,0,0,0-3-.92A1.66,1.66,0,0,1,226,21.56v0a1.73,1.73,0,0,1,2-1.35A15.08,15.08,0,0,1,232,21.38a1.62,1.62,0,0,1,.84,2.13l0,.08A1.75,1.75,0,0,1,231.22,24.52Z"/><path id="Path_4858" data-name="Path 4858" class="cls-5" d="M194.93,46.74h0Z"/></g></g></svg>