<svg id="Group_2968" data-name="Group 2968" xmlns="http://www.w3.org/2000/svg" viewBox="-8916.625 -1172.782 989.549 575.422">
  <defs>
    <style>
      .cls-1 {
        fill: #a76b22;
      }

      .cls-2 {
        fill: #1c73e6;
      }

      .cls-3 {
        fill: #ffd3ae;
      }

      .cls-4 {
        fill: rgba(27,27,27,0.1);
      }

      .cls-5 {
        fill: #1969d1;
      }

      .cls-6 {
        fill: #f5cba6;
      }

      .cls-7 {
        fill: #333;
      }

      .cls-8 {
        fill: #fff;
      }

      .cls-9 {
        fill: #665a52;
      }

      .cls-10 {
        fill: #666;
      }

      .cls-11 {
        opacity: 0.44;
      }

      .cls-12 {
        fill: #4d4d4d;
      }

      .cls-13 {
        fill: #e63535;
      }

      .cls-14 {
        fill: #d13030;
      }

      .cls-15 {
        fill: #413933;
      }

      .cls-16 {
        fill: #2ecc71;
      }

      .cls-17 {
        fill: #2ab865;
      }

      .cls-18 {
        fill: #1b1b1b;
        opacity: 0.1;
      }

      .cls-19 {
        fill: #f7b239;
      }

      .cls-20 {
        fill: #e6bf9e;
      }
    </style>
  </defs>
  <path id="Path_7190" data-name="Path 7190" class="cls-1" d="M980.505,271.561H25.078c-9.421,0-17.061-3.657-17.061-8.166V247.063c0-4.509,7.64-8.166,17.061-8.166H980.505c9.421,0,17.061,3.656,17.061,8.166v16.332C997.566,267.9,989.928,271.561,980.505,271.561Z" transform="translate(-8924.642 -868.92)"/>
  <g id="Group_2953" data-name="Group 2953" transform="translate(-8091.456 375.854)">
    <path id="Path_4780" data-name="Path 4780" class="cls-2" d="M318,264.961c.244.064.5.116.746.18A113.827,113.827,0,0,1,405.628,375.7V484.832H103.481V375.7a113.806,113.806,0,0,1,86.866-110.559c.244-.064.5-.116.746-.18" transform="translate(-585.348 -1490.978)"/>
    <path id="Path_4783" data-name="Path 4783" class="cls-3" d="M351.944,381.182v83.857H291.471V381.182Z" transform="translate(-531.664 -1471.185)"/>
    <path id="Path_4784" data-name="Path 4784" class="cls-3" d="M299.453,265.141v17.751a64.2,64.2,0,1,1-128.4,0V265.141c.244-.064.5-.116.746-.18a113.858,113.858,0,0,0,126.911,0C298.952,265.025,299.209,265.077,299.453,265.141Z" transform="translate(-566.052 -1490.978)"/>
    <path id="Path_4785" data-name="Path 4785" class="cls-4" d="M297.448,265.8a114.246,114.246,0,0,1-36.562,41.074c-.244.18-.5.347-.746.514a113.253,113.253,0,0,1-63.456,19.322c-8.356,0-8.038,2.512-16.37-10.615s-9.264-27.412-9.264-31.808V265.141c.244-.064.5-.116.746-.18a113.863,113.863,0,0,0,125.651.836Z" transform="translate(-566.052 -1490.978)"/>
    <path id="Path_4787" data-name="Path 4787" class="cls-5" d="M351.944,372v25.57H291.471V321.723a94.739,94.739,0,0,1,10.657-43.812A113.632,113.632,0,0,1,351.944,372Z" transform="translate(-531.664 -1487.28)"/>
    <path id="Path_4789" data-name="Path 4789" class="cls-5" d="M163.941,321.723v75.849h-60.46V372a113.621,113.621,0,0,1,49.8-94.091A94.739,94.739,0,0,1,163.941,321.723Z" transform="translate(-585.348 -1487.28)"/>
    <path id="Union_11" data-name="Union 11" class="cls-6" d="M207.15,35.855A35.855,35.855,0,1,1,243,71.708,35.854,35.854,0,0,1,207.15,35.855ZM0,35.855A35.854,35.854,0,1,1,35.855,71.708,35.854,35.854,0,0,1,0,35.855Z" transform="translate(-471.511 -1384.08)"/>
    <path id="Path_4803" data-name="Path 4803" class="cls-3" d="M305.223,323.355a113.858,113.858,0,0,1-126.911,0c-.244-.167-.5-.334-.746-.514A113.648,113.648,0,0,1,128,228.9V133.773A113.773,113.773,0,0,1,241.768,20h0A113.773,113.773,0,0,1,355.54,133.773V228.9a113.648,113.648,0,0,1-49.571,93.936C305.725,323.021,305.468,323.188,305.223,323.355Z" transform="translate(-573.848 -1548.205)"/>
    <g id="Group_1862" data-name="Group 1862" transform="translate(-339.795 -1510.207)">
      <path id="Path_4804" data-name="Path 4804" class="cls-7" d="M216.5,40a88.148,88.148,0,0,1,17.4,1.725" transform="translate(-208.78 -32.287)"/>
      <path id="Path_4805" data-name="Path 4805" class="cls-8" d="M235.613,51.153a7.776,7.776,0,0,1-1.53-.153,80.715,80.715,0,0,0-15.875-1.574,7.713,7.713,0,0,1,0-15.427,96.137,96.137,0,0,1,18.918,1.877,7.714,7.714,0,0,1-1.513,15.276Z" transform="translate(-210.494 -34)"/>
    </g>
    <path id="Union_15" data-name="Union 15" class="cls-7" d="M49.838,102.475a7.713,7.713,0,0,1,3.2-15.092,74.429,74.429,0,0,0,31.07,0,7.713,7.713,0,0,1,3.2,15.092,89.706,89.706,0,0,1-37.466,0Zm2.087-57.909V22.9a7.477,7.477,0,0,0-7.471-7.469H7.714A7.713,7.713,0,1,1,7.714,0H44.455a22.924,22.924,0,0,1,22.9,22.9V44.566a7.713,7.713,0,1,1-15.427,0ZM113.842,34.7a8.068,8.068,0,0,1-1.44-.45,7.37,7.37,0,0,1-1.337-.707,7.826,7.826,0,0,1-1.171-.952,7.73,7.73,0,0,1-.963-1.182,7.23,7.23,0,0,1-.707-1.325,7.134,7.134,0,0,1-.437-1.439,7.543,7.543,0,0,1-.154-1.517,7.408,7.408,0,0,1,.154-1.5,7.178,7.178,0,0,1,.437-1.44,7.759,7.759,0,0,1,.707-1.336,7.638,7.638,0,0,1,.963-1.171,7.167,7.167,0,0,1,1.171-.964,8.242,8.242,0,0,1,1.337-.707,8.108,8.108,0,0,1,1.44-.438A7.79,7.79,0,0,1,120.8,21.68a7.646,7.646,0,0,1,.964,1.171,7.9,7.9,0,0,1,.707,1.336,7.179,7.179,0,0,1,.437,1.44,7.478,7.478,0,0,1,.154,1.5,7.615,7.615,0,0,1-.154,1.517,7.135,7.135,0,0,1-.437,1.439,7.35,7.35,0,0,1-.707,1.325,7.657,7.657,0,0,1-6.415,3.433A8.406,8.406,0,0,1,113.842,34.7ZM22.477,32.595a7.714,7.714,0,0,1,6.955-13.023,7.65,7.65,0,0,1,2.777,1.144,7.119,7.119,0,0,1,1.17.964,7.626,7.626,0,0,1,.964,1.17,7.872,7.872,0,0,1,.707,1.337,7.18,7.18,0,0,1,.437,1.44,7.477,7.477,0,0,1,.154,1.5,7.619,7.619,0,0,1-.154,1.517,7.679,7.679,0,0,1-1.144,2.763,7.649,7.649,0,0,1-.964,1.183,7.726,7.726,0,0,1-10.9,0ZM84.433,15.427a7.982,7.982,0,0,1-8.225-7.714A7.983,7.983,0,0,1,84.433,0H128.9a7.983,7.983,0,0,1,8.225,7.713,7.981,7.981,0,0,1-8.225,7.714Z" transform="translate(-400.646 -1356.796)"/>
    <path id="Path_7574" data-name="Path 7574" class="cls-3" d="M351.944,381.182v83.857H291.471V381.182Z" transform="translate(-773.237 -1471.185)"/>
    <path id="Path_7575" data-name="Path 7575" class="cls-9" d="M348.727,110.961v84.2c-16.971,0-30.737-12.678-30.737-28.333V116.345c0-11.789-13.1-19.723-24.832-15.027a157.414,157.414,0,0,1-58.3,11.137,157.3,157.3,0,0,1-58.284-11.137,19.05,19.05,0,0,0-7.076-1.376c-9.367,0-17.768,6.974-17.768,16.4v50.478c0,15.655-13.767,28.333-30.737,28.333v-84.2C120.995,52.993,171.975,6,234.861,6h0C297.747,6,348.727,52.993,348.727,110.961Z" transform="translate(-566.848 -1534.205)"/>
    <g id="Group_2941" data-name="Group 2941" transform="translate(-458.213 -1548.636)">
      <path id="Path_4817" data-name="Path 4817" class="cls-10" d="M352.7,65.156c20.384,13.433,17.377,56.371,16.662,64.11a260.22,260.22,0,0,0-223.376,0c-.715-7.74-3.722-50.677,16.662-64.11,0,0-4.732-20.951,8.257-29.578S211.635,7.232,257.678,6c46.031,1.232,73.773,20.951,86.762,29.578S352.7,65.156,352.7,65.156Z" transform="translate(-131.28 -6)"/>
      <g id="Group_1867" data-name="Group 1867" class="cls-11" transform="translate(14.128)">
        <path id="Path_4818" data-name="Path 4818" class="cls-12" d="M208.981,65.156s-4.732-20.951,8.257-29.578c10.643-7.068,31.2-21.577,63.6-27.269A158.11,158.11,0,0,0,257.678,6C211.635,7.232,183.893,26.951,170.9,35.578s-8.257,29.578-8.257,29.578c-20.384,13.433-17.377,56.371-16.662,64.11a260.066,260.066,0,0,1,45.8-16.691C192.151,96.536,195.279,74.186,208.981,65.156Z" transform="translate(-145.408 -6)"/>
      </g>
      <path id="Path_4819" data-name="Path 4819" class="cls-12" d="M377.937,114.381v45.045a260.222,260.222,0,0,0-237.992,0V114.381c2.428-1.245,4.856-2.453,7.308-3.611a260.22,260.22,0,0,1,223.376,0C373.082,111.929,375.51,113.136,377.937,114.381Z" transform="translate(-132.549 12.496)"/>
      <path id="Path_4822" data-name="Path 4822" class="cls-12" d="M379.332,168.236a7.383,7.383,0,0,1-3.38-.818,252.9,252.9,0,0,0-231.23,0,7.4,7.4,0,0,1-10.777-6.576V123.758a20.19,20.19,0,0,1,11.389-18.183l.141-.068a266.552,266.552,0,0,1,229.723,0l.16.078a20.187,20.187,0,0,1,11.368,18.173v37.084a7.393,7.393,0,0,1-7.392,7.394Zm-118.99-43.591a268.094,268.094,0,0,1,111.6,24.377V123.758a5.335,5.335,0,0,0-2.99-4.845c-.062-.03-.124-.059-.185-.091a251.81,251.81,0,0,0-216.874.01c-.06.031-.124.062-.165.081a5.335,5.335,0,0,0-2.99,4.845v25.265a268.1,268.1,0,0,1,111.608-24.377Z" transform="translate(-133.944 11.081)"/>
    </g>
    <path id="Path_7576" data-name="Path 7576" class="cls-8" d="M312.571,91.571a7.715,7.715,0,0,1-7.437-5.686l-3.857-14.141a7.713,7.713,0,1,1,14.883-4.059l3.857,14.141a7.72,7.72,0,0,1-7.446,9.745Z" transform="translate(-567.239 -1551.001)"/>
    <path id="Path_7577" data-name="Path 7577" class="cls-8" d="M272.991,0,231.83,73.574h82.33Zm0,33.069,14.134,25.262H258.865Z" transform="translate(-601.404 -1116.081)"/>
  </g>
  <g id="Group_2954" data-name="Group 2954" transform="translate(-8939.852 391.122)">
    <path id="Path_562" data-name="Path 562" class="cls-13" d="M307.259,241.969c.245.065.5.116.748.181A114.227,114.227,0,0,1,395.191,353.1V462.611H91.984V353.1A114.205,114.205,0,0,1,179.155,242.15c.245-.064.5-.116.748-.181" transform="translate(-35.613 -1484.072)"/>
    <path id="Path_563" data-name="Path 563" class="cls-3" d="M152.656,298.885v159.97H91.984V349.34a114.02,114.02,0,0,1,49.978-94.421A95.072,95.072,0,0,1,152.656,298.885Z" transform="translate(-35.613 -1480.316)"/>
    <path id="Path_564" data-name="Path 564" class="cls-3" d="M340.66,349.34V458.855H279.975V298.885a95.071,95.071,0,0,1,10.695-43.966A114.034,114.034,0,0,1,340.66,349.34Z" transform="translate(18.919 -1480.316)"/>
    <path id="Path_565" data-name="Path 565" class="cls-3" d="M288.408,242.15v17.813a64.426,64.426,0,0,1-128.853,0V242.15c.245-.064.5-.116.748-.181a114.258,114.258,0,0,0,127.357,0C287.9,242.034,288.163,242.085,288.408,242.15Z" transform="translate(-16.012 -1484.072)"/>
    <path id="Path_568" data-name="Path 568" class="cls-14" d="M340.66,349.34V375H279.975V298.885a95.071,95.071,0,0,1,10.695-43.966A114.034,114.034,0,0,1,340.66,349.34Z" transform="translate(18.919 -1480.316)"/>
    <path id="Path_569" data-name="Path 569" class="cls-14" d="M152.656,298.885V375H91.984V349.34a114.02,114.02,0,0,1,49.978-94.421A95.072,95.072,0,0,1,152.656,298.885Z" transform="translate(-35.613 -1480.316)"/>
    <g id="Group_181" data-name="Group 181" transform="translate(163.019 -1139.001)">
      <path id="Path_575" data-name="Path 575" class="cls-8" d="M221.03,431.495A38.7,38.7,0,1,1,248.4,365.426h0a38.7,38.7,0,0,1-27.368,66.069Zm0-61.924a23.219,23.219,0,1,0,16.421,6.8h0A23.066,23.066,0,0,0,221.03,369.571Z" transform="translate(-172.426 -344.186)"/>
      <path id="Path_576" data-name="Path 576" class="cls-8" d="M186.775,436.316a11.738,11.738,0,0,1-8.672-3.441c-6.618-6.617-3.736-18.141,8.813-35.232a7.741,7.741,0,0,1,12.479,9.162,74.5,74.5,0,0,0-7.675,12.445,65.092,65.092,0,0,0,9.245-5.4,158.892,158.892,0,0,0,22.3-18.836,158.811,158.811,0,0,0,18.827-22.282,65.252,65.252,0,0,0,5.4-9.256,74.446,74.446,0,0,0-12.445,7.675,7.741,7.741,0,1,1-9.162-12.479c17.094-12.548,28.617-15.429,35.233-8.811,6.123,6.121,4.084,16.452-6.231,31.581a174.162,174.162,0,0,1-20.68,24.52,174.2,174.2,0,0,1-24.533,20.689C200.214,433.1,192.627,436.315,186.775,436.316Z" transform="translate(-174.652 -346.413)"/>
    </g>
    <path id="Path_7578" data-name="Path 7578" class="cls-4" d="M299.673,258.97c-7.906,15.049-14.8,33.49-48.683,49.373s-60.374,14.7-60.374,14.7.277,1.969-7.907-8.846-11.658-27.164-11.658-31.176V265.551c.223-.059.457-.106.68-.164a103.335,103.335,0,0,0,57.9,17.63C250.579,283.017,283.369,269.633,299.673,258.97Z" transform="translate(-27.236 -1501.123)"/>
    <path id="Union_12" data-name="Union 12" class="cls-6" d="M183.009,31.46a31.677,31.677,0,1,1,31.676,31.46A31.569,31.569,0,0,1,183.009,31.46ZM0,31.46A31.677,31.677,0,1,1,31.676,62.92,31.569,31.569,0,0,1,0,31.46Z" transform="translate(80.59 -1373.931)"/>
    <path id="Path_5917" data-name="Path 5917" class="cls-3" d="M298.676,285.766c-16.014,9.548-36.406,15.122-57.167,15.122a109.378,109.378,0,0,1-56.061-15.122c-.216-.131-.443-.262-.659-.4-26.44-16.037-43.795-76.172-43.795-106.707V156.019l22.486-51.652c0-49.175,22.515-56.011,78.028-56.011h0c55.512,0,100.514-55.815,100.514-6.64v136.94c0,30.535-16.248,90.67-42.688,106.707C299.119,285.5,298.892,285.635,298.676,285.766Z" transform="translate(-37.738 -1518.152)"/>
    <g id="Group_2274" data-name="Group 2274" transform="translate(161.056 -1332.946)">
      <path id="Path_5919" data-name="Path 5919" class="cls-7" d="M198.7,207.973A6.889,6.889,0,0,1,193.884,206a6.735,6.735,0,0,1,0-9.577,6.912,6.912,0,0,1,6.144-1.85,7.3,7.3,0,0,1,1.283.384,7.217,7.217,0,0,1,1.17.62,6.241,6.241,0,0,1,1.034.846,6.724,6.724,0,0,1,.852,1.026,6.862,6.862,0,0,1,.625,1.173,6.244,6.244,0,0,1,.386,1.263,6.509,6.509,0,0,1,.136,1.32,6.619,6.619,0,0,1-.136,1.331,6.241,6.241,0,0,1-.386,1.263,6.362,6.362,0,0,1-.625,1.162,6.809,6.809,0,0,1-.852,1.038A6.889,6.889,0,0,1,198.7,207.973Z" transform="translate(-191.885 -194.445)"/>
      <path id="Path_5920" data-name="Path 5920" class="cls-7" d="M266.7,207.973a7.47,7.47,0,0,1-1.329-.124,7.213,7.213,0,0,1-1.272-.395,6.536,6.536,0,0,1-1.181-.62,6.556,6.556,0,0,1-1.885-1.872,6.366,6.366,0,0,1-.625-1.162,6.238,6.238,0,0,1-.386-1.263,6.623,6.623,0,0,1-.136-1.331,6.514,6.514,0,0,1,.136-1.32,6.241,6.241,0,0,1,.386-1.263,6.861,6.861,0,0,1,.625-1.173,6.716,6.716,0,0,1,.852-1.026,6.244,6.244,0,0,1,1.033-.846,7.327,7.327,0,0,1,1.181-.62,7.179,7.179,0,0,1,1.272-.384,6.912,6.912,0,0,1,6.144,1.85,6.714,6.714,0,0,1,.852,1.026,6.861,6.861,0,0,1,.625,1.173,6.248,6.248,0,0,1,.386,1.263,6.512,6.512,0,0,1,.136,1.32,6.621,6.621,0,0,1-.136,1.331,6.245,6.245,0,0,1-.386,1.263,6.366,6.366,0,0,1-.625,1.162,6.8,6.8,0,0,1-.852,1.038A6.889,6.889,0,0,1,266.7,207.973Z" transform="translate(-182.654 -194.445)"/>
    </g>
    <g id="Group_2275" data-name="Group 2275" transform="translate(143.197 -1349.991)">
      <path id="Path_5921" data-name="Path 5921" class="cls-7" d="M228.85,225.206a6.792,6.792,0,0,1-6.815-6.768V199.424a6.584,6.584,0,0,0-6.6-6.554h-32.46a6.768,6.768,0,1,1,0-13.536h32.46a20.183,20.183,0,0,1,20.229,20.09v19.015A6.792,6.792,0,0,1,228.85,225.206Z" transform="translate(-176.161 -179.334)"/>
      <path id="Path_5922" data-name="Path 5922" class="cls-7" d="M280.9,192.871H253.643a6.768,6.768,0,1,1,0-13.536H280.9a6.768,6.768,0,1,1,0,13.536Z" transform="translate(-166.568 -179.334)"/>
    </g>
    <path id="Path_5929" data-name="Path 5929" class="cls-7" d="M180.209,115.2H166.58l13.629-.011Z" transform="translate(-34.265 -1537.535)"/>
    <path id="Path_5937" data-name="Path 5937" class="cls-7" d="M231.416,241.3a80.2,80.2,0,0,1-16.55-1.735,6.77,6.77,0,1,1,2.826-13.241,66.2,66.2,0,0,0,27.449,0,6.77,6.77,0,1,1,2.826,13.241A80.122,80.122,0,0,1,231.416,241.3Z" transform="translate(-25.362 -1501.955)"/>
    <path id="Path_4853" data-name="Path 4853" class="cls-9" d="M177.313,131.932a51.492,51.492,0,0,1-38.872,47.639c-.194-25.486,2.721-77.161,3.074-84.3,2.072-42.507,43.825-51.318,63.2-53.624a50.006,50.006,0,0,1,5.966-.357c23.08-.046,45.214-8.372,64-21.934A70.514,70.514,0,0,1,314.733,6.014c36.458-.7,67.873,27.123,72.074,63.8a72.461,72.461,0,0,1-33.851,70.149,70.6,70.6,0,0,1-53.242,8.557c-27.35-6.493-55.587-7.242-83.529-4.232-.649.069-1.3.127-1.958.173A50.479,50.479,0,0,1,177.313,131.932Z" transform="translate(-35.29 -1527.122)"/>
    <path id="Path_5927" data-name="Path 5927" class="cls-8" d="M6.837,89.052A6.835,6.835,0,0,1,.992,85.787a6.756,6.756,0,0,1,2.295-9.318A43.761,43.761,0,0,0,24.165,34.023a43.274,43.274,0,0,0-9.889-22.893,6.751,6.751,0,0,1,.864-9.554,6.864,6.864,0,0,1,9.621.858A56.765,56.765,0,0,1,37.733,32.46,57.334,57.334,0,0,1,10.374,88.067,6.838,6.838,0,0,1,6.837,89.052Z" transform="translate(295.015 -1487.407) rotate(-7)"/>
  </g>
  <g id="Group_2955" data-name="Group 2955" transform="translate(-8530.012 443.551)">
    <path id="Path_581" data-name="Path 581" class="cls-15" d="M338.918,355.973H301.564v73.1h50.11v-59C351.674,362.28,345.957,355.973,338.918,355.973Z" transform="translate(207.342 -1502.514)"/>
    <path id="Path_585" data-name="Path 585" class="cls-16" d="M285.5,241.969c.22.058.452.1.673.162a102.682,102.682,0,0,1,78.372,99.734v98.446H91.986V341.865a102.662,102.662,0,0,1,78.361-99.734c.22-.058.452-.1.673-.162" transform="translate(173.874 -1513.761)"/>
    <path id="Path_586" data-name="Path 586" class="cls-3" d="M146.526,294.441v143.8H91.986V339.8a102.5,102.5,0,0,1,44.927-84.878A85.463,85.463,0,0,1,146.526,294.441Z" transform="translate(173.874 -1511.693)"/>
    <path id="Path_587" data-name="Path 587" class="cls-3" d="M334.528,339.8v98.447H279.976v-143.8a85.462,85.462,0,0,1,9.614-39.522A102.506,102.506,0,0,1,334.528,339.8Z" transform="translate(203.895 -1511.693)"/>
    <path id="Path_588" data-name="Path 588" class="cls-17" d="M334.528,339.8v23.066H279.976V294.441a85.462,85.462,0,0,1,9.614-39.522A102.506,102.506,0,0,1,334.528,339.8Z" transform="translate(203.895 -1511.693)"/>
    <path id="Path_589" data-name="Path 589" class="cls-17" d="M146.526,294.441v68.422H91.986V339.8a102.5,102.5,0,0,1,44.927-84.878A85.463,85.463,0,0,1,146.526,294.441Z" transform="translate(173.874 -1511.693)"/>
    <path id="Path_598" data-name="Path 598" class="cls-3" d="M275.386,242.131v20.747a57.915,57.915,0,1,1-115.83,0V242.131c.22-.058.452-.1.673-.162a102.711,102.711,0,0,0,114.485,0C274.934,242.027,275.166,242.073,275.386,242.131Z" transform="translate(184.664 -1513.761)"/>
    <path id="Path_599" data-name="Path 599" class="cls-18" d="M273.577,242.716A103.06,103.06,0,0,1,240.6,279.768c-.22.162-.452.313-.673.464a102.164,102.164,0,0,1-57.242,17.43,74.985,74.985,0,0,1-12.052-.814A58.519,58.519,0,0,1,162.76,281.9c-1.555-5.751-3.841-6.426-3.035-34.735,13.631-5.632,36.547,12.226,57.747,12.226A102.166,102.166,0,0,0,273.577,242.716Z" transform="translate(184.664 -1513.754)"/>
    <path id="Path_614" data-name="Path 614" class="cls-19" d="M262.283,368.731v53.381H236.77V368.731a12.757,12.757,0,1,1,25.513,0Z" transform="translate(196.995 -1495.555)"/>
    <path id="Path_615" data-name="Path 615" class="cls-15" d="M285.124,355.974v66.137h-24.6V368.731a12.749,12.749,0,0,0-12.757-12.757Z" transform="translate(198.752 -1495.555)"/>
    <path id="Path_619" data-name="Path 619" class="cls-15" d="M238.448,423.069h-7.677V369.688a19.715,19.715,0,0,1,39.43,0v53.381Zm6.239-6.958h11.6V369.688a5.8,5.8,0,0,0-11.6,0Z" transform="translate(196.037 -1496.514)"/>
    <rect id="Rectangle_54" data-name="Rectangle 54" class="cls-15" width="37.354" height="13.916" transform="translate(446.523 -1146.541)"/>
    <ellipse id="Ellipse_5" data-name="Ellipse 5" class="cls-20" cx="32.344" cy="32.344" rx="32.344" ry="32.344" transform="translate(276.364 -1409.376)"/>
    <ellipse id="Ellipse_6" data-name="Ellipse 6" class="cls-20" cx="32.344" cy="32.344" rx="32.344" ry="32.344" transform="translate(463.23 -1409.376)"/>
    <path id="Path_594" data-name="Path 594" class="cls-3" d="M280.871,266.673a105.67,105.67,0,0,1-114.485,0c-.22-.146-.452-.291-.673-.448-27-17.868-44.718-47.886-44.718-81.906V159.1l4.466-57.241c0-54.788,26.516-58.157,83.2-58.157l14.969-6.02c56.682,0,102.633,8.9,102.633,63.691v82.949c0,34.02-17.72,64.039-44.718,81.906C281.324,266.382,281.092,266.528,280.871,266.673Z" transform="translate(178.506 -1531.827)"/>
    <g id="Group_189" data-name="Group 189" transform="translate(358.519 -1367.24)">
      <path id="Path_603" data-name="Path 603" class="cls-7" d="M178.844,168.351a6.955,6.955,0,1,1,1.357-13.777,6.881,6.881,0,0,1,2.5,1.032,6.379,6.379,0,0,1,1.055.87,6.9,6.9,0,0,1,.87,1.055,7.063,7.063,0,0,1,.638,1.206,6.445,6.445,0,0,1,.394,1.3,6.737,6.737,0,0,1,.139,1.357,6.851,6.851,0,0,1-.139,1.368,6.447,6.447,0,0,1-.394,1.3,6.553,6.553,0,0,1-.638,1.194,6.9,6.9,0,0,1-5.787,3.1Z" transform="translate(-171.886 -154.443)"/>
      <path id="Path_604" data-name="Path 604" class="cls-7" d="M246.844,168.351a7.572,7.572,0,0,1-1.357-.128,7.328,7.328,0,0,1-1.3-.406,6.657,6.657,0,0,1-1.206-.638,6.713,6.713,0,0,1-1.925-1.925,6.554,6.554,0,0,1-.638-1.194,6.449,6.449,0,0,1-.394-1.3,6.85,6.85,0,0,1-.139-1.368,6.737,6.737,0,0,1,.139-1.357,6.45,6.45,0,0,1,.394-1.3,7.06,7.06,0,0,1,.638-1.206,6.9,6.9,0,0,1,.87-1.055,6.384,6.384,0,0,1,1.055-.87,7.472,7.472,0,0,1,1.206-.638,7.293,7.293,0,0,1,1.3-.394,7.026,7.026,0,0,1,6.274,1.9,6.9,6.9,0,0,1,.87,1.055,7.069,7.069,0,0,1,.638,1.206,6.449,6.449,0,0,1,.394,1.3,6.737,6.737,0,0,1,.139,1.357,6.85,6.85,0,0,1-.139,1.368,6.449,6.449,0,0,1-.394,1.3,6.561,6.561,0,0,1-.638,1.194,6.9,6.9,0,0,1-5.787,3.1Z" transform="translate(-161.027 -154.443)"/>
    </g>
    <g id="Group_199" data-name="Group 199" transform="translate(340.291 -1383.605)">
      <path id="Path_620" data-name="Path 620" class="cls-7" d="M209.965,186.492a6.959,6.959,0,0,1-6.958-6.958V159.986a6.745,6.745,0,0,0-6.738-6.738H163.125a6.958,6.958,0,0,1,0-13.916h33.144a20.678,20.678,0,0,1,20.654,20.654v19.548A6.959,6.959,0,0,1,209.965,186.492Z" transform="translate(-156.167 -139.331)"/>
      <path id="Path_621" data-name="Path 621" class="cls-7" d="M261.624,153.247H233.791a6.958,6.958,0,1,1,0-13.916h27.833a6.958,6.958,0,1,1,0,13.916Z" transform="translate(-144.882 -139.331)"/>
    </g>
    <path id="Path_631" data-name="Path 631" class="cls-7" d="M231.879,241.724a81.351,81.351,0,0,1-16.9-1.784,6.958,6.958,0,0,1,2.885-13.614,67.149,67.149,0,0,0,28.028,0,6.958,6.958,0,0,1,2.885,13.614A81.273,81.273,0,0,1,231.879,241.724Z" transform="translate(172.588 -1529.942)"/>
    <g id="Group_1883" data-name="Group 1883" transform="translate(299.502 -1558.122)">
      <path id="Path_4853-2" data-name="Path 4853" class="cls-15" d="M175.566,126.516a49.253,49.253,0,0,1-37.126,45.59c-.185-24.39,2.6-73.842,2.936-80.674,1.979-40.679,41.856-49.111,60.365-51.318a47.664,47.664,0,0,1,5.7-.342c22.043-.044,43.183-8.012,61.126-20.991A67.257,67.257,0,0,1,306.812,6.013c34.82-.673,64.823,25.957,68.836,61.052a69.391,69.391,0,0,1-32.33,67.133,67.3,67.3,0,0,1-50.849,8.189c-26.121-6.213-53.09-6.931-79.776-4.05-.62.066-1.24.121-1.87.166A48.15,48.15,0,0,1,175.566,126.516Z" transform="translate(-138.432 -6.001)"/>
    </g>
    <path id="Path_4856" data-name="Path 4856" class="cls-8" d="M318.467,120.936a7.037,7.037,0,0,1-5.955-3.187,6.441,6.441,0,0,1,2.338-9.1c14.938-8.627,23.287-24.891,21.271-41.436a41.384,41.384,0,0,0-10.075-22.348,6.4,6.4,0,0,1,.88-9.327,7.205,7.205,0,0,1,9.8.838,54.284,54.284,0,0,1,13.216,29.311c2.641,21.673-8.3,42.98-27.873,54.284A7.2,7.2,0,0,1,318.467,120.936Z" transform="translate(176.633 -1561.221)"/>
    <path id="Path_4857" data-name="Path 4857" class="cls-8" d="M316.862,36.156a7.239,7.239,0,0,1-3.051-.674,46.033,46.033,0,0,0-12.027-3.694,6.661,6.661,0,0,1-5.685-7.644,6.929,6.929,0,0,1,8.032-5.41,60.419,60.419,0,0,1,15.794,4.85,6.48,6.48,0,0,1,3.194,8.858A7,7,0,0,1,316.862,36.156Z" transform="translate(174.157 -1562.813)"/>
    <path id="Path_4858" data-name="Path 4858" class="cls-7" d="M180.5,115.2H166.58l13.916-.011Z" transform="translate(165.087 -1552.809)"/>
  </g>
</svg>
