<svg xmlns="http://www.w3.org/2000/svg" viewBox="2462 3192 197.856 337.116">
  <defs>
    <style>
      .cls-1 {
        fill: #a4a9ad;
      }

      .cls-2 {
        opacity: 0.1;
      }

      .cls-3 {
        fill: #d1d3d3;
      }

      .cls-4 {
        fill: #00b3e3;
      }

      .cls-5 {
        fill: #0071ce;
      }

      .cls-6 {
        fill: #fff;
      }

      .cls-7 {
        fill: #1e252b;
      }
    </style>
  </defs>
  <g id="announcer" transform="translate(2356.249 3192)">
    <rect id="Rectangle_164" data-name="Rectangle 164" class="cls-1" width="79.2" height="81.097" transform="translate(165.076 226.685)"/>
    <rect id="Rectangle_165" data-name="Rectangle 165" class="cls-2" width="10.699" height="60.047" transform="translate(199.33 247.735)"/>
    <rect id="Rectangle_166" data-name="Rectangle 166" class="cls-2" width="79.2" height="36.797" transform="translate(165.076 226.685)"/>
    <path id="Path_583" data-name="Path 583" class="cls-3" d="M301.033,16.132a8.03,8.03,0,0,0-8.007-8.007H121.882a8.03,8.03,0,0,0-8.006,8.007V242.505a8.029,8.029,0,0,0,8.006,8.007H293.027a8.03,8.03,0,0,0,8.007-8.007Z" transform="translate(-2.775 -2.775)"/>
    <g id="Group_157" data-name="Group 157" transform="translate(122.515 16.765)">
      <circle id="Ellipse_26" data-name="Ellipse 26" class="cls-1" cx="5.433" cy="5.433" r="5.433" transform="translate(153.463)"/>
      <circle id="Ellipse_27" data-name="Ellipse 27" class="cls-1" cx="5.433" cy="5.433" r="5.433"/>
      <circle id="Ellipse_28" data-name="Ellipse 28" class="cls-1" cx="5.433" cy="5.433" r="5.433" transform="translate(153.463 208.688)"/>
      <circle id="Ellipse_29" data-name="Ellipse 29" class="cls-1" cx="5.433" cy="5.433" r="5.433" transform="translate(0 208.688)"/>
    </g>
    <path id="Path_584" data-name="Path 584" class="cls-4" d="M162.84,237.027a6.424,6.424,0,0,1-6.406-6.405V57.088a6.425,6.425,0,0,1,6.406-6.405h118.3a6.424,6.424,0,0,1,6.405,6.405V230.622a6.424,6.424,0,0,1-6.405,6.405H162.84Z" transform="translate(-17.312 -17.312)"/>
    <path id="Path_585" data-name="Path 585" class="cls-5" d="M217.008,265.133h84.826a6.423,6.423,0,0,0,6.405-6.405V132.968A146.1,146.1,0,0,0,217.008,265.133Z" transform="translate(-38.002 -45.418)"/>
    <path id="Path_586" data-name="Path 586" class="cls-2" d="M281.144,50.683H162.84a6.425,6.425,0,0,0-6.406,6.405V68.831a6.425,6.425,0,0,1,6.406-6.405h118.3a6.425,6.425,0,0,1,6.405,6.405V57.088A6.424,6.424,0,0,0,281.144,50.683Z" transform="translate(-17.312 -17.312)"/>
    <path id="Path_587" data-name="Path 587" class="cls-3" d="M287.671,480.608a8.03,8.03,0,0,1-8.007,8.007H164.031a8.03,8.03,0,0,1-8.007-8.007v-13.4a8.03,8.03,0,0,1,8.007-8.007H279.665a8.03,8.03,0,0,1,8.006,8.007v13.4Z" transform="translate(-17.172 -156.849)"/>
    <g id="Group_158" data-name="Group 158" transform="translate(156.897 64.334)">
      <path id="Path_588" data-name="Path 588" class="cls-6" d="M237.617,108.407H188.78a5.35,5.35,0,0,1,0-10.7h48.838a5.35,5.35,0,0,1,0,10.7Z" transform="translate(-183.43 -97.708)"/>
      <path id="Path_589" data-name="Path 589" class="cls-6" d="M213.2,148.662H188.781a5.35,5.35,0,0,1,0-10.7H213.2a5.35,5.35,0,0,1,0,10.7Z" transform="translate(-183.43 -111.458)"/>
    </g>
    <path id="Path_590" data-name="Path 590" class="cls-7" d="M290.252,0H119.107a13.371,13.371,0,0,0-13.356,13.357V239.73a13.371,13.371,0,0,0,13.356,13.357h40.617V297H146.859A13.371,13.371,0,0,0,133.5,310.358v13.4a13.371,13.371,0,0,0,13.356,13.357H262.493a13.371,13.371,0,0,0,13.356-13.357v-13.4A13.371,13.371,0,0,0,262.493,297H249.628V253.086h40.624a13.371,13.371,0,0,0,13.356-13.357V13.357A13.371,13.371,0,0,0,290.252,0ZM262.494,307.7a2.692,2.692,0,0,1,2.656,2.657v13.4a2.693,2.693,0,0,1-2.656,2.657H146.86a2.692,2.692,0,0,1-2.656-2.657v-13.4a2.693,2.693,0,0,1,2.656-2.657ZM170.425,297V253.086h68.5V297Zm122.483-57.271a2.693,2.693,0,0,1-2.656,2.657H119.107a2.692,2.692,0,0,1-2.656-2.657V13.357a2.693,2.693,0,0,1,2.656-2.657H290.251a2.693,2.693,0,0,1,2.656,2.657V239.729ZM263.832,28.021h-118.3a11.769,11.769,0,0,0-11.756,11.755V213.311a11.769,11.769,0,0,0,11.756,11.755h118.3a11.768,11.768,0,0,0,11.755-11.755V39.776A11.768,11.768,0,0,0,263.832,28.021Zm1.055,185.288a1.069,1.069,0,0,1-1.055,1.055h-118.3a1.069,1.069,0,0,1-1.055-1.055V39.776a1.069,1.069,0,0,1,1.055-1.055h118.3a1.068,1.068,0,0,1,1.055,1.055V213.31Z"/>
  </g>
</svg>
