<svg xmlns="http://www.w3.org/2000/svg" viewBox="1740 2444 131 130.851">
  <defs>
    <style>
      .cls-1 {
        fill: #333e48;
      }

      .cls-2 {
        opacity: 0.2;
      }

      .cls-3 {
        fill: #d1d3d3;
      }

      .cls-4 {
        fill: #a4a9ad;
      }

      .cls-5 {
        fill: #00b3e3;
      }

      .cls-6 {
        fill: #0071ce;
      }

      .cls-7 {
        fill: #fff;
      }

      .cls-8 {
        fill: #1e252b;
      }
    </style>
  </defs>
  <g id="billboard" transform="translate(1740 2443.708)">
    <rect id="Rectangle_148" data-name="Rectangle 148" class="cls-1" width="11.13" height="47.067" transform="translate(59.937 81.946)"/>
    <rect id="Rectangle_149" data-name="Rectangle 149" class="cls-2" width="11.13" height="9.71" transform="translate(59.937 81.946)"/>
    <rect id="Rectangle_150" data-name="Rectangle 150" class="cls-2" width="11.13" height="6.741" transform="translate(59.937 106.105)"/>
    <path id="Path_534" data-name="Path 534" class="cls-3" d="M181.258,375.95v9.544a2.149,2.149,0,0,0,2.143,2.142h33.963a2.149,2.149,0,0,0,2.143-2.142V375.95Z" transform="translate(-134.882 -279.543)"/>
    <g id="Group_134" data-name="Group 134" transform="translate(52.568 99.977)">
      <circle id="Ellipse_23" data-name="Ellipse 23" class="cls-4" cx="2.275" cy="2.275" r="2.275" transform="translate(10.658)"/>
      <circle id="Ellipse_24" data-name="Ellipse 24" class="cls-4" cx="2.275" cy="2.275" r="2.275"/>
      <circle id="Ellipse_25" data-name="Ellipse 25" class="cls-4" cx="2.275" cy="2.275" r="2.275" transform="translate(21.317)"/>
    </g>
    <rect id="Rectangle_151" data-name="Rectangle 151" class="cls-2" width="38.249" height="5.843" transform="translate(46.376 96.407)"/>
    <g id="Group_135" data-name="Group 135" transform="translate(13.076 2.422)">
      <path id="Path_535" data-name="Path 535" class="cls-1" d="M74.324,10.184a1.572,1.572,0,0,0-1.568-1.567H52.674a1.572,1.572,0,0,0-1.568,1.567v4.182a1.572,1.572,0,0,0,1.568,1.568H72.757a1.572,1.572,0,0,0,1.568-1.568V10.184Z" transform="translate(-51.106 -8.617)"/>
      <path id="Path_536" data-name="Path 536" class="cls-1" d="M233.841,10.184a1.572,1.572,0,0,0-1.568-1.567H212.191a1.572,1.572,0,0,0-1.568,1.567v4.182a1.572,1.572,0,0,0,1.568,1.568h20.083a1.572,1.572,0,0,0,1.568-1.568Z" transform="translate(-169.809 -8.617)"/>
      <path id="Path_537" data-name="Path 537" class="cls-1" d="M393.358,10.184a1.572,1.572,0,0,0-1.568-1.567H371.708a1.572,1.572,0,0,0-1.568,1.567v4.182a1.572,1.572,0,0,0,1.568,1.568h20.083a1.572,1.572,0,0,0,1.568-1.568Z" transform="translate(-288.512 -8.617)"/>
    </g>
    <path id="Path_538" data-name="Path 538" class="cls-5" d="M135.065,71.4a3.145,3.145,0,0,0-3.135-3.135H11.46A3.144,3.144,0,0,0,8.325,71.4v64.369A3.144,3.144,0,0,0,11.46,138.9H131.93a3.144,3.144,0,0,0,3.135-3.135Z" transform="translate(-6.195 -50.578)"/>
    <path id="Path_539" data-name="Path 539" class="cls-6" d="M261.772,164.338H320.53a3.144,3.144,0,0,0,3.135-3.135V102.445A61.893,61.893,0,0,0,261.772,164.338Z" transform="translate(-194.795 -76.016)"/>
    <g id="Group_136" data-name="Group 136" transform="translate(15.829 35.951)">
      <path id="Path_540" data-name="Path 540" class="cls-7" d="M100.667,143.922H64a2.13,2.13,0,0,1,0-4.26h36.67a2.13,2.13,0,0,1,0,4.26Z" transform="translate(-61.867 -139.662)"/>
      <path id="Path_541" data-name="Path 541" class="cls-7" d="M89.907,181.606H64a2.13,2.13,0,1,1,0-4.26H89.907a2.13,2.13,0,1,1,0,4.26Z" transform="translate(-61.868 -167.704)"/>
    </g>
    <path id="Path_542" data-name="Path 542" class="cls-8" d="M125.735,90.452A5.271,5.271,0,0,0,131,85.186V20.818a5.271,5.271,0,0,0-5.265-5.265h-17.29V11.869h7.91a3.7,3.7,0,0,0,3.7-3.7V3.989a3.7,3.7,0,0,0-3.7-3.7H96.271a3.7,3.7,0,0,0-3.7,3.7V8.171a3.7,3.7,0,0,0,3.7,3.7h7.913v3.683H67.63V11.869h7.911a3.7,3.7,0,0,0,3.7-3.7V3.989a3.7,3.7,0,0,0-3.7-3.7H55.457a3.7,3.7,0,0,0-3.7,3.7V8.171a3.7,3.7,0,0,0,3.7,3.7H63.37v3.683H26.815V11.869h7.911a3.7,3.7,0,0,0,3.7-3.7V3.989a3.7,3.7,0,0,0-3.7-3.7H14.644a3.7,3.7,0,0,0-3.7,3.7V8.171a3.7,3.7,0,0,0,3.7,3.7h7.912v3.683H5.265A5.271,5.271,0,0,0,0,20.818V85.187a5.271,5.271,0,0,0,5.265,5.265H57.807v3.826H2.132a2.13,2.13,0,0,0,0,4.26H44.246v7.414a4.277,4.277,0,0,0,4.273,4.272h9.287v18.789a2.13,2.13,0,0,0,2.13,2.13H71.065a2.13,2.13,0,0,0,2.13-2.13V110.224h9.287a4.277,4.277,0,0,0,4.273-4.272V98.537H128.87a2.13,2.13,0,0,0,0-4.26H73.195V90.452ZM96.834,7.609V4.552h18.958V7.609H96.834Zm-40.814,0V4.552H74.978V7.609H56.02Zm-40.814,0V4.552H34.164V7.609H15.206ZM68.935,126.883H62.066V110.224h6.869ZM82.493,98.537l-.01,7.426-33.976-.012V98.537Zm-20.426-4.26V90.452h6.869v3.826Zm-56.8-8.086A1.019,1.019,0,0,1,4.26,85.187V20.818a1.019,1.019,0,0,1,1.005-1.005h120.47a1.019,1.019,0,0,1,1.005,1.005V85.187a1.019,1.019,0,0,1-1.005,1.005Z"/>
  </g>
</svg>
