<svg xmlns="http://www.w3.org/2000/svg" viewBox="-5229.437 2790.56 328.335 494.877">
  <defs>
    <style>
      .cls-1 {
        fill: #0064b5;
      }

      .cls-2 {
        fill: #d1d3d3;
      }

      .cls-3 {
        fill: #1b1b1b;
      }

      .cls-4 {
        fill: #fae1b2;
      }

      .cls-5 {
        fill: #0071ce;
      }

      .cls-6 {
        fill: #ff5959;
      }

      .cls-7 {
        fill: #f7b239;
      }

      .cls-8 {
        fill: #868787;
      }
    </style>
  </defs>
  <g id="Group_2947" data-name="Group 2947" transform="translate(-408 25)">
    <path id="Path_7136" data-name="Path 7136" class="cls-1" d="M269.765,152.518v158.9h-.014a99.118,99.118,0,0,0-39.407-8.173V143.816l.014-.515A88.836,88.836,0,0,1,269.765,152.518Z" transform="translate(-4921.213 2740.068)"/>
    <path id="Path_7132" data-name="Path 7132" class="cls-2" d="M261.824,114.457v36.2a71.014,71.014,0,0,0-62.961,0v-36.2a71.013,71.013,0,0,1,62.961,0Z" transform="translate(-4913.273 2757)"/>
    <path id="Path_7133" data-name="Path 7133" class="cls-3" d="M247.059,299.573,230.343,324.5l-16.716-24.931a29.979,29.979,0,0,1,33.42,0Z" transform="translate(-4913.273 2757)"/>
    <path id="Path_7134" data-name="Path 7134" class="cls-4" d="M230.343,271.025a79.138,79.138,0,0,1,31.469,6.527h.011l-14.765,22.021h-.011a29.979,29.979,0,0,0-33.42,0l-14.765-22.021A79.255,79.255,0,0,1,230.343,271.025Z" transform="translate(-4913.273 2757)"/>
    <path id="Path_7135" data-name="Path 7135" class="cls-5" d="M230.355,143.3l-.011.411V271.025a79.229,79.229,0,0,0-31.48,6.527V150.661A70.956,70.956,0,0,1,230.355,143.3Z" transform="translate(-4913.273 2757)"/>
    <path id="Path_7137" data-name="Path 7137" class="cls-5" d="M391.111,263.289V355H350.092V108.489h41.019Z" transform="translate(-4913.273 2757)"/>
    <path id="Union_8" data-name="Union 8" class="cls-6" d="M44.66,458.97v-83.7h27.2V432.19h56.5v26.78ZM0,25.228A25.23,25.23,0,0,1,25.228,0H258.255V350.037H25.228A25.229,25.229,0,0,0,0,375.265ZM107.028,69.99V233.085l14.765,22.021,16.716,24.931,16.716-24.931,14.764-22.021V69.99a71.01,71.01,0,0,0-62.96,0Z" transform="translate(-4821.437 2801.467)"/>
    <path id="Union_9" data-name="Union 9" class="cls-7" d="M56.5,468.1H0V411.173H83.716V468.1ZM186.4,373.189V346.443h41.018V254.729h29.061v118.46ZM39.107,35.907V0h92.227V35.907Z" transform="translate(-4749.576 2765.56)"/>
    <path id="Path_7141" data-name="Path 7141" class="cls-2" d="M247.413,419.733H136.5v25.228H117.065a25.228,25.228,0,0,1,0-50.456H350.093V444.96H247.413V419.733Z" transform="translate(-4913.273 2757)"/>
    <path id="Rectangle_712" data-name="Rectangle 712" class="cls-8" d="M9,0H164a9,9,0,0,1,9,9V9a9,9,0,0,1-9,9H0a0,0,0,0,1,0,0V9A9,9,0,0,1,9,0Z" transform="translate(-4777 3159)"/>
  </g>
</svg>
