<svg xmlns="http://www.w3.org/2000/svg" viewBox="-5580 2329 345.455 512.002">
  <defs>
    <style>
      .cls-1 {
        fill: #d1d3d3;
      }

      .cls-2 {
        fill: #666;
      }

      .cls-3 {
        fill: #fae1b2;
      }

      .cls-4 {
        fill: #0071ce;
      }

      .cls-5 {
        fill: #0064b5;
      }

      .cls-6 {
        fill: #ff5959;
      }

      .cls-7 {
        fill: #f7b239;
      }

      .cls-8 {
        fill: #1e252b;
      }
    </style>
  </defs>
  <g id="Group_2805" data-name="Group 2805" transform="translate(495 -597)">
    <path id="Path_7132" data-name="Path 7132" class="cls-1" d="M261.824,114.457v36.2a71.014,71.014,0,0,0-62.961,0v-36.2a71.013,71.013,0,0,1,62.961,0Z" transform="translate(-6158.273 2926)"/>
    <path id="Path_7133" data-name="Path 7133" class="cls-2" d="M247.059,299.573,230.343,324.5l-16.716-24.931a29.979,29.979,0,0,1,33.42,0Z" transform="translate(-6158.273 2926)"/>
    <path id="Path_7134" data-name="Path 7134" class="cls-3" d="M230.343,271.025a79.138,79.138,0,0,1,31.469,6.527h.011l-14.765,22.021h-.011a29.979,29.979,0,0,0-33.42,0l-14.765-22.021A79.255,79.255,0,0,1,230.343,271.025Z" transform="translate(-6158.273 2926)"/>
    <path id="Path_7135" data-name="Path 7135" class="cls-4" d="M230.355,143.3l-.011.411V271.025a79.229,79.229,0,0,0-31.48,6.527V150.661A70.956,70.956,0,0,1,230.355,143.3Z" transform="translate(-6158.273 2926)"/>
    <path id="Path_7136" data-name="Path 7136" class="cls-5" d="M261.824,150.661V277.552h-.011a79.152,79.152,0,0,0-31.469-6.527V143.712l.011-.411A70.942,70.942,0,0,1,261.824,150.661Z" transform="translate(-6158.273 2926)"/>
    <path id="Path_7137" data-name="Path 7137" class="cls-4" d="M391.111,263.289V355H350.092V108.489h41.019Z" transform="translate(-6158.273 2926)"/>
    <path id="Union_8" data-name="Union 8" class="cls-6" d="M44.66,458.97v-83.7h27.2V432.19h56.5v26.78ZM0,25.228A25.23,25.23,0,0,1,25.228,0H258.255V350.037H25.228A25.229,25.229,0,0,0,0,375.265ZM107.028,69.99V233.085l14.765,22.021,16.716,24.931,16.716-24.931,14.764-22.021V69.99a71.01,71.01,0,0,0-62.96,0Z" transform="translate(-6066.437 2970.467)"/>
    <path id="Union_9" data-name="Union 9" class="cls-7" d="M56.5,468.1H0V411.173H83.716V468.1ZM186.4,373.189V346.443h41.018V254.729h29.061v118.46ZM39.107,35.907V0h92.227V35.907Z" transform="translate(-5994.576 2934.56)"/>
    <path id="Path_7141" data-name="Path 7141" class="cls-1" d="M247.413,419.733H136.5v25.228H117.065a25.228,25.228,0,0,1,0-50.456H350.093V444.96H247.413V419.733Z" transform="translate(-6158.273 2926)"/>
    <path id="Union_7" data-name="Union 7" class="cls-8" d="M53.218,512a8.559,8.559,0,0,1-8.558-8.558V453.522H33.787A33.8,33.8,0,0,1,0,419.736H0V69.7A33.825,33.825,0,0,1,33.787,35.908h77.178V8.558A8.558,8.558,0,0,1,119.523,0h92.235a8.557,8.557,0,0,1,8.557,8.558V35.907H266.82a8.557,8.557,0,0,1,8.558,8.558V99.936h32.463a8.557,8.557,0,0,1,8.557,8.558v146.24h20.5a8.56,8.56,0,0,1,8.559,8.559V381.751a8.558,8.558,0,0,1-8.558,8.558H275.38v4.2h-.006v50.455a8.558,8.558,0,0,1-8.558,8.558H172.7v23.137a8.559,8.559,0,0,1-8.558,8.558H145.487v18.228A8.559,8.559,0,0,1,136.929,512Zm8.558-17.117h66.6v-9.67H80.43a8.558,8.558,0,0,1-8.558-8.558V428.289h-10.1ZM88.986,468.1h66.6V428.293h-66.6ZM172.7,436.4h85.559v-33.34H33.788a16.67,16.67,0,0,0,0,33.34H44.661V419.731a8.559,8.559,0,0,1,8.558-8.558l155.118,0a8.558,8.558,0,0,1,0,17.116H172.7ZM17.118,69.7V390.367a33.564,33.564,0,0,1,16.67-4.417H258.264V53.023H42.348v93.189a8.558,8.558,0,1,1-17.115,0v-90.8A16.661,16.661,0,0,0,17.118,69.7Zm258.26,303.5h52.96V271.849H316.4V355a8.558,8.558,0,0,1-8.558,8.558H275.378Zm0-26.747h23.9V117.051h-23.9ZM128.082,35.907H203.2V17.115H128.082ZM25.231,329.333V195.842a8.558,8.558,0,1,1,17.116,0V329.334a8.558,8.558,0,1,1-17.116,0Zm114.727-.059-31.484-46.957a8.555,8.555,0,0,1-1.45-4.766V114.461a8.556,8.556,0,0,1,4.764-7.671,80.034,80.034,0,0,1,70.553,0,8.556,8.556,0,0,1,4.764,7.671V277.552a8.558,8.558,0,0,1-1.45,4.766l-31.483,46.957a8.556,8.556,0,0,1-14.214,0Zm3.261-25.87,3.848,5.737,3.846-5.737a20.838,20.838,0,0,0-7.694,0ZM160.908,288.5l4.36-6.505a71.111,71.111,0,0,0-36.406,0l4.361,6.505a38.632,38.632,0,0,1,27.684,0Zm-5.285-25.569a87.933,87.933,0,0,1,14.368,2.621V156.254a62.329,62.329,0,0,0-14.368-3.744ZM124.14,156.254V265.549a88,88,0,0,1,14.369-2.621V152.51A62.325,62.325,0,0,0,124.14,156.254Zm45.851-18.1V120.022a62.953,62.953,0,0,0-45.851,0v18.129a80.35,80.35,0,0,1,45.851,0Z" transform="translate(-6075 2926)"/>
  </g>
</svg>
