<svg id="Group_2794" data-name="Group 2794" xmlns="http://www.w3.org/2000/svg" viewBox="-4379 489 512.002 494.949">
  <defs>
    <style>
      .cls-1 {
        fill: #e6e6e6;
      }

      .cls-2 {
        fill: #ff5959;
      }

      .cls-3 {
        fill: #0071ce;
      }

      .cls-4 {
        fill: #ffb61e;
      }

      .cls-5 {
        fill: #b3b3b3;
      }

      .cls-6 {
        fill: #1e252b;
      }
    </style>
  </defs>
  <g id="Group_2790" data-name="Group 2790" transform="translate(-4379 480.473)">
    <circle id="Ellipse_269" data-name="Ellipse 269" class="cls-1" cx="48.648" cy="48.648" r="48.648" transform="translate(33.437 324.096)"/>
    <circle id="Ellipse_270" data-name="Ellipse 270" class="cls-1" cx="48.648" cy="48.648" r="48.648" transform="translate(207.358 324.096)"/>
    <circle id="Ellipse_271" data-name="Ellipse 271" class="cls-1" cx="48.648" cy="48.648" r="48.648" transform="translate(381.262 324.096)"/>
  </g>
  <path id="Path_7040" data-name="Path 7040" class="cls-2" d="M356.757,494.548a73.158,73.158,0,0,1,146.317,0" transform="translate(-4379 480.473)"/>
  <path id="Path_7041" data-name="Path 7041" class="cls-3" d="M8.927,494.548a73.158,73.158,0,0,1,146.317,0" transform="translate(-4379 480.473)"/>
  <path id="Path_7042" data-name="Path 7042" class="cls-4" d="M182.841,494.548a73.158,73.158,0,1,1,146.316,0" transform="translate(-4379 480.473)"/>
  <path id="Path_7043" data-name="Path 7043" class="cls-5" d="M290.068,183.038v10.355a28.938,28.938,0,0,1-28.946,28.934H250.874a28.928,28.928,0,0,1-28.934-28.934V183.038Z" transform="translate(-4379 480.473)"/>
  <path id="Path_7044" data-name="Path 7044" class="cls-4" d="M328.191,89.641a71.926,71.926,0,0,1-20.4,50.287,61.925,61.925,0,0,0-17.722,43.11H221.94a62.147,62.147,0,0,0-17.782-43.17A72.185,72.185,0,1,1,328.191,89.641Z" transform="translate(-4379 480.473)"/>
  <path id="Union_2" data-name="Union 2" class="cls-6" d="M494.148,486.022a64.232,64.232,0,0,0-128.463,0,8.927,8.927,0,0,1-17.854,0A82.189,82.189,0,0,1,396.5,411.064a57.575,57.575,0,1,1,66.843-.009A82.206,82.206,0,0,1,512,486.022a8.927,8.927,0,0,1-17.854,0ZM390.2,364.214a39.721,39.721,0,1,0,39.721-39.721A39.766,39.766,0,0,0,390.2,364.214ZM320.233,486.022a64.232,64.232,0,0,0-128.463,0,8.927,8.927,0,0,1-17.854,0,82.189,82.189,0,0,1,48.671-74.957,57.575,57.575,0,1,1,66.843-.009,82.206,82.206,0,0,1,48.658,74.966,8.927,8.927,0,0,1-17.854,0ZM216.279,364.215A39.721,39.721,0,1,0,256,324.493,39.766,39.766,0,0,0,216.279,364.215ZM146.318,486.021a64.232,64.232,0,1,0-128.464,0,8.927,8.927,0,0,1-17.854,0,82.2,82.2,0,0,1,48.657-74.966,57.576,57.576,0,1,1,66.844.009,82.188,82.188,0,0,1,48.671,74.957,8.927,8.927,0,1,1-17.853,0ZM42.365,364.214a39.721,39.721,0,1,0,39.722-39.721A39.767,39.767,0,0,0,42.365,364.214ZM433.349,344.2a8.927,8.927,0,1,1,8.927,8.927A8.927,8.927,0,0,1,433.349,344.2Zm-32.731,0a8.927,8.927,0,1,1,8.927,8.927A8.927,8.927,0,0,1,400.618,344.2Zm-137.174,0a8.927,8.927,0,1,1,8.927,8.927A8.927,8.927,0,0,1,263.444,344.2Zm-32.731,0a8.927,8.927,0,1,1,8.927,8.927A8.927,8.927,0,0,1,230.713,344.2Zm-137.185,0a8.927,8.927,0,1,1,8.927,8.927A8.927,8.927,0,0,1,93.528,344.2Zm-32.731,0a8.927,8.927,0,1,1,8.927,8.927A8.927,8.927,0,0,1,60.8,344.2ZM247.073,287V252.928a8.927,8.927,0,1,1,17.853,0V287a8.927,8.927,0,1,1-17.853,0Zm147.337,4.526L340.853,237.97a8.926,8.926,0,1,1,12.623-12.624L407.035,278.9a8.927,8.927,0,1,1-12.624,12.624Zm-289.445,0a8.927,8.927,0,0,1,0-12.624l53.558-53.558a8.926,8.926,0,1,1,12.623,12.624L117.59,291.528a8.925,8.925,0,0,1-12.624,0Zm145.912-68.8a37.915,37.915,0,0,1-37.872-37.872V174.507a52.985,52.985,0,0,0-15.262-36.948,81.118,81.118,0,1,1,116.455.059,52.8,52.8,0,0,0-15.206,36.888V184.86a37.914,37.914,0,0,1-37.872,37.872Zm-20.017-37.87A20.04,20.04,0,0,0,250.88,204.88h10.242a20.042,20.042,0,0,0,20.019-20.018v-1.426H230.862ZM291.346,75.071a8.927,8.927,0,0,1,0,12.624l-26.42,26.419v51.468h16.8a70.885,70.885,0,0,1,19.661-40.4A63.261,63.261,0,0,0,256.006,17.855q-.459,0-.918.006a63.261,63.261,0,0,0-44.523,107.275,71.155,71.155,0,0,1,19.7,40.446h16.807V114.114L220.655,87.7a8.927,8.927,0,1,1,12.624-12.624L256,97.794l22.722-22.723a8.927,8.927,0,0,1,12.624,0Z" transform="translate(-4379 489)"/>
</svg>
