<svg xmlns="http://www.w3.org/2000/svg" viewBox="-4945 341 512 488.159">
  <defs>
    <style>
      .cls-1 {
        fill: #ff5959;
      }

      .cls-2 {
        fill: #0071ce;
      }

      .cls-3 {
        fill: #ffb61e;
      }

      .cls-4 {
        fill: #e6e6e6;
      }

      .cls-5 {
        fill: #b3b3b3;
      }

      .cls-6 {
        fill: #f7b239;
      }

      .cls-7 {
        fill: #b27214;
      }

      .cls-8 {
        fill: gray;
      }
    </style>
  </defs>
  <g id="brainstorm" transform="translate(-4945 329.08)">
    <path id="Path_7576" data-name="Path 7576" class="cls-1" d="M360.4,500.079a75.8,75.8,0,1,1,151.6,0"/>
    <path id="Path_7577" data-name="Path 7577" class="cls-2" d="M0,500.079a75.8,75.8,0,0,1,151.6,0"/>
    <path id="Path_7578" data-name="Path 7578" class="cls-3" d="M180.2,500.079a75.8,75.8,0,0,1,151.6,0"/>
    <g id="Group_2916" data-name="Group 2916">
      <circle id="Ellipse_309" data-name="Ellipse 309" class="cls-4" cx="50.406" cy="50.406" r="50.406" transform="translate(25.4 329.638)"/>
      <circle id="Ellipse_310" data-name="Ellipse 310" class="cls-4" cx="50.406" cy="50.406" r="50.406" transform="translate(205.6 329.638)"/>
      <circle id="Ellipse_311" data-name="Ellipse 311" class="cls-4" cx="50.406" cy="50.406" r="50.406" transform="translate(385.786 329.638)"/>
    </g>
    <path id="Path_7579" data-name="Path 7579" class="cls-5" d="M291.3,183.483v10.729a29.984,29.984,0,0,1-29.992,29.98H250.688a29.974,29.974,0,0,1-29.98-29.98V183.483Z"/>
    <path id="Path_7580" data-name="Path 7580" class="cls-6" d="M330.8,86.711a74.526,74.526,0,0,1-21.137,52.1A64.163,64.163,0,0,0,291.3,183.482h-70.59a64.39,64.39,0,0,0-18.424-44.729,74.469,74.469,0,0,1-21.076-51.031c-.543-41.079,32.631-75.227,73.71-75.794A74.792,74.792,0,0,1,330.8,86.711Z"/>
    <path id="Path_7581" data-name="Path 7581" class="cls-7" d="M292.623,80.449a9.249,9.249,0,0,0-13.08,0L256,103.993,232.457,80.449a9.249,9.249,0,1,0-13.08,13.08L246.751,120.9v62.576h18.5V120.9l27.374-27.374A9.249,9.249,0,0,0,292.623,80.449Z"/>
    <g id="Group_2917" data-name="Group 2917">
      <path id="Path_7582" data-name="Path 7582" class="cls-5" d="M106.049,304.354a6.165,6.165,0,0,1-4.361-10.525l55.493-55.493a6.166,6.166,0,0,1,8.72,8.72l-55.493,55.493A6.146,6.146,0,0,1,106.049,304.354Z"/>
      <path id="Path_7583" data-name="Path 7583" class="cls-5" d="M405.951,304.354a6.152,6.152,0,0,1-4.361-1.8L346.1,247.056a6.166,6.166,0,0,1,8.72-8.72l55.493,55.493a6.165,6.165,0,0,1-4.359,10.525Z"/>
      <path id="Path_7584" data-name="Path 7584" class="cls-5" d="M256,306.2a6.166,6.166,0,0,1-6.166-6.166v-35.3a6.166,6.166,0,0,1,12.332,0v35.3A6.166,6.166,0,0,1,256,306.2Z"/>
    </g>
    <rect id="Rectangle_696" data-name="Rectangle 696" class="cls-8" width="70.59" height="18.498" transform="translate(220.711 174.231)"/>
    <circle id="Ellipse_312" data-name="Ellipse 312" class="cls-8" cx="9.249" cy="9.249" r="9.249" transform="translate(405.843 350.052)"/>
    <circle id="Ellipse_313" data-name="Ellipse 313" class="cls-8" cx="9.249" cy="9.249" r="9.249" transform="translate(439.757 350.052)"/>
    <circle id="Ellipse_314" data-name="Ellipse 314" class="cls-8" cx="9.249" cy="9.249" r="9.249" transform="translate(229.8 350.052)"/>
    <circle id="Ellipse_315" data-name="Ellipse 315" class="cls-8" cx="9.249" cy="9.249" r="9.249" transform="translate(263.713 350.052)"/>
    <circle id="Ellipse_316" data-name="Ellipse 316" class="cls-8" cx="9.249" cy="9.249" r="9.249" transform="translate(87.658 350.052)"/>
    <circle id="Ellipse_317" data-name="Ellipse 317" class="cls-8" cx="9.249" cy="9.249" r="9.249" transform="translate(53.744 350.052)"/>
  </g>
</svg>
