<svg xmlns="http://www.w3.org/2000/svg" viewBox="-297 935 512.005 287.802">
  <defs>
    <style>
      .cls-1 {
        fill: #a4a9ad;
      }

      .cls-2 {
        fill: #0071ce;
      }

      .cls-3 {
        fill: #ffb819;
      }

      .cls-4 {
        fill: #fff;
      }

      .cls-5 {
        opacity: 0.1;
      }

      .cls-6 {
        fill: #333e48;
      }

      .cls-7 {
        fill: #1e252b;
      }
    </style>
  </defs>
  <g id="car" transform="translate(-297 822.899)">
    <circle id="Ellipse_259" data-name="Ellipse 259" class="cls-1" cx="16.377" cy="16.377" r="16.377" transform="translate(428.611 161.413)"/>
    <path id="Path_6862" data-name="Path 6862" class="cls-2" d="M471.075,233.492H355.936l-11.209-66.073c-1.714-10.1-11.5-18.367-21.746-18.367H72.136c-10.248,0-20.033,8.265-21.746,18.367L24.556,319.7c-1.713,10.1,5.268,18.367,15.514,18.367H471.075a18.684,18.684,0,0,0,18.63-18.63V252.122A18.684,18.684,0,0,0,471.075,233.492Z"/>
    <rect id="Rectangle_378" data-name="Rectangle 378" class="cls-3" width="38.244" height="25.96" transform="translate(451.461 281.643)"/>
    <path id="Path_6863" data-name="Path 6863" class="cls-4" d="M457.517,307.6h-8.8a3.737,3.737,0,0,1-3.727-3.726V285.368a3.737,3.737,0,0,1,3.727-3.726h8.8Z"/>
    <path id="Path_6864" data-name="Path 6864" class="cls-3" d="M31.013,281.643l-4.4,25.958H59.917V281.643Z"/>
    <path id="Path_6865" data-name="Path 6865" class="cls-4" d="M53.862,307.6h8.8a3.736,3.736,0,0,0,3.726-3.726V285.368a3.736,3.736,0,0,0-3.726-3.726h-8.8Z"/>
    <path id="Path_6866" data-name="Path 6866" class="cls-5" d="M196.126,338.071a65.57,65.57,0,1,0-131.14,0Z"/>
    <circle id="Ellipse_260" data-name="Ellipse 260" class="cls-6" cx="53.822" cy="53.822" r="53.822" transform="translate(76.734 284.249)"/>
    <circle id="Ellipse_261" data-name="Ellipse 261" class="cls-1" cx="27.28" cy="27.28" r="27.28" transform="translate(103.276 310.791)"/>
    <path id="Path_6867" data-name="Path 6867" class="cls-5" d="M432.937,338.071a65.57,65.57,0,0,0-131.14,0Z"/>
    <circle id="Ellipse_262" data-name="Ellipse 262" class="cls-6" cx="53.822" cy="53.822" r="53.822" transform="translate(313.546 284.249)"/>
    <g id="Group_2757" data-name="Group 2757">
      <circle id="Ellipse_263" data-name="Ellipse 263" class="cls-1" cx="27.281" cy="27.281" r="27.281" transform="translate(340.087 310.79)"/>
      <path id="Path_6868" data-name="Path 6868" class="cls-1" d="M503.989,333.684a9.966,9.966,0,0,1-9.936,9.937H471.7a9.967,9.967,0,0,1-9.937-9.937V317.538A9.967,9.967,0,0,1,471.7,307.6h22.357a9.966,9.966,0,0,1,9.936,9.937Z"/>
      <path id="Path_6869" data-name="Path 6869" class="cls-1" d="M50.239,333.684a9.967,9.967,0,0,1-9.937,9.937H17.947a9.966,9.966,0,0,1-9.936-9.937V317.538a9.966,9.966,0,0,1,9.936-9.937H40.3a9.967,9.967,0,0,1,9.937,9.937v16.146Z"/>
    </g>
    <g id="Group_2758" data-name="Group 2758">
      <path id="Path_6870" data-name="Path 6870" class="cls-6" d="M226.4,178.9a8.57,8.57,0,0,1,8.545-8.545H305a8.57,8.57,0,0,1,8.545,8.545V217.5A8.57,8.57,0,0,1,305,226.04H234.943A8.57,8.57,0,0,1,226.4,217.5Z"/>
      <path id="Path_6871" data-name="Path 6871" class="cls-6" d="M83.566,178.784a10.506,10.506,0,0,1,9.974-8.425h76.439a8.57,8.57,0,0,1,8.545,8.545v38.591a8.57,8.57,0,0,1-8.545,8.545H84.1a6.991,6.991,0,0,1-7.116-8.424Z"/>
    </g>
    <path id="Path_6872" data-name="Path 6872" class="cls-5" d="M305,170.359H234.943A8.57,8.57,0,0,0,226.4,178.9v9.566a8.57,8.57,0,0,1,8.545-8.545H305a8.57,8.57,0,0,1,8.545,8.545V178.9A8.57,8.57,0,0,0,305,170.359Z"/>
    <path id="Path_6873" data-name="Path 6873" class="cls-5" d="M169.98,170.359H93.54a10.506,10.506,0,0,0-9.974,8.425l-1.541,9.085a10.529,10.529,0,0,1,9.867-7.945h78.087a8.57,8.57,0,0,1,8.545,8.545V178.9A8.569,8.569,0,0,0,169.98,170.359Z"/>
    <path id="Path_6874" data-name="Path 6874" class="cls-7" d="M169.98,162.348H93.54a18.542,18.542,0,0,0-17.872,15.1l-6.587,38.831A15,15,0,0,0,84.1,234.051h85.884a16.575,16.575,0,0,0,16.556-16.556V178.9A16.574,16.574,0,0,0,169.98,162.348Zm.534,55.147a.562.562,0,0,1-.534.534l-84.944,0,6.43-37.9a2.583,2.583,0,0,1,2.075-1.754H169.98a.562.562,0,0,1,.534.534Zm92.317,22.424h-28.98a8.011,8.011,0,0,0,0,16.022h28.98a8.011,8.011,0,0,0,0-16.022ZM497.717,299.97V252.123a26.671,26.671,0,0,0-26.641-26.641H453V200.821a24.388,24.388,0,1,0-16.022,0v24.661H362.7l-10.077-59.4c-2.382-14.04-15.4-25.039-29.645-25.039h-11.8V128.123H324a8.011,8.011,0,0,0,0-16.022H63.328a8.011,8.011,0,0,0,0,16.022H76.15v12.918H72.136c-14.241,0-27.263,11-29.645,25.039L19.843,299.59h-1.9A17.967,17.967,0,0,0,0,317.538v16.146a17.968,17.968,0,0,0,17.947,17.948H40.3a17.886,17.886,0,0,0,12.946-5.549H69.264a61.814,61.814,0,0,0,122.59,0H306.075a61.815,61.815,0,0,0,122.591,0h30.089a17.884,17.884,0,0,0,12.946,5.549h22.357A17.968,17.968,0,0,0,512,333.684V317.538A17.983,17.983,0,0,0,497.717,299.97ZM436.626,177.789a8.367,8.367,0,1,1,8.367,8.368A8.377,8.377,0,0,1,436.626,177.789ZM92.172,128.122H295.158V141.04H92.172ZM42.228,333.684A1.952,1.952,0,0,1,40.3,335.61H17.947a1.952,1.952,0,0,1-1.925-1.926V317.538a1.951,1.951,0,0,1,1.925-1.926H40.3a1.952,1.952,0,0,1,1.926,1.926v16.146Zm88.328,50.2a45.809,45.809,0,1,1,45.809-45.809A45.861,45.861,0,0,1,130.556,383.88Zm236.811,0a45.809,45.809,0,1,1,45.809-45.809A45.861,45.861,0,0,1,367.367,383.88Zm86.383-66.342v12.523H428.663a61.815,61.815,0,0,0-122.591,0H191.851a61.814,61.814,0,0,0-122.59,0H58.249V317.538A17.968,17.968,0,0,0,40.3,299.59H36.093L58.287,168.757c1.056-6.231,7.528-11.7,13.848-11.7H322.98c6.32,0,12.791,5.466,13.848,11.7l11.209,66.073a8.011,8.011,0,0,0,7.9,6.671H471.075a10.631,10.631,0,0,1,10.619,10.619v47.468h-10A17.971,17.971,0,0,0,453.75,317.538Zm42.228,16.146a1.951,1.951,0,0,1-1.925,1.926H471.7a1.952,1.952,0,0,1-1.926-1.926V317.538a1.952,1.952,0,0,1,1.926-1.926h22.357a1.951,1.951,0,0,1,1.925,1.926ZM106.959,239.919H77.978a8.011,8.011,0,1,0,0,16.022h28.981a8.011,8.011,0,0,0,0-16.022ZM305,162.348H234.943A16.575,16.575,0,0,0,218.387,178.9V217.5a16.575,16.575,0,0,0,16.556,16.556H305A16.575,16.575,0,0,0,321.558,217.5V178.9A16.575,16.575,0,0,0,305,162.348Zm.534,55.147a.563.563,0,0,1-.534.534H234.943a.562.562,0,0,1-.534-.534V178.9a.562.562,0,0,1,.534-.534H305a.562.562,0,0,1,.534.534v38.591Zm61.831,85.286a35.291,35.291,0,1,0,35.291,35.291A35.332,35.332,0,0,0,367.367,302.781Zm0,54.559a19.269,19.269,0,1,1,19.269-19.269A19.291,19.291,0,0,1,367.367,357.34ZM130.556,302.781a35.291,35.291,0,1,0,35.291,35.291A35.332,35.332,0,0,0,130.556,302.781Zm0,54.559a19.269,19.269,0,1,1,19.269-19.269A19.291,19.291,0,0,1,130.556,357.34Z"/>
  </g>
</svg>
