<svg id="Group_2938" data-name="Group 2938" xmlns="http://www.w3.org/2000/svg" viewBox="-4230 1872 656.454 498">
  <defs>
    <style>
      .cls-1 {
        fill: #333e48;
      }

      .cls-2 {
        fill: #283139;
      }

      .cls-3 {
        fill: #fff;
      }

      .cls-4 {
        fill: #ff5959;
      }

      .cls-5 {
        fill: #ffb61e;
      }

      .cls-6 {
        fill: #2ecc71;
      }

      .cls-7 {
        fill: rgba(27,27,27,0.2);
      }

      .cls-8 {
        fill: #dee3ed;
      }

      .cls-9 {
        fill: #0071ce;
      }
    </style>
  </defs>
  <path id="Path_7633" data-name="Path 7633" class="cls-1" d="M331.482,114.759H29.279a11.625,11.625,0,0,0-11.624,11.624v395.19A11.625,11.625,0,0,0,29.279,533.2h302.2V114.759Z" transform="translate(-4233.255 1819.66)"/>
  <path id="Path_7616" data-name="Path 7616" class="cls-2" d="M622.5,61.793H33.955A33.955,33.955,0,0,0,0,95.748v430.09a33.955,33.955,0,0,0,33.955,33.955H622.5a33.955,33.955,0,0,0,33.955-33.955V95.748A33.955,33.955,0,0,0,622.5,61.793ZM565.908,84.429h11.319a11.319,11.319,0,1,1,0,22.637H565.908a11.319,11.319,0,1,1,0-22.637ZM249,84.429H520.636a11.319,11.319,0,1,1,0,22.637H249a11.319,11.319,0,1,1,0-22.637Zm-56.591,0h11.319a11.319,11.319,0,0,1,0,22.637H192.409a11.319,11.319,0,0,1,0-22.637Zm-45.272,0h11.319a11.319,11.319,0,1,1,0,22.637H147.137a11.319,11.319,0,1,1,0-22.637Zm-45.274,0A11.319,11.319,0,1,1,90.545,95.748,11.32,11.32,0,0,1,101.863,84.429Zm-33.954,0A11.319,11.319,0,1,1,56.591,95.748,11.32,11.32,0,0,1,67.91,84.429Zm-33.955,0A11.319,11.319,0,1,1,22.636,95.748,11.32,11.32,0,0,1,33.955,84.429ZM633.818,197.611V525.838A11.32,11.32,0,0,1,622.5,537.157H33.955a11.32,11.32,0,0,1-11.319-11.319V141.02A11.32,11.32,0,0,1,33.955,129.7H622.5a11.32,11.32,0,0,1,11.319,11.319ZM622.5,107.065H611.181a11.319,11.319,0,1,1,0-22.637H622.5a11.319,11.319,0,1,1,0,22.637Z" transform="translate(-4230 1810.207)"/>
  <path id="Path_7617" data-name="Path 7617" class="cls-3" d="M256,507.27H550.272a11.32,11.32,0,0,0,11.319-11.319V167.724H256ZM425.773,224.315V213a11.32,11.32,0,0,1,11.319-11.319h79.227A11.32,11.32,0,0,1,527.637,213V314.861a11.32,11.32,0,0,1-11.319,11.319H437.092a11.32,11.32,0,0,1-11.319-11.319Zm-135.818,0V213a11.32,11.32,0,0,1,11.319-11.319H380.5A11.32,11.32,0,0,1,391.819,213V314.861A11.32,11.32,0,0,1,380.5,326.18H301.272a11.32,11.32,0,0,1-11.319-11.319V224.315Zm11.317,135.818H516.319a11.32,11.32,0,0,1,11.319,11.319V462a11.32,11.32,0,0,1-11.319,11.319H301.272A11.32,11.32,0,0,1,289.954,462V371.452A11.32,11.32,0,0,1,301.272,360.133Z" transform="translate(-4157.773 1840.094)"/>
  <circle id="Ellipse_319" data-name="Ellipse 319" class="cls-4" cx="11.319" cy="11.319" r="11.319" transform="translate(-4207.364 1894.636)"/>
  <circle id="Ellipse_320" data-name="Ellipse 320" class="cls-5" cx="11.319" cy="11.319" r="11.319" transform="translate(-4173.409 1894.636)"/>
  <circle id="Ellipse_321" data-name="Ellipse 321" class="cls-6" cx="11.319" cy="11.319" r="11.319" transform="translate(-4139.456 1894.636)"/>
  <path id="Union_21" data-name="Union 21" class="cls-3" d="M475.363,22.639a11.319,11.319,0,1,1,0-22.638h11.318a11.319,11.319,0,0,1,0,22.638Zm-45.273,0A11.319,11.319,0,0,1,430.09,0h11.318a11.319,11.319,0,1,1,0,22.638Zm-316.908,0a11.319,11.319,0,1,1,0-22.638H384.818a11.319,11.319,0,0,1,0,22.638Zm-56.591,0A11.319,11.319,0,0,1,56.591,0H67.91a11.319,11.319,0,1,1,0,22.638Zm-45.273,0A11.319,11.319,0,0,1,11.318,0H22.638a11.319,11.319,0,0,1,0,22.638Z" transform="translate(-4094.182 1894.635)"/>
  <path id="Path_7623" data-name="Path 7623" class="cls-5" d="M550.272,114.759H256v67.91H561.591V126.078A11.319,11.319,0,0,0,550.272,114.759Z" transform="translate(-4157.773 1825.151)"/>
  <path id="Union_17" data-name="Union 17" class="cls-7" d="M192.409,22.638a11.319,11.319,0,0,1,0-22.638h45.273a11.319,11.319,0,0,1,0,22.638Zm-90.545,0a11.319,11.319,0,0,1,0-22.638h45.273a11.319,11.319,0,0,1,0,22.638Zm-90.546,0A11.319,11.319,0,0,1,11.318,0H56.591a11.319,11.319,0,0,1,0,22.638Z" transform="translate(-3873.137 1962.546)"/>
  <g id="Group_2935" data-name="Group 2935" transform="translate(-3867.819 2064.408)">
    <path id="Path_7627" data-name="Path 7627" class="cls-8" d="M293.8,313.725h79.227a11.32,11.32,0,0,0,11.319-11.319V211.861a11.32,11.32,0,0,1-11.319,11.319H293.8a11.32,11.32,0,0,1-11.319-11.319v90.546A11.32,11.32,0,0,0,293.8,313.725Z" transform="translate(-282.482 -211.861)"/>
    <path id="Path_7628" data-name="Path 7628" class="cls-8" d="M399.732,313.725h79.227a11.32,11.32,0,0,0,11.319-11.319V211.861a11.32,11.32,0,0,1-11.319,11.319H399.732a11.32,11.32,0,0,1-11.319-11.319v90.546A11.32,11.32,0,0,0,399.732,313.725Z" transform="translate(-252.595 -211.861)"/>
  </g>
  <path id="Path_7629" data-name="Path 7629" class="cls-4" d="M293.8,228.162h79.227a11.32,11.32,0,0,0,11.319-11.319V205.525a11.32,11.32,0,0,0-11.319-11.319H293.8a11.32,11.32,0,0,0-11.319,11.319v11.319A11.32,11.32,0,0,0,293.8,228.162Z" transform="translate(-4150.301 1847.566)"/>
  <path id="Path_7630" data-name="Path 7630" class="cls-9" d="M399.732,228.162h79.227a11.32,11.32,0,0,0,11.319-11.319V205.525a11.32,11.32,0,0,0-11.319-11.319H399.732a11.32,11.32,0,0,0-11.319,11.319v11.319A11.32,11.32,0,0,0,399.732,228.162Z" transform="translate(-4120.415 1847.566)"/>
  <path id="Path_7631" data-name="Path 7631" class="cls-8" d="M311.457,329.112v90.546a11.32,11.32,0,0,1-11.319,11.319H503.866a11.32,11.32,0,0,0,11.319-11.319V329.112a11.32,11.32,0,0,0-11.319-11.319H300.138A11.32,11.32,0,0,1,311.457,329.112Z" transform="translate(-4145.32 1882.434)"/>
  <path id="Path_7632" data-name="Path 7632" class="cls-6" d="M293.8,430.975h11.319a11.32,11.32,0,0,0,11.319-11.319V329.111a11.32,11.32,0,0,0-11.319-11.319H293.8a11.32,11.32,0,0,0-11.319,11.319v90.546A11.32,11.32,0,0,0,293.8,430.975Z" transform="translate(-4150.301 1882.434)"/>
  <path id="Union_18" data-name="Union 18" class="cls-5" d="M11.318,339.547a11.318,11.318,0,1,1,0-22.637H192.409a11.318,11.318,0,0,1,0,22.637Zm0-181.091a11.319,11.319,0,0,1,0-22.638H192.409a11.319,11.319,0,0,1,0,22.638Zm0-135.818A11.319,11.319,0,0,1,11.318,0H192.409a11.319,11.319,0,0,1,0,22.638Z" transform="translate(-4128.137 1973.863)"/>
  <path id="Union_20" data-name="Union 20" class="cls-6" d="M11.318,249a11.319,11.319,0,0,1,0-22.638H45.274a11.319,11.319,0,0,1,0,22.638Zm0-45.274a11.319,11.319,0,0,1,0-22.638H45.274a11.319,11.319,0,0,1,0,22.638Zm0-135.817a11.318,11.318,0,1,1,0-22.637H45.274a11.318,11.318,0,1,1,0,22.637Zm0-45.272A11.319,11.319,0,0,1,11.318,0H45.274a11.319,11.319,0,0,1,0,22.638Z" transform="translate(-4105.5 2019.137)"/>
  <g id="Group_2937" data-name="Group 2937" transform="translate(-4128.137 2019.137)">
    <path id="Path_7638" data-name="Path 7638" class="cls-3" d="M271.857,282.483H90.767a11.319,11.319,0,1,0,0,22.637h181.09a11.319,11.319,0,0,0,0-22.637Z" transform="translate(-79.448 -146.665)"/>
    <path id="Path_7639" data-name="Path 7639" class="cls-3" d="M249.442,176.552H170.215a11.319,11.319,0,1,0,0,22.637h79.227a11.319,11.319,0,0,0,0-22.637Z" transform="translate(-57.033 -176.552)"/>
    <path id="Path_7640" data-name="Path 7640" class="cls-3" d="M249.442,211.862H170.215a11.319,11.319,0,1,0,0,22.637h79.227a11.319,11.319,0,0,0,0-22.637Z" transform="translate(-57.033 -166.59)"/>
    <path id="Path_7641" data-name="Path 7641" class="cls-3" d="M249.442,317.793H170.215a11.319,11.319,0,1,0,0,22.637h79.227a11.319,11.319,0,0,0,0-22.637Z" transform="translate(-57.033 -136.703)"/>
    <path id="Path_7642" data-name="Path 7642" class="cls-3" d="M249.442,353.1H170.215a11.319,11.319,0,1,0,0,22.637h79.227a11.319,11.319,0,1,0,0-22.637Z" transform="translate(-57.033 -126.74)"/>
  </g>
  <path id="Union_19" data-name="Union 19" class="cls-4" d="M11.318,339.547a11.318,11.318,0,1,1,0-22.637H22.638a11.318,11.318,0,1,1,0,22.637Zm22.636-45.273a11.319,11.319,0,0,1,0-22.638H45.274a11.319,11.319,0,0,1,0,22.638Zm0-45.274a11.319,11.319,0,0,1,0-22.638H45.274a11.319,11.319,0,0,1,0,22.638ZM11.318,203.728a11.319,11.319,0,0,1,0-22.638H22.638a11.319,11.319,0,0,1,0,22.638Zm0-45.272a11.319,11.319,0,0,1,0-22.638H22.638a11.319,11.319,0,0,1,0,22.638Zm22.636-45.273a11.319,11.319,0,0,1,0-22.638H45.274a11.319,11.319,0,0,1,0,22.638Zm0-45.272a11.319,11.319,0,0,1,0-22.638H45.274a11.319,11.319,0,0,1,0,22.638ZM11.318,22.638A11.319,11.319,0,0,1,11.318,0H22.638a11.319,11.319,0,0,1,0,22.638Z" transform="translate(-4184.728 1973.863)"/>
</svg>
