<?xml version="1.0" encoding="utf-8"?>
<!-- Generator: Adobe Illustrator 22.0.1, SVG Export Plug-In . SVG Version: 6.00 Build 0)  -->
<svg version="1.1" id="Group_2938" xmlns="http://www.w3.org/2000/svg" xmlns:xlink="http://www.w3.org/1999/xlink" x="0px" y="0px"
	 viewBox="0 0 656.5 498" style="enable-background:new 0 0 656.5 498;" xml:space="preserve">
<style type="text/css">
	.st0{fill:#333E48;}
	.st1{fill:#283139;}
	.st2{fill:#FFFFFF;}
	.st3{fill:#FF5959;}
	.st4{fill:#FFB61E;}
	.st5{fill:#2ECC71;}
	.st6{fill:#DEE3ED;}
	.st7{fill:#0071CE;}
</style>
<g>
	<path id="Path_7633" class="st0" d="M328.2,62.4H26c-6.4,0-11.6,5.2-11.6,11.6v395.2c0,6.4,5.2,11.6,11.6,11.6l0,0h302.2V62.4
		L328.2,62.4z"/>
	<path id="Path_7616" class="st1" d="M622.5,0H34C15.2,0,0,15.2,0,34l0,0v430c0,18.8,15.2,34,34,34l0,0h588.5c18.8,0,34-15.2,34-34
		l0,0V34C656.5,15.2,641.3,0,622.5,0L622.5,0z M565.9,22.6h11.3c6.3-0.1,11.4,5,11.4,11.2c0.1,6.3-5,11.4-11.2,11.4
		c-0.1,0-0.1,0-0.2,0h-11.3c-6.3,0.1-11.4-5-11.4-11.2c-0.1-6.3,5-11.4,11.2-11.4C565.8,22.6,565.8,22.6,565.9,22.6z M249,22.6
		h271.6c6.3-0.1,11.4,5,11.4,11.2c0.1,6.3-5,11.4-11.2,11.4c-0.1,0-0.1,0-0.2,0H249c-6.3,0.1-11.4-5-11.4-11.2
		c-0.1-6.3,5-11.4,11.2-11.4C248.9,22.6,248.9,22.6,249,22.6z M192.4,22.6h11.3c6.3,0.1,11.3,5.2,11.2,11.4s-5,11.2-11.2,11.2h-11.3
		c-6.3-0.1-11.3-5.2-11.2-11.4C181.3,27.7,186.2,22.7,192.4,22.6z M147.1,22.6h11.3c6.3-0.1,11.4,5,11.4,11.2
		c0.1,6.3-5,11.4-11.2,11.4c-0.1,0-0.1,0-0.2,0h-11.3c-6.3,0.1-11.4-5-11.4-11.2c-0.1-6.3,5-11.4,11.2-11.4
		C147,22.6,147.1,22.6,147.1,22.6z M101.9,22.6c6.3,0,11.3,5.1,11.3,11.3s-5.1,11.3-11.3,11.3s-11.4-5-11.4-11.2l0,0
		C90.5,27.7,95.6,22.6,101.9,22.6z M67.9,22.6c6.3,0,11.3,5.1,11.3,11.3c0,6.3-5.1,11.3-11.3,11.3s-11.3-5-11.3-11.2l0,0
		C56.6,27.7,61.7,22.6,67.9,22.6L67.9,22.6z M34,22.6c6.3,0,11.3,5.1,11.3,11.3c0,6.3-5.1,11.3-11.3,11.3s-11.4-5-11.4-11.2l0,0
		C22.6,27.7,27.7,22.6,34,22.6L34,22.6z M633.8,135.8V464c0,6.3-5.1,11.3-11.3,11.3H34c-6.3,0-11.3-5.1-11.3-11.3V79.2
		c0-6.3,5.1-11.3,11.3-11.3h588.5c6.3,0,11.3,5.1,11.3,11.3V135.8z M622.5,45.3h-11.3c-6.3,0.1-11.4-5-11.4-11.2
		c-0.1-6.3,5-11.4,11.2-11.4c0.1,0,0.1,0,0.2,0h11.3c6.3-0.1,11.4,5,11.4,11.2c0.1,6.3-5,11.4-11.2,11.4
		C622.6,45.3,622.6,45.3,622.5,45.3z"/>
	<path id="Path_7617" class="st2" d="M328.2,475.4h294.3c6.3,0,11.3-5.1,11.3-11.3V135.8H328.2V475.4z M498,192.4v-11.3
		c0-6.3,5.1-11.3,11.3-11.3h79.2c6.3,0,11.3,5.1,11.3,11.3V283c0,6.3-5.1,11.3-11.3,11.3h-79.2c-6.3,0-11.3-5.1-11.3-11.3V192.4z
		 M362.2,192.4v-11.3c0-6.3,5.1-11.3,11.3-11.3h79.2c6.3,0,11.3,5.1,11.3,11.3V283c0,6.3-5.1,11.3-11.3,11.3h-79.2
		c-6.3,0-11.3-5.1-11.3-11.3V192.4L362.2,192.4z M373.5,328.2h215c6.3,0,11.3,5.1,11.3,11.3V430c0,6.3-5.1,11.3-11.3,11.3h-215
		c-6.3,0-11.3-5.1-11.3-11.3v-90.5C362.2,333.3,367.2,328.2,373.5,328.2z"/>
	<circle id="Ellipse_319" class="st3" cx="34" cy="34" r="11.3"/>
	<circle id="Ellipse_320" class="st4" cx="67.9" cy="34" r="11.3"/>
	<circle id="Ellipse_321" class="st5" cx="101.9" cy="34" r="11.3"/>
	<path id="Union_21" class="st2" d="M611.2,45.3c-6.3,0-11.3-5.1-11.3-11.3s5.1-11.3,11.3-11.3l0,0h11.3c6.3,0,11.3,5.1,11.3,11.3
		s-5.1,11.3-11.3,11.3H611.2z M565.9,45.3c-6.3,0-11.3-5.1-11.3-11.3s5.1-11.3,11.3-11.3l0,0h11.3c6.3,0,11.3,5.1,11.3,11.3
		s-5.1,11.3-11.3,11.3H565.9z M249,45.3c-6.3,0-11.3-5.1-11.3-11.3s5.1-11.3,11.3-11.3l0,0h271.6c6.3,0,11.3,5.1,11.3,11.3
		s-5.1,11.3-11.3,11.3H249z M192.4,45.3c-6.2-0.3-11.1-5.6-10.8-11.8c0.3-5.9,4.9-10.6,10.8-10.8h11.3c6.3,0,11.3,5.1,11.3,11.3
		s-5.1,11.3-11.3,11.3H192.4z M147.1,45.3c-6.2-0.2-11.2-5.4-11-11.7c0.2-6,5-10.8,11-11h11.3c6.3,0,11.3,5.1,11.3,11.3
		s-5.1,11.3-11.3,11.3L147.1,45.3z"/>
	<path id="Path_7623" class="st4" d="M622.5,67.9H328.2v67.9h305.6V79.2C633.8,73,628.8,67.9,622.5,67.9L622.5,67.9z"/>
	<path id="Union_17" class="st1" d="M549.3,113.2c-6.3,0-11.3-5.1-11.3-11.3s5.1-11.3,11.3-11.3h45.3c6.3,0,11.3,5.1,11.3,11.3
		s-5.1,11.3-11.3,11.3H549.3z M458.7,113.2c-6.3,0-11.3-5.1-11.3-11.3s5.1-11.3,11.3-11.3l0,0H504c6.3,0,11.3,5.1,11.3,11.3
		s-5.1,11.3-11.3,11.3H458.7z M368.2,113.2c-6.3,0-11.3-5.1-11.3-11.3s5.1-11.3,11.3-11.3h45.3c6.3,0,11.3,5.1,11.3,11.3
		s-5.1,11.3-11.3,11.3H368.2z"/>
	<g id="Group_2935" transform="translate(-3867.819 2064.408)">
		<path id="Path_7627" class="st6" d="M4241.3-1770.1h79.2c6.3,0,11.3-5.1,11.3-11.3v-90.5c0,6.3-5.1,11.3-11.3,11.3h-79.2
			c-6.3,0-11.3-5.1-11.3-11.3v90.5C4230-1775.2,4235.1-1770.1,4241.3-1770.1z"/>
		<path id="Path_7628" class="st6" d="M4377.1-1770.1h79.2c6.3,0,11.3-5.1,11.3-11.3v-90.5c0,6.3-5.1,11.3-11.3,11.3h-79.2
			c-6.3,0-11.3-5.1-11.3-11.3v90.5C4365.8-1775.2,4370.9-1770.1,4377.1-1770.1z"/>
	</g>
	<path id="Path_7629" class="st3" d="M373.5,203.7h79.2c6.3,0,11.3-5.1,11.3-11.3v-11.3c0-6.3-5.1-11.3-11.3-11.3h-79.2
		c-6.3,0-11.3,5.1-11.3,11.3v11.3C362.2,198.7,367.2,203.7,373.5,203.7z"/>
	<path id="Path_7630" class="st7" d="M509.3,203.7h79.2c6.3,0,11.3-5.1,11.3-11.3v-11.3c0-6.3-5.1-11.3-11.3-11.3h-79.2
		c-6.3,0-11.3,5.1-11.3,11.3v11.3C498,198.7,503.1,203.7,509.3,203.7z"/>
	<path id="Path_7631" class="st6" d="M396.1,339.5V430c0,6.3-5.1,11.3-11.3,11.3h203.7c6.3,0,11.3-5.1,11.3-11.3v-90.5
		c0-6.3-5.1-11.3-11.3-11.3H384.8C391.1,328.2,396.1,333.3,396.1,339.5z"/>
	<path id="Path_7632" class="st5" d="M373.5,441.4h11.3c6.3,0,11.3-5.1,11.3-11.3v-90.5c0-6.3-5.1-11.3-11.3-11.3h-11.3
		c-6.3,0-11.3,5.1-11.3,11.3v90.5C362.2,436.3,367.2,441.4,373.5,441.4z"/>
	<path id="Union_18" class="st4" d="M113.2,441.4c-6.3,0-11.3-5.1-11.3-11.3c0-6.3,5.1-11.3,11.3-11.3h181.1
		c6.3,0,11.3,5.1,11.3,11.3c0,6.3-5.1,11.3-11.3,11.3H113.2z M113.2,260.3c-6.3,0-11.3-5.1-11.3-11.3s5.1-11.3,11.3-11.3h181.1
		c6.3,0,11.3,5.1,11.3,11.3s-5.1,11.3-11.3,11.3H113.2z M113.2,124.5c-6.3,0-11.3-5.1-11.3-11.3s5.1-11.3,11.3-11.3h181.1
		c6.3,0,11.3,5.1,11.3,11.3s-5.1,11.3-11.3,11.3H113.2z"/>
	<path id="Union_20" class="st5" d="M135.8,396.1c-6.3,0-11.3-5.1-11.3-11.3s5.1-11.3,11.3-11.3h34c6.3,0,11.3,5.1,11.3,11.3
		s-5.1,11.3-11.3,11.3H135.8z M135.8,350.9c-6.3,0-11.3-5.1-11.3-11.3c0-6.3,5.1-11.3,11.3-11.3h34c6.3,0,11.3,5.1,11.3,11.3
		c0,6.3-5.1,11.3-11.3,11.3H135.8z M135.8,215c-6.3,0-11.3-5.1-11.3-11.3c0-6.3,5.1-11.3,11.3-11.3h34c6.3,0,11.3,5.1,11.3,11.3
		c0,6.3-5.1,11.3-11.3,11.3H135.8z M135.8,169.8c-6.3-0.1-11.3-5.2-11.2-11.4c0.1-6.2,5-11.2,11.2-11.2h34c6.3,0,11.3,5.1,11.3,11.3
		s-5.1,11.3-11.3,11.3L135.8,169.8z"/>
	<g id="Group_2937" transform="translate(-4128.137 2019.137)">
		<path id="Path_7638" class="st2" d="M4422.4-1736.2h-181.1c-6.3-0.1-11.4,5-11.4,11.2c-0.1,6.3,5,11.4,11.2,11.4
			c0.1,0,0.1,0,0.2,0h181.1c6.3-0.1,11.3-5.2,11.2-11.4C4433.6-1731.1,4428.6-1736.1,4422.4-1736.2z"/>
		<path id="Path_7639" class="st2" d="M4422.4-1872h-79.2c-6.3-0.1-11.4,5-11.4,11.2c-0.1,6.3,5,11.4,11.2,11.4c0.1,0,0.1,0,0.2,0
			h79.2c6.3-0.1,11.3-5.2,11.2-11.4C4433.6-1867,4428.6-1871.9,4422.4-1872L4422.4-1872z"/>
		<path id="Path_7640" class="st2" d="M4422.4-1826.7h-79.2c-6.3-0.1-11.4,5-11.4,11.2c-0.1,6.3,5,11.4,11.2,11.4c0.1,0,0.1,0,0.2,0
			h79.2c6.3-0.1,11.3-5.2,11.2-11.4C4433.6-1821.7,4428.6-1826.7,4422.4-1826.7L4422.4-1826.7z"/>
		<path id="Path_7641" class="st2" d="M4422.4-1690.9h-79.2c-6.3-0.1-11.4,5-11.4,11.2c-0.1,6.3,5,11.4,11.2,11.4c0.1,0,0.1,0,0.2,0
			h79.2c6.3-0.1,11.3-5.2,11.2-11.4C4433.6-1685.9,4428.6-1690.9,4422.4-1690.9L4422.4-1690.9z"/>
		<path id="Path_7642" class="st2" d="M4422.4-1645.6h-79.2c-6.3-0.1-11.4,5-11.4,11.2c-0.1,6.3,5,11.4,11.2,11.4c0.1,0,0.1,0,0.2,0
			h79.2c6.3,0.1,11.4-5,11.4-11.2c0.1-6.3-5-11.4-11.2-11.4C4422.6-1645.6,4422.5-1645.6,4422.4-1645.6L4422.4-1645.6z"/>
	</g>
	<path id="Union_19" class="st3" d="M56.6,441.4c-6.3,0-11.3-5.1-11.3-11.3c0-6.3,5.1-11.3,11.3-11.3h11.3c6.3,0,11.3,5.1,11.3,11.3
		c0,6.3-5.1,11.3-11.3,11.3H56.6z M79.2,396.1c-6.3,0-11.3-5.1-11.3-11.3s5.1-11.3,11.3-11.3l0,0h11.3c6.3,0,11.3,5.1,11.3,11.3
		s-5.1,11.3-11.3,11.3H79.2z M79.2,350.9c-6.3,0-11.3-5.1-11.3-11.3c0-6.3,5.1-11.3,11.3-11.3l0,0h11.3c6.3,0,11.3,5.1,11.3,11.3
		c0,6.3-5.1,11.3-11.3,11.3H79.2z M56.6,305.6c-6.3,0-11.3-5.1-11.3-11.3s5-11.3,11.3-11.3h11.3c6.3,0,11.3,5.1,11.3,11.3
		s-5.1,11.3-11.3,11.3L56.6,305.6L56.6,305.6z M56.6,260.3c-6.3,0-11.3-5.1-11.3-11.3s5.1-11.3,11.3-11.3h11.3
		c6.3,0,11.3,5.1,11.3,11.3s-5.1,11.3-11.3,11.3H56.6z M79.2,215c-6.3,0-11.3-5.1-11.3-11.3s5.1-11.3,11.3-11.3l0,0h11.3
		c6.3,0,11.3,5.1,11.3,11.3s-5,11.3-11.3,11.3H79.2z M79.2,169.8c-6.3,0-11.3-5.1-11.3-11.3s5.1-11.3,11.3-11.3l0,0h11.3
		c6.3,0,11.3,5.1,11.3,11.3s-5.1,11.3-11.3,11.3H79.2z M56.6,124.5c-6.3,0-11.3-5.1-11.3-11.3s5.1-11.3,11.3-11.3h11.3
		c6.3,0,11.3,5.1,11.3,11.3s-5.1,11.3-11.3,11.3H56.6z"/>
</g>
</svg>
