<svg id="Group_2793" data-name="Group 2793" xmlns="http://www.w3.org/2000/svg" viewBox="-4818 1190 512 504.805">
  <defs>
    <style>
      .cls-1 {
        fill: #ffb61e;
      }

      .cls-2 {
        fill: #0071ce;
      }

      .cls-3 {
        fill: #fff;
      }

      .cls-4 {
        fill: #1e252b;
      }
    </style>
  </defs>
  <rect id="Rectangle_434" data-name="Rectangle 434" class="cls-1" width="252.602" height="265.828" transform="translate(-4568.595 1242.61)"/>
  <rect id="Rectangle_435" data-name="Rectangle 435" class="cls-2" width="252.602" height="42.622" transform="translate(-4568.595 1199.988)"/>
  <rect id="Rectangle_436" data-name="Rectangle 436" class="cls-3" width="492.017" height="137.989" transform="translate(-4808.01 1546.824)"/>
  <rect id="Rectangle_437" data-name="Rectangle 437" class="cls-2" width="193.677" height="308.45" transform="translate(-4808.01 1199.99)"/>
  <path id="Union_1" data-name="Union 1" class="cls-4" d="M9.99,504.8A9.99,9.99,0,0,1,0,494.815V356.826a9.99,9.99,0,0,1,9.99-9.99H502.01a9.99,9.99,0,0,1,9.99,9.99V494.815a9.99,9.99,0,0,1-9.99,9.99Zm443.41-19.98h38.621V458.808H453.4Zm-62.47,0h42.491V458.808H390.93Zm-62.472,0H370.95V458.808H328.459Zm-124.939,0H308.48V458.808H203.52Zm-62.471,0H183.54V458.808H141.049Zm-62.47,0H121.07V458.808H78.579Zm-58.6,0H58.6V458.808H19.979ZM476.4,438.83h15.622V412.812H476.4Zm-233.405,0h42.491V412.812H242.992Zm-187.412,0H98.071V412.812H55.58Zm374.821,0h26.017V412.811H430.4Zm-62.471,0h42.491V412.811H367.931Zm-62.47,0h42.491V412.811H305.461Zm-124.94,0h42.491V412.811H180.521Zm-62.47,0h42.49V412.811h-42.49Zm-98.072,0H35.6V412.811H19.979Zm433.421-46h38.621V366.816H453.4Zm-62.47,0h42.491V366.816H390.93Zm-62.47,0h42.491V366.816H328.46Zm-62.471,0H308.48V366.816H265.99Zm-62.47,0h42.492V366.816H203.52Zm-62.47,0h42.491V366.816H141.05Zm-62.471,0H121.07V366.816H78.579Zm-58.6,0H58.6V366.815H19.979Zm229.426-64.4a9.99,9.99,0,0,1-9.99-9.99V9.99A9.99,9.99,0,0,1,249.405,0h252.6A9.989,9.989,0,0,1,512,9.99V318.438a9.99,9.99,0,0,1-9.99,9.99Zm9.989-19.98H492.02V62.6H259.394Zm0-265.826H492.021V19.979H259.394ZM9.99,328.428A9.99,9.99,0,0,1,0,318.438V9.99A9.99,9.99,0,0,1,9.99,0H203.663a9.99,9.99,0,0,1,9.99,9.99V318.438a9.99,9.99,0,0,1-9.99,9.99Zm9.989-19.98H193.673V19.979H19.979Zm32.237-30.219a9.99,9.99,0,1,1,0-19.98h54.671a9.99,9.99,0,1,1,0,19.98Zm0-41.611a9.99,9.99,0,1,1,0-19.98H161.435a9.99,9.99,0,1,1,0,19.98Zm364.048-10.077a9.988,9.988,0,0,1,0-14.126l31.55-31.551-31.55-31.551a9.989,9.989,0,1,1,14.126-14.126L469,173.8a9.991,9.991,0,0,1,0,14.127L430.39,226.541a9.987,9.987,0,0,1-14.126,0Zm-95.24,0-38.614-38.614a9.99,9.99,0,0,1,0-14.127l38.614-38.614a9.989,9.989,0,1,1,14.126,14.125L303.6,180.862l31.551,31.55a9.989,9.989,0,1,1-14.126,14.127Zm40.377-5.355a9.988,9.988,0,0,1-7.255-12.122L377.893,114.5a9.989,9.989,0,1,1,19.377,4.867L373.523,213.93a9.974,9.974,0,0,1-12.122,7.255ZM52.216,195.009a9.99,9.99,0,0,1,0-19.98h54.671a9.99,9.99,0,0,1,0,19.98Zm0-41.611a9.99,9.99,0,1,1,0-19.98H161.435a9.99,9.99,0,1,1,0,19.98Zm0-41.609a9.99,9.99,0,1,1,0-19.98h54.671a9.99,9.99,0,1,1,0,19.98Zm0-41.61a9.99,9.99,0,1,1,0-19.98H161.435a9.99,9.99,0,1,1,0,19.98Z" transform="translate(-4818 1190)"/>
</svg>
