<svg xmlns="http://www.w3.org/2000/svg" viewBox="4433 -598 511.999 511.998">
  <defs>
    <style>
      .cls-1 {
        fill: #ffb819;
      }

      .cls-2 {
        fill: #333e48;
      }
    </style>
  </defs>
  <g id="crosswalk" transform="translate(4433 -598.001)">
    <path id="Path_7591" data-name="Path 7591" class="cls-1" d="M272.022,6.61a22.724,22.724,0,0,0-32.043,0L6.609,239.978a22.724,22.724,0,0,0,0,32.043L239.978,505.39a22.724,22.724,0,0,0,32.043,0L505.39,272.021a22.724,22.724,0,0,0,0-32.043Z"/>
    <g id="Group_2919" data-name="Group 2919">
      <path id="Path_7592" data-name="Path 7592" class="cls-2" d="M256,489.636a8.245,8.245,0,0,1-5.852-2.425L24.789,261.853a8.274,8.274,0,0,1,0-11.7L250.147,24.791a8.277,8.277,0,0,1,11.7,0L487.21,250.148a8.274,8.274,0,0,1,0,11.7L261.852,487.211A8.248,8.248,0,0,1,256,489.636ZM42.348,256,256,469.652,469.652,256,256,42.348Z"/>
      <path id="Path_7593" data-name="Path 7593" class="cls-2" d="M185.368,328.287H146.741a8.277,8.277,0,1,0,0,16.554h38.627a8.277,8.277,0,0,0,0-16.554Z"/>
      <path id="Path_7594" data-name="Path 7594" class="cls-2" d="M367.651,328.287H324.61a8.277,8.277,0,1,0,0,16.554h43.041a8.277,8.277,0,1,0,0-16.554Z"/>
      <path id="Path_7595" data-name="Path 7595" class="cls-2" d="M324.514,212.686l-57.568-23.2-.984-7.413a41.781,41.781,0,1,0-29.889,4.807l2.064,15.535-31.324,34.2-33.689,9.658a15.131,15.131,0,1,0,8.339,29.091l37.793-10.833a15.128,15.128,0,0,0,6.988-4.326l17.088-18.658,4.78,35.992-35.168,40.279a15.143,15.143,0,0,0-3.7,8.969l-3.335,51.272a15.133,15.133,0,0,0,14.117,16.082c.334.021.667.031,1,.031A15.13,15.13,0,0,0,236.1,380.026l3-46.161,19.04-21.8,7.374,21.738a15.091,15.091,0,0,0,.935,2.176l25.01,47.607a15.131,15.131,0,1,0,26.79-14.074L293.8,322.951l-14.269-42.062a15.328,15.328,0,0,0-.662-1.616l-7.347-55.31,30.5,12.291-4.547,28.671a15.131,15.131,0,1,0,29.889,4.741l6.434-40.572A15.127,15.127,0,0,0,324.514,212.686Z"/>
    </g>
  </g>
</svg>
