<svg xmlns="http://www.w3.org/2000/svg" viewBox="3502 918 306.001 306">
  <defs>
    <style>
      .cls-1 {
        fill: #ffb61e;
      }

      .cls-2 {
        fill: #333e48;
      }

      .cls-3 {
        fill: #1e252b;
      }
    </style>
  </defs>
  <g id="crosswalk" transform="translate(3502 917.999)">
    <path id="Path_6842" data-name="Path 6842" class="cls-1" d="M165.5,11.845a13.156,13.156,0,0,0-18.551,0L11.844,146.951a13.156,13.156,0,0,0,0,18.551L146.95,300.608a13.156,13.156,0,0,0,18.551,0L300.608,165.5a13.156,13.156,0,0,0,0-18.551Z" transform="translate(-3.226 -3.226)"/>
    <path id="Path_6843" data-name="Path 6843" class="cls-2" d="M259.091,171.776l-33.328-13.43-.57-4.292a24.188,24.188,0,1,0-17.3,2.783l1.195,8.994-18.135,19.8-19.5,5.59a8.76,8.76,0,1,0,4.828,16.842l21.88-6.272a8.758,8.758,0,0,0,4.046-2.5l9.893-10.8,2.767,20.837L194.5,232.641a8.765,8.765,0,0,0-2.143,5.193l-1.931,29.683a8.761,8.761,0,0,0,8.173,9.31q.29.018.577.018a8.76,8.76,0,0,0,8.733-8.191l1.739-26.724,11.023-12.624,4.269,12.585a8.775,8.775,0,0,0,.541,1.26l14.479,27.561a8.76,8.76,0,1,0,15.51-8.148L241.309,235.61l-8.261-24.352a8.887,8.887,0,0,0-.383-.935L228.412,178.3l17.658,7.116-2.632,16.6a8.76,8.76,0,1,0,17.3,2.744l3.725-23.488A8.758,8.758,0,0,0,259.091,171.776Z" transform="translate(-66.426 -43.852)"/>
    <path id="Path_6844" data-name="Path 6844" class="cls-3" d="M156.388,19.145a4.791,4.791,0,0,0-6.776,0L19.144,149.612a4.79,4.79,0,0,0,0,6.776L149.612,286.856a4.79,4.79,0,0,0,6.776,0L286.856,156.388a4.79,4.79,0,0,0,0-6.776ZM153,276.691,29.308,153,153,29.309,276.691,153Zm-40.891-81.841H89.746a4.792,4.792,0,1,0,0,9.584h22.363a4.792,4.792,0,0,0,0-9.584Zm75.82,4.792a4.792,4.792,0,0,0,4.792,4.792h24.918a4.792,4.792,0,1,0,0-9.584H192.721A4.791,4.791,0,0,0,187.929,199.643ZM117.554,89.332a29.147,29.147,0,0,0,19.574,27.414l.484,3.646L121.9,137.546l-18.2,5.219A13.551,13.551,0,0,0,94.4,159.526a13.542,13.542,0,0,0,16.762,9.293l21.881-6.272a13.545,13.545,0,0,0,6.259-3.875l2.96-3.232,1.131,8.513L124.463,185.64a13.631,13.631,0,0,0-3.315,8.033l-1.931,29.684a13.572,13.572,0,0,0,12.654,14.4c.295.019.587.027.879.027a13.579,13.579,0,0,0,13.515-12.672l1.633-25.105,4.482-5.133,1.6,4.707a13.618,13.618,0,0,0,.836,1.946l14.48,27.561a13.551,13.551,0,1,0,23.994-12.6L179.3,189.866l-8.142-24c-.078-.229-.164-.458-.258-.69l-3.082-23.2,6.5,2.618-2.034,12.829a13.551,13.551,0,0,0,11.259,15.507,13.542,13.542,0,0,0,15.51-11.262l3.725-23.488a13.488,13.488,0,0,0-8.319-14.693l-29.413-11.852a28.98,28.98,0,1,0-47.489-22.3Zm48.384,0a19.492,19.492,0,0,1-9.6,16.739,4.791,4.791,0,0,0-2.324,4.763l.57,4.292a4.792,4.792,0,0,0,2.959,3.814l33.329,13.429a3.949,3.949,0,0,1,2.436,4.3l-3.725,23.488a4.009,4.009,0,0,1-4.541,3.3,3.968,3.968,0,0,1-3.3-4.54l2.632-16.6a4.791,4.791,0,0,0-2.942-5.195l-17.658-7.116a4.792,4.792,0,0,0-6.541,5.075l4.254,32.021a4.794,4.794,0,0,0,.417,1.415,3.887,3.887,0,0,1,.178.429l8.261,24.352a4.811,4.811,0,0,0,.3.69L184.8,220.941a3.967,3.967,0,1,1-7.025,3.69L163.3,197.069a4.029,4.029,0,0,1-.244-.571l-4.269-12.585a4.792,4.792,0,0,0-8.147-1.613l-11.023,12.625a4.8,4.8,0,0,0-1.173,2.841L136.7,224.491a3.972,3.972,0,0,1-3.951,3.711c-.091,0-.184,0-.266-.008a3.973,3.973,0,0,1-3.7-4.218l1.931-29.683a3.986,3.986,0,0,1,.971-2.352l20.36-23.319a4.79,4.79,0,0,0,1.14-3.783L150.416,144a4.791,4.791,0,0,0-8.284-2.606l-9.894,10.8a3.964,3.964,0,0,1-1.832,1.134L108.525,159.6a3.958,3.958,0,0,1-4.908-2.722,3.968,3.968,0,0,1,2.722-4.907l19.5-5.591a4.788,4.788,0,0,0,2.213-1.37l18.135-19.8a4.792,4.792,0,0,0,1.216-3.867l-1.195-8.994a4.791,4.791,0,0,0-3.749-4.055,19.4,19.4,0,1,1,23.475-18.966Zm134.832,51L165.664,5.231a17.949,17.949,0,0,0-25.329,0L5.23,140.336a17.948,17.948,0,0,0,0,25.329L140.336,300.771a17.948,17.948,0,0,0,25.329,0L300.771,165.665a17.947,17.947,0,0,0,0-25.329Zm-6.777,18.551L158.887,293.993a8.363,8.363,0,0,1-11.774,0L12.007,158.887a8.335,8.335,0,0,1,0-11.774L147.112,12.007a8.363,8.363,0,0,1,11.774,0L293.992,147.113A8.335,8.335,0,0,1,293.993,158.887Z"/>
  </g>
</svg>
