<svg xmlns="http://www.w3.org/2000/svg" viewBox="-1899 2207.133 715.804 1088.871">
  <defs>
    <style>
      .cls-1 {
        fill: #a4a9ad;
      }

      .cls-2 {
        opacity: 0.2;
      }

      .cls-3 {
        opacity: 0.3;
      }

      .cls-4 {
        opacity: 0.1;
      }

      .cls-5 {
        fill: #333e48;
      }

      .cls-6 {
        fill: #d1d3d3;
      }

      .cls-7 {
        fill: #ffb819;
      }

      .cls-8 {
        fill: #1e252b;
      }
    </style>
  </defs>
  <g id="antenna" transform="translate(-1986.71 2207.132)">
    <rect id="Rectangle_400" data-name="Rectangle 400" class="cls-1" width="72.964" height="460.413" transform="translate(409.112 272.415)"/>
    <path id="Path_6862" data-name="Path 6862" class="cls-2" d="M275.333,325.908l-36.49-28.6V397.849H311.81V297.323Z" transform="translate(170.28 334.972)"/>
    <path id="Path_6863" data-name="Path 6863" class="cls-3" d="M238.843,128.092V260.727a185.078,185.078,0,0,0,72.964,0V128.092Z" transform="translate(170.28 144.319)"/>
    <rect id="Rectangle_401" data-name="Rectangle 401" class="cls-1" width="429.695" height="72.967" transform="translate(629.746 923.499) rotate(-141.912)"/>
    <path id="Path_6864" data-name="Path 6864" class="cls-4" d="M282.527,319.021l-59.143,46.351,59.143,46.351,59.141-46.351Z" transform="translate(152.862 359.436)"/>
    <path id="Path_6865" data-name="Path 6865" class="cls-2" d="M190.464,327.853l-4.558,16.088,62.059,48.637,21.488-75.863L225.927,282.6Z" transform="translate(110.637 318.402)"/>
    <path id="Path_6866" data-name="Path 6866" class="cls-4" d="M295.1,328.878l-59.141,46.351L295.1,421.582l59.141-46.353Z" transform="translate(167.034 370.542)"/>
    <rect id="Rectangle_402" data-name="Rectangle 402" class="cls-1" width="72.967" height="429.695" transform="translate(261.484 923.505) rotate(-128.088)"/>
    <path id="Path_6867" data-name="Path 6867" class="cls-2" d="M155.985,480.6l28.583,36.468,47.459-37.2,33.751-119.154-97.475,76.4Z" transform="translate(76.925 406.411)"/>
    <path id="Path_6868" data-name="Path 6868" class="cls-2" d="M330.329,282.6,286.8,316.716l21.488,75.863,62.059-48.637-4.557-16.088Z" transform="translate(224.314 318.403)"/>
    <path id="Path_6869" data-name="Path 6869" class="cls-2" d="M401.859,437.111l-97.474-76.4,33.75,119.154,47.459,37.2L414.177,480.6Z" transform="translate(244.125 406.411)"/>
    <path id="Path_6870" data-name="Path 6870" class="cls-5" d="M613.811,970.821l-209.583-739.9-209.583,739.9-70.2-19.885L369.127,87.111a36.483,36.483,0,0,1,70.2,0L684.017,950.939Z" transform="translate(41.384 68.243)"/>
    <path id="Path_6871" data-name="Path 6871" class="cls-2" d="M345.242,87.111a36.483,36.483,0,0,0-70.2,0L207.95,323.96a194.943,194.943,0,0,0,68.541,25.758l33.651-118.8,33.651,118.8a194.948,194.948,0,0,0,68.539-25.758Z" transform="translate(135.473 68.243)"/>
    <circle id="Ellipse_259" data-name="Ellipse 259" class="cls-6" cx="131.55" cy="131.55" r="131.55" transform="translate(314.068 93.14)"/>
    <g id="Group_2768" data-name="Group 2768" transform="translate(98.756 0.001)">
      <path id="Path_6872" data-name="Path 6872" class="cls-7" d="M210.3,345.22a17.065,17.065,0,0,1-13.292-6.327,238.6,238.6,0,0,1,0-300.548,17.1,17.1,0,0,1,26.562,21.545,204.4,204.4,0,0,0,0,257.459A17.1,17.1,0,0,1,210.3,345.22Z" transform="translate(-35.624 36.068)"/>
      <path id="Path_6873" data-name="Path 6873" class="cls-7" d="M183.565,449.357a17.065,17.065,0,0,1-13.292-6.327,346.795,346.795,0,0,1,0-436.7,17.1,17.1,0,1,1,26.56,21.545,312.6,312.6,0,0,0,0,393.607,17.1,17.1,0,0,1-13.268,27.872Z" transform="translate(-92.904 0)"/>
      <path id="Path_6874" data-name="Path 6874" class="cls-7" d="M346.017,345.221a17.1,17.1,0,0,1-13.271-27.874,204.4,204.4,0,0,0,0-257.459,17.1,17.1,0,0,1,26.562-21.545,238.59,238.59,0,0,1,0,300.548A17.066,17.066,0,0,1,346.017,345.221Z" transform="translate(173.018 36.067)"/>
      <path id="Path_6875" data-name="Path 6875" class="cls-7" d="M385.524,449.358a17.1,17.1,0,0,1-13.27-27.874,312.6,312.6,0,0,0,0-393.607,17.1,17.1,0,1,1,26.56-21.545,346.8,346.8,0,0,1,0,436.7A17.053,17.053,0,0,1,385.524,449.358Z" transform="translate(217.529 -0.001)"/>
    </g>
    <g id="Group_2769" data-name="Group 2769" transform="translate(104.811 986.482)">
      <path id="Path_6876" data-name="Path 6876" class="cls-1" d="M287.986,477.181a13.358,13.358,0,0,0-13.324-13.322H109.079a13.361,13.361,0,0,0-13.328,13.322v58.635a13.369,13.369,0,0,0,13.328,13.33H274.663a13.365,13.365,0,0,0,13.324-13.33V477.181Z" transform="translate(-95.751 -463.859)"/>
      <path id="Path_6877" data-name="Path 6877" class="cls-1" d="M325.86,477.181a13.358,13.358,0,0,1,13.324-13.322H504.767A13.361,13.361,0,0,1,518.1,477.181v58.635a13.368,13.368,0,0,1-13.328,13.33H339.184a13.365,13.365,0,0,1-13.324-13.33V477.181Z" transform="translate(163.51 -463.859)"/>
    </g>
    <path id="Path_6878" data-name="Path 6878" class="cls-8" d="M773.086,929.1h-44.02L548.478,291.56A148.194,148.194,0,0,0,594.263,184.4c0-81.965-66.686-148.651-148.651-148.651S296.961,102.438,296.961,184.4A148.194,148.194,0,0,0,342.746,291.56L162.159,929.1h-44.02A30.46,30.46,0,0,0,87.71,959.523v58.635a30.465,30.465,0,0,0,30.429,30.431H283.722a30.463,30.463,0,0,0,30.424-30.431V959.523A30.459,30.459,0,0,0,283.722,929.1H273.544l12.241-43.219L445.593,760.635,605.53,886.212,617.68,929.1H607.5a30.458,30.458,0,0,0-30.424,30.422v58.635a30.464,30.464,0,0,0,30.424,30.431H773.086a30.465,30.465,0,0,0,30.429-30.431V959.525A30.459,30.459,0,0,0,773.086,929.1ZM331.165,184.4A114.448,114.448,0,1,1,445.612,298.849,114.578,114.578,0,0,1,331.165,184.4ZM466.047,393.777V608.443l-20.435,16.016-20.435-16.016V393.777L442.4,332.969c1.072.025,2.135.083,3.213.083s2.139-.057,3.213-.083ZM353.933,645.307l11.414-40.3,52.542,41.181L386.473,670.81Zm4.815,47.234-23.389,18.33,8.5-30Zm16.671-123.1,15.555-54.917v67.11ZM279.945,963.3v51.081H121.914V963.3ZM238,929.1H197.709L372.078,313.51a147.618,147.618,0,0,0,36.1,14.763Zm63.611-99.076,17.928-63.294L525.878,605.008l11.414,40.3ZM500.251,581.636v-67.11l15.555,54.917Zm47.119,99.235,8.5,30.008-23.391-18.336Zm-74.055,58.039,31.439-24.642,66.937,52.47,18,63.545Zm9.73-410.638a147.667,147.667,0,0,0,36.107-14.763L693.52,929.1H653.232Zm286.269,686.109H611.281V963.3H769.313Z" transform="translate(0 40.281)"/>
  </g>
</svg>
