<svg xmlns="http://www.w3.org/2000/svg" viewBox="-5453 3528 599.36 926.004">
  <defs>
    <style>
      .cls-1 {
        fill: #a4a9ad;
      }

      .cls-2 {
        opacity: 0.2;
      }

      .cls-3 {
        opacity: 0.3;
      }

      .cls-4 {
        opacity: 0.1;
      }

      .cls-5 {
        fill: #333e48;
      }

      .cls-6 {
        fill: #d1d3d3;
      }

      .cls-7 {
        fill: #ffb61e;
      }
    </style>
  </defs>
  <g id="antenna" transform="translate(-5543.303 3528.001)">
    <rect id="Rectangle_697" data-name="Rectangle 697" class="cls-1" width="63.042" height="397.793" transform="translate(358.446 235.367)"/>
    <path id="Path_7596" data-name="Path 7596" class="cls-2" d="M270.1,326.763,238.57,302.052V388.92h63.042V302.065Z" transform="translate(119.887 244.236)"/>
    <path id="Path_7597" data-name="Path 7597" class="cls-3" d="M238.57,130.136v114.6a159.933,159.933,0,0,0,63.042,0v-114.6H238.57Z" transform="translate(119.887 105.227)"/>
    <rect id="Rectangle_698" data-name="Rectangle 698" class="cls-1" width="371.254" height="63.042" transform="translate(549.07 797.895) rotate(-141.912)"/>
    <path id="Path_7598" data-name="Path 7598" class="cls-4" d="M273.963,324.111l-51.1,40.048,51.1,40.048,51.1-40.048Z" transform="translate(107.186 262.073)"/>
    <path id="Path_7599" data-name="Path 7599" class="cls-2" d="M188.726,326.207l-3.937,13.9,53.619,42.023,18.565-65.545-37.606-29.475Z" transform="translate(76.4 232.155)"/>
    <path id="Path_7600" data-name="Path 7600" class="cls-4" d="M286.739,334.126l-51.1,40.048,51.1,40.049,51.1-40.049Z" transform="translate(117.52 270.171)"/>
    <rect id="Rectangle_699" data-name="Rectangle 699" class="cls-1" width="63.042" height="371.254" transform="translate(230.89 797.904) rotate(-128.088)"/>
    <path id="Path_7601" data-name="Path 7601" class="cls-2" d="M154.389,470.048l24.694,31.509,41-32.139,29.16-102.948-84.219,66.006Z" transform="translate(51.819 296.324)"/>
    <path id="Path_7602" data-name="Path 7602" class="cls-2" d="M324.9,287.111l-37.606,29.475,18.565,65.545,53.619-42.023-3.937-13.9Z" transform="translate(159.284 232.155)"/>
    <path id="Path_7603" data-name="Path 7603" class="cls-2" d="M389.376,432.476,305.157,366.47l29.162,102.948,41.006,32.139,24.694-31.509Z" transform="translate(173.728 296.324)"/>
    <path id="Path_7604" data-name="Path 7604" class="cls-5" d="M545.154,847.989,364.076,208.717,183,847.989l-60.656-17.182L333.748,84.467a31.52,31.52,0,0,1,60.655,0L605.808,830.811Z" transform="translate(25.906 49.758)"/>
    <path id="Path_7605" data-name="Path 7605" class="cls-2" d="M325.8,84.467a31.52,31.52,0,0,0-60.655,0L207.184,289.105a168.457,168.457,0,0,0,59.22,22.256l29.075-102.645,29.075,102.645a168.461,168.461,0,0,0,59.219-22.256Z" transform="translate(94.508 49.758)"/>
    <circle id="Ellipse_318" data-name="Ellipse 318" class="cls-6" cx="113.659" cy="113.659" r="113.659" transform="translate(276.329 80.474)"/>
    <path id="Path_7606" data-name="Path 7606" class="cls-7" d="M199.46,303.134a14.744,14.744,0,0,1-11.483-5.467,206.148,206.148,0,0,1,0-259.673,14.776,14.776,0,0,1,22.951,18.616,176.6,176.6,0,0,0,0,222.442,14.774,14.774,0,0,1-11.468,24.083Z" transform="translate(41.763 26.299)"/>
    <path id="Path_7607" data-name="Path 7607" class="cls-7" d="M168.631,388.243a14.744,14.744,0,0,1-11.483-5.467,299.631,299.631,0,0,1,0-377.3A14.775,14.775,0,1,1,180.1,24.087a270.087,270.087,0,0,0,0,340.076,14.771,14.771,0,0,1-11.466,24.08Z" transform="translate(0 0.002)"/>
    <path id="Path_7608" data-name="Path 7608" class="cls-7" d="M344.855,303.135a14.776,14.776,0,0,1-11.465-24.085,176.592,176.592,0,0,0,0-222.442,14.776,14.776,0,0,1,22.951-18.616,206.141,206.141,0,0,1,0,259.673A14.755,14.755,0,0,1,344.855,303.135Z" transform="translate(193.889 26.299)"/>
    <path id="Path_7609" data-name="Path 7609" class="cls-7" d="M384.993,388.245a14.777,14.777,0,0,1-11.465-24.085,270.087,270.087,0,0,0,0-340.076A14.775,14.775,0,1,1,396.478,5.468a299.645,299.645,0,0,1,0,377.307A14.743,14.743,0,0,1,384.993,388.245Z" transform="translate(226.344 0)"/>
    <g id="Group_2921" data-name="Group 2921" transform="translate(95.532 852.316)">
      <path id="Path_7610" data-name="Path 7610" class="cls-1" d="M259.284,482.77a11.541,11.541,0,0,0-11.512-11.51H104.709a11.544,11.544,0,0,0-11.515,11.51v50.66a11.55,11.55,0,0,0,11.515,11.517H247.772a11.547,11.547,0,0,0,11.512-11.517V482.77Z" transform="translate(-93.194 -471.26)"/>
      <path id="Path_7611" data-name="Path 7611" class="cls-1" d="M326.974,482.77a11.541,11.541,0,0,1,11.512-11.51H481.549a11.544,11.544,0,0,1,11.515,11.51v50.66a11.55,11.55,0,0,1-11.515,11.517H338.486a11.547,11.547,0,0,1-11.512-11.517V482.77Z" transform="translate(95.838 -471.26)"/>
    </g>
  </g>
</svg>
