<?xml version="1.0" encoding="utf-8"?>
<!-- Generator: Adobe Illustrator 22.0.1, SVG Export Plug-In . SVG Version: 6.00 Build 0)  -->
<svg version="1.1" id="Capa_1" xmlns="http://www.w3.org/2000/svg" xmlns:xlink="http://www.w3.org/1999/xlink" x="0px" y="0px"
	 viewBox="0 0 599.4 926" style="enable-background:new 0 0 599.4 926;" xml:space="preserve">
<style type="text/css">
	.st0{fill:#747777;}
	.st1{fill:#8A8E91;}
	.st2{fill:#A4A9AD;}
	.st3{fill:#333E48;}
	.st4{fill:#D1D3D3;}
	.st5{fill:#FFB61E;}
</style>
<g id="antenna" transform="translate(-5543.303 3528.001)">
	<rect id="Rectangle_697" x="5811.4" y="-3292.6" class="st0" width="63" height="397.8"/>
	
		<rect id="Rectangle_698" x="5843.9" y="-3055" transform="matrix(0.6169 -0.7871 0.7871 0.6169 4509.4609 3524.9697)" class="st1" width="63" height="371.3"/>
	
		<rect id="Rectangle_699" x="5624.9" y="-2900.9" transform="matrix(0.7871 -0.6169 0.6169 0.7871 3007.3306 2973.3567)" class="st2" width="371.3" height="63"/>
	<path id="Path_7604" class="st3" d="M6024.1-2630.3L5843-3269.5l-181.1,639.3l-60.7-17.2l211.4-746.3c4.7-16.7,22.2-26.5,38.9-21.7
		c10.5,3,18.8,11.2,21.7,21.7l211.4,746.3L6024.1-2630.3z"/>
	<circle id="Ellipse_318" class="st4" cx="5843" cy="-3333.9" r="113.7"/>
	<path id="Path_7606" class="st5" d="M5694.2-3198.6c-4.5,0-8.7-2-11.5-5.5c-61.4-75.7-61.4-184,0-259.7c5.2-6.3,14.5-7.2,20.8-2.1
		c6.3,5.1,7.2,14.4,2.2,20.7c-52.6,64.8-52.6,157.6,0,222.4c5.1,6.3,4.2,15.6-2.2,20.8C5700.9-3199.7,5697.6-3198.6,5694.2-3198.6
		L5694.2-3198.6z"/>
	<path id="Path_7607" class="st5" d="M5621.6-3139.8c-4.5,0-8.7-2-11.5-5.5c-89.1-110-89.1-267.3,0-377.3c5.1-6.4,14.4-7.4,20.8-2.3
		s7.4,14.4,2.3,20.8c0,0.1-0.1,0.1-0.1,0.2c-80.3,99.1-80.3,240.9,0,340.1c5.1,6.3,4.2,15.6-2.2,20.8
		C5628.3-3140.9,5625-3139.8,5621.6-3139.8L5621.6-3139.8z"/>
	<path id="Path_7608" class="st5" d="M5991.7-3198.6c-8.2,0-14.8-6.6-14.8-14.8c0-3.4,1.2-6.7,3.3-9.3c52.6-64.8,52.6-157.6,0-222.4
		c-5.1-6.4-4.1-15.7,2.3-20.8c6.3-5.1,15.6-4.1,20.7,2.2c61.4,75.7,61.4,184,0,259.7C6000.4-3200.6,5996.2-3198.6,5991.7-3198.6z"/>
	<path id="Path_7609" class="st5" d="M6064.3-3139.8c-8.2,0-14.8-6.6-14.8-14.8c0-3.4,1.2-6.7,3.3-9.3c80.3-99.1,80.3-240.9,0-340.1
		c-5.1-6.3-4.2-15.6,2.2-20.8s15.6-4.2,20.8,2.2c89.1,110,89.1,267.3,0,377.3C6073-3141.8,6068.8-3139.7,6064.3-3139.8z"/>
	<g id="Group_2921" transform="translate(95.532 852.316)">
		<path id="Path_7610" class="st2" d="M5619.1-3516.5c0-6.4-5.2-11.5-11.5-11.5h-143.1c-6.4,0-11.5,5.2-11.5,11.5v50.7
			c0,6.4,5.2,11.5,11.5,11.5h143.1c6.4,0,11.5-5.2,11.5-11.5V-3516.5z"/>
		<path id="Path_7611" class="st2" d="M5875.8-3516.5c0-6.4,5.2-11.5,11.5-11.5h143.1c6.4,0,11.5,5.2,11.5,11.5v50.7
			c0,6.4-5.2,11.5-11.5,11.5h-143.1c-6.4,0-11.5-5.2-11.5-11.5V-3516.5z"/>
	</g>
</g>
</svg>
