<svg xmlns="http://www.w3.org/2000/svg" viewBox="-2603 1040 403.171 500">
  <defs>
    <style>
      .cls-1 {
        fill: #828689;
      }

      .cls-2 {
        fill: #d1d3d3;
      }

      .cls-3 {
        fill: #666;
      }

      .cls-4 {
        fill: #fae1b2;
      }

      .cls-5 {
        fill: #0064b5;
      }

      .cls-6 {
        fill: #0071ce;
      }

      .cls-7 {
        fill: #ffb61e;
      }

      .cls-8 {
        fill: #fff;
      }

      .cls-9 {
        fill: #1e252b;
      }
    </style>
  </defs>
  <g id="Group_2784" data-name="Group 2784" transform="translate(230 -1394)">
    <path id="Path_6998" data-name="Path 6998" class="cls-1" d="M278.292,474.891V485.56a16.312,16.312,0,0,1-16.313,16.313H248.441a16.312,16.312,0,0,1-16.313-16.313V474.891a57.219,57.219,0,0,0,13,1.494h20.142A57.462,57.462,0,0,0,278.292,474.891Z" transform="translate(-2886.619 2418.173)"/>
    <path id="Path_6999" data-name="Path 6999" class="cls-2" d="M187.76,428.608H319.7A56.83,56.83,0,0,1,263.8,474.841H243.655a56.83,56.83,0,0,1-55.895-46.233Z" transform="translate(-2885.14 2419.715)"/>
    <path id="Path_7000" data-name="Path 7000" class="cls-2" d="M320.677,396.5v20.354a56.711,56.711,0,0,1-1.007,10.681H187.725a56.625,56.625,0,0,1-1.007-10.681V396.5H320.677Z" transform="translate(-2885.105 2420.785)"/>
    <path id="Path_7001" data-name="Path 7001" class="cls-3" d="M255.366,155.133l18.565,27.692a33.3,33.3,0,0,1-37.13,0Z" transform="translate(-2886.774 2428.83)"/>
    <path id="Path_7002" data-name="Path 7002" class="cls-4" d="M273.365,183.78l16.407,24.468h-.012a88.146,88.146,0,0,1-69.931,0l16.407-24.468a33.3,33.3,0,0,0,37.128,0Z" transform="translate(-2886.208 2427.875)"/>
    <g id="Group_2782" data-name="Group 2782" transform="translate(-2666.38 2636.123)">
      <path id="Path_7003" data-name="Path 7003" class="cls-5" d="M290.977,209.092V390.256H256.006V216.324a88.02,88.02,0,0,0,34.96-7.232Z" transform="translate(-221.035 -209.092)"/>
      <path id="Path_7004" data-name="Path 7004" class="cls-6" d="M254.8,216.335V390.256H219.829V209.092a88.052,88.052,0,0,0,34.971,7.232Z" transform="translate(-219.829 -209.092)"/>
    </g>
    <path id="Path_7005" data-name="Path 7005" class="cls-7" d="M393.049,201.66a141.492,141.492,0,0,1-40.1,98.868,121.784,121.784,0,0,0-34.853,84.75H286.084V204.115l-16.407-24.468-18.565-27.692-18.565,27.692L216.14,204.115V385.279H184.132c0-31.795-12.838-62.024-34.96-84.856a141.432,141.432,0,0,1-40-96.841C108.143,125.612,171.1,60.838,249.061,59.736A141.941,141.941,0,0,1,393.049,201.66Z" transform="translate(-2882.52 2432.009)"/>
    <g id="Group_2783" data-name="Group 2783" transform="translate(-2641.935 2512.473)">
      <path id="Path_7006" data-name="Path 7006" class="cls-8" d="M369.062,211.414a8.891,8.891,0,0,1-8.891-8.891,103.888,103.888,0,0,0-75.031-99.448,8.892,8.892,0,0,1,4.888-17.1,121.748,121.748,0,0,1,87.925,116.545A8.89,8.89,0,0,1,369.062,211.414Z" transform="translate(-246.236 -81.327)"/>
      <path id="Path_7007" data-name="Path 7007" class="cls-8" d="M261.814,99.132c-.157,0-.314,0-.472-.012-2.012-.105-3.987-.152-5.872-.154-.423,0-.847,0-1.269.01a8.891,8.891,0,1,1-.387-17.777c2.751-.059,5.557.012,8.458.164a8.89,8.89,0,0,1-.458,17.768Z" transform="translate(-245.117 -81.179)"/>
    </g>
    <path id="Path_7008" data-name="Path 7008" class="cls-9" d="M454.5,217.125H438.977a8.891,8.891,0,1,1,0-17.783H454.5a8.891,8.891,0,1,1,0,17.783Z" transform="translate(-2893.216 2427.357)"/>
    <path id="Path_7009" data-name="Path 7009" class="cls-9" d="M71.862,217.125H56.355a8.891,8.891,0,1,1,0-17.783H71.862a8.891,8.891,0,0,1,0,17.783Z" transform="translate(-2880.464 2427.357)"/>
    <path id="Path_7010" data-name="Path 7010" class="cls-9" d="M414.42,125.214a8.892,8.892,0,0,1-4.447-16.6l13.455-7.753a8.891,8.891,0,1,1,8.878,15.407l-13.455,7.753A8.841,8.841,0,0,1,414.42,125.214Z" transform="translate(-2892.397 2430.678)"/>
    <path id="Path_7011" data-name="Path 7011" class="cls-9" d="M83.074,316.524a8.892,8.892,0,0,1-4.452-16.593l13.432-7.753a8.891,8.891,0,1,1,8.89,15.4l-13.432,7.753A8.858,8.858,0,0,1,83.074,316.524Z" transform="translate(-2881.354 2424.302)"/>
    <path id="Path_7012" data-name="Path 7012" class="cls-9" d="M347.324,57.936a8.895,8.895,0,0,1-7.691-13.34L347.4,31.153a8.892,8.892,0,0,1,15.4,8.894l-7.765,13.443A8.888,8.888,0,0,1,347.324,57.936Z" transform="translate(-2890.162 2433.11)"/>
    <path id="Path_7013" data-name="Path 7013" class="cls-9" d="M255.7,33.312a8.891,8.891,0,0,1-8.891-8.891V8.891a8.891,8.891,0,0,1,17.783,0v15.53A8.891,8.891,0,0,1,255.7,33.312Z" transform="translate(-2887.108 2434)"/>
    <path id="Path_7014" data-name="Path 7014" class="cls-9" d="M163.794,57.936a8.884,8.884,0,0,1-7.706-4.446l-7.765-13.444a8.892,8.892,0,0,1,15.4-8.894L171.487,44.6a8.895,8.895,0,0,1-7.693,13.34Z" transform="translate(-2883.786 2433.11)"/>
    <path id="Path_7015" data-name="Path 7015" class="cls-9" d="M96.5,125.214a8.85,8.85,0,0,1-4.434-1.19l-13.444-7.753a8.891,8.891,0,0,1,8.885-15.4l13.444,7.753A8.892,8.892,0,0,1,96.5,125.214Z" transform="translate(-2881.354 2430.678)"/>
    <path id="Path_7016" data-name="Path 7016" class="cls-9" d="M427.86,316.524a8.844,8.844,0,0,1-4.437-1.193l-13.432-7.753a8.891,8.891,0,1,1,8.89-15.4l13.432,7.753a8.893,8.893,0,0,1-4.453,16.594Z" transform="translate(-2892.398 2424.302)"/>
    <path id="Path_7017" data-name="Path 7017" class="cls-9" d="M356.695,93.951A149.774,149.774,0,0,0,248.632,50.541C165.567,51.708,98.884,120.276,99.984,203.389A150.184,150.184,0,0,0,142.476,306.3c20.927,21.594,32.452,49.532,32.452,78.672v20.356a65.906,65.906,0,0,0,43.9,62.039v4.046a25.232,25.232,0,0,0,25.2,25.2h13.537a25.232,25.232,0,0,0,25.2-25.2v-4.047a65.906,65.906,0,0,0,43.9-62.038V384.975a110.732,110.732,0,0,1,6.513-37.4,114.592,114.592,0,0,1,25.832-41.161,150.824,150.824,0,0,0-2.318-212.464ZM192.712,405.328V393.864H308.888v11.465c0,.6-.024,1.193-.045,1.786H192.757C192.736,406.522,192.712,405.929,192.712,405.328Zm66.98-185.846a97.027,97.027,0,0,0,17.189-3.158V376.082H259.691Zm-24.5-28.593a42.159,42.159,0,0,0,31.212,0L272,199.234a79.6,79.6,0,0,1-42.4,0Zm10.3-15.367,5.3-7.91,5.3,7.91a24.542,24.542,0,0,1-10.608,0Zm-20.777,40.8a97.1,97.1,0,0,0,17.189,3.158v156.6H224.719Zm40.272,255.09a7.43,7.43,0,0,1-7.421,7.421H244.033a7.43,7.43,0,0,1-7.421-7.421v-.426c1.365.084,2.735.142,4.121.142H260.87c1.386,0,2.759-.058,4.124-.142v.426Zm-4.124-18.066H240.731A48.081,48.081,0,0,1,196.9,424.9H304.7A48.076,48.076,0,0,1,260.868,453.35Zm85.39-159.325A130.449,130.449,0,0,0,309.2,376.084H294.662V203.807a8.882,8.882,0,0,0-1.507-4.951L258.183,146.7a8.891,8.891,0,0,0-14.769,0l-34.971,52.161a8.9,8.9,0,0,0-1.507,4.951V376.083H192.4c-2.121-30.533-15.12-59.424-37.151-82.156A133.19,133.19,0,0,1,248.883,68.321c.644-.01,1.287-.013,1.931-.013a133.04,133.04,0,0,1,95.444,225.716Z" transform="translate(-2882.214 2437.38)"/>
  </g>
</svg>
