<svg id="Group_2952" data-name="Group 2952" xmlns="http://www.w3.org/2000/svg" viewBox="-9974 164 967.611 1166.508">
  <defs>
    <style>
      .cls-1 {
        fill: #828689;
      }

      .cls-2 {
        fill: #d1d3d3;
      }

      .cls-3 {
        fill: #1b1b1b;
      }

      .cls-4 {
        fill: #fae1b2;
      }

      .cls-5 {
        fill: #0064b5;
      }

      .cls-6 {
        fill: #0071ce;
      }

      .cls-7 {
        fill: #ffb61e;
      }

      .cls-8 {
        fill: #fff;
      }
    </style>
  </defs>
  <path id="Path_6998" data-name="Path 6998" class="cls-1" d="M342.92,474.891V500.5a39.148,39.148,0,0,1-39.15,39.15H271.278a39.148,39.148,0,0,1-39.15-39.15V474.891a137.322,137.322,0,0,0,31.211,3.584h48.34A137.9,137.9,0,0,0,342.92,474.891Z" transform="translate(-9777.705 790.861)"/>
  <path id="Path_6999" data-name="Path 6999" class="cls-2" d="M187.76,428.608H504.424A136.393,136.393,0,0,1,370.248,539.567h-48.34A136.393,136.393,0,0,1,187.76,428.608Z" transform="translate(-9836.271 729.767)"/>
  <path id="Path_7000" data-name="Path 7000" class="cls-2" d="M508.219,396.5v48.85a136.1,136.1,0,0,1-2.417,25.634H189.135a135.9,135.9,0,0,1-2.417-25.634V396.5h321.5Z" transform="translate(-9837.647 687.388)"/>
  <path id="Path_7001" data-name="Path 7001" class="cls-3" d="M281.357,155.133l44.556,66.461a79.923,79.923,0,0,1-89.112,0Z" transform="translate(-9771.536 368.778)"/>
  <path id="Path_7002" data-name="Path 7002" class="cls-4" d="M348.315,183.78,387.692,242.5h-.028a211.55,211.55,0,0,1-167.835,0l39.378-58.724a79.915,79.915,0,0,0,89.107,0Z" transform="translate(-9793.938 406.591)"/>
  <g id="Group_2782" data-name="Group 2782" transform="translate(-9574.111 649.096)">
    <path id="Path_7003" data-name="Path 7003" class="cls-5" d="M339.937,209.092V643.886H256.006V226.448a211.249,211.249,0,0,0,83.9-17.356Z" transform="translate(-172.075 -209.092)"/>
    <path id="Path_7004" data-name="Path 7004" class="cls-6" d="M303.76,226.476v417.41H219.829V209.092a211.326,211.326,0,0,0,83.931,17.356Z" transform="translate(-219.829 -209.092)"/>
  </g>
  <path id="Path_7005" data-name="Path 7005" class="cls-7" d="M790.492,400.375a339.581,339.581,0,0,1-96.25,237.284c-53.061,54.627-83.648,127.234-83.648,203.4H533.776V406.266L494.4,347.541,449.842,281.08l-44.556,66.461-39.378,58.724V841.059H289.091c0-76.307-30.812-148.859-83.9-203.655a339.437,339.437,0,0,1-96-232.419C106.717,217.86,257.822,62.4,444.919,59.756,635.318,57.081,790.492,210.6,790.492,400.375Z" transform="translate(-9940.021 242.832)"/>
  <g id="Group_2783" data-name="Group 2783" transform="translate(-9515.442 352.335)">
    <path id="Path_7006" data-name="Path 7006" class="cls-8" d="M495.582,387.509a21.339,21.339,0,0,1-21.34-21.339c0-110.217-74.048-208.365-180.075-238.676A21.34,21.34,0,0,1,305.9,86.458C430.144,121.979,516.919,237,516.919,366.165A21.337,21.337,0,0,1,495.582,387.509Z" transform="translate(-200.798 -75.3)"/>
    <path id="Path_7007" data-name="Path 7007" class="cls-8" d="M285.191,124.267c-.376,0-.754-.009-1.132-.028-4.828-.253-9.568-.364-14.094-.369-1.016,0-2.033,0-3.046.023a21.338,21.338,0,1,1-.928-42.665c6.6-.141,13.338.028,20.3.394a21.337,21.337,0,0,1-1.1,42.644Z" transform="translate(-245.117 -81.179)"/>
  </g>
  <path id="Union_22" data-name="Union 22" class="cls-7" d="M64.828,725.708a21.34,21.34,0,0,1,7.814-29.148l32.237-18.607a21.339,21.339,0,1,1,21.335,36.962L93.977,733.522a21.33,21.33,0,0,1-29.149-7.814Zm808.834,7.811-32.236-18.607a21.339,21.339,0,1,1,21.335-36.963L895,696.556a21.339,21.339,0,1,1-21.335,36.963Zm35.367-228.363a21.339,21.339,0,0,1,0-42.679h37.244a21.339,21.339,0,0,1,0,42.679Zm-887.689,0a21.339,21.339,0,1,1,0-42.679H58.555a21.339,21.339,0,1,1,0,42.679Zm812.21-223.3a21.338,21.338,0,0,1,7.834-29.142L873.676,234.1a21.338,21.338,0,0,1,21.307,36.977l-32.292,18.607a21.327,21.327,0,0,1-29.142-7.835Zm-728.638,7.833L72.647,271.077A21.339,21.339,0,0,1,93.97,234.108l32.265,18.607a21.339,21.339,0,1,1-21.324,36.969ZM252.727,126.241,234.09,93.976A21.34,21.34,0,0,1,271.048,72.63L289.685,104.9a21.34,21.34,0,1,1-36.958,21.346Zm433.012,7.8a21.34,21.34,0,0,1-7.807-29.151l18.636-32.265a21.34,21.34,0,0,1,36.958,21.347L714.89,126.24a21.329,21.329,0,0,1-29.151,7.8ZM462.482,58.608V21.34a21.339,21.339,0,1,1,42.679,0V58.611a21.339,21.339,0,0,1-42.679,0Z" transform="translate(-9974 164)"/>
</svg>
