<svg id="Group_2821" data-name="Group 2821" xmlns="http://www.w3.org/2000/svg" viewBox="-801.107 2287 634.515 374.618">
  <defs>
    <style>
      .cls-1 {
        fill: #828689;
      }

      .cls-2 {
        fill: #ebc9a0;
      }

      .cls-3 {
        fill: #333e48;
      }

      .cls-4 {
        fill: #ff5959;
      }

      .cls-5 {
        fill: #ffb61e;
      }

      .cls-6 {
        fill: #0071ce;
      }

      .cls-7 {
        fill: #59ff73;
      }

      .cls-8 {
        fill: #d1d3d3;
      }

      .cls-9 {
        fill: #00569c;
      }

      .cls-10 {
        fill: #1e252b;
      }
    </style>
  </defs>
  <rect id="Rectangle_468" data-name="Rectangle 468" class="cls-1" width="63.584" height="32.665" transform="translate(-685.2 2425.313)"/>
  <path id="Path_7190" data-name="Path 7190" class="cls-2" d="M612.064,271.561H18.614c-5.852,0-10.6-3.657-10.6-8.166V247.063c0-4.509,4.745-8.166,10.6-8.166h593.45c5.852,0,10.6,3.656,10.6,8.166v16.332C622.661,267.9,617.917,271.561,612.064,271.561Z" transform="translate(-799.189 2219.08)"/>
  <path id="Path_7191" data-name="Path 7191" class="cls-3" d="M258.26,165.866H25.119V84.2c0-9.021,9.488-16.332,21.194-16.332H237.065c11.706,0,21.194,7.311,21.194,16.332Z" transform="translate(-795.097 2226.782)"/>
  <rect id="Rectangle_469" data-name="Rectangle 469" class="cls-4" width="169.557" height="32.665" transform="translate(-494.448 2425.313)"/>
  <rect id="Rectangle_470" data-name="Rectangle 470" class="cls-5" width="127.168" height="32.665" transform="translate(-473.253 2392.648)"/>
  <rect id="Rectangle_471" data-name="Rectangle 471" class="cls-6" width="148.362" height="32.665" transform="translate(-494.448 2359.984)"/>
  <rect id="Rectangle_472" data-name="Rectangle 472" class="cls-7" width="105.973" height="32.665" transform="translate(-473.253 2327.32)"/>
  <ellipse id="Ellipse_280" data-name="Ellipse 280" class="cls-6" cx="42.921" cy="33.074" rx="42.921" ry="33.074" transform="translate(-271.906 2334.668)"/>
  <path id="Path_7192" data-name="Path 7192" class="cls-8" d="M258.26,186.819V170.487H25.119v16.332c0,9.02,9.49,16.332,21.194,16.332H237.065C248.771,203.151,258.26,195.839,258.26,186.819Z" transform="translate(-795.097 2222.161)"/>
  <path id="Path_7193" data-name="Path 7193" class="cls-9" d="M493.31,158.032c-23.705,0-42.922-14.808-42.922-33.074a26.519,26.519,0,0,1,3.25-12.566c-15.609,4.95-26.615,16.758-26.615,30.571,0,18.267,19.217,33.074,42.922,33.074,17.925,0,33.249-8.48,39.672-20.508A53.944,53.944,0,0,1,493.31,158.032Z" transform="translate(-698.927 2224.777)"/>
  <path id="Path_7194" data-name="Path 7194" class="cls-10" d="M613.982,223.177H582.061V204.952c18.707-1.686,36.025-8.1,49.544-18.522,3.88-2.99,3.88-7.837,0-10.826a12.124,12.124,0,0,0-14.05,0c-12.135,9.351-28.268,14.5-45.43,14.5s-33.295-5.15-45.429-14.5S507.878,153.82,507.878,140.6s6.683-25.656,18.819-35.007c3.88-2.99,3.88-7.837,0-10.826a12.124,12.124,0,0,0-14.05,0C496.759,107,488.01,123.282,488.01,140.6s8.749,33.591,24.637,45.833c13.519,10.419,30.837,16.835,49.544,18.522v18.226h-76.04V198.167c0-4.228-4.448-7.656-9.935-7.656h-11.26V132.838c0-4.228-4.448-7.656-9.935-7.656H443.76V100.174c0-4.228-4.448-7.656-9.935-7.656H327.851c-5.486,0-9.935,3.427-9.935,7.656v25.009h-11.26c-5.486,0-9.935,3.427-9.935,7.656V165.5c0,4.228,4.448,7.656,9.935,7.656h11.26v17.353h-11.26c-5.486,0-9.935,3.427-9.935,7.656v25.009h-107.3V205.823h53.649c17.165,0,31.13-10.761,31.13-23.988V83.845c0-13.227-13.964-23.988-31.13-23.988H52.324c-17.165,0-31.13,10.761-31.13,23.988v97.993c0,13.227,13.964,23.988,31.13,23.988h53.649v17.353H20.532C9.21,223.178,0,230.275,0,239v16.332c0,8.724,9.21,15.822,20.532,15.822H61.4L21.388,425.317c-1.076,4.146,2.414,8.179,7.794,9.008a12.883,12.883,0,0,0,1.959.15c4.639,0,8.787-2.516,9.732-6.157L81.665,271.152H552.853l40.792,157.167c.944,3.639,5.093,6.157,9.732,6.157a12.888,12.888,0,0,0,1.959-.15c5.381-.83,8.87-4.863,7.794-9.008L573.118,271.153h40.864c11.322,0,20.533-7.1,20.533-15.822V239C634.515,230.274,625.3,223.177,613.982,223.177ZM337.79,107.832h86.1v17.353h-86.1ZM316.6,140.5H445.09v17.353H316.6V140.5Zm21.194,32.665h107.3v17.353H337.79ZM316.6,205.824H466.284v17.353H316.6ZM52.324,75.168H243.076c6.209,0,11.26,3.892,11.26,8.677V157.85H41.065V83.844C41.065,79.06,46.115,75.168,52.324,75.168ZM41.065,181.837V173.16H254.336v8.677c0,4.784-5.051,8.677-11.26,8.677H52.324C46.115,190.513,41.065,186.621,41.065,181.837Zm84.778,23.988h43.713v17.353H125.843Zm488.8,49.507a.6.6,0,0,1-.662.51H20.532a.6.6,0,0,1-.662-.51V239a.6.6,0,0,1,.662-.51h593.45a.6.6,0,0,1,.662.51v16.332Z" transform="translate(-801.107 2227.143)"/>
  <path id="Path_7195" data-name="Path 7195" class="cls-10" d="M471.76,182.822c28.852,0,52.324-18.088,52.324-40.32s-23.473-40.32-52.324-40.32-52.324,18.088-52.324,40.32S442.909,182.822,471.76,182.822Zm0-65.328c17.9,0,32.455,11.219,32.455,25.009s-14.559,25.009-32.455,25.009-32.454-11.219-32.454-25.009S453.866,117.494,471.76,117.494Z" transform="translate(-700.742 2225.237)"/>
</svg>
