<svg id="Group_2754" data-name="Group 2754" xmlns="http://www.w3.org/2000/svg" viewBox="4055 2515 339 419">
  <defs>
    <style>
      .cls-1 {
        fill: #9aa5b2;
      }

      .cls-2 {
        fill: #778593;
      }

      .cls-3, .cls-8 {
        fill: #1e252b;
      }

      .cls-4 {
        fill: #ffd3ae;
      }

      .cls-5 {
        fill: #fff;
      }

      .cls-6 {
        fill: #333;
      }

      .cls-6, .cls-8 {
        opacity: 0.44;
      }

      .cls-7 {
        fill: #616c75;
      }
    </style>
  </defs>
  <path id="Path_4341" data-name="Path 4341" class="cls-1" d="M258.855,241.97c.19.05.39.09.58.14a88.543,88.543,0,0,1,67.58,86V413H91.985V328.11a88.526,88.526,0,0,1,67.57-86c.19-.05.39-.09.58-.14" transform="translate(4015 2515)"/>
  <path id="Path_4342" data-name="Path 4342" class="cls-1" d="M139.015,289V413H91.985V328.11a88.382,88.382,0,0,1,38.74-73.19A73.695,73.695,0,0,1,139.015,289Z" transform="translate(4015 2515)"/>
  <path id="Path_4343" data-name="Path 4343" class="cls-2" d="M259.435,221.54v13.808a49.94,49.94,0,0,1-99.88,0V221.54c.19-.05.39-.09.58-.14a88.567,88.567,0,0,0,98.72,0C259.045,221.45,259.245,221.49,259.435,221.54Z" transform="translate(4015 2515)"/>
  <path id="Path_4344" data-name="Path 4344" class="cls-1" d="M327.015,328.11V413h-47.04V289a73.694,73.694,0,0,1,8.29-34.08A88.391,88.391,0,0,1,327.015,328.11Z" transform="translate(4015 2515)"/>
  <path id="Path_4345" data-name="Path 4345" class="cls-3" d="M209.495,291.288a56,56,0,0,1-55.94-55.94V221h12v14.348a43.94,43.94,0,1,0,87.88,0V221h12v14.348A56,56,0,0,1,209.495,291.288Z" transform="translate(4015 2515)"/>
  <path id="Path_4346" data-name="Path 4346" class="cls-4" d="M298,94.5v74a88.468,88.468,0,0,1-38.56,73.07c-.19.14-.4.27-.58.4a88.567,88.567,0,0,1-98.72,0c-.2-.13-.4-.26-.58-.4A88.468,88.468,0,0,1,121,168.5v-74A88.494,88.494,0,0,1,209.49,6h.01A88.5,88.5,0,0,1,298,94.5Z" transform="translate(4015 2515)"/>
  <path id="Path_4347" data-name="Path 4347" class="cls-3" d="M177.885,166.437a6,6,0,1,1,1.17-11.88,5.932,5.932,0,0,1,2.16.89,5.5,5.5,0,0,1,.91.75,5.95,5.95,0,0,1,.75.91,6.093,6.093,0,0,1,.55,1.04,5.56,5.56,0,0,1,.34,1.12,5.809,5.809,0,0,1,.12,1.17,5.906,5.906,0,0,1-.12,1.18,5.561,5.561,0,0,1-.34,1.12,5.654,5.654,0,0,1-.55,1.03,5.952,5.952,0,0,1-4.99,2.67Z" transform="translate(4015 2515)"/>
  <path id="Path_4348" data-name="Path 4348" class="cls-3" d="M245.885,166.437a6.53,6.53,0,0,1-1.17-.11,6.319,6.319,0,0,1-1.12-.35,5.74,5.74,0,0,1-1.04-.55,5.791,5.791,0,0,1-1.66-1.66,5.655,5.655,0,0,1-.55-1.03,5.56,5.56,0,0,1-.34-1.12,5.906,5.906,0,0,1-.12-1.18,5.809,5.809,0,0,1,.12-1.17,5.561,5.561,0,0,1,.34-1.12,6.091,6.091,0,0,1,.55-1.04,5.95,5.95,0,0,1,.75-.91,5.5,5.5,0,0,1,.91-.75,6.445,6.445,0,0,1,1.04-.55,6.288,6.288,0,0,1,1.12-.34,6.059,6.059,0,0,1,5.41,1.64,5.95,5.95,0,0,1,.75.91,6.093,6.093,0,0,1,.55,1.04,5.56,5.56,0,0,1,.34,1.12,5.809,5.809,0,0,1,.12,1.17,5.906,5.906,0,0,1-.12,1.18,5.561,5.561,0,0,1-.34,1.12,5.654,5.654,0,0,1-.55,1.03,5.952,5.952,0,0,1-4.99,2.67Z" transform="translate(4015 2515)"/>
  <path id="Path_4350" data-name="Path 4350" class="cls-5" d="M307.015,399a6,6,0,0,1-6-6V339a6,6,0,0,1,12,0v54A6,6,0,0,1,307.015,399Z" transform="translate(4015 2515)"/>
  <path id="Path_4351" data-name="Path 4351" class="cls-5" d="M307.015,326a6,6,0,0,1-6-6v-8a6,6,0,0,1,12,0v8A6,6,0,0,1,307.015,326Z" transform="translate(4015 2515)"/>
  <g id="Group_1689" data-name="Group 1689" transform="translate(4015 2515)">
    <path id="Path_4352" data-name="Path 4352" class="cls-6" d="M135.665,266.92a88.214,88.214,0,0,0-24.56,61.19V411H91.985V328.11a88.382,88.382,0,0,1,38.74-73.19A73.8,73.8,0,0,1,135.665,266.92Z"/>
  </g>
  <path id="Path_4353" data-name="Path 4353" class="cls-3" d="M341,419H78.23a6,6,0,0,1,0-12H341a6,6,0,0,1,0,12Z" transform="translate(4015 2515)"/>
  <path id="Path_4354" data-name="Path 4354" class="cls-3" d="M373,419H362a6,6,0,0,1,0-12h11a6,6,0,0,1,0,12Z" transform="translate(4015 2515)"/>
  <path id="Path_4355" data-name="Path 4355" class="cls-3" d="M57,419H46a6,6,0,0,1,0-12H57a6,6,0,0,1,0,12Z" transform="translate(4015 2515)"/>
  <path id="Path_4356" data-name="Path 4356" class="cls-6" d="M294.267,194H261.488a14.781,14.781,0,0,1-5.319,1h-93.35a14.753,14.753,0,0,1-5.32-1h-1.765a88.461,88.461,0,0,1-3.739-25.5V146q.618,0,1.229-.031c12.136-.615,20.854-10.685,21.338-21.975.132-3.072-7.6-16.472-10.019-20.366A70.79,70.79,0,0,1,165.5,27.4L175.885,11.59c0-2.89-54.89-4.589-54.89,134.411v22.5a88.5,88.5,0,0,0,3.739,25.5h0c.014.048.031.1.045.143a88.667,88.667,0,0,0,34.777,47.427c.19.14.39.27.58.4a88.809,88.809,0,0,0,64.86,13.68,88.2,88.2,0,0,1-33.86-13.68c-.19-.13-.39-.26-.58-.4a88.893,88.893,0,0,1-17.848-16.183,9.741,9.741,0,0,1,5.87-15.879L279,193C282.194,187.358,292.365,200.328,294.267,194Z" transform="translate(4015 2515)"/>
  <path id="Path_4357" data-name="Path 4357" class="cls-1" d="M298,146v22.5a88.391,88.391,0,0,1-3.16,23.5H124.16A88.391,88.391,0,0,1,121,168.5v-74A88.494,88.494,0,0,1,209.49,6h.01A88.5,88.5,0,0,1,298,94.5Zm-27,14.17a14.833,14.833,0,0,0-14.83-14.84H162.82a14.835,14.835,0,0,0,0,29.67h93.35A14.818,14.818,0,0,0,271,160.17Z" transform="translate(4015 2515)"/>
  <path id="Path_4358" data-name="Path 4358" class="cls-6" d="M153,149.06V94.5A88.524,88.524,0,0,1,225.5,7.44,88.826,88.826,0,0,0,209.5,6h-.01A88.494,88.494,0,0,0,121,94.5v74a88.391,88.391,0,0,0,3.16,23.5h32a88.594,88.594,0,0,1-3.12-20.68,14.84,14.84,0,0,1-.71-21.64C152.55,149.47,152.77,149.26,153,149.06Z" transform="translate(4015 2515)"/>
  <path id="Path_4359" data-name="Path 4359" class="cls-3" d="M209.5,263a94.061,94.061,0,0,1-52.71-16.052c-.227-.147-.483-.32-.73-.5A94.365,94.365,0,0,1,115,168.5v-74a94.5,94.5,0,1,1,189,0v74a94.577,94.577,0,0,1-3.374,25.089h0A94.662,94.662,0,0,1,262.9,246.475c-.142.1-.288.2-.433.3l-.106.072-.147.1A94.067,94.067,0,0,1,209.5,263Zm0-251A82.59,82.59,0,0,0,127,94.5v74a82.362,82.362,0,0,0,35.951,68.12c.1.066.192.136.285.208l.163.1c.024.016.068.044.091.061a82.57,82.57,0,0,0,91.959.041c.108-.076.221-.152.334-.229l.116-.079c.056-.041.094-.067.15-.106a82.639,82.639,0,0,0,33.005-46.209s0,0,0,0A82.526,82.526,0,0,0,292,168.5v-74A82.594,82.594,0,0,0,209.5,12Z" transform="translate(4015 2515)"/>
  <path id="Path_4360" data-name="Path 4360" class="cls-5" d="M274.418,73a6,6,0,0,1-5.524-3.653A65.083,65.083,0,0,0,232.82,34.362a6,6,0,1,1,4.352-11.183,77.148,77.148,0,0,1,42.766,41.473,6,6,0,0,1-5.52,8.35Z" transform="translate(4015 2515)"/>
  <path id="Path_4361" data-name="Path 4361" class="cls-5" d="M217.008,30.4a6.044,6.044,0,0,1-.642-.034A65.383,65.383,0,0,0,209.49,30a6,6,0,0,1,0-12,77.3,77.3,0,0,1,8.144.431,6,6,0,0,1-.626,11.966Z" transform="translate(4015 2515)"/>
  <rect id="Rectangle_235" data-name="Rectangle 235" class="cls-3" width="170.68" height="12" transform="translate(4139.16 2701)"/>
  <path id="Path_4362" data-name="Path 4362" class="cls-6" d="M271,160.17a14.806,14.806,0,0,1-14.51,14.82c.01-.11.01-.22.01-.33a14.824,14.824,0,0,0-14.82-14.84H148.33c-.11,0-.22,0-.33.01a14.824,14.824,0,0,1,14.82-14.5h93.35A14.833,14.833,0,0,1,271,160.17Z" transform="translate(4015 2515)"/>
  <rect id="Rectangle_236" data-name="Rectangle 236" class="cls-3" width="170.68" height="12" transform="translate(4139.16 2597)"/>
  <path id="Path_4363" data-name="Path 4363" class="cls-5" d="M275.977,140a5.97,5.97,0,0,1-3.623-1.222,26.554,26.554,0,0,0-16.184-5.448H212a6,6,0,0,1,0-12h44.17a38.461,38.461,0,0,1,23.439,7.89A6,6,0,0,1,275.977,140Z" transform="translate(4015 2515)"/>
  <path id="Path_4364" data-name="Path 4364" class="cls-3" d="M256.17,181H162.82a20.834,20.834,0,0,1,0-41.669h93.35a20.834,20.834,0,1,1,0,41.669Zm-93.35-29.67a8.835,8.835,0,0,0,0,17.67h93.35a8.835,8.835,0,0,0,0-17.67Z" transform="translate(4015 2515)"/>
  <path id="Path_4365" data-name="Path 4365" class="cls-7" d="M279.98,352v61H139.02V352H194l15.5-19,15.49,19h54.99Z" transform="translate(4015 2515)"/>
  <path id="Path_4366" data-name="Path 4366" class="cls-3" d="M285.98,413h-12V289a80.224,80.224,0,0,1,8.956-36.846l10.648,5.533A67.242,67.242,0,0,0,285.98,289Z" transform="translate(4015 2515)"/>
  <path id="Path_4367" data-name="Path 4367" class="cls-5" d="M260.72,302a6,6,0,0,1-6-6,80.224,80.224,0,0,1,8.956-36.846,6,6,0,0,1,10.649,5.533,67.242,67.242,0,0,0-7.6,31.313A6,6,0,0,1,260.72,302Z" transform="translate(4015 2515)"/>
  <path id="Path_4368" data-name="Path 4368" class="cls-3" d="M327.02,419H91.98a6,6,0,0,1-6-6V328.11a94.518,94.518,0,0,1,72.1-91.815c.153-.04.313-.078.476-.116l.132-.031,2.9,11.644-.471.111c-.063.018-.087.023-.15.039a82.513,82.513,0,0,0-62.99,80.167V407H321.02V328.11a82.569,82.569,0,0,0-62.991-80.168l-.114-.029-.078-.018c-.2-.044-.392-.091-.571-.141l3.189-11.568-.055-.015c.213.049.359.083.491.116a94.57,94.57,0,0,1,72.129,91.822V413A6,6,0,0,1,327.02,419Z" transform="translate(4015 2515)"/>
  <path id="Path_4369" data-name="Path 4369" class="cls-3" d="M145.02,413h-12V289a67.248,67.248,0,0,0-7.624-31.313l10.648-5.533A80.233,80.233,0,0,1,145.02,289Z" transform="translate(4015 2515)"/>
  <path id="Path_4370" data-name="Path 4370" class="cls-3" d="M277.99,358h-53a6,6,0,0,1-4.65-2.208l-10.842-13.3-10.849,13.3A6,6,0,0,1,194,358H141V346h50.151l13.7-16.793A6,6,0,0,1,209.5,327h0a6,6,0,0,1,4.649,2.208L227.84,346h50.15Z" transform="translate(4015 2515)"/>
  <path id="Path_4371" data-name="Path 4371" class="cls-3" d="M183,338H156a6,6,0,0,1,0-12h27a6,6,0,0,1,0,12Z" transform="translate(4015 2515)"/>
  <path id="Path_4372" data-name="Path 4372" class="cls-3" d="M183,322H156a6,6,0,0,1,0-12h27a6,6,0,0,1,0,12Z" transform="translate(4015 2515)"/>
  <path id="Path_4373" data-name="Path 4373" class="cls-3" d="M263,338H236a6,6,0,0,1,0-12h27a6,6,0,0,1,0,12Z" transform="translate(4015 2515)"/>
  <path id="Path_4374" data-name="Path 4374" class="cls-3" d="M263,322H236a6,6,0,0,1,0-12h27a6,6,0,0,1,0,12Z" transform="translate(4015 2515)"/>
  <path id="Path_4375" data-name="Path 4375" class="cls-3" d="M255,381H164a6,6,0,0,1,0-12h91a6,6,0,0,1,0,12Z" transform="translate(4015 2515)"/>
  <path id="Path_4376" data-name="Path 4376" class="cls-3" d="M255,401H164a6,6,0,0,1,0-12h91a6,6,0,0,1,0,12Z" transform="translate(4015 2515)"/>
  <rect id="Rectangle_237" data-name="Rectangle 237" class="cls-1" width="16" height="52" transform="translate(4313 2639)"/>
  <rect id="Rectangle_238" data-name="Rectangle 238" class="cls-1" width="16" height="52" transform="translate(4120 2639)"/>
  <path id="Path_4377" data-name="Path 4377" class="cls-3" d="M314,182H298a6,6,0,0,1-6-6V124a6,6,0,0,1,6-6h16a6,6,0,0,1,6,6v52A6,6,0,0,1,314,182Zm-10-12h4V130h-4Z" transform="translate(4015 2515)"/>
  <path id="Path_4378" data-name="Path 4378" class="cls-3" d="M121,182H105a6,6,0,0,1-6-6V124a6,6,0,0,1,6-6h16a6,6,0,0,1,6,6v52A6,6,0,0,1,121,182Zm-10-12h4V130h-4Z" transform="translate(4015 2515)"/>
  <rect id="Rectangle_239" data-name="Rectangle 239" class="cls-8" width="16" height="52" transform="translate(4120 2639)"/>
  <circle id="Ellipse_258" data-name="Ellipse 258" class="cls-3" cx="10" cy="10" r="10" transform="translate(4214 2723)"/>
</svg>
