<svg xmlns="http://www.w3.org/2000/svg" viewBox="1740 910 125.894 130.999">
  <defs>
    <style>
      .cls-1 {
        fill: #e1e1e1;
      }

      .cls-2 {
        fill: #b1adb2;
      }

      .cls-3 {
        fill: #989da0;
      }

      .cls-4 {
        fill: #706d6c;
      }

      .cls-5 {
        fill: #f2d422;
      }

      .cls-6 {
        fill: #f7e82f;
      }

      .cls-7 {
        fill: #eaa815;
      }

      .cls-8 {
        fill: #f99c21;
      }

      .cls-9 {
        fill: #ea6f13;
      }

      .cls-10 {
        fill: #1e252b;
      }
    </style>
  </defs>
  <g id="light-bulb" transform="translate(1730.024 910)">
    <path id="Path_564" data-name="Path 564" class="cls-1" d="M223.459,465.737v5.887a4.032,4.032,0,0,0,4.032,4.031h8.062a4.031,4.031,0,0,0,4.032-4.031v-5.887Z" transform="translate(-158.862 -346.574)"/>
    <path id="Path_565" data-name="Path 565" class="cls-2" d="M228.6,471.625v-5.887h-5.137v5.887a4.032,4.032,0,0,0,4.032,4.031h5.137A4.032,4.032,0,0,1,228.6,471.625Z" transform="translate(-158.862 -346.575)"/>
    <path id="Path_566" data-name="Path 566" class="cls-3" d="M202.016,428.091V434.2a4.031,4.031,0,0,0,4.031,4.032h19.036a4.032,4.032,0,0,0,4.032-4.032v-6.112Z" transform="translate(-142.905 -318.561)"/>
    <path id="Path_567" data-name="Path 567" class="cls-4" d="M207.153,434.2V428.09h-5.137V434.2a4.031,4.031,0,0,0,4.031,4.032h5.137A4.031,4.031,0,0,1,207.153,434.2Z" transform="translate(-142.905 -318.56)"/>
    <path id="Path_568" data-name="Path 568" class="cls-5" d="M177.827,130.017a40.424,40.424,0,1,0-58.228,36.3v6.364a4.031,4.031,0,0,0,4.031,4.032h27.547a4.031,4.031,0,0,0,4.031-4.032v-6.364A40.423,40.423,0,0,0,177.827,130.017Z" transform="translate(-64.743 -66.67)"/>
    <path id="Path_569" data-name="Path 569" class="cls-6" d="M191.457,90a40.43,40.43,0,0,0,32.273,70.58A40.42,40.42,0,0,0,191.457,90Z" transform="translate(-124.64 -66.653)"/>
    <path id="Path_570" data-name="Path 570" class="cls-7" d="M124.734,183.016v-8.175a2.323,2.323,0,0,0-1.065-2.059l0,0c-27.644-14.62-28.925-53.727-2.359-70.155a40.436,40.436,0,0,0-1.711,73.39v6.364a4.031,4.031,0,0,0,4.031,4.032h2.963A4.026,4.026,0,0,1,124.734,183.016Z" transform="translate(-64.741 -76.365)"/>
    <path id="Path_571" data-name="Path 571" class="cls-8" d="M242.82,273.751h-.448a4.137,4.137,0,0,0-4.031,4.235v35.765h8.511V277.986A4.138,4.138,0,0,0,242.82,273.751Z" transform="translate(-169.936 -203.71)"/>
    <path id="Path_572" data-name="Path 572" class="cls-9" d="M244.723,274.25a4.233,4.233,0,0,0-2.352-.5,4.137,4.137,0,0,0-4.031,4.235v35.765H242.6V277.984A4.268,4.268,0,0,1,244.723,274.25Z" transform="translate(-169.935 -203.707)"/>
    <g id="Group_142" data-name="Group 142" transform="translate(9.976)">
      <path id="Path_573" data-name="Path 573" class="cls-10" d="M175.072,124.436a42.391,42.391,0,0,0-42.343-42.343c-33.37,0-53.579,37-35.758,65.029a42.463,42.463,0,0,0,16.035,14.789V167.1a5.96,5.96,0,0,0,4.255,5.7v3.929a5.957,5.957,0,0,0,5.486,5.931v3.476a5.957,5.957,0,0,0,5.95,5.95h8.062a5.957,5.957,0,0,0,5.95-5.95v-3.476a5.957,5.957,0,0,0,5.487-5.931V172.8a5.96,5.96,0,0,0,4.255-5.7v-5.188A42.338,42.338,0,0,0,175.072,124.436Zm-36.2,61.7a2.114,2.114,0,0,1-2.113,2.112H128.7a2.115,2.115,0,0,1-2.113-2.112v-3.456h12.287v3.456Zm5.487-9.407a2.115,2.115,0,0,1-2.113,2.113H123.211a2.114,2.114,0,0,1-2.112-2.113V173.05h23.261v3.682Zm4.328-17.719a1.919,1.919,0,0,0-1.073,1.722V167.1c0,1.062.231,1.113-1.337,1.113H138.9v-23.52c0-1.06-3.838-1.06-3.838,0v23.52h-4.673V137.091a2.114,2.114,0,0,1,2.112-2.112h.448a2.115,2.115,0,0,1,2.113,2.112v8.624c0,1.06,3.838,1.06,3.838,0,0-9.459.115-9.409-.386-10.736h4.513a1.919,1.919,0,0,0,0-3.838h-20.6a1.919,1.919,0,1,0,0,3.838h4.517c-.542,1.423-.389-1.733-.389,33.233h-7.6c-1.164,0-1.112.053-1.112-1.113v-6.364a1.919,1.919,0,0,0-1.073-1.722,38.283,38.283,0,0,1-21.547-34.577c0-21.232,16.273-37.5,37.5-37.5s37.5,16.273,37.5,37.5A38.286,38.286,0,0,1,148.687,159.013Z" transform="translate(-69.782 -61.089)"/>
      <path id="Path_574" data-name="Path 574" class="cls-10" d="M22.645,238.522H11.895a1.919,1.919,0,1,0,0,3.838h10.75a1.919,1.919,0,1,0,0-3.838Z" transform="translate(-9.976 -177.494)"/>
      <path id="Path_575" data-name="Path 575" class="cls-10" d="M457.676,238.522h-10.75a1.919,1.919,0,0,0,0,3.838h10.75a1.919,1.919,0,0,0,0-3.838Z" transform="translate(-333.701 -177.494)"/>
      <path id="Path_576" data-name="Path 576" class="cls-10" d="M88,378.038l-7.6,7.6a1.919,1.919,0,0,0,2.714,2.714l7.6-7.6A1.919,1.919,0,0,0,88,378.038Z" transform="translate(-61.962 -280.896)"/>
      <path id="Path_577" data-name="Path 577" class="cls-10" d="M389.368,81.3a1.913,1.913,0,0,0,1.357-.562l7.6-7.6a1.919,1.919,0,1,0-2.714-2.714l-7.6,7.6a1.919,1.919,0,0,0,1.357,3.276Z" transform="translate(-290.87 -51.988)"/>
      <path id="Path_578" data-name="Path 578" class="cls-10" d="M390.728,378.038a1.919,1.919,0,0,0-2.714,2.714c8.253,8.252,7.9,8.163,8.958,8.163a1.921,1.921,0,0,0,1.357-3.276Z" transform="translate(-290.872 -280.896)"/>
      <path id="Path_579" data-name="Path 579" class="cls-10" d="M89.357,81.3a1.919,1.919,0,0,0,1.357-3.276l-7.6-7.6A1.919,1.919,0,0,0,80.4,73.138C88.716,81.456,88.3,81.3,89.357,81.3Z" transform="translate(-61.962 -51.987)"/>
      <path id="Path_580" data-name="Path 580" class="cls-10" d="M250.419,14.588a1.919,1.919,0,0,0,1.919-1.919V1.919a1.919,1.919,0,1,0-3.838,0v10.75A1.919,1.919,0,0,0,250.419,14.588Z" transform="translate(-187.472)"/>
    </g>
  </g>
</svg>
