<svg id="Group_2809" data-name="Group 2809" xmlns="http://www.w3.org/2000/svg" viewBox="-5453 1676 416.293 511.999">
  <defs>
    <style>
      .cls-1 {
        fill: #0071ce;
      }

      .cls-2 {
        fill: #ff5959;
      }

      .cls-3 {
        fill: #d0d2d2;
      }

      .cls-4 {
        fill: #ffb61e;
      }

      .cls-5 {
        fill: #828689;
      }

      .cls-6 {
        fill: #1e252b;
      }
    </style>
  </defs>
  <path id="Path_7146" data-name="Path 7146" class="cls-1" d="M256,69.475A18.109,18.109,0,1,1,237.9,87.584,18.115,18.115,0,0,1,256,69.475Z" transform="translate(-5500.853 1676)"/>
  <path id="Path_7147" data-name="Path 7147" class="cls-2" d="M283.115,35.8a42.514,42.514,0,0,1-27.123,9.715,42.564,42.564,0,0,1-27.111-9.7l-.011-.011A96.347,96.347,0,0,1,256,8.618,96.124,96.124,0,0,1,283.115,35.8Z" transform="translate(-5500.853 1676)"/>
  <path id="Union_12" data-name="Union 12" class="cls-3" d="M138.384,411.266H0V179.557H136.958v70.6a38.683,38.683,0,0,0-65.812,26.64,30,30,0,1,0,12.222,53.383,30,30,0,0,0,49.163.425,30.015,30.015,0,0,0,34.816-2.242c.643.529,1.31,1.035,2,1.507a30.016,30.016,0,0,0,32.8.734,30,30,0,0,0,49.163-.425,30.007,30.007,0,1,0,18.075-53.958,29.494,29.494,0,0,0-5.841.575,38.683,38.683,0,0,0-65.812-26.64v-70.6H334.692V411.265H196.308a28.958,28.958,0,0,0-28.962,28.962A28.957,28.957,0,0,0,138.384,411.266ZM124.437,52.647A95.248,95.248,0,0,1,140.212,0l.011.011a42.565,42.565,0,0,0,27.111,9.7A42.5,42.5,0,0,0,194.457,0a95.7,95.7,0,0,1-27.111,132.463A95.606,95.606,0,0,1,124.437,52.647Zm24.8-.862a18.109,18.109,0,1,0,18.109-18.109A18.114,18.114,0,0,0,149.236,51.785Z" transform="translate(-5412.195 1711.797)"/>
  <path id="Path_7149" data-name="Path 7149" class="cls-2" d="M213.1,88.445A95.607,95.607,0,0,0,256,168.261s-53.67-4.806-77.815,19.339C178.189,116.89,213.1,88.445,213.1,88.445Z" transform="translate(-5500.853 1676)"/>
  <path id="Path_7150" data-name="Path 7150" class="cls-2" d="M298.9,88.445s34.906,28.445,34.906,99.154C309.674,163.454,256,168.26,256,168.26A95.619,95.619,0,0,0,298.9,88.445Z" transform="translate(-5500.853 1676)"/>
  <path id="Path_7151" data-name="Path 7151" class="cls-4" d="M455.52,253.975v249.4H256V476.026H423.35V253.975Z" transform="translate(-5500.853 1676)"/>
  <path id="Path_7152" data-name="Path 7152" class="cls-4" d="M256,476.026v27.353H56.476v-249.4H88.658V476.026Z" transform="translate(-5500.853 1676)"/>
  <g id="Group_2808" data-name="Group 2808" transform="translate(-5500.853 1676)">
    <path id="Path_7153" data-name="Path 7153" class="cls-5" d="M423.35,447.064v28.962H256a28.957,28.957,0,0,1,28.962-28.962Z"/>
    <path id="Path_7154" data-name="Path 7154" class="cls-5" d="M227.042,447.064A28.958,28.958,0,0,1,256,476.026H88.658V447.064Z"/>
  </g>
  <path id="Path_7157" data-name="Path 7157" class="cls-1" d="M286.392,285.95A38.683,38.683,0,0,1,352.2,312.59a29.631,29.631,0,0,1,5.841-.575,30,30,0,1,1-18.074,53.957,30,30,0,0,1-49.163.425,30.014,30.014,0,0,1-32.8-.735c-.69-.471-1.357-.977-2-1.506A30.013,30.013,0,0,1,221.19,366.4a30,30,0,0,1-49.163-.425A30,30,0,1,1,159.8,312.591a38.684,38.684,0,0,1,65.812-26.64V197.04h60.776v88.91Z" transform="translate(-5500.853 1676)"/>
  <path id="Union_11" data-name="Union 11" class="cls-6" d="M8.623,512A8.623,8.623,0,0,1,0,503.375V253.968a8.623,8.623,0,0,1,8.623-8.623H32.178V215.355a8.623,8.623,0,0,1,8.623-8.623H169.132v-9.689a8.623,8.623,0,0,1,17.247,0V315.461a8.623,8.623,0,0,1-17.247,0V289.834a29.839,29.839,0,0,0-18.5-6.385,30.255,30.255,0,0,0-30.061,29.344,8.624,8.624,0,0,1-10.292,8.252,21.645,21.645,0,0,0-4.174-.409,21.383,21.383,0,1,0,0,42.765,21.176,21.176,0,0,0,12.874-4.312,8.624,8.624,0,0,1,12.3,1.993,21.373,21.373,0,0,0,35.042.3,8.625,8.625,0,0,1,11.576-2.309,21.369,21.369,0,0,0,24.794-1.6,8.623,8.623,0,0,1,10.913,0,21.368,21.368,0,0,0,24.792,1.6,8.624,8.624,0,0,1,11.577,2.309,21.372,21.372,0,0,0,35.042-.305,8.622,8.622,0,0,1,12.3-1.993A21.182,21.182,0,0,0,310.19,363.4a21.383,21.383,0,0,0,0-42.765,21.638,21.638,0,0,0-4.175.41,8.624,8.624,0,0,1-10.292-8.252,30.252,30.252,0,0,0-30.061-29.344,29.833,29.833,0,0,0-18.5,6.385v25.627a8.623,8.623,0,0,1-17.246,0V197.043a8.623,8.623,0,0,1,17.246,0v9.689H375.494a8.623,8.623,0,0,1,8.623,8.623v29.991h23.554a8.622,8.622,0,0,1,8.622,8.623V503.375A8.623,8.623,0,0,1,407.67,512Zm8.623-17.244H199.523V484.646H40.8a8.623,8.623,0,0,1-8.624-8.623V262.594H17.246Zm199.523,0H399.047V262.594H384.116V476.025a8.623,8.623,0,0,1-8.624,8.623H216.769Zm1.922-27.349h148.18V455.687H237.11A20.366,20.366,0,0,0,218.691,467.4Zm-169.265,0H197.578a20.347,20.347,0,0,0-18.393-11.712H49.426ZM216.77,444.446a37.346,37.346,0,0,1,20.337-6H366.871V223.979H247.16v45.975a47.183,47.183,0,0,1,18.5-3.749,47.683,47.683,0,0,1,46.216,37.222,38.63,38.63,0,1,1-17.972,73.636,38.6,38.6,0,0,1-53.073-.036,38.394,38.394,0,0,1-24.064,1.085ZM49.426,438.44H179.185a37.369,37.369,0,0,1,20.339,5.991V378.11a38.4,38.4,0,0,1-24.065-1.084,38.594,38.594,0,0,1-53.071.036,38.635,38.635,0,1,1-17.972-73.637A47.679,47.679,0,0,1,150.63,266.2a47.183,47.183,0,0,1,18.5,3.749V223.979H49.425Zm150.1-152.5V232.683a8.623,8.623,0,1,1,17.246,0v53.261a8.623,8.623,0,1,1-17.246,0Zm80.34-92.245c-10.7-10.7-29.187-14.746-42.81-16.252a159.149,159.149,0,0,0-28.138-.6l0-.021c-.257.023-.511.055-.767.055s-.51-.031-.766-.055l0,.021c-.492-.042-49.971-4.125-70.948,16.852a8.624,8.624,0,0,1-14.721-6.1c0-62.219,25.855-93.763,34.986-102.962a104.156,104.156,0,0,1,46.688-83.2,8.622,8.622,0,0,1,9.528,0A104.159,104.159,0,0,1,259.6,84.64c9.131,9.2,34.986,40.742,34.986,102.962a8.624,8.624,0,0,1-14.722,6.1Zm-48.285-34.05c13.6.922,30.645,3.662,45.008,10.907-2.255-25.024-9.18-42.836-15.161-54.014-1.33-2.486-2.659-4.726-3.956-6.763A103.993,103.993,0,0,1,231.578,159.65Zm-76.712-43.107c-5.98,11.178-12.907,28.991-15.161,54.014,14.364-7.244,31.413-9.986,45.008-10.907a103.988,103.988,0,0,1-25.889-49.869C157.526,111.818,156.2,114.056,154.867,116.543Zm19-28.1a86.922,86.922,0,0,0,34.281,69.241A87.1,87.1,0,0,0,232.472,47.99a51.24,51.24,0,0,1-48.652,0A86.912,86.912,0,0,0,173.866,88.441ZM193.385,33.5a33.881,33.881,0,0,0,29.524,0,87.321,87.321,0,0,0-14.763-14.3A87.447,87.447,0,0,0,193.385,33.5Zm-11.97,54.076a26.731,26.731,0,1,1,26.731,26.731A26.763,26.763,0,0,1,181.415,87.577Zm17.248,0a9.484,9.484,0,1,0,9.483-9.483A9.493,9.493,0,0,0,198.662,87.577Z" transform="translate(-5453 1676)"/>
</svg>
