<svg xmlns="http://www.w3.org/2000/svg" viewBox="-5180 1732 239.701 414.917">
  <defs>
    <style>
      .cls-1 {
        fill: #ffb61e;
      }

      .cls-2 {
        fill: #ff5959;
      }

      .cls-3 {
        fill: #0071ce;
      }

      .cls-4 {
        fill: #1e252b;
      }

      .cls-5 {
        fill: #fff;
      }

      .cls-6 {
        fill: #d0d2d2;
      }

      .cls-7 {
        fill: #828689;
      }
    </style>
  </defs>
  <g id="startup" transform="translate(-5267.607 1732)">
    <path id="Path_7692" data-name="Path 7692" class="cls-1" d="M245.445,348.254a37.988,37.988,0,0,0-75.975,0c0,20.98,17.008,66.663,37.987,66.663S245.445,369.235,245.445,348.254Z"/>
    <path id="Path_7693" data-name="Path 7693" class="cls-2" d="M226.017,347.18a18.56,18.56,0,1,0-37.12,0c0,10.251,8.31,32.57,18.56,32.57S226.017,357.431,226.017,347.18Z"/>
    <path id="Path_7694" data-name="Path 7694" class="cls-2" d="M247.625,325.071c4.982,0,35.224-1.686,41.1,24.91,4.646,21.021,6.228,32.071,21.173,32.071s21.329-12.61,14.946-50.753c-5.24-31.313-9.341-52.466-77.22-52.466v46.238Z"/>
    <path id="Path_7695" data-name="Path 7695" class="cls-2" d="M167.291,325.071c-4.982,0-35.224-1.686-41.1,24.91-4.646,21.021-6.228,32.071-21.173,32.071S83.688,369.442,90.071,331.3c5.24-31.313,9.341-52.466,77.22-52.466Z"/>
    <path id="Path_7696" data-name="Path 7696" class="cls-3" d="M259.768,335.347c13.007-49.362,24.105-133.111,24.105-167.673S258.835,43.9,207.458,0c-51.376,43.9-76.416,133.111-76.416,167.673s11.1,118.311,24.1,167.673H259.768Z"/>
    <path id="Path_7697" data-name="Path 7697" class="cls-2" d="M207.457,0c-17.073,14.59-31.234,34.185-42.538,55.113h85.076C238.691,34.185,224.531,14.59,207.457,0Z"/>
    <path id="Path_7698" data-name="Path 7698" class="cls-4" d="M146.447,296.114c2.717,14.247,5.656,27.681,8.7,39.233H259.768c3.044-11.552,5.983-24.986,8.7-39.233Z"/>
    <g id="Group_2951" data-name="Group 2951">
      <path id="Path_7699" data-name="Path 7699" class="cls-5" d="M225.8,208.021c0-19.949,25.1-25.419,25.1-58.56a43.437,43.437,0,1,0-86.873,0c0,33.141,25.1,38.61,25.1,58.56Z"/>
      <path id="Path_7700" data-name="Path 7700" class="cls-6" d="M186.719,215.589a20.739,20.739,0,0,0,41.478,0Z"/>
      <path id="Path_7701" data-name="Path 7701" class="cls-7" d="M231.942,213.812a5.808,5.808,0,0,0-5.792-5.791H188.762a5.807,5.807,0,0,0-5.791,5.791v8.043a5.809,5.809,0,0,0,5.791,5.792H226.15a5.809,5.809,0,0,0,5.792-5.792v-8.043Z"/>
    </g>
  </g>
</svg>
