<svg xmlns="http://www.w3.org/2000/svg" viewBox="-5512.384 2244.616 494.817 408.447">
  <defs>
    <style>
      .cls-1 {
        fill: #d1d3d3;
      }

      .cls-2 {
        fill: #ff5959;
      }

      .cls-3 {
        fill: #666;
      }

      .cls-4 {
        fill: #fae1b2;
      }

      .cls-5 {
        fill: #0064b5;
      }

      .cls-6 {
        fill: #0071ce;
      }

      .cls-7 {
        fill: #d0d2d2;
      }

      .cls-8 {
        fill: #828689;
      }

      .cls-9 {
        fill: #ffb61e;
      }
    </style>
  </defs>
  <g id="Group_2949" data-name="Group 2949" transform="translate(877 -242)">
    <g id="Group_2806" data-name="Group 2806" transform="translate(-205 106)">
      <path id="Path_7088" data-name="Path 7088" class="cls-1" d="M496.022,170.007a71.53,71.53,0,0,1,0,63.413H459.564a71.53,71.53,0,0,0,0-63.413Z" transform="translate(-6193 2328.841)"/>
      <path id="Path_7089" data-name="Path 7089" class="cls-2" d="M427.392,460.222H237.819V270.648L387.763,420.592Zm-157.4-32.172H349.72l-79.729-79.729V428.05Z" transform="translate(-6193 2328.841)"/>
      <path id="Path_7090" data-name="Path 7090" class="cls-3" d="M309.608,184.887a30.187,30.187,0,0,1,0,33.654L284.5,201.708Z" transform="translate(-6193 2328.841)"/>
      <path id="Path_7091" data-name="Path 7091" class="cls-4" d="M331.8,170.019a79.837,79.837,0,0,1,0,63.39v.011l-22.187-14.88a30.187,30.187,0,0,0,0-33.654l22.187-14.88Z" transform="translate(-6193 2328.841)"/>
      <path id="Path_7092" data-name="Path 7092" class="cls-5" d="M466.573,201.708h.4a71.5,71.5,0,0,1-7.411,31.712H331.8v-.011a79.946,79.946,0,0,0,6.561-31.7Z" transform="translate(-6193 2328.841)"/>
      <path id="Path_7093" data-name="Path 7093" class="cls-6" d="M338.356,201.708a79.932,79.932,0,0,0-6.561-31.689v-.011H459.564a71.488,71.488,0,0,1,7.411,31.7H338.356Z" transform="translate(-6193 2328.841)"/>
      <path id="Path_7094" data-name="Path 7094" class="cls-7" d="M76.809,133.032V352.388H42.719a34.1,34.1,0,0,0-34.1,34.1V98.93a34.091,34.091,0,0,1,34.1-34.1H76.811v68.205Z" transform="translate(-6193 2328.841)"/>
      <g id="Group_2799" data-name="Group 2799" transform="translate(-6193 2328.841)">
        <path id="Path_7095" data-name="Path 7095" class="cls-8" d="M349.72,428.05H269.991V348.321Z"/>
        <path id="Path_7096" data-name="Path 7096" class="cls-8" d="M440.456,233.421V420.593H387.763L237.819,270.648V420.592H42.719a34.1,34.1,0,1,1,0-68.2H76.809V133.033h69.308V329.246h53.428V133.032H440.456v36.975H331.8l-22.187,14.88L284.5,201.708l25.106,16.833,22.187,14.88Z"/>
      </g>
      <path id="Path_7097" data-name="Path 7097" class="cls-9" d="M146.117,128.988V51.775h53.429V329.247H146.117V128.988Z" transform="translate(-6193 2328.841)"/>
    </g>
  </g>
</svg>
