<svg id="Group_2810" data-name="Group 2810" xmlns="http://www.w3.org/2000/svg" viewBox="-6193 2372 512 425.681">
  <defs>
    <style>
      .cls-1 {
        fill: #d1d3d3;
      }

      .cls-2 {
        fill: #ff5959;
      }

      .cls-3 {
        fill: #666;
      }

      .cls-4 {
        fill: #fae1b2;
      }

      .cls-5 {
        fill: #0064b5;
      }

      .cls-6 {
        fill: #0071ce;
      }

      .cls-7 {
        fill: #d0d2d2;
      }

      .cls-8 {
        fill: #828689;
      }

      .cls-9 {
        fill: #ffb61e;
      }

      .cls-10 {
        fill: #1e252b;
      }
    </style>
  </defs>
  <g id="Group_2806" data-name="Group 2806">
    <path id="Path_7088" data-name="Path 7088" class="cls-1" d="M496.022,170.007a71.53,71.53,0,0,1,0,63.413H459.564a71.53,71.53,0,0,0,0-63.413Z" transform="translate(-6193 2328.841)"/>
    <path id="Path_7089" data-name="Path 7089" class="cls-2" d="M427.392,460.222H237.819V270.648L387.763,420.592Zm-157.4-32.172H349.72l-79.729-79.729V428.05Z" transform="translate(-6193 2328.841)"/>
    <path id="Path_7090" data-name="Path 7090" class="cls-3" d="M309.608,184.887a30.187,30.187,0,0,1,0,33.654L284.5,201.708Z" transform="translate(-6193 2328.841)"/>
    <path id="Path_7091" data-name="Path 7091" class="cls-4" d="M331.8,170.019a79.837,79.837,0,0,1,0,63.39v.011l-22.187-14.88a30.187,30.187,0,0,0,0-33.654l22.187-14.88Z" transform="translate(-6193 2328.841)"/>
    <path id="Path_7092" data-name="Path 7092" class="cls-5" d="M466.573,201.708h.4a71.5,71.5,0,0,1-7.411,31.712H331.8v-.011a79.946,79.946,0,0,0,6.561-31.7Z" transform="translate(-6193 2328.841)"/>
    <path id="Path_7093" data-name="Path 7093" class="cls-6" d="M338.356,201.708a79.932,79.932,0,0,0-6.561-31.689v-.011H459.564a71.488,71.488,0,0,1,7.411,31.7H338.356Z" transform="translate(-6193 2328.841)"/>
    <path id="Path_7094" data-name="Path 7094" class="cls-7" d="M76.809,133.032V352.388H42.719a34.1,34.1,0,0,0-34.1,34.1V98.93a34.091,34.091,0,0,1,34.1-34.1H76.811v68.205Z" transform="translate(-6193 2328.841)"/>
    <g id="Group_2799" data-name="Group 2799" transform="translate(-6193 2328.841)">
      <path id="Path_7095" data-name="Path 7095" class="cls-8" d="M349.72,428.05H269.991V348.321Z"/>
      <path id="Path_7096" data-name="Path 7096" class="cls-8" d="M440.456,233.421V420.593H387.763L237.819,270.648V420.592H42.719a34.1,34.1,0,1,1,0-68.2H76.809V133.033h69.308V329.246h53.428V133.032H440.456v36.975H331.8l-22.187,14.88L284.5,201.708l25.106,16.833,22.187,14.88Z"/>
    </g>
    <path id="Path_7097" data-name="Path 7097" class="cls-9" d="M146.117,128.988V51.775h53.429V329.247H146.117V128.988Z" transform="translate(-6193 2328.841)"/>
    <g id="Group_2800" data-name="Group 2800" transform="translate(-6193 2328.841)">
      <path id="Union_10" data-name="Union 10" class="cls-10" d="M6430.818-1903.16a8.615,8.615,0,0,1-8.618-8.616v-31.017H6235.721a42.441,42.441,0,0,1-30.212-12.508A42.44,42.44,0,0,1,6193-1985.511c0-.146,0-.295,0-.439v-287.121a42.464,42.464,0,0,1,12.5-30.2,42.441,42.441,0,0,1,30.217-12.516h34.091a8.617,8.617,0,0,1,8.616,8.617v59.587H6330.5v-72.638a8.616,8.616,0,0,1,8.618-8.616h53.425a8.617,8.617,0,0,1,8.619,8.616v72.636h232.3a8.618,8.618,0,0,1,8.617,8.617v28.362h46.949a8.617,8.617,0,0,1,7.723,4.8,80.593,80.593,0,0,1,0,71.047,8.618,8.618,0,0,1-7.725,4.8h-46.949v178.557a8.618,8.618,0,0,1-8.617,8.617h-31.895l24.923,24.923a8.618,8.618,0,0,1,1.869,9.39,8.615,8.615,0,0,1-7.963,5.32Zm8.617-17.232v0h160.154l-160.154-160.153Zm-229.2-65.458v.34a25.325,25.325,0,0,0,7.461,18.023,25.319,25.319,0,0,0,18.024,7.461H6422.2v-141.325a8.616,8.616,0,0,1,5.319-7.961,8.619,8.619,0,0,1,9.394,1.867l147.419,147.417h40.508v-169.94H6524.792a8.62,8.62,0,0,1-4.8-1.461l-47.286-31.7a8.62,8.62,0,0,1-3.818-7.158,8.62,8.62,0,0,1,3.818-7.156l47.286-31.7a8.623,8.623,0,0,1,4.8-1.459h100.048v-19.745H6401.161v187.6a8.618,8.618,0,0,1-8.619,8.617h-53.425a8.618,8.618,0,0,1-8.618-8.617v-187.6h-52.071v210.739a8.617,8.617,0,0,1-8.616,8.617h-34.091A25.514,25.514,0,0,0,6210.237-1985.849ZM6217.7-2291.1a25.356,25.356,0,0,0-7.461,18.025v253.293a42.5,42.5,0,0,1,25.484-8.453h25.472v-270.324h-25.472A25.318,25.318,0,0,0,6217.7-2291.1Zm130.038,239.725h36.19v-260.234h-36.19v18.955H6359.8a8.616,8.616,0,0,1,8.618,8.617,8.617,8.617,0,0,1-8.618,8.617h-12.063v23.783H6359.8a8.617,8.617,0,0,1,8.618,8.617,8.617,8.617,0,0,1-8.618,8.617h-12.063v23.782H6359.8a8.617,8.617,0,0,1,8.618,8.617,8.617,8.617,0,0,1-8.618,8.617h-12.063v23.787H6359.8a8.615,8.615,0,0,1,8.618,8.616,8.617,8.617,0,0,1-8.618,8.617h-12.063v23.782H6359.8a8.617,8.617,0,0,1,8.618,8.617,8.617,8.617,0,0,1-8.618,8.617h-12.063v23.782H6359.8a8.617,8.617,0,0,1,8.618,8.617,8.616,8.616,0,0,1-8.618,8.616h-12.063Zm317.434-95.829h18.256a63.385,63.385,0,0,0,0-46.171h-18.256A80.878,80.878,0,0,1,6665.167-2147.2Zm-128.289,0h110.061a62.613,62.613,0,0,0,3.771-14.467H6539.52A89,89,0,0,1,6536.878-2147.2Zm-23.108-37.025a38.7,38.7,0,0,1,2.583,13.939,38.714,38.714,0,0,1-2.583,13.94l6.549,4.392a71.643,71.643,0,0,0,0-36.662Zm-20.79,13.939,5.777,3.875a21.652,21.652,0,0,0,.362-3.877,21.627,21.627,0,0,0-.362-3.872Zm46.54-8.616h111.19a62.809,62.809,0,0,0-3.771-14.467H6536.88A88.8,88.8,0,0,1,6539.52-2178.9Zm-76.53,243.573a8.616,8.616,0,0,1-8.618-8.617v-79.734a8.617,8.617,0,0,1,5.32-7.961,8.616,8.616,0,0,1,9.392,1.867l79.734,79.735a8.614,8.614,0,0,1,1.867,9.39,8.61,8.61,0,0,1-7.96,5.32Zm8.617-17.235h50.311l-50.311-50.311Z" transform="translate(-6193 2372)"/>
    </g>
  </g>
</svg>
