<svg xmlns="http://www.w3.org/2000/svg" viewBox="0 0 577 463"><defs><style>.a{fill:#fff;}.b{fill:#1b1b1b;}.c{fill:#ffb61e;}</style></defs><g transform="translate(-10387 -306)"><rect class="a" width="577" height="463" transform="translate(10387 306)"/><g transform="translate(2346.69 924)"><path class="b" d="M242.472,0A125.293,125.293,0,0,0,117.333,125.139v77.008a9.627,9.627,0,0,0,9.626,9.626h38.5a9.627,9.627,0,0,0,9.626-9.626V125.139a67.382,67.382,0,1,1,134.765,0v77.008a9.627,9.627,0,0,0,9.626,9.626h38.5a9.627,9.627,0,0,0,9.626-9.626V125.139A125.293,125.293,0,0,0,242.472,0Z" transform="translate(8086.17 -618)"/><path class="c" d="M122.8,213.333H353.822a48.13,48.13,0,0,1,48.13,48.13V434.732a48.13,48.13,0,0,1-48.13,48.131H122.8a48.13,48.13,0,0,1-48.13-48.13V261.464A48.13,48.13,0,0,1,122.8,213.333Z" transform="translate(8090.333 -638.812)"/><path class="b" d="M298.927,325.442a48.13,48.13,0,1,0-69.481,42.932l-7.432,51.981a9.626,9.626,0,0,0,9.53,10.974h38.5a9.624,9.624,0,0,0,9.625-10.993l-7.432-51.981A48.3,48.3,0,0,0,298.927,325.442Z" transform="translate(8077.846 -645.034)"/></g></g></svg>