<?xml version="1.0" encoding="utf-8"?>
<!-- Generator: Adobe Illustrator 22.0.1, SVG Export Plug-In . SVG Version: 6.00 Build 0)  -->
<svg version="1.1" id="Capa_1" xmlns="http://www.w3.org/2000/svg" xmlns:xlink="http://www.w3.org/1999/xlink" x="0px" y="0px"
	 viewBox="0 0 512 512" style="enable-background:new 0 0 512 512;" xml:space="preserve">
<style type="text/css">
	.st0{fill:#1B1B1B;}
	.st1{fill:#0071BC;}
	.st2{fill:#29ABE2;}
	.st3{fill:#ED1C24;}
	.st4{fill:#39B54A;}
	.st5{fill:#FFB61E;}
</style>
<g>
	<path class="st0" d="M256,150.1c-4.9,0-8.8-4-8.8-8.8v-53c0-4.9,4-8.8,8.8-8.8c4.9,0,8.8,4,8.8,8.8v53
		C264.8,146.1,260.9,150.1,256,150.1z"/>
	<path class="st0" d="M256,238.3c-4.9,0-8.8-4-8.8-8.8v-35.3c0-4.9,4-8.8,8.8-8.8c4.9,0,8.8,4,8.8,8.8v35.3
		C264.8,234.4,260.9,238.3,256,238.3z"/>
	<path class="st0" d="M194.2,273.7h-70.6c-4.9,0-8.8-4-8.8-8.8s4-8.8,8.8-8.8h70.6c4.9,0,8.8,4,8.8,8.8S199.1,273.7,194.2,273.7z"/>
	<path class="st0" d="M388.4,273.7h-70.6c-4.9,0-8.8-4-8.8-8.8s4-8.8,8.8-8.8h70.6c4.9,0,8.8,4,8.8,8.8S393.3,273.7,388.4,273.7z"/>
	<path class="st0" d="M61.8,414.9c-4.9,0-8.8-4-8.8-8.8V300.1c0-4.9,4-8.8,8.8-8.8s8.8,4,8.8,8.8v105.9
		C70.6,410.9,66.7,414.9,61.8,414.9z"/>
	<path class="st0" d="M203,467.9h-88.3c-4.9,0-8.8-4-8.8-8.8s4-8.8,8.8-8.8H203c4.9,0,8.8,4,8.8,8.8S207.9,467.9,203,467.9z"/>
	<path class="st0" d="M450.2,414.9c-4.9,0-8.8-4-8.8-8.8V300.1c0-4.9,4-8.8,8.8-8.8c4.9,0,8.8,4,8.8,8.8v105.9
		C459,410.9,455.1,414.9,450.2,414.9z"/>
	<path class="st0" d="M450.2,238.3c-4.9,0-8.8-4-8.8-8.8v-61.8H335.4c-4.9,0-8.8-4-8.8-8.8s4-8.8,8.8-8.8h114.8c4.9,0,8.8,4,8.8,8.8
		v70.6C459,234.4,455.1,238.3,450.2,238.3z"/>
</g>
<path class="st1" d="M185.4,0h141.2c9.8,0,17.7,7.9,17.7,17.7v53c0,9.8-7.9,17.7-17.7,17.7H185.4c-9.8,0-17.7-7.9-17.7-17.7v-53
	C167.7,7.9,175.6,0,185.4,0z"/>
<path class="st2" d="M211.9,229.5h88.3c9.8,0,17.7,7.9,17.7,17.7v35.3c0,9.8-7.9,17.7-17.7,17.7h-88.3c-9.8,0-17.7-7.9-17.7-17.7
	v-35.3C194.2,237.4,202.1,229.5,211.9,229.5z"/>
<path class="st3" d="M17.7,229.5h88.3c9.8,0,17.7,7.9,17.7,17.7v35.3c0,9.8-7.9,17.7-17.7,17.7H17.7c-9.8,0-17.7-7.9-17.7-17.7
	v-35.3C0,237.4,7.9,229.5,17.7,229.5z"/>
<path class="st4" d="M406.1,229.5h88.3c9.8,0,17.7,7.9,17.7,17.7v35.3c0,9.8-7.9,17.7-17.7,17.7h-88.3c-9.8,0-17.7-7.9-17.7-17.7
	v-35.3C388.4,237.4,396.3,229.5,406.1,229.5z"/>
<path class="st5" d="M253.3,124.5l-78.8,26.3c-7.8,2.6-7.8,13.7,0,16.3l78.8,26.3c1.8,0.6,3.7,0.6,5.4,0l78.8-26.3
	c7.8-2.6,7.8-13.7,0-16.3l-78.8-26.3C257,123.9,255,123.9,253.3,124.5z"/>
<circle class="st2" cx="61.8" cy="459" r="53"/>
<circle class="st5" cx="256" cy="459" r="53"/>
<circle class="st3" cx="450.2" cy="459" r="53"/>
</svg>
