<svg xmlns="http://www.w3.org/2000/svg" viewBox="738.717 1673.296 314.646 248.873">
  <defs>
    <style>
      .cls-1 {
        fill: #a4a9ad;
      }

      .cls-2 {
        opacity: 0.2;
      }

      .cls-3 {
        fill: #0071ce;
      }

      .cls-4 {
        opacity: 0.1;
      }

      .cls-5 {
        fill: #333e48;
      }

      .cls-6 {
        fill: #929596;
      }

      .cls-7 {
        fill: #fff;
      }

      .cls-8 {
        fill: #d9ddde;
      }

      .cls-9 {
        fill: #d1d3d3;
      }

      .cls-10 {
        fill: #1e252b;
      }

      .cls-11 {
        fill: #e69e05;
      }

      .cls-12 {
        fill: #8d8a94;
      }

      .cls-13 {
        fill: #736f7b;
      }

      .cls-14 {
        fill: #ffb61e;
      }

      .cls-15 {
        fill: #00b3e3;
      }

      .cls-16 {
        fill: #008eb4;
      }
    </style>
  </defs>
  <g id="Group_2752" data-name="Group 2752" transform="translate(-5232.283 -1697.228)">
    <g id="building-1" transform="translate(6050.888 3523.1)">
      <path id="Path_429" data-name="Path 429" class="cls-1" d="M139.707,72.195a2.391,2.391,0,0,0-2.384-2.384H107.817a2.391,2.391,0,0,0-2.384,2.384v8.514a2.391,2.391,0,0,0,2.384,2.384h29.506a2.391,2.391,0,0,0,2.384-2.384V72.195Z" transform="translate(-81.689 -63.684)"/>
      <rect id="Rectangle_51" data-name="Rectangle 51" class="cls-2" width="34.274" height="2.126" transform="translate(23.745 12.117)"/>
      <rect id="Rectangle_52" data-name="Rectangle 52" class="cls-3" width="61.547" height="72.235" transform="translate(11.6 19.409)"/>
      <rect id="Rectangle_53" data-name="Rectangle 53" class="cls-4" width="12.579" height="6.054" transform="translate(11.6 52.5)"/>
      <rect id="Rectangle_54" data-name="Rectangle 54" class="cls-4" width="12.579" height="6.054" transform="translate(55.499 68.006)"/>
      <rect id="Rectangle_55" data-name="Rectangle 55" class="cls-4" width="12.579" height="6.054" transform="translate(39.842 24.574)"/>
      <rect id="Rectangle_56" data-name="Rectangle 56" class="cls-4" width="12.579" height="6.054" transform="translate(49.208 45.365)"/>
      <rect id="Rectangle_57" data-name="Rectangle 57" class="cls-4" width="12.579" height="6.054" transform="translate(16.817 29.208)"/>
      <rect id="Rectangle_58" data-name="Rectangle 58" class="cls-4" width="12.579" height="6.054" transform="translate(16.09 81.174)"/>
      <rect id="Rectangle_59" data-name="Rectangle 59" class="cls-4" width="12.579" height="6.054" transform="translate(24.512 63.692)"/>
      <path id="Path_430" data-name="Path 430" class="cls-5" d="M155.142,293.7a10.812,10.812,0,1,0-21.625,0v18.743h21.625V293.7Z" transform="translate(-103.448 -228.777)"/>
      <path id="Path_431" data-name="Path 431" class="cls-6" d="M120.14,419.417v-4.094a1.2,1.2,0,0,1,1.192-1.192H146.6a1.2,1.2,0,0,1,1.192,1.192v4.094Z" transform="translate(-93.084 -330.46)"/>
      <g id="Group_122" data-name="Group 122" transform="translate(20.177 36.188)">
        <path id="Path_432" data-name="Path 432" class="cls-7" d="M168.714,312.84a5.25,5.25,0,0,0-10.5,0Z" transform="translate(-142.759 -284.101)"/>
        <path id="Path_433" data-name="Path 433" class="cls-7" d="M131,204.482a1.2,1.2,0,0,0-1.192-1.192H90.785a1.2,1.2,0,0,0-1.192,1.192v7.713a1.2,1.2,0,0,0,1.192,1.192H129.81A1.2,1.2,0,0,0,131,212.195v-7.713Z" transform="translate(-89.593 -203.29)"/>
      </g>
      <path id="Path_434" data-name="Path 434" class="cls-2" d="M129.81,203.29H90.785a1.2,1.2,0,0,0-1.192,1.192v3.488a1.2,1.2,0,0,1,1.192-1.192H129.81A1.2,1.2,0,0,1,131,207.97v-3.488A1.2,1.2,0,0,0,129.81,203.29Z" transform="translate(-69.416 -167.102)"/>
      <rect id="Rectangle_60" data-name="Rectangle 60" class="cls-4" width="61.547" height="8.601" transform="translate(11.6 19.409)"/>
      <path id="Path_435" data-name="Path 435" class="cls-5" d="M102.786,108.233a2.391,2.391,0,0,0-2.384-2.384H40.638a2.391,2.391,0,0,0-2.384,2.384V113.8a2.391,2.391,0,0,0,2.384,2.384H100.4a2.391,2.391,0,0,0,2.384-2.384v-5.562Z" transform="translate(-29.639 -91.606)"/>
      <rect id="Rectangle_61" data-name="Rectangle 61" class="cls-4" width="8.531" height="77.399" transform="translate(64.617 14.243)"/>
      <rect id="Rectangle_62" data-name="Rectangle 62" class="cls-8" width="36.576" height="81.472" transform="translate(68.078 10.172)"/>
      <rect id="Rectangle_63" data-name="Rectangle 63" class="cls-4" width="12.579" height="6.054" transform="translate(68.078 52.426)"/>
      <rect id="Rectangle_64" data-name="Rectangle 64" class="cls-4" width="12.579" height="6.054" transform="translate(89.294 78.149)"/>
      <rect id="Rectangle_65" data-name="Rectangle 65" class="cls-4" width="12.579" height="6.054" transform="translate(92.075 35.702)"/>
      <rect id="Rectangle_66" data-name="Rectangle 66" class="cls-4" width="12.579" height="6.054" transform="translate(70.781 23.497)"/>
      <rect id="Rectangle_67" data-name="Rectangle 67" class="cls-4" width="12.579" height="6.054" transform="translate(88.183 12.117)"/>
      <rect id="Rectangle_68" data-name="Rectangle 68" class="cls-4" width="36.576" height="5.482" transform="translate(68.078 10.172)"/>
      <path id="Path_436" data-name="Path 436" class="cls-7" d="M364.632,137.509a7.73,7.73,0,1,0-15.461,0v17.473h15.461V137.509h0Z" transform="translate(-270.535 -110.146)"/>
      <path id="Path_437" data-name="Path 437" class="cls-2" d="M356.9,129.779a7.731,7.731,0,0,0-7.73,7.73v3.3a7.73,7.73,0,0,1,15.461,0v-3.3A7.731,7.731,0,0,0,356.9,129.779Z" transform="translate(-270.535 -110.147)"/>
      <rect id="Rectangle_69" data-name="Rectangle 69" class="cls-2" width="15.461" height="3.852" transform="translate(78.636 27.363)"/>
      <path id="Path_438" data-name="Path 438" class="cls-7" d="M364.632,290.636a7.73,7.73,0,0,0-15.461,0V308.11h15.461V290.636Z" transform="translate(-270.535 -228.788)"/>
      <path id="Path_439" data-name="Path 439" class="cls-2" d="M356.9,282.906a7.73,7.73,0,0,0-7.73,7.73v3.3a7.73,7.73,0,1,1,15.461,0v-3.3A7.73,7.73,0,0,0,356.9,282.906Z" transform="translate(-270.535 -228.788)"/>
      <rect id="Rectangle_70" data-name="Rectangle 70" class="cls-2" width="15.461" height="3.852" transform="translate(78.636 61.847)"/>
      <path id="Path_440" data-name="Path 440" class="cls-1" d="M119.67,442.013a.965.965,0,0,1-.963.963H8.9a.966.966,0,0,1-.963-.963v-3.446A.966.966,0,0,1,8.9,437.6H118.707a.965.965,0,0,1,.963.963v3.446Z" transform="translate(-6.151 -348.646)"/>
      <path id="Path_441" data-name="Path 441" class="cls-5" d="M332.165,52.926a2.391,2.391,0,0,0-2.384-2.384h-37.3a2.391,2.391,0,0,0-2.384,2.384v5.562a2.391,2.391,0,0,0,2.384,2.384h37.3a2.391,2.391,0,0,0,2.384-2.384Z" transform="translate(-224.764 -48.754)"/>
      <path id="Path_442" data-name="Path 442" class="cls-9" d="M328.944,437.6H279.286v5.372h49.658a.965.965,0,0,0,.963-.963v-3.446A.965.965,0,0,0,328.944,437.6Z" transform="translate(-216.389 -348.646)"/>
      <path id="Path_443" data-name="Path 443" class="cls-10" d="M63.374,87.7V79.984A2.983,2.983,0,0,0,60.394,77H21.369a2.983,2.983,0,0,0-2.98,2.98V87.7a2.983,2.983,0,0,0,2.98,2.98H60.394A2.983,2.983,0,0,0,63.374,87.7Zm-24.28-.6H21.965V80.579H39.094V87.1Zm20.7,0H42.669V80.579H59.8Zm55.575,42.672h-8.931V56.253a4.175,4.175,0,0,0,2.746-3.915V46.776a4.176,4.176,0,0,0-4.172-4.172h-37.3a4.176,4.176,0,0,0-4.172,4.172v5.562a4.15,4.15,0,0,0,1.017,2.722H59.806V51.115a4.176,4.176,0,0,0-4.172-4.172H26.128a4.176,4.176,0,0,0-4.172,4.172V55.06H11a4.176,4.176,0,0,0-4.172,4.172v5.562a4.178,4.178,0,0,0,2.984,4v60.982H0v8.963l115.307-.074v-6.139Zm-48.254-83a.6.6,0,0,1,.6-.6h37.3a.6.6,0,0,1,.6.6v5.562a.6.6,0,0,1-.6.6h-37.3a.6.6,0,0,1-.6-.6V46.776Zm35.747,9.734v73.264h-33V56.509ZM25.532,51.115a.6.6,0,0,1,.6-.6H55.634a.6.6,0,0,1,.6.6V55.06h-30.7ZM10.4,59.231a.6.6,0,0,1,.6-.6H66.291v6.754H11a.6.6,0,0,1-.6-.6Zm43.111,65.256h-.033V107.531a12.6,12.6,0,1,0-25.2,0v16.955h-.033a2.983,2.983,0,0,0-2.98,2.98v2.307H13.387V68.965h52.9v60.808h-9.8v-2.307A2.983,2.983,0,0,0,53.514,124.487Zm-.6,3.576v1.711H28.844v-1.711Zm-21.062-3.576V107.531a9.025,9.025,0,1,1,18.049,0v16.955Zm29.253,10.658H3.576v-1.8H61.109v1.8Zm50.621,0H64.685v-1.8H111.73v1.8ZM78.636,89.228H94.1a1.788,1.788,0,0,0,1.788-1.788V69.967a9.518,9.518,0,1,0-19.037,0V87.44A1.788,1.788,0,0,0,78.636,89.228Zm7.73-25.2a5.953,5.953,0,0,1,5.667,4.155H80.7A5.953,5.953,0,0,1,86.366,64.024Zm-5.942,7.73H92.309v5.161H80.424Zm0,8.736H92.309v5.161H80.424Zm-1.788,43.222H94.1a1.788,1.788,0,0,0,1.788-1.788V104.452a9.518,9.518,0,0,0-19.037,0v17.474A1.788,1.788,0,0,0,78.636,123.714Zm7.73-25.2a5.952,5.952,0,0,1,5.667,4.154H80.7A5.953,5.953,0,0,1,86.366,98.51Zm-5.942,7.73H92.309V111.4H80.424Zm0,8.737H92.309v5.161H80.424Z" transform="translate(0 -42.604)"/>
    </g>
    <g id="Group_2751" data-name="Group 2751" transform="translate(6138.199 3370.525)">
      <path id="Path_6853" data-name="Path 6853" class="cls-11" d="M57.077,84.171h122.7v6.636H52.1Z" transform="translate(-47.334 -59.934)"/>
      <g id="Group_2750" data-name="Group 2750" transform="translate(12.701 33.47)">
        <path id="Path_6854" data-name="Path 6854" class="cls-12" d="M451.488,121.859a1.011,1.011,0,0,1-1.01,1.01h-4.617a1.011,1.011,0,0,1-1.01-1.01v-5.626h6.636v5.626Z" transform="translate(-444.851 -116.233)"/>
        <path id="Path_6855" data-name="Path 6855" class="cls-12" d="M109.913,129.793H98.658a3.307,3.307,0,0,1-3.212-2.494l-3.269-11.067h17.737Z" transform="translate(-1.713 -116.232)"/>
      </g>
      <path id="Path_6856" data-name="Path 6856" class="cls-13" d="M105.817,116.231a26.133,26.133,0,0,0,10.456,13.561H107.59a3.307,3.307,0,0,1-3.212-2.494l-3.269-11.067Z" transform="translate(2.056 -82.761)"/>
      <path id="Path_6857" data-name="Path 6857" class="cls-14" d="M63.433,476.923H81.9a3.322,3.322,0,0,1,3.318,3.318v3.318h-25.1v-3.318A3.322,3.322,0,0,1,63.433,476.923Z" transform="translate(44.917 -238.148)"/>
      <path id="Path_6858" data-name="Path 6858" class="cls-11" d="M107.938,476.923h.248a20.852,20.852,0,0,0,8.72,6.636H104.62v-3.318A3.322,3.322,0,0,1,107.938,476.923Z" transform="translate(0.412 -238.148)"/>
      <path id="Path_6859" data-name="Path 6859" class="cls-14" d="M97.8,351.506H93.186c-.557,0-1.01-1.07-1.01-2.385V172.34h6.637V349.123C98.813,350.437,98.359,351.506,97.8,351.506Z" transform="translate(22.089 -124.562)"/>
      <path id="Path_6860" data-name="Path 6860" class="cls-14" d="M94.625,12.929a1.011,1.011,0,0,1,1-.9h.485a1.007,1.007,0,0,1,.333.058l.139.043.122.1.128.093.077.1a1,1,0,0,1,.205.5l1.919,17.278H92.706Z" transform="translate(21.711 -8.571)"/>
      <rect id="Rectangle_377" data-name="Rectangle 377" class="cls-11" width="8.944" height="8.944" transform="translate(135.039 21.929)"/>
      <path id="Path_6861" data-name="Path 6861" class="cls-10" d="M.438-149.117a2.17,2.17,0,0,0-.2,2.268,2.163,2.163,0,0,0,1.936,1.195H9.239v4.761a4.476,4.476,0,0,0,4.472,4.472h.144v8.033L.39-105.946A2.158,2.158,0,0,0,0-104.709a2.163,2.163,0,0,0,2.164,2.164H29.869a2.166,2.166,0,0,0,1.884-1.1,2.168,2.168,0,0,0-.029-2.181L18.183-128.389v-8.033h.144a4.476,4.476,0,0,0,4.472-4.472v-4.761H99.809l3.272,11.071a6.77,6.77,0,0,0,6.564,5.087H110.8V45.945a4.465,4.465,0,0,0,1.9,3.656l-1.431,5.722H108.35A6.787,6.787,0,0,0,101.57,62.1v2.452H99.117a2.164,2.164,0,0,0,0,4.328h36.932a2.164,2.164,0,0,0,0-4.328H133.6V62.1a6.787,6.787,0,0,0-6.781-6.781h-2.926L122.459,49.6a4.465,4.465,0,0,0,1.9-3.656v-191.6h20.919a2.163,2.163,0,0,0,2.164-2.164V-159.36c0-.02,0-.043,0-.066,0-.043,0-.09-.009-.136s-.009-.072-.014-.107-.009-.066-.014-.1-.017-.081-.026-.121-.014-.055-.023-.084-.026-.078-.04-.118-.017-.055-.029-.081-.032-.069-.046-.1-.029-.06-.043-.09a.859.859,0,0,1-.049-.09l-.06-.1c-.014-.023-.035-.049-.052-.072s-.046-.066-.072-.1-.037-.043-.058-.066a1.187,1.187,0,0,0-.081-.09l-.075-.072-.078-.069c-.037-.032-.075-.058-.113-.087-.017-.012-.032-.026-.049-.037l-.017-.012,0,0-25.9-17.868a4.448,4.448,0,0,0-2.77-.966h-.485c-.09,0-.176.009-.266.014a2.161,2.161,0,0,0-.7.043L27.313-159.216H9.094a2.164,2.164,0,0,0-1.731.866Zm5.554,42.244,10.027-16.712,10.027,16.712Zm.5-43.11,3.679-4.905h121.4v4.905H6.5Zm7.069,9.089v-4.761h4.905v4.761a.143.143,0,0,1-.144.144H13.711A.143.143,0,0,1,13.567-140.894Zm97.464-18.322H46.413l66.331-15.431Zm-3.788,23.446-2.92-9.885h15.713v11.83h-10.39a2.442,2.442,0,0,1-2.378-1.858ZM105.9,64.556V62.1a2.456,2.456,0,0,1,2.452-2.452h18.466a2.456,2.456,0,0,1,2.452,2.452v2.452Zm9.233-18.61V-129.5h4.905V45.945a.143.143,0,0,1-.144.144h-4.617A.143.143,0,0,1,115.131,45.945Zm.254-205.161,1.812-16.316a.146.146,0,0,1,.144-.13h.485a.168.168,0,0,1,.052.012c.017.014.037.029.058.043a.149.149,0,0,1,.035.075l1.812,16.316h-4.4Zm.355,214.538,1.226-4.905H118.2l1.227,4.905Zm8.4-214.538-1.457-13.114,15.659,10.806h-4.6a2.165,2.165,0,0,0-2.164,2.164v.144Zm11.769,9.233V-157.2h7.213v7.213h-7.213Z" transform="translate(0 179.99)"/>
    </g>
    <g id="trucking" transform="translate(5971 3545.482)">
      <path id="Path_552" data-name="Path 552" class="cls-14" d="M28.773,295.114H62.317V281.266a.719.719,0,0,0-.718-.718H28.773a.719.719,0,0,0-.718.718V294.4A.719.719,0,0,0,28.773,295.114Zm4.924-6.565H45.186a.923.923,0,0,1,0,1.847H33.7a.923.923,0,0,1,0-1.847Zm11.489-3.077H33.7a.923.923,0,0,1,0-1.847H45.186a.923.923,0,0,1,0,1.847Z" transform="translate(-22.31 -238.696)"/>
      <path id="Path_553" data-name="Path 553" class="cls-11" d="M145.4,280.548H140a23.259,23.259,0,0,1-6.561,14.566h12.684V281.266A.719.719,0,0,0,145.4,280.548Z" transform="translate(-106.113 -238.696)"/>
      <path id="Path_554" data-name="Path 554" class="cls-14" d="M170.135,246.84l.877.074-1.756-6.444h-2.577a2.362,2.362,0,0,0-2.359,2.359v4h5.642C170.02,246.83,170.078,246.835,170.135,246.84Z" transform="translate(-130.673 -206.824)"/>
      <path id="Path_555" data-name="Path 555" class="cls-1" d="M435.217,348.281h10.9a2.362,2.362,0,0,0,2.359-2.359v-10.9Z" transform="translate(-346.102 -282.015)"/>
      <path id="Path_556" data-name="Path 556" class="cls-1" d="M63.622,384.751h-47.6a4,4,0,0,0,0,8h47.6a4,4,0,0,0,0-8Zm-.651,3.347a.919.919,0,1,1-.273.654A.934.934,0,0,1,62.971,388.1Zm-3.35.654a.924.924,0,0,1-.923.923H20.948a.923.923,0,0,1,0-1.847H58.7A.924.924,0,0,1,59.621,388.752ZM15.374,388.1a.934.934,0,0,1,.65-.27.926.926,0,0,1,.923.923.923.923,0,1,1-1.574-.654Z" transform="translate(-9.562 -321.562)"/>
      <path id="Path_557" data-name="Path 557" class="cls-15" d="M213.7,253.453a2.356,2.356,0,0,0-.25-1.055l-5.311-10.621a2.341,2.341,0,0,0-2.11-1.306h-8.251l3.946,14.471A2.367,2.367,0,0,0,204,256.679h9.7v-3.225Z" transform="translate(-157.281 -206.825)"/>
      <path id="Path_558" data-name="Path 558" class="cls-16" d="M246.352,254.406l-5.311-10.621a2.351,2.351,0,0,0-.633-.789,28.971,28.971,0,0,1,.552,5.637,28.54,28.54,0,0,1-1.809,10.053H246.6v-3.225A2.358,2.358,0,0,0,246.352,254.406Z" transform="translate(-190.183 -208.833)"/>
      <path id="Path_559" data-name="Path 559" class="cls-14" d="M430.529,165.03,420,124.415l-.76.746a5.821,5.821,0,0,1-5.39,1.533l-1.071-.243,14.252,42.077Z" transform="translate(-328.258 -114.532)"/>
      <g id="Group_141" data-name="Group 141" transform="translate(41.852 4.631)">
        <path id="Path_560" data-name="Path 560" class="cls-11" d="M205.557,317.756l-1.158.29V324.7h14.566v-4.719h-9.7A4.2,4.2,0,0,1,205.557,317.756Z" transform="translate(-204.399 -272.916)"/>
        <path id="Path_561" data-name="Path 561" class="cls-11" d="M245.583,102.747a5.782,5.782,0,0,1-.412-2.15,5.686,5.686,0,0,1,.048-.737l.142-1.094-32.508,14.68a5.675,5.675,0,0,0-2.962,3.162l-3.5,9.327h6.487a4.156,4.156,0,0,1,3.025,1.284l.739.769,1.507-5.2a7.515,7.515,0,0,1,3.822-4.6L246.6,105.76l-1.011-2.983Z" transform="translate(-205.986 -98.765)"/>
      </g>
      <path id="Path_562" data-name="Path 562" class="cls-1" d="M412.792,92.173a4,4,0,0,0-5.584-3.671.733.733,0,0,0-.068.032l-.022.01a3.982,3.982,0,0,0-2.185,4.675l.005.019.162.479.009.022a4,4,0,0,0,7.683-1.565Z" transform="translate(-321.906 -85.71)"/>
      <path id="Path_563" data-name="Path 563" class="cls-10" d="M104.837,126.927v13.13a4.826,4.826,0,0,1-4.821,4.821H83.6a1.539,1.539,0,1,1,0-3.078h2.644L96.61,131.438,82.714,90.41,58.948,102.394a5.03,5.03,0,0,0-2.564,3.09l-2.048,7.07,4.035,8.069a4.85,4.85,0,0,1,.509,2.156v10.713a1.539,1.539,0,0,1-1.539,1.539h-9.95v1.846h6.668a6.463,6.463,0,1,1,0,12.925H6.463a6.462,6.462,0,1,1,0-12.925H13.13V135.03H6.463a3.183,3.183,0,0,1-3.18-3.18V118.72a3.183,3.183,0,0,1,3.18-3.18H31.184v-3.385a4.826,4.826,0,0,1,4.821-4.821h3.857l3.592-9.577a8.152,8.152,0,0,1,4.253-4.54L84.058,76.8A6.458,6.458,0,0,1,93.342,82.4l11.446,44.146a1.312,1.312,0,0,1,.033.156v0a1.411,1.411,0,0,1,.014.207C104.834,126.912,104.837,126.919,104.837,126.927Zm-3.077,13.13v-9.415L90.6,141.8h9.415A1.745,1.745,0,0,0,101.759,140.057Zm-.172-13.6L91.413,87.218a6.436,6.436,0,0,1-5.958,1.695l13.582,40.1ZM90.27,82.612a3.381,3.381,0,0,0-4.735-3.1c-.012,0-.023.012-.033.016l-.033.014A3.366,3.366,0,0,0,83.621,83.5l.148.437a3.385,3.385,0,0,0,6.5-1.323Zm-8.553,4.854-.839-2.476a6.411,6.411,0,0,1-.455-2.378,6.3,6.3,0,0,1,.053-.817l-31.5,14.226a5.056,5.056,0,0,0-2.638,2.817l-3.186,8.5h5.6a4.789,4.789,0,0,1,3.469,1.473l1.211-4.179a8.131,8.131,0,0,1,4.136-4.983ZM57.445,143.34a3.388,3.388,0,0,0-3.385-3.385H6.463a3.385,3.385,0,1,0,0,6.77h47.6A3.389,3.389,0,0,0,57.445,143.34ZM55.8,131.953v-3.488H46.719a4.831,4.831,0,0,1-4.251-2.554v6.042H55.8Zm0-6.565v-2.61a1.736,1.736,0,0,0-.185-.78l-5.312-10.623a1.731,1.731,0,0,0-1.559-.964H41.3L45.036,124.1a1.75,1.75,0,0,0,1.682,1.284ZM44.315,136.877V135.03H16.208v1.847Zm-4.8-21.324-1.4-5.141H36.006a1.745,1.745,0,0,0-1.744,1.744v3.385h5.026C39.364,115.54,39.44,115.547,39.514,115.553Zm-.123,16.4V118.72a.1.1,0,0,0-.1-.1H6.463a.1.1,0,0,0-.1.1v13.13a.1.1,0,0,0,.1.1ZM54.06,141.8a1.541,1.541,0,1,0,1.087.451A1.544,1.544,0,0,0,54.06,141.8Zm-42.673,0a1.539,1.539,0,0,0,0,3.078H49.136a1.539,1.539,0,0,0,0-3.078Zm0-21.337a1.539,1.539,0,0,0,0,3.078H22.875a1.539,1.539,0,0,0,0-3.078Zm0,4.924a1.539,1.539,0,0,0,0,3.078H22.875a1.539,1.539,0,0,0,0-3.078ZM6.463,141.8a1.541,1.541,0,1,0,1.087.451A1.544,1.544,0,0,0,6.463,141.8Z" transform="translate(0 -76.15)"/>
    </g>
    <g id="billboard" transform="translate(6099.913 3449.685)">
      <rect id="Rectangle_148" data-name="Rectangle 148" class="cls-5" width="6.272" height="26.523" transform="translate(33.776 46.013)"/>
      <rect id="Rectangle_149" data-name="Rectangle 149" class="cls-2" width="6.272" height="5.472" transform="translate(33.776 46.013)"/>
      <rect id="Rectangle_150" data-name="Rectangle 150" class="cls-2" width="6.272" height="3.798" transform="translate(33.776 59.627)"/>
      <path id="Path_534" data-name="Path 534" class="cls-9" d="M181.258,375.95v5.378a1.211,1.211,0,0,0,1.208,1.207H201.6a1.211,1.211,0,0,0,1.208-1.207V375.95Z" transform="translate(-155.124 -321.788)"/>
      <g id="Group_134" data-name="Group 134" transform="translate(29.623 56.174)">
        <circle id="Ellipse_23" data-name="Ellipse 23" class="cls-1" cx="1.282" cy="1.282" r="1.282" transform="translate(6.006)"/>
        <circle id="Ellipse_24" data-name="Ellipse 24" class="cls-1" cx="1.282" cy="1.282" r="1.282"/>
        <circle id="Ellipse_25" data-name="Ellipse 25" class="cls-1" cx="1.282" cy="1.282" r="1.282" transform="translate(12.012)"/>
      </g>
      <rect id="Rectangle_151" data-name="Rectangle 151" class="cls-2" width="21.554" height="3.293" transform="translate(26.134 54.162)"/>
      <g id="Group_135" data-name="Group 135" transform="translate(7.368 1.2)">
        <path id="Path_535" data-name="Path 535" class="cls-5" d="M64.19,9.5a.886.886,0,0,0-.883-.883H51.989a.886.886,0,0,0-.883.883v2.357a.886.886,0,0,0,.883.883H63.307a.886.886,0,0,0,.883-.883V9.5Z" transform="translate(-51.106 -8.617)"/>
        <path id="Path_536" data-name="Path 536" class="cls-5" d="M223.707,9.5a.886.886,0,0,0-.883-.883H211.506a.886.886,0,0,0-.883.883v2.357a.886.886,0,0,0,.883.883h11.317a.886.886,0,0,0,.883-.883Z" transform="translate(-187.624 -8.617)"/>
        <path id="Path_537" data-name="Path 537" class="cls-5" d="M383.224,9.5a.886.886,0,0,0-.883-.883H371.023a.886.886,0,0,0-.883.883v2.357a.886.886,0,0,0,.883.883h11.317a.886.886,0,0,0,.883-.883Z" transform="translate(-324.142 -8.617)"/>
      </g>
      <path id="Path_538" data-name="Path 538" class="cls-15" d="M79.745,70.027a1.772,1.772,0,0,0-1.767-1.767H10.092a1.772,1.772,0,0,0-1.767,1.767V106.3a1.772,1.772,0,0,0,1.767,1.767H77.978a1.772,1.772,0,0,0,1.767-1.767Z" transform="translate(-7.125 -58.46)"/>
      <path id="Path_539" data-name="Path 539" class="cls-3" d="M261.772,137.323h33.111a1.772,1.772,0,0,0,1.767-1.767V102.445A34.878,34.878,0,0,0,261.772,137.323Z" transform="translate(-224.03 -87.717)"/>
      <g id="Group_136" data-name="Group 136" transform="translate(8.92 20.094)">
        <path id="Path_540" data-name="Path 540" class="cls-7" d="M83.731,142.063H63.067a1.2,1.2,0,0,1,0-2.4H83.731a1.2,1.2,0,0,1,0,2.4Z" transform="translate(-61.867 -139.662)"/>
        <path id="Path_541" data-name="Path 541" class="cls-7" d="M77.668,179.747h-14.6a1.2,1.2,0,1,1,0-2.4h14.6a1.2,1.2,0,1,1,0,2.4Z" transform="translate(-61.868 -171.913)"/>
      </g>
      <path id="Path_542" data-name="Path 542" class="cls-10" d="M70.853,51.1a2.97,2.97,0,0,0,2.967-2.967V11.858a2.97,2.97,0,0,0-2.967-2.967H61.11V6.816h4.457a2.086,2.086,0,0,0,2.084-2.084V2.376A2.086,2.086,0,0,0,65.567.292H54.25a2.086,2.086,0,0,0-2.084,2.084V4.732A2.086,2.086,0,0,0,54.25,6.816h4.459V8.891H38.11V6.816h4.458a2.086,2.086,0,0,0,2.084-2.084V2.376A2.086,2.086,0,0,0,42.568.292H31.251a2.086,2.086,0,0,0-2.084,2.084V4.732a2.086,2.086,0,0,0,2.084,2.084H35.71V8.891h-20.6V6.816h4.458a2.086,2.086,0,0,0,2.084-2.084V2.376A2.086,2.086,0,0,0,19.569.292H8.252A2.086,2.086,0,0,0,6.168,2.376V4.732A2.086,2.086,0,0,0,8.252,6.816H12.71V8.891H2.967A2.97,2.97,0,0,0,0,11.858V48.131A2.97,2.97,0,0,0,2.967,51.1H32.575v2.156H1.2a1.2,1.2,0,0,0,0,2.4H24.934v4.178a2.41,2.41,0,0,0,2.408,2.407h5.233V72.828a1.2,1.2,0,0,0,1.2,1.2h6.271a1.2,1.2,0,0,0,1.2-1.2V62.24H46.48a2.41,2.41,0,0,0,2.408-2.407V55.655H72.62a1.2,1.2,0,0,0,0-2.4H41.246V51.1ZM54.567,4.415V2.692H65.25V4.415H54.567Zm-23,0V2.692H42.251V4.415H31.568Zm-23,0V2.692H19.252V4.415H8.569ZM38.846,71.628H34.975V62.24h3.871Zm7.64-15.973-.006,4.185-19.146-.007V55.655Zm-11.51-2.4V51.1h3.871v2.156ZM2.967,48.7a.574.574,0,0,1-.566-.566V11.858a.574.574,0,0,1,.566-.566H70.853a.574.574,0,0,1,.566.566V48.131a.574.574,0,0,1-.566.566Z" transform="translate(0 -0.292)"/>
    </g>
  </g>
</svg>
