<svg id="Group_2946" data-name="Group 2946" xmlns="http://www.w3.org/2000/svg" viewBox="-1664.528 1858.912 683.258 589.088">
  <defs>
    <style>
      .cls-1 {
        fill: #333e48;
      }

      .cls-2 {
        fill: #e6a61c;
      }

      .cls-3 {
        fill: #ffb61e;
      }

      .cls-4 {
        fill: #ff5959;
      }

      .cls-5 {
        fill: #0071ce;
      }

      .cls-6 {
        fill: #283139;
      }
    </style>
  </defs>
  <g id="Group_2926" data-name="Group 2926" transform="translate(606 -352.038)">
    <path id="Union_5" data-name="Union 5" class="cls-1" d="M169.168,340.438H37.043C16.59,340.438,0,324.182,0,304.138V276.5H212.851v27.635c0,20.044-16.59,36.3-37.043,36.3ZM0,62.416V36.3C0,16.256,16.591,0,37.044,0H175.808c20.455,0,37.045,16.256,37.045,36.3V62.416Z" transform="translate(-1800.122 2210.949)"/>
    <path id="Path_7066" data-name="Path 7066" class="cls-2" d="M446.936,198.457l63.886,70.312H458.844l-37.9-41.7Z" transform="translate(-2121.126 2218.683)"/>
    <path id="Path_7067" data-name="Path 7067" class="cls-3" d="M446.869,234.635l37.9,41.7H351.206V222.822h3.6L395.465,178.1Z" transform="translate(-2147.048 2211.117)"/>
    <path id="Path_7068" data-name="Path 7068" class="cls-4" d="M460.378,131.78a30.657,30.657,0,1,1-30.657,30.657A30.664,30.664,0,0,1,460.378,131.78Z" transform="translate(-2117.865 2193.9)"/>
    <path id="Path_7069" data-name="Path 7069" class="cls-5" d="M208.571,0V214.087H185.539l-63.887-70.313L95.663,172.384l-51.4-56.534L3.6,160.573H0V0ZM169.01,82.972a30.657,30.657,0,1,0-30.657,30.657A30.664,30.664,0,0,0,169.01,82.972Z" transform="translate(-1795.841 2273.365)"/>
    <path id="Path_7063" data-name="Path 7063" class="cls-6" d="M359.539,48.138H397.9a36.3,36.3,0,0,0-36.3,36.3V352.276a36.3,36.3,0,0,0,36.3,36.3H359.539a36.3,36.3,0,0,1-36.3-36.3V84.453A36.307,36.307,0,0,1,359.539,48.138Z" transform="translate(-2157.443 2162.811)"/>
  </g>
  <path id="Path_7070" data-name="Path 7070" class="cls-5" d="M596.817,247.27v77.811H361.7L248.223,197.7,202.2,249.353,111.175,147.271,0,263.806V35.3C0,15.8,15.51,0,34.617,0H388.081V209.415c0,20.9,16.623,37.856,37.118,37.856H596.817ZM332.053,87.913c0-30.571-24.288-55.358-54.264-55.358S223.51,57.342,223.51,87.913s24.3,55.342,54.279,55.342S332.053,118.485,332.053,87.913Z" transform="translate(-1614.022 1950.668)"/>
  <path id="Path_7071" data-name="Path 7071" class="cls-4" d="M260.189,146.23c29.976,0,54.264,24.786,54.264,55.358s-24.288,55.342-54.264,55.342-54.279-24.771-54.279-55.342S230.214,146.23,260.189,146.23Z" transform="translate(-1596.421 1836.993)"/>
  <path id="Path_7072" data-name="Path 7072" class="cls-2" d="M236.74,261.672,350.219,389.057H258.2l-67.485-75.728Z" transform="translate(-1602.539 1886.692)"/>
  <path id="Path_7073" data-name="Path 7073" class="cls-3" d="M248.758,328.5l67.485,75.728H46.56V342.956L157.735,226.423Z" transform="translate(-1660.582 1871.517)"/>
  <path id="Path_7022" data-name="Path 7022" class="cls-6" d="M346.159,374.677l-20.2,82.085H178.748l20.2-82.085Z" transform="translate(-1620.967 1967.027)"/>
  <path id="Path_7024" data-name="Path 7024" class="cls-6" d="M225.653,540.425s-3.06,17.394-.746,20.347a12.213,12.213,0,0,0,9.61,4.679H478.361a12.211,12.211,0,0,0,0-24.422H397.3Z" transform="translate(-1667.736 1882.549)"/>
  <path id="Path_7023" data-name="Path 7023" class="cls-1" d="M646.048,322.882v33.473a34.545,34.545,0,0,1-34.6,34.482H84.181a34.555,34.555,0,0,1-34.6-34.482V322.882H646.048Z" transform="translate(-1663.253 1952.867)"/>
  <path id="Path_7021" data-name="Path 7021" class="cls-6" d="M49.274,74.756H96.633a34.487,34.487,0,0,0-34.482,34.482V433.771a34.5,34.5,0,0,0,34.482,34.482H49.274A39.979,39.979,0,0,1,9.305,428.269V114.74A39.979,39.979,0,0,1,49.274,74.756Z" transform="translate(-1673.833 1875.452)"/>
</svg>
