<svg id="Group_2795" data-name="Group 2795" xmlns="http://www.w3.org/2000/svg" viewBox="-4562 2084 511.997 433.209">
  <defs>
    <style>
      .cls-1 {
        fill: #828689;
      }

      .cls-2 {
        fill: #333e48;
      }

      .cls-3 {
        fill: #e6a61c;
      }

      .cls-4 {
        fill: #ffb61e;
      }

      .cls-5 {
        fill: #ff5959;
      }

      .cls-6 {
        fill: #0071ce;
      }

      .cls-7 {
        fill: #d1d3d3;
      }

      .cls-8 {
        fill: #1e252b;
      }
    </style>
  </defs>
  <path id="Path_7062" data-name="Path 7062" class="cls-1" d="M287.676,405.1l-14.461,58.764H167.852L182.325,405.1Z" transform="translate(-4562 2044.606)"/>
  <path id="Path_7063" data-name="Path 7063" class="cls-2" d="M349.7,48.138h27.966A26.467,26.467,0,0,0,351.206,74.6V269.863a26.467,26.467,0,0,0,26.463,26.463H349.7a26.467,26.467,0,0,1-26.463-26.463V74.613A26.469,26.469,0,0,1,349.7,48.138Z" transform="translate(-4562 2044.606)"/>
  <path id="Union_5" data-name="Union 5" class="cls-2" d="M120.849,248.189H26.463A26.467,26.467,0,0,1,0,221.725V201.578H152.055v20.146a26.467,26.467,0,0,1-26.463,26.464ZM0,45.5V26.463A26.467,26.467,0,0,1,26.464,0h99.129a26.467,26.467,0,0,1,26.464,26.463V45.5Z" transform="translate(-4210.795 2092.744)"/>
  <path id="Path_7066" data-name="Path 7066" class="cls-3" d="M439.894,198.457l46.575,51.259H448.575l-27.628-30.4Z" transform="translate(-4562 2044.606)"/>
  <path id="Path_7067" data-name="Path 7067" class="cls-4" d="M420.947,219.315l27.628,30.4H351.206V210.7h2.622l29.644-32.6Z" transform="translate(-4562 2044.606)"/>
  <path id="Path_7068" data-name="Path 7068" class="cls-5" d="M452.071,131.78a22.35,22.35,0,1,1-22.35,22.35A22.355,22.355,0,0,1,452.071,131.78Z" transform="translate(-4562 2044.606)"/>
  <path id="Union_4" data-name="Union 4" class="cls-6" d="M257.872,257.08l-80.9-89.049-32.814,36.111L79.261,132.781,0,214.245V54.511A24.684,24.684,0,0,1,24.68,29.831h252V176.223a26.467,26.467,0,0,0,26.463,26.464H425.495V257.08ZM159.349,91.287a38.693,38.693,0,1,0,38.7-38.7A38.691,38.691,0,0,0,159.349,91.287ZM439.91,156.075l-46.575-51.26-18.947,20.858L336.913,84.458l-29.644,32.6h-2.622V0H456.7V156.075ZM383.16,60.489a22.35,22.35,0,1,0,22.351-22.35A22.354,22.354,0,0,0,383.16,60.489Z" transform="translate(-4515.44 2138.247)"/>
  <path id="Path_7071" data-name="Path 7071" class="cls-5" d="M244.608,146.23a38.692,38.692,0,1,1-38.7,38.7A38.69,38.69,0,0,1,244.608,146.23Z" transform="translate(-4562 2044.606)"/>
  <path id="Path_7072" data-name="Path 7072" class="cls-3" d="M223.528,261.672l80.9,89.049h-65.6l-48.113-52.938Z" transform="translate(-4562 2044.606)"/>
  <path id="Path_7073" data-name="Path 7073" class="cls-4" d="M190.715,297.783l48.113,52.938H46.56V307.886l79.261-81.463Z" transform="translate(-4562 2044.606)"/>
  <path id="Path_7074" data-name="Path 7074" class="cls-7" d="M37.355,123.472H71.24a24.684,24.684,0,0,0-24.68,24.68V380.435A24.681,24.681,0,0,0,71.24,405.1H37.355A28.615,28.615,0,0,1,8.736,376.5V152.079A28.615,28.615,0,0,1,37.355,123.472Z" transform="translate(-4562 2044.606)"/>
  <path id="Path_7075" data-name="Path 7075" class="cls-7" d="M472.055,350.721v29.714a24.674,24.674,0,0,1-24.68,24.669H71.24a24.681,24.681,0,0,1-24.68-24.669V350.721H472.055Z" transform="translate(-4562 2044.606)"/>
  <path id="Path_7076" data-name="Path 7076" class="cls-8" d="M244.606,137.494a47.431,47.431,0,1,0,47.431,47.431A47.486,47.486,0,0,0,244.606,137.494Zm0,77.383a29.952,29.952,0,1,1,29.952-29.953A29.988,29.988,0,0,1,244.606,214.877Z" transform="translate(-4562 2044.606)"/>
  <path id="Path_7077" data-name="Path 7077" class="cls-8" d="M452.072,123.043a31.087,31.087,0,1,0,31.087,31.087A31.123,31.123,0,0,0,452.072,123.043Zm0,44.7A13.608,13.608,0,1,1,465.68,154.13,13.624,13.624,0,0,1,452.072,167.738Z" transform="translate(-4562 2044.606)"/>
  <path id="Path_7078" data-name="Path 7078" class="cls-8" d="M476.794,39.4,349.7,39.394a35.248,35.248,0,0,0-35.2,35.214V114.73H37.35A37.393,37.393,0,0,0,0,152.08V376.494a37.392,37.392,0,0,0,37.35,37.35H171.167l-11.8,47.928c-.01.041-.014.083-.023.124-.048.21-.086.423-.119.639-.016.1-.035.207-.048.312-.024.207-.035.418-.044.632-.005.107-.015.216-.016.324,0,.021,0,.041,0,.061,0,.261.016.519.038.774,0,.033,0,.066.005.1a8.706,8.706,0,0,0,.148.946c.008.04.021.078.03.119.061.267.132.53.216.787.024.073.054.146.08.219.079.22.164.437.26.649.04.087.083.174.126.26.1.193.2.383.3.567.054.091.107.181.164.27.114.179.237.352.364.522.043.058.079.121.125.179.02.024.043.047.063.071.154.192.317.374.486.552.045.048.086.1.133.146a8.475,8.475,0,0,0,.683.616c.063.051.129.1.193.146.182.14.367.275.559.4.083.054.169.1.254.154.183.111.369.217.562.313.089.045.178.087.268.129.2.092.4.175.6.252.09.034.179.068.269.1.212.072.428.133.646.189.089.023.175.049.263.068.231.051.465.09.7.121.079.01.157.027.238.036a8.91,8.91,0,0,0,.957.055h174.53a8.739,8.739,0,0,0,0-17.478H284.363l10.161-41.278,152.849-.005a33.452,33.452,0,0,0,33.42-33.408v-75.6A35.251,35.251,0,0,0,512,269.862V74.605A35.241,35.241,0,0,0,476.794,39.4Zm17.727,35.206v10.3H359.942v-10.3a17.746,17.746,0,0,1,17.727-17.726h99.125A17.744,17.744,0,0,1,494.521,74.605ZM359.942,216.27l.348.316,23.179-25.5,45.358,49.893H359.943V216.27Zm92.505,24.708-19.7-21.665,7.142-7.859,26.829,29.523H452.447Zm37.894,0-43.979-48.4a8.74,8.74,0,0,0-12.936,0L420.94,206.32l-31.006-34.107a8.737,8.737,0,0,0-12.933,0l-17.059,18.768v-88.6H494.52V240.977ZM331.98,74.609a17.743,17.743,0,0,1,15.175-17.53,34.983,34.983,0,0,0-4.693,17.527V269.86a34.979,34.979,0,0,0,4.688,17.519,17.737,17.737,0,0,1-15.171-17.519V74.609ZM349.7,305.063l113.613,0v36.91H308.3L229.991,255.8a8.739,8.739,0,0,0-12.935,0l-26.344,28.987L132.289,220.54a8.738,8.738,0,0,0-6.318-2.858,8.826,8.826,0,0,0-6.411,2.644L55.3,286.369V148.148A15.957,15.957,0,0,1,71.209,132.21H314.5V269.86A35.242,35.242,0,0,0,349.7,305.063ZM55.3,311.432l70.306-72.26,93.467,102.8H55.3Zm187.393,30.544-40.171-44.2,21-23.107,61.163,67.3H242.694ZM17.479,376.494V152.08A19.893,19.893,0,0,1,37.35,132.209h4.525a33.216,33.216,0,0,0-4.053,15.938V380.43a33.186,33.186,0,0,0,4.053,15.934H37.35A19.892,19.892,0,0,1,17.479,376.494Zm248.885,78.628H179.006l10.161-41.278h87.358Zm181.012-58.761H71.242A15.953,15.953,0,0,1,55.3,380.432V359.455H463.317v20.977A15.954,15.954,0,0,1,447.376,396.361Zm29.418-108.775-99.193,0a17.745,17.745,0,0,1-17.66-17.724v-11.4H494.52v11.4A17.745,17.745,0,0,1,476.794,287.586Z" transform="translate(-4562 2044.606)"/>
</svg>
