<svg xmlns="http://www.w3.org/2000/svg" viewBox="-1215.521 -2454 119.041 52.408">
  <defs>
    <style>
      .cls-1 {
        fill: #8ea3ad;
      }

      .cls-2 {
        fill: #adbdc4;
      }

      .cls-3 {
        fill: #d13834;
      }

      .cls-4 {
        fill: #ad302d;
      }

      .cls-5 {
        fill: #7a8b93;
      }

      .cls-6 {
        fill: #e95552;
      }
    </style>
  </defs>
  <g id="Group_2849" data-name="Group 2849" transform="translate(-549 -219)">
    <g id="Group_2847" data-name="Group 2847" transform="translate(-652.043 -2207.62)">
      <path id="Path_7258" data-name="Path 7258" class="cls-1" d="M62.27,280.687c0-4.55,1.908-9.267,5.67-14.021a38.906,38.906,0,0,1,5.426-5.606l5.063,6.249c-2.259,1.843-8.117,7.837-8.117,13.378H62.27Z" transform="translate(-62.27 -261.06)"/>
      <path id="Path_7259" data-name="Path 7259" class="cls-1" d="M375.488,280.686c0-5.541-5.86-11.537-8.118-13.379l5.065-6.248a38.937,38.937,0,0,1,5.426,5.606c3.762,4.754,5.67,9.471,5.67,14.021h-8.044Z" transform="translate(-296.434 -261.059)"/>
    </g>
    <path id="Path_7260" data-name="Path 7260" class="cls-2" d="M86.25,276.91H22.885a30.5,30.5,0,0,1-21.707-8.991,4.022,4.022,0,0,1,5.687-5.688,22.508,22.508,0,0,0,16.02,6.636H86.25a22.565,22.565,0,0,0,17.57-8.354l8.08-9.927a4.022,4.022,0,0,1,6.238,5.077l-8.08,9.927A30.576,30.576,0,0,1,86.25,276.91Z" transform="translate(-666.52 -2459.502)"/>
    <path id="Path_7261" data-name="Path 7261" class="cls-3" d="M88.88,168.315a15.74,15.74,0,0,0-12.211-5.808H67.794a15.739,15.739,0,0,1-12.341-5.971h0c-2.985-3.772-7.531-3.673-12.341-3.673H28.041l-3.366,2.721,8.991,15.908L52.11,181.635H94.761v-3.791Z" transform="translate(-685.459 -2385.638)"/>
    <path id="Path_7262" data-name="Path 7262" class="cls-4" d="M46.264,168.569a21.992,21.992,0,0,1-8.114-8.879l-3.414-6.827H28.041l-3.366,2.721,8.991,15.908L52.11,181.635H94.761v-3.791l-3.7-5.988H57.835A21.992,21.992,0,0,1,46.264,168.569Z" transform="translate(-685.459 -2385.639)"/>
    <g id="Group_2848" data-name="Group 2848" transform="translate(-648.36 -2207.619)">
      <path id="Path_7263" data-name="Path 7263" class="cls-5" d="M377.86,266.667a38.889,38.889,0,0,0-5.426-5.606l-5.065,6.248a30.143,30.143,0,0,1,4.982,5.41,42.233,42.233,0,0,0,7.457-3.339Q378.935,268.027,377.86,266.667Z" transform="translate(-300.116 -261.061)"/>
      <path id="Path_7264" data-name="Path 7264" class="cls-5" d="M80.1,266.667q-1.1,1.391-1.987,2.777a42.019,42.019,0,0,0,7.466,3.319,30.14,30.14,0,0,1,5.011-5.453l-5.063-6.249A38.841,38.841,0,0,0,80.1,266.667Z" transform="translate(-78.11 -261.061)"/>
    </g>
    <path id="Path_7265" data-name="Path 7265" class="cls-6" d="M81.913,178.545H43.795a36.04,36.04,0,0,1-32.236-19.922l-4.752-9.505A4.022,4.022,0,0,1,14,145.52l4.753,9.505A28,28,0,0,0,43.795,170.5H81.913a28.1,28.1,0,0,0,17.521-6.16l11.047-8.863a4.022,4.022,0,0,1,5.033,6.274l-11.047,8.863A36.166,36.166,0,0,1,81.913,178.545Z" transform="translate(-671.418 -2378.296)"/>
    <path id="Path_7266" data-name="Path 7266" class="cls-6" d="M206.044,222.022H194.287a2.873,2.873,0,1,1,0-5.745h11.757a2.873,2.873,0,1,1,0,5.745Z" transform="translate(-813.43 -2434.309)"/>
  </g>
</svg>
