<svg xmlns="http://www.w3.org/2000/svg" viewBox="3482.187 79 345.626 306.386">
  <defs>
    <style>
      .cls-1 {
        fill: #ff5959;
      }

      .cls-2 {
        fill: #fff;
      }

      .cls-3 {
        fill: #1e252b;
      }
    </style>
  </defs>
  <g id="stop" transform="translate(3482.187 49.935)">
    <path id="Path_6845" data-name="Path 6845" class="cls-1" d="M101.064,332.618c-6.009,0-13.384-4.258-16.388-9.462L10.309,194.349c-3-5.2-3-13.719,0-18.922L84.676,46.619c3-5.2,10.379-9.462,16.388-9.462H249.8c6.009,0,13.384,4.258,16.388,9.462l74.366,128.808c3,5.2,3,13.719,0,18.922L266.186,323.156c-3,5.2-10.379,9.462-16.388,9.462Z" transform="translate(-2.618 -2.629)"/>
    <g id="Group_2743" data-name="Group 2743" transform="translate(24.015 52.663)">
      <path id="Path_6846" data-name="Path 6846" class="cls-2" d="M256.041,323.212H112.706a5.462,5.462,0,0,1-4.731-2.731L36.308,196.348a5.461,5.461,0,0,1,0-5.463L107.975,66.753a5.463,5.463,0,0,1,4.731-2.731H256.041a5.462,5.462,0,0,1,4.731,2.731L332.44,190.886a5.461,5.461,0,0,1,0,5.463L260.772,320.481A5.463,5.463,0,0,1,256.041,323.212ZM115.86,312.287H252.888L321.4,193.617,252.888,74.947H115.86L47.345,193.617Z" transform="translate(-35.576 -64.022)"/>
      <path id="Path_6847" data-name="Path 6847" class="cls-2" d="M117.951,260.083a4.073,4.073,0,0,1,2.413-7.386,4.051,4.051,0,0,1,2.558.781,21.553,21.553,0,0,0,13.918,5.113c5.4,0,8.807-2.556,8.807-6.25V252.2c0-3.551-1.989-5.469-11.221-7.6-10.581-2.556-16.548-5.681-16.548-14.842v-.142c0-8.522,7.1-14.416,16.974-14.416a27.354,27.354,0,0,1,15.765,4.616,3.944,3.944,0,0,1,1.918,3.479,4.062,4.062,0,0,1-4.118,4.048,4.228,4.228,0,0,1-2.273-.639,20.678,20.678,0,0,0-11.433-3.763c-5.114,0-8.1,2.627-8.1,5.895v.142c0,3.835,2.272,5.539,11.86,7.812,10.51,2.556,15.907,6.32,15.907,14.558v.142c0,9.3-7.315,14.842-17.753,14.842A30.956,30.956,0,0,1,117.951,260.083Z" transform="translate(-61.789 -113.147)"/>
      <path id="Path_6848" data-name="Path 6848" class="cls-2" d="M196.749,224.349H184.676a4.048,4.048,0,0,1,0-8.1H217.7a4.049,4.049,0,0,1,0,8.1H205.555v37.639a4.4,4.4,0,0,1-8.805,0V224.349Z" transform="translate(-82.71 -113.489)"/>
      <path id="Path_6849" data-name="Path 6849" class="cls-2" d="M247.324,240.84V240.7c0-13.99,10.794-25.708,26.062-25.708s25.922,11.576,25.922,25.566v.142c0,13.99-10.794,25.708-26.062,25.708S247.324,254.831,247.324,240.84Zm42.823,0V240.7c0-9.658-7.03-17.683-16.9-17.683s-16.761,7.883-16.761,17.542v.142c0,9.659,7.03,17.612,16.9,17.612S290.147,250.5,290.147,240.84Z" transform="translate(-104.383 -113.079)"/>
      <path id="Path_6850" data-name="Path 6850" class="cls-2" d="M340.005,220.656a4.336,4.336,0,0,1,4.4-4.4h15.2c11.646,0,18.891,6.6,18.891,16.618v.142c0,11.15-8.948,16.973-19.885,16.973h-9.871v12a4.368,4.368,0,0,1-8.736,0Zm18.89,21.447c6.6,0,10.725-3.693,10.725-8.877v-.142c0-5.824-4.191-8.877-10.725-8.877H348.741v17.9Z" transform="translate(-134.5 -113.489)"/>
    </g>
    <path id="Path_6851" data-name="Path 6851" class="cls-3" d="M247.18,335.451H98.446c-7.895,0-17.171-5.356-21.118-12.193L2.961,194.45c-3.948-6.837-3.948-17.548,0-24.385L77.328,41.258c3.948-6.837,13.224-12.193,21.118-12.193H247.18c7.895,0,17.171,5.356,21.118,12.193l74.367,128.808c3.948,6.837,3.948,17.548,0,24.385L268.3,323.259C264.351,330.1,255.075,335.451,247.18,335.451ZM98.447,39.99c-4.067,0-9.624,3.208-11.657,6.73L12.422,175.527c-2.033,3.522-2.033,9.938,0,13.46L86.789,317.8c2.033,3.522,7.59,6.73,11.657,6.73H247.181c4.067,0,9.624-3.208,11.657-6.73l74.367-128.807c2.033-3.522,2.033-9.937,0-13.46L258.837,46.72c-2.033-3.522-7.59-6.73-11.657-6.73Z"/>
  </g>
</svg>
