<svg xmlns="http://www.w3.org/2000/svg" viewBox="9985 -1444 130 63.882">
  <defs>
    <style>
      .cls-1 {
        fill: #d1d3d3;
      }

      .cls-2 {
        opacity: 0.1;
      }

      .cls-3 {
        fill: #ffb819;
      }

      .cls-4 {
        fill: #00b3e3;
      }

      .cls-5 {
        fill: #fff;
      }

      .cls-6 {
        fill: #333e48;
      }

      .cls-7 {
        fill: #a4a9ad;
      }

      .cls-8 {
        opacity: 0.2;
      }
    </style>
  </defs>
  <g id="taxi" transform="translate(9985 -1574.202)">
    <path id="Path_7495" data-name="Path 7495" class="cls-1" d="M285.193,138.576a2.3,2.3,0,0,1-2.338,2.744h-8.316a2.3,2.3,0,0,1-2.338-2.744l.9-5.63a3.382,3.382,0,0,1,3.221-2.744h4.743a3.381,3.381,0,0,1,3.221,2.744Z" transform="translate(-203.061)"/>
    <path id="Path_7496" data-name="Path 7496" class="cls-2" d="M285.193,154.912l-.452-2.815H272.652l-.452,2.815a2.3,2.3,0,0,0,2.338,2.744h8.316A2.3,2.3,0,0,0,285.193,154.912Z" transform="translate(-203.061 -16.336)"/>
    <path id="Path_7497" data-name="Path 7497" class="cls-3" d="M139.048,185.778c-.428-3.908-3.149-7-7-7H118l-8.46-13.4a14.174,14.174,0,0,0-10.735-5.919H49.351a9.859,9.859,0,0,0-8.928,6.728l-3.592,12.533c-.006.019-.009.038-.015.056H28.8a7.02,7.02,0,0,0-7,7V199.94H140.728Z" transform="translate(-16.262 -21.83)"/>
    <path id="Path_7498" data-name="Path 7498" class="cls-4" d="M459.552,267.986h-8.376v6.8h9.183Z" transform="translate(-336.62 -102.8)"/>
    <path id="Path_7499" data-name="Path 7499" class="cls-5" d="M447.781,274.788h-2.306a.98.98,0,0,1-.977-.977v-4.851a.98.98,0,0,1,.977-.977h2.306Z" transform="translate(-331.637 -102.798)"/>
    <path id="Path_7500" data-name="Path 7500" class="cls-2" d="M76.306,258.55a17.187,17.187,0,0,0-17.084,15.32H93.389A17.187,17.187,0,0,0,76.306,258.55Z" transform="translate(-44.185 -95.76)"/>
    <circle id="Ellipse_302" data-name="Ellipse 302" class="cls-6" cx="14.107" cy="14.107" r="14.107" transform="translate(18.013 165.87)"/>
    <circle id="Ellipse_303" data-name="Ellipse 303" class="cls-7" cx="7.151" cy="7.151" r="7.151" transform="translate(24.969 172.827)"/>
    <path id="Path_7501" data-name="Path 7501" class="cls-2" d="M320.765,258.55a17.187,17.187,0,0,0-17.084,15.32h34.167A17.187,17.187,0,0,0,320.765,258.55Z" transform="translate(-226.574 -95.76)"/>
    <circle id="Ellipse_304" data-name="Ellipse 304" class="cls-6" cx="14.107" cy="14.107" r="14.107" transform="translate(80.083 165.87)"/>
    <circle id="Ellipse_305" data-name="Ellipse 305" class="cls-7" cx="7.151" cy="7.151" r="7.151" transform="translate(87.039 172.827)"/>
    <g id="Group_2900" data-name="Group 2900" transform="translate(0 171.99)">
      <path id="Path_7502" data-name="Path 7502" class="cls-6" d="M479.476,301.619a2.612,2.612,0,0,1-2.6,2.6h-5.86a2.612,2.612,0,0,1-2.6-2.6v-4.232a2.612,2.612,0,0,1,2.6-2.6h5.86a2.612,2.612,0,0,1,2.6,2.6Z" transform="translate(-349.476 -294.783)"/>
      <path id="Path_7503" data-name="Path 7503" class="cls-6" d="M11.068,301.619a2.612,2.612,0,0,1-2.6,2.6H2.6a2.612,2.612,0,0,1-2.6-2.6v-4.232a2.612,2.612,0,0,1,2.6-2.6h5.86a2.612,2.612,0,0,1,2.6,2.6v4.232Z" transform="translate(0 -294.783)"/>
    </g>
    <rect id="Rectangle_645" data-name="Rectangle 645" class="cls-4" width="7.575" height="6.804" transform="translate(5.534 165.186)"/>
    <path id="Path_7504" data-name="Path 7504" class="cls-5" d="M45.373,274.788h2.306a.98.98,0,0,0,.977-.977v-4.851a.98.98,0,0,0-.977-.977H45.373Z" transform="translate(-33.853 -102.798)"/>
    <path id="Path_7505" data-name="Path 7505" class="cls-4" d="M241.951,184.99a2.788,2.788,0,0,1,2.78-2.78h18.722a5.734,5.734,0,0,1,4.3,2.33l4.332,6.658c.834,1.281.265,2.33-1.264,2.33H244.731a2.788,2.788,0,0,1-2.78-2.78V184.99h0Z" transform="translate(-180.518 -38.803)"/>
    <g id="Group_2901" data-name="Group 2901" transform="translate(31.421 143.407)">
      <path id="Path_7506" data-name="Path 7506" class="cls-6" d="M241.951,184.99a2.788,2.788,0,0,1,2.78-2.78h18.722a5.734,5.734,0,0,1,4.3,2.33l4.332,6.658c.834,1.281.265,2.33-1.264,2.33H244.731a2.788,2.788,0,0,1-2.78-2.78V184.99h0Z" transform="translate(-211.939 -182.21)"/>
      <path id="Path_7507" data-name="Path 7507" class="cls-6" d="M125.814,184.858a4.073,4.073,0,0,1,3.631-2.646h15.8a2.788,2.788,0,0,1,2.78,2.78v5.759a2.788,2.788,0,0,1-2.78,2.78H125.806a1.91,1.91,0,0,1-1.929-2.646Z" transform="translate(-123.751 -182.212)"/>
    </g>
    <path id="Path_7508" data-name="Path 7508" class="cls-8" d="M267.748,184.541a5.734,5.734,0,0,0-4.3-2.33H244.73a2.788,2.788,0,0,0-2.78,2.78v2.589a2.788,2.788,0,0,1,2.78-2.78h20.946a5.526,5.526,0,0,1,2.865.96Z" transform="translate(-180.517 -38.804)"/>
    <path id="Path_7509" data-name="Path 7509" class="cls-8" d="M149.946,182.211h-15.8a4.074,4.074,0,0,0-3.631,2.646l-.464,1.443a4.075,4.075,0,0,1,2.983-1.5h16.915a2.788,2.788,0,0,1,2.78,2.78v-2.589A2.787,2.787,0,0,0,149.946,182.211Z" transform="translate(-97.028 -38.804)"/>
    <g id="Group_2902" data-name="Group 2902" transform="translate(44.503 160.389)">
      <rect id="Rectangle_646" data-name="Rectangle 646" class="cls-6" width="4.002" height="4.003"/>
      <rect id="Rectangle_647" data-name="Rectangle 647" class="cls-6" width="4.002" height="4.002" transform="translate(4.003 4.003)"/>
      <rect id="Rectangle_648" data-name="Rectangle 648" class="cls-6" width="4.003" height="4.003" transform="translate(8.005)"/>
      <rect id="Rectangle_649" data-name="Rectangle 649" class="cls-6" width="4.002" height="4.002" transform="translate(12.008 4.003)"/>
      <rect id="Rectangle_650" data-name="Rectangle 650" class="cls-6" width="4.003" height="4.003" transform="translate(16.011)"/>
      <rect id="Rectangle_651" data-name="Rectangle 651" class="cls-6" width="4.002" height="4.002" transform="translate(20.014 4.003)"/>
      <rect id="Rectangle_652" data-name="Rectangle 652" class="cls-6" width="4.002" height="4.003" transform="translate(24.014)"/>
      <rect id="Rectangle_653" data-name="Rectangle 653" class="cls-6" width="4.003" height="4.002" transform="translate(28.016 4.003)"/>
      <rect id="Rectangle_654" data-name="Rectangle 654" class="cls-6" width="4.002" height="4.003" transform="translate(32.019)"/>
    </g>
    <g id="Group_2903" data-name="Group 2903" transform="translate(44.503 160.389)">
      <rect id="Rectangle_655" data-name="Rectangle 655" class="cls-5" width="4.002" height="4.002" transform="translate(32.019 4.003)"/>
      <rect id="Rectangle_656" data-name="Rectangle 656" class="cls-5" width="4.003" height="4.003" transform="translate(28.016)"/>
      <rect id="Rectangle_657" data-name="Rectangle 657" class="cls-5" width="4.002" height="4.002" transform="translate(24.014 4.003)"/>
      <rect id="Rectangle_658" data-name="Rectangle 658" class="cls-5" width="4.002" height="4.003" transform="translate(20.014)"/>
      <rect id="Rectangle_659" data-name="Rectangle 659" class="cls-5" width="4.003" height="4.002" transform="translate(16.011 4.003)"/>
      <rect id="Rectangle_660" data-name="Rectangle 660" class="cls-5" width="4.002" height="4.003" transform="translate(12.008)"/>
      <rect id="Rectangle_661" data-name="Rectangle 661" class="cls-5" width="4.003" height="4.002" transform="translate(8.005 4.003)"/>
      <rect id="Rectangle_662" data-name="Rectangle 662" class="cls-5" width="4.002" height="4.003" transform="translate(4.003)"/>
      <rect id="Rectangle_663" data-name="Rectangle 663" class="cls-5" width="4.002" height="4.002" transform="translate(0 4.003)"/>
    </g>
  </g>
</svg>
