<svg xmlns="http://www.w3.org/2000/svg" viewBox="6076.989 2662.574 102.021 51.908">
  <defs>
    <style>
      .cls-1 {
        fill: #d1d3d3;
      }

      .cls-2 {
        opacity: 0.1;
      }

      .cls-3 {
        fill: #ffb819;
      }

      .cls-4 {
        fill: #00b3e3;
      }

      .cls-5 {
        fill: #fff;
      }

      .cls-6 {
        fill: #333e48;
      }

      .cls-7 {
        fill: #a4a9ad;
      }

      .cls-8 {
        opacity: 0.2;
      }

      .cls-9 {
        fill: #1e252b;
      }
    </style>
  </defs>
  <g id="Taxi" transform="translate(6076.989 2662.574)">
    <path id="Path_6875" data-name="Path 6875" class="cls-1" d="M281.541,140.479a1.748,1.748,0,0,1-1.778,2.087h-6.324a1.748,1.748,0,0,1-1.778-2.087l.688-4.281a2.571,2.571,0,0,1,2.449-2.087H278.4a2.571,2.571,0,0,1,2.449,2.087Z" transform="translate(-217.503 -132.526)"/>
    <path id="Path_6876" data-name="Path 6876" class="cls-2" d="M281.54,157.466l-.344-2.14H272l-.344,2.14a1.748,1.748,0,0,0,1.778,2.087h6.324a1.748,1.748,0,0,0,1.778-2.087Z" transform="translate(-217.502 -149.514)"/>
    <path id="Path_6877" data-name="Path 6877" class="cls-3" d="M118.23,182.472c-.326-2.972-2.395-5.322-5.322-5.322H102.226l-6.433-10.189a10.778,10.778,0,0,0-8.163-4.5h-37.6a7.5,7.5,0,0,0-6.789,5.116l-2.731,9.53c0,.014-.007.029-.011.043H34.4a5.338,5.338,0,0,0-5.322,5.322v10.769h90.434Z" transform="translate(-23.28 -155.227)"/>
    <path id="Path_6878" data-name="Path 6878" class="cls-4" d="M451.48,267.613h-6.369v5.174h6.983Z" transform="translate(-356.419 -239.426)"/>
    <path id="Path_6879" data-name="Path 6879" class="cls-5" d="M441.136,272.787h-1.754a.745.745,0,0,1-.743-.743v-3.688a.745.745,0,0,1,.743-.743h1.754Z" transform="translate(-351.237 -239.426)"/>
    <path id="Path_6880" data-name="Path 6880" class="cls-2" d="M78.328,258.47a13.068,13.068,0,0,0-12.99,11.648h25.98A13.069,13.069,0,0,0,78.328,258.47Z" transform="translate(-52.319 -232.105)"/>
    <circle id="Ellipse_264" data-name="Ellipse 264" class="cls-6" cx="10.727" cy="10.727" r="10.727" transform="translate(15.282 28.707)"/>
    <circle id="Ellipse_265" data-name="Ellipse 265" class="cls-7" cx="5.437" cy="5.437" r="5.437" transform="translate(20.571 33.996)"/>
    <path id="Path_6881" data-name="Path 6881" class="cls-2" d="M315.191,258.47a13.068,13.068,0,0,0-12.99,11.648h25.98A13.069,13.069,0,0,0,315.191,258.47Z" transform="translate(-241.985 -232.105)"/>
    <circle id="Ellipse_266" data-name="Ellipse 266" class="cls-6" cx="10.727" cy="10.727" r="10.727" transform="translate(62.479 28.707)"/>
    <circle id="Ellipse_267" data-name="Ellipse 267" class="cls-7" cx="5.437" cy="5.437" r="5.437" transform="translate(67.768 33.996)"/>
    <g id="Group_2759" data-name="Group 2759" transform="translate(1.585 33.36)">
      <path id="Path_6882" data-name="Path 6882" class="cls-6" d="M470.224,298.776a1.986,1.986,0,0,1-1.98,1.98h-4.455a1.986,1.986,0,0,1-1.98-1.98v-3.218a1.986,1.986,0,0,1,1.98-1.98h4.455a1.986,1.986,0,0,1,1.98,1.98Z" transform="translate(-371.374 -293.578)"/>
      <path id="Path_6883" data-name="Path 6883" class="cls-6" d="M16.372,298.776a1.986,1.986,0,0,1-1.98,1.98H9.936a1.986,1.986,0,0,1-1.98-1.98v-3.218a1.986,1.986,0,0,1,1.98-1.98h4.456a1.986,1.986,0,0,1,1.98,1.98Z" transform="translate(-7.956 -293.578)"/>
    </g>
    <rect id="Rectangle_379" data-name="Rectangle 379" class="cls-4" width="5.76" height="5.174" transform="translate(5.793 28.187)"/>
    <path id="Path_6884" data-name="Path 6884" class="cls-5" d="M51.918,272.787h1.753a.745.745,0,0,0,.743-.743v-3.688a.745.745,0,0,0-.743-.743H51.918Z" transform="translate(-41.573 -239.426)"/>
    <path id="Path_6885" data-name="Path 6885" class="cls-4" d="M242.386,186.614A2.12,2.12,0,0,1,244.5,184.5h14.236A4.359,4.359,0,0,1,262,186.272l3.294,5.063c.634.974.2,1.772-.961,1.772H244.5a2.12,2.12,0,0,1-2.113-2.113v-4.378h0Z" transform="translate(-194.088 -172.874)"/>
    <g id="Group_2760" data-name="Group 2760" transform="translate(25.476 11.626)">
      <path id="Path_6886" data-name="Path 6886" class="cls-6" d="M242.386,186.614A2.12,2.12,0,0,1,244.5,184.5h14.236A4.359,4.359,0,0,1,262,186.272l3.294,5.063c.634.974.2,1.772-.961,1.772H244.5a2.12,2.12,0,0,1-2.113-2.113v-4.378h0Z" transform="translate(-219.565 -184.5)"/>
      <path id="Path_6887" data-name="Path 6887" class="cls-6" d="M129.425,186.513a3.1,3.1,0,0,1,2.761-2.013H144.2a2.12,2.12,0,0,1,2.112,2.115v4.379a2.12,2.12,0,0,1-2.112,2.114H129.418a1.452,1.452,0,0,1-1.467-2.013Z" transform="translate(-127.855 -184.5)"/>
    </g>
    <path id="Path_6888" data-name="Path 6888" class="cls-8" d="M262,186.28a4.36,4.36,0,0,0-3.266-1.772H244.5a2.12,2.12,0,0,0-2.114,2.114v1.969a2.12,2.12,0,0,1,2.114-2.114h15.927a4.2,4.2,0,0,1,2.179.73Z" transform="translate(-194.09 -172.881)"/>
    <path id="Path_6889" data-name="Path 6889" class="cls-8" d="M149.095,184.5H137.077a3.1,3.1,0,0,0-2.761,2.013l-.353,1.1a3.1,3.1,0,0,1,2.268-1.141h12.863a2.12,2.12,0,0,1,2.112,2.114v-1.969A2.12,2.12,0,0,0,149.095,184.5Z" transform="translate(-107.27 -172.874)"/>
    <g id="Group_2761" data-name="Group 2761" transform="translate(35.424 24.539)">
      <rect id="Rectangle_380" data-name="Rectangle 380" class="cls-6" width="3.043" height="3.043"/>
      <rect id="Rectangle_381" data-name="Rectangle 381" class="cls-6" width="3.043" height="3.043" transform="translate(3.043 3.043)"/>
      <rect id="Rectangle_382" data-name="Rectangle 382" class="cls-6" width="3.043" height="3.043" transform="translate(6.087)"/>
      <rect id="Rectangle_383" data-name="Rectangle 383" class="cls-6" width="3.043" height="3.043" transform="translate(9.131 3.043)"/>
      <rect id="Rectangle_384" data-name="Rectangle 384" class="cls-6" width="3.043" height="3.043" transform="translate(12.175)"/>
      <rect id="Rectangle_385" data-name="Rectangle 385" class="cls-6" width="3.043" height="3.043" transform="translate(15.218 3.043)"/>
      <rect id="Rectangle_386" data-name="Rectangle 386" class="cls-6" width="3.043" height="3.043" transform="translate(18.259)"/>
      <rect id="Rectangle_387" data-name="Rectangle 387" class="cls-6" width="3.043" height="3.043" transform="translate(21.303 3.043)"/>
      <rect id="Rectangle_388" data-name="Rectangle 388" class="cls-6" width="3.043" height="3.043" transform="translate(24.347)"/>
    </g>
    <g id="Group_2762" data-name="Group 2762" transform="translate(35.424 24.539)">
      <rect id="Rectangle_389" data-name="Rectangle 389" class="cls-5" width="3.043" height="3.043" transform="translate(24.347 3.043)"/>
      <rect id="Rectangle_390" data-name="Rectangle 390" class="cls-5" width="3.043" height="3.043" transform="translate(21.303)"/>
      <rect id="Rectangle_391" data-name="Rectangle 391" class="cls-5" width="3.043" height="3.043" transform="translate(18.259 3.043)"/>
      <rect id="Rectangle_392" data-name="Rectangle 392" class="cls-5" width="3.043" height="3.043" transform="translate(15.218)"/>
      <rect id="Rectangle_393" data-name="Rectangle 393" class="cls-5" width="3.043" height="3.043" transform="translate(12.175 3.043)"/>
      <rect id="Rectangle_394" data-name="Rectangle 394" class="cls-5" width="3.043" height="3.043" transform="translate(9.131)"/>
      <rect id="Rectangle_395" data-name="Rectangle 395" class="cls-5" width="3.043" height="3.043" transform="translate(6.087 3.043)"/>
      <rect id="Rectangle_396" data-name="Rectangle 396" class="cls-5" width="3.043" height="3.043" transform="translate(3.043)"/>
      <rect id="Rectangle_397" data-name="Rectangle 397" class="cls-5" width="3.043" height="3.043" transform="translate(0 3.043)"/>
    </g>
    <path id="Path_6890" data-name="Path 6890" class="cls-9" d="M26.009,158.567a7.022,7.022,0,1,0,7.022,7.022,7.022,7.022,0,0,0-7.022-7.022Zm0,10.874a3.852,3.852,0,1,1,3.852-3.852A3.852,3.852,0,0,1,26.009,169.441Zm72.446-11.51H97.083l-.558-4.7c-.435-3.965-3.271-6.735-6.9-6.735H79.821l-5.966-9.449a12.48,12.48,0,0,0-8.573-5.186l-.366-2.282a4.152,4.152,0,0,0-4.014-3.421H57.294a4.152,4.152,0,0,0-4.014,3.421l-.359,2.228H26.746a9.035,9.035,0,0,0-8.312,6.264l-2.415,8.425h-4.9A6.914,6.914,0,0,0,4.208,153.4v4.53H3.565A3.569,3.569,0,0,0,0,161.5v3.218a3.57,3.57,0,0,0,3.565,3.566H8.021a3.571,3.571,0,0,0,3.41-2.525H13.7a12.308,12.308,0,1,0,24.616,0H60.9a12.308,12.308,0,1,0,24.616,0H90.59A3.571,3.571,0,0,0,94,168.28h4.454a3.57,3.57,0,0,0,3.567-3.566V161.5A3.57,3.57,0,0,0,98.455,157.931ZM56.411,130.079a.994.994,0,0,1,.884-.753H60.9a.994.994,0,0,1,.884.753l.277,1.726H56.134Zm-48,34.635a.4.4,0,0,1-.4.4H3.565a.4.4,0,0,1-.395-.4V161.5a.4.4,0,0,1,.395-.4H8.021a.4.4,0,0,1,.4.4S8.416,164.715,8.416,164.715ZM26.009,174.73a9.141,9.141,0,1,1,9.14-9.141,9.141,9.141,0,0,1-9.14,9.141Zm47.2,0a9.141,9.141,0,1,1,9.141-9.141A9.141,9.141,0,0,1,73.206,174.73ZM90.434,161.5v1.088H85.145a12.312,12.312,0,0,0-23.879,0H37.948a12.311,12.311,0,0,0-23.878,0H11.587V161.5a3.57,3.57,0,0,0-3.566-3.566H7.379V153.4a3.741,3.741,0,0,1,3.737-3.737h6.1a1.586,1.586,0,0,0,1.524-1.149c.006-.02.011-.041.017-.062l2.726-9.51a5.884,5.884,0,0,1,5.265-3.967H64.351a9.271,9.271,0,0,1,6.823,3.761l6.433,10.189a1.585,1.585,0,0,0,1.34.739H89.628c1.651,0,3.45,1.209,3.747,3.924l.516,4.348a3.567,3.567,0,0,0-3.458,3.56Zm8.416,3.218a.4.4,0,0,1-.4.4H94a.4.4,0,0,1-.395-.4V161.5a.4.4,0,0,1,.395-.4h4.454a.4.4,0,0,1,.4.4ZM69.242,138.689a5.938,5.938,0,0,0-4.6-2.492H50.412a3.7,3.7,0,0,0-3.7,3.7v4.379a3.7,3.7,0,0,0,3.7,3.7H70.248a2.6,2.6,0,0,0,2.288-4.222ZM50.411,144.8a.536.536,0,0,1-.528-.528V139.9a.536.536,0,0,1,.528-.528H64.648a2.847,2.847,0,0,1,1.938,1.051l2.853,4.384ZM41.823,136.2H29.807a4.649,4.649,0,0,0-4.27,3.112l-1.473,4.582a3.031,3.031,0,0,0,2.975,4.083H41.824a3.7,3.7,0,0,0,3.7-3.7V139.9a3.7,3.7,0,0,0-3.7-3.7Zm.528,8.078a.536.536,0,0,1-.528.528H27.1l1.455-4.523a1.534,1.534,0,0,1,1.251-.912H41.824a.535.535,0,0,1,.528.528v4.379h0Zm30.854,14.292a7.022,7.022,0,1,0,7.022,7.022,7.022,7.022,0,0,0-7.022-7.022Zm0,10.874a3.852,3.852,0,1,1,3.852-3.852,3.852,3.852,0,0,1-3.852,3.852Z" transform="translate(0 -126.156)"/>
  </g>
</svg>
