<svg xmlns="http://www.w3.org/2000/svg" viewBox="0 0 606.93 666.64"><defs><style>.cls-1{fill:#144e80;}.cls-2{fill:#683c11;}.cls-3{fill:#6a757f;}.cls-4{fill:#b7c7d6;}.cls-5{fill:#576066;}.cls-10,.cls-6{fill:#1b1b1b;}.cls-6{opacity:0.1;}.cls-7{fill:#42250b;}.cls-8{fill:#a9b5bf;}.cls-9{fill:#ca8865;}.cls-11{fill:#333;}.cls-12{fill:#4d4d4d;}.cls-13{fill:#eee;}.cls-14{fill:#e6e6e6;}.cls-15{fill:#a34a29;}.cls-16{fill:#2b1912;}.cls-17{fill:#d70c3f;}.cls-18{fill:#b4183f;}.cls-19{fill:#e07c4e;}.cls-20{fill:#ebb48b;}.cls-21{fill:#381210;}.cls-22{fill:#751f45;}.cls-23{fill:#ffb61e;}.cls-24{fill:#f2a51d;}.cls-25{fill:#db958f;}.cls-26{fill:#d6d6d6;}.cls-27{fill:#e3e3e2;}.cls-28{fill:#fafafa;}</style></defs><title>Team</title><g id="Capa_2" data-name="Capa 2"><g id="Capa_1-2" data-name="Capa 1"><path class="cls-1" d="M194.78,451.48v4.38c0,1.26,0,2.5-.09,3.74-.1,1.74-.24,3.47-.45,5.17a72.1,72.1,0,0,1-143.09,0c-.21-1.7-.36-3.43-.45-5.17-.07-1.24-.1-2.48-.1-3.74v-4.38Z"/><path class="cls-1" d="M105.89,526V661.51H71.32V506.44A72,72,0,0,0,105.89,526Z"/><path class="cls-1" d="M172.94,507.55v154H138.37V526.24A71.85,71.85,0,0,0,172.94,507.55Z"/><path class="cls-2" d="M72.39,282.8a4.16,4.16,0,0,0-1.28.21l1-1Z"/><path class="cls-2" d="M173.7,282.36l-.51,0,.11-.38Z"/><path class="cls-3" d="M173.14,281.8c-.18-.18-.37-.35-.56-.52a71.38,71.38,0,0,0-27.19-16.4A71.27,71.27,0,0,0,129,261.51h0q-3.09-.27-6.24-.27a73.35,73.35,0,0,0-7.89.43,71.94,71.94,0,0,0-42,19.63l-.7.68.25.82c2.94-.27,10-.55,10.23-.82l.07,19.29,0,5.26.58,145.53h78.85l.59-145.53,0-5.26.07-19.31,10.36.38.11-.38A1.21,1.21,0,0,1,173.14,281.8Zm-36.67,41.28a53.07,53.07,0,0,1-27.52,0,47.37,47.37,0,0,1-5.25-1.72l0-5.25a49.6,49.6,0,0,0,5.25,1.73,53.08,53.08,0,0,0,27.56,0,49.51,49.51,0,0,0,5.25-1.71l0,5.25A51.9,51.9,0,0,1,136.47,323.08Z"/><path class="cls-4" d="M82.62,282l.67,170.08H50.63V333.33c0-.3,0-.6,0-.91A71.81,71.81,0,0,1,71.11,283C71.45,282.66,82.27,282.32,82.62,282Z"/><path class="cls-4" d="M194.81,333.33V452.06H162.14l.69-170.1,10.87.4a71.85,71.85,0,0,1,21.08,48.85C194.8,331.92,194.81,332.62,194.81,333.33Z"/><path class="cls-5" d="M167.56,439.65H123.33a4,4,0,0,1-.61,0,4.07,4.07,0,0,1-.61,0H77.88a3.94,3.94,0,0,1-3.69-5.28L91,388.45a4,4,0,0,1,3.69-2.58h27.46a3.08,3.08,0,0,1,.61.06,3,3,0,0,1,.61-.06h27.46a4,4,0,0,1,3.69,2.58l16.77,45.92A3.93,3.93,0,0,1,167.56,439.65Z"/><path class="cls-6" d="M103.68,316.1l-.13-34,5.23-.19.15,35.89A49.6,49.6,0,0,1,103.68,316.1Z"/><path class="cls-6" d="M141.74,316.12a49.51,49.51,0,0,1-5.25,1.71l.15-35.89,5.24.19Z"/><path class="cls-2" d="M104.27,459.59H50.64V332.42A71.81,71.81,0,0,1,71.11,283c.34-.35,32.11-.69,32.46-1l.67,170.08Z"/><path class="cls-2" d="M194.78,331.21V459.59H141.15l0-7.53.69-169.91,21-.19,10.87.4A71.85,71.85,0,0,1,194.78,331.21Z"/><path class="cls-5" d="M175.49,266.89c0,.86,0,1.72-.07,2.57,0,1.23-.15,2.43-.29,3.64A52,52,0,0,1,173.3,282l-.11.38c-.19.63-.39,1.24-.61,1.86a52.81,52.81,0,0,1-30.84,31.92,49.51,49.51,0,0,1-5.25,1.71,53.08,53.08,0,0,1-27.56,0,49.6,49.6,0,0,1-5.25-1.73,52.83,52.83,0,0,1-30.84-32c-.16-.44-.3-.89-.45-1.34l-.25-.82a52.17,52.17,0,0,1-1.82-8.88c-.14-1.2-.24-2.39-.3-3.6,0-.87-.07-1.73-.07-2.61a53.27,53.27,0,0,1,.37-6.22A52.73,52.73,0,0,1,115.5,214.6h0a53.56,53.56,0,0,1,7.21-.49q2.52,0,5,.24h0A52.28,52.28,0,0,1,143,218.16h0A53.28,53.28,0,0,1,157.26,227a52.67,52.67,0,0,1,17.53,31.27A53.4,53.4,0,0,1,175.49,266.89Z"/><path class="cls-3" d="M141.74,316.12l0,5.25a51.9,51.9,0,0,1-5.25,1.71,53.07,53.07,0,0,1-27.52,0,47.37,47.37,0,0,1-5.25-1.72l0-5.25a49.6,49.6,0,0,0,5.25,1.73,53.08,53.08,0,0,0,27.56,0A49.51,49.51,0,0,0,141.74,316.12Z"/><path class="cls-7" d="M235.73,400.27l-1.41.75a16.81,16.81,0,0,1-22.74-6.91l-42.31-79.24a16.8,16.8,0,0,1,6.91-22.74l1.41-.76a16.8,16.8,0,0,1,22.74,6.91l42.31,79.25A16.8,16.8,0,0,1,235.73,400.27Z"/><circle class="cls-8" cx="185.18" cy="306.96" r="4.15"/><path class="cls-7" d="M237.75,404.35l-41.49,23.28L179,396.92l41.49-23.27a17.6,17.6,0,0,1,17.23,30.7Z"/><polygon class="cls-9" points="196.26 427.63 178.34 437.67 164.94 404.83 179.03 396.92 196.26 427.63"/><circle class="cls-8" cx="229.09" cy="389.2" r="4.15"/><path class="cls-7" d="M76.1,314.57l-40.85,80a16.8,16.8,0,0,1-22.61,7.33l-1.42-.73a16.8,16.8,0,0,1-7.33-22.61l40.85-80a16.81,16.81,0,0,1,22.61-7.32l1.42.72A16.8,16.8,0,0,1,76.1,314.57Z"/><circle class="cls-8" cx="60.04" cy="306.96" r="4.15"/><path class="cls-7" d="M9,405.15l41.48,23.28,17.24-30.7L26.22,374.44A17.61,17.61,0,0,0,9,405.15Z"/><polygon class="cls-9" points="84.35 407.08 71.94 440.5 50.46 428.44 67.7 397.73 84.35 407.08"/><circle class="cls-8" cx="17.64" cy="390" r="4.15"/><polygon class="cls-2" points="178.34 437.67 171.43 441.56 164.28 442.61 150.55 412.9 164.94 404.83 178.34 437.67"/><polygon class="cls-2" points="164.28 403.22 164.94 404.83 150.55 412.9 149.93 411.57 164.28 403.22"/><polygon class="cls-2" points="179.44 440.38 171.43 441.56 178.34 437.67 179.44 440.38"/><path class="cls-7" d="M179.2,444.94a5,5,0,0,0,1.89-.36,5.22,5.22,0,0,0,3-6.77l-14.33-36.94a5.24,5.24,0,0,0-9.77,3.79l14.33,36.94A5.25,5.25,0,0,0,179.2,444.94Z"/><path class="cls-2" d="M94.69,416.09l-7.92,31.49a17.38,17.38,0,0,1-5.8-2l-14-7.83L79.38,404.3l7.54,4.23Z"/><path class="cls-2" d="M81,445.56a17.38,17.38,0,0,0,5.8,2l-.65,2.57L65.77,441,67,437.73Z"/><polygon class="cls-2" points="86.92 408.53 79.38 404.3 80.23 402.01 86.92 408.53"/><path class="cls-7" d="M66.39,444.94a5.12,5.12,0,0,1-1.9-.36,5.23,5.23,0,0,1-3-6.77l14.33-36.94a5.24,5.24,0,1,1,9.77,3.79L71.27,441.6A5.23,5.23,0,0,1,66.39,444.94Z"/><path class="cls-6" d="M194.69,459.6c-.1,1.74-.24,3.47-.45,5.17H135.89V459.6h0l0-7.53v-.59l.52-128.4a53.07,53.07,0,0,1-27.52,0l.53,128.41v.59l0,7.53h0v5.17H51.15c-.21-1.7-.36-3.43-.45-5.17h53.57l0-7.53v-.59l-.54-130.13,0-5.25a49.6,49.6,0,0,0,5.25,1.73,53.08,53.08,0,0,0,27.56,0,49.51,49.51,0,0,0,5.25-1.71l0,5.25-.53,130.11v.59l0,7.53Z"/><rect class="cls-10" x="63.9" y="624.38" width="19.86" height="29.32" rx="9.48" ry="9.48" transform="translate(284.35 31.17) rotate(25.69)"/><path class="cls-11" d="M60.12,661.38c0-15,11-27.08,24.59-27.08s24.59,12.13,24.59,27.08Z"/><path class="cls-12" d="M88.25,661.38H77.77c0-10.41-9.72-19.09-22.56-21a34.6,34.6,0,0,1,5.25-.38C75.8,640,88.25,649.59,88.25,661.38Z"/><path class="cls-13" d="M77.77,661.38H32.68c0-8.94,7.17-16.61,17.32-19.78a35.94,35.94,0,0,1,5.21-1.18C68.05,642.29,77.77,651,77.77,661.38Z"/><rect class="cls-14" x="32.68" y="661.38" width="76.62" height="4.88" transform="translate(141.99 1327.64) rotate(-180)"/><rect class="cls-10" x="160.89" y="624.48" width="19.86" height="29.32" rx="9.48" ry="9.48" transform="translate(601.85 1141.03) rotate(154.31)"/><path class="cls-11" d="M184.54,661.47c0-15-11-27.08-24.59-27.08s-24.6,12.13-24.6,27.08Z"/><path class="cls-12" d="M156.41,661.47h10.48c0-10.41,9.72-19.09,22.56-21a36.18,36.18,0,0,0-5.26-.38C168.85,640.13,156.41,649.69,156.41,661.47Z"/><path class="cls-13" d="M166.89,661.47H212c0-8.94-7.16-16.6-17.31-19.78a36.24,36.24,0,0,0-5.21-1.18C176.61,642.38,166.89,651.06,166.89,661.47Z"/><rect class="cls-14" x="135.35" y="661.47" width="76.62" height="4.88"/><path class="cls-15" d="M145.39,227v57c0,11.31-10.78,20.49-24.08,20.49S97.23,295.35,97.23,284V227c0-11.32,10.78-20.5,24.08-20.5a26.23,26.23,0,0,1,17,6A19,19,0,0,1,145.39,227Z"/><circle class="cls-9" cx="53.22" cy="182.43" r="27.24"/><circle class="cls-15" cx="53.22" cy="183.48" r="16.76"/><circle class="cls-9" cx="189.4" cy="182.43" r="27.24"/><circle class="cls-15" cx="189.4" cy="183.48" r="16.76"/><path class="cls-16" d="M206.77,153.68a77.62,77.62,0,0,1-17.09,48.52,86,86,0,0,1-67.54,32c-40.2,0-73.85-26.68-82.48-62.44a76.86,76.86,0,0,1-2.15-18.11c0-.68,0-1.37,0-2,.06-2.11.19-4.2.42-6.26a76.75,76.75,0,0,1,8.47-27.74,74.69,74.69,0,0,1,3.87-6.56,76.33,76.33,0,0,1,5.1-6.94,82.69,82.69,0,0,1,9.34-9.66c1-.83,1.92-1.65,2.91-2.44q1.77-1.42,3.65-2.76A85.89,85.89,0,0,1,100,75.9a88.74,88.74,0,0,1,22.1-2.78c1.26,0,2.51,0,3.76.08,2.7.11,5.39.35,8,.7,1.3.18,2.6.38,3.88.61A85.85,85.85,0,0,1,157,80.28c.51.22,1,.44,1.51.68a83.74,83.74,0,0,1,16.9,10.17c2,1.56,3.94,3.19,5.79,4.91a80.32,80.32,0,0,1,14.46,17.8q1.44,2.39,2.7,4.89a78,78,0,0,1,5.33,13.5,76.71,76.71,0,0,1,2.87,16.48C206.71,150.36,206.77,152,206.77,153.68Z"/><path class="cls-9" d="M193.6,149.16V214a63.11,63.11,0,0,1-63.11,63.11H112.14A63.11,63.11,0,0,1,49,214V149.16a63.11,63.11,0,0,1,63.11-63.11h18.35A63.11,63.11,0,0,1,193.6,149.16Z"/><circle class="cls-10" cx="85.69" cy="170.05" r="11.52"/><circle class="cls-10" cx="156.93" cy="169.67" r="11.52"/><path class="cls-15" d="M137,193.15V200a15.71,15.71,0,0,1-31.42,0v-6.85a15.71,15.71,0,1,1,31.42,0Z"/><circle class="cls-16" cx="58.79" cy="120.15" r="33.3"/><circle class="cls-16" cx="96.01" cy="91.22" r="39.69"/><circle class="cls-16" cx="140.96" cy="81.97" r="43.11"/><circle class="cls-16" cx="181.83" cy="111.56" r="38.12"/><path class="cls-10" d="M112.09,251.18a125.62,125.62,0,0,1-13.27-.67,5,5,0,1,1,1.17-9.93h0c8.86,1,34.07,1.82,44.16-6.83a5,5,0,1,1,6.51,7.59C141.06,249.57,124,251.18,112.09,251.18Z"/><path class="cls-17" d="M552.93,341.49V447H424.84V341.49a64,64,0,0,1,108.84-45.78l.5.49A63.85,63.85,0,0,1,552.93,341.49Z"/><circle class="cls-18" cx="488.89" cy="282.46" r="46.88"/><path class="cls-19" d="M505.65,255.68v48.19a17.32,17.32,0,0,1-34.64,0V255.68a17.32,17.32,0,1,1,34.64,0Z"/><circle class="cls-20" cx="548.83" cy="192.75" r="24.2"/><circle class="cls-19" cx="548.83" cy="192.75" r="14.89"/><circle class="cls-20" cx="427.84" cy="192.75" r="24.2"/><circle class="cls-19" cx="427.84" cy="192.75" r="14.89"/><circle class="cls-21" cx="488.33" cy="136.91" r="82.83"/><path class="cls-20" d="M548.83,118.29V221.6a60.5,60.5,0,0,1-121,0V118.29a60.5,60.5,0,1,1,121,0Z"/><circle class="cls-21" cx="509.74" cy="76.41" r="52.12"/><circle class="cls-21" cx="452.5" cy="95.49" r="43.28"/><path class="cls-10" d="M521.2,244A32.84,32.84,0,0,1,458,226.26Z"/><path class="cls-17" d="M511,259.51a32.85,32.85,0,0,1-48.84-7.36A32.85,32.85,0,0,1,511,259.51Z"/><circle class="cls-10" cx="458.55" cy="157.38" r="10.24"/><circle class="cls-10" cx="518.12" cy="157.38" r="10.24"/><path class="cls-19" d="M502.29,184.59V203.7a14,14,0,0,1-27.92,0V184.59a14,14,0,0,1,27.92,0Z"/><path class="cls-10" d="M552.85,446.46v3.89a64,64,0,1,1-128.09,0v-3.89Z"/><rect class="cls-10" x="442.17" y="447.39" width="30.71" height="214.68"/><rect class="cls-10" x="503.59" y="447.39" width="30.71" height="214.68"/><rect class="cls-18" x="552.66" y="291.87" width="31.28" height="109.67" rx="15.64" ry="15.64" transform="translate(-97.4 350.54) rotate(-31.72)"/><path class="cls-18" d="M597.13,397.87l-39.21,15.78-11.67-29,39.2-15.78a15.64,15.64,0,1,1,11.68,29Z"/><path class="cls-20" d="M557.92,413.65l-33.51,13.49a15.64,15.64,0,1,1-11.68-29l33.52-13.49Z"/><rect class="cls-18" x="393.89" y="291.87" width="31.28" height="109.67" rx="15.64" ry="15.64" transform="translate(575.65 856.93) rotate(-148.28)"/><path class="cls-18" d="M380.71,397.87l39.2,15.78,11.68-29-39.21-15.78a15.64,15.64,0,0,0-11.67,29Z"/><path class="cls-20" d="M419.91,413.65l33.52,13.49a15.64,15.64,0,1,0,11.68-29l-33.52-13.49Z"/><rect class="cls-22" x="434.14" y="627.09" width="18.54" height="27.37" rx="9.27" ry="9.27" transform="translate(321.63 -128.88) rotate(25.69)"/><path class="cls-18" d="M430.61,661.62c0-14,10.28-25.28,22.95-25.28s23,11.32,23,25.28Z"/><path class="cls-17" d="M456.87,661.62h-9.78c0-9.72-9.08-17.82-21.07-19.57a34.29,34.29,0,0,1,4.91-.35C445.25,641.7,456.87,650.62,456.87,661.62Z"/><path class="cls-13" d="M447.09,661.62H405c0-8.34,6.69-15.5,16.16-18.46a34.39,34.39,0,0,1,4.86-1.11C438,643.8,447.09,651.9,447.09,661.62Z"/><rect class="cls-14" x="405" y="661.62" width="71.52" height="4.56" transform="translate(881.52 1327.8) rotate(-180)"/><rect class="cls-22" x="523.66" y="627.09" width="18.54" height="27.37" rx="9.27" ry="9.27" transform="translate(1290.98 987.15) rotate(154.31)"/><path class="cls-18" d="M545.74,661.62c0-14-10.28-25.28-23-25.28s-23,11.32-23,25.28Z"/><path class="cls-17" d="M519.48,661.62h9.78c0-9.72,9.07-17.82,21.06-19.57a34.19,34.19,0,0,0-4.91-.35C531.1,641.7,519.48,650.62,519.48,661.62Z"/><path class="cls-13" d="M529.26,661.62h42.08c0-8.34-6.68-15.5-16.16-18.46a34.07,34.07,0,0,0-4.86-1.11C538.33,643.8,529.26,651.9,529.26,661.62Z"/><rect class="cls-14" x="499.82" y="661.62" width="71.52" height="4.56"/><path class="cls-18" d="M528.72,434.08H489.43a3.12,3.12,0,0,1-.54,0,3.27,3.27,0,0,1-.54,0h-39.3a3.49,3.49,0,0,1-3.27-4.69l14.89-40.79a3.51,3.51,0,0,1,3.28-2.29h24.4a3.27,3.27,0,0,1,.54,0,3.12,3.12,0,0,1,.54,0h24.4a3.49,3.49,0,0,1,3.27,2.29L532,429.39A3.49,3.49,0,0,1,528.72,434.08Z"/><path class="cls-23" d="M377.68,310.67V424H240.05V310.67A68.81,68.81,0,0,1,357,261.48l.54.53A68.61,68.61,0,0,1,377.68,310.67Z"/><circle class="cls-24" cx="308.87" cy="247.24" r="50.37"/><path class="cls-10" d="M377.68,424v4.18a68.82,68.82,0,1,1-137.63,0V424Z"/><rect class="cls-20" x="258.75" y="614.82" width="33" height="42.18"/><rect class="cls-10" x="258.75" y="425" width="33" height="189.82"/><rect class="cls-20" x="324.75" y="614.82" width="33" height="42.18"/><rect class="cls-10" x="324.75" y="425" width="33" height="189.82"/><rect class="cls-25" x="346.47" y="624.64" width="19.92" height="29.41" rx="9.96" ry="9.96" transform="translate(954.8 1060.96) rotate(154.31)"/><path class="cls-26" d="M370.19,661.74c0-15-11.05-27.15-24.67-27.15s-24.67,12.16-24.67,27.15Z"/><path class="cls-27" d="M342,661.74H397.7c0-9-7.19-16.65-17.37-19.83a34.91,34.91,0,0,0-10.49-1.57C354.45,640.34,342,649.93,342,661.74Z"/><rect class="cls-13" x="320.85" y="661.74" width="76.85" height="4.9"/><rect class="cls-25" x="250.16" y="624.64" width="19.92" height="29.41" rx="9.96" ry="9.96" transform="translate(302.89 -49.56) rotate(25.69)"/><path class="cls-26" d="M246.37,661.74c0-15,11-27.15,24.66-27.15s24.67,12.16,24.67,27.15Z"/><path class="cls-27" d="M274.58,661.74H218.86c0-9,7.18-16.65,17.37-19.83a34.85,34.85,0,0,1,10.48-1.57C262.1,640.34,274.58,649.93,274.58,661.74Z"/><rect class="cls-13" x="218.85" y="661.74" width="76.85" height="4.9" transform="translate(514.55 1328.38) rotate(-180)"/><path class="cls-24" d="M264.13,294l-47.91,75.83A16.81,16.81,0,0,1,193,375.05l-1.32-.83A16.82,16.82,0,0,1,186.48,351L234.4,275.2A16.8,16.8,0,0,1,257.58,270l1.32.84A16.8,16.8,0,0,1,264.13,294Z"/><path class="cls-24" d="M203.86,347l45.83,12.58-9.31,33.92-45.83-12.58A17.59,17.59,0,0,1,203.86,347Z"/><path class="cls-20" d="M249.69,359.57l39.17,10.75a17.59,17.59,0,1,1-9.31,33.92l-39.17-10.75Z"/><rect class="cls-24" x="376.43" y="257.85" width="35.17" height="123.31" rx="16.8" ry="16.8" transform="translate(897.77 379.17) rotate(147.71)"/><path class="cls-24" d="M425.27,377.75,379.84,391.7l-2.16-7-8.16-26.58,8.16-2.51L415,344.13a17.61,17.61,0,0,1,21.68,10.8c.11.28.2.57.29.86s.16.55.23.82l.12.47A17.59,17.59,0,0,1,425.27,377.75Z"/><path class="cls-20" d="M379.84,391.7l-2.16.66L341,403.62a17.59,17.59,0,0,1-21.71-10.83q-.15-.41-.27-.81c-.13-.43-.25-.86-.35-1.29a17.61,17.61,0,0,1,12-20.69l38.83-11.92,8.16,26.58Z"/><circle class="cls-20" cx="377.68" cy="150.34" r="27.53"/><circle class="cls-19" cx="377.68" cy="150.34" r="16.94"/><circle class="cls-20" cx="240.05" cy="150.34" r="27.53"/><circle class="cls-19" cx="240.05" cy="150.34" r="16.94"/><path class="cls-19" d="M338.51,179.46V259.9a28.91,28.91,0,0,1-57.81,0V179.46a28.91,28.91,0,0,1,57.81,0Z"/><path class="cls-21" d="M394.62,94.22c0,52-38.4,94.23-85.75,94.23-43.78,0-79.89-36-85.11-82.59a.76.76,0,0,1,0-.15,103.56,103.56,0,0,1-.64-11.49c0-25.1,8.94-47.89,23.5-64.77.73-.85,1.48-1.69,2.24-2.51A84,84,0,0,1,287.38,3a77.93,77.93,0,0,1,19.51-3c.65,0,1.32,0,2,0H310c33.66.47,62.64,22.25,76.29,53.62q1.19,2.73,2.21,5.55A101.72,101.72,0,0,1,394.62,94.22Z"/><rect class="cls-20" x="240.05" y="18" width="137.63" height="230.8" rx="68.82" ry="68.82"/><circle class="cls-10" cx="274.99" cy="117.52" r="11.65"/><circle class="cls-10" cx="342.75" cy="117.52" r="11.65"/><path class="cls-19" d="M324.75,145.29V167A15.88,15.88,0,0,1,293,167V145.29a15.88,15.88,0,1,1,31.76,0Z"/><path class="cls-21" d="M388.48,59.18a100.86,100.86,0,0,1-56.32,17.05,101.18,101.18,0,0,1-39.75-8.07,101.94,101.94,0,0,1-45.8-38.71c.73-.85,1.48-1.69,2.24-2.51A84,84,0,0,1,287.38,3a93.48,93.48,0,0,1,21.44-3L310,0c33.66.47,62.64,22.25,76.29,53.62Q387.46,56.36,388.48,59.18Z"/><path class="cls-10" d="M341.86,203a33.87,33.87,0,0,1-8.72,15.9,15,15,0,0,0-23.65-.88,14.49,14.49,0,0,0-21.8,3.68A34,34,0,0,1,275.88,203Z"/><path class="cls-28" d="M342.75,195.24a33.66,33.66,0,0,1-.5,5.81c-.11.66-.25,1.3-.39,1.94h-66c-.14-.64-.28-1.28-.38-1.94a33.66,33.66,0,0,1-.51-5.81c0-.65,0-1.29.06-1.93h67.64C342.73,194,342.75,194.59,342.75,195.24Z"/><path class="cls-17" d="M333.14,218.89a33.78,33.78,0,0,1-18.47,9.73,32.67,32.67,0,0,1-5.8.5c-1,0-1.91,0-2.84-.12a33.74,33.74,0,0,1-18.34-7.31,14.49,14.49,0,0,1,21.8-3.68,15,15,0,0,1,23.65.88Z"/><path class="cls-21" d="M309.93,14.29a91.58,91.58,0,0,1-86.18,91.42,103.56,103.56,0,0,1-.64-11.49c0-25.1,8.94-47.89,23.5-64.77.73-.85,1.48-1.69,2.24-2.51A84,84,0,0,1,287.38,3a93.48,93.48,0,0,1,21.44-3A91.88,91.88,0,0,1,309.93,14.29Z"/><path class="cls-24" d="M351.67,412.16H309.45a3.81,3.81,0,0,1-.59-.05,3.58,3.58,0,0,1-.58.05H266.06a3.74,3.74,0,0,1-3.51-5l16-43.83a3.75,3.75,0,0,1,3.52-2.46h26.21a2.72,2.72,0,0,1,.58.05,2.88,2.88,0,0,1,.59-.05h26.21a3.74,3.74,0,0,1,3.52,2.46l16,43.83A3.75,3.75,0,0,1,351.67,412.16Z"/></g></g></svg>