<svg xmlns="http://www.w3.org/2000/svg" viewBox="0 0 577 463"><defs><style>.a{fill:#fff;}.b{fill:#7e5f3a;}.c{fill:#eff2fa;}.d{fill:#c7cfe2;}.e{fill:#afb9d2;}.f{fill:#d7deed;}.g{fill:#1e81ff;}</style></defs><g transform="translate(-10571 704)"><rect class="a" width="577" height="463" transform="translate(10571 -704)"/><g transform="translate(10621.149 -704)"><path class="b" d="M373.913,466.3H102.546a31.925,31.925,0,0,1-31.925-31.925V67.236a31.925,31.925,0,0,1,31.925-31.925H373.913a31.925,31.925,0,0,1,31.925,31.925V434.379A31.925,31.925,0,0,1,373.913,466.3Z" transform="translate(0 -3.385)"/><path class="c" d="M376.451,61.793H105.085A7.982,7.982,0,0,0,97.1,69.775V436.918a7.982,7.982,0,0,0,7.982,7.982h215.5l63.851-63.851V69.775A7.982,7.982,0,0,0,376.451,61.793Z" transform="translate(-2.539 -5.923)"/><path class="d" d="M297.119,31.925H273.175V23.943a23.944,23.944,0,0,0-47.889,0v7.982H201.342a15.963,15.963,0,0,0-15.963,15.963V63.851h127.7V47.889A15.962,15.962,0,0,0,297.119,31.925Zm-47.889,0a7.982,7.982,0,1,1,7.982-7.982A7.982,7.982,0,0,1,249.23,31.925Z" transform="translate(-11.001)"/><path class="e" d="M312.235,77.756h-127.7a7.982,7.982,0,0,1-7.982-7.982h0a7.982,7.982,0,0,1,7.982-7.982h127.7a7.982,7.982,0,0,1,7.982,7.982h0A7.981,7.981,0,0,1,312.235,77.756Z" transform="translate(-10.154 -5.923)"/><path class="d" d="M188.283,351.411H140.395a7.982,7.982,0,0,1-7.982-7.982h0a7.982,7.982,0,0,1,7.982-7.982h47.889a7.982,7.982,0,0,1,7.982,7.982h0A7.982,7.982,0,0,1,188.283,351.411Z" transform="translate(-5.923 -32.156)"/><g transform="translate(206.303 303.291)"><path class="e" d="M356.373,351.411h-127.7a7.982,7.982,0,0,1-7.982-7.982h0a7.982,7.982,0,0,1,7.982-7.982h127.7a7.982,7.982,0,0,1,7.982,7.982h0A7.981,7.981,0,0,1,356.373,351.411Z" transform="translate(-220.689 -335.447)"/><path class="e" d="M276.559,404.376H228.671a7.982,7.982,0,0,1-7.982-7.982h0a7.982,7.982,0,0,1,7.982-7.982h47.889a7.982,7.982,0,0,1,7.982,7.982h0A7.983,7.983,0,0,1,276.559,404.376Z" transform="translate(-220.689 -340.524)"/><path class="e" d="M292.522,439.686H228.671a7.982,7.982,0,0,1-7.982-7.982h0a7.982,7.982,0,0,1,7.982-7.982h63.851A7.982,7.982,0,0,1,300.5,431.7h0A7.982,7.982,0,0,1,292.522,439.686Z" transform="translate(-220.689 -343.909)"/></g><g transform="translate(126.49 175.589)"><path class="d" d="M188.283,210.169H140.395a7.982,7.982,0,0,1-7.982-7.982h0a7.982,7.982,0,0,1,7.982-7.982h47.889a7.982,7.982,0,0,1,7.982,7.982h0A7.982,7.982,0,0,1,188.283,210.169Z" transform="translate(-132.413 -194.206)"/><path class="d" d="M296.753,245.479H272.809a7.982,7.982,0,0,1-7.982-7.982h0a7.982,7.982,0,0,1,7.982-7.982h23.944a7.982,7.982,0,0,1,7.982,7.982h0A7.982,7.982,0,0,1,296.753,245.479Z" transform="translate(-145.106 -197.591)"/></g><g transform="translate(206.303 175.589)"><path class="e" d="M366.528,245.479H334.6a7.982,7.982,0,0,1-7.982-7.982h0a7.982,7.982,0,0,1,7.982-7.982h31.925a7.982,7.982,0,0,1,7.982,7.982h0A7.982,7.982,0,0,1,366.528,245.479Z" transform="translate(-230.844 -197.591)"/><path class="e" d="M356.373,210.169h-127.7a7.982,7.982,0,0,1-7.982-7.982h0a7.982,7.982,0,0,1,7.982-7.982h127.7a7.982,7.982,0,0,1,7.982,7.982h0A7.981,7.981,0,0,1,356.373,210.169Z" transform="translate(-220.689 -194.206)"/></g><path class="d" d="M363.143,157.2H299.292a7.982,7.982,0,0,1-7.982-7.982h0a7.982,7.982,0,0,1,7.982-7.982h63.851a7.982,7.982,0,0,1,7.982,7.982h0A7.983,7.983,0,0,1,363.143,157.2Z" transform="translate(-21.155 -13.539)"/><path class="f" d="M262.289,157.2H246.327a7.982,7.982,0,0,1-7.982-7.982h0a7.982,7.982,0,0,1,7.982-7.982h15.963a7.982,7.982,0,0,1,7.982,7.982h0A7.983,7.983,0,0,1,262.289,157.2Z" transform="translate(-16.078 -13.539)"/><g transform="translate(126.49 95.776)"><path class="d" d="M364.835,121.894H316.947a7.982,7.982,0,0,1-7.982-7.982h0a7.982,7.982,0,0,1,7.982-7.982h47.889a7.982,7.982,0,0,1,7.982,7.982h0A7.982,7.982,0,0,1,364.835,121.894Z" transform="translate(-149.337 -105.93)"/><path class="d" d="M220.209,280.79H140.395a7.982,7.982,0,0,1-7.982-7.982h0a7.982,7.982,0,0,1,7.982-7.982h79.814a7.982,7.982,0,0,1,7.982,7.982h0A7.982,7.982,0,0,1,220.209,280.79Z" transform="translate(-132.413 -121.162)"/></g><g transform="translate(126.491 207.515)"><path class="e" d="M359.758,280.79H263.982A7.982,7.982,0,0,1,256,272.809h0a7.982,7.982,0,0,1,7.982-7.982h95.776a7.982,7.982,0,0,1,7.982,7.982h0A7.983,7.983,0,0,1,359.758,280.79Z" transform="translate(-144.261 -232.901)"/><path class="e" d="M228.19,245.479H140.4a7.982,7.982,0,0,1-7.982-7.982h0a7.982,7.982,0,0,1,7.982-7.982H228.19a7.982,7.982,0,0,1,7.982,7.982h0A7.982,7.982,0,0,1,228.19,245.479Z" transform="translate(-132.414 -229.516)"/></g><path class="d" d="M274.867,316.1H211.016a7.982,7.982,0,0,1-7.982-7.982h0a7.982,7.982,0,0,1,7.982-7.982h63.851a7.982,7.982,0,0,1,7.982,7.982h0A7.982,7.982,0,0,1,274.867,316.1Z" transform="translate(-12.693 -28.771)"/><g transform="translate(126.491 271.366)"><path class="e" d="M364.835,316.1H316.947a7.982,7.982,0,0,1-7.982-7.982h0a7.982,7.982,0,0,1,7.982-7.982h47.889a7.982,7.982,0,0,1,7.982,7.982h0A7.982,7.982,0,0,1,364.835,316.1Z" transform="translate(-149.338 -300.137)"/><path class="e" d="M172.321,316.1H140.4a7.982,7.982,0,0,1-7.982-7.982h0a7.982,7.982,0,0,1,7.982-7.982h31.925a7.982,7.982,0,0,1,7.982,7.982h0A7.982,7.982,0,0,1,172.321,316.1Z" transform="translate(-132.414 -300.137)"/></g><path class="g" d="M164.339,443.437a31.925,31.925,0,1,1,31.925-31.925A31.961,31.961,0,0,1,164.339,443.437Zm0-47.889A15.963,15.963,0,1,0,180.3,411.511,15.978,15.978,0,0,0,164.339,395.549Z" transform="translate(-5.924 -36.387)"/><path class="f" d="M344.276,478.747v-55.87a7.982,7.982,0,0,1,7.982-7.982h55.87Z" transform="translate(-26.233 -39.772)"/></g></g></svg>