<svg xmlns="http://www.w3.org/2000/svg" viewBox="-2481 2950 511.933 511.999">
  <defs>
    <style>
      .cls-1 {
        fill: #e65050;
      }

      .cls-2 {
        fill: #ff5959;
      }

      .cls-3 {
        fill: #1e252b;
      }

      .cls-4 {
        fill: #eee;
      }

      .cls-5 {
        fill: #d1d3d3;
      }
    </style>
  </defs>
  <g id="pen" transform="translate(-2481.032 2950)">
    <path id="Path_7540" data-name="Path 7540" class="cls-1" d="M17.442,102.409l201.78,201.743h21.225l63.675-63.675V219.252L102.342,17.51a60.211,60.211,0,0,0-84.9,0A58.68,58.68,0,0,0,.038,59.96,58.68,58.68,0,0,0,17.442,102.409Z"/>
    <path id="Path_7541" data-name="Path 7541" class="cls-2" d="M240.446,304.153l31.838-31.838L17.442,17.51A58.68,58.68,0,0,0,.038,59.96a58.68,58.68,0,0,0,17.4,42.45l201.78,201.743Z"/>
    <g id="Group_2913" data-name="Group 2913">
      <path id="Path_7542" data-name="Path 7542" class="cls-3" d="M219.221,304.153l33.658,33.658,20.588.637,62.4-62.4,1.911-23.136-33.658-33.659Z"/>
      <path id="Path_7543" data-name="Path 7543" class="cls-3" d="M219.221,304.153l33.658,33.658,20.588.637,32.475-32.474L261.671,261.7Z"/>
    </g>
    <path id="Path_7544" data-name="Path 7544" class="cls-4" d="M312.309,458.369l176.8,52,21.225-21.225-52-176.8a15.68,15.68,0,0,0-8.914-9.764L337.778,252.912l-84.9,84.9,49.666,111.644A15.685,15.685,0,0,0,312.309,458.369Z"/>
    <path id="Path_7545" data-name="Path 7545" class="cls-5" d="M312.309,458.369l176.8,52,10.613-10.613-204.4-204.4-42.45,42.45,49.666,111.644A15.68,15.68,0,0,0,312.309,458.369Z"/>
    <path id="Path_7546" data-name="Path 7546" class="cls-3" d="M380.229,401.486,489.113,510.37l3.608,1.061A15.076,15.076,0,0,0,511.4,492.754l-1.061-3.608L401.455,380.261a15.009,15.009,0,0,0-21.226,21.225Z"/>
    <path id="Path_7547" data-name="Path 7547" class="cls-3" d="M359,401.486a30.017,30.017,0,1,0,0-42.45A30.106,30.106,0,0,0,359,401.486Z"/>
    <path id="Path_7548" data-name="Path 7548" class="cls-3" d="M359,401.486a30.106,30.106,0,0,0,42.45,0L359,359.036A30.106,30.106,0,0,0,359,401.486Z"/>
    <path id="Path_7549" data-name="Path 7549" class="cls-3" d="M380.229,401.486,489.113,510.37l3.608,1.061a15.27,15.27,0,0,0,14.857-3.82l-127.35-127.35A14.863,14.863,0,0,0,380.229,401.486Z"/>
  </g>
</svg>
