<svg xmlns="http://www.w3.org/2000/svg" viewBox="-3038 2694 511.999 512">
  <defs>
    <style>
      .cls-1 {
        fill: #2ba5f7;
      }

      .cls-2 {
        fill: #ffb61e;
      }

      .cls-3 {
        fill: #d1d3d3;
      }

      .cls-4 {
        fill: #e65050;
      }

      .cls-5 {
        fill: #ff5959;
      }

      .cls-6 {
        fill: #fae1b2;
      }

      .cls-7 {
        fill: #666;
      }

      .cls-8 {
        fill: #1e252b;
      }
    </style>
  </defs>
  <g id="Group_2796" data-name="Group 2796" transform="translate(807 96)">
    <path id="Path_7079" data-name="Path 7079" class="cls-1" d="M114.652,397.349a19.194,19.194,0,1,1-27.144,0A19.195,19.195,0,0,1,114.652,397.349Z" transform="translate(-3845 2598)"/>
    <path id="Path_7080" data-name="Path 7080" class="cls-2" d="M232.778,317.794l31.46,31.46L213.883,399.61,112.391,298.118l50.356-50.369,31.46,31.46Z" transform="translate(-3845 2598)"/>
    <path id="Path_7081" data-name="Path 7081" class="cls-3" d="M10.27,501.718,26.7,363.765A38.164,38.164,0,0,1,64.6,330.1a38.121,38.121,0,0,0,26.979-11.181l20.814-20.8L213.883,399.61l-20.8,20.8A38.176,38.176,0,0,0,181.9,447.4a38.159,38.159,0,0,1-33.666,37.9Zm77.238-77.225a19.194,19.194,0,1,0,0-27.144A19.22,19.22,0,0,0,87.508,424.493Z" transform="translate(-3845 2598)"/>
    <path id="Path_7082" data-name="Path 7082" class="cls-4" d="M476.772,136.707v.014L264.238,349.254l-31.46-31.46,1.082-1.082L434.8,115.757l1.233-1.644A179.757,179.757,0,0,0,476.772,136.707Z" transform="translate(-3845 2598)"/>
    <path id="Union_6" data-name="Union 6" class="cls-5" d="M31.462,243.993l1.068-1.069L233.485,41.969,32.529,242.924l-1.069,1.069L0,212.533,212.534,0h.014V.013a180.133,180.133,0,0,0,22.581,40.723,179.956,179.956,0,0,0,38.16,38.16l-1.233,1.644L71.115,281.5l-1.083,1.082Z" transform="translate(-3682.253 2633.217)"/>
    <path id="Path_7085" data-name="Path 7085" class="cls-6" d="M488.473,77.4l-11.7,59.3a179.7,179.7,0,0,1-40.736-22.6,179.944,179.944,0,0,1-38.16-38.16,180.129,180.129,0,0,1-22.581-40.723v-.014l59.3-11.7v.014a67.966,67.966,0,0,0,18.731,35.146A68.011,68.011,0,0,0,488.473,77.4Z" transform="translate(-3845 2598)"/>
    <path id="Path_7086" data-name="Path 7086" class="cls-7" d="M501.723,10.278,488.473,77.4A68.324,68.324,0,0,1,434.6,23.528v-.014Z" transform="translate(-3845 2598)"/>
    <path id="Path_7087" data-name="Path 7087" class="cls-8" d="M508.989,3.01A10.275,10.275,0,0,0,499.733.194L373.3,25.138a10.277,10.277,0,0,0-5.278,2.816l-283.7,283.7a27.711,27.711,0,0,1-19.724,8.169,48.464,48.464,0,0,0-48.1,42.722L.072,500.509a10.284,10.284,0,0,0,11.419,11.419l137.964-16.416a48.467,48.467,0,0,0,42.722-48.107,27.716,27.716,0,0,1,8.169-19.723l283.7-283.7a10.281,10.281,0,0,0,2.816-5.278L511.8,12.264A10.271,10.271,0,0,0,508.989,3.01ZM480.567,64.418A57.791,57.791,0,0,1,447.58,31.432l41.093-8.106ZM213.886,385.076l-86.963-86.962,35.826-35.826,86.962,86.962Zm-5.143-105.86L396.823,91.137a192.424,192.424,0,0,0,24.04,24.039L232.784,303.256ZM384.373,74.522,194.211,264.682l-16.928-16.928L371.978,53.06A190.672,190.672,0,0,0,384.373,74.522ZM247.316,317.789,437.478,127.627a190.493,190.493,0,0,0,21.462,12.4l-194.7,194.694ZM389.85,42.822l37.308-7.361a78.625,78.625,0,0,0,49.38,49.381l-7.359,37.308A171.262,171.262,0,0,1,389.85,42.822ZM185.813,413.149a48.13,48.13,0,0,0-14.19,34.257,27.9,27.9,0,0,1-24.6,27.7L38.519,488.014,88.832,437.7a29.489,29.489,0,1,0-14.521-14.546L23.985,473.481,36.9,364.974a27.905,27.905,0,0,1,27.7-24.6,48.133,48.133,0,0,0,34.257-14.19l13.539-13.539,81.517,81.515,5.447,5.447Zm-91.036-8.531a8.912,8.912,0,1,1,0,12.6A8.853,8.853,0,0,1,94.777,404.618Z" transform="translate(-3845 2598)"/>
  </g>
</svg>
