<svg xmlns="http://www.w3.org/2000/svg" viewBox="1740.234 1677 186.04 130.701">
  <defs>
    <style>
      .cls-1 {
        fill: #ffb61e;
      }

      .cls-2 {
        fill: #e69e05;
      }

      .cls-3 {
        fill: #a4a9ad;
      }

      .cls-4 {
        fill: #00b3e3;
      }

      .cls-5 {
        fill: #008eb4;
      }

      .cls-6 {
        fill: #1e252b;
      }
    </style>
  </defs>
  <g id="trucking" transform="translate(1740.234 1600.85)">
    <path id="Path_552" data-name="Path 552" class="cls-1" d="M29.329,306.4H88.855V281.822a1.276,1.276,0,0,0-1.274-1.274H29.329a1.276,1.276,0,0,0-1.274,1.274v23.3A1.276,1.276,0,0,0,29.329,306.4Zm8.738-11.65H58.455a1.638,1.638,0,0,1,0,3.277H38.067a1.638,1.638,0,0,1,0-3.277Zm20.388-5.461H38.067a1.638,1.638,0,0,1,0-3.277H58.455a1.638,1.638,0,0,1,0,3.277Z" transform="translate(-17.861 -130.128)"/>
    <path id="Path_553" data-name="Path 553" class="cls-2" d="M154.67,280.548h-9.592A41.274,41.274,0,0,1,133.435,306.4h22.509V281.822A1.275,1.275,0,0,0,154.67,280.548Z" transform="translate(-84.95 -130.128)"/>
    <path id="Path_554" data-name="Path 554" class="cls-1" d="M174.641,251.774l1.556.131L173.08,240.47h-4.574a4.192,4.192,0,0,0-4.187,4.187v7.1h10.012C174.436,251.756,174.54,251.765,174.641,251.774Z" transform="translate(-104.612 -104.613)"/>
    <path id="Path_555" data-name="Path 555" class="cls-3" d="M435.217,358.552h19.344a4.192,4.192,0,0,0,4.187-4.187V335.021Z" transform="translate(-277.076 -164.808)"/>
    <path id="Path_556" data-name="Path 556" class="cls-3" d="M103.588,384.751H19.123a7.1,7.1,0,0,0,0,14.2h84.465a7.1,7.1,0,0,0,0-14.2Zm-1.154,5.939a1.631,1.631,0,1,1-.484,1.16A1.657,1.657,0,0,1,102.433,390.69Zm-5.945,1.16a1.64,1.64,0,0,1-1.638,1.638H27.861a1.638,1.638,0,0,1,0-3.277H94.85A1.64,1.64,0,0,1,96.488,391.851Zm-78.519-1.16a1.658,1.658,0,0,1,1.154-.479,1.644,1.644,0,0,1,1.638,1.638,1.638,1.638,0,1,1-2.792-1.16Z" transform="translate(-7.655 -196.468)"/>
    <path id="Path_557" data-name="Path 557" class="cls-4" d="M226.033,263.509a4.181,4.181,0,0,0-.443-1.872l-9.424-18.849a4.154,4.154,0,0,0-3.745-2.318H197.778l7,25.679a4.2,4.2,0,0,0,4.039,3.082h17.213v-5.724Z" transform="translate(-125.913 -104.613)"/>
    <path id="Path_558" data-name="Path 558" class="cls-5" d="M251.93,263.244,242.505,244.4a4.172,4.172,0,0,0-1.124-1.4,51.41,51.41,0,0,1,.979,10,50.647,50.647,0,0,1-3.21,17.84h13.222v-5.723A4.184,4.184,0,0,0,251.93,263.244Z" transform="translate(-152.253 -106.221)"/>
    <path id="Path_559" data-name="Path 559" class="cls-1" d="M444.279,196.489l-18.685-72.074-1.348,1.324a10.33,10.33,0,0,1-9.565,2.721l-1.9-.431L438.069,202.7Z" transform="translate(-262.791 -30.727)"/>
    <g id="Group_141" data-name="Group 141" transform="translate(74.27 84.367)">
      <path id="Path_560" data-name="Path 560" class="cls-2" d="M206.454,317.756l-2.055.515v11.814h25.849v-8.374H213.035A7.456,7.456,0,0,1,206.454,317.756Z" transform="translate(-204.399 -238.183)"/>
      <path id="Path_561" data-name="Path 561" class="cls-2" d="M275.938,105.831a10.26,10.26,0,0,1-.731-3.816,10.09,10.09,0,0,1,.085-1.308l.252-1.942-57.687,26.05a10.07,10.07,0,0,0-5.256,5.611l-6.207,16.552h11.512a7.376,7.376,0,0,1,5.369,2.278l1.311,1.365,2.674-9.234a13.335,13.335,0,0,1,6.782-8.172l43.709-22.038-1.794-5.293Z" transform="translate(-205.669 -98.765)"/>
    </g>
    <path id="Path_562" data-name="Path 562" class="cls-3" d="M418.99,95.271a7.091,7.091,0,0,0-9.91-6.515,1.294,1.294,0,0,0-.12.056l-.04.017a7.067,7.067,0,0,0-3.877,8.3l.009.034.287.849.017.039a7.1,7.1,0,0,0,13.634-2.777Z" transform="translate(-257.706 -7.654)"/>
    <path id="Path_563" data-name="Path 563" class="cls-6" d="M186.04,166.257v23.3a8.565,8.565,0,0,1-8.556,8.556H148.359a2.731,2.731,0,1,1,0-5.461h4.693l18.389-18.389-24.659-72.807-42.174,21.265a8.927,8.927,0,0,0-4.551,5.483L96.424,140.75l7.161,14.319a8.607,8.607,0,0,1,.9,3.827v19.012a2.732,2.732,0,0,1-2.731,2.731H84.1v3.277H95.932a11.468,11.468,0,1,1,0,22.937H11.468a11.468,11.468,0,1,1,0-22.936H23.3v-3.277H11.468a5.648,5.648,0,0,1-5.643-5.643v-23.3a5.648,5.648,0,0,1,5.643-5.643H55.339v-6.007a8.565,8.565,0,0,1,8.556-8.556h6.845l6.375-16.995a14.467,14.467,0,0,1,7.547-8.057l64.506-29.13a11.461,11.461,0,0,1,16.474,9.925l20.311,78.341a2.325,2.325,0,0,1,.058.277v0a2.5,2.5,0,0,1,.025.368C186.037,166.232,186.04,166.243,186.04,166.257Zm-5.461,23.3V172.85l-19.8,19.8h16.707A3.1,3.1,0,0,0,180.579,189.558Zm-.306-24.127L162.219,95.791A11.42,11.42,0,0,1,151.647,98.8l24.1,71.158ZM160.191,87.618a6,6,0,0,0-8.4-5.5c-.022.007-.04.022-.058.029l-.058.025a5.974,5.974,0,0,0-3.28,7.023l.262.775a6.008,6.008,0,0,0,11.537-2.348Zm-15.178,8.614-1.489-4.394a11.376,11.376,0,0,1-.808-4.22,11.178,11.178,0,0,1,.095-1.449l-55.9,25.245a8.973,8.973,0,0,0-4.682,5l-5.654,15.076h9.935a8.5,8.5,0,0,1,6.156,2.614l2.148-7.416a14.429,14.429,0,0,1,7.34-8.843ZM101.94,195.383a6.013,6.013,0,0,0-6.007-6.007H11.468a6.007,6.007,0,1,0,0,12.014H95.933A6.013,6.013,0,0,0,101.94,195.383Zm-2.913-20.206v-6.189H82.906a8.573,8.573,0,0,1-7.544-4.533v10.722H99.027Zm0-11.65V158.9a3.081,3.081,0,0,0-.328-1.383l-9.426-18.851a3.072,3.072,0,0,0-2.767-1.711H73.294l6.626,24.3a3.106,3.106,0,0,0,2.985,2.279ZM78.639,183.915v-3.277H28.762v3.277ZM70.12,146.073l-2.486-9.124H63.895a3.1,3.1,0,0,0-3.095,3.095v6.007h8.92C69.854,146.051,69.989,146.062,70.12,146.073Zm-.218,29.1V151.694a.18.18,0,0,0-.182-.182H11.468a.18.18,0,0,0-.182.182v23.3a.18.18,0,0,0,.182.182Zm26.031,17.475a2.734,2.734,0,1,0,1.929.8A2.741,2.741,0,0,0,95.933,192.652Zm-75.727,0a2.731,2.731,0,0,0,0,5.461H87.2a2.731,2.731,0,0,0,0-5.461Zm0-37.864a2.731,2.731,0,0,0,0,5.461H40.594a2.731,2.731,0,0,0,0-5.461Zm0,8.738a2.731,2.731,0,0,0,0,5.461H40.594a2.731,2.731,0,0,0,0-5.461Zm-8.738,29.126a2.734,2.734,0,1,0,1.929.8A2.741,2.741,0,0,0,11.468,192.652Z"/>
  </g>
</svg>
