<?xml version="1.0" encoding="utf-8"?>
<!-- Generator: Adobe Illustrator 22.0.1, SVG Export Plug-In . SVG Version: 6.00 Build 0)  -->
<svg version="1.1" id="Group_2925" xmlns="http://www.w3.org/2000/svg" xmlns:xlink="http://www.w3.org/1999/xlink" x="0px" y="0px"
	 viewBox="0 0 647.3 497.8" style="enable-background:new 0 0 647.3 497.8;" xml:space="preserve">
<style type="text/css">
	.st0{fill:#283139;}
	.st1{fill:#FF5959;}
	.st2{fill:#0071CE;}
	.st3{fill:#FFB61E;}
	.st4{fill:#2ECC71;}
	.st5{fill:#333E48;}
	.st6{fill:#F2F2F2;}
</style>
<g>
	<path id="Path_7022" class="st0" d="M389.7,391.5l-20.2,82.1H222.3l20.2-82.1H389.7z"/>
	<path id="Path_7024" class="st0" d="M222.4,472.8c0,0-3.1,17.4-0.7,20.3c2.3,3,5.9,4.7,9.6,4.7h243.8c6.7,0,12.2-5.5,12.2-12.2
		c0-6.7-5.5-12.2-12.2-12.2h-81.1L222.4,472.8z"/>
	<path id="Path_7018" class="st1" d="M647.3,34.5v21.1H52.8V34.5C52.8,15.4,68.3,0,87.3,0h525.5C631.9,0,647.3,15.4,647.3,34.5
		C647.3,34.5,647.3,34.5,647.3,34.5z"/>
	<g id="Group_2785" transform="translate(-2831.682 1927.815)">
		<rect id="Rectangle_429" x="2884.5" y="-1872.2" class="st2" width="66.8" height="68.8"/>
		<rect id="Rectangle_430" x="2884.5" y="-1804.4" class="st2" width="66.8" height="64.9"/>
		<rect id="Rectangle_431" x="2884.5" y="-1760.5" class="st2" width="66.8" height="85.9"/>
	</g>
	<g id="Group_2786" transform="translate(-2339.151 1927.815)">
		<rect id="Rectangle_433" x="2884.5" y="-1808.5" class="st3" width="101.9" height="206.2"/>
		<rect id="Rectangle_432" x="2884.5" y="-1872.2" class="st4" width="101.9" height="79.7"/>
	</g>
	<path id="Path_7019" class="st5" d="M412.2,205.2l-7.5-71.5L412.2,205.2z"/>
	<path id="Path_7020" class="st6" d="M545.4,135.3v190.2H52.8v-71.3h66.8V55.6h425.7V135.3z"/>
	<path id="Path_7023" class="st5" d="M647.3,325.5V359c0,19.1-15.5,34.5-34.6,34.5H85.5c-19.1,0-34.6-15.4-34.6-34.5v-33.5H647.3z"
		/>
	<path id="Path_7025" class="st5" d="M468.5,150.4l-46.3-27.5c-3-1.8-6.8-0.8-8.6,2.2c-0.7,1.2-1,2.5-0.8,3.9l5.6,53.6
		c0.4,3.4,3.4,5.9,6.9,5.6c2-0.2,3.7-1.3,4.7-3l8.7-14.5l15,23.4c1.9,2.9,5.7,3.8,8.7,1.9c2.9-1.9,3.8-5.7,1.9-8.7l-15-23.4
		l16.8-1.8c3.4-0.4,5.9-3.5,5.5-6.9C471.3,153.1,470.2,151.4,468.5,150.4L468.5,150.4z"/>
	<path id="Path_7026" class="st5" d="M359.8,121.6H208.4c-6.7,0-12.2,5.5-12.2,12.2s5.5,12.2,12.2,12.2c0,0,0,0,0,0h151.4
		c6.7,0,12.2-5.5,12.2-12.2C372,127,366.5,121.6,359.8,121.6z"/>
	<path id="Path_7027" class="st5" d="M359.8,164.6H208.4c-6.7,0-12.2,5.5-12.2,12.2s5.5,12.2,12.2,12.2c0,0,0,0,0,0h151.4
		c6.7,0,12.2-5.5,12.2-12.2C372,170.1,366.5,164.6,359.8,164.6z"/>
	<path id="Path_7021" class="st0" d="M40,0h47.4c-19,0-34.5,15.4-34.5,34.5V359c0,19,15.4,34.5,34.5,34.5H40c-22.1,0-40-17.9-40-40
		V40C0,17.9,17.9,0,40,0z"/>
</g>
</svg>
