<svg xmlns="http://www.w3.org/2000/svg" viewBox="-4437.736 1173 671.743 500">
  <defs>
    <style>
      .cls-1 {
        fill: #ff5959;
      }

      .cls-2 {
        fill: #0071ce;
      }

      .cls-3 {
        fill: #ffb61e;
      }

      .cls-4 {
        fill: #333e48;
      }

      .cls-5 {
        fill: #f2f2f2;
      }

      .cls-6 {
        fill: #d1d3d3;
      }

      .cls-7 {
        fill: #828689;
      }

      .cls-8 {
        fill: #1e252b;
      }
    </style>
  </defs>
  <g id="Group_2787" data-name="Group 2787" transform="translate(-316 -393)">
    <path id="Path_7018" data-name="Path 7018" class="cls-1" d="M644.061,109.237v21.132H49.584V109.237A34.487,34.487,0,0,1,84.066,74.755H609.58A34.477,34.477,0,0,1,644.061,109.237Z" transform="translate(-4106.266 1503.452)"/>
    <g id="Group_2785" data-name="Group 2785" transform="translate(-4056.682 1633.815)">
      <rect id="Rectangle_429" data-name="Rectangle 429" class="cls-2" width="66.782" height="68.817"/>
      <rect id="Rectangle_430" data-name="Rectangle 430" class="cls-2" width="66.782" height="64.926" transform="translate(0 68.817)"/>
      <rect id="Rectangle_431" data-name="Rectangle 431" class="cls-2" width="66.782" height="64.91" transform="translate(0 133.744)"/>
    </g>
    <g id="Group_2786" data-name="Group 2786" transform="translate(-3564.151 1633.815)">
      <rect id="Rectangle_432" data-name="Rectangle 432" class="cls-3" width="101.948" height="79.709"/>
      <rect id="Rectangle_433" data-name="Rectangle 433" class="cls-3" width="101.948" height="190.22" transform="translate(0 79.709)"/>
    </g>
    <path id="Path_7019" data-name="Path 7019" class="cls-4" d="M379.563,213.4l-35.78,3.926L325.27,248.186l-7.506-71.48Z" transform="translate(-4022.594 1535.26)"/>
    <path id="Path_7020" data-name="Path 7020" class="cls-5" d="M439.417,254.582l30.214-14.051-68.2-45.242,10.7,83.152Zm102.7-57.729v190.22H49.584V315.8h66.782V117.145H542.114Z" transform="translate(-4106.266 1516.677)"/>
    <path id="Path_7021" data-name="Path 7021" class="cls-6" d="M49.274,74.756H96.633a34.487,34.487,0,0,0-34.482,34.482V433.771a34.5,34.5,0,0,0,34.482,34.482H49.274A39.979,39.979,0,0,1,9.305,428.269V114.74A39.979,39.979,0,0,1,49.274,74.756Z" transform="translate(-4118.833 1503.452)"/>
    <path id="Path_7022" data-name="Path 7022" class="cls-7" d="M346.159,374.677l-20.2,82.085H178.748l20.2-82.085Z" transform="translate(-4065.967 1597.027)"/>
    <path id="Path_7023" data-name="Path 7023" class="cls-6" d="M644.061,322.882v33.473a34.487,34.487,0,0,1-34.482,34.482H84.066a34.5,34.5,0,0,1-34.482-34.482V322.882H644.061Z" transform="translate(-4106.266 1580.867)"/>
    <path id="Path_7024" data-name="Path 7024" class="cls-8" d="M625.056,65.451H52.185A52.247,52.247,0,0,0,0,117.637V431.176a52.244,52.244,0,0,0,52.185,52.183H239.147l-16.485,66.963a12.209,12.209,0,0,0,11.855,15.129H478.361a12.211,12.211,0,0,0,0-24.422H397.3l14.2-57.672H625.054a46.742,46.742,0,0,0,46.689-46.687V112.14A46.742,46.742,0,0,0,625.056,65.451ZM77.271,279.223h42.357v40.5H77.271ZM119.628,254.8H77.271V214.308h42.357Zm0-64.915H77.271v-44.4h42.357ZM77.271,344.137h54.567a12.21,12.21,0,0,0,12.211-12.211V145.484H545.378v245.51H77.271ZM569.8,225.183h77.526V391H569.8Zm0-24.42V145.484h77.526v55.278Zm77.526-88.623v8.923H77.271V112.14A22.293,22.293,0,0,1,99.523,89.872H625.056A22.292,22.292,0,0,1,647.323,112.14ZM24.42,431.175V117.637A27.8,27.8,0,0,1,52.185,89.874h6.326a46.394,46.394,0,0,0-5.661,22.267V436.669a46.406,46.406,0,0,0,5.663,22.27H52.185A27.8,27.8,0,0,1,24.42,431.175ZM372.151,541.029H250.1l14.2-57.672H386.348Zm252.9-82.093H99.54a22.293,22.293,0,0,1-22.269-22.267v-21.25H647.323v21.25A22.292,22.292,0,0,1,625.056,458.936Z" transform="translate(-4121.736 1500.549)"/>
    <path id="Path_7025" data-name="Path 7025" class="cls-8" d="M400.623,214.292,324.1,168.851a10.358,10.358,0,0,0-15.589,9.989l9.3,88.512a10.357,10.357,0,0,0,19.184,4.245L351.324,247.7,376.1,286.38A10.359,10.359,0,0,0,393.549,275.2l-24.78-38.675,27.7-3.034a10.356,10.356,0,0,0,4.158-19.2Zm-65.45,20.068-3.9-37.158,32.125,19.076-13.487,1.478a10.357,10.357,0,0,0-7.755,4.967Z" transform="translate(-4025.5 1532.357)"/>
    <path id="Path_7026" data-name="Path 7026" class="cls-8" d="M322.445,167.4h-151.4a12.211,12.211,0,1,0,0,24.422h151.4a12.211,12.211,0,0,0,0-24.422Z" transform="translate(-4072.18 1532.357)"/>
    <path id="Path_7027" data-name="Path 7027" class="cls-8" d="M322.445,200.226h-151.4a12.211,12.211,0,1,0,0,24.422h151.4a12.211,12.211,0,0,0,0-24.422Z" transform="translate(-4072.18 1542.599)"/>
  </g>
</svg>
