<svg xmlns="http://www.w3.org/2000/svg" viewBox="0 0 492.2 407.63"><defs><style>.cls-1{fill:#1b1b1b;}</style></defs><title>SismoMX</title><g id="Capa_2" data-name="Capa 2"><g id="Layer_1" data-name="Layer 1"><path class="cls-1" d="M246.1,166.82a30.8,30.8,0,1,0,30.8,30.8A30.81,30.81,0,0,0,246.1,166.82Zm-1.3,38,11.5-11.2L245.1,182l5.1-5,16.2,16.7-16.6,16.2Zm1.7,8.2-5.2,5.1-16.2-16.7,16.7-16.2,5,5.1-11.5,11.2Z"/><path class="cls-1" d="M452.3,39.82c-53.2-53.1-139.4-53.1-192.5,0L246,53.42l-13.6-13.6c-53.1-53.1-139.3-53.1-192.5,0a136,136,0,0,0,0,192.5l153,154.2a71.85,71.85,0,0,0,52.2,21.1,71.85,71.85,0,0,0,52.2-21.1l155-154.2A136,136,0,0,0,452.3,39.82ZM197,128.32l3.1,22.2,14.8-2.1-5.5-39a129.13,129.13,0,0,1,73.4-.3l-5.5,39.3,14.8,2.1,3.2-22.6a115.72,115.72,0,0,1,66.1,97.8H295.7a57,57,0,1,0-106.5-28.1,55.94,55.94,0,0,0,7.5,28.1H131.9A115.51,115.51,0,0,1,197,128.32Zm91.2,69.3a42.1,42.1,0,1,1-42.1-42.1A42.17,42.17,0,0,1,288.2,197.62Zm84.6,66.2H119.4v-23.2h89.4a56.69,56.69,0,0,0,74.6,0h89.4Z"/></g></g></svg>