<svg xmlns="http://www.w3.org/2000/svg" viewBox="8301.996 3750 703.825 264.603">
  <defs>
    <style>
      .cls-1 {
        fill: #fff;
      }
    </style>
  </defs>
  <g id="Group_2977" data-name="Group 2977" transform="translate(8302 3750)">
    <path id="Path_34" data-name="Path 34" class="cls-1" d="M13.27,43.713h23.1a20.964,20.964,0,0,1,2.587.11,6.273,6.273,0,0,1,1.991.706c1.349.706,2.023,2.65,2.023,5.849,0,3.513-.925,5.551-2.776,6.163a12.545,12.545,0,0,1-3.889.439H6.606c-3.466,0-5.551-.941-6.147-2.838A11.871,11.871,0,0,1,0,50.315V8.619C0,6.063.47,4.319,1.427,3.4S4.175,2,6.826,2H36.369a20.965,20.965,0,0,1,2.587.11,6.273,6.273,0,0,1,1.991.706c1.4.753,2.023,2.666,2.023,5.865,0,3.513-.925,5.551-2.776,6.163a12.545,12.545,0,0,1-3.889.439H13.27v7.574H28.12a20.275,20.275,0,0,1,2.587.125,5.551,5.551,0,0,1,1.991.706c1.349.706,2.023,2.65,2.023,5.849,0,3.5-.941,5.551-2.854,6.147a12.545,12.545,0,0,1-3.889.455H13.27Z" transform="translate(0.008 1.135)"/>
    <path id="Path_35" data-name="Path 35" class="cls-1" d="M30.511,6.6a21.141,21.141,0,0,1,.11-2.587,7.261,7.261,0,0,1,.659-1.992C31.954.674,33.914,0,37.113,0s4.955.674,5.692,2.023a5.975,5.975,0,0,1,.721,2.023,22.2,22.2,0,0,1,.11,2.634V41.4a7.84,7.84,0,0,0,.455,3.4c.3.486.957.721,1.976.721a11.73,11.73,0,0,1,2.07.11,3.7,3.7,0,0,1,1.27.643q1.568.957,1.568,5.316c0,3.136-.5,5.081-1.568,5.771-1.3.91-4.391,1.051-9.3.455-3.842-.5-6.351-1.772-7.5-3.826q-2.086-3.669-2.1-11.651Z" transform="translate(17.344)"/>
    <path id="Path_36" data-name="Path 36" class="cls-1" d="M98.833,13.118a19.789,19.789,0,0,1,1.944,8.844,19.6,19.6,0,0,1-1.944,8.813,17.469,17.469,0,0,1-5.018,6.272,20.919,20.919,0,0,1-12.906,4.8H71.5V50.33a21.309,21.309,0,0,1-.11,2.587,6.178,6.178,0,0,1-.706,1.976c-.706,1.349-2.65,2.039-5.849,2.039-3.513,0-5.551-.925-6.163-2.776a12.733,12.733,0,0,1-.439-3.9V8.617a20.963,20.963,0,0,1,.11-2.587,6.272,6.272,0,0,1,.706-1.992C59.787,2.69,61.731,2,64.93,2H80.988A20.84,20.84,0,0,1,93.815,6.8a17.39,17.39,0,0,1,5.018,6.318ZM85.41,26.917a5.88,5.88,0,0,0,2.258-4.955,5.959,5.959,0,0,0-2.18-4.987,7.26,7.26,0,0,0-4.5-1.694H71.579V28.564h9.409A7.307,7.307,0,0,0,85.41,26.917Z" transform="translate(33.089 1.136)"/>
    <path id="Path_37" data-name="Path 37" class="cls-1" d="M125.54,27.2a9.111,9.111,0,0,1-2.289,6.821,7.135,7.135,0,0,1-5.065,2.211H100.419A4.14,4.14,0,0,0,102.9,39.76a9.91,9.91,0,0,0,4.94,1.427,20.385,20.385,0,0,0,6.837-.91l.815-.3a7.621,7.621,0,0,1,3.011-.815c1.568,0,2.964,1.113,4.124,3.371a8.342,8.342,0,0,1,.972,3.45q0,6.68-15.979,6.664a23.961,23.961,0,0,1-9.863-1.913,16.7,16.7,0,0,1-6.712-5.049,21.577,21.577,0,0,1-4.7-13.58A19.617,19.617,0,0,1,92.453,17a21.64,21.64,0,0,1,15.32-5.661q10.412,0,15.3,7.354A15.3,15.3,0,0,1,125.54,27.2Zm-15.822,2.211q2.85,0,2.854-2.4a3.387,3.387,0,0,0-1.317-2.776,5.833,5.833,0,0,0-3.748-1.051,7.558,7.558,0,0,0-4.845,1.991,5.551,5.551,0,0,0-2.4,4.234Z" transform="translate(49.05 6.432)"/>
    <path id="Path_38" data-name="Path 38" class="cls-1" d="M139.763,15.831c.3-2.634,2.242-3.967,5.849-3.967a14.458,14.458,0,0,1,4.2.455,3.136,3.136,0,0,1,1.9,1.568,6.271,6.271,0,0,1,.69,1.913,23.635,23.635,0,0,1,.11,2.54V62.106a24,24,0,0,1-.11,2.556,5.724,5.724,0,0,1-.69,1.866,3.136,3.136,0,0,1-1.945,1.568,12.545,12.545,0,0,1-3.716.455,12.059,12.059,0,0,1-3.669-.455,3.136,3.136,0,0,1-1.913-1.568,6.116,6.116,0,0,1-.674-1.913,20.24,20.24,0,0,1-.11-2.556V46.88a10.632,10.632,0,0,1-8.468,3.45,16.183,16.183,0,0,1-12.074-5.771,19.272,19.272,0,0,1,0-26.846q5.488-5.755,11.588-5.771T139.763,15.831ZM128.473,35.6a6.273,6.273,0,0,0,4.61,1.944,5.849,5.849,0,0,0,4.5-1.944,6.273,6.273,0,0,0,1.8-4.359,6.821,6.821,0,0,0-1.694-4.422,5.708,5.708,0,0,0-4.7-2.054,6.037,6.037,0,0,0-4.7,1.976,6.492,6.492,0,0,0-1.8,4.469,6.178,6.178,0,0,0,1.991,4.391Z" transform="translate(64.605 6.734)"/>
    <path id="Path_39" data-name="Path 39" class="cls-1" d="M159.814,51.322a15.932,15.932,0,0,1-12.545-5.739A20.574,20.574,0,0,1,142.283,31.6V18.4a24.721,24.721,0,0,1,.11-2.619,7.435,7.435,0,0,1,.643-1.96c.706-1.349,2.65-2.023,5.849-2.023,3.5,0,5.551.957,6.147,2.854a11.808,11.808,0,0,1,.455,3.826V31.6a6.382,6.382,0,0,0,1.756,4.8,6.508,6.508,0,0,0,4.7,1.725,6.586,6.586,0,0,0,4.8-1.8,6.272,6.272,0,0,0,1.835-4.7V18.392a21.3,21.3,0,0,1,.11-2.587,6.178,6.178,0,0,1,.706-1.976c.659-1.3,2.587-1.96,5.786-1.96s5.065.674,5.771,2.023a7.26,7.26,0,0,1,.643,1.991,25.091,25.091,0,0,1,.11,2.587V45.05a23.877,23.877,0,0,1-.11,2.509,5.19,5.19,0,0,1-.721,1.913c-.753,1.3-2.666,1.96-5.771,1.96s-4.924-.612-5.63-1.8a5.959,5.959,0,0,1-.753-3.136,7.04,7.04,0,0,1-1.349,1.568,16.609,16.609,0,0,1-2.007,1.568A10,10,0,0,1,159.814,51.322Z" transform="translate(80.84 6.698)"/>
    <path id="Path_40" data-name="Path 40" class="cls-1" d="M209.76,27.2a9.111,9.111,0,0,1-2.289,6.821,7.135,7.135,0,0,1-5.065,2.211H184.639A4.124,4.124,0,0,0,187.1,39.76a10,10,0,0,0,4.955,1.427,20.276,20.276,0,0,0,6.821-.91l.831-.3a7.5,7.5,0,0,1,3-.815c1.568,0,2.979,1.113,4.124,3.371a8.107,8.107,0,0,1,.972,3.45q0,6.68-15.963,6.664a23.914,23.914,0,0,1-9.863-1.913,16.591,16.591,0,0,1-6.712-5.049,21.577,21.577,0,0,1-4.7-13.58,19.6,19.6,0,0,1,6.1-15.117,21.64,21.64,0,0,1,15.258-5.661q10.444,0,15.3,7.354a15.32,15.32,0,0,1,2.54,8.515Zm-15.822,2.211c1.9,0,2.838-.8,2.838-2.4a3.418,3.418,0,0,0-1.3-2.776,5.865,5.865,0,0,0-3.748-1.051,7.558,7.558,0,0,0-4.783,1.991,5.551,5.551,0,0,0-2.4,4.234Z" transform="translate(96.896 6.433)"/>
    <path id="Path_41" data-name="Path 41" class="cls-1" d="M220.607,18.548a15.838,15.838,0,0,1,12.545,5.739,20.573,20.573,0,0,1,4.987,13.988V51.462a20.97,20.97,0,0,1-.11,2.587,6.273,6.273,0,0,1-.643,1.913c-.69,1.349-2.65,2.039-5.849,2.039-3.544,0-5.6-.925-6.147-2.776a12.343,12.343,0,0,1-.455-3.826V38.2a6.382,6.382,0,0,0-1.756-4.8,7.307,7.307,0,0,0-9.518.078,6.272,6.272,0,0,0-1.85,4.7V51.447a20.975,20.975,0,0,1-.094,2.6,5.427,5.427,0,0,1-.706,1.913c-.659,1.351-2.572,2.04-5.771,2.04s-5.081-.69-5.786-2.039a6.586,6.586,0,0,1-.627-1.976A20.64,20.64,0,0,1,198.7,51.4V24.852a19.559,19.559,0,0,1,.125-2.509,5.128,5.128,0,0,1,.706-1.913c.706-1.254,2.619-1.882,5.771-1.882s4.924.58,5.63,1.725a5.959,5.959,0,0,1,.753,3.136,7.951,7.951,0,0,1,1.349-1.568,14.788,14.788,0,0,1,2.023-1.568,9.848,9.848,0,0,1,5.551-1.725ZM230.878,1.3c1.8,1.254,2.7,2.462,2.7,3.607a3.873,3.873,0,0,1-.6,2.023c-.408.643-.674,1.113-.831,1.38A11.941,11.941,0,0,1,231.1,9.782a11.664,11.664,0,0,1-1.866,1.866,9.628,9.628,0,0,1-5.786,2.1,9.409,9.409,0,0,1-4.61-.972,17.69,17.69,0,0,1-2.776-1.944,3.01,3.01,0,0,0-1.756-.988,2.728,2.728,0,0,0-1.944.909c-1.16,1.992-2.211,3-3.136,3a5.818,5.818,0,0,1-3.513-1.8q-2.07-1.788-2.07-2.964a4.093,4.093,0,0,1,.6-2.133c.408-.643.674-1.113.831-1.38a11.5,11.5,0,0,1,1.082-1.427,14.115,14.115,0,0,1,1.913-1.835,9.691,9.691,0,0,1,5.724-2.1,9.409,9.409,0,0,1,4.7.925,15.416,15.416,0,0,1,2.634,1.882,3,3,0,0,0,1.725.941,2.415,2.415,0,0,0,1.96-.909c1.019-1.9,2.164-2.838,3.371-2.838a4.892,4.892,0,0,1,2.7,1.113Z" transform="translate(112.894 0.05)"/>
    <path id="Path_42" data-name="Path 42" class="cls-1" d="M233.183,17.11a20.605,20.605,0,0,1,28.712,0,19.366,19.366,0,0,1,6.272,14.819,19.4,19.4,0,0,1-3.23,10.977,20.1,20.1,0,0,1-7.84,7.119,21.154,21.154,0,0,1-9.565,2.289,20.386,20.386,0,0,1-9.55-2.368,21.42,21.42,0,0,1-7.841-7.2A18.974,18.974,0,0,1,227,31.991a19.351,19.351,0,0,1,6.183-14.881Zm9.409,20.2a7.841,7.841,0,0,0,4.8,1.882,8.17,8.17,0,0,0,4.955-1.882,6.555,6.555,0,0,0,2.478-5.551,6.508,6.508,0,0,0-2.336-5.473,8.044,8.044,0,0,0-5.018-1.8,7.841,7.841,0,0,0-5.018,1.882,6.664,6.664,0,0,0-2.337,5.5,6.445,6.445,0,0,0,2.431,5.473Z" transform="translate(128.968 6.412)"/>
    <path id="Path_43" data-name="Path 43" class="cls-1" d="M281.7,45.9h20.385a8.562,8.562,0,0,1,3.607.565,2.885,2.885,0,0,1,1.49,1.772,10.976,10.976,0,0,1,.376,3.136,10.976,10.976,0,0,1-.376,3.136,2.588,2.588,0,0,1-1.27,1.568,8.468,8.468,0,0,1-3.9.753H275.037c-3.513,0-5.551-.941-6.147-2.838a11.448,11.448,0,0,1-.455-3.826V8.612a20.937,20.937,0,0,1,.11-2.587,6.273,6.273,0,0,1,.784-1.991c.706-1.349,2.65-2.023,5.849-2.023,3.513,0,5.582.925,6.272,2.776a14.8,14.8,0,0,1,.376,3.889Z" transform="translate(152.504 1.142)"/>
    <path id="Path_44" data-name="Path 44" class="cls-1" d="M308.843,11.234a3.215,3.215,0,0,1-1.992,1.568,13.109,13.109,0,0,1-3.8.439,13,13,0,0,1-3.779-.439,3.136,3.136,0,0,1-1.991-1.568,6.538,6.538,0,0,1-.674-1.976,21.3,21.3,0,0,1-.11-2.587,20.961,20.961,0,0,1,.11-2.587,5.848,5.848,0,0,1,.674-1.96C297.944.774,299.9.1,303.1.1s5.049.674,5.692,2.023a5.88,5.88,0,0,1,.721,1.976,21.32,21.32,0,0,1,.11,2.587,20.981,20.981,0,0,1-.11,2.666,6.071,6.071,0,0,1-.674,1.882ZM296.5,25.143a21.3,21.3,0,0,1,.11-2.587,6.76,6.76,0,0,1,.643-1.992c.69-1.3,2.65-1.944,5.849-1.944a7.95,7.95,0,0,1,5.1,1.27,4.14,4.14,0,0,1,1.349,3.23c0,.5.078,1.223.078,2.164v26.25a20.991,20.991,0,0,1-.11,2.587,5.961,5.961,0,0,1-.721,1.991c-.643,1.3-2.572,1.944-5.771,1.944s-5.081-.674-5.771-2.023a6.823,6.823,0,0,1-.643-1.944,21.171,21.171,0,0,1-.11-2.634Z" transform="translate(168.455 0.057)"/>
    <path id="Path_45" data-name="Path 45" class="cls-1" d="M330.378,18.619a16.622,16.622,0,0,1,12.247,5.927,19.711,19.711,0,0,1,0,27.473q-5.5,5.943-11.886,5.943c-4.25,0-7.26-1.207-9.064-3.607-.408,2.446-2.556,3.685-6.461,3.685-3.136,0-5.065-.69-5.771-2.039a6.588,6.588,0,0,1-.627-1.976,20.625,20.625,0,0,1-.125-2.587V6.623a20.277,20.277,0,0,1,.125-2.587,5.788,5.788,0,0,1,.627-1.913C310.149.774,312.094.1,315.293.1S320.342.774,321,2.123a6.178,6.178,0,0,1,.721,1.976,21.32,21.32,0,0,1,.11,2.587V22.367a10.443,10.443,0,0,1,8.547-3.748Zm-6.57,24.212a5.928,5.928,0,0,0,4.61,2.039,6.842,6.842,0,0,0,6.664-6.523,6.728,6.728,0,0,0-1.8-4.547,6.084,6.084,0,0,0-4.8-2.054,5.865,5.865,0,0,0-4.7,2.1,6.884,6.884,0,0,0-1.756,4.532,6.476,6.476,0,0,0,1.788,4.453Z" transform="translate(175.381 0.057)"/>
    <path id="Path_46" data-name="Path 46" class="cls-1" d="M363.857,12.452a5.1,5.1,0,0,1,2.352,1.568,5.253,5.253,0,0,1,.941,3.481,11.791,11.791,0,0,1-1.427,5.253,4.469,4.469,0,0,1-4.124,2.854A5.8,5.8,0,0,1,359.012,25a7.62,7.62,0,0,0-3.261-.6,5.833,5.833,0,0,0-3.779,1.427,4.312,4.312,0,0,0-1.772,3.45V44.959a20.961,20.961,0,0,1-.11,2.587,6.273,6.273,0,0,1-.706,1.991q-1.129,1.95-5.849,1.944a8.3,8.3,0,0,1-5.175-1.27,4.485,4.485,0,0,1-1.349-3.23V18.489a21.3,21.3,0,0,1,.11-2.587,5.91,5.91,0,0,1,.627-1.913c.706-1.349,2.65-2.023,5.849-2.023s4.877.58,5.629,1.725a4.344,4.344,0,0,1,.831,2.478,13.87,13.87,0,0,1,1.082-1.286,14.816,14.816,0,0,1,3.1-1.991,8.765,8.765,0,0,1,4.077-1.27,19.586,19.586,0,0,1,2.964.188,18.815,18.815,0,0,1,2.572.643Z" transform="translate(191.469 6.601)"/>
    <path id="Path_47" data-name="Path 47" class="cls-1" d="M362.978,17.1a20.605,20.605,0,0,1,28.649,0A19.366,19.366,0,0,1,397.9,31.918a19.491,19.491,0,0,1-3.215,10.977,20.244,20.244,0,0,1-7.762,7.135,21.154,21.154,0,0,1-9.565,2.289,20.385,20.385,0,0,1-9.6-2.431,21.42,21.42,0,0,1-7.841-7.2,18.974,18.974,0,0,1-3.136-10.757,19.351,19.351,0,0,1,6.2-14.831Zm9.409,20.2a7.84,7.84,0,0,0,4.877,1.85,8.17,8.17,0,0,0,4.955-1.882,6.555,6.555,0,0,0,2.478-5.551,6.507,6.507,0,0,0-2.336-5.473,8.044,8.044,0,0,0-5.018-1.8,7.84,7.84,0,0,0-5.018,1.882,6.664,6.664,0,0,0-2.336,5.5,6.445,6.445,0,0,0,2.352,5.5Z" transform="translate(202.698 6.423)"/>
    <path id="Path_48" data-name="Path 48" class="cls-1" d="M100.311,43.51a4.7,4.7,0,0,1,2.9-2.274,23.4,23.4,0,0,1,10.977,0,4.7,4.7,0,0,1,2.9,2.289,9.674,9.674,0,0,1,.972,2.9,31.019,31.019,0,0,1,.173,3.763v65.2a31.017,31.017,0,0,1-.173,3.763,7.84,7.84,0,0,1-1.035,2.791q-1.568,2.948-9.22,2.948t-8.468-5.347a16.1,16.1,0,0,1-12.764,5.237q-9.832,0-17.908-8.578a28.728,28.728,0,0,1,0-40q8.264-8.625,17.955-8.625a15.32,15.32,0,0,1,12.545,5.457V50.112a31.021,31.021,0,0,1,.173-3.763,8.97,8.97,0,0,1,.973-2.839ZM82.576,102.832a9.174,9.174,0,0,0,6.9,2.948,8.672,8.672,0,0,0,6.711-2.948,9.409,9.409,0,0,0,2.7-6.492,10.067,10.067,0,0,0-2.556-6.6A8.593,8.593,0,0,0,89.4,86.6a8.86,8.86,0,0,0-6.994,3,9.9,9.9,0,0,0-2.619,6.617,9.189,9.189,0,0,0,2.791,6.617Z" transform="translate(34.417 23.056)"/>
    <path id="Path_49" data-name="Path 49" class="cls-1" d="M158.974,80.041q0,6.712-3.324,9.926a10.428,10.428,0,0,1-7.37,3.23H122.437q0,3.059,3.607,5.128a14.333,14.333,0,0,0,7.2,2.07,30.5,30.5,0,0,0,9.942-1.3l1.192-.439a11.071,11.071,0,0,1,4.375-1.207c2.321,0,4.328,1.568,6.006,4.908a12.138,12.138,0,0,1,1.411,5.034q0,9.722-23.255,9.707a35.173,35.173,0,0,1-14.348-2.776,24.384,24.384,0,0,1-9.769-7.37,31.362,31.362,0,0,1-6.884-19.758q0-13.752,8.891-21.954a31.362,31.362,0,0,1,22.189-8.233q15.164,0,22.267,10.694a22.22,22.22,0,0,1,3.716,12.341Zm-23.036,3.136c2.76,0,4.156-1.16,4.156-3.5a4.924,4.924,0,0,0-1.976-3.952,8.531,8.531,0,0,0-5.457-1.568,10.977,10.977,0,0,0-7.041,2.9,8.091,8.091,0,0,0-3.5,6.163Z" transform="translate(57.908 32.377)"/>
    <path id="Path_50" data-name="Path 50" class="cls-1" d="M202.969,46.678a5.206,5.206,0,0,1,3.136-2.572,17.893,17.893,0,0,1,5.175-.643,18.283,18.283,0,0,1,5.018.549,8.107,8.107,0,0,1,2.854,1.3A4.454,4.454,0,0,1,220.5,47.6a17.093,17.093,0,0,1,.659,5.567v60.592a31.918,31.918,0,0,1-.157,3.826,8.907,8.907,0,0,1-1.035,2.838q-1.568,2.948-8.515,2.948a17.861,17.861,0,0,1-5.9-.659,6.351,6.351,0,0,1-2.729-2.07Q178.251,87.869,170.5,77.848v35.91a31.919,31.919,0,0,1-.157,3.826,8.625,8.625,0,0,1-1.051,2.838q-1.568,2.948-8.515,2.948c-4.5,0-7.276-.988-8.3-2.948a8.892,8.892,0,0,1-1.035-2.948,33.526,33.526,0,0,1-.157-3.826V52.73a13.312,13.312,0,0,1,1.035-6.053A5.222,5.222,0,0,1,155.46,44.1a18.645,18.645,0,0,1,5.347-.643,18.19,18.19,0,0,1,5.19.6,6.79,6.79,0,0,1,2.681,1.364,29.054,29.054,0,0,1,2.509,2.838q23.036,31.362,30.782,41.367V52.73a13.313,13.313,0,0,1,.988-6.053Z" transform="translate(85.951 24.687)"/>
    <path id="Path_51" data-name="Path 51" class="cls-1" d="M257.438,80.041q0,6.712-3.34,9.926a10.365,10.365,0,0,1-7.37,3.23H220.87c0,2.039,1.192,3.748,3.591,5.128a14.332,14.332,0,0,0,7.213,2.07,30.327,30.327,0,0,0,9.926-1.3l1.207-.439a10.977,10.977,0,0,1,4.359-1.207c2.336,0,4.328,1.568,6.006,4.908a12.2,12.2,0,0,1,1.427,5.034q0,9.722-23.255,9.707a35.189,35.189,0,0,1-14.317-2.776,24.494,24.494,0,0,1-9.769-7.37,31.362,31.362,0,0,1-6.868-19.758q0-13.752,8.891-21.954a31.362,31.362,0,0,1,22.173-8.233q15.179,0,22.267,10.694a22.22,22.22,0,0,1,3.716,12.341ZM234.4,83.177c2.76,0,4.14-1.16,4.14-3.5a4.892,4.892,0,0,0-1.913-4.03,8.531,8.531,0,0,0-5.488-1.4,10.977,10.977,0,0,0-7.041,2.9,8.123,8.123,0,0,0-3.481,6.163Z" transform="translate(113.855 32.377)"/>
    <path id="Path_52" data-name="Path 52" class="cls-1" d="M278.352,108.126q-4.14,5.457-13.2,5.457t-16.983-8.311a27.959,27.959,0,0,1,0-39.03q7.966-8.4,17.469-8.4A16.371,16.371,0,0,1,272.4,59.2a11.682,11.682,0,0,1,6.006,4.7,6.68,6.68,0,0,1,2.242-4.7,9.644,9.644,0,0,1,6.163-1.568,21.263,21.263,0,0,1,6.272.659,4.611,4.611,0,0,1,2.791,2.227,8.877,8.877,0,0,1,.972,2.791,29.8,29.8,0,0,1,.172,3.716v45.146a25.7,25.7,0,0,1-8.734,20.244,28.994,28.994,0,0,1-19.648,7.7,33.056,33.056,0,0,1-15.838-4.046c-5.018-2.681-7.527-5.128-7.527-7.307a10.349,10.349,0,0,1,3.277-7.527,26.061,26.061,0,0,1,3.215-3.136,4.234,4.234,0,0,1,2.681-.878,5.128,5.128,0,0,1,3.136,1.317,18.253,18.253,0,0,0,11.4,3.983,8.217,8.217,0,0,0,6.759-3.277,12.122,12.122,0,0,0,2.619-7.841ZM258.923,85.812a8.891,8.891,0,0,0,2.791,6.382,9.079,9.079,0,0,0,6.759,2.838,8.515,8.515,0,0,0,6.6-2.9,9.2,9.2,0,0,0,2.634-6.272,9.832,9.832,0,0,0-2.525-6.445,8.327,8.327,0,0,0-6.759-3.011,8.8,8.8,0,0,0-6.884,2.948,9.628,9.628,0,0,0-2.619,6.461Z" transform="translate(136.488 32.721)"/>
    <path id="Path_53" data-name="Path 53" class="cls-1" d="M290.169,65.4a29.935,29.935,0,0,1,20.966-8.515,29.622,29.622,0,0,1,20.84,8.468,28.226,28.226,0,0,1,9.064,21.5,28.461,28.461,0,0,1-4.7,16.1,29.527,29.527,0,0,1-11.384,10.428,30.814,30.814,0,0,1-13.925,3.262,29.637,29.637,0,0,1-13.972-3.544,31.049,31.049,0,0,1-11.416-10.475,27.583,27.583,0,0,1-4.7-15.681A28.226,28.226,0,0,1,290.169,65.4Zm13.643,29.418a11.62,11.62,0,0,0,7.1,2.681,11.886,11.886,0,0,0,7.2-2.729,9.518,9.518,0,0,0,3.607-8.076,9.409,9.409,0,0,0-3.387-7.966,11.636,11.636,0,0,0-7.307-2.619,11.463,11.463,0,0,0-7.323,2.728,9.675,9.675,0,0,0-3.387,8.013,9.409,9.409,0,0,0,3.5,7.966Z" transform="translate(159.608 32.32)"/>
    <path id="Path_54" data-name="Path 54" class="cls-1" d="M342.389,86.739a8.891,8.891,0,0,0,3.136,7.213,9.942,9.942,0,0,0,6.492,2.556,11.369,11.369,0,0,0,6.367-2.039,9.612,9.612,0,0,1,4.861-2.023c2.18,0,4.845,1.929,7.966,5.786a9.518,9.518,0,0,1,2.509,5.677c0,2.76-1.991,5.347-6.006,7.746a25.858,25.858,0,0,1-15.273,4.359,31.362,31.362,0,0,1-19.539-7.307,26.046,26.046,0,0,1-7.323-9.33,29.213,29.213,0,0,1-2.838-12.89,28.476,28.476,0,0,1,2.838-12.764A26.046,26.046,0,0,1,332.9,64.5a30.468,30.468,0,0,1,19.319-7.213,28.556,28.556,0,0,1,8.076,1.145,26.769,26.769,0,0,1,5.786,2.242l1.741,1.082c1.317.878,2.336,1.568,3.058,2.086a6.272,6.272,0,0,1,2.838,4.971,11.745,11.745,0,0,1-2.289,6.272q-3.936,5.99-7.527,6.006a12.639,12.639,0,0,1-5.9-2.305,7.841,7.841,0,0,0-5.629-1.866,10.553,10.553,0,0,0-6.821,2.619,8.954,8.954,0,0,0-3.168,7.2Z" transform="translate(183.363 32.547)"/>
    <path id="Path_55" data-name="Path 55" class="cls-1" d="M377.737,56.814a4.7,4.7,0,0,1-2.885,2.242,24.024,24.024,0,0,1-10.977,0,4.61,4.61,0,0,1-2.885-2.289,9.407,9.407,0,0,1-.988-2.9,31.73,31.73,0,0,1-.157-3.763A31.737,31.737,0,0,1,360,46.339a9.078,9.078,0,0,1,.925-2.791q1.568-2.932,8.515-2.948c4.6,0,7.354.988,8.311,2.948a8.8,8.8,0,0,1,1.035,2.9,31.73,31.73,0,0,1,.157,3.763,31.75,31.75,0,0,1-.157,3.763,8.781,8.781,0,0,1-1.051,2.838ZM359.782,77.059a32.111,32.111,0,0,1,.157-3.763,10.288,10.288,0,0,1,.925-2.885q1.568-2.838,8.515-2.838,5.25,0,7.433,1.85a6.037,6.037,0,0,1,1.96,4.7c.078.737.11,1.788.11,3.136v38.23a31.73,31.73,0,0,1-.157,3.763,8.8,8.8,0,0,1-1.035,2.9c-.956,1.882-3.763,2.838-8.421,2.838s-7.386-.988-8.4-2.948a10.535,10.535,0,0,1-.925-2.838,31.9,31.9,0,0,1-.157-3.826Z" transform="translate(204.404 23.065)"/>
    <path id="Path_56" data-name="Path 56" class="cls-1" d="M385.673,65.4a30,30,0,0,1,41.821,0,28.226,28.226,0,0,1,9.064,21.452,28.351,28.351,0,0,1-4.7,16.1,29.481,29.481,0,0,1-11.4,10.365,30.939,30.939,0,0,1-13.925,3.324,29.794,29.794,0,0,1-13.972-3.544,31,31,0,0,1-11.4-10.475,27.457,27.457,0,0,1-4.7-15.681A28.226,28.226,0,0,1,385.673,65.4Zm13.6,29.418a11.541,11.541,0,0,0,7.088,2.681,11.965,11.965,0,0,0,7.213-2.729,9.5,9.5,0,0,0,3.591-8.076,9.409,9.409,0,0,0-3.371-7.966,11.683,11.683,0,0,0-7.323-2.619,11.416,11.416,0,0,0-7.2,2.729,9.675,9.675,0,0,0-3.434,8.013,9.409,9.409,0,0,0,3.434,7.966Z" transform="translate(213.874 32.329)"/>
    <path id="Path_57" data-name="Path 57" class="cls-1" d="M420.334,110.535a4.516,4.516,0,0,1-2.07-4.14q0-2.838,4.14-8.625a4.25,4.25,0,0,1,3.873-1.85,15.822,15.822,0,0,1,7.26,2.666,16.779,16.779,0,0,0,8.3,2.681q6.657,0,6.664-2.619,0-2.1-7.323-3.136a35.706,35.706,0,0,1-13.643-5.143,14.537,14.537,0,0,1-5.237-6.163,22.362,22.362,0,0,1-2.07-9.957Q420.225,57,443.919,57a38.418,38.418,0,0,1,15.932,3.716c2.54,1.16,3.826,2.619,3.826,4.359a12.749,12.749,0,0,1-2.415,6.445c-1.568,2.556-3.23,3.826-4.908,3.826a14.709,14.709,0,0,1-4.861-1.568,18.2,18.2,0,0,0-7.684-1.568q-6.445,0-6.445,2.4,0,3.262,7.417,4.265a40.347,40.347,0,0,1,13.972,4.14,12.4,12.4,0,0,1,5.3,5.3,19.069,19.069,0,0,1,2.133,9.409,20.386,20.386,0,0,1-2.133,9.66,13.768,13.768,0,0,1-5.943,5.943,40.112,40.112,0,0,1-17.531,3.262,37.446,37.446,0,0,1-20.244-6.053Z" transform="translate(237.625 32.382)"/>
    <path id="Path_58" data-name="Path 58" class="cls-1" d="M149.611,143.359V106.2a17.984,17.984,0,0,1,.094-2.164,5.158,5.158,0,0,1,.533-1.568c.6-1.145,2.023-1.709,4.265-1.709a8.264,8.264,0,0,1,4.547.862,3.418,3.418,0,0,1,1.364,2.509,8.781,8.781,0,0,1,7.6-3.309,13.533,13.533,0,0,1,9.832,4.892,16.308,16.308,0,0,1,0,22.785,13.5,13.5,0,0,1-9.832,4.908c-3.466,0-5.99-.988-7.558-2.932v12.859a14.657,14.657,0,0,1-.11,2.164,5.252,5.252,0,0,1-.564,1.568,2.666,2.666,0,0,1-1.568,1.3,10.178,10.178,0,0,1-3.136.392,10.6,10.6,0,0,1-3.136-.392,2.744,2.744,0,0,1-1.662-1.27,4.971,4.971,0,0,1-.565-1.568A17.987,17.987,0,0,1,149.611,143.359Zm12.545-29.982a5.692,5.692,0,0,0-1.458,3.763,5.5,5.5,0,0,0,1.49,3.716,4.893,4.893,0,0,0,3.826,1.694,5.285,5.285,0,0,0,3.936-1.662,5.222,5.222,0,0,0,1.568-3.748,5.535,5.535,0,0,0-1.568-3.795,5.128,5.128,0,0,0-3.967-1.678,4.893,4.893,0,0,0-3.779,1.709Z" transform="translate(85.006 57.217)"/>
    <path id="Path_59" data-name="Path 59" class="cls-1" d="M195.344,104.3c.251-2.368,1.929-3.56,5.034-3.56a13.312,13.312,0,0,1,3.685.376,2.7,2.7,0,0,1,1.694,1.333,5.615,5.615,0,0,1,.565,1.694,18.82,18.82,0,0,1,.094,2.2V128.6a18.823,18.823,0,0,1-.094,2.2,5.911,5.911,0,0,1-.533,1.694c-.6,1.1-2.054,1.568-4.359,1.568a8.468,8.468,0,0,1-4.7-.862,3.356,3.356,0,0,1-1.38-2.509c-1.568,2.258-4.187,3.371-7.84,3.371a13.894,13.894,0,0,1-10.208-5.018,16.59,16.59,0,0,1-4.7-11.682,16.387,16.387,0,0,1,4.7-11.651,14.113,14.113,0,0,1,10.4-4.987,9.816,9.816,0,0,1,3.952.768,7.056,7.056,0,0,1,3.69,2.808Zm-11.573,13.23a5.332,5.332,0,0,0,1.647,3.795A5.441,5.441,0,0,0,189.432,123a5.034,5.034,0,0,0,3.9-1.709A5.519,5.519,0,0,0,194.9,117.5a5.8,5.8,0,0,0-1.568-3.842,4.924,4.924,0,0,0-4-1.788,5.143,5.143,0,0,0-4.077,1.788,5.755,5.755,0,0,0-1.49,3.858Z" transform="translate(98.062 57.22)"/>
    <path id="Path_60" data-name="Path 60" class="cls-1" d="M220.2,101.251a4.218,4.218,0,0,1,1.992,1.3,4.5,4.5,0,0,1,.8,2.964,9.927,9.927,0,0,1-1.207,4.453,3.779,3.779,0,0,1-3.5,2.415,4.892,4.892,0,0,1-2.2-.5,6.351,6.351,0,0,0-2.776-.517,5,5,0,0,0-3.215,1.223,3.638,3.638,0,0,0-1.49,2.917v13.36a18.573,18.573,0,0,1-.094,2.2,5.079,5.079,0,0,1-.612,1.694c-.627,1.1-2.289,1.568-4.955,1.568a7.025,7.025,0,0,1-4.391-1.082,3.779,3.779,0,0,1-1.145-2.729v-24.17a18.827,18.827,0,0,1,.094-2.2,5.253,5.253,0,0,1,.549-1.568c.58-1.145,2.242-1.709,4.955-1.709s4.14.486,4.7,1.458a3.638,3.638,0,0,1,.706,2.1,10.851,10.851,0,0,1,.925-1.082,12.371,12.371,0,0,1,2.572-1.725,7.605,7.605,0,0,1,3.466-1.066,16.42,16.42,0,0,1,2.525.157,14.584,14.584,0,0,1,2.289.533Z" transform="translate(112.161 57.128)"/>
    <path id="Path_61" data-name="Path 61" class="cls-1" d="M236.854,104.3c.267-2.368,1.944-3.56,5.034-3.56a13.25,13.25,0,0,1,3.685.376,2.666,2.666,0,0,1,1.694,1.333,5.614,5.614,0,0,1,.565,1.694,18.039,18.039,0,0,1,.11,2.2V128.6a18.042,18.042,0,0,1-.11,2.2,5.913,5.913,0,0,1-.533,1.694c-.6,1.1-2.054,1.568-4.359,1.568a8.468,8.468,0,0,1-4.7-.862,3.45,3.45,0,0,1-1.38-2.509c-1.568,2.258-4.187,3.371-7.841,3.371A13.893,13.893,0,0,1,218.8,129.04a16.575,16.575,0,0,1-4.7-11.682,16.371,16.371,0,0,1,4.7-11.651,14.113,14.113,0,0,1,10.412-4.987,9.785,9.785,0,0,1,3.936.768,8.138,8.138,0,0,1,2.478,1.427,8.4,8.4,0,0,1,1.228,1.385Zm-11.573,13.23a5.331,5.331,0,0,0,1.646,3.8A5.473,5.473,0,0,0,230.942,123a5.1,5.1,0,0,0,3.92-1.709,5.567,5.567,0,0,0,1.568-3.8,5.864,5.864,0,0,0-1.568-3.842,4.971,4.971,0,0,0-4.014-1.788,5.175,5.175,0,0,0-4.077,1.788,5.755,5.755,0,0,0-1.49,3.858Z" transform="translate(121.644 57.22)"/>
    <path id="Path_62" data-name="Path 62" class="cls-1" d="M293.069,120.373A5.159,5.159,0,0,1,296.2,117.8a17.422,17.422,0,0,1,5.19-.659,18.909,18.909,0,0,1,5.018.549,7.73,7.73,0,0,1,2.838,1.317,4.5,4.5,0,0,1,1.364,2.289,17.014,17.014,0,0,1,.659,5.567v60.623a30.811,30.811,0,0,1-.172,3.811,8.784,8.784,0,0,1-1.035,2.838c-1.019,1.976-3.858,2.948-8.515,2.948a17.924,17.924,0,0,1-5.9-.659,6.414,6.414,0,0,1-2.729-2.07q-24.557-32.742-32.319-42.794v35.925a31.6,31.6,0,0,1-.157,3.81,8.781,8.781,0,0,1-1.035,2.838c-1.019,1.976-3.858,2.948-8.515,2.948s-7.276-.972-8.3-2.948a8.656,8.656,0,0,1-1.035-2.948,32.469,32.469,0,0,1-.173-3.81v-60.95a13.312,13.312,0,0,1,1.035-6.053,5.237,5.237,0,0,1,3.136-2.572,18.05,18.05,0,0,1,5.347-.659,18.331,18.331,0,0,1,5.19.6,6.806,6.806,0,0,1,2.666,1.364,28.889,28.889,0,0,1,2.509,2.838q23.051,31.362,30.8,41.382v-36.9a13.312,13.312,0,0,1,.988-6.053Z" transform="translate(137.138 66.546)"/>
    <path id="Path_63" data-name="Path 63" class="cls-1" d="M309.535,130.5a4.7,4.7,0,0,1-2.9,2.227,23.4,23.4,0,0,1-10.977,0,4.563,4.563,0,0,1-2.885-2.289,9.407,9.407,0,0,1-.988-2.885,45.467,45.467,0,0,1,0-7.543,9.143,9.143,0,0,1,.925-2.776c1.019-1.976,3.857-2.948,8.515-2.948s7.354.972,8.3,2.948a8.389,8.389,0,0,1,1.035,2.885,41.317,41.317,0,0,1,0,7.543,8.467,8.467,0,0,1-1.025,2.838ZM291.5,150.748a31.724,31.724,0,0,1,.157-3.763,10.362,10.362,0,0,1,.925-2.9c1.019-1.882,3.857-2.838,8.515-2.838q5.25,0,7.433,1.866a6.053,6.053,0,0,1,1.96,4.7c.078.721.11,1.788.11,3.136v38.215a31.383,31.383,0,0,1-.172,3.763,8.388,8.388,0,0,1-1.035,2.885q-1.411,2.854-8.4,2.838c-4.579,0-7.386-.972-8.4-2.948a10.37,10.37,0,0,1-.925-2.838,31.612,31.612,0,0,1-.157-3.811Z" transform="translate(165.613 64.929)"/>
    <path id="Path_64" data-name="Path 64" class="cls-1" d="M341.23,141.137A23.1,23.1,0,0,1,359.4,149.5a30,30,0,0,1,7.26,20.385V189.11a31.383,31.383,0,0,1-.172,3.763,9.143,9.143,0,0,1-.925,2.776c-1.019,1.976-3.858,2.948-8.515,2.948q-7.841,0-8.954-4.03a17.749,17.749,0,0,1-.659-5.567V169.74a8.75,8.75,0,0,0-9.409-9.487,9.487,9.487,0,0,0-6.978,2.619,9.158,9.158,0,0,0-2.681,6.868v19.366a32.091,32.091,0,0,1-.157,3.763,7.84,7.84,0,0,1-1.035,2.776c-.957,1.976-3.763,2.948-8.421,2.948s-7.386-.972-8.4-2.948a10.286,10.286,0,0,1-.925-2.885,32.078,32.078,0,0,1-.157-3.763V150.311a30.508,30.508,0,0,1,.157-3.654,7.839,7.839,0,0,1,1.035-2.791q1.568-2.729,8.4-2.729c4.453,0,7.182.847,8.2,2.509a8.75,8.75,0,0,1,1.082,4.485,10.614,10.614,0,0,1,1.976-2.18,18.3,18.3,0,0,1,2.948-2.3A14.332,14.332,0,0,1,341.23,141.137Zm14.944-25.215c2.619,1.819,3.936,3.575,3.936,5.237a5.552,5.552,0,0,1-.878,2.948c-.58.957-.972,1.568-1.192,2.023a19.213,19.213,0,0,1-1.568,2.133,16.043,16.043,0,0,1-2.729,2.728,14.113,14.113,0,0,1-8.4,3.136,13.3,13.3,0,0,1-6.7-1.474,24.1,24.1,0,0,1-4.046-2.838,4.422,4.422,0,0,0-2.556-1.411,4,4,0,0,0-2.838,1.3c-1.678,2.917-3.23,4.375-4.7,4.375a8.562,8.562,0,0,1-5.128-2.619c-2.007-1.756-3.011-3.136-3.011-4.312a5.9,5.9,0,0,1,.878-3.136c.58-.941.988-1.568,1.207-2.007a13.378,13.378,0,0,1,1.568-2.086,19.424,19.424,0,0,1,2.776-2.666,14,14,0,0,1,8.405-2.948,13.847,13.847,0,0,1,6.774,1.364,22.877,22.877,0,0,1,3.92,2.729,4.344,4.344,0,0,0,2.509,1.364,3.481,3.481,0,0,0,2.838-1.317c1.568-2.76,3.136-4.14,4.924-4.14a7.245,7.245,0,0,1,4.014,1.615Z" transform="translate(175.709 64.928)"/>
    <path id="Path_65" data-name="Path 65" class="cls-1" d="M359.59,139.073a29.987,29.987,0,0,1,46.181,37.635,29.4,29.4,0,0,1-11.416,10.365,30.845,30.845,0,0,1-13.909,3.34,29.919,29.919,0,0,1-13.988-3.544,31.049,31.049,0,0,1-11.4-10.491,27.5,27.5,0,0,1-4.7-15.681,28.226,28.226,0,0,1,9.232-21.624Zm13.643,29.418a11.62,11.62,0,0,0,7.1,2.681,11.886,11.886,0,0,0,7.2-2.729,10.977,10.977,0,0,0,.22-16.057,11.729,11.729,0,0,0-7.307-2.619,11.463,11.463,0,0,0-7.323,2.729,9.707,9.707,0,0,0-3.387,8.029,9.409,9.409,0,0,0,3.5,7.982Z" transform="translate(199.045 74.19)"/>
    <path id="Path_66" data-name="Path 66" class="cls-1" d="M394.234,184.237a4.563,4.563,0,0,1-2.07-4.156q0-2.823,4.156-8.625a4.281,4.281,0,0,1,3.873-1.85,15.948,15.948,0,0,1,7.26,2.681,16.9,16.9,0,0,0,8.3,2.666c4.438,0,6.649-.878,6.649-2.619q0-2.07-7.307-3.136a35.831,35.831,0,0,1-13.643-5.128,14.521,14.521,0,0,1-5.237-6.163,22.19,22.19,0,0,1-2.086-9.989q0-17.249,23.694-17.249a38.716,38.716,0,0,1,15.948,3.7c2.54,1.176,3.81,2.619,3.81,4.375a12.952,12.952,0,0,1-2.4,6.445c-1.568,2.54-3.246,3.81-4.908,3.81a14.943,14.943,0,0,1-4.861-1.568,18.1,18.1,0,0,0-7.7-1.647c-4.3,0-6.445.815-6.445,2.415q0,3.262,7.433,4.25a40.772,40.772,0,0,1,13.972,4.155,12.325,12.325,0,0,1,5.284,5.285,18.818,18.818,0,0,1,2.133,9.409,20.229,20.229,0,0,1-2.133,9.675,13.847,13.847,0,0,1-5.943,5.943A40.035,40.035,0,0,1,414.5,190.3a37.494,37.494,0,0,1-20.26-6.069Z" transform="translate(222.797 74.235)"/>
  </g>
</svg>
