<?xml version="1.0" encoding="UTF-8"?>
<svg width="614px" height="95px" viewBox="0 0 614 95" version="1.1" xmlns="http://www.w3.org/2000/svg" xmlns:xlink="http://www.w3.org/1999/xlink">
    <!-- Generator: Sketch 46.2 (44496) - http://www.bohemiancoding.com/sketch -->
    <title>Logo</title>
    <desc>Created with Sketch.</desc>
    <defs></defs>
    <g id="Page-1" stroke="none" stroke-width="1" fill="none" fill-rule="evenodd">
        <g id="General" transform="translate(-679.000000, -298.000000)" fill="#1b1b1b">
            <g id="Header">
                <g id="TextBox" transform="translate(129.000000, 102.000000)">
                    <g id="Group-3">
                        <g id="Group-2" transform="translate(441.000000, 27.000000)">
                            <g id="Logo" transform="translate(109.000000, 169.000000)">
                                <g id="Group-4">
                                    <g id="Logo-Codeando">
                                        <path d="M47.5,95 C21.2664744,95 0,73.7335256 0,47.5 C0,21.2664744 21.2664744,0 47.5,0 C73.7335256,0 95,21.2664744 95,47.5 C95,73.7335256 73.7335256,95 47.5,95 Z M48.1333333,30.4337488 L60.3153137,43.3652268 L48.1333333,55.630082 L52.7534831,60.8 L70.9333333,43.3652268 L53.2105295,25.3333333 L48.1333333,30.4337488 Z M48.1333333,64.5662512 L35.951353,51.6347732 L48.1333333,39.369918 L43.5131835,34.2 L25.3333333,51.6347732 L43.0561372,69.6666667 L48.1333333,64.5662512 Z" id="Combined-Shape"></path>
                                    </g>
                                    <g id="WordMark" transform="translate(108.000000, 19.000000)" fill-rule="nonzero">
                                        <polygon id="Shape" points="295 56 295 5 309.211478 5 320.480795 44.8080962 331.750113 5 346 5 346 56 337.78807 56 337.78807 14.1817075 336.68188 14.1817075 324.75192 53.8966672 316.20967 53.8966672 304.279711 14.1584234 303.17352 14.1584234 303.17352 56"></polygon>
                                        <path d="M382.489616,48.5430809 L384.584901,48.3199121 L384.733447,54.2992992 C379.754366,55.3537149 374.681962,55.9233593 369.589543,56 C364.043815,56 360.059125,54.4993816 357.635475,51.4981448 C355.211825,48.4969081 354,43.7000595 354,37.1075993 C354,24.0252851 359.420637,17.4841281 370.261911,17.4841281 C380.75397,17.4841281 386,23.1274793 386,34.4141817 L385.476179,40.1703999 L362.248229,40.1703999 C362.30035,43.2178095 362.975324,45.4546287 364.273149,46.8808575 C365.570975,48.3070863 367.994625,49.0202006 371.5441,49.0202006 C375.088362,48.9996794 378.736868,48.8406395 382.489616,48.5430809 Z M359.99658,7.44922358 L377.689226,0 L380.237967,6.92593102 L361.951136,12.6821492 L359.99658,7.44922358 Z M377.9785,33.937062 C377.9785,30.2996656 377.392133,27.7550273 376.219399,26.3031469 C375.046665,24.8512665 373.060836,24.1253264 370.261911,24.1253264 C367.462986,24.1253264 365.427641,24.8948743 364.155876,26.43397 C362.884111,27.9730658 362.222168,30.4817919 362.170046,33.9601484 L377.9785,33.937062 Z" id="Shape"></path>
                                        <polygon id="Shape" points="389 18 397.64949 18 404.961108 30.8068016 412.342732 18 420.992222 18 409.884784 36.2027957 421 55 412.342732 55 404.961108 42.3475902 397.64949 55 389 55 399.811862 36.4266639"></polygon>
                                        <path d="M426,12.545292 L426,4 L434,4 L434,12.5220501 L426,12.545292 Z M426,56 L426,18.8593564 L434,18.8593564 L434,55.9922527 L426,56 Z" id="Shape"></path>
                                        <path d="M457.740226,18.0000136 C460.893972,18.0526068 464.035666,18.4022141 467.123371,19.0441691 L469,19.4181949 L468.702867,25.8389719 C464.71503,25.4337773 461.772372,25.2311799 459.874891,25.2311799 C456.074718,25.2311799 453.52563,26.0779329 452.227628,27.7714388 C450.929626,29.4649447 450.280626,32.6519566 450.280626,37.3324744 C450.280626,42.0077974 450.906169,45.24416 452.157255,47.0415619 C453.408341,48.8389639 456.01477,49.7350675 459.976542,49.7298727 L468.687228,49.1532495 L468.913988,55.6519485 C465.158962,56.4057847 461.349044,56.8565966 457.521286,57 C451.823632,57 447.812337,55.467533 445.487402,52.402599 C443.162467,49.337665 442,44.3194849 442,37.3480588 C442,30.3766327 443.225022,25.4078032 445.675065,22.4415705 C448.125109,19.4753378 452.146829,17.9948188 457.740226,18.0000136 Z" id="Shape"></path>
                                        <path d="M476.812442,22.8555156 C479.354069,19.6185052 483.583255,18 489.5,18 C495.416745,18 499.645931,19.6185052 502.187558,22.8555156 C504.729186,26.092526 506,30.9480416 506,37.4220624 C506,43.8960831 504.767774,48.7775779 502.303321,52.0665468 C499.838868,55.3555156 495.571094,57 489.5,57 C483.428906,57 479.161132,55.3555156 476.696679,52.0665468 C474.232226,48.7775779 473,43.8960831 473,37.4220624 C473,30.9480416 474.270814,26.092526 476.812442,22.8555156 Z M482.839804,47.1408873 C483.971703,49.1308953 486.191768,50.1258993 489.5,50.1258993 C492.808232,50.1258993 495.028297,49.1308953 496.160196,47.1408873 C497.292095,45.1508793 497.860617,41.8878897 497.865762,37.3519185 C497.870907,32.8159472 497.26637,29.6023181 496.052152,27.7110312 C494.843078,25.8197442 492.6616,24.8741007 489.507717,24.8741007 C486.353835,24.8741007 484.172357,25.8197442 482.963283,27.7110312 C481.75421,29.6023181 481.149673,32.8159472 481.149673,37.3519185 C481.149673,41.8878897 481.71305,45.1378897 482.839804,47.1019185 L482.839804,47.1408873 Z" id="Shape"></path>
                                        <path d="M33,55.4426554 C28.6625031,56.3840899 24.2417203,56.9016804 19.8015647,56.9879439 C16.8069185,57.0761946 13.8178531,56.6794705 10.9530583,55.8135246 C8.90217855,55.1670697 7.0286747,54.0648585 5.47652916,52.591598 C3.97997348,51.0555316 2.8517079,49.2072458 2.17496444,47.1830881 C0.724988146,43.1344322 0,37.628054 0,30.6639537 C0,19.5069705 1.79943101,12.1256422 5.39829303,8.51996897 C8.35040303,5.50665632 12.8515884,4 18.9018492,4 C23.6357443,4.06140147 28.3522707,4.57895107 32.9843528,5.54528854 L32.757468,9.54758584 C28.6334177,8.72526752 24.4453884,8.254796 20.2396871,8.14137328 C17.7606606,8.04030524 15.2833094,8.37785509 12.9246088,9.13808438 C11.3431697,9.71156666 9.90884432,10.6216155 8.72332859,11.8037071 C7.53293428,13.12514 6.69409153,14.7182635 6.28236131,16.4395727 C5.18671237,20.5473815 4.68105626,24.7868739 4.7802276,29.0336743 C4.71431376,32.8061661 4.88938863,36.5790081 5.30440967,40.3297335 C5.61778321,42.6843211 6.30975214,44.9744085 7.3541963,47.1135502 C8.25696008,49.0447572 9.82686677,50.5951654 11.7823613,51.4867167 C13.7330488,52.3778331 16.4321954,52.8233913 19.8798009,52.8233913 C24.2140144,52.7291379 28.5312595,52.2559764 32.7809388,51.4094523 L33,55.4426554 Z" id="Shape"></path>
                                        <path d="M36,38.4101022 C36,31.3642012 37.1707337,26.3690118 39.5122012,23.424534 C41.8536687,20.4800561 45.8496016,19.0052115 51.5,19 C57.1606906,19 61.1566235,20.4748447 63.4877988,23.424534 C65.8189741,26.3742233 66.9897078,31.3694127 67,38.4101022 C67,45.4560032 65.9270418,50.4772499 63.7811255,53.4738425 C61.6352092,56.470435 57.5569389,57.9791541 51.5463147,58 C45.5253984,58 41.4291169,56.5017037 39.2574701,53.5051112 C37.0858234,50.5085187 36,45.4768491 36,38.4101022 Z M40.5851594,38.3006615 C40.5851594,44.2208859 41.2644422,48.3170976 42.623008,50.5892965 C43.9815737,52.8614953 46.940571,54.0002004 51.5,54.0054119 C56.064575,54.0054119 59.0364376,52.8562838 60.4155876,50.5580277 C61.7947377,48.2597715 62.4868858,44.1739828 62.4920319,38.3006615 C62.4920319,32.4325516 61.7201195,28.4093005 60.1762948,26.230908 C58.6324701,24.0525155 55.7558101,22.965925 51.5463147,22.9711365 C47.3522576,22.9711365 44.4781707,24.0446983 42.9240538,26.191822 C41.3699369,28.3389457 40.5928785,32.3752255 40.5928785,38.3006615 L40.5851594,38.3006615 Z" id="Shape"></path>
                                        <path d="M100,3 L100,56.228184 L95.6095313,56.228184 L95.6095313,53.5056328 C92.0957504,55.7266675 88.0444349,56.9343599 83.8965245,56.9972663 C82.311106,57.0269781 80.7303818,56.8143448 79.2082675,56.3666188 C77.7012061,55.8348698 76.3241379,54.985348 75.1690363,53.8747923 C72.3896788,51.3675841 71,46.4634028 71,39.1622484 C71,31.861094 72.1707916,26.6133893 74.5123749,23.4191343 C76.8539582,20.2248793 80.8066526,18.6277518 86.3704581,18.6277518 C89.4641681,18.7220004 92.5469399,19.0433029 95.5942601,19.5891046 L95.5942601,3 L100,3 Z M81.1553449,52.4750625 C82.2866174,52.854911 83.4758743,53.0293817 84.6677199,52.9903477 C86.3667517,52.9530698 88.0524491,52.6787157 89.6766719,52.1751205 C91.1871387,51.7685147 92.6670681,51.2545033 94.1053186,50.6369559 L95.6324381,49.8294195 L95.6324381,23.4191343 C92.6302521,22.9123806 89.5966702,22.6168506 86.5537125,22.5346897 C82.4050377,22.5346897 79.5365982,23.8164935 77.9483939,26.3801011 C76.3601896,28.9437086 75.560997,32.8993551 75.5508162,38.2470405 C75.5508162,44.5381335 76.5027207,48.6399056 78.4065298,50.5523569 C79.1772565,51.3821249 80.1142126,52.0374948 81.1553449,52.4750625 Z" id="Shape"></path>
                                        <path d="M132.273294,53.4711191 L134.509318,53.244284 L134.656833,56.9205776 C129.943947,57.5667871 125.19679,57.9272435 120.441004,58 C115.083864,57.947854 111.336454,56.3469715 109.198775,53.1973526 C107.061095,50.0477337 105.994843,45.1981548 106.000019,38.6486161 C106.000019,25.5495387 111.111299,19 121.33386,19 C126.245865,19 129.918223,20.4131568 132.350934,23.2394705 C134.783645,26.0657842 136,30.5790213 136,36.7791817 L135.852485,40.3772563 L110.541941,40.3772563 C110.541941,44.9765343 111.318338,48.3894906 112.871132,50.6161252 C114.423927,52.8427597 117.102496,53.956077 120.906842,53.956077 C124.711187,53.9352186 128.500005,53.773566 132.273294,53.4711191 Z M110.534177,36.599278 L131.496897,36.599278 C131.496897,31.6506217 130.689444,28.1255515 129.074538,26.0240674 C127.459633,23.9225832 124.871643,22.8796631 121.310568,22.8953069 C117.759846,22.8953069 115.068336,23.9825511 113.236039,26.1570397 C111.403742,28.3315283 110.503122,31.8122744 110.534177,36.599278 L110.534177,36.599278 Z" id="Shape"></path>
                                        <path d="M167.135116,30.9175361 L167.135116,51.0200642 C167.332939,52.8719904 168.954567,53.9727127 172,54.3222311 L171.773545,57.9217496 C167.931614,57.9217496 165.112636,56.9227528 163.316611,54.9247592 C158.894834,56.9154819 154.108166,57.9627444 149.260767,58 C145.918599,58 143.372929,57.0375201 141.623758,55.1125602 C139.874586,53.1876003 139,50.4357945 139,46.8571429 C139,43.2837079 139.884998,40.6336276 141.654993,38.9069021 C143.424988,37.1801766 146.207525,36.1159711 150.002603,35.7142857 L162.730951,34.4388042 L162.730951,30.9175361 C162.730951,28.1161717 162.119262,26.1025281 160.895883,24.8766051 C159.570892,23.6031711 157.778262,22.9373289 155.945102,23.0377207 C151.787663,23.1036972 147.637227,23.4041323 143.513488,23.9376003 L141.170847,24.1645265 L140.944392,20.565008 C145.690657,19.5970108 150.516421,19.0730889 155.359442,19 C159.477283,19 162.460246,19.9755217 164.308329,21.926565 C166.156413,23.8776083 167.098675,26.8745987 167.135116,30.9175361 Z M143.63062,46.5676164 C143.63062,51.6225923 145.712967,54.1474719 149.877662,54.1422552 C151.864182,54.1209011 153.843921,53.9060052 155.788926,53.5006019 C157.515352,53.1855391 159.216873,52.7461987 160.880265,52.1859952 L162.754378,51.5130417 L162.754378,37.9678973 L150.47894,39.2433788 C148.032182,39.4468299 146.272598,40.1458668 145.200189,41.3404896 C144.12778,42.5351124 143.601988,44.285313 143.622811,46.5910915 L143.63062,46.5676164 Z" id="Shape"></path>
                                        <path d="M179.400536,57 L175,57 L175,19.7461649 L179.400536,19.7461649 L179.400536,22.5054203 C183.081525,20.3099594 187.267455,19.1024683 191.552547,19 C196.523235,19 199.840483,20.3161519 201.50429,22.9484557 C203.168097,25.5807595 204,30.3997409 204,37.4053999 L204,57 L199.529491,57 L199.529491,37.6308038 C199.529491,31.9309334 198.982663,28.0679757 197.889008,26.0419309 C196.795353,24.015886 194.462913,23.0106361 190.891689,23.0261812 C189.051151,23.0432751 187.221034,23.3046447 185.44933,23.8034363 C183.921064,24.1836824 182.436022,24.7202266 181.017694,25.4045817 L179.462735,26.1818368 L179.400536,57 Z" id="Shape"></path>
                                        <path d="M238,3 L238,56.228184 L233.607218,56.228184 L233.607218,53.5056328 C230.091424,55.7263057 226.038076,56.9339675 221.88804,56.9972663 C220.301786,57.0269781 218.720229,56.8143448 217.197313,56.3666188 C215.696899,55.8397234 214.324643,54.998269 213.171233,53.8978647 C210.390411,51.3906565 209,46.4864753 209,39.1853209 C209,31.8841665 210.171409,26.6364618 212.514226,23.4422068 C214.857043,20.2479517 218.811819,18.6508242 224.378556,18.6508242 C227.473895,18.7451001 230.558289,19.0664024 233.607218,19.6121771 L233.607218,3 L238,3 Z M219.137777,52.4750625 C220.269683,52.8547519 221.459538,53.0292184 222.652002,52.9903477 C224.341307,52.9527369 226.01741,52.6810033 227.633035,52.1828113 C229.144327,51.7763045 230.625043,51.2622907 232.064015,50.6446467 L233.591939,49.8371103 L233.591939,23.4191343 C230.588168,22.9124053 227.552989,22.6168755 224.50843,22.5346897 C220.357569,22.5346897 217.490165,23.8164935 215.906217,26.3801011 C214.322269,28.9437086 213.532842,32.8993551 213.537935,38.2470405 C213.537935,44.5381335 214.490341,48.6399056 216.395153,50.5523569 C217.163914,51.3814106 218.098721,52.0367535 219.137777,52.4750625 Z" id="Shape"></path>
                                        <path d="M244,38.4101022 C244,31.3642012 245.170734,26.3690118 247.512201,23.424534 C249.853669,20.4800561 253.849602,19.0052115 259.5,19 C265.160691,19 269.156624,20.4748447 271.487799,23.424534 C273.818974,26.3742233 274.989708,31.3694127 275,38.4101022 C275,45.4560032 273.927042,50.4772499 271.781125,53.4738425 C269.635209,56.470435 265.556939,57.9791541 259.546315,58 C253.525398,58 249.429117,56.5017037 247.25747,53.5051112 C245.085823,50.5085187 244,45.4768491 244,38.4101022 Z M248.585159,38.3006615 C248.585159,44.2208859 249.264442,48.3170976 250.623008,50.5892965 C251.981574,52.8614953 254.940571,53.9975947 259.5,53.9975947 C264.064575,53.9975947 267.036438,52.8484666 268.415588,50.5502105 C269.794738,48.2519543 270.48174,44.1687713 270.476594,38.3006615 C270.476594,32.4325516 269.704681,28.4093005 268.160857,26.230908 C266.617032,24.0525155 263.742945,22.965925 259.538596,22.9711365 C255.344539,22.9711365 252.470452,24.0446983 250.916335,26.191822 C249.362218,28.3389457 248.587732,32.3752255 248.592878,38.3006615 L248.585159,38.3006615 Z" id="Shape"></path>
                                    </g>
                                </g>
                            </g>
                        </g>
                    </g>
                </g>
            </g>
        </g>
    </g>
</svg>
