<svg xmlns="http://www.w3.org/2000/svg" viewBox="0 0 589.23 142.46"><defs><style>.cls-1{fill:#dddcf7;}</style></defs><title>Logo</title><g id="Capa_2" data-name="Capa 2"><g id="Capa_1-2" data-name="Capa 1"><path class="cls-1" d="M73.18,27.7a20.2,20.2,0,0,1,.61,2.39,2.17,2.17,0,1,0,4.26-.82,24.64,24.64,0,0,0-.74-2.91,2.17,2.17,0,0,0-4.13,1.33Z"/><path class="cls-1" d="M51.08,11a2.17,2.17,0,0,0,2.16,2.17,21.31,21.31,0,0,1,16.41,8A2.17,2.17,0,0,0,73,18.44,25.68,25.68,0,0,0,53.25,8.8h0A2.17,2.17,0,0,0,51.08,11Z"/><path class="cls-1" d="M60.48,84.11H50.74a2.17,2.17,0,0,0,0,4.34h9.74a2.17,2.17,0,0,0,0-4.34Z"/><path class="cls-1" d="M204.76,100.2l-6.65-6.65a12.28,12.28,0,0,0-15.66-1.4l-4.35-4.34,1.12.14a2.17,2.17,0,0,0,2.15-1.88l5.4-39.54a2.17,2.17,0,0,0-1.85-2.44l-9.32-1.28a12.28,12.28,0,0,0-13.32,8.37l-21-2.87a24,24,0,0,0-4.45-.19V38.55a17.07,17.07,0,1,0-34.13,0V50.12H94.25l-8.6-8.6A33.53,33.53,0,1,0,19.91,28.7L4.46,44.14a15.24,15.24,0,0,0,0,21.56l35,35v3.63a23.88,23.88,0,0,0,23.85,23.85h3.41l1.71,1.71a42.94,42.94,0,0,0,60.66,0l21.45-21.37,22.92,22.94a2.17,2.17,0,0,0,3.07,0l28.22-28.22A2.17,2.17,0,0,0,204.76,100.2Zm-52,4.38V88.17a16.22,16.22,0,0,0,11.79-7.81l9.38,9.38-18,18ZM127.48,83.35,118,73.91l.63-4.59v-.06a16.25,16.25,0,0,0,4,1.35,16.43,16.43,0,0,0,3.17.31,16.09,16.09,0,0,0,7.29-1.75l3.92,5.16a24.11,24.11,0,0,0-3.38,2.81Zm10.08-30.91a11.93,11.93,0,0,1-17.77,12.49,19.52,19.52,0,0,1,17.77-12.49Zm13,17.7a23.78,23.78,0,0,0-9.66,2l-4.16-5.47A16.27,16.27,0,0,0,142,52.81l12,1.64-2.14,15.74C151.42,70.16,151,70.15,150.56,70.15Zm0,4.34a19.37,19.37,0,0,1,10.54,3.09,11.93,11.93,0,0,1-21.13,0A19.37,19.37,0,0,1,150.56,74.49Zm26.8,8.86-3.43-.47,4.81-35.24,3.43.47ZM163.64,55.76a2.17,2.17,0,0,0,2.44-1.86,7.93,7.93,0,0,1,8.36-6.83L170,79.7l-2.56-2.56a23.69,23.69,0,0,0-11.29-6.33L158.29,55ZM123.57,53a23.78,23.78,0,0,0-6.64,7.8l-10-10s0-12.61,0-12.78h25.43c0,.17,0,10.72,0,10.72A23.77,23.77,0,0,0,123.57,53ZM119.7,25.81a12.77,12.77,0,0,1,11.78,7.89H107.93a12.75,12.75,0,0,1,11.78-7.89ZM104.49,54.46S115.06,65,115.16,65.08a24.13,24.13,0,0,0-.79,3.66l-.18,1.33-15.6-15.6h5.9Zm19.92,32-6.68,6.68L79.19,54.55a33.55,33.55,0,0,0,5-8.4ZM82.28,33.53a29.31,29.31,0,0,1-.15,3c-7.11,6.91-16.72,9.83-25,7.69A11.09,11.09,0,0,0,46,33.75a11.26,11.26,0,0,0-1.41.1c-4.08-8.86-1.4-20.4,6.84-28.64.3-.3.6-.59.9-.86l.72,0A29.23,29.23,0,0,1,82.28,33.53ZM46,38.09a6.77,6.77,0,1,1-4.79,2A6.73,6.73,0,0,1,46,38.09ZM45.59,5.32c-7.15,9.06-9.15,20.62-5.09,29.93a11.11,11.11,0,1,0,16,13.28,26.42,26.42,0,0,0,6.11.71,31.82,31.82,0,0,0,17.92-5.83,29.19,29.19,0,1,1-35-38.09Zm-6.1,67.87-29-29,9.08-9.08a33.58,33.58,0,0,0,19.89,29v9ZM16.42,71.53l7.64-7.64,3.42,3.42-7.64,7.64ZM4.34,54.92a10.83,10.83,0,0,1,3.12-7.63L21,60.82l-7.64,7.64L7.53,62.64A10.84,10.84,0,0,1,4.34,54.92ZM22.91,78l7.64-7.64,8.94,8.94V94.59Zm21.22,29.72A11.08,11.08,0,0,1,56.6,110a11.22,11.22,0,0,1,1.87,13.26A19.57,19.57,0,0,1,44.13,107.74ZM63,123.86a15.34,15.34,0,0,0-1.44-14.65L72.36,98.4H85.71v25.44Zm35-12.72a12.75,12.75,0,0,1-7.89,11.77V99.36A12.75,12.75,0,0,1,97.94,111.14ZM126,126.85a38.6,38.6,0,0,1-53.1,1.35H85.21a17.07,17.07,0,0,0,0-34.14H73.63V70a2.17,2.17,0,1,0-4.34,0V95.34L58.64,106a15.39,15.39,0,0,0-14.81-2.79V65.75a33.42,33.42,0,0,0,32.42-8l38.42,38.42-5.25,5.25a2.17,2.17,0,0,0,3.07,3.07L136.57,80.4a16.23,16.23,0,0,0,11.83,7.78v16.41Zm32.91-16,18-18,3.82,3.82a2.17,2.17,0,0,0,3.07,0,7.93,7.93,0,0,1,10.78-.38L169.5,121.37ZM175,126.88l-2.45-2.45,25.15-25.15,2.45,2.45Z"/><path class="cls-1" d="M217.73,106.36l26.08-70.45h5.87l24.83,70.45h-6.45l-6.93-21.27H231.69l-7.31,21.27Zm16-26.76h25.5L246.7,43.9Z"/><path class="cls-1" d="M305.79,35.33q3.95,0,11.84.77t11.84,1.35v4.24l-23.19-.87h-1.35q-5.68,0-8.85,2.21t-3.18,9.43v6.35q0,4.62,1.06,6.26a8.78,8.78,0,0,0,2,2.31,7,7,0,0,0,2.26,1.06,26.06,26.06,0,0,0,6,.58H317q9.14,0,12.41,5a19.22,19.22,0,0,1,2.79,10.78v6.54q0,11-8.37,14.15a26.23,26.23,0,0,1-9.34,1.64q-5,0-13.33-.72T289.34,105v-4.23q9.33.87,17.47.87t9.72-.14a17.82,17.82,0,0,0,3.61-.77A10.34,10.34,0,0,0,323.5,99q3.18-2.5,3.18-7.7V84.8q0-5.1-2.21-7.65T317,74.6H304.35q-12.22,0-15.4-6.83a22.19,22.19,0,0,1-1.54-9V52.46q0-10.11,5.39-13.86Q297.71,35.33,305.79,35.33Z"/><path class="cls-1" d="M345.83,41.39V35.91H395v5.49H372.87v65h-5.49v-65Z"/><path class="cls-1" d="M411,106.36V35.91h28.87q16.46,0,16.46,20.5a35.9,35.9,0,0,1-1,9,19.06,19.06,0,0,1-2.41,5.87,11.44,11.44,0,0,1-3.42,3.27,14.66,14.66,0,0,1-6.45,2l15.11,29.74h-6l-15-29.55q-1.35,0-11-.58t-9.72-.67v30.8ZM450.73,56a27.32,27.32,0,0,0-.91-7.51,9.56,9.56,0,0,0-2.55-4.62,11.43,11.43,0,0,0-7.41-2.41H416.47V70.94h23.39q6.54,0,8.66-3.46T450.73,56Z"/><path class="cls-1" d="M472.78,71.52a100.58,100.58,0,0,1,.67-12.27A59.79,59.79,0,0,1,475.23,50a22.09,22.09,0,0,1,3-6.5,18.72,18.72,0,0,1,3.9-4.23,15.16,15.16,0,0,1,5-2.41,37.73,37.73,0,0,1,10.68-1.44q5.77,0,8.57.29a32.83,32.83,0,0,1,5.77,1.15,14.61,14.61,0,0,1,5,2.41,19.38,19.38,0,0,1,3.85,4.23A21.35,21.35,0,0,1,523.88,50a68.33,68.33,0,0,1,2.41,18.86A128.85,128.85,0,0,1,525.52,85a37.49,37.49,0,0,1-2.41,9.53,25.75,25.75,0,0,1-3.66,6.3,12.46,12.46,0,0,1-5.29,3.71q-5.49,2.22-14.63,2.21-13,0-17.81-3.75A19,19,0,0,1,475,92.6Q472.77,84.51,472.78,71.52Zm8.13-21.22a29,29,0,0,0-2.07,8.61,109.84,109.84,0,0,0-.58,11.84q0,6.55.34,10.73a54.06,54.06,0,0,0,1.06,7.41,17.49,17.49,0,0,0,2,5.34,17.07,17.07,0,0,0,2.84,3.56,9.33,9.33,0,0,0,3.85,2.12,33.86,33.86,0,0,0,10.2,1.35,51.23,51.23,0,0,0,9.19-.63,16.21,16.21,0,0,0,5.92-2.41,11.31,11.31,0,0,0,4.14-5.15q3-6.93,3-21.46,0-15.11-2.5-21.08a26.54,26.54,0,0,0-1.78-3.9A8.09,8.09,0,0,0,514.06,44a22,22,0,0,0-2.84-1.68,11.64,11.64,0,0,0-3.42-.91,54.55,54.55,0,0,0-7.8-.48q-4.53,0-6.74.19a25.89,25.89,0,0,0-5.1,1.06A8,8,0,0,0,483.84,45,29.71,29.71,0,0,0,480.91,50.3Z"/><path class="cls-1" d="M562.86,35.33q3.95,0,11.84.77t11.84,1.35v4.24l-23.19-.87H562q-5.68,0-8.85,2.21T550,52.46v6.35q0,4.62,1.06,6.26a8.78,8.78,0,0,0,2,2.31,7,7,0,0,0,2.26,1.06,26.06,26.06,0,0,0,6,.58H574q9.14,0,12.41,5a19.22,19.22,0,0,1,2.79,10.78v6.54q0,11-8.37,14.15a26.23,26.23,0,0,1-9.34,1.64q-5,0-13.33-.72T546.4,105v-4.23q9.33.87,17.47.87t9.72-.14a17.82,17.82,0,0,0,3.61-.77A10.34,10.34,0,0,0,580.57,99q3.18-2.5,3.18-7.7V84.8q0-5.1-2.21-7.65T574,74.6H561.41q-12.22,0-15.4-6.83a22.19,22.19,0,0,1-1.54-9V52.46q0-10.11,5.39-13.86Q554.77,35.33,562.86,35.33Z"/></g></g></svg>