<svg xmlns="http://www.w3.org/2000/svg" xmlns:xlink="http://www.w3.org/1999/xlink" viewBox="7249 2421 770 770">
  <defs>
    <style>
      .cls-1 {
        clip-path: url(#clip-Astros-Project);
      }

      .cls-2 {
        fill: #000015;
      }

      .cls-3 {
        opacity: 0.9;
      }

      .cls-4 {
        fill: #556080;
      }

      .cls-5 {
        fill: #bdc3c7;
      }

      .cls-6 {
        fill: #ecf0f1;
      }

      .cls-7 {
        fill: #8697cb;
      }

      .cls-8 {
        fill: #0096e6;
      }

      .cls-10, .cls-9 {
        fill: #f74c48;
      }

      .cls-20, .cls-23, .cls-9 {
        opacity: 0.2;
      }

      .cls-11 {
        fill: #e3e6e9;
      }

      .cls-12 {
        fill: #b6b8be;
      }

      .cls-13 {
        fill: #134099;
      }

      .cls-14 {
        fill: #1951dd;
      }

      .cls-15 {
        fill: #888693;
      }

      .cls-16 {
        fill: #5c546a;
      }

      .cls-17 {
        fill: #3636ce;
      }

      .cls-18 {
        fill: #b237cc;
      }

      .cls-19 {
        fill: #fff;
      }

      .cls-20 {
        fill: #9cb3e8;
      }

      .cls-21 {
        fill: #2463d3;
      }

      .cls-22 {
        fill: #1dee3a;
      }

      .cls-23, .cls-24 {
        fill: gray;
      }

      .cls-25 {
        fill: #4d4d4d;
      }

      .cls-26 {
        fill: #dddcf7;
      }
    </style>
    <clipPath id="clip-Astros-Project">
      <rect x="7249" y="2421" width="770" height="770"/>
    </clipPath>
  </defs>
  <g id="Astros-Project" class="cls-1">
    <rect class="cls-19" x="7249" y="2421" width="770" height="770"/>
    <g id="Group_2777" data-name="Group 2777" transform="translate(7249 2421)">
      <g id="Group_2776" data-name="Group 2776">
        <rect id="Rectangle_403" data-name="Rectangle 403" class="cls-2" width="770" height="770"/>
        <g id="Group_2771" data-name="Group 2771" class="cls-3" transform="matrix(1, -0.017, 0.017, 1, 119.803, 616.092)">
          <path id="Path_6887" data-name="Path 6887" class="cls-4" d="M244.613,741.048l-8.124,1.892a1.65,1.65,0,0,0-.594.27,1.677,1.677,0,0,0-.445.478l-12.1,19.536-2.579.6a1.678,1.678,0,0,0,.759,3.267l8.151-1.892a1.678,1.678,0,0,0-.759-3.267l-.951.22,9.961-16.1,7.447-1.755a1.678,1.678,0,0,0-.759-3.267Z" transform="translate(-219.512 -659.988)"/>
          <path id="Path_6888" data-name="Path 6888" class="cls-4" d="M354.643,735.664l-2.579.6L332.6,724.07a1.683,1.683,0,0,0-1.265-.215l-8.123,1.892a1.677,1.677,0,0,0,.759,3.267l7.452-1.733,16.044,10.049-.952.22a1.677,1.677,0,0,0,.759,3.267l8.123-1.892a1.677,1.677,0,0,0-.759-3.267Z" transform="translate(-265.61 -652.256)"/>
          <path id="Path_6889" data-name="Path 6889" class="cls-4" d="M301.131,752.455l-1.65.38-2.662-11.44a1.669,1.669,0,0,0-3.25.759l2.662,11.44-1.65.38a1.678,1.678,0,0,0,.759,3.267l6.5-1.513a1.677,1.677,0,0,0-.759-3.267Z" transform="translate(-252.726 -659.587)"/>
          <rect id="Rectangle_408" data-name="Rectangle 408" class="cls-5" width="33.368" height="5.165" transform="translate(23.185 72.898) rotate(-13.1)"/>
          <path id="Path_6890" data-name="Path 6890" class="cls-6" d="M248.556,594.16h0a17.331,17.331,0,0,0-10.312,7.013h0a35.717,35.717,0,0,0-5.418,28.446l10.126,43.4,6.5-1.512-1.144-4.906,32.5-7.562,1.144,4.906,6.5-1.513-10.1-43.389A35.75,35.75,0,0,0,260.931,595.9h0a17.331,17.331,0,0,0-12.375-1.744Z" transform="translate(-225.083 -593.708)"/>
          <path id="Path_6891" data-name="Path 6891" class="cls-7" d="M277.392,632.46l-45.5,10.587.759,3.267,30.877-7.183,1.9,8.173,3.25-.759-1.9-8.173,11.374-2.646Z" transform="translate(-225.082 -611.146)"/>
          <rect id="Rectangle_409" data-name="Rectangle 409" class="cls-7" width="3.339" height="15.103" transform="translate(44.138 52.516) rotate(-13.1)"/>
          <ellipse id="Ellipse_260" data-name="Ellipse 260" class="cls-8" cx="1.666" cy="1.678" rx="1.666" ry="1.678" transform="translate(19.659 65.1) rotate(-13.1)"/>
          <ellipse id="Ellipse_261" data-name="Ellipse 261" class="cls-8" cx="1.666" cy="1.678" rx="1.666" ry="1.678" transform="translate(26.154 63.591) rotate(-13.1)"/>
          <ellipse id="Ellipse_262" data-name="Ellipse 262" class="cls-8" cx="1.666" cy="1.678" rx="1.666" ry="1.678" transform="translate(32.66 62.079) rotate(-13.1)"/>
          <ellipse id="Ellipse_263" data-name="Ellipse 263" class="cls-8" cx="1.666" cy="1.678" rx="1.666" ry="1.678" transform="translate(39.161 60.568) rotate(-13.1)"/>
          <ellipse id="Ellipse_264" data-name="Ellipse 264" class="cls-8" cx="1.666" cy="1.678" rx="1.666" ry="1.678" transform="translate(52.162 57.541) rotate(-13.1)"/>
          <path id="Path_6892" data-name="Path 6892" class="cls-4" d="M242.3,723.63l-8.509.259-.759-3.273,7.744-3.525Z" transform="translate(-225.595 -649.23)"/>
          <path id="Path_6893" data-name="Path 6893" class="cls-4" d="M329.84,697.629l8.5-.259.759,3.273-7.744,3.525Z" transform="translate(-269.159 -640.356)"/>
          <ellipse id="Ellipse_265" data-name="Ellipse 265" class="cls-4" cx="8.344" cy="8.393" rx="8.344" ry="8.393" transform="translate(33.832 37.679) rotate(-13.1)"/>
          <path id="Path_6894" data-name="Path 6894" class="cls-7" d="M293.28,675.2a10.048,10.048,0,1,1,6.243-4.5A10.071,10.071,0,0,1,293.28,675.2Zm-3.806-16.346a8.759,8.759,0,1,0,.005,0Z" transform="translate(-247.125 -621.437)"/>
          <path id="Path_6895" data-name="Path 6895" class="cls-5" d="M236.73,669.724l.764,3.273,11.374-2.651.379,1.639-11.374,2.646.759,3.267,11.374-2.645.38,1.633-11.374,2.651.764,3.267,11.374-2.646.38,1.634-11.374,2.646.759,3.272,14.625-3.41-4.186-17.979Z" transform="translate(-227.26 -626.383)"/>
          <rect id="Rectangle_410" data-name="Rectangle 410" class="cls-4" width="33.368" height="8.443" transform="translate(24.313 77.746) rotate(-13.1)"/>
        </g>
        <g id="Group_2775" data-name="Group 2775">
          <path id="Path_6886" data-name="Path 6886" class="cls-9" d="M770,792.4V768.45a1001,1001,0,0,0-770,0V792.4Z" transform="translate(0 -22.403)"/>
          <path id="Path_6896" data-name="Path 6896" class="cls-10" d="M770,789.9v10.609H0V789.9a961.646,961.646,0,0,1,770,0Z" transform="translate(0 -30.512)"/>
        </g>
        <g id="Group_2774" data-name="Group 2774">
          <rect id="Rectangle_411" data-name="Rectangle 411" class="cls-11" width="3.778" height="11.336" transform="translate(356.664 613.827)"/>
          <rect id="Rectangle_412" data-name="Rectangle 412" class="cls-11" width="3.778" height="11.336" transform="translate(409.558 613.827)"/>
          <path id="Path_6897" data-name="Path 6897" class="cls-11" d="M691.952,553.252h-5.665v3.779a7.687,7.687,0,0,1-.039.77,7.5,7.5,0,0,1-.363,1.65q-.049.148-.1.291t-.154.374c-.077.165-.154.336-.242.495l-.055.1a7.566,7.566,0,0,1-.638.957l-.22.269q-.19.223-.4.429h0q-.231.231-.484.44t-.446.346q-.275.2-.55.369l-.341.187a4.244,4.244,0,0,1-.55.247l-.154.061a7.52,7.52,0,0,1-2.431.55h-4.169a7.557,7.557,0,0,1-7.557-7.557V553.23H661.73a13.238,13.238,0,0,0-13.2,13.2v3.779h3.778a3.779,3.779,0,0,1,3.779-3.779h1.887v18.893h3.778a1.889,1.889,0,0,1,3.779,0h3.778a1.889,1.889,0,1,1,3.779,0h22.666V566.474h1.887a3.778,3.778,0,0,1,3.778,3.779H705.2v-3.779a13.238,13.238,0,0,0-13.244-13.222Zm-5.665,22.666H682.5a1.889,1.889,0,0,1,0-3.779h3.779a1.889,1.889,0,0,1,0,3.779Zm0-5.665H682.5a1.889,1.889,0,0,1,0-3.778h3.779a1.889,1.889,0,0,1,0,3.778Z" transform="translate(-291.838 39.796)"/>
          <path id="Path_6898" data-name="Path 6898" class="cls-11" d="M701.374,626.913a11.258,11.258,0,0,1-5.665,2.75V622.3H673.037v1.887a1.889,1.889,0,1,1-3.778,0V622.3h-3.779v1.887a1.889,1.889,0,0,1-3.779,0V622.3h-3.779v7.381a11.259,11.259,0,0,1-5.665-2.75v-8.41H648.48a11.352,11.352,0,0,0,9.636,11.209l3.35,26.813a9.467,9.467,0,0,1,2.112-.242h9.443a1.886,1.886,0,0,1,1.887,1.886V635.521a1.889,1.889,0,1,1,3.779,0v22.666a1.886,1.886,0,0,1,1.886-1.886h9.443a9.468,9.468,0,0,1,2.112.242l3.388-26.813a11.352,11.352,0,0,0,9.653-11.209H701.39Z" transform="translate(-291.816 10.416)"/>
          <path id="Path_6899" data-name="Path 6899" class="cls-12" d="M736.241,620.434v.192a1.841,1.841,0,0,1-.055.281.177.177,0,0,1-.038.132,1.9,1.9,0,0,1-1.788,1.281V629.7a11.259,11.259,0,0,0,5.665-2.75V618.52h-3.779Z" transform="translate(-330.462 10.416)"/>
          <path id="Path_6900" data-name="Path 6900" class="cls-12" d="M736.237,577.31H734.35v3.779h5.665A3.778,3.778,0,0,0,736.237,577.31Z" transform="translate(-330.458 28.96)"/>
          <rect id="Rectangle_413" data-name="Rectangle 413" class="cls-12" width="5.665" height="11.336" transform="translate(403.893 613.827)"/>
          <path id="Path_6901" data-name="Path 6901" class="cls-12" d="M659.128,620.457V618.57H655.35v8.393a11.258,11.258,0,0,0,5.665,2.75v-7.392a1.887,1.887,0,0,1-1.886-1.865Z" transform="translate(-294.908 10.393)"/>
          <rect id="Rectangle_414" data-name="Rectangle 414" class="cls-12" width="5.665" height="11.336" transform="translate(360.442 613.827)"/>
          <path id="Path_6902" data-name="Path 6902" class="cls-12" d="M661.015,577.31h-1.886a3.779,3.779,0,0,0-3.779,3.779h5.665Z" transform="translate(-294.908 28.96)"/>
          <path id="Path_6903" data-name="Path 6903" class="cls-13" d="M671.344,519.8h13.2V491.45a18.893,18.893,0,0,0-15.708,29.387,1.886,1.886,0,0,0,.616.55A1.886,1.886,0,0,1,671.344,519.8Z" transform="translate(-299.544 67.597)"/>
          <path id="Path_6904" data-name="Path 6904" class="cls-14" d="M713.2,519.8a1.887,1.887,0,0,1,1.87,1.65,1.881,1.881,0,0,0,.616-.55A18.892,18.892,0,0,0,700,491.45V519.8Z" transform="translate(-315 67.597)"/>
          <path id="Path_6905" data-name="Path 6905" class="cls-15" d="M680.1,546.757h7.557V543h-13.2a1.9,1.9,0,0,0-1.887,1.886v3.779h5.665a1.886,1.886,0,0,1,1.865-1.908Z" transform="translate(-302.657 44.4)"/>
          <path id="Path_6906" data-name="Path 6906" class="cls-14" d="M712.533,577.31h-3.778a1.889,1.889,0,1,0,0,3.779h3.778a1.889,1.889,0,1,0,0-3.779Z" transform="translate(-318.089 28.96)"/>
          <path id="Path_6907" data-name="Path 6907" class="cls-14" d="M712.533,587.61h-3.778a1.889,1.889,0,1,0,0,3.779h3.778a1.889,1.889,0,1,0,0-3.779Z" transform="translate(-318.089 24.325)"/>
          <path id="Path_6908" data-name="Path 6908" class="cls-12" d="M713.2,543H700v3.779h7.557a1.886,1.886,0,0,1,1.886,1.887h5.665V544.87A1.746,1.746,0,0,0,713.2,543Z" transform="translate(-315 44.4)"/>
          <path id="Path_6909" data-name="Path 6909" class="cls-16" d="M688.495,553.609V549.83h-3.778a1.886,1.886,0,0,0-1.887,1.886v3.779a7.557,7.557,0,0,0,7.557,7.557h1.886v-5.665A3.779,3.779,0,0,1,688.495,553.609Z" transform="translate(-307.273 41.326)"/>
          <path id="Path_6910" data-name="Path 6910" class="cls-16" d="M717.139,560.14a7.688,7.688,0,0,1-.039.77A7.651,7.651,0,0,0,717.139,560.14Z" transform="translate(-322.695 36.687)"/>
          <path id="Path_6911" data-name="Path 6911" class="cls-16" d="M708.714,572.77l-.154.061Z" transform="translate(-318.852 31.003)"/>
          <path id="Path_6912" data-name="Path 6912" class="cls-16" d="M711.885,570.67q-.214.182-.445.346C711.589,570.906,711.748,570.791,711.885,570.67Z" transform="translate(-320.148 31.948)"/>
          <path id="Path_6913" data-name="Path 6913" class="cls-16" d="M716.8,561.54a7.5,7.5,0,0,1-.363,1.65A7.517,7.517,0,0,0,716.8,561.54Z" transform="translate(-322.398 36.057)"/>
          <path id="Path_6914" data-name="Path 6914" class="cls-16" d="M710.131,572l-.341.187Z" transform="translate(-319.405 31.35)"/>
          <path id="Path_6915" data-name="Path 6915" class="cls-16" d="M714.09,568.58l-.22.27Z" transform="translate(-321.242 32.889)"/>
          <path id="Path_6916" data-name="Path 6916" class="cls-16" d="M716.124,565.08q-.072.193-.154.374Q716.053,565.267,716.124,565.08Z" transform="translate(-322.187 34.464)"/>
          <path id="Path_6917" data-name="Path 6917" class="cls-16" d="M715.485,566.66l-.055.1Z" transform="translate(-321.943 33.753)"/>
          <path id="Path_6918" data-name="Path 6918" class="cls-16" d="M713.15,569.85Z" transform="translate(-320.917 32.317)"/>
          <path id="Path_6919" data-name="Path 6919" class="cls-15" d="M707.557,549.83h-3.779v3.779A3.779,3.779,0,0,1,700,557.387v5.665h2.277a7.518,7.518,0,0,0,2.431-.55l.154-.06c.176-.077.352-.159.55-.247l.341-.187a5.315,5.315,0,0,0,.55-.369q.231-.165.446-.346c.143-.121.33-.286.484-.44h0q.206-.206.4-.429l.22-.269a7.566,7.566,0,0,0,.638-.957l.055-.1c.088-.159.165-.325.242-.5a3.924,3.924,0,0,0,.154-.374c.044-.127.072-.193.1-.292a7.514,7.514,0,0,0,.363-1.65,7.652,7.652,0,0,0,.038-.77v-3.779a1.886,1.886,0,0,0-1.886-1.908Z" transform="translate(-315 41.326)"/>
          <path id="Path_6920" data-name="Path 6920" class="cls-14" d="M700,557.387a3.779,3.779,0,0,0,3.779-3.779V549.83H700Z" transform="translate(-315 41.326)"/>
          <path id="Path_6921" data-name="Path 6921" class="cls-13" d="M693.13,553.609a3.779,3.779,0,0,0,3.779,3.779V549.83H693.13Z" transform="translate(-311.909 41.326)"/>
          <rect id="Rectangle_415" data-name="Rectangle 415" class="cls-13" width="5.665" height="3.778" transform="translate(403.893 610.049)"/>
          <rect id="Rectangle_416" data-name="Rectangle 416" class="cls-13" width="5.665" height="3.778" transform="translate(360.442 610.049)"/>
          <rect id="Rectangle_417" data-name="Rectangle 417" class="cls-14" width="3.778" height="3.778" transform="translate(409.558 610.049)"/>
          <rect id="Rectangle_418" data-name="Rectangle 418" class="cls-14" width="3.778" height="3.778" transform="translate(356.664 610.049)"/>
          <path id="Path_6922" data-name="Path 6922" class="cls-16" d="M655.35,615.429h3.779v1.914a1.886,1.886,0,0,0,1.886,1.886h3.779V611.65H655.35Z" transform="translate(-294.908 13.507)"/>
          <rect id="Rectangle_419" data-name="Rectangle 419" class="cls-15" width="3.778" height="3.778" transform="translate(356.664 625.157)"/>
          <path id="Path_6923" data-name="Path 6923" class="cls-16" d="M736.237,613.542v1.886h3.778V611.65H734.35a1.887,1.887,0,0,1,1.887,1.892Z" transform="translate(-330.458 13.507)"/>
          <rect id="Rectangle_420" data-name="Rectangle 420" class="cls-15" width="3.778" height="3.778" transform="translate(409.558 625.157)"/>
          <rect id="Rectangle_421" data-name="Rectangle 421" class="cls-16" width="3.778" height="7.557" transform="translate(373.665 625.157)"/>
          <rect id="Rectangle_422" data-name="Rectangle 422" class="cls-16" width="3.778" height="7.557" transform="translate(381.222 625.157)"/>
          <path id="Path_6924" data-name="Path 6924" class="cls-16" d="M736.641,623.06a1.892,1.892,0,0,1-1.161,1.171A1.892,1.892,0,0,0,736.641,623.06Z" transform="translate(-330.966 8.373)"/>
          <path id="Path_6925" data-name="Path 6925" class="cls-16" d="M737.67,622.591a1.9,1.9,0,0,0,.055-.281,1.891,1.891,0,0,1-.055.281Z" transform="translate(-331.952 8.71)"/>
          <path id="Path_6926" data-name="Path 6926" class="cls-15" d="M718.892,619.212a1.9,1.9,0,0,0,1.788-1.281.6.6,0,0,1,.038-.132,1.9,1.9,0,0,0,.055-.281q0-.1,0-.192v-3.779a1.886,1.886,0,0,0-1.887-1.886H700v7.557Z" transform="translate(-315 13.503)"/>
          <path id="Path_6927" data-name="Path 6927" class="cls-13" d="M672.52,619.553a1.889,1.889,0,1,0,3.779,0V610.1a1.889,1.889,0,0,0-3.779,0v9.443Z" transform="translate(-302.634 15.053)"/>
          <path id="Path_6928" data-name="Path 6928" class="cls-14" d="M686.26,619.553a1.889,1.889,0,1,0,3.779,0V610.1a1.889,1.889,0,0,0-3.779,0v9.443Z" transform="translate(-308.817 15.053)"/>
          <path id="Path_6929" data-name="Path 6929" class="cls-15" d="M659,708.93a1.892,1.892,0,0,0,1.161,1.172A1.892,1.892,0,0,1,659,708.93Z" transform="translate(-296.55 -30.269)"/>
          <path id="Path_6930" data-name="Path 6930" class="cls-15" d="M696.505,708.17a1.844,1.844,0,0,1-.055.281,1.9,1.9,0,0,0,.055-.281Z" transform="translate(-313.402 -29.927)"/>
          <path id="Path_6931" data-name="Path 6931" class="cls-15" d="M658.855,708.451a1.891,1.891,0,0,1-.055-.281A1.9,1.9,0,0,0,658.855,708.451Z" transform="translate(-296.46 -29.927)"/>
          <path id="Path_6932" data-name="Path 6932" class="cls-15" d="M694.27,710.1a1.892,1.892,0,0,0,1.161-1.172A1.892,1.892,0,0,1,694.27,710.1Z" transform="translate(-312.421 -30.269)"/>
          <path id="Path_6933" data-name="Path 6933" class="cls-15" d="M677.7,687.21h-9.422a9.449,9.449,0,0,0-9.443,9.443,9.485,9.485,0,0,1,.192-1.886h20.586V689.1a1.886,1.886,0,0,0-1.914-1.892Z" transform="translate(-296.474 -20.495)"/>
          <path id="Path_6934" data-name="Path 6934" class="cls-15" d="M703.505,708.451a1.89,1.89,0,0,1-.055-.281A1.9,1.9,0,0,0,703.505,708.451Z" transform="translate(-316.552 -29.927)"/>
          <path id="Path_6935" data-name="Path 6935" class="cls-15" d="M738.92,710.1a1.892,1.892,0,0,0,1.16-1.172A1.892,1.892,0,0,1,738.92,710.1Z" transform="translate(-332.514 -30.269)"/>
          <path id="Path_6936" data-name="Path 6936" class="cls-15" d="M741.155,708.17a1.836,1.836,0,0,1-.055.281A1.837,1.837,0,0,0,741.155,708.17Z" transform="translate(-333.495 -29.927)"/>
          <path id="Path_6937" data-name="Path 6937" class="cls-15" d="M703.62,708.93a1.892,1.892,0,0,0,1.16,1.172A1.892,1.892,0,0,1,703.62,708.93Z" transform="translate(-316.629 -30.269)"/>
          <path id="Path_6938" data-name="Path 6938" class="cls-15" d="M705.327,687.21a1.887,1.887,0,0,0-1.887,1.887v5.7h20.586a9.479,9.479,0,0,1,.193,1.886,9.449,9.449,0,0,0-9.471-9.471Z" transform="translate(-316.548 -20.495)"/>
          <path id="Path_6939" data-name="Path 6939" class="cls-12" d="M658.79,702.865v2.079a1.843,1.843,0,0,0,.055.281.177.177,0,0,0,.038.132,1.9,1.9,0,0,0,1.788,1.281h17a1.9,1.9,0,0,0,1.787-1.281.6.6,0,0,1,.039-.132,1.889,1.889,0,0,0,.055-.28q0-.094,0-.193V701H658.977A9.479,9.479,0,0,0,658.79,702.865Z" transform="translate(-296.456 -26.7)"/>
          <path id="Path_6940" data-name="Path 6940" class="cls-12" d="M703.43,701v3.971a1.852,1.852,0,0,0,.055.281.177.177,0,0,0,.038.132,1.9,1.9,0,0,0,1.788,1.281h17a1.9,1.9,0,0,0,1.788-1.281.6.6,0,0,1,.038-.132,1.882,1.882,0,0,0,.055-.281,1.909,1.909,0,0,0,0-.192v-1.886a9.476,9.476,0,0,0-.192-1.887Z" transform="translate(-316.543 -26.7)"/>
        </g>
        <g id="Group_2773" data-name="Group 2773" transform="translate(-6147 -2184)">
          <path id="Path_6941" data-name="Path 6941" class="cls-17" d="M1218.18,248.78,1074.7,279.25a4.76,4.76,0,0,1-5.65-3.67l-16.11-75.87a4.76,4.76,0,0,1,3.67-5.65l136.24-28.93a4.76,4.76,0,0,1,5.65,3.67v.07a4.76,4.76,0,0,1-3.67,5.65l-47.37,10.06a4.76,4.76,0,0,0-3.67,5.65v.07a4.76,4.76,0,0,0,5.65,3.67l83.6-17.75a4.76,4.76,0,0,1,5.65,3.67v.23a4.76,4.76,0,0,1-3.67,5.65l-61.87,13.14a4.76,4.76,0,0,0-3.67,5.65v.07a4.76,4.76,0,0,0,5.65,3.67L1219,199a4.76,4.76,0,0,1,5.65,3.67v.23a4.76,4.76,0,0,1-3.67,5.65l-32.88,7a4.76,4.76,0,0,0-3.67,5.65v.07a4.76,4.76,0,0,0,5.65,3.67l3.9-.83a4.76,4.76,0,0,1,5.65,3.67l.1.47a4.76,4.76,0,0,1-3.67,5.65l-58.24,12.37a4.76,4.76,0,0,0-3.67,5.65v.07a4.76,4.76,0,0,0,5.65,3.67l76.36-16.22a4.76,4.76,0,0,1,5.65,3.67v.07A4.76,4.76,0,0,1,1218.18,248.78Z" transform="translate(5589 2131)"/>
          <circle id="Ellipse_266" data-name="Ellipse 266" class="cls-17" cx="43.55" cy="43.55" r="43.55" transform="translate(6598.34 2335.072) rotate(-11.99)"/>
          <path id="Path_6942" data-name="Path 6942" class="cls-18" d="M1122.56,259.28l-49.86,10.59a4.76,4.76,0,0,1-5.65-3.67l-12.13-57.11a4.76,4.76,0,0,1,3.67-5.65l46.23-9.82a4.76,4.76,0,0,1,5.65,3.67v.07a4.76,4.76,0,0,1-3.67,5.65l-5.78,1.23a4.76,4.76,0,0,0-3.67,5.65l.06.27a4.76,4.76,0,0,0,5.65,3.67L1156,202.59a4.76,4.76,0,0,1,5.65,3.67h0a4.76,4.76,0,0,1-3.67,5.65l-45.63,9.69a4.76,4.76,0,0,0-3.67,5.65l.06.26a4.76,4.76,0,0,0,5.65,3.67l31.14-6.61a4.76,4.76,0,0,1,5.65,3.67v.07a4.76,4.76,0,0,1-3.67,5.65l-45.27,9.61a4.76,4.76,0,0,0-3.67,5.65l.06.27a4.76,4.76,0,0,0,5.65,3.67l16.28-3.46a4.76,4.76,0,0,1,5.65,3.67l.06.26a4.76,4.76,0,0,1-3.71,5.65Z" transform="translate(5589 2131)"/>
          <rect id="Rectangle_423" data-name="Rectangle 423" class="cls-18" width="9.59" height="19.14" rx="4.795" transform="translate(6725.078 2317.983) rotate(78.01)"/>
          <circle id="Ellipse_267" data-name="Ellipse 267" class="cls-19" cx="33.95" cy="33.95" r="33.95" transform="translate(6609.725 2342.468) rotate(-11.99)"/>
          <rect id="Rectangle_424" data-name="Rectangle 424" class="cls-18" width="9.59" height="18.93" rx="4.795" transform="translate(6764.479 2349.201) rotate(78.01)"/>
          <rect id="Rectangle_425" data-name="Rectangle 425" class="cls-17" width="9.59" height="60.23" rx="4.795" transform="translate(6876.42 2355.262) rotate(78.01)"/>
          <rect id="Rectangle_426" data-name="Rectangle 426" class="cls-17" width="9.59" height="11.02" rx="4.795" transform="translate(6844.745 2302.371) rotate(78.01)"/>
          <rect id="Rectangle_427" data-name="Rectangle 427" class="cls-17" width="9.59" height="22.26" rx="4.795" transform="translate(6873.868 2296.186) rotate(78.01)"/>
          <rect id="Rectangle_428" data-name="Rectangle 428" class="cls-17" width="9.59" height="22.26" rx="4.795" transform="translate(6815.456 2288.982) rotate(78.01)"/>
        </g>
        <g id="Group_2770" data-name="Group 2770" class="cls-3" transform="translate(196.57 -260.301) rotate(30)">
          <path id="Path_6879" data-name="Path 6879" class="cls-20" d="M186.346,364.814a76.428,76.428,0,0,1-49.009,93.908q-1.429.476-2.882.9A76.428,76.428,0,1,1,91.533,312.922l.38-.1a76.428,76.428,0,0,1,94.433,52Z" transform="translate(0 -5.879)"/>
          <path id="Path_6880" data-name="Path 6880" class="cls-21" d="M183.225,373.628A70.179,70.179,0,0,1,131.341,455.9l-.412.1q-1.138.275-2.3.517a70.187,70.187,0,1,1-28.3-137.492l.355-.073c.719-.145,1.437-.275,2.156-.4a70.179,70.179,0,0,1,80.385,55.073Z" transform="translate(-1.489 -7.37)"/>
          <path id="Path_6881" data-name="Path 6881" class="cls-22" d="M191.178,373.629A70.179,70.179,0,0,1,139.295,455.9l-.4.1h0a4.683,4.683,0,0,1-1.243-9.253l27.242-5.563a4.681,4.681,0,1,0-1.873-9.172l-48.444,9.9a4.681,4.681,0,1,1-1.873-9.172l42.4-8.663a4.677,4.677,0,0,0-1.873-9.164L122.953,421.1a4.681,4.681,0,0,1-1.873-9.172l36.333-7.42a4.681,4.681,0,1,0-1.873-9.172l-42.413,8.663a4.681,4.681,0,1,1-1.873-9.172l63.623-13A4.681,4.681,0,1,0,173,372.652L91.19,389.373a4.681,4.681,0,1,1-1.873-9.172l54.532-11.142a4.675,4.675,0,1,0-1.873-9.156L111.7,366.087a4.681,4.681,0,0,1-1.873-9.172l42.4-8.663a4.677,4.677,0,1,0-1.873-9.164L95.824,350.214a4.675,4.675,0,1,1-1.833-9.156l33.305-6.806a4.681,4.681,0,0,0-1.873-9.172l-12.111,2.471a4.683,4.683,0,0,1-2.511-8.994h0A70.179,70.179,0,0,1,191.178,373.629Z" transform="translate(-9.443 -7.37)"/>
          <path id="Path_6882" data-name="Path 6882" class="cls-22" d="M63.2,354.663v.04a4.659,4.659,0,0,0,5.5,3.633,4.651,4.651,0,0,1,5.5,3.633h0a4.651,4.651,0,0,1-3.633,5.5l-15.163,3.092a4.659,4.659,0,0,0-3.633,5.5v.04a4.659,4.659,0,0,0,5.5,3.633l9.1-1.857a4.659,4.659,0,0,1,5.5,3.633v.04a4.659,4.659,0,0,1-3.633,5.5L53.1,390.172a4.659,4.659,0,0,0-3.633,5.5v.04a4.659,4.659,0,0,0,5.5,3.633l6.047-1.243a4.659,4.659,0,0,1,5.5,3.633v.04a4.659,4.659,0,0,1-3.633,5.5l-9.1,1.857a4.659,4.659,0,0,0-3.633,5.5v.04a4.659,4.659,0,0,0,5.5,3.633l27.29-5.571a4.659,4.659,0,0,1,5.5,3.633v.04a4.659,4.659,0,0,1-3.633,5.5l-6.023,1.227a4.659,4.659,0,0,0-3.633,5.5v.04a4.659,4.659,0,0,0,5.5,3.633,4.651,4.651,0,0,1,5.5,3.633h0a4.651,4.651,0,0,1-3.633,5.5,4.659,4.659,0,0,0-3.633,5.5v.04a4.659,4.659,0,0,0,5.5,3.633l9.1-1.857a4.659,4.659,0,0,1,5.5,3.633v.04a4.659,4.659,0,0,1-3.633,5.5l-2.777.565A70.2,70.2,0,0,1,67.8,339.419l3.23-.662a4.659,4.659,0,0,1,5.5,3.633v.04a4.659,4.659,0,0,1-3.633,5.5l-6.064,1.235A4.659,4.659,0,0,0,63.2,354.663Z" transform="translate(-1.497 -11.431)"/>
          <rect id="Rectangle_404" data-name="Rectangle 404" class="cls-19" width="16.996" height="9.358" rx="4.4" transform="matrix(0.98, -0.2, 0.2, 0.98, 74.885, 330.368)"/>
          <rect id="Rectangle_405" data-name="Rectangle 405" class="cls-19" width="39.296" height="9.358" rx="4.4" transform="matrix(0.98, -0.2, 0.2, 0.98, 87.89, 384.935)"/>
          <rect id="Rectangle_406" data-name="Rectangle 406" class="cls-19" width="25.465" height="7.945" rx="3.74" transform="matrix(0.98, -0.2, 0.2, 0.98, 54.445, 364.842)"/>
          <rect id="Rectangle_407" data-name="Rectangle 407" class="cls-19" width="37.592" height="8.316" rx="3.91" transform="matrix(0.98, -0.2, 0.2, 0.98, 109.661, 437.533)"/>
          <path id="Path_6883" data-name="Path 6883" class="cls-23" d="M196.788,285.7l1.308-1.534a15.922,15.922,0,0,1,8.074-4.5,16.148,16.148,0,0,1,5.652-.194,15.906,15.906,0,0,1,7.638,3.286l.493.4a16,16,0,0,1,2.228,21.993q-.218.283-.452.549a16.074,16.074,0,0,1-1.292,1.348l-.283.25a15.906,15.906,0,0,1-6.839,3.552,16.067,16.067,0,0,1-6.387.226h0a15.915,15.915,0,0,1-4.408-1.421h0a16,16,0,0,1-3.326-2.2h0l-.065-.057a15.93,15.93,0,0,1-4.8-7.267h0a16.059,16.059,0,0,1-.194-8.962,15.89,15.89,0,0,1,1.962-4.449l.315-.476A6.26,6.26,0,0,1,196.788,285.7Z" transform="translate(-30.248)"/>
          <path id="Path_6884" data-name="Path 6884" class="cls-24" d="M197.585,286.3l1.251-1.461a15.163,15.163,0,0,1,7.719-4.287,15.341,15.341,0,0,1,5.377-.186,15.147,15.147,0,0,1,7.267,3.125l.468.379a15.228,15.228,0,0,1,2.091,20.992l-.428.525a15.347,15.347,0,0,1-1.235,1.284l-.266.242a15.147,15.147,0,0,1-6.516,3.383,15.34,15.34,0,0,1-6.08.21h0a15.154,15.154,0,0,1-4.2-1.348h0a15.242,15.242,0,0,1-3.165-2.091h0l-.057-.048a15.171,15.171,0,0,1-4.562-6.944h0a15.292,15.292,0,0,1-.186-8.534,15.13,15.13,0,0,1,1.865-4.231l.307-.452Z" transform="translate(-30.432 -0.173)"/>
          <path id="Path_6885" data-name="Path 6885" class="cls-25" d="M197.557,286.3l1.251-1.461a15.163,15.163,0,0,1,7.719-4.287,15.341,15.341,0,0,1,5.377-.186,15.147,15.147,0,0,1,7.267,3.125l.468.379a15.163,15.163,0,0,1,4.271,6.007,1.7,1.7,0,0,1-2.317.113l-6.871-5.91a1.7,1.7,0,0,0-2.422.186h0a1.7,1.7,0,0,0,.186,2.422L222,294.808a1.7,1.7,0,0,1,.186,2.422h0a1.7,1.7,0,0,1-2.422.186l-6.459-5.5a1.7,1.7,0,0,0-2.422.186h0a1.7,1.7,0,0,0,.186,2.422l8.768,7.315a1.7,1.7,0,0,1,.186,2.422h0a1.7,1.7,0,0,1-2.422.186L207.2,295.567a1.7,1.7,0,0,0-2.422.186h0a1.7,1.7,0,0,0,.186,2.422l8.631,7.372a1.7,1.7,0,0,1,.186,2.422h0a1.7,1.7,0,0,1-2.422.186l-12.111-10.367a1.7,1.7,0,0,0-2.422.186h0a1.7,1.7,0,0,0,.186,2.422l6.879,5.878a1.7,1.7,0,0,1,.186,2.422h0a1.679,1.679,0,0,1-1.195.589h0a15.242,15.242,0,0,1-3.165-2.091h0l-.057-.048A15.171,15.171,0,0,1,195.1,300.2h0a15.292,15.292,0,0,1-.186-8.534,15.131,15.131,0,0,1,1.865-4.231l.307-.452Z" transform="translate(-30.403 -0.173)"/>
        </g>
      </g>
      <g id="Logo" transform="translate(90.008 314.044)">
        <g id="Capa_1" data-name="Capa 1">
          <path id="Path_6946" data-name="Path 6946" class="cls-26" d="M73.18,27.7a20.2,20.2,0,0,1,.61,2.39,2.17,2.17,0,1,0,4.26-.82,24.641,24.641,0,0,0-.74-2.91,2.17,2.17,0,0,0-4.13,1.33Z"/>
          <path id="Path_6947" data-name="Path 6947" class="cls-26" d="M51.08,11a2.17,2.17,0,0,0,2.16,2.17,21.31,21.31,0,0,1,16.41,8A2.17,2.17,0,0,0,73,18.44,25.68,25.68,0,0,0,53.25,8.8h0A2.17,2.17,0,0,0,51.08,11Z"/>
          <path id="Path_6948" data-name="Path 6948" class="cls-26" d="M60.48,84.11H50.74a2.17,2.17,0,1,0,0,4.34h9.74a2.17,2.17,0,1,0,0-4.34Z"/>
          <path id="Path_6949" data-name="Path 6949" class="cls-26" d="M204.76,100.2l-6.65-6.65a12.28,12.28,0,0,0-15.66-1.4l-4.35-4.34,1.12.14a2.17,2.17,0,0,0,2.15-1.88l5.4-39.54a2.17,2.17,0,0,0-1.85-2.44l-9.32-1.28a12.28,12.28,0,0,0-13.32,8.37l-21-2.87a24,24,0,0,0-4.45-.19V38.55a17.07,17.07,0,1,0-34.13,0V50.12H94.25l-8.6-8.6A33.53,33.53,0,1,0,19.91,28.7L4.46,44.14a15.24,15.24,0,0,0,0,21.56l35,35v3.63a23.88,23.88,0,0,0,23.85,23.85h3.41l1.71,1.71a42.94,42.94,0,0,0,60.66,0l21.45-21.37,22.92,22.94a2.17,2.17,0,0,0,3.07,0l28.22-28.22a2.17,2.17,0,0,0,.01-3.04Zm-52,4.38V88.17a16.22,16.22,0,0,0,11.79-7.81l9.38,9.38-18,18ZM127.48,83.35,118,73.91l.63-4.59v-.06a16.25,16.25,0,0,0,4,1.35,16.43,16.43,0,0,0,3.17.31,16.09,16.09,0,0,0,7.29-1.75l3.92,5.16a24.11,24.11,0,0,0-3.38,2.81Zm10.08-30.91a11.93,11.93,0,0,1-17.77,12.49,19.52,19.52,0,0,1,17.77-12.49Zm13,17.7a23.78,23.78,0,0,0-9.66,2l-4.16-5.47A16.27,16.27,0,0,0,142,52.81l12,1.64-2.14,15.74c-.44-.03-.86-.04-1.3-.04Zm0,4.34a19.37,19.37,0,0,1,10.54,3.09,11.93,11.93,0,0,1-21.13,0,19.37,19.37,0,0,1,10.59-3.08Zm26.8,8.86-3.43-.47,4.81-35.24,3.43.47ZM163.64,55.76a2.17,2.17,0,0,0,2.44-1.86,7.93,7.93,0,0,1,8.36-6.83L170,79.7l-2.56-2.56a23.69,23.69,0,0,0-11.29-6.33L158.29,55ZM123.57,53a23.78,23.78,0,0,0-6.64,7.8l-10-10V38.02h25.43V48.74A23.77,23.77,0,0,0,123.57,53ZM119.7,25.81a12.77,12.77,0,0,1,11.78,7.89H107.93a12.75,12.75,0,0,1,11.78-7.89ZM104.49,54.46S115.06,65,115.16,65.08a24.131,24.131,0,0,0-.79,3.66l-.18,1.33-15.6-15.6h5.9Zm19.92,32-6.68,6.68L79.19,54.55a33.55,33.55,0,0,0,5-8.4ZM82.28,33.53a29.309,29.309,0,0,1-.15,3c-7.11,6.91-16.72,9.83-25,7.69A11.09,11.09,0,0,0,46,33.75a11.261,11.261,0,0,0-1.41.1c-4.08-8.86-1.4-20.4,6.84-28.64.3-.3.6-.59.9-.86h.72A29.23,29.23,0,0,1,82.28,33.53ZM46,38.09a6.77,6.77,0,1,1-4.79,2,6.77,6.77,0,0,1,4.79-2ZM45.59,5.32c-7.15,9.06-9.15,20.62-5.09,29.93a11.11,11.11,0,1,0,16,13.28,26.42,26.42,0,0,0,6.11.71,31.82,31.82,0,0,0,17.92-5.83,29.19,29.19,0,1,1-35-38.09Zm-6.1,67.87-29-29,9.08-9.08a33.58,33.58,0,0,0,19.89,29v9ZM16.42,71.53l7.64-7.64,3.42,3.42-7.64,7.64ZM4.34,54.92a10.83,10.83,0,0,1,3.12-7.63L21,60.82l-7.64,7.64L7.53,62.64a10.84,10.84,0,0,1-3.19-7.72ZM22.91,78l7.64-7.64,8.94,8.94V94.59Zm21.22,29.72A11.08,11.08,0,0,1,56.6,110a11.22,11.22,0,0,1,1.87,13.26,19.57,19.57,0,0,1-14.34-15.52ZM63,123.86a15.34,15.34,0,0,0-1.44-14.65L72.36,98.4H85.71v25.44Zm35-12.72a12.75,12.75,0,0,1-7.89,11.77V99.36a12.75,12.75,0,0,1,7.83,11.78Zm28,15.71a38.6,38.6,0,0,1-53.1,1.35H85.21a17.07,17.07,0,1,0,0-34.14H73.63V70a2.17,2.17,0,0,0-4.34,0V95.34L58.64,106a15.39,15.39,0,0,0-14.81-2.79V65.75a33.42,33.42,0,0,0,32.42-8l38.42,38.42-5.25,5.25a2.171,2.171,0,1,0,3.07,3.07L136.57,80.4a16.23,16.23,0,0,0,11.83,7.78v16.41Zm32.91-16,18-18,3.82,3.82a2.17,2.17,0,0,0,3.07,0,7.93,7.93,0,0,1,10.78-.38L169.5,121.37ZM175,126.88l-2.45-2.45L197.7,99.28l2.45,2.45Z"/>
          <path id="Path_6950" data-name="Path 6950" class="cls-26" d="M217.73,106.36l26.08-70.45h5.87l24.83,70.45h-6.45l-6.93-21.27H231.69l-7.31,21.27Zm16-26.76h25.5L246.7,43.9Z"/>
          <path id="Path_6951" data-name="Path 6951" class="cls-26" d="M305.79,35.33q3.95,0,11.84.77t11.84,1.35v4.24l-23.19-.87h-1.35q-5.68,0-8.85,2.21t-3.18,9.43v6.35q0,4.62,1.06,6.26a8.781,8.781,0,0,0,2,2.31,7,7,0,0,0,2.26,1.06,26.06,26.06,0,0,0,6,.58H317q9.14,0,12.41,5A19.22,19.22,0,0,1,332.2,84.8v6.54q0,11-8.37,14.15a26.23,26.23,0,0,1-9.34,1.64q-5,0-13.33-.72T289.34,105v-4.23q9.33.87,17.47.87t9.72-.14a17.82,17.82,0,0,0,3.61-.77A10.34,10.34,0,0,0,323.5,99q3.18-2.5,3.18-7.7V84.8q0-5.1-2.21-7.65T317,74.6H304.35q-12.22,0-15.4-6.83a22.19,22.19,0,0,1-1.54-9V52.46q0-10.11,5.39-13.86Q297.71,35.33,305.79,35.33Z"/>
          <path id="Path_6952" data-name="Path 6952" class="cls-26" d="M345.83,41.39V35.91H395V41.4H372.87v65h-5.49v-65Z"/>
          <path id="Path_6953" data-name="Path 6953" class="cls-26" d="M411,106.36V35.91h28.87q16.46,0,16.46,20.5a35.9,35.9,0,0,1-1,9,19.061,19.061,0,0,1-2.41,5.87,11.441,11.441,0,0,1-3.42,3.27,14.66,14.66,0,0,1-6.45,2l15.11,29.74h-6l-15-29.55q-1.35,0-11-.58t-9.72-.67v30.8ZM450.73,56a27.323,27.323,0,0,0-.91-7.51,9.56,9.56,0,0,0-2.55-4.62,11.43,11.43,0,0,0-7.41-2.41H416.47V70.94h23.39q6.54,0,8.66-3.46T450.73,56Z"/>
          <path id="Path_6954" data-name="Path 6954" class="cls-26" d="M472.78,71.52a100.582,100.582,0,0,1,.67-12.27A59.784,59.784,0,0,1,475.23,50a22.09,22.09,0,0,1,3-6.5,18.721,18.721,0,0,1,3.9-4.23,15.16,15.16,0,0,1,5-2.41,37.73,37.73,0,0,1,10.68-1.44q5.77,0,8.57.29a32.829,32.829,0,0,1,5.77,1.15,14.61,14.61,0,0,1,5,2.41A19.379,19.379,0,0,1,521,43.5a21.35,21.35,0,0,1,2.88,6.5,68.33,68.33,0,0,1,2.41,18.86A128.859,128.859,0,0,1,525.52,85a37.49,37.49,0,0,1-2.41,9.53,25.751,25.751,0,0,1-3.66,6.3,12.46,12.46,0,0,1-5.29,3.71q-5.49,2.22-14.63,2.21-13,0-17.81-3.75A19,19,0,0,1,475,92.6Q472.77,84.51,472.78,71.52Zm8.13-21.22a29,29,0,0,0-2.07,8.61,109.826,109.826,0,0,0-.58,11.84q0,6.55.34,10.73a54.057,54.057,0,0,0,1.06,7.41,17.489,17.489,0,0,0,2,5.34,17.071,17.071,0,0,0,2.84,3.56,9.33,9.33,0,0,0,3.85,2.12,33.86,33.86,0,0,0,10.2,1.35,51.231,51.231,0,0,0,9.19-.63,16.209,16.209,0,0,0,5.92-2.41,11.31,11.31,0,0,0,4.14-5.15q3-6.93,3-21.46,0-15.11-2.5-21.08a26.547,26.547,0,0,0-1.78-3.9A8.09,8.09,0,0,0,514.06,44a22,22,0,0,0-2.84-1.68,11.64,11.64,0,0,0-3.42-.91,54.55,54.55,0,0,0-7.8-.48q-4.53,0-6.74.19a25.891,25.891,0,0,0-5.1,1.06A8,8,0,0,0,483.84,45a29.711,29.711,0,0,0-2.93,5.3Z"/>
          <path id="Path_6955" data-name="Path 6955" class="cls-26" d="M562.86,35.33q3.95,0,11.84.77t11.84,1.35v4.24l-23.19-.87H562q-5.68,0-8.85,2.21T550,52.46v6.35q0,4.62,1.06,6.26a8.781,8.781,0,0,0,2,2.31,7,7,0,0,0,2.26,1.06,26.06,26.06,0,0,0,6,.58H574q9.14,0,12.41,5A19.221,19.221,0,0,1,589.2,84.8v6.54q0,11-8.37,14.15a26.23,26.23,0,0,1-9.34,1.64q-5,0-13.33-.72T546.4,105v-4.23q9.33.87,17.47.87t9.72-.14a17.82,17.82,0,0,0,3.61-.77A10.34,10.34,0,0,0,580.57,99q3.18-2.5,3.18-7.7V84.8q0-5.1-2.21-7.65T574,74.6H561.41q-12.22,0-15.4-6.83a22.191,22.191,0,0,1-1.54-9V52.46q0-10.11,5.39-13.86Q554.77,35.33,562.86,35.33Z"/>
        </g>
      </g>
    </g>
  </g>
</svg>
