<svg xmlns="http://www.w3.org/2000/svg" xmlns:xlink="http://www.w3.org/1999/xlink" viewBox="10609 2421 960 400">
  <defs>
    <style>
      .cls-1 {
        clip-path: url(#clip-Astros-Banner);
      }

      .cls-2 {
        fill: #000015;
      }

      .cls-3 {
        opacity: 0.9;
      }

      .cls-4 {
        fill: #9cb3e8;
      }

      .cls-4, .cls-8 {
        opacity: 0.2;
      }

      .cls-5 {
        fill: #2463d3;
      }

      .cls-6 {
        fill: #1dee3a;
      }

      .cls-7 {
        fill: #fff;
      }

      .cls-8, .cls-9 {
        fill: gray;
      }

      .cls-10 {
        fill: #4d4d4d;
      }

      .cls-11 {
        fill: #3636ce;
      }

      .cls-12 {
        fill: #b237cc;
      }

      .cls-13, .cls-14 {
        fill: #dddcf7;
      }

      .cls-14 {
        font-size: 46px;
        font-family: Exo-Light, Exo;
        font-weight: 300;
      }
    </style>
    <clipPath id="clip-Astros-Banner">
      <rect x="10609" y="2421" width="960" height="400"/>
    </clipPath>
  </defs>
  <g id="Astros-Banner" class="cls-1">
    <rect class="cls-7" x="10609" y="2421" width="960" height="400"/>
    <rect id="Rectangle_403" data-name="Rectangle 403" class="cls-2" width="960" height="400" transform="translate(10609 2421)"/>
    <g id="Group_2770" data-name="Group 2770" class="cls-3" transform="translate(10772.569 2360.699) rotate(30)">
      <path id="Path_6879" data-name="Path 6879" class="cls-4" d="M186.346,364.814a76.428,76.428,0,0,1-49.009,93.908q-1.429.476-2.882.9A76.428,76.428,0,1,1,91.533,312.922l.38-.1a76.428,76.428,0,0,1,94.433,52Z" transform="translate(0 -5.879)"/>
      <path id="Path_6880" data-name="Path 6880" class="cls-5" d="M183.225,373.628A70.179,70.179,0,0,1,131.341,455.9l-.412.1q-1.138.275-2.3.517a70.187,70.187,0,1,1-28.3-137.492l.355-.073c.719-.145,1.437-.275,2.156-.4a70.179,70.179,0,0,1,80.385,55.073Z" transform="translate(-1.489 -7.37)"/>
      <path id="Path_6881" data-name="Path 6881" class="cls-6" d="M191.178,373.629A70.179,70.179,0,0,1,139.295,455.9l-.4.1h0a4.683,4.683,0,0,1-1.243-9.253l27.242-5.563a4.681,4.681,0,1,0-1.873-9.172l-48.444,9.9a4.681,4.681,0,1,1-1.873-9.172l42.4-8.663a4.677,4.677,0,0,0-1.873-9.164L122.953,421.1a4.681,4.681,0,0,1-1.873-9.172l36.333-7.42a4.681,4.681,0,1,0-1.873-9.172l-42.413,8.663a4.681,4.681,0,1,1-1.873-9.172l63.623-13A4.681,4.681,0,1,0,173,372.652L91.19,389.373a4.681,4.681,0,1,1-1.873-9.172l54.532-11.142a4.675,4.675,0,1,0-1.873-9.156L111.7,366.087a4.681,4.681,0,0,1-1.873-9.172l42.4-8.663a4.677,4.677,0,1,0-1.873-9.164L95.824,350.214a4.675,4.675,0,1,1-1.833-9.156l33.305-6.806a4.681,4.681,0,0,0-1.873-9.172l-12.111,2.471a4.683,4.683,0,0,1-2.511-8.994h0A70.179,70.179,0,0,1,191.178,373.629Z" transform="translate(-9.443 -7.37)"/>
      <path id="Path_6882" data-name="Path 6882" class="cls-6" d="M63.2,354.663v.04a4.659,4.659,0,0,0,5.5,3.633,4.651,4.651,0,0,1,5.5,3.633h0a4.651,4.651,0,0,1-3.633,5.5l-15.163,3.092a4.659,4.659,0,0,0-3.633,5.5v.04a4.659,4.659,0,0,0,5.5,3.633l9.1-1.857a4.659,4.659,0,0,1,5.5,3.633v.04a4.659,4.659,0,0,1-3.633,5.5L53.1,390.172a4.659,4.659,0,0,0-3.633,5.5v.04a4.659,4.659,0,0,0,5.5,3.633l6.047-1.243a4.659,4.659,0,0,1,5.5,3.633v.04a4.659,4.659,0,0,1-3.633,5.5l-9.1,1.857a4.659,4.659,0,0,0-3.633,5.5v.04a4.659,4.659,0,0,0,5.5,3.633l27.29-5.571a4.659,4.659,0,0,1,5.5,3.633v.04a4.659,4.659,0,0,1-3.633,5.5l-6.023,1.227a4.659,4.659,0,0,0-3.633,5.5v.04a4.659,4.659,0,0,0,5.5,3.633,4.651,4.651,0,0,1,5.5,3.633h0a4.651,4.651,0,0,1-3.633,5.5,4.659,4.659,0,0,0-3.633,5.5v.04a4.659,4.659,0,0,0,5.5,3.633l9.1-1.857a4.659,4.659,0,0,1,5.5,3.633v.04a4.659,4.659,0,0,1-3.633,5.5l-2.777.565A70.2,70.2,0,0,1,67.8,339.419l3.23-.662a4.659,4.659,0,0,1,5.5,3.633v.04a4.659,4.659,0,0,1-3.633,5.5l-6.064,1.235A4.659,4.659,0,0,0,63.2,354.663Z" transform="translate(-1.497 -11.431)"/>
      <rect id="Rectangle_404" data-name="Rectangle 404" class="cls-7" width="16.996" height="9.358" rx="4.4" transform="matrix(0.98, -0.2, 0.2, 0.98, 74.885, 330.368)"/>
      <rect id="Rectangle_405" data-name="Rectangle 405" class="cls-7" width="39.296" height="9.358" rx="4.4" transform="matrix(0.98, -0.2, 0.2, 0.98, 87.89, 384.935)"/>
      <rect id="Rectangle_406" data-name="Rectangle 406" class="cls-7" width="25.465" height="7.945" rx="3.74" transform="matrix(0.98, -0.2, 0.2, 0.98, 54.445, 364.842)"/>
      <rect id="Rectangle_407" data-name="Rectangle 407" class="cls-7" width="37.592" height="8.316" rx="3.91" transform="matrix(0.98, -0.2, 0.2, 0.98, 109.661, 437.533)"/>
      <path id="Path_6883" data-name="Path 6883" class="cls-8" d="M196.788,285.7l1.308-1.534a15.922,15.922,0,0,1,8.074-4.5,16.148,16.148,0,0,1,5.652-.194,15.906,15.906,0,0,1,7.638,3.286l.493.4a16,16,0,0,1,2.228,21.993q-.218.283-.452.549a16.074,16.074,0,0,1-1.292,1.348l-.283.25a15.906,15.906,0,0,1-6.839,3.552,16.067,16.067,0,0,1-6.387.226h0a15.915,15.915,0,0,1-4.408-1.421h0a16,16,0,0,1-3.326-2.2h0l-.065-.057a15.93,15.93,0,0,1-4.8-7.267h0a16.059,16.059,0,0,1-.194-8.962,15.89,15.89,0,0,1,1.962-4.449l.315-.476A6.26,6.26,0,0,1,196.788,285.7Z" transform="translate(-30.248)"/>
      <path id="Path_6884" data-name="Path 6884" class="cls-9" d="M197.585,286.3l1.251-1.461a15.163,15.163,0,0,1,7.719-4.287,15.341,15.341,0,0,1,5.377-.186,15.147,15.147,0,0,1,7.267,3.125l.468.379a15.228,15.228,0,0,1,2.091,20.992l-.428.525a15.347,15.347,0,0,1-1.235,1.284l-.266.242a15.147,15.147,0,0,1-6.516,3.383,15.34,15.34,0,0,1-6.08.21h0a15.154,15.154,0,0,1-4.2-1.348h0a15.242,15.242,0,0,1-3.165-2.091h0l-.057-.048a15.171,15.171,0,0,1-4.562-6.944h0a15.292,15.292,0,0,1-.186-8.534,15.13,15.13,0,0,1,1.865-4.231l.307-.452Z" transform="translate(-30.432 -0.173)"/>
      <path id="Path_6885" data-name="Path 6885" class="cls-10" d="M197.557,286.3l1.251-1.461a15.163,15.163,0,0,1,7.719-4.287,15.341,15.341,0,0,1,5.377-.186,15.147,15.147,0,0,1,7.267,3.125l.468.379a15.163,15.163,0,0,1,4.271,6.007,1.7,1.7,0,0,1-2.317.113l-6.871-5.91a1.7,1.7,0,0,0-2.422.186h0a1.7,1.7,0,0,0,.186,2.422L222,294.808a1.7,1.7,0,0,1,.186,2.422h0a1.7,1.7,0,0,1-2.422.186l-6.459-5.5a1.7,1.7,0,0,0-2.422.186h0a1.7,1.7,0,0,0,.186,2.422l8.768,7.315a1.7,1.7,0,0,1,.186,2.422h0a1.7,1.7,0,0,1-2.422.186L207.2,295.567a1.7,1.7,0,0,0-2.422.186h0a1.7,1.7,0,0,0,.186,2.422l8.631,7.372a1.7,1.7,0,0,1,.186,2.422h0a1.7,1.7,0,0,1-2.422.186l-12.111-10.367a1.7,1.7,0,0,0-2.422.186h0a1.7,1.7,0,0,0,.186,2.422l6.879,5.878a1.7,1.7,0,0,1,.186,2.422h0a1.679,1.679,0,0,1-1.195.589h0a15.242,15.242,0,0,1-3.165-2.091h0l-.057-.048A15.171,15.171,0,0,1,195.1,300.2h0a15.292,15.292,0,0,1-.186-8.534,15.131,15.131,0,0,1,1.865-4.231l.307-.452Z" transform="translate(-30.403 -0.173)"/>
    </g>
    <g id="Group_2773" data-name="Group 2773" transform="matrix(0.996, 0.087, -0.087, 0.996, 4915.803, -431.86)">
      <path id="Path_6941" data-name="Path 6941" class="cls-11" d="M1187.353,233.165l-116.73,24.789a3.873,3.873,0,0,1-4.6-2.986l-13.106-61.725a3.872,3.872,0,0,1,2.986-4.6l110.84-23.536a3.873,3.873,0,0,1,4.6,2.986v.057a3.872,3.872,0,0,1-2.986,4.6l-38.538,8.184a3.873,3.873,0,0,0-2.986,4.6v.057a3.872,3.872,0,0,0,4.6,2.986l68.014-14.441a3.873,3.873,0,0,1,4.6,2.986v.187a3.872,3.872,0,0,1-2.986,4.6l-50.335,10.69a3.873,3.873,0,0,0-2.986,4.6v.057a3.872,3.872,0,0,0,4.6,2.986l35.691-7.566a3.873,3.873,0,0,1,4.6,2.986v.187a3.873,3.873,0,0,1-2.986,4.6l-26.75,5.695a3.872,3.872,0,0,0-2.986,4.6v.057a3.873,3.873,0,0,0,4.6,2.986l3.173-.675a3.873,3.873,0,0,1,4.6,2.986l.081.382a3.872,3.872,0,0,1-2.986,4.6l-47.382,10.064a3.873,3.873,0,0,0-2.986,4.6v.057a3.873,3.873,0,0,0,4.6,2.986l62.124-13.2a3.873,3.873,0,0,1,4.6,2.986v.057A3.873,3.873,0,0,1,1187.353,233.165Z" transform="translate(5580.891 2129.687)"/>
      <circle id="Ellipse_266" data-name="Ellipse 266" class="cls-11" cx="35.431" cy="35.431" r="35.431" transform="translate(6598.34 2326.479) rotate(-11.99)"/>
      <path id="Path_6942" data-name="Path 6942" class="cls-12" d="M1109.93,247.019l-40.564,8.616a3.872,3.872,0,0,1-4.6-2.986l-9.869-46.462a3.873,3.873,0,0,1,2.986-4.6L1095.5,193.6a3.873,3.873,0,0,1,4.6,2.986v.057a3.872,3.872,0,0,1-2.986,4.6l-4.7,1a3.873,3.873,0,0,0-2.986,4.6l.049.22a3.872,3.872,0,0,0,4.6,2.986l43.07-9.144a3.872,3.872,0,0,1,4.6,2.986h0a3.873,3.873,0,0,1-2.986,4.6l-37.123,7.883a3.873,3.873,0,0,0-2.986,4.6l.049.212a3.873,3.873,0,0,0,4.6,2.986l25.334-5.378a3.872,3.872,0,0,1,4.6,2.986v.057a3.873,3.873,0,0,1-2.986,4.6l-36.83,7.818a3.873,3.873,0,0,0-2.986,4.6l.049.22a3.873,3.873,0,0,0,4.6,2.986l13.245-2.815a3.873,3.873,0,0,1,4.6,2.986l.049.212a3.872,3.872,0,0,1-3.018,4.6Z" transform="translate(5580.521 2124.375)"/>
      <rect id="Rectangle_423" data-name="Rectangle 423" class="cls-12" width="7.802" height="15.572" rx="3.901" transform="translate(6701.449 2312.576) rotate(78.01)"/>
      <circle id="Ellipse_267" data-name="Ellipse 267" class="cls-7" cx="27.62" cy="27.62" r="27.62" transform="translate(6607.602 2332.496) rotate(-11.99)"/>
      <rect id="Rectangle_424" data-name="Rectangle 424" class="cls-12" width="7.802" height="15.401" rx="3.901" transform="translate(6733.504 2337.974) rotate(78.01)"/>
      <rect id="Rectangle_425" data-name="Rectangle 425" class="cls-11" width="7.802" height="49.001" rx="3.901" transform="translate(6824.575 2342.905) rotate(78.01)"/>
      <rect id="Rectangle_426" data-name="Rectangle 426" class="cls-11" width="7.802" height="8.965" rx="3.901" transform="translate(6798.806 2299.875) rotate(78.01)"/>
      <rect id="Rectangle_427" data-name="Rectangle 427" class="cls-11" width="7.802" height="18.11" rx="3.901" transform="translate(6822.499 2294.843) rotate(78.01)"/>
      <rect id="Rectangle_428" data-name="Rectangle 428" class="cls-11" width="7.802" height="18.11" rx="3.901" transform="translate(6774.977 2288.982) rotate(78.01)"/>
    </g>
    <g id="Group_2780" data-name="Group 2780" transform="translate(10609 2397)">
      <g id="Logo" transform="translate(185.007 129.044)">
        <g id="Capa_1" data-name="Capa 1">
          <path id="Path_6946" data-name="Path 6946" class="cls-13" d="M73.18,27.7a20.2,20.2,0,0,1,.61,2.39,2.17,2.17,0,1,0,4.26-.82,24.641,24.641,0,0,0-.74-2.91,2.17,2.17,0,0,0-4.13,1.33Z"/>
          <path id="Path_6947" data-name="Path 6947" class="cls-13" d="M51.08,11a2.17,2.17,0,0,0,2.16,2.17,21.31,21.31,0,0,1,16.41,8A2.17,2.17,0,0,0,73,18.44,25.68,25.68,0,0,0,53.25,8.8h0A2.17,2.17,0,0,0,51.08,11Z"/>
          <path id="Path_6948" data-name="Path 6948" class="cls-13" d="M60.48,84.11H50.74a2.17,2.17,0,1,0,0,4.34h9.74a2.17,2.17,0,1,0,0-4.34Z"/>
          <path id="Path_6949" data-name="Path 6949" class="cls-13" d="M204.76,100.2l-6.65-6.65a12.28,12.28,0,0,0-15.66-1.4l-4.35-4.34,1.12.14a2.17,2.17,0,0,0,2.15-1.88l5.4-39.54a2.17,2.17,0,0,0-1.85-2.44l-9.32-1.28a12.28,12.28,0,0,0-13.32,8.37l-21-2.87a24,24,0,0,0-4.45-.19V38.55a17.07,17.07,0,1,0-34.13,0V50.12H94.25l-8.6-8.6A33.53,33.53,0,1,0,19.91,28.7L4.46,44.14a15.24,15.24,0,0,0,0,21.56l35,35v3.63a23.88,23.88,0,0,0,23.85,23.85h3.41l1.71,1.71a42.94,42.94,0,0,0,60.66,0l21.45-21.37,22.92,22.94a2.17,2.17,0,0,0,3.07,0l28.22-28.22a2.17,2.17,0,0,0,.01-3.04Zm-52,4.38V88.17a16.22,16.22,0,0,0,11.79-7.81l9.38,9.38-18,18ZM127.48,83.35,118,73.91l.63-4.59v-.06a16.25,16.25,0,0,0,4,1.35,16.43,16.43,0,0,0,3.17.31,16.09,16.09,0,0,0,7.29-1.75l3.92,5.16a24.11,24.11,0,0,0-3.38,2.81Zm10.08-30.91a11.93,11.93,0,0,1-17.77,12.49,19.52,19.52,0,0,1,17.77-12.49Zm13,17.7a23.78,23.78,0,0,0-9.66,2l-4.16-5.47A16.27,16.27,0,0,0,142,52.81l12,1.64-2.14,15.74c-.44-.03-.86-.04-1.3-.04Zm0,4.34a19.37,19.37,0,0,1,10.54,3.09,11.93,11.93,0,0,1-21.13,0,19.37,19.37,0,0,1,10.59-3.08Zm26.8,8.86-3.43-.47,4.81-35.24,3.43.47ZM163.64,55.76a2.17,2.17,0,0,0,2.44-1.86,7.93,7.93,0,0,1,8.36-6.83L170,79.7l-2.56-2.56a23.69,23.69,0,0,0-11.29-6.33L158.29,55ZM123.57,53a23.78,23.78,0,0,0-6.64,7.8l-10-10V38.02h25.43V48.74A23.77,23.77,0,0,0,123.57,53ZM119.7,25.81a12.77,12.77,0,0,1,11.78,7.89H107.93a12.75,12.75,0,0,1,11.78-7.89ZM104.49,54.46S115.06,65,115.16,65.08a24.131,24.131,0,0,0-.79,3.66l-.18,1.33-15.6-15.6h5.9Zm19.92,32-6.68,6.68L79.19,54.55a33.55,33.55,0,0,0,5-8.4ZM82.28,33.53a29.309,29.309,0,0,1-.15,3c-7.11,6.91-16.72,9.83-25,7.69A11.09,11.09,0,0,0,46,33.75a11.261,11.261,0,0,0-1.41.1c-4.08-8.86-1.4-20.4,6.84-28.64.3-.3.6-.59.9-.86h.72A29.23,29.23,0,0,1,82.28,33.53ZM46,38.09a6.77,6.77,0,1,1-4.79,2,6.77,6.77,0,0,1,4.79-2ZM45.59,5.32c-7.15,9.06-9.15,20.62-5.09,29.93a11.11,11.11,0,1,0,16,13.28,26.42,26.42,0,0,0,6.11.71,31.82,31.82,0,0,0,17.92-5.83,29.19,29.19,0,1,1-35-38.09Zm-6.1,67.87-29-29,9.08-9.08a33.58,33.58,0,0,0,19.89,29v9ZM16.42,71.53l7.64-7.64,3.42,3.42-7.64,7.64ZM4.34,54.92a10.83,10.83,0,0,1,3.12-7.63L21,60.82l-7.64,7.64L7.53,62.64a10.84,10.84,0,0,1-3.19-7.72ZM22.91,78l7.64-7.64,8.94,8.94V94.59Zm21.22,29.72A11.08,11.08,0,0,1,56.6,110a11.22,11.22,0,0,1,1.87,13.26,19.57,19.57,0,0,1-14.34-15.52ZM63,123.86a15.34,15.34,0,0,0-1.44-14.65L72.36,98.4H85.71v25.44Zm35-12.72a12.75,12.75,0,0,1-7.89,11.77V99.36a12.75,12.75,0,0,1,7.83,11.78Zm28,15.71a38.6,38.6,0,0,1-53.1,1.35H85.21a17.07,17.07,0,1,0,0-34.14H73.63V70a2.17,2.17,0,0,0-4.34,0V95.34L58.64,106a15.39,15.39,0,0,0-14.81-2.79V65.75a33.42,33.42,0,0,0,32.42-8l38.42,38.42-5.25,5.25a2.171,2.171,0,1,0,3.07,3.07L136.57,80.4a16.23,16.23,0,0,0,11.83,7.78v16.41Zm32.91-16,18-18,3.82,3.82a2.17,2.17,0,0,0,3.07,0,7.93,7.93,0,0,1,10.78-.38L169.5,121.37ZM175,126.88l-2.45-2.45L197.7,99.28l2.45,2.45Z"/>
          <path id="Path_6950" data-name="Path 6950" class="cls-13" d="M217.73,106.36l26.08-70.45h5.87l24.83,70.45h-6.45l-6.93-21.27H231.69l-7.31,21.27Zm16-26.76h25.5L246.7,43.9Z"/>
          <path id="Path_6951" data-name="Path 6951" class="cls-13" d="M305.79,35.33q3.95,0,11.84.77t11.84,1.35v4.24l-23.19-.87h-1.35q-5.68,0-8.85,2.21t-3.18,9.43v6.35q0,4.62,1.06,6.26a8.781,8.781,0,0,0,2,2.31,7,7,0,0,0,2.26,1.06,26.06,26.06,0,0,0,6,.58H317q9.14,0,12.41,5A19.22,19.22,0,0,1,332.2,84.8v6.54q0,11-8.37,14.15a26.23,26.23,0,0,1-9.34,1.64q-5,0-13.33-.72T289.34,105v-4.23q9.33.87,17.47.87t9.72-.14a17.82,17.82,0,0,0,3.61-.77A10.34,10.34,0,0,0,323.5,99q3.18-2.5,3.18-7.7V84.8q0-5.1-2.21-7.65T317,74.6H304.35q-12.22,0-15.4-6.83a22.19,22.19,0,0,1-1.54-9V52.46q0-10.11,5.39-13.86Q297.71,35.33,305.79,35.33Z"/>
          <path id="Path_6952" data-name="Path 6952" class="cls-13" d="M345.83,41.39V35.91H395V41.4H372.87v65h-5.49v-65Z"/>
          <path id="Path_6953" data-name="Path 6953" class="cls-13" d="M411,106.36V35.91h28.87q16.46,0,16.46,20.5a35.9,35.9,0,0,1-1,9,19.061,19.061,0,0,1-2.41,5.87,11.441,11.441,0,0,1-3.42,3.27,14.66,14.66,0,0,1-6.45,2l15.11,29.74h-6l-15-29.55q-1.35,0-11-.58t-9.72-.67v30.8ZM450.73,56a27.323,27.323,0,0,0-.91-7.51,9.56,9.56,0,0,0-2.55-4.62,11.43,11.43,0,0,0-7.41-2.41H416.47V70.94h23.39q6.54,0,8.66-3.46T450.73,56Z"/>
          <path id="Path_6954" data-name="Path 6954" class="cls-13" d="M472.78,71.52a100.582,100.582,0,0,1,.67-12.27A59.784,59.784,0,0,1,475.23,50a22.09,22.09,0,0,1,3-6.5,18.721,18.721,0,0,1,3.9-4.23,15.16,15.16,0,0,1,5-2.41,37.73,37.73,0,0,1,10.68-1.44q5.77,0,8.57.29a32.829,32.829,0,0,1,5.77,1.15,14.61,14.61,0,0,1,5,2.41A19.379,19.379,0,0,1,521,43.5a21.35,21.35,0,0,1,2.88,6.5,68.33,68.33,0,0,1,2.41,18.86A128.859,128.859,0,0,1,525.52,85a37.49,37.49,0,0,1-2.41,9.53,25.751,25.751,0,0,1-3.66,6.3,12.46,12.46,0,0,1-5.29,3.71q-5.49,2.22-14.63,2.21-13,0-17.81-3.75A19,19,0,0,1,475,92.6Q472.77,84.51,472.78,71.52Zm8.13-21.22a29,29,0,0,0-2.07,8.61,109.826,109.826,0,0,0-.58,11.84q0,6.55.34,10.73a54.057,54.057,0,0,0,1.06,7.41,17.489,17.489,0,0,0,2,5.34,17.071,17.071,0,0,0,2.84,3.56,9.33,9.33,0,0,0,3.85,2.12,33.86,33.86,0,0,0,10.2,1.35,51.231,51.231,0,0,0,9.19-.63,16.209,16.209,0,0,0,5.92-2.41,11.31,11.31,0,0,0,4.14-5.15q3-6.93,3-21.46,0-15.11-2.5-21.08a26.547,26.547,0,0,0-1.78-3.9A8.09,8.09,0,0,0,514.06,44a22,22,0,0,0-2.84-1.68,11.64,11.64,0,0,0-3.42-.91,54.55,54.55,0,0,0-7.8-.48q-4.53,0-6.74.19a25.891,25.891,0,0,0-5.1,1.06A8,8,0,0,0,483.84,45a29.711,29.711,0,0,0-2.93,5.3Z"/>
          <path id="Path_6955" data-name="Path 6955" class="cls-13" d="M562.86,35.33q3.95,0,11.84.77t11.84,1.35v4.24l-23.19-.87H562q-5.68,0-8.85,2.21T550,52.46v6.35q0,4.62,1.06,6.26a8.781,8.781,0,0,0,2,2.31,7,7,0,0,0,2.26,1.06,26.06,26.06,0,0,0,6,.58H574q9.14,0,12.41,5A19.221,19.221,0,0,1,589.2,84.8v6.54q0,11-8.37,14.15a26.23,26.23,0,0,1-9.34,1.64q-5,0-13.33-.72T546.4,105v-4.23q9.33.87,17.47.87t9.72-.14a17.82,17.82,0,0,0,3.61-.77A10.34,10.34,0,0,0,580.57,99q3.18-2.5,3.18-7.7V84.8q0-5.1-2.21-7.65T574,74.6H561.41q-12.22,0-15.4-6.83a22.191,22.191,0,0,1-1.54-9V52.46q0-10.11,5.39-13.86Q554.77,35.33,562.86,35.33Z"/>
        </g>
      </g>
      <text id="astros.triangle.mx" class="cls-14" transform="translate(295 305)"><tspan x="0" y="0">astros.triangle.mx</tspan></text>
    </g>
  </g>
</svg>
