<svg xmlns="http://www.w3.org/2000/svg" viewBox="1536 3070 683 973.993">
  <defs>
    <style>
      .cls-1 {
        fill: #000015;
      }

      .cls-2 {
        fill: #3636ce;
      }

      .cls-3 {
        fill: #b237cc;
      }

      .cls-4 {
        fill: #fff;
      }

      .cls-5 {
        fill: #9cb3e8;
      }

      .cls-5, .cls-8 {
        opacity: 0.2;
      }

      .cls-6 {
        fill: #2463d3;
      }

      .cls-7 {
        fill: #1dee3a;
      }

      .cls-8, .cls-9 {
        fill: gray;
      }

      .cls-10 {
        fill: #4d4d4d;
      }
    </style>
  </defs>
  <g id="Group_2749" data-name="Group 2749" transform="translate(1536)">
    <rect id="Rectangle_161" data-name="Rectangle 161" class="cls-1" width="683" height="683" transform="translate(0 3070)"/>
    <g id="Halley" transform="translate(462.065 3127.419)">
      <g id="Capa_1" data-name="Capa 1" transform="translate(-38.065 -4.189)">
        <path id="Path_608" data-name="Path 608" class="cls-2" d="M178.685,134.2,86.838,226.044a4.217,4.217,0,0,1-5.967,0L32.289,177.475a4.217,4.217,0,0,1,0-5.967L119.512,84.3a4.217,4.217,0,0,1,5.967,0l.042.042a4.217,4.217,0,0,1,0,5.967L95.2,120.631a4.217,4.217,0,0,0,0,5.967l.042.042a4.217,4.217,0,0,0,5.967,0l53.512-53.52a4.217,4.217,0,0,1,5.967,0l.147.147a4.217,4.217,0,0,1,0,5.967l-39.585,39.6a4.217,4.217,0,0,0,0,5.967l.042.042a4.217,4.217,0,0,0,5.967,0l27.979-28a4.217,4.217,0,0,1,5.967,0l.147.147a4.217,4.217,0,0,1,0,5.967L140.3,124a4.217,4.217,0,0,0,0,5.967l.042.042a4.217,4.217,0,0,0,5.967,0l2.5-2.5a4.217,4.217,0,0,1,5.967,0l.3.3a4.217,4.217,0,0,1,0,5.967L117.78,171.068a4.217,4.217,0,0,0,0,5.967l.042.042a4.217,4.217,0,0,0,5.967,0l48.888-48.888a4.217,4.217,0,0,1,5.967,0l.042.042a4.217,4.217,0,0,1,0,5.967Z" transform="translate(-2.051 -39.963)"/>
        <circle id="Ellipse_30" data-name="Ellipse 30" class="cls-2" cx="38.562" cy="38.562" r="38.562" transform="translate(0 161.797) rotate(-45)"/>
        <path id="Path_609" data-name="Path 609" class="cls-3" d="M121.067,266.683,89.152,298.615a4.217,4.217,0,0,1-5.967,0L46.629,262.042a4.217,4.217,0,0,1,0-5.967L76.224,226.48a4.217,4.217,0,0,1,5.967,0l.042.042a4.217,4.217,0,0,1,0,5.967l-3.7,3.7a4.217,4.217,0,0,0,0,5.967l.172.172a4.217,4.217,0,0,0,5.967,0L118.52,208.48a4.217,4.217,0,0,1,5.967,0h0a4.217,4.217,0,0,1,0,5.967l-29.213,29.2a4.217,4.217,0,0,0,0,5.967l.168.168a4.217,4.217,0,0,0,5.967,0L121.34,229.85a4.217,4.217,0,0,1,5.967,0l.042.042a4.217,4.217,0,0,1,0,5.967L98.371,264.836a4.217,4.217,0,0,0,0,5.967l.172.172a4.217,4.217,0,0,0,5.967,0l10.423-10.423a4.217,4.217,0,0,1,5.967,0l.168.168a4.217,4.217,0,0,1,0,5.963Z" transform="translate(-10.374 -118.525)"/>
        <rect id="Rectangle_171" data-name="Rectangle 171" class="cls-3" width="8.497" height="16.948" rx="4.248" transform="translate(85.846 87.965) rotate(45)"/>
        <circle id="Ellipse_31" data-name="Ellipse 31" class="cls-4" cx="30.069" cy="30.069" r="30.069" transform="translate(12.008 161.798) rotate(-45)"/>
        <rect id="Rectangle_172" data-name="Rectangle 172" class="cls-3" width="8.497" height="16.759" rx="4.248" transform="translate(130.161 92.133) rotate(45)"/>
        <rect id="Rectangle_173" data-name="Rectangle 173" class="cls-2" width="8.497" height="53.336" rx="4.248" transform="translate(216.215 42.64) rotate(45)"/>
        <rect id="Rectangle_174" data-name="Rectangle 174" class="cls-2" width="8.497" height="9.76" rx="4.248" transform="translate(167.188 18.636) rotate(45)"/>
        <rect id="Rectangle_175" data-name="Rectangle 175" class="cls-2" width="8.497" height="19.717" rx="4.248" transform="translate(185.83) rotate(45)"/>
        <rect id="Rectangle_176" data-name="Rectangle 176" class="cls-2" width="8.497" height="19.717" rx="4.248" transform="translate(138.97 22.831) rotate(45)"/>
      </g>
    </g>
    <g id="Tierra-Luna" transform="translate(21.394 3491)">
      <g id="Capa_1-2" data-name="Capa 1" transform="translate(0.02 0)">
        <path id="Path_601" data-name="Path 601" class="cls-5" d="M543.756,280.291c0,146.539-115.95,266-261.1,271.648q-5.35.209-10.754.209C121.76,552.148.02,430.43.02,280.269S121.738,8.39,271.9,8.39h1.4C422.753,9.194,543.756,130.625,543.756,280.291Z" transform="translate(-0.02 0.845)"/>
        <path id="Path_602" data-name="Path 602" class="cls-6" d="M518.611,298.606C507.6,432.719,392.589,533.369,259.314,527.667l-1.5-.066q-4.172-.2-8.366-.539C112.041,515.815,9.766,395.306,21.012,257.9S152.768,18.211,290.178,29.457l1.288.121c2.6.231,5.2.484,7.76.8C432.05,46.034,529.618,164.23,518.611,298.606Z" transform="translate(2.009 2.882)"/>
        <path id="Path_603" data-name="Path 603" class="cls-7" d="M507.071,298.445c-11.007,134.112-126.022,234.762-259.3,229.061l-1.486-.066h0a16.643,16.643,0,0,1,5.008-32.824l98.57,8.211a16.645,16.645,0,1,0,2.763-33.176L177.294,455.034a16.656,16.656,0,1,1,2.763-33.2l153.419,12.79a16.641,16.641,0,1,0,2.763-33.168l-109.533-9.133a16.645,16.645,0,1,1,2.763-33.176L360.95,370.158a16.645,16.645,0,1,0,2.763-33.176l-153.43-12.79a16.645,16.645,0,0,1,2.763-33.176l230.183,19.2a16.645,16.645,0,1,0,2.763-33.176L150.007,252.325a16.645,16.645,0,1,1,2.763-33.176l197.294,16.445a16.645,16.645,0,1,0,2.763-33.176l-109.533-9.136a16.645,16.645,0,1,1,2.763-33.176l153.408,12.856a16.64,16.64,0,1,0,2.763-33.165L204.933,123.353a16.644,16.644,0,0,1,2.741-33.176l120.507,10.05a16.646,16.646,0,0,0,2.774-33.176l-43.7-3.643a16.643,16.643,0,0,1,.418-33.2h0C420.51,45.873,518.078,164.069,507.071,298.445Z" transform="translate(13.55 3.043)"/>
        <path id="Path_604" data-name="Path 604" class="cls-7" d="M131.87,97.952v.154a16.577,16.577,0,0,0,15.124,17.887,16.511,16.511,0,0,1,15.135,17.887v.143a16.511,16.511,0,0,1-17.887,15.135l-54.915-4.546a16.566,16.566,0,0,0-17.832,15.1v.154A16.511,16.511,0,0,0,86.63,177.755l32.912,2.741a16.511,16.511,0,0,1,15.135,17.887v.165a16.511,16.511,0,0,1-17.887,15.135l-54.849-4.568a16.566,16.566,0,0,0-17.887,15.135v.154A16.566,16.566,0,0,0,59.189,242.29l21.937,1.827A16.511,16.511,0,0,1,96.261,262v.154a16.511,16.511,0,0,1-17.942,15.1L45.408,274.5a16.566,16.566,0,0,0-17.887,15.135v.154a16.566,16.566,0,0,0,15.135,17.887l98.724,8.233a16.511,16.511,0,0,1,15.091,17.9v.132a16.511,16.511,0,0,1-17.887,15.135l-21.937-1.827A16.511,16.511,0,0,0,98.76,362.379v.176a16.577,16.577,0,0,0,15.135,17.887,16.511,16.511,0,0,1,15.135,17.887v.143a16.511,16.511,0,0,1-17.887,15.135,16.566,16.566,0,0,0-17.887,15.135v.154a16.511,16.511,0,0,0,15.113,17.865l32.912,2.752A16.511,16.511,0,0,1,156.416,467.4v.154a16.511,16.511,0,0,1-17.887,15.135l-10.05-.837A249.7,249.7,0,0,1,162.767,50.5l11.69.98a16.511,16.511,0,0,1,15.135,17.887v.154A16.511,16.511,0,0,1,171.7,84.655l-21.948-1.838A16.511,16.511,0,0,0,131.87,97.952Z" transform="translate(2.011 5.087)"/>
        <rect id="Rectangle_167" data-name="Rectangle 167" class="cls-4" width="60.441" height="33.286" rx="15.12" transform="translate(191.787 72.278) rotate(4.77)"/>
        <rect id="Rectangle_168" data-name="Rectangle 168" class="cls-4" width="139.781" height="33.286" rx="15.12" transform="translate(181.658 271.552) rotate(4.77)"/>
        <rect id="Rectangle_169" data-name="Rectangle 169" class="cls-4" width="90.579" height="28.256" rx="12.83" transform="translate(87.56 169.569) rotate(4.77)"/>
        <rect id="Rectangle_170" data-name="Rectangle 170" class="cls-4" width="133.716" height="29.576" rx="12.83" transform="translate(203.418 472.892) rotate(4.77)"/>
        <path id="Path_605" data-name="Path 605" class="cls-8" d="M501.085,11.337l6.01-3.93A56.622,56.622,0,0,1,539.269.154a57.3,57.3,0,0,1,19.483,4.964,56.588,56.588,0,0,1,22.807,18.844q.649.914,1.266,1.86a56.885,56.885,0,0,1-14.475,77.315q-1.024.737-2.091,1.431a57.231,57.231,0,0,1-5.735,3.3l-1.2.583a56.566,56.566,0,0,1-26.891,5.294,57.139,57.139,0,0,1-22.015-5.625h0a56.6,56.6,0,0,1-13.737-9.257h0a56.925,56.925,0,0,1-9.136-10.809V88l-.154-.242a56.666,56.666,0,0,1-9.081-29.72h0a57.116,57.116,0,0,1,8.3-30.82A56.511,56.511,0,0,1,497.75,14.012q.771-.671,1.563-1.31T501.085,11.337Z" transform="translate(48.154 0)"/>
        <path id="Path_606" data-name="Path 606" class="cls-9" d="M502.5,13.158l5.724-3.742A53.935,53.935,0,0,1,538.872,2.5a54.574,54.574,0,0,1,18.547,4.733,53.935,53.935,0,0,1,21.717,17.942q.616.87,1.211,1.772a54.178,54.178,0,0,1-13.792,73.638q-.98.7-1.992,1.365a54.467,54.467,0,0,1-5.5,3.148l-1.1.55a53.87,53.87,0,0,1-25.614,5.041,54.419,54.419,0,0,1-20.98-5.349h0a53.935,53.935,0,0,1-13-8.806h0a54.209,54.209,0,0,1-8.729-10.292h0l-.154-.231a53.936,53.936,0,0,1-8.652-28.256h0a54.386,54.386,0,0,1,7.892-29.378,53.813,53.813,0,0,1,10.611-12.592q.726-.638,1.486-1.255T502.5,13.158Z" transform="translate(48.408 0.237)"/>
        <path id="Path_607" data-name="Path 607" class="cls-10" d="M502.5,13.158l5.724-3.742A53.935,53.935,0,0,1,538.871,2.5a54.574,54.574,0,0,1,18.547,4.733,53.935,53.935,0,0,1,21.717,17.942q.616.87,1.211,1.772a53.936,53.936,0,0,1,8.542,24.766,6.021,6.021,0,0,1-8.035-1.926L563.285,22.878a6.021,6.021,0,0,0-8.333-1.739h0a6.021,6.021,0,0,0-1.75,8.343l24.359,37.2a6.021,6.021,0,0,1-1.739,8.332h0a6.021,6.021,0,0,1-8.333-1.739L550.979,48.062a6.021,6.021,0,0,0-8.321-1.739h0a6.021,6.021,0,0,0-1.739,8.332l22.1,33.8a6.021,6.021,0,0,1-1.739,8.332h0a6.021,6.021,0,0,1-8.333-1.739l-26.6-40.672a6.021,6.021,0,0,0-8.333-1.783h0a6.021,6.021,0,0,0-1.772,8.376l22.114,33.8a6.021,6.021,0,0,1-1.739,8.332h0a6.021,6.021,0,0,1-8.266-1.739L497.209,53.841a6.021,6.021,0,0,0-8.333-1.739h0a6.021,6.021,0,0,0-1.739,8.332l17.612,26.935a6.021,6.021,0,0,1-1.717,8.332h0a5.988,5.988,0,0,1-4.656.826h0a54.209,54.209,0,0,1-8.729-10.292h0L489.493,86a53.936,53.936,0,0,1-8.652-28.256h0a54.387,54.387,0,0,1,7.881-29.367,53.816,53.816,0,0,1,10.611-12.592q.726-.638,1.486-1.255T502.5,13.158Z" transform="translate(48.409 0.237)"/>
      </g>
    </g>
  </g>
</svg>
