<?xml version="1.0" encoding="utf-8"?>
<!-- Generator: Adobe Illustrator 21.1.0, SVG Export Plug-In . SVG Version: 6.00 Build 0)  -->
<svg version="1.1" id="Capa_1" xmlns="http://www.w3.org/2000/svg" xmlns:xlink="http://www.w3.org/1999/xlink" x="0px" y="0px"
	 viewBox="0 0 770 770" style="enable-background:new 0 0 770 770;" xml:space="preserve">
<style type="text/css">
	.st0{fill:#282561;}
	.st1{fill:#FFFFFF;}
</style>
<rect class="st0" width="770" height="770"/>
<g>
	<path id="Path_6958" class="st1" d="M88.9,340.6c0,2.6-0.4,5.2-1.4,7.6c-0.9,2.2-2.2,4.2-3.9,5.8c-1.8,1.7-3.9,2.9-6.2,3.7
		c-2.6,0.9-5.4,1.3-8.2,1.3H38.6v-62.7h28.9c6.3,0,11.1,1.5,14.2,4.5c3.1,3,4.7,7.2,4.7,12.5c0.1,2.5-0.5,4.9-1.6,7.1
		c-1.1,2.1-2.6,3.8-4.5,5.2c2.6,1.3,4.8,3.3,6.3,5.8C88.2,334.2,89,337.4,88.9,340.6L88.9,340.6z M50.5,307.1V321h17
		c1.9,0.1,3.8-0.6,5.2-1.9c1.4-1.3,2.2-3.1,2.1-5.1c0.1-1.9-0.6-3.7-1.9-5c-1.5-1.3-3.4-2-5.4-1.9L50.5,307.1z M76.7,340.1
		c0.1-2.3-0.7-4.5-2.4-6.1c-1.6-1.4-3.9-2.1-7-2.1H50.5v16.2h17c1.1,0,2.2-0.1,3.3-0.4c1.1-0.2,2.1-0.7,2.9-1.3
		c0.9-0.6,1.6-1.5,2.1-2.4C76.5,342.8,76.7,341.5,76.7,340.1L76.7,340.1z"/>
	<path id="Path_6959" class="st1" d="M138.4,359H127v-4.2c-1.4,1.7-3.2,3-5.2,3.9c-2.1,1-4.4,1.4-6.7,1.4c-2.6,0-5.2-0.5-7.6-1.5
		c-2.2-1-4.2-2.4-5.8-4.2c-1.7-1.9-2.9-4.1-3.7-6.4c-0.9-2.7-1.3-5.5-1.3-8.4v-27.2h11.9v27.2c0,0.9,0.1,1.7,0.3,2.5
		c0.2,1.1,0.6,2.1,1.2,3c0.7,1,1.6,1.9,2.6,2.5c1.4,0.8,3,1.1,4.6,1c2.5,0.1,4.8-0.9,6.6-2.6c1.7-1.8,2.6-4.1,2.5-6.5v-27.2h11.9
		L138.4,359z"/>
	<path id="Path_6960" class="st1" d="M188.5,344.4c0,2.2-0.5,4.4-1.5,6.3c-1,1.9-2.5,3.6-4.2,5c-1.9,1.5-4.1,2.6-6.4,3.3
		c-2.6,0.8-5.4,1.2-8.2,1.2c-2.6,0-5.1-0.3-7.6-0.9c-2.3-0.6-4.4-1.5-6.4-2.8c-1.8-1.2-3.4-2.7-4.7-4.4c-1.3-1.7-2.3-3.7-2.8-5.8
		l11.8-2.1c0.4,0.9,1,1.8,1.8,2.4c0.7,0.7,1.6,1.2,2.5,1.6c0.9,0.4,1.9,0.7,2.8,0.9c0.9,0.2,1.8,0.3,2.8,0.3c2.1,0.1,4.1-0.3,6-1
		c1.4-0.4,2.4-1.7,2.4-3.1c0-0.6-0.1-1.2-0.4-1.7c-0.3-0.6-0.8-1-1.4-1.3c-1-0.4-2-0.8-3-1c-1.6-0.4-3.3-0.7-5-1
		c-2.1-0.3-4.3-0.7-6.6-1.2c-2.2-0.5-4.3-1.3-6.2-2.3c-1.9-1-3.5-2.3-4.7-4c-1.3-1.9-2-4.1-1.9-6.4c0-1.9,0.4-3.7,1.2-5.4
		c0.8-1.9,2.1-3.5,3.7-4.8c1.8-1.5,3.9-2.7,6.2-3.4c2.8-0.9,5.8-1.4,8.8-1.3c4.4-0.1,8.8,1,12.6,3.3c3.4,2.1,5.9,5.3,7.1,9l-11.9,2
		c-0.5-1.1-1.4-2.1-2.6-2.6c-1.6-0.8-3.3-1.2-5.1-1.1c-2.8,0-4.8,0.4-6,1.2c-1.2,0.8-1.8,1.6-1.8,2.5c0,1.2,0.8,2.1,2.4,2.6
		c2.2,0.7,4.5,1.2,6.8,1.5c2.9,0.5,5.5,1,8,1.7c2.2,0.5,4.3,1.4,6.2,2.5c1.7,1,3.1,2.4,4.1,4.1C188.1,340,188.6,342.2,188.5,344.4
		L188.5,344.4z"/>
	<path id="Path_6961" class="st1" d="M202.9,308.7c-3.4-0.1-6.2-2.9-6.1-6.3c0-1.6,0.7-3.1,1.8-4.3c1.1-1.2,2.7-1.9,4.3-1.9
		c3.5,0,6.3,2.8,6.3,6.3l0,0c0,1.6-0.7,3.2-1.9,4.3C206.2,308.1,204.6,308.7,202.9,308.7z M209,359H197v-46.6H209L209,359z"/>
	<path id="Path_6962" class="st1" d="M261.7,359h-11.9v-27.2c0-0.9-0.1-1.7-0.3-2.6c-0.2-1.1-0.6-2.1-1.1-3.1
		c-0.6-1.1-1.5-1.9-2.6-2.5c-1.4-0.8-3.1-1.1-4.7-1c-2.5-0.1-4.8,0.9-6.6,2.6c-1.7,1.8-2.6,4.2-2.5,6.6V359h-11.9v-46.6h11.4v4.5
		c1.5-1.7,3.2-3.1,5.2-4.2c2.1-1,4.4-1.6,6.8-1.5c2.6,0,5.1,0.5,7.5,1.5c2.2,0.9,4.2,2.4,5.7,4.2c1.6,1.9,2.9,4.1,3.7,6.5
		c0.9,2.7,1.3,5.6,1.3,8.4L261.7,359z"/>
	<path id="Path_6963" class="st1" d="M312.8,350.9l-0.5,0.6c-2.1,2.7-4.8,4.9-7.9,6.3c-3.5,1.6-7.2,2.3-11,2.3
		c-3.2,0-6.3-0.6-9.2-1.9c-2.8-1.2-5.4-3-7.6-5.2c-2.2-2.2-3.9-4.9-5.2-7.7c-1.3-3-1.9-6.2-1.9-9.5c0-3.3,0.6-6.5,1.9-9.5
		c2.4-5.8,7-10.5,12.7-13c2.9-1.3,6-2,9.2-1.9c3.3,0,6.6,0.6,9.7,1.9c3,1.3,5.7,3.2,7.8,5.7c2.3,2.7,3.9,5.8,4.9,9.2
		c1.1,4,1.5,8.2,1,12.3h-35.2c0.6,2.7,2.2,5.1,4.3,6.8c2.1,1.6,4.7,2.5,7.4,2.4c1.8,0,3.6-0.4,5.2-1c1.7-0.7,3.1-1.9,4-3.4
		L312.8,350.9z M305,330.6c-0.6-2.6-2.1-4.8-4.2-6.5c-2.1-1.6-4.8-2.5-7.5-2.4c-2.6,0-5.1,0.8-7.1,2.4c-2.1,1.6-3.6,3.9-4.3,6.5H305
		z"/>
	<path id="Path_6964" class="st1" d="M364.4,344.4c0,2.2-0.5,4.4-1.5,6.3c-1,1.9-2.5,3.6-4.2,5c-1.9,1.5-4.1,2.6-6.4,3.3
		c-2.6,0.8-5.4,1.2-8.2,1.2c-2.6,0-5.1-0.3-7.6-0.9c-2.3-0.6-4.4-1.5-6.4-2.8c-1.8-1.2-3.4-2.7-4.7-4.4c-1.3-1.7-2.3-3.7-2.8-5.8
		l11.8-2.1c0.4,0.9,1,1.8,1.8,2.4c0.7,0.7,1.6,1.2,2.5,1.6c0.9,0.4,1.9,0.7,2.8,0.9c0.9,0.2,1.8,0.3,2.8,0.3c2.1,0.1,4.1-0.3,6-1
		c1.4-0.4,2.4-1.7,2.4-3.1c0-0.6-0.1-1.2-0.4-1.7c-0.3-0.6-0.8-1-1.4-1.3c-1-0.4-2-0.8-3-1c-1.6-0.4-3.3-0.7-5-1
		c-2.1-0.3-4.3-0.7-6.6-1.2c-2.2-0.5-4.3-1.3-6.2-2.3c-1.9-1-3.5-2.3-4.7-4c-1.3-1.9-2-4.1-1.9-6.4c0-1.9,0.4-3.7,1.2-5.4
		c0.8-1.9,2.1-3.5,3.7-4.8c1.8-1.5,3.9-2.7,6.2-3.4c2.8-0.9,5.8-1.4,8.8-1.3c4.4-0.1,8.8,1,12.6,3.3c3.4,2.1,5.9,5.3,7.1,9l-11.9,2
		c-0.5-1.1-1.4-2.1-2.6-2.6c-1.6-0.8-3.3-1.2-5.1-1.1c-2.8,0-4.8,0.4-6,1.2c-1.2,0.8-1.8,1.6-1.8,2.5c0,1.2,0.8,2.1,2.4,2.6
		c2.2,0.7,4.4,1.2,6.6,1.5c2.9,0.5,5.5,1,8,1.7c2.2,0.5,4.3,1.4,6.3,2.5c1.7,1,3.1,2.4,4.1,4.1C364,340,364.5,342.2,364.4,344.4z"/>
	<path id="Path_6965" class="st1" d="M412,344.4c0,2.2-0.5,4.4-1.5,6.3c-1,1.9-2.5,3.6-4.2,5c-1.9,1.5-4.1,2.6-6.4,3.2
		c-2.6,0.8-5.4,1.2-8.2,1.2c-2.6,0-5.1-0.3-7.6-0.9c-2.3-0.6-4.4-1.5-6.4-2.8c-1.8-1.2-3.4-2.7-4.7-4.4c-1.3-1.7-2.3-3.7-2.8-5.8
		l11.8-2.1c0.4,0.9,1,1.8,1.8,2.4c0.7,0.7,1.6,1.2,2.5,1.6c0.9,0.4,1.9,0.7,2.8,0.9c0.9,0.2,1.8,0.3,2.8,0.3c2.1,0.1,4.1-0.3,6-1
		c1.4-0.4,2.4-1.7,2.4-3.1c0-0.6-0.1-1.2-0.4-1.7c-0.3-0.6-0.8-1-1.4-1.3c-1-0.4-2-0.8-3-1c-1.6-0.4-3.3-0.7-5-1
		c-2.1-0.3-4.3-0.7-6.6-1.2c-2.2-0.5-4.3-1.3-6.2-2.3c-1.9-1-3.5-2.3-4.7-4c-1.3-1.9-2-4.1-1.9-6.4c0-1.9,0.4-3.7,1.2-5.4
		c0.8-1.9,2.1-3.5,3.6-4.8c1.8-1.5,3.9-2.6,6.2-3.4c2.8-0.9,5.8-1.4,8.8-1.3c4.4-0.1,8.8,1,12.6,3.3c3.4,2.1,5.9,5.3,7.1,9l-11.9,2
		c-0.5-1.1-1.4-2.1-2.6-2.6c-1.6-0.8-3.3-1.2-5.1-1.1c-2.8,0-4.8,0.4-6,1.2c-1.2,0.8-1.8,1.6-1.8,2.5c0,1.2,0.8,2.1,2.4,2.6
		c2.2,0.7,4.5,1.2,6.8,1.5c2.9,0.5,5.5,1,8,1.7c2.2,0.5,4.3,1.4,6.2,2.5c1.7,1,3.1,2.4,4.1,4.1C411.6,340,412.1,342.2,412,344.4z"/>
	<path id="Path_6966" class="st1" d="M453.3,303.3h2.9l4.3,17.3l-3.7,1.1c-2.1-4.6-5.4-8.5-9.4-11.4c-3.1-2.3-6.9-3.5-10.7-3.5
		c-2.2,0-4.3,0.4-6.3,1.3c-1.7,0.7-3.1,1.8-4.2,3.3c-0.9,1.2-1.3,2.6-1.4,4c0,1.3,0.4,2.6,1.1,3.6c0.8,1.3,2,2.3,3.3,3.1
		c2.3,1.2,4.7,2.2,7.2,2.8l10.5,3.1c1.9,0.6,3.8,1.3,5.6,2.2c2.1,0.8,4,2,5.7,3.4c1.4,1.2,2.5,2.7,3.2,4.4c0.8,1.8,1.2,3.7,1.2,5.6
		c0,4.4-1.9,8.3-5.8,11.7c-3.9,3.3-8.9,5-15.1,5c-2.9,0-5.8-0.4-8.5-1.4c-3-1.2-5.7-2.8-8.1-4.9l-1.8,5.4h-2.8l-3.7-20.1l3.7-0.8
		c1.2,3.5,3.1,6.7,5.4,9.5c2.1,2.4,4.6,4.4,7.5,5.9c2.6,1.3,5.5,2,8.4,2c3.7,0.1,7.3-1.2,10.1-3.5c2.2-1.6,3.5-4.2,3.6-6.9
		c0.1-2.3-0.9-4.5-2.6-6c-1.8-1.6-4.9-3-9.5-4.3l-10-2.9c-5.6-1.6-9.6-3.7-11.9-6.2c-2.2-2.4-3.4-5.5-3.4-8.8c0-2.6,0.8-5,2.2-7.1
		c1.8-2.4,4.2-4.3,6.9-5.5c3.2-1.5,6.7-2.2,10.2-2.2c3,0,6.1,0.5,8.9,1.6c2,0.8,3.9,1.8,5.5,3.2L453.3,303.3z"/>
	<path id="Path_6967" class="st1" d="M504.6,348.9l2.6,2.1c-1.7,2.1-3.6,3.9-5.7,5.5c-1.6,1.2-3.3,2.2-5.2,2.9
		c-1.9,0.6-3.8,0.9-5.7,0.8c-3.5,0.1-7-0.7-10-2.4c-3-1.7-5.5-4.2-7.3-7.2c-1.7-3.2-2.6-6.9-2.5-10.5c-0.1-3.8,0.7-7.5,2.4-10.8
		c1.6-2.9,4-5.4,6.8-7.1c3.1-1.8,6.6-2.7,10.2-2.6c2.6-0.1,5.1,0.4,7.5,1.3c2.1,0.9,3.9,2.3,5.4,4c1.5,1.8,2.6,3.9,3.2,6.2
		c0.4,1.7,0.6,3.5,0.6,5.3h-28.4c-0.1,1.3-0.1,2.3-0.1,2.9c-0.1,3.1,0.6,6.2,1.8,9c0.9,2.4,2.6,4.4,4.7,5.8c2,1.3,4.3,1.9,6.6,1.9
		c2.1,0,4.2-0.5,6.1-1.5C500.2,353.1,502.6,351.2,504.6,348.9z M499.5,332.7c-0.2-1.9-0.8-3.8-1.7-5.5c-0.8-1.2-1.9-2.2-3.1-2.8
		c-1.4-0.7-3-1.1-4.6-1c-1.6,0-3.3,0.3-4.7,1c-1.4,0.7-2.7,1.7-3.7,2.9c-1.2,1.6-2,3.4-2.6,5.4L499.5,332.7z"/>
	<path id="Path_6968" class="st1" d="M514.4,326.3v-3.3c1.8-0.2,3.6-0.5,5.4-1c1.8-0.6,3.5-1.5,5.1-2.4h2.9v7.6c2.7-2.4,5.8-4.5,9-6
		c2.4-1,5-1.6,7.6-1.6c2,0,4,0.3,5.8,1.1c1.6,0.7,3,1.7,4.1,3c1,1.2,1.8,2.7,2.1,4.3c0.3,1.5,0.4,3,0.3,4.5v17.7
		c-0.1,1.4,0.1,2.8,0.5,4.1c0.3,0.6,0.8,1.1,1.5,1.3c1.6,0.4,3.3,0.5,4.9,0.4v3.4h-20.6v-3.3h1.1c1.3,0.1,2.7-0.1,3.9-0.5
		c0.7-0.3,1.2-0.9,1.5-1.5c0.4-1.3,0.6-2.7,0.5-4.1V335c0.1-2.1-0.1-4.3-0.7-6.3c-0.5-1.2-1.4-2.2-2.5-2.9c-1.4-0.8-2.9-1.2-4.5-1.1
		c-2.4,0.1-4.8,0.6-6.9,1.7c-2.6,1.2-5,2.9-7.1,4.9v18.5c-0.1,1.4,0.1,2.8,0.5,4.2c0.3,0.7,0.8,1.2,1.5,1.5c1.2,0.4,2.6,0.5,3.9,0.4
		h1.2v3.4h-20.7v-3.3h1c1.4,0.1,2.8-0.1,4.1-0.5c0.7-0.4,1.3-1,1.5-1.8c0.2-1.5,0.3-2.9,0.3-4.4v-22.9H514.4z"/>
	<path id="Path_6969" class="st1" d="M569.6,326.3v-3.3c1.9-0.2,3.8-0.6,5.6-1.1c1.8-0.6,3.5-1.3,5.2-2.3h2.9v32.2
		c-0.1,0.9,0.1,1.7,0.5,2.5c0.3,0.5,0.8,1,1.3,1.2c1,0.3,2.1,0.4,3.1,0.4h1.9v3.4h-20.5v-3.4h1.6c1.2,0.1,2.4-0.1,3.6-0.5
		c0.6-0.3,1-0.8,1.3-1.4c0.3-1.3,0.5-2.7,0.4-4.1v-23.6H569.6z M579.8,301.5c1.2,0,2.4,0.5,3.3,1.3c0.9,0.9,1.4,2,1.4,3.3
		c0,2.6-2.1,4.7-4.7,4.7c-2.6,0-4.7-2.1-4.7-4.7c0-1.2,0.5-2.4,1.4-3.3C577.4,301.9,578.5,301.5,579.8,301.5z"/>
	<path id="Path_6970" class="st1" d="M616.1,319.6c3.6-0.1,7.1,0.8,10.2,2.4c2.9,1.7,5.3,4.1,6.8,7.1c1.7,3.3,2.6,7,2.5,10.7
		c0.1,3.7-0.8,7.4-2.6,10.7c-1.6,3-4,5.5-6.9,7.1c-3.2,1.7-6.8,2.6-10.5,2.5c-6.5,0-11.3-2-14.6-6.1c-3.3-4-5-9.1-4.9-14.3
		c-0.1-3.7,0.8-7.3,2.5-10.6c1.6-3,4.1-5.5,7.1-7.2C608.9,320.3,612.5,319.5,616.1,319.6L616.1,319.6z M615.7,323.5
		c-3,0-5.8,1.3-7.7,3.6c-2.7,3-4,7.3-4,13.1c0,5.5,1.1,9.7,3.4,12.6c2,2.6,5.1,4,8.4,3.9c2.2,0,4.3-0.6,6.1-1.8
		c2-1.5,3.5-3.5,4.3-5.8c1.2-3,1.7-6.1,1.6-9.3c0-3.2-0.6-6.4-1.8-9.3C624.4,326.2,620.3,323.4,615.7,323.5L615.7,323.5z"/>
	<path id="Path_6971" class="st1" d="M643.1,326.3v-3.3c1.8-0.1,3.5-0.5,5.2-1c1.8-0.6,3.6-1.4,5.2-2.4h3v7.6
		c1.8-2.3,4.1-4.1,6.6-5.5c2.1-1.2,4.4-1.9,6.8-2c1.7-0.1,3.3,0.4,4.7,1.4c1.1,0.8,1.7,2.1,1.7,3.4c0,1-0.4,1.9-1.1,2.5
		c-0.7,0.7-1.7,1.1-2.7,1.1c-0.4,0-0.8-0.1-1.2-0.2c-0.5-0.2-1-0.5-1.5-0.9c-1.1-0.8-2.4-1.3-3.7-1.4c-1.6,0.1-3.2,0.7-4.4,1.7
		c-1.8,1.2-3.4,2.7-4.8,4.3v18.5c0,1.1,0,2.2,0.3,3.3c0.2,0.6,0.5,1.1,0.9,1.5c0.4,0.4,0.9,0.7,1.5,0.9c1,0.2,2,0.3,3.1,0.3h1.3v3.4
		h-20.7v-3.4h1.7c1.1,0.1,2.2-0.1,3.2-0.4c0.7-0.4,1.2-1,1.5-1.7c0.4-1.2,0.6-2.5,0.5-3.8v-23.7H643.1z"/>
	<path id="Path_6972" class="st1" d="M484,370.3c0,0,5.1,85.3,95,99.1c0,0,51.9,6.7,86.3-26.7c0,0,33.9-26.2,37-73.4
		c0,0,2.1,52.4-38,84.2c0,0-32.9,32.4-86.8,25.7c0,0-49.8-3.6-81.7-57.5C495.8,421.7,484.5,404.7,484,370.3z"/>
	<path id="Path_6973" class="st1" d="M528.6,460.6c0,0,65,55.4,137.3,0.2c0,0,40.8-32.8,40.5-80.7c0,0,4.6-42.6-27.3-77.6
		c0,0,39.2,34.8,34.4,85.8c0,0,0.6,46.1-41.6,80.4c0,0-37.1,33.4-98.1,19C573.8,487.7,553.8,484.1,528.6,460.6z"/>
	<path id="Path_6974" class="st1" d="M611.7,493.5c0,0,85.4,2.7,107.3-85.6c0,0,11.4-51.1-18.7-88.4c0,0-23-36.1-69.8-43.5
		c0,0,52.4,2.7,80.4,45.5c0,0,29.2,35.7,17.7,88.8c0,0-8.1,49.3-64.7,76.1C664,486.4,646.1,496.1,611.7,493.5z"/>
	<circle id="Ellipse_268" class="st1" cx="593.4" cy="436.6" r="28.8"/>
	<path id="Path_6975" class="st1" d="M95.7,370.6h11.9v2h-9.8v6.5h9.7v2h-9.7v8.1h9.7v2H95.7V370.6z"/>
	<path id="Path_6976" class="st1" d="M109.1,376h2.4l4.1,5.6l4-5.6h2.4l-5.2,7.2l5.9,8h-2.4l-4.6-6.4l-4.6,6.4h-2.3l5.8-8L109.1,376
		z"/>
	<path id="Path_6977" class="st1" d="M124.6,376h2v2.8c0.7-1,1.6-1.8,2.7-2.4c1-0.5,2.2-0.8,3.4-0.8c2.1,0,4.1,0.8,5.6,2.3
		c1.5,1.5,2.3,3.5,2.3,5.6c0.1,2.1-0.8,4.2-2.3,5.7c-2.3,2.4-5.9,3.1-8.9,1.6c-1.1-0.5-2-1.3-2.8-2.3v8.2h-2L124.6,376z
		 M132.5,377.5c-1.6,0-3.2,0.6-4.3,1.8c-1.2,1.2-1.8,2.8-1.8,4.5c0,1.1,0.2,2.2,0.8,3.1c0.5,0.9,1.3,1.7,2.2,2.2
		c0.9,0.5,2,0.8,3.1,0.8c1,0,2.1-0.3,3-0.8c0.9-0.6,1.7-1.3,2.2-2.3c1.1-1.9,1.1-4.3,0-6.2C136.6,378.7,134.6,377.5,132.5,377.5
		L132.5,377.5z"/>
	<path id="Path_6978" class="st1" d="M157.1,386.2l1.7,0.9c-0.5,1-1.1,1.8-1.9,2.6c-0.7,0.6-1.5,1.2-2.4,1.5c-1,0.4-2,0.5-3,0.5
		c-2.2,0.1-4.4-0.8-5.8-2.5c-1.4-1.5-2.1-3.5-2.1-5.5c0-1.9,0.6-3.7,1.8-5.2c1.4-1.9,3.7-3,6.1-2.9c2.4-0.1,4.8,1,6.2,3
		c1.1,1.5,1.7,3.3,1.7,5.2h-13.7c0,1.6,0.6,3.2,1.7,4.4c1.1,1.1,2.5,1.7,4.1,1.7c0.8,0,1.5-0.1,2.3-0.4c0.7-0.2,1.3-0.6,1.9-1.1
		C156.1,387.8,156.6,387,157.1,386.2L157.1,386.2z M157.1,382.1c-0.2-0.9-0.6-1.8-1.1-2.5c-0.5-0.7-1.2-1.2-2-1.5
		c-0.8-0.4-1.7-0.6-2.6-0.6c-1.4,0-2.8,0.5-3.9,1.4c-0.9,0.9-1.5,2-1.8,3.2L157.1,382.1z"/>
	<path id="Path_6979" class="st1" d="M162.1,376h2v2.2c0.5-0.8,1.1-1.4,1.9-2c0.6-0.4,1.3-0.6,2.1-0.7c0.6,0,1.2,0.2,1.8,0.5
		l-1.1,1.7c-0.3-0.2-0.7-0.2-1-0.3c-0.7,0-1.4,0.3-1.9,0.8c-0.7,0.7-1.2,1.6-1.4,2.5c-0.3,1.7-0.4,3.5-0.4,5.3v5.2h-2L162.1,376z"/>
	<path id="Path_6980" class="st1" d="M172.2,369.7c0.9,0,1.6,0.7,1.6,1.6c0,0.9-0.7,1.6-1.6,1.6c-0.9,0-1.6-0.7-1.6-1.6
		c0-0.4,0.2-0.8,0.5-1.2C171.4,369.9,171.8,369.7,172.2,369.7z M171.2,376h2v15.3h-2V376z"/>
	<path id="Path_6981" class="st1" d="M190.1,386.2l1.7,0.9c-0.5,1-1.1,1.8-1.9,2.6c-0.7,0.6-1.5,1.2-2.4,1.5c-1,0.4-2,0.5-3,0.5
		c-2.2,0.1-4.4-0.8-5.8-2.5c-1.4-1.5-2.1-3.5-2.1-5.5c0-1.9,0.6-3.7,1.8-5.2c1.4-1.9,3.7-3,6.1-2.9c2.4-0.1,4.8,1,6.2,3
		c1.1,1.5,1.7,3.3,1.7,5.2h-13.8c0,1.6,0.6,3.2,1.7,4.4c1.1,1.1,2.5,1.7,4.1,1.7c0.8,0,1.5-0.1,2.3-0.4c0.7-0.2,1.3-0.6,1.9-1.1
		C189.1,387.8,189.7,387,190.1,386.2z M190.1,382.1c-0.2-0.9-0.6-1.8-1.1-2.5c-0.5-0.7-1.2-1.2-2-1.5c-0.8-0.4-1.7-0.6-2.6-0.6
		c-1.4,0-2.8,0.5-3.9,1.4c-0.9,0.9-1.5,2-1.8,3.2L190.1,382.1z"/>
	<path id="Path_6982" class="st1" d="M196,376h2v2.7c0.7-1,1.6-1.8,2.6-2.4c1-0.5,2-0.8,3.1-0.8c1.1,0,2.1,0.3,3,0.9
		c0.9,0.6,1.6,1.4,2,2.3c0.5,1.5,0.7,3,0.6,4.6v7.9h-2V384c0-1.2,0-2.4-0.2-3.5c-0.2-0.9-0.6-1.7-1.3-2.3c-0.7-0.5-1.6-0.8-2.5-0.8
		c-1.2,0-2.3,0.4-3.2,1.2c-0.9,0.7-1.6,1.8-1.9,2.9c-0.2,1.4-0.3,2.8-0.3,4.2v5.6h-2V376z"/>
	<path id="Path_6983" class="st1" d="M228.3,379.2l-1.6,1c-1.3-1.8-3.3-2.8-5.5-2.7c-1.7-0.1-3.4,0.6-4.6,1.8
		c-1.2,1.1-1.9,2.7-1.8,4.4c0,1.1,0.3,2.2,0.9,3.1c0.5,1,1.4,1.8,2.3,2.3c3,1.6,6.7,0.8,8.8-1.9l1.6,1c-0.7,1.1-1.8,2-2.9,2.6
		c-1.3,0.6-2.8,0.9-4.2,0.9c-2.2,0.1-4.4-0.8-6-2.3c-1.6-1.4-2.4-3.5-2.4-5.6c0-1.4,0.4-2.9,1.1-4.1c0.7-1.3,1.8-2.3,3.1-3
		c1.3-0.7,2.8-1.1,4.4-1.1c1,0,2,0.2,2.9,0.5c0.9,0.3,1.7,0.7,2.4,1.2C227.4,377.8,227.9,378.5,228.3,379.2z"/>
	<path id="Path_6984" class="st1" d="M232.8,369.7c0.9,0,1.6,0.7,1.6,1.6c0,0.9-0.7,1.6-1.6,1.6s-1.6-0.7-1.6-1.6
		c0-0.4,0.2-0.8,0.5-1.2C231.9,369.9,232.3,369.7,232.8,369.7z M231.8,376h2v15.3h-2V376z"/>
	<path id="Path_6985" class="st1" d="M253.1,376v15.3h-1.9v-2.6c-0.8,0.9-1.7,1.7-2.8,2.3c-3,1.4-6.6,0.8-8.9-1.6
		c-1.5-1.5-2.3-3.6-2.3-5.7c0-2.1,0.8-4.2,2.3-5.6c1.5-1.5,3.5-2.4,5.6-2.3c1.2,0,2.4,0.3,3.4,0.8c1.1,0.6,2,1.4,2.7,2.4V376
		L253.1,376z M245.2,377.5c-2.2,0-4.2,1.2-5.2,3.1c-1.1,1.9-1.1,4.3,0,6.2c0.5,1,1.3,1.7,2.2,2.3c0.9,0.5,1.9,0.8,3,0.8
		c1.1,0,2.1-0.3,3.1-0.8c0.9-0.5,1.7-1.3,2.2-2.2c0.5-1,0.8-2,0.8-3.1c0-1.7-0.6-3.3-1.8-4.5C248.3,378.1,246.8,377.5,245.2,377.5
		L245.2,377.5z"/>
	<path id="Path_6986" class="st1" d="M278.3,386.2l1.7,0.9c-0.5,1-1.1,1.8-1.9,2.6c-0.7,0.6-1.5,1.2-2.4,1.5c-1,0.4-2,0.5-3,0.5
		c-2.2,0.1-4.4-0.8-5.8-2.5c-1.4-1.5-2.1-3.5-2.1-5.5c0-1.9,0.6-3.7,1.8-5.2c1.4-1.9,3.7-3,6.1-2.9c2.4-0.1,4.8,1,6.2,3
		c1.1,1.5,1.7,3.3,1.7,5.2h-13.7c0,1.6,0.6,3.2,1.7,4.4c1.1,1.1,2.5,1.7,4.1,1.7c0.8,0,1.5-0.1,2.3-0.4c0.7-0.2,1.3-0.6,1.9-1.1
		C277.3,387.8,277.8,387,278.3,386.2L278.3,386.2z M278.3,382.1c-0.2-0.9-0.6-1.8-1.1-2.5c-0.5-0.7-1.2-1.2-2-1.5
		c-0.8-0.4-1.7-0.6-2.6-0.6c-1.4,0-2.8,0.5-3.9,1.4c-0.9,0.9-1.5,2-1.8,3.2L278.3,382.1z"/>
	<path id="Path_6987" class="st1" d="M284.1,376h2v2.7c0.6-0.8,1.3-1.6,2.1-2.1c0.9-0.6,2-0.9,3.1-0.9c0.7,0,1.4,0.1,2.1,0.4
		c0.6,0.3,1.2,0.7,1.6,1.2c0.5,0.6,0.9,1.3,1.1,2.1c0.6-1.1,1.4-2,2.5-2.7c0.9-0.6,2-0.9,3.2-0.9c1,0,2,0.3,2.8,0.8
		c0.8,0.5,1.4,1.3,1.8,2.2c0.5,1.4,0.7,2.8,0.6,4.3v8.3h-2V383c0.1-1.1-0.1-2.3-0.3-3.4c-0.2-0.6-0.6-1.1-1.2-1.5
		c-0.6-0.4-1.3-0.6-2-0.6c-0.9,0-1.8,0.3-2.6,0.8c-0.8,0.6-1.4,1.3-1.7,2.2c-0.4,1.5-0.6,3.1-0.5,4.7v6h-2v-7.8
		c0.1-1.3-0.1-2.5-0.3-3.8c-0.2-0.6-0.6-1.2-1.2-1.6c-0.6-0.4-1.3-0.6-2-0.6c-0.9,0-1.8,0.3-2.6,0.8c-0.8,0.5-1.4,1.3-1.8,2.2
		c-0.4,1.4-0.6,2.8-0.6,4.3v6.5h-2L284.1,376z"/>
	<path id="Path_6988" class="st1" d="M311.1,376h2v2.8c0.7-1,1.6-1.8,2.7-2.4c1-0.5,2.2-0.8,3.4-0.8c2.1,0,4.1,0.8,5.6,2.3
		c1.5,1.5,2.3,3.5,2.3,5.6c0,2.1-0.8,4.2-2.3,5.7c-2.3,2.4-5.9,3.1-8.9,1.6c-1.1-0.5-2-1.3-2.8-2.3v8.2h-2L311.1,376z M319,377.5
		c-1.6,0-3.2,0.6-4.3,1.8c-1.2,1.2-1.8,2.8-1.8,4.5c0,1.1,0.2,2.2,0.8,3.1c0.5,0.9,1.3,1.7,2.2,2.2c0.9,0.5,2,0.8,3.1,0.8
		c1,0,2.1-0.3,3-0.8c0.9-0.6,1.7-1.3,2.2-2.3c1.1-1.9,1.1-4.3,0-6.2C323.1,378.7,321.1,377.5,319,377.5L319,377.5z"/>
	<path id="Path_6989" class="st1" d="M329.9,376h2v2.2c0.5-0.8,1.1-1.4,1.9-2c0.6-0.4,1.3-0.6,2.1-0.7c0.6,0,1.2,0.2,1.8,0.5l-1,1.7
		c-0.3-0.2-0.7-0.2-1-0.3c-0.7,0-1.4,0.3-1.9,0.8c-0.7,0.7-1.2,1.6-1.4,2.5c-0.3,1.7-0.4,3.5-0.4,5.3v5.2h-2L329.9,376z"/>
	<path id="Path_6990" class="st1" d="M352.1,386.2l1.7,0.9c-0.5,1-1.1,1.8-1.9,2.6c-0.7,0.6-1.5,1.2-2.4,1.5c-1,0.4-2,0.5-3,0.5
		c-2.2,0.1-4.4-0.8-5.8-2.5c-1.4-1.5-2.1-3.5-2.1-5.5c0-1.9,0.6-3.7,1.8-5.2c1.4-1.9,3.7-3,6.1-2.9c2.4-0.1,4.8,1,6.2,3
		c1.1,1.5,1.7,3.3,1.7,5.2h-13.7c0,1.6,0.6,3.2,1.7,4.4c1.1,1.1,2.5,1.7,4.1,1.7c0.8,0,1.5-0.1,2.3-0.4c0.7-0.2,1.3-0.6,1.9-1.1
		C351.1,387.8,351.6,387,352.1,386.2L352.1,386.2z M352.1,382.1c-0.2-0.9-0.6-1.8-1.1-2.5c-0.5-0.7-1.2-1.2-2-1.5
		c-0.8-0.4-1.7-0.6-2.6-0.6c-1.4,0-2.8,0.5-3.9,1.4c-0.9,0.9-1.5,2-1.8,3.2L352.1,382.1z"/>
	<path id="Path_6991" class="st1" d="M357.9,376h2v2.7c0.7-1,1.6-1.8,2.6-2.4c1-0.5,2-0.8,3.1-0.8c1.1,0,2.1,0.3,3,0.9
		c0.9,0.6,1.6,1.4,2,2.3c0.5,1.5,0.7,3,0.6,4.6v7.9h-2V384c0-1.2,0-2.4-0.2-3.5c-0.2-0.9-0.6-1.7-1.3-2.3c-0.7-0.5-1.6-0.8-2.5-0.8
		c-1.2,0-2.3,0.4-3.2,1.2c-0.9,0.7-1.6,1.8-1.9,2.9c-0.2,1.4-0.3,2.8-0.3,4.2v5.6h-2L357.9,376z"/>
	<path id="Path_6992" class="st1" d="M390.6,370.1v21.2h-1.9v-2.6c-0.8,0.9-1.7,1.7-2.8,2.3c-3,1.4-6.6,0.8-8.9-1.6
		c-1.5-1.5-2.3-3.6-2.3-5.7c0-2.1,0.8-4.2,2.3-5.6c1.5-1.5,3.5-2.4,5.6-2.3c1.2,0,2.4,0.3,3.4,0.8c1.1,0.6,2,1.4,2.7,2.4v-8.7H390.6
		z M382.8,377.5c-2.2,0-4.2,1.2-5.2,3.1c-1.1,1.9-1.1,4.3,0,6.2c0.5,1,1.3,1.7,2.2,2.3c0.9,0.5,1.9,0.8,3,0.8c1.1,0,2.1-0.3,3.1-0.8
		c0.9-0.5,1.7-1.3,2.2-2.2c0.5-1,0.8-2,0.8-3.1c0-1.7-0.6-3.3-1.8-4.5C385.9,378.1,384.4,377.5,382.8,377.5L382.8,377.5z"/>
	<path id="Path_6993" class="st1" d="M408,386.2l1.7,0.9c-0.5,1-1.1,1.8-1.9,2.6c-0.7,0.6-1.5,1.2-2.4,1.5c-1,0.4-2,0.5-3,0.5
		c-2.2,0.1-4.4-0.8-5.8-2.5c-1.4-1.5-2.1-3.5-2.1-5.5c0-1.9,0.6-3.7,1.8-5.2c1.4-1.9,3.7-3,6.1-2.9c2.4-0.1,4.8,1,6.2,3
		c1.1,1.5,1.7,3.3,1.7,5.2h-13.7c0,1.6,0.6,3.2,1.7,4.4c1.1,1.1,2.5,1.7,4.1,1.7c0.8,0,1.5-0.1,2.3-0.4c0.7-0.2,1.3-0.6,1.9-1.1
		C407,387.8,407.5,387,408,386.2z M408,382.1c-0.2-0.9-0.6-1.8-1.1-2.5c-0.5-0.7-1.2-1.2-2-1.5c-0.8-0.4-1.7-0.6-2.6-0.6
		c-1.4,0-2.8,0.5-3.9,1.4c-0.9,0.9-1.5,2-1.8,3.2L408,382.1z"/>
	<path id="Path_6994" class="st1" d="M429,370.1v21.2h-1.9v-2.6c-0.8,0.9-1.7,1.7-2.8,2.3c-3,1.4-6.6,0.8-8.9-1.6
		c-1.5-1.5-2.3-3.6-2.3-5.7c0-2.1,0.8-4.2,2.3-5.6c1.5-1.5,3.5-2.4,5.6-2.3c1.2,0,2.4,0.3,3.4,0.8c1.1,0.6,2,1.4,2.7,2.4v-8.7H429z
		 M421.2,377.5c-2.2,0-4.2,1.2-5.2,3.1c-1.1,1.9-1.1,4.3,0,6.2c0.5,1,1.3,1.7,2.2,2.3c0.9,0.5,1.9,0.8,3,0.8c1.1,0,2.1-0.3,3.1-0.8
		c0.9-0.5,1.7-1.3,2.2-2.2c0.5-1,0.8-2,0.8-3.1c0-1.7-0.6-3.3-1.8-4.5C424.3,378.1,422.8,377.5,421.2,377.5L421.2,377.5z"/>
	<path id="Path_6995" class="st1" d="M440.7,375.6c2.2-0.1,4.4,0.9,5.9,2.6c2.9,3.2,2.8,8-0.1,11.1c-3.1,3.2-8.2,3.2-11.4,0.1
		c0,0,0,0-0.1-0.1c-2.9-3.1-3-7.9-0.1-11.1C436.3,376.5,438.5,375.6,440.7,375.6z M440.7,377.6c-1.6,0-3.1,0.6-4.2,1.8
		c-1.2,1.2-1.8,2.7-1.8,4.4c0,1.1,0.3,2.1,0.8,3.1c0.5,0.9,1.3,1.7,2.2,2.2c1.9,1,4.1,1,6,0c0.9-0.5,1.7-1.3,2.2-2.2
		c0.5-0.9,0.8-2,0.8-3.1c0-1.6-0.6-3.2-1.8-4.4C443.8,378.2,442.3,377.5,440.7,377.6L440.7,377.6z"/>
	<path id="Path_6996" class="st1" d="M451.5,376h2v2.2c0.5-0.8,1.1-1.4,1.9-2c0.6-0.4,1.3-0.6,2.1-0.7c0.6,0,1.2,0.2,1.8,0.5l-1,1.7
		c-0.3-0.2-0.7-0.2-1-0.3c-0.7,0-1.4,0.3-1.9,0.8c-0.7,0.7-1.2,1.6-1.4,2.5c-0.3,1.7-0.4,3.5-0.4,5.3v5.2h-2L451.5,376z"/>
	<path id="Path_6997" class="st1" d="M476.2,376v15.3h-1.9v-2.6c-0.8,0.9-1.7,1.7-2.8,2.3c-3,1.4-6.6,0.8-8.9-1.6
		c-1.5-1.5-2.3-3.6-2.3-5.7c0-2.1,0.8-4.2,2.3-5.6c1.5-1.5,3.5-2.4,5.6-2.3c1.2,0,2.4,0.3,3.4,0.8c1.1,0.6,2,1.4,2.7,2.4V376
		L476.2,376z M468.3,377.5c-2.2,0-4.2,1.2-5.2,3.1c-1.1,1.9-1.1,4.3,0,6.2c0.5,1,1.3,1.7,2.2,2.3c0.9,0.5,1.9,0.8,3,0.8
		c1.1,0,2.1-0.3,3.1-0.8c0.9-0.5,1.7-1.3,2.2-2.2c0.5-1,0.8-2,0.8-3.1c0-1.7-0.6-3.3-1.8-4.5C471.4,378.1,469.9,377.5,468.3,377.5
		L468.3,377.5z"/>
</g>
</svg>
