<svg xmlns="http://www.w3.org/2000/svg" xmlns:xlink="http://www.w3.org/1999/xlink" viewBox="9769 2421 770 770">
  <defs>
    <style>
      .cls-1 {
        clip-path: url(#clip-Business-Senior-Project);
      }

      .cls-2 {
        fill: #282561;
      }

      .cls-3 {
        fill: #26a9e1;
      }

      .cls-4 {
        fill: #673090;
      }

      .cls-5 {
        fill: #1377bc;
      }

      .cls-6 {
        fill: #fafafa;
      }
    </style>
    <clipPath id="clip-Business-Senior-Project">
      <rect x="9769" y="2421" width="770" height="770"/>
    </clipPath>
  </defs>
  <g id="Business-Senior-Project" class="cls-1">
    <rect class="cls-6" x="9769" y="2421" width="770" height="770"/>
    <g id="Logo" transform="translate(9839.95 2707.294)">
      <g id="Layer_1" data-name="Layer 1" transform="translate(0 -0.03)">
        <path id="Path_6958" data-name="Path 6958" class="cls-2" d="M45.635,62.881A18.531,18.531,0,0,1,44.4,69.819a14.337,14.337,0,0,1-3.57,5.254,16.191,16.191,0,0,1-5.667,3.368,21.915,21.915,0,0,1-7.424,1.166H0V22.67H26.262q8.622,0,12.888,4.1t4.266,11.334a13.714,13.714,0,0,1-1.473,6.477,13.342,13.342,0,0,1-4.1,4.72A13.981,13.981,0,0,1,43.587,54.6a15.884,15.884,0,0,1,2.048,8.282ZM10.824,32.514V45.071H26.262a6.833,6.833,0,0,0,4.72-1.724,5.861,5.861,0,0,0,1.927-4.6,6,6,0,0,0-1.765-4.558,6.792,6.792,0,0,0-4.857-1.684Zm23.72,29.954a7.019,7.019,0,0,0-2.162-5.529q-2.178-1.927-6.363-1.927H10.832V69.7h15.43a13.956,13.956,0,0,0,3.036-.332,7.14,7.14,0,0,0,2.663-1.19,6.2,6.2,0,0,0,1.886-2.218,7.618,7.618,0,0,0,.7-3.481Z" transform="translate(0 -4.293)"/>
        <path id="Path_6959" data-name="Path 6959" class="cls-2" d="M102.946,83.061H92.6V79.224a13.86,13.86,0,0,1-4.679,3.57,14.127,14.127,0,0,1-6.072,1.271,16.839,16.839,0,0,1-6.857-1.352,15.171,15.171,0,0,1-5.254-3.773,16.944,16.944,0,0,1-3.368-5.829,22.886,22.886,0,0,1-1.19-7.594V40.81H76.02V65.518a13.762,13.762,0,0,0,.243,2.3,7.95,7.95,0,0,0,1.069,2.753,6.849,6.849,0,0,0,2.38,2.3,8.031,8.031,0,0,0,4.185.947,7.82,7.82,0,0,0,5.95-2.38,8.258,8.258,0,0,0,2.259-5.91V40.81h10.832Z" transform="translate(-12.412 -7.747)"/>
        <path id="Path_6960" data-name="Path 6960" class="cls-2" d="M159.042,69.539a12.143,12.143,0,0,1-1.384,5.748,13.763,13.763,0,0,1-3.829,4.517,18.5,18.5,0,0,1-5.837,2.955,24.635,24.635,0,0,1-7.416,1.069,26.926,26.926,0,0,1-6.938-.858,20.077,20.077,0,0,1-5.788-2.5,16.612,16.612,0,0,1-4.307-3.983,15.616,15.616,0,0,1-2.583-5.295L131.63,69.3a6.2,6.2,0,0,0,1.619,2.218,8.476,8.476,0,0,0,2.259,1.433,11.706,11.706,0,0,0,2.583.81,14.03,14.03,0,0,0,2.5.243,13.763,13.763,0,0,0,5.456-.947,3.04,3.04,0,0,0,2.178-2.833,3.465,3.465,0,0,0-.332-1.562,2.785,2.785,0,0,0-1.311-1.15,14.459,14.459,0,0,0-2.712-.947,43.973,43.973,0,0,0-4.517-.866q-2.874-.413-5.95-1.109a22.813,22.813,0,0,1-5.667-2.089,12.71,12.71,0,0,1-4.307-3.651,9.423,9.423,0,0,1-1.684-5.788,11.917,11.917,0,0,1,1.109-4.922,12.354,12.354,0,0,1,3.327-4.347,17.47,17.47,0,0,1,5.618-3.076,24.287,24.287,0,0,1,8-1.19,20.774,20.774,0,0,1,11.407,3.036,14.839,14.839,0,0,1,6.4,8.209l-10.832,1.805a5.019,5.019,0,0,0-2.34-2.38,9.488,9.488,0,0,0-4.639-.988q-3.773,0-5.416,1.109t-1.619,2.259q0,1.619,2.21,2.38a42.292,42.292,0,0,0,6.137,1.392q3.926.656,7.238,1.522a21.364,21.364,0,0,1,5.667,2.3,10.719,10.719,0,0,1,3.724,3.692,10.962,10.962,0,0,1,1.3,5.675Z" transform="translate(-23.035 -7.502)"/>
        <path id="Path_6961" data-name="Path 6961" class="cls-2" d="M182.9,33.9a5.662,5.662,0,0,1-3.959-9.626,5.311,5.311,0,0,1,3.943-1.684,5.748,5.748,0,0,1,5.748,5.748,5.311,5.311,0,0,1-1.684,3.943A5.6,5.6,0,0,1,182.9,33.9Zm5.5,45.692H177.563V37.34h10.832Z" transform="translate(-33.767 -4.278)"/>
        <path id="Path_6962" data-name="Path 6962" class="cls-2" d="M241.228,82.811H230.4V58.128a14.465,14.465,0,0,0-.243-2.34,8.444,8.444,0,0,0-1.028-2.793,6.525,6.525,0,0,0-2.34-2.3,8.233,8.233,0,0,0-4.266-.939,7.82,7.82,0,0,0-5.95,2.38,8.363,8.363,0,0,0-2.259,5.991V82.811H203.47V40.56h10.338v4.1a15.8,15.8,0,0,1,4.76-3.773,13.253,13.253,0,0,1,6.153-1.392,16.628,16.628,0,0,1,6.768,1.352,14.8,14.8,0,0,1,5.214,3.773,17.317,17.317,0,0,1,3.327,5.869,23.291,23.291,0,0,1,1.19,7.634Z" transform="translate(-38.747 -7.497)"/>
        <path id="Path_6963" data-name="Path 6963" class="cls-2" d="M298.161,75.448l-.413.575a18.887,18.887,0,0,1-7.14,5.748,23.226,23.226,0,0,1-10.014,2.056,20.66,20.66,0,0,1-8.371-1.724,21.915,21.915,0,0,1-6.9-4.72,22.5,22.5,0,0,1-4.679-7.019,21.639,21.639,0,0,1-1.716-8.6,21.94,21.94,0,0,1,1.724-8.662,22.231,22.231,0,0,1,11.569-11.82,20.239,20.239,0,0,1,8.371-1.765,22.3,22.3,0,0,1,8.824,1.765,19.309,19.309,0,0,1,7.1,5.173,22.3,22.3,0,0,1,4.428,8.33,29.362,29.362,0,0,1,.947,11.14h-31.97a11.285,11.285,0,0,0,3.9,6.153,10.524,10.524,0,0,0,6.687,2.218,12.143,12.143,0,0,0,4.72-.947,7.958,7.958,0,0,0,3.651-3.076ZM291.1,57.063a10.605,10.605,0,0,0-3.781-5.869,10.792,10.792,0,0,0-6.768-2.178,10.249,10.249,0,0,0-6.477,2.178,11.568,11.568,0,0,0-3.943,5.869Z" transform="translate(-49.309 -7.502)"/>
        <path id="Path_6964" data-name="Path 6964" class="cls-2" d="M356.322,69.539a12.143,12.143,0,0,1-1.384,5.748,13.763,13.763,0,0,1-3.829,4.517,18.5,18.5,0,0,1-5.837,2.955,24.636,24.636,0,0,1-7.416,1.069,26.926,26.926,0,0,1-6.938-.858,20.078,20.078,0,0,1-5.788-2.5,16.612,16.612,0,0,1-4.307-3.983,15.616,15.616,0,0,1-2.583-5.295L328.91,69.3a6.2,6.2,0,0,0,1.619,2.218,8.477,8.477,0,0,0,2.259,1.433,11.707,11.707,0,0,0,2.583.81,14.03,14.03,0,0,0,2.5.243,13.763,13.763,0,0,0,5.457-.947,3.04,3.04,0,0,0,2.178-2.833,3.465,3.465,0,0,0-.332-1.562,2.785,2.785,0,0,0-1.311-1.15,14.459,14.459,0,0,0-2.712-.947,43.978,43.978,0,0,0-4.517-.866q-2.874-.413-5.95-1.109a22.814,22.814,0,0,1-5.667-2.089,12.71,12.71,0,0,1-4.307-3.651,9.423,9.423,0,0,1-1.684-5.788,11.916,11.916,0,0,1,1.109-4.922,12.354,12.354,0,0,1,3.327-4.347,17.471,17.471,0,0,1,5.618-3.076,24.287,24.287,0,0,1,8-1.19,20.774,20.774,0,0,1,11.407,3.036,14.839,14.839,0,0,1,6.4,8.209l-10.832,1.805a5.019,5.019,0,0,0-2.34-2.38,9.488,9.488,0,0,0-4.639-.988q-3.773,0-5.416,1.109t-1.619,2.259q0,1.619,2.21,2.38a42.293,42.293,0,0,0,6.031,1.368q3.926.656,7.238,1.522a21.364,21.364,0,0,1,5.716,2.3,10.719,10.719,0,0,1,3.724,3.692A10.961,10.961,0,0,1,356.322,69.539Z" transform="translate(-60.603 -7.502)"/>
        <path id="Path_6965" data-name="Path 6965" class="cls-2" d="M409.652,69.539a12.143,12.143,0,0,1-1.384,5.748,13.762,13.762,0,0,1-3.829,4.517,18.5,18.5,0,0,1-5.8,2.947,24.627,24.627,0,0,1-7.416,1.069,26.926,26.926,0,0,1-6.938-.858,20.086,20.086,0,0,1-5.788-2.5,16.613,16.613,0,0,1-4.307-3.983,15.616,15.616,0,0,1-2.583-5.295L382.28,69.3a6.209,6.209,0,0,0,1.619,2.218,8.485,8.485,0,0,0,2.259,1.433,11.7,11.7,0,0,0,2.583.81,14.038,14.038,0,0,0,2.5.243,13.763,13.763,0,0,0,5.456-.947,3.04,3.04,0,0,0,2.178-2.833,3.464,3.464,0,0,0-.332-1.562,2.785,2.785,0,0,0-1.312-1.15,14.482,14.482,0,0,0-2.712-.947A43.956,43.956,0,0,0,390,65.693q-2.874-.413-5.95-1.109a22.813,22.813,0,0,1-5.667-2.089,12.71,12.71,0,0,1-4.307-3.651,9.423,9.423,0,0,1-1.684-5.788,11.917,11.917,0,0,1,1.109-4.922,12.354,12.354,0,0,1,3.279-4.364,17.47,17.47,0,0,1,5.586-3.052,24.287,24.287,0,0,1,8-1.19,20.773,20.773,0,0,1,11.407,3.036,14.839,14.839,0,0,1,6.4,8.209l-10.832,1.781a5.02,5.02,0,0,0-2.34-2.38,9.488,9.488,0,0,0-4.639-.988q-3.773,0-5.416,1.109t-1.619,2.259q0,1.619,2.21,2.38a42.294,42.294,0,0,0,6.137,1.392q3.926.656,7.237,1.522a21.357,21.357,0,0,1,5.667,2.3,10.727,10.727,0,0,1,3.724,3.692A10.961,10.961,0,0,1,409.652,69.539Z" transform="translate(-70.767 -7.502)"/>
        <path id="Path_6966" data-name="Path 6966" class="cls-3" d="M457.051,30.3h2.623L463.6,45.962l-3.384,1.02A26.837,26.837,0,0,0,451.667,36.6a16.094,16.094,0,0,0-9.715-3.165,13.868,13.868,0,0,0-5.748,1.141,9.035,9.035,0,0,0-3.821,2.963,6.4,6.4,0,0,0-1.23,3.675,6.225,6.225,0,0,0,.98,3.311,8.726,8.726,0,0,0,2.987,2.817,29.808,29.808,0,0,0,6.557,2.566l9.5,2.809a46.365,46.365,0,0,1,5.076,1.967,20.239,20.239,0,0,1,5.189,3.076,11.4,11.4,0,0,1,2.915,3.975,12.265,12.265,0,0,1,1.052,5.084q0,6.047-5.295,10.589T446.4,81.947a22.393,22.393,0,0,1-7.756-1.255,26.861,26.861,0,0,1-7.391-4.461l-1.676,4.857h-2.558L423.64,62.841l3.384-.688a27.176,27.176,0,0,0,4.93,8.6,21.4,21.4,0,0,0,6.808,5.335,17.285,17.285,0,0,0,7.594,1.805,14.192,14.192,0,0,0,9.18-3.165,7.877,7.877,0,0,0,3.238-6.266,6.946,6.946,0,0,0-2.364-5.424q-2.429-2.113-8.6-3.935l-9.108-2.623q-7.65-2.218-10.775-5.667a11.48,11.48,0,0,1-3.076-7.974,11.18,11.18,0,0,1,2.04-6.477,15.317,15.317,0,0,1,6.266-4.971,21.316,21.316,0,0,1,9.253-2,22.716,22.716,0,0,1,8.1,1.457,17.438,17.438,0,0,1,5.027,2.914Z" transform="translate(-80.675 -5.572)"/>
        <path id="Path_6967" data-name="Path 6967" class="cls-3" d="M515.2,75.4l2.323,1.886a31.39,31.39,0,0,1-5.157,5.027,17.284,17.284,0,0,1-4.72,2.607,16.386,16.386,0,0,1-5.206.745,17.81,17.81,0,0,1-9.108-2.186,17.616,17.616,0,0,1-6.59-6.557,19.017,19.017,0,0,1-2.291-9.545,20.3,20.3,0,0,1,2.218-9.836,16.466,16.466,0,0,1,6.209-6.428,17.811,17.811,0,0,1,9.229-2.348,17.292,17.292,0,0,1,6.776,1.214,12.516,12.516,0,0,1,4.857,3.667,15.592,15.592,0,0,1,2.914,5.61,20.466,20.466,0,0,1,.583,4.793H491.491q-.105,1.789-.105,2.663a19.908,19.908,0,0,0,1.619,8.193,11.715,11.715,0,0,0,4.242,5.295,10.832,10.832,0,0,0,5.991,1.7,12.144,12.144,0,0,0,5.5-1.328A26.715,26.715,0,0,0,515.2,75.4Zm-4.663-14.71a13.924,13.924,0,0,0-1.546-4.955,7.092,7.092,0,0,0-2.842-2.55,8.9,8.9,0,0,0-4.137-.947,9.925,9.925,0,0,0-4.3.947,9.213,9.213,0,0,0-3.335,2.623,15,15,0,0,0-2.315,4.857Z" transform="translate(-92.253 -9.262)"/>
        <path id="Path_6968" data-name="Path 6968" class="cls-3" d="M533.34,54.867V51.84a27.153,27.153,0,0,0,4.857-.874,28.454,28.454,0,0,0,4.623-2.186h2.623V55.7a34.658,34.658,0,0,1,8.2-5.481,17.544,17.544,0,0,1,6.889-1.441,13.059,13.059,0,0,1,5.254.988,10,10,0,0,1,3.724,2.712,8.9,8.9,0,0,1,1.911,3.894,21,21,0,0,1,.291,4.048V76.483a9.991,9.991,0,0,0,.421,3.7,2.429,2.429,0,0,0,1.336,1.158,16.021,16.021,0,0,0,4.477.364v3.06H559.23V81.737h1.02a9.035,9.035,0,0,0,3.57-.47,2.85,2.85,0,0,0,1.368-1.384,10.524,10.524,0,0,0,.421-3.716v-13.4a16.783,16.783,0,0,0-.672-5.756,5.578,5.578,0,0,0-2.291-2.607,7.675,7.675,0,0,0-4.1-1,15.382,15.382,0,0,0-6.3,1.514,23.778,23.778,0,0,0-6.477,4.461v16.79a11.041,11.041,0,0,0,.421,3.789,2.817,2.817,0,0,0,1.344,1.384,9.619,9.619,0,0,0,3.5.364h1.052v3.06H533.3V81.737h.915a10.063,10.063,0,0,0,3.7-.453,2.623,2.623,0,0,0,1.392-1.619,18.865,18.865,0,0,0,.227-3.991V54.867Z" transform="translate(-101.558 -9.264)"/>
        <path id="Path_6969" data-name="Path 6969" class="cls-3" d="M595.23,51.006V47.978a28.334,28.334,0,0,0,5.084-1,27.864,27.864,0,0,0,4.679-2.048h2.655v29.2a4.736,4.736,0,0,0,.437,2.291,2.566,2.566,0,0,0,1.222,1.109,7.982,7.982,0,0,0,2.858.348h1.708v3.06h-18.62v-3.06h1.49a8.1,8.1,0,0,0,3.238-.437,2.493,2.493,0,0,0,1.182-1.239,12.144,12.144,0,0,0,.348-3.748V51.006ZM604.483,28.5a4.1,4.1,0,0,1,2.979,1.214,4.048,4.048,0,0,1,1.239,2.971,4.226,4.226,0,1,1-8.452,0,4.048,4.048,0,0,1,1.271-2.971,4.1,4.1,0,0,1,2.963-1.214Z" transform="translate(-113.351 -5.403)"/>
        <path id="Path_6970" data-name="Path 6970" class="cls-3" d="M643.143,48.779A18.482,18.482,0,0,1,652.412,51a15.69,15.69,0,0,1,6.169,6.477,20.451,20.451,0,0,1,2.259,9.715,20.053,20.053,0,0,1-2.315,9.715,16.029,16.029,0,0,1-6.3,6.477,19.155,19.155,0,0,1-9.521,2.242q-8.816,0-13.236-5.5a20,20,0,0,1-4.42-12.953,19.786,19.786,0,0,1,2.291-9.634,16.192,16.192,0,0,1,6.428-6.517,18.871,18.871,0,0,1,9.375-2.242Zm-.324,3.538a9,9,0,0,0-7.027,3.238q-3.643,4.048-3.643,11.868,0,7.5,3.093,11.431a9.237,9.237,0,0,0,7.61,3.5,9.609,9.609,0,0,0,5.513-1.619,11.333,11.333,0,0,0,3.918-5.23,21.858,21.858,0,0,0,1.49-8.428,21.412,21.412,0,0,0-1.619-8.484A9.885,9.885,0,0,0,642.819,52.316Z" transform="translate(-119.029 -9.264)"/>
        <path id="Path_6971" data-name="Path 6971" class="cls-3" d="M677.692,54.866V51.838a21.048,21.048,0,0,0,4.72-.882,25.646,25.646,0,0,0,4.72-2.178h2.72v6.881a20.06,20.06,0,0,1,6.007-5.027,13.18,13.18,0,0,1,6.153-1.854,6.557,6.557,0,0,1,4.258,1.279,3.87,3.87,0,0,1,1.563,3.093,3.125,3.125,0,0,1-1.02,2.283,3.465,3.465,0,0,1-2.494,1,3.133,3.133,0,0,1-1.125-.178,7.723,7.723,0,0,1-1.384-.81,6.566,6.566,0,0,0-3.352-1.311,7.165,7.165,0,0,0-4.007,1.53,22.533,22.533,0,0,0-4.372,3.894v16.79a12.142,12.142,0,0,0,.235,2.971,3.238,3.238,0,0,0,.81,1.344,3.173,3.173,0,0,0,1.344.81,10.46,10.46,0,0,0,2.8.259h1.2V84.8H677.66v-3.06h1.562a6.784,6.784,0,0,0,2.914-.4,3.368,3.368,0,0,0,1.4-1.514,9.1,9.1,0,0,0,.453-3.481V54.866Z" transform="translate(-129.049 -9.263)"/>
        <path id="Path_6972" data-name="Path 6972" class="cls-4" d="M499.3,105.461s4.663,77.378,86.235,89.959c0,0,47.076,6.064,78.309-24.238,0,0,30.764-23.769,33.565-66.652,0,0,1.862,47.546-34.5,76.447,0,0-29.833,29.363-78.771,23.307,0,0-45.214-3.238-74.116-52.209C510.019,152.068,499.77,136.686,499.3,105.461Z" transform="translate(-95.083 -19.882)"/>
        <path id="Path_6973" data-name="Path 6973" class="cls-5" d="M549.35,173.126s59.026,50.25,124.617.146c0,0,36.989-29.752,36.779-73.258,0,0,4.169-38.657-24.813-70.384,0,0,35.572,31.573,31.225,77.84,0,0,.51,41.855-37.774,72.95,0,0-33.678,30.343-89,17.276C590.355,197.688,572.2,194.425,549.35,173.126Z" transform="translate(-104.614 -5.618)"/>
        <path id="Path_6974" data-name="Path 6974" class="cls-3" d="M642.52,197.359S720,199.787,739.943,119.64c0,0,10.314-46.332-17-80.188,0,0-20.879-32.8-63.324-39.483,0,0,47.513,2.429,72.991,41.288,0,0,26.53,32.383,16.046,80.568,0,0-7.359,44.729-58.726,69.064C689.912,190.923,673.672,199.739,642.52,197.359Z" transform="translate(-122.357 0.03)"/>
        <circle id="Ellipse_268" data-name="Ellipse 268" class="cls-4" cx="26.1" cy="26.1" r="26.1" transform="translate(477.402 119.605)"/>
        <path id="Path_6975" data-name="Path 6975" class="cls-3" d="M64,106H74.775v1.838H65.911v5.869H74.7v1.83H65.911V122.9H74.7v1.838H64Z" transform="translate(-12.188 -20.162)"/>
        <path id="Path_6976" data-name="Path 6976" class="cls-3" d="M78.882,112.06h2.137l3.684,5.068,3.643-5.068h2.145l-4.72,6.549L91.09,125.9h-2.17L84.7,120.107l-4.2,5.813H78.38l5.254-7.286Z" transform="translate(-14.926 -21.316)"/>
        <path id="Path_6977" data-name="Path 6977" class="cls-3" d="M96.432,111.976h1.781v2.55a7.148,7.148,0,0,1,2.429-2.178,6.477,6.477,0,0,1,3.068-.729,6.841,6.841,0,0,1,5.052,2.129,7.027,7.027,0,0,1,2.1,5.116,7.157,7.157,0,0,1-2.072,5.206,7,7,0,0,1-8.1,1.449,7.658,7.658,0,0,1-2.51-2.048v7.448H96.4Zm7.132,1.36a5.238,5.238,0,0,0-3.894,1.619A5.521,5.521,0,0,0,98.052,119a5.667,5.667,0,0,0,.7,2.833,5.141,5.141,0,0,0,2.024,2,5.586,5.586,0,0,0,2.777.737,5.238,5.238,0,0,0,2.7-.745,5.456,5.456,0,0,0,2.016-2.081,5.618,5.618,0,0,0,0-5.594,5.367,5.367,0,0,0-4.744-2.785Z" transform="translate(-18.358 -21.232)"/>
        <path id="Path_6978" data-name="Path 6978" class="cls-3" d="M129.9,121.241l1.506.81a8.193,8.193,0,0,1-1.708,2.34,6.8,6.8,0,0,1-2.178,1.36,7.61,7.61,0,0,1-2.744.461,6.622,6.622,0,0,1-5.3-2.226,7.5,7.5,0,0,1-1.911-5.027,7.408,7.408,0,0,1,1.619-4.7,6.614,6.614,0,0,1,5.5-2.623,6.833,6.833,0,0,1,5.667,2.688,7.5,7.5,0,0,1,1.53,4.736H119.406a5.667,5.667,0,0,0,1.546,3.959,4.922,4.922,0,0,0,3.684,1.546,5.926,5.926,0,0,0,2.056-.364,5.408,5.408,0,0,0,1.7-.98,8.306,8.306,0,0,0,1.506-1.983Zm0-3.732a5.918,5.918,0,0,0-1.036-2.283,4.922,4.922,0,0,0-1.805-1.376,5.537,5.537,0,0,0-2.356-.526,5.084,5.084,0,0,0-3.505,1.311,5.926,5.926,0,0,0-1.619,2.866Z" transform="translate(-22.387 -21.235)"/>
        <path id="Path_6979" data-name="Path 6979" class="cls-3" d="M138.49,111.976h1.822V114a6.387,6.387,0,0,1,1.716-1.789,3.392,3.392,0,0,1,1.886-.591,3.238,3.238,0,0,1,1.619.47l-.963,1.506a2.477,2.477,0,0,0-.939-.243,2.574,2.574,0,0,0-1.716.737,4.623,4.623,0,0,0-1.263,2.275,21.8,21.8,0,0,0-.332,4.793v4.687H138.5Z" transform="translate(-26.373 -21.232)"/>
        <path id="Path_6980" data-name="Path 6980" class="cls-3" d="M149.435,105a1.479,1.479,0,0,1,1.465,1.482,1.465,1.465,0,0,1-2.931,0,1.425,1.425,0,0,1,.429-1.044A1.4,1.4,0,0,1,149.435,105Zm-.882,5.667h1.781v13.86h-1.781Z" transform="translate(-28.178 -19.971)"/>
        <path id="Path_6981" data-name="Path 6981" class="cls-3" d="M166.978,121.241l1.506.81a8.193,8.193,0,0,1-1.708,2.34,6.8,6.8,0,0,1-2.178,1.36,7.61,7.61,0,0,1-2.744.461,6.622,6.622,0,0,1-5.3-2.226,7.5,7.5,0,0,1-1.911-5.027,7.408,7.408,0,0,1,1.619-4.7,6.614,6.614,0,0,1,5.5-2.623,6.833,6.833,0,0,1,5.667,2.688,7.5,7.5,0,0,1,1.53,4.736H156.47a5.667,5.667,0,0,0,1.546,3.959,4.922,4.922,0,0,0,3.684,1.546,5.926,5.926,0,0,0,2.056-.364,5.408,5.408,0,0,0,1.7-.98A8.307,8.307,0,0,0,166.978,121.241Zm0-3.732a5.918,5.918,0,0,0-1.036-2.283,4.922,4.922,0,0,0-1.805-1.376,5.537,5.537,0,0,0-2.356-.526,5.084,5.084,0,0,0-3.505,1.312,5.926,5.926,0,0,0-1.619,2.866Z" transform="translate(-29.449 -21.235)"/>
        <path id="Path_6982" data-name="Path 6982" class="cls-3" d="M176.41,111.976h1.781v2.485a7.456,7.456,0,0,1,2.372-2.137,5.821,5.821,0,0,1,2.825-.7,4.914,4.914,0,0,1,2.761.81,4.7,4.7,0,0,1,1.773,2.129,11.253,11.253,0,0,1,.575,4.169v7.132h-1.781v-6.647a16.282,16.282,0,0,0-.194-3.2,3.505,3.505,0,0,0-1.19-2.072,3.586,3.586,0,0,0-2.291-.7,4.4,4.4,0,0,0-2.914,1.109A5.011,5.011,0,0,0,178.442,117a18.42,18.42,0,0,0-.251,3.773v5.084H176.41Z" transform="translate(-33.594 -21.232)"/>
        <path id="Path_6983" data-name="Path 6983" class="cls-3" d="M209.364,114.854l-1.417.882a5.918,5.918,0,0,0-5-2.429,5.788,5.788,0,0,0-4.2,1.619,5.319,5.319,0,0,0-1.676,3.959,5.619,5.619,0,0,0,.81,2.85,5.4,5.4,0,0,0,2.113,2.072,6.387,6.387,0,0,0,8-1.692l1.417.931a6.679,6.679,0,0,1-2.672,2.323,8.525,8.525,0,0,1-3.813.81,7.537,7.537,0,0,1-5.448-2.089,6.8,6.8,0,0,1-2.162-5.084,7.286,7.286,0,0,1,1.012-3.74,7.132,7.132,0,0,1,2.785-2.7,8.1,8.1,0,0,1,3.959-.971,8.46,8.46,0,0,1,2.655.421,7.408,7.408,0,0,1,2.17,1.093A5.975,5.975,0,0,1,209.364,114.854Z" transform="translate(-37.193 -21.228)"/>
        <path id="Path_6984" data-name="Path 6984" class="cls-3" d="M217.325,105a1.479,1.479,0,0,1,1.465,1.482,1.465,1.465,0,0,1-2.931,0,1.425,1.425,0,0,1,.429-1.044A1.4,1.4,0,0,1,217.325,105Zm-.882,5.667h1.781v13.86h-1.781Z" transform="translate(-41.107 -19.971)"/>
        <path id="Path_6985" data-name="Path 6985" class="cls-3" d="M237.01,111.976v13.86h-1.757v-2.38a7.634,7.634,0,0,1-2.518,2.048,7.027,7.027,0,0,1-8.1-1.449,7.157,7.157,0,0,1-2.081-5.189,7.019,7.019,0,0,1,2.1-5.116,6.849,6.849,0,0,1,5.06-2.129,6.533,6.533,0,0,1,3.093.729,7.027,7.027,0,0,1,2.429,2.178v-2.55Zm-7.124,1.36a5.376,5.376,0,0,0-4.752,2.785,5.61,5.61,0,0,0,0,5.594,5.456,5.456,0,0,0,2.016,2.081,5.27,5.27,0,0,0,2.712.745,5.57,5.57,0,0,0,2.777-.737,5.157,5.157,0,0,0,2.016-2,5.667,5.667,0,0,0,.7-2.833,5.513,5.513,0,0,0-1.619-4.048,5.246,5.246,0,0,0-3.854-1.579Z" transform="translate(-42.382 -21.232)"/>
        <path id="Path_6986" data-name="Path 6986" class="cls-3" d="M265.788,121.241l1.506.81a8.193,8.193,0,0,1-1.708,2.34,6.8,6.8,0,0,1-2.178,1.36,7.61,7.61,0,0,1-2.744.461,6.622,6.622,0,0,1-5.3-2.226,7.5,7.5,0,0,1-1.911-5.027,7.407,7.407,0,0,1,1.619-4.7,6.614,6.614,0,0,1,5.5-2.623,6.833,6.833,0,0,1,5.667,2.688,7.5,7.5,0,0,1,1.53,4.736H255.3a5.667,5.667,0,0,0,1.546,3.959,4.922,4.922,0,0,0,3.683,1.546,5.927,5.927,0,0,0,2.056-.364,5.408,5.408,0,0,0,1.7-.98,8.307,8.307,0,0,0,1.506-1.983Zm0-3.732a5.918,5.918,0,0,0-1.036-2.283,4.922,4.922,0,0,0-1.805-1.376,5.537,5.537,0,0,0-2.356-.526,5.084,5.084,0,0,0-3.505,1.312,5.926,5.926,0,0,0-1.619,2.866Z" transform="translate(-48.265 -21.235)"/>
        <path id="Path_6987" data-name="Path 6987" class="cls-3" d="M275.2,111.986h1.781v2.429a6.889,6.889,0,0,1,1.911-1.935,5.424,5.424,0,0,1,2.842-.81,4.736,4.736,0,0,1,1.911.4,4.121,4.121,0,0,1,1.481,1.052,5.667,5.667,0,0,1,1,1.878,6.573,6.573,0,0,1,2.226-2.477,5.254,5.254,0,0,1,2.874-.81,4.493,4.493,0,0,1,2.534.729,4.323,4.323,0,0,1,1.619,2.024,10.8,10.8,0,0,1,.534,3.894v7.561h-1.822v-7.561a9.884,9.884,0,0,0-.316-3.06,2.761,2.761,0,0,0-1.085-1.344,3.238,3.238,0,0,0-1.838-.51,3.983,3.983,0,0,0-2.364.761,4.4,4.4,0,0,0-1.571,2.04,12.953,12.953,0,0,0-.494,4.25v5.424h-1.781v-7.092a12.142,12.142,0,0,0-.316-3.408,2.849,2.849,0,0,0-1.093-1.441,3.149,3.149,0,0,0-1.846-.542,3.983,3.983,0,0,0-2.315.745,4.412,4.412,0,0,0-1.619,2.008,10.816,10.816,0,0,0-.518,3.862v5.869H275.15Z" transform="translate(-52.398 -21.241)"/>
        <path id="Path_6988" data-name="Path 6988" class="cls-3" d="M305.47,111.976h1.781v2.55a7.149,7.149,0,0,1,2.429-2.178,6.476,6.476,0,0,1,3.068-.729,6.841,6.841,0,0,1,5.052,2.129,7.027,7.027,0,0,1,2.1,5.116,7.156,7.156,0,0,1-2.081,5.189,7,7,0,0,1-8.1,1.449,7.658,7.658,0,0,1-2.51-2.048V130.9H305.43Zm7.132,1.36a5.238,5.238,0,0,0-3.894,1.619A5.521,5.521,0,0,0,307.09,119a5.667,5.667,0,0,0,.7,2.833,5.14,5.14,0,0,0,2.024,2,5.586,5.586,0,0,0,2.777.737,5.238,5.238,0,0,0,2.7-.745,5.457,5.457,0,0,0,2.016-2.081,5.618,5.618,0,0,0,0-5.594,5.367,5.367,0,0,0-4.744-2.785Z" transform="translate(-58.164 -21.232)"/>
        <path id="Path_6989" data-name="Path 6989" class="cls-3" d="M326.59,111.976h1.822V114a6.388,6.388,0,0,1,1.716-1.789,3.392,3.392,0,0,1,1.886-.591,3.238,3.238,0,0,1,1.619.47L332.7,113.6a2.477,2.477,0,0,0-.939-.243,2.574,2.574,0,0,0-1.716.737,4.623,4.623,0,0,0-1.263,2.275,21.8,21.8,0,0,0-.332,4.793v4.687H326.63Z" transform="translate(-62.194 -21.232)"/>
        <path id="Path_6990" data-name="Path 6990" class="cls-3" d="M348.5,121.241l1.506.81a8.192,8.192,0,0,1-1.708,2.34,6.8,6.8,0,0,1-2.178,1.36,7.61,7.61,0,0,1-2.744.461,6.622,6.622,0,0,1-5.3-2.226,7.5,7.5,0,0,1-1.911-5.027,7.408,7.408,0,0,1,1.619-4.7,6.614,6.614,0,0,1,5.5-2.623,6.833,6.833,0,0,1,5.667,2.688,7.5,7.5,0,0,1,1.53,4.736H338.006a5.667,5.667,0,0,0,1.546,3.959,4.922,4.922,0,0,0,3.683,1.546,5.927,5.927,0,0,0,2.056-.364,5.408,5.408,0,0,0,1.7-.98,8.306,8.306,0,0,0,1.506-1.983Zm0-3.732a5.918,5.918,0,0,0-1.036-2.283,4.922,4.922,0,0,0-1.805-1.376,5.538,5.538,0,0,0-2.356-.526,5.084,5.084,0,0,0-3.505,1.312,5.926,5.926,0,0,0-1.619,2.866Z" transform="translate(-64.016 -21.235)"/>
        <path id="Path_6991" data-name="Path 6991" class="cls-3" d="M357.93,111.976h1.781v2.485a7.456,7.456,0,0,1,2.372-2.137,5.821,5.821,0,0,1,2.825-.7,4.914,4.914,0,0,1,2.761.81,4.7,4.7,0,0,1,1.773,2.129,11.253,11.253,0,0,1,.575,4.169v7.132h-1.781v-6.647a16.285,16.285,0,0,0-.194-3.2,3.505,3.505,0,0,0-1.19-2.072,3.586,3.586,0,0,0-2.291-.7,4.4,4.4,0,0,0-2.9,1.069,5.011,5.011,0,0,0-1.684,2.647,18.421,18.421,0,0,0-.251,3.773v5.084h-1.781Z" transform="translate(-68.162 -21.232)"/>
        <path id="Path_6992" data-name="Path 6992" class="cls-3" d="M391.26,105.46v19.2H389.5v-2.38a7.634,7.634,0,0,1-2.518,2.048,7.027,7.027,0,0,1-8.1-1.449,7.148,7.148,0,0,1-2.081-5.189,7.019,7.019,0,0,1,2.1-5.116,6.849,6.849,0,0,1,5.06-2.129,6.533,6.533,0,0,1,3.093.729,7.027,7.027,0,0,1,2.429,2.178V105.46Zm-7.124,6.711a5.375,5.375,0,0,0-4.752,2.785,5.618,5.618,0,0,0,0,5.594,5.465,5.465,0,0,0,2.016,2.081,5.271,5.271,0,0,0,2.712.745,5.57,5.57,0,0,0,2.777-.737,5.156,5.156,0,0,0,2.016-2,5.667,5.667,0,0,0,.7-2.833,5.513,5.513,0,0,0-1.619-4.048,5.246,5.246,0,0,0-3.854-1.587Z" transform="translate(-71.757 -20.059)"/>
        <path id="Path_6993" data-name="Path 6993" class="cls-3" d="M411.158,121.241l1.506.81a8.209,8.209,0,0,1-1.708,2.34,6.784,6.784,0,0,1-2.178,1.36,7.61,7.61,0,0,1-2.744.461,6.622,6.622,0,0,1-5.3-2.226,7.5,7.5,0,0,1-1.911-5.027,7.407,7.407,0,0,1,1.619-4.7,6.614,6.614,0,0,1,5.5-2.623,6.833,6.833,0,0,1,5.667,2.688,7.5,7.5,0,0,1,1.53,4.736H400.666a5.667,5.667,0,0,0,1.546,3.959,4.922,4.922,0,0,0,3.684,1.546,5.926,5.926,0,0,0,2.056-.364,5.409,5.409,0,0,0,1.7-.98A8.3,8.3,0,0,0,411.158,121.241Zm0-3.732a5.91,5.91,0,0,0-1.036-2.283,4.922,4.922,0,0,0-1.805-1.376,5.529,5.529,0,0,0-2.356-.526,5.084,5.084,0,0,0-3.505,1.311,5.934,5.934,0,0,0-1.619,2.866Z" transform="translate(-75.948 -21.235)"/>
        <path id="Path_6994" data-name="Path 6994" class="cls-3" d="M434.279,105.46v19.2h-1.765v-2.38A7.634,7.634,0,0,1,430,124.331a7.027,7.027,0,0,1-8.1-1.449,7.157,7.157,0,0,1-2.081-5.189,7.019,7.019,0,0,1,2.1-5.116,6.849,6.849,0,0,1,5.06-2.129,6.533,6.533,0,0,1,3.092.729,7.027,7.027,0,0,1,2.429,2.178V105.46Zm-7.124,6.711a5.376,5.376,0,0,0-4.752,2.785,5.61,5.61,0,0,0,0,5.594,5.465,5.465,0,0,0,2.016,2.081,5.27,5.27,0,0,0,2.712.745,5.57,5.57,0,0,0,2.777-.737,5.157,5.157,0,0,0,2.016-2,5.667,5.667,0,0,0,.7-2.833,5.513,5.513,0,0,0-1.619-4.048,5.246,5.246,0,0,0-3.862-1.587Z" transform="translate(-79.947 -20.059)"/>
        <path id="Path_6995" data-name="Path 6995" class="cls-3" d="M449.07,111.62a6.865,6.865,0,0,1,5.311,2.315,7.44,7.44,0,0,1-.105,10.079,7.327,7.327,0,0,1-10.411,0,7.424,7.424,0,0,1-.105-10.071A6.857,6.857,0,0,1,449.07,111.62Zm0,1.749a5.149,5.149,0,0,0-3.821,1.619,5.489,5.489,0,0,0-1.619,3.975,5.668,5.668,0,0,0,.729,2.8,5.157,5.157,0,0,0,1.967,2.008,5.6,5.6,0,0,0,5.448,0,5.173,5.173,0,0,0,1.967-2.008,5.666,5.666,0,0,0,.729-2.8,5.481,5.481,0,0,0-1.619-3.975,5.149,5.149,0,0,0-3.789-1.619Z" transform="translate(-84.141 -21.231)"/>
        <path id="Path_6996" data-name="Path 6996" class="cls-3" d="M462.93,111.976h1.822V114a6.4,6.4,0,0,1,1.716-1.789,3.392,3.392,0,0,1,1.886-.591,3.238,3.238,0,0,1,1.619.47l-.931,1.506a2.477,2.477,0,0,0-.939-.243,2.583,2.583,0,0,0-1.716.737,4.631,4.631,0,0,0-1.263,2.275,21.773,21.773,0,0,0-.332,4.793v4.687H462.97Z" transform="translate(-88.157 -21.232)"/>
        <path id="Path_6997" data-name="Path 6997" class="cls-3" d="M487.11,111.976v13.86h-1.757v-2.38a7.642,7.642,0,0,1-2.518,2.048,7.027,7.027,0,0,1-8.1-1.449,7.157,7.157,0,0,1-2.081-5.189,7.019,7.019,0,0,1,2.1-5.116,6.849,6.849,0,0,1,5.06-2.129,6.533,6.533,0,0,1,3.093.729,7.027,7.027,0,0,1,2.429,2.178v-2.55Zm-7.124,1.36a5.375,5.375,0,0,0-4.752,2.785,5.618,5.618,0,0,0,0,5.594,5.464,5.464,0,0,0,2.016,2.081,5.27,5.27,0,0,0,2.712.745,5.562,5.562,0,0,0,2.777-.737,5.165,5.165,0,0,0,2.016-2,5.667,5.667,0,0,0,.7-2.833,5.513,5.513,0,0,0-1.619-4.048,5.246,5.246,0,0,0-3.862-1.579Z" transform="translate(-90.01 -21.232)"/>
      </g>
    </g>
  </g>
</svg>
