<svg xmlns="http://www.w3.org/2000/svg" viewBox="0 0 770 770"><defs><style>.cls-1{fill:#f62e2f;}.cls-2{fill:#fff;}</style></defs><title>Como-Ayudar-Project</title><g id="Capa_2" data-name="Capa 2"><g id="Capa_1-2" data-name="Capa 1"><rect class="cls-1" width="770" height="770"/><path class="cls-2" d="M306.47,101a105.72,105.72,0,0,1,29.39,16.89l-17.21,20.46q-19.81-16.56-46.77-16.56-29.23,0-47.42,21.44t-18.19,68.21q0,46.12,17.7,67.56t47.58,21.44q16.88,0,28.58-5a107.46,107.46,0,0,0,23.06-13.8L339.12,302A85.26,85.26,0,0,1,310.7,320.4q-17.05,7-39.79,7-28.26,0-50.5-13.48t-35.08-39.62q-12.84-26.14-12.83-62.85,0-36.37,13-62.68T220.73,109a93.15,93.15,0,0,1,49.21-13.48Q291.37,95.48,306.47,101Z"/><path class="cls-2" d="M471.48,267.62,454.6,323.48H422.12L494.54,99.71h40.27l72.43,223.78h-34.1l-16.89-55.86ZM548.78,242,514,125.69,479,242Z"/><path class="cls-2" d="M339.44,674.52H308.91l-6.17-113.68q-1.3-24.68-1.3-54.89l.33-26.31L266,634.57H235.83L197.51,479.64q1,13.64,1,44.5,0,25.33-.65,37l-5.52,113.35H162.76l12.67-223.78h41.9l34.43,151.67,32.8-151.67h42.22Z"/><path class="cls-2" d="M468.24,450.74l46.45,83.47,47.09-83.47H596.2l-63,103,70.48,120.82H567L514,576.1l-53.59,98.41H426l68.85-119.2L431.53,450.74Z"/></g></g></svg>