<svg id="Group_2" data-name="Group 2" xmlns="http://www.w3.org/2000/svg" viewBox="212 26 770 770">
  <defs>
    <style>
      .cls-1 {
        fill: #2b2b2b;
      }

      .cls-2 {
        fill: #ee262b;
      }

      .cls-3 {
        fill: #fff;
      }
    </style>
  </defs>
  <rect id="Rectangle_2" data-name="Rectangle 2" class="cls-1" width="770" height="770" transform="translate(212 26)"/>
  <g id="Group_1" data-name="Group 1" transform="translate(184.008 -65.715)">
    <path id="Path_3" data-name="Path 3" class="cls-2" d="M148.863,97.93l27.606,64.829h-49.05l-20.23-48.147-8.5,48.147H56.91L68.721,95.845l7.423-42.016L80.835,27h107.6a60.457,60.457,0,0,1-.495,19.08C183.923,69.017,170.8,86.274,148.863,97.93Z" transform="translate(112.651 403.016)"/>
    <path id="Union_3" data-name="Union 3" class="cls-3" d="M529.557,138.264l-6.921,39.259H502.7L517.63,92.858l34.769,39.7,7.012-39.7h19.916l-14.965,84.959ZM0,177.683,13.835,99.594l7.718-43.572L31.481,0h97.991l40.46.265c16.636.311,30.05,6.224,39.651,17.942A47.656,47.656,0,0,1,220.1,42.017H112.487l-.008.046h-46.5l-2.458,13.96L61.265,68.751H92.234l-7.422,42.062h-31L41.955,177.683Zm236.5-.123,14.963-84.795,23.835.147a23.633,23.633,0,0,1,23.706,28.971c-1.84,11.042-8.19,19.215-18.625,24.773l13.159,30.849H270.129l-9.608-22.9-4.049,22.953Zm233.255-.055L484.7,92.71h19.971l-14.945,84.795Zm-107.029,0-5.521-17.872H332.8l-11.412,17.872H299.154l57.058-85.33,28.731,85.33Zm30.185-12.2c-6.736-8.006-8.78-18.3-6.608-30.591a50.018,50.018,0,0,1,17.6-30.149A48.974,48.974,0,0,1,436.35,92.175q21.647,0,32.542,19.732L451.462,123.19c-4.345-7.86-10.493-11.854-18.5-11.854a26.9,26.9,0,0,0-17.909,6.719,27.347,27.347,0,0,0-9.644,16.565,19.764,19.764,0,0,0,3.681,16.731,19,19,0,0,0,15.534,6.717c8.576,0,16.454-4.142,23.67-12.572l13.933,10.951c-12.167,13.861-25.769,20.872-40.843,20.872C409.092,177.32,399.65,173.308,392.913,165.3Zm221.623,11.926c-12.038,0-21.258-3.975-27.9-12.055s-8.854-18.129-6.718-30.167a49.831,49.831,0,0,1,17.449-29.91,48.533,48.533,0,0,1,32.044-12.184q21.461,0,32.266,19.565l-17.137,11.191c-4.306-7.805-10.4-11.761-18.405-11.761a26.614,26.614,0,0,0-17.614,6.662,27.464,27.464,0,0,0-9.553,16.436c-1.178,6.663,0,12.313,3.571,16.713s8.669,6.571,15.35,6.571a26.162,26.162,0,0,0,18.682-7.086H632.04c-1.419,0-3.554,0-6.351-.129s-4.8-.148-6.221-.148h-4.583l3.313-18.848,46.235.093a49.4,49.4,0,0,1-16.325,32.3,48.063,48.063,0,0,1-32.617,12.765C615.173,177.238,614.855,177.235,614.535,177.228ZM537.582,84.943,552.509.368h48.407l-3.533,20.026H568.871l-2.319,12.737h21.224L584.24,53.156H563.018l-2.1,11.963H589.45l-3.5,19.823Zm-108.19,0-9.608-22.9-4.03,22.9h-19.9L410.785.368l23.763.148A23.572,23.572,0,0,1,458.2,29.45c-1.932,10.933-8.172,19.159-18.571,24.7l13.122,30.793Zm-91.365,0L352.936.368h48.443l-3.533,20.026H369.318l-2.283,12.737h21.222l-3.442,19.988H363.5l-2.1,11.963h28.528l-3.5,19.86Zm-28.272,0L324.664.368h19.915L329.6,84.943Zm-57.168,0L267.551,0H316.18l-3.533,20.117H283.971l-2.228,12.755h21.314l-3.553,20.1H278.173l-5.632,31.97ZM465.91,72.151c-6.554-7.785-8.559-17.817-6.442-29.781A48.668,48.668,0,0,1,476.6,12.921,47.7,47.7,0,0,1,508.224.958q21.055,0,31.677,19.2L522.858,31.29c-4.216-7.638-10.216-11.541-18-11.541a26.239,26.239,0,0,0-17.43,6.535,26.535,26.535,0,0,0-9.387,16.141,19.2,19.2,0,0,0,3.681,16.288,18.555,18.555,0,0,0,15.13,6.535c8.356,0,16.012-4.03,23.026-12.24l13.509,10.583c-11.853,13.49-25.161,20.246-39.775,20.246C481.647,83.838,472.462,79.937,465.91,72.151Z" transform="translate(81 388)"/>
  </g>
</svg>
