<svg xmlns="http://www.w3.org/2000/svg" xmlns:xlink="http://www.w3.org/1999/xlink" viewBox="11449 2421 770 770">
  <defs>
    <style>
      .cls-1 {
        clip-path: url(#clip-Insight-Project);
      }

      .cls-2 {
        fill: #fff;
      }

      .cls-3 {
        fill: #266fef;
      }

      .cls-4 {
        fill: #0a162b;
      }
    </style>
    <clipPath id="clip-Insight-Project">
      <rect x="11449" y="2421" width="770" height="770"/>
    </clipPath>
  </defs>
  <g id="Insight-Project" class="cls-1">
    <rect class="cls-4" x="11449" y="2421" width="770" height="770"/>
    <g id="Logo-Alt" transform="translate(11512.162 2703.598)">
      <g id="Capa_1" data-name="Capa 1">
        <path id="Path_7196" data-name="Path 7196" class="cls-2" d="M15.542,125.552V21.109L.28,18.937V9.68H50.5v9.257L35.215,21.029V125.552l15.512,2.274v8.848H.28v-9.1Z" transform="translate(0.038 1.328)"/>
        <path id="Path_7197" data-name="Path 7197" class="cls-2" d="M71.259,122.605V54.884L59.33,51.677V41.112L83.974,37.78h.421l3.923,3.252v7.085l-.08,4.026A51.812,51.812,0,0,1,97.87,45.32a63.685,63.685,0,0,1,12.43-5.368,42.077,42.077,0,0,1,12.509-2.081q10.838,0,16.763,3.969t8.256,12.214q2.331,8.256,2.331,22.392v46.171l12.009,1.376v8.813h-41.8v-8.813l10.679-1.376v-46.1a67.1,67.1,0,0,0-1.3-14.864,13.84,13.84,0,0,0-4.833-8.131q-3.582-2.729-10.6-2.729a32.979,32.979,0,0,0-12.509,2.661A49.253,49.253,0,0,0,90.433,59.9v62.706l11.509,1.376v8.813H60.331v-8.813Z" transform="translate(8.141 5.184)"/>
        <path id="Path_7198" data-name="Path 7198" class="cls-2" d="M174.063,104.778l3.332,12.077a9.564,9.564,0,0,0,3.878,3.173A29.773,29.773,0,0,0,188.1,122.5a33.787,33.787,0,0,0,7.961.955q9.428,0,13.431-3.412a11.543,11.543,0,0,0,4-9.3,10.872,10.872,0,0,0-2.638-7.3,27.066,27.066,0,0,0-8.052-5.948,142.582,142.582,0,0,0-14.511-6.312q-13.26-4.947-19.333-11.691t-6.084-17.445a19.208,19.208,0,0,1,4.549-12.657,29.568,29.568,0,0,1,12.509-8.506,49.606,49.606,0,0,1,17.854-3.036,67.209,67.209,0,0,1,13.51,1.205,111.925,111.925,0,0,1,11.759,3.127l3,.921v20.3H215.379L211.8,52.272q-1-2.07-5.379-3.571a29.954,29.954,0,0,0-9.8-1.513q-7.676,0-11.85,3.116a9.7,9.7,0,0,0-4.276,8.188A11.52,11.52,0,0,0,182.945,66a19.23,19.23,0,0,0,6.13,4.947q3.673,1.922,10.235,4.549l3.252,1.353a130.891,130.891,0,0,1,15.432,7.346,31.842,31.842,0,0,1,9.917,8.745,21.607,21.607,0,0,1,3.923,13.089,23.381,23.381,0,0,1-4.378,14.056,28.123,28.123,0,0,1-12.68,9.416,52.312,52.312,0,0,1-19.64,3.355,73.613,73.613,0,0,1-17.854-2.331,92.457,92.457,0,0,1-14.932-4.833V104.778Z" transform="translate(22.278 5.192)"/>
        <path id="Path_7199" data-name="Path 7199" class="cls-2" d="M249.32,127.432V57.527l-12.1-3.412V44.323l26.531-3.412h.421l4.253,3.252V127.5l13.351,1.422v9.1H235.81v-9.1ZM249.2,4.145A11.372,11.372,0,0,1,258.407.222h.08a11.2,11.2,0,0,1,6.084,1.626,10.917,10.917,0,0,1,3.958,4.3,12.215,12.215,0,0,1,1.376,5.686,13.9,13.9,0,0,1-3.332,9.6q-3.332,3.753-9.678,3.753h-.08a10.3,10.3,0,0,1-7.881-3.252,11.5,11.5,0,0,1-3.048-8.177,14.409,14.409,0,0,1,3.309-9.61Z" transform="translate(32.359 0.028)"/>
        <path id="Path_7200" data-name="Path 7200" class="cls-2" d="M327.925,98.582a54.677,54.677,0,0,1-12.816-1.422,15.694,15.694,0,0,0-3.673,4.8,12.43,12.43,0,0,0-1.331,5.55,9.314,9.314,0,0,0,1.956,6.38,10.542,10.542,0,0,0,5.925,3.048,55.44,55.44,0,0,0,10.883.83h18.2q32.616,0,32.616,25.019a27.134,27.134,0,0,1-6.88,17.854,47.263,47.263,0,0,1-18.389,12.976,63.56,63.56,0,0,1-24.689,4.8h-.08q-22.358,0-32.445-6.823t-10.087-19.23a23.45,23.45,0,0,1,4.549-14.056,30.4,30.4,0,0,1,10.974-9.553,15.068,15.068,0,0,1-8.086-14.011,20.2,20.2,0,0,1,3.582-11.554,27.134,27.134,0,0,1,9.428-8.552,28.738,28.738,0,0,1-12.805-10.371,27.68,27.68,0,0,1-4.458-15.694,25.428,25.428,0,0,1,5.584-16.365,35.447,35.447,0,0,1,14.682-10.69,51.175,51.175,0,0,1,19.435-3.7h.08a59.136,59.136,0,0,1,16.183,2.047,33.446,33.446,0,0,1,12.066,6.118,25.758,25.758,0,0,1,7.506-5.47A25.019,25.019,0,0,1,377.588,37.9h4.549V53.867H364.623A27.292,27.292,0,0,1,367.5,66.456a28.26,28.26,0,0,1-5.174,16.717,33.832,33.832,0,0,1-14.181,11.372A48.9,48.9,0,0,1,327.925,98.582Zm-22.108,48.9q0,10.008,5.925,15.182t19.435,5.174h.159a44.091,44.091,0,0,0,14.352-2.331,26.452,26.452,0,0,0,11.1-6.926,15.523,15.523,0,0,0,4.253-10.929,18.706,18.706,0,0,0-1.626-8.552,10.292,10.292,0,0,0-5.959-4.708q-4.333-1.581-12.6-1.581h-16.82a73.815,73.815,0,0,1-12.93-1.137,24.257,24.257,0,0,0-5.334,15.8Zm23.108-99.848q-9.007,0-13.976,4.549t-4.97,14.909q0,9.814,4.708,15.694t15.057,5.879h.08q9.507,0,13.806-5.3t4.3-15.5q0-10.44-4.629-15.341t-14.306-4.9Z" transform="translate(39.398 5.189)"/>
        <path id="Path_7201" data-name="Path 7201" class="cls-2" d="M389.24,127.869V13.18l-13.76-1.672V3.548L403.751,0h.421l4,2.832.08,39.086L407.5,57a60.273,60.273,0,0,1,14.852-9.575,43.317,43.317,0,0,1,18.855-4.378q10.679,0,16.638,4t8.336,12.293q2.377,8.29,2.377,22.267v46.171l12.009,1.376v8.813H438.619v-8.723l10.929-1.376V81.7a67,67,0,0,0-1.3-14.864,13.647,13.647,0,0,0-4.958-8.143q-3.673-2.729-10.758-2.729a35.038,35.038,0,0,0-12.6,2.536,45.559,45.559,0,0,0-11.6,6.414v62.866l11.85,1.376v8.813h-40.94v-8.813Z" transform="translate(51.525)"/>
        <path id="Path_7202" data-name="Path 7202" class="cls-2" d="M476.63,52.995V45.034a56.5,56.5,0,0,0,5.379-1.774,22.983,22.983,0,0,0,3.958-1.774,14.977,14.977,0,0,0,4.549-6.914q1.251-3.014,3.3-9.61T496.565,15h10.849l.171,26.031h28.033V52.995H507.653v49.219a107.776,107.776,0,0,0,.58,13.795q.58,3.867,2.377,4.958t6.55,1.137h.08a52.447,52.447,0,0,0,9.8-1.046,54.331,54.331,0,0,0,8.472-2.183h.08l2.832,7.961a30.83,30.83,0,0,1-7.506,4.208,70.512,70.512,0,0,1-10.758,3.548,44.443,44.443,0,0,1-10.588,1.422H509.4q-10.349,0-15.6-4.458t-5.254-14.909V52.961Z" transform="translate(65.405 2.058)"/>
        <path id="Path_7203" data-name="Path 7203" class="cls-3" d="M545.485,106.31a14.126,14.126,0,0,1,5.129-4.8,13.647,13.647,0,0,1,6.676-1.751q5.754,0,8.8,3.252a11.372,11.372,0,0,1,3.048,8.1,13,13,0,0,1-1.876,6.96,12.509,12.509,0,0,1-5.083,4.674,15.2,15.2,0,0,1-6.96,1.626,12.054,12.054,0,0,1-5.754-1.422,11.191,11.191,0,0,1-4.3-4,10.884,10.884,0,0,1-1.626-5.925,12.146,12.146,0,0,1,1.945-6.71Z" transform="translate(74.586 13.689)"/>
        <path id="Path_7204" data-name="Path 7204" class="cls-2" d="M24.621,146.662a13.647,13.647,0,0,1,5.265,5.561,18.787,18.787,0,0,1,0,16.285,13.351,13.351,0,0,1-5.174,5.516,15,15,0,0,1-7.654,1.945,14.1,14.1,0,0,1-6.9-1.638,11.736,11.736,0,0,1-4.674-4.674V175.8H0V132.39H5.436v18.6a11.793,11.793,0,0,1,4.651-4.685,13.817,13.817,0,0,1,6.823-1.638,14.989,14.989,0,0,1,7.71,1.99Zm-3.412,23.165a9.655,9.655,0,0,0,3.685-3.923,12.055,12.055,0,0,0,1.319-5.686,11.725,11.725,0,0,0-1.342-5.618,9.939,9.939,0,0,0-3.685-3.923,10.144,10.144,0,0,0-5.322-1.4,10.292,10.292,0,0,0-5.356,1.4,9.871,9.871,0,0,0-3.685,3.935,12.578,12.578,0,0,0,0,11.372,9.9,9.9,0,0,0,3.719,3.889,10.3,10.3,0,0,0,5.356,1.4,10.3,10.3,0,0,0,5.311-1.444Z" transform="translate(0 18.167)"/>
        <path id="Path_7205" data-name="Path 7205" class="cls-2" d="M41.289,184.053a9.268,9.268,0,0,1-5.686,1.808,10.178,10.178,0,0,1-6.823-2.4l2.343-4.265a7.1,7.1,0,0,0,4.151,1.467q3.514,0,5.265-3.98l1.137-2.752L28.871,143.34h5.686l9.826,24.8,9.3-24.8h5.561L45.19,178.674A12.373,12.373,0,0,1,41.289,184.053Z" transform="translate(3.949 19.67)"/>
        <path id="Path_7206" data-name="Path 7206" class="cls-3" d="M69.33,134.55h33.4v6.96H89.982v33.98H82.09V141.51H69.33Z" transform="translate(9.514 18.463)"/>
        <path id="Path_7207" data-name="Path 7207" class="cls-3" d="M113.538,144.442a12.657,12.657,0,0,1,6.346-1.672v7.369a10.326,10.326,0,0,0-7.756,2.274,8.688,8.688,0,0,0-2.9,6.823v15.091H101.62v-31.3h7.608v6.027A11.3,11.3,0,0,1,113.538,144.442Z" transform="translate(13.945 19.591)"/>
        <path id="Path_7208" data-name="Path 7208" class="cls-3" d="M129.276,132.5a4.549,4.549,0,0,1,1.228,3.275,4.469,4.469,0,0,1-1.228,3.218,4.378,4.378,0,0,1-6.2,0,4.469,4.469,0,0,1-1.228-3.218,4.549,4.549,0,0,1,1.228-3.275,4.378,4.378,0,0,1,6.2,0Zm-6.823,12.168h7.528v31.3h-7.608Z" transform="translate(16.72 18.005)"/>
        <path id="Path_7209" data-name="Path 7209" class="cls-3" d="M156.121,174.356v-3.8a10.235,10.235,0,0,1-4.208,3.1,15.512,15.512,0,0,1-5.9,1.058,12.6,12.6,0,0,1-5.766-1.262,9.211,9.211,0,0,1-3.832-3.48,9.4,9.4,0,0,1-1.342-4.97,8.325,8.325,0,0,1,3.1-6.823q3.1-2.491,8.779-2.547h9.1v-.819a5.265,5.265,0,0,0-1.808-4.265,7.961,7.961,0,0,0-5.265-1.524,18.082,18.082,0,0,0-9.3,2.923l-2.752-5.265a34.653,34.653,0,0,1,6.7-2.957,24.564,24.564,0,0,1,7.051-.91q6.084,0,9.45,2.923a10.44,10.44,0,0,1,3.412,8.188l.057,20.47Zm-2.7-7.051a5.391,5.391,0,0,0,2.627-3.832v-2.809H148.16a8.586,8.586,0,0,0-4.469.91,3.23,3.23,0,0,0-1.433,2.957,3.8,3.8,0,0,0,1.49,3.161,6.414,6.414,0,0,0,4.06,1.137,9.928,9.928,0,0,0,5.629-1.524Z" transform="translate(18.534 19.598)"/>
        <path id="Path_7210" data-name="Path 7210" class="cls-3" d="M194.987,146.028a12.225,12.225,0,0,1,3.1,8.8v19.538h-7.665V157.059a7.062,7.062,0,0,0-1.876-5.174,6.823,6.823,0,0,0-5.095-1.9,7.71,7.71,0,0,0-5.993,2.57,9.439,9.439,0,0,0-2.195,6.437v15.387H167.66V143.037h7.608v5.845q3.218-6.027,11.236-6.141a11.167,11.167,0,0,1,8.484,3.287Z" transform="translate(23.007 19.586)"/>
        <path id="Path_7211" data-name="Path 7211" class="cls-3" d="M230.871,143.026v28.305a14.568,14.568,0,0,1-2.013,7.744,13.271,13.271,0,0,1-5.686,5.095,19.731,19.731,0,0,1-8.632,1.785,22.984,22.984,0,0,1-13.215-4.151l3.036-5.493a16.1,16.1,0,0,0,9.769,3.275,9.848,9.848,0,0,0,6.7-2.161,7.426,7.426,0,0,0,2.491-5.9v-3.685a10.406,10.406,0,0,1-4.094,3.651,12.919,12.919,0,0,1-5.845,1.262,13.783,13.783,0,0,1-7.255-1.9,12.964,12.964,0,0,1-4.913-5.322,17.058,17.058,0,0,1-1.751-7.87,16.512,16.512,0,0,1,1.751-7.744,12.862,12.862,0,0,1,4.913-5.231,13.965,13.965,0,0,1,7.256-1.876A12.725,12.725,0,0,1,219.2,144.1a10.746,10.746,0,0,1,4.128,3.628v-4.7Zm-9.917,21.266a10.235,10.235,0,0,0,0-12.93,8.438,8.438,0,0,0-11.986,0,9.962,9.962,0,0,0,0,12.9,8.472,8.472,0,0,0,11.986,0Z" transform="translate(27.37 19.597)"/>
        <path id="Path_7212" data-name="Path 7212" class="cls-3" d="M235.21,132.39h7.608v43.4H235.21Z" transform="translate(32.276 18.167)"/>
        <path id="Path_7213" data-name="Path 7213" class="cls-3" d="M275.138,147.1q3.776,4.276,3.776,11.986,0,1.524-.057,2.274H255.748a8.711,8.711,0,0,0,8.95,7.13,11.884,11.884,0,0,0,4.549-.91,11.213,11.213,0,0,0,3.832-2.6l4.094,4.265a15.83,15.83,0,0,1-5.686,3.98,19.173,19.173,0,0,1-7.46,1.4,17.4,17.4,0,0,1-8.45-1.99,13.908,13.908,0,0,1-5.686-5.584,18.2,18.2,0,0,1,0-16.581,14.3,14.3,0,0,1,5.686-5.686,16.66,16.66,0,0,1,8.245-2.013Q271.373,142.839,275.138,147.1Zm-3.184,9.189a7.586,7.586,0,0,0-2.274-5.493,8.5,8.5,0,0,0-14.147,5.527Z" transform="translate(34.017 19.591)"/>
      </g>
    </g>
  </g>
</svg>
