<svg xmlns="http://www.w3.org/2000/svg" xmlns:xlink="http://www.w3.org/1999/xlink" viewBox="10609 2421 770 770">
  <defs>
    <style>
      .cls-1 {
        clip-path: url(#clip-Kida-Project);
      }

      .cls-2 {
        fill: #ecf0f1;
      }

      .cls-3 {
        fill: #e74c3c;
      }
    </style>
    <clipPath id="clip-Kida-Project">
      <rect x="10609" y="2421" width="770" height="770"/>
    </clipPath>
  </defs>
  <g id="Kida-Project" class="cls-1">
    <rect class="cls-3" x="10609" y="2421" width="770" height="770"/>
    <g id="Logo" transform="translate(10677.371 2712.767)">
      <g id="Capa_1" data-name="Capa 1" transform="translate(0 0)">
        <path id="Path_1" data-name="Path 1" d="M7.777,188.773H0V10H7.777Zm15.545,0H15.545V10h7.777Zm15.545,0H31.09V10h7.777Zm15.545,0H46.635V10h7.777Zm4.53-89.387L104.714,10h8.641L67.583,99.387l45.771,89.387h-8.641Zm17.491,0L122.1,10h8.632L85.066,99.387l45.671,89.387H122.1Zm17.382,0L139.479,10h8.641L102.449,99.387l45.662,89.387H139.47Zm17.382,0L156.878,10h8.632L119.831,99.387l45.662,89.387h-8.616Z" transform="translate(0 -1.611)"/>
        <path id="Path_2" data-name="Path 2" d="M215,10h7.777V188.773H215Zm15.545,0h7.768V188.773h-7.768Zm15.545,0h7.777V188.773H246.09Zm15.545,0h7.777V188.773h-7.777Z" transform="translate(-34.633 -1.611)"/>
        <path id="Path_3" data-name="Path 3" d="M403.978,188.773H304.34V10h99.638a70.251,70.251,0,0,1,39.337,11.98,86.151,86.151,0,0,1,29.094,32.6,94.748,94.748,0,0,1,10.847,44.8,95.226,95.226,0,0,1-6.426,34.706,92.781,92.781,0,0,1-17.114,28.523A80.535,80.535,0,0,1,434.4,181.659a69.026,69.026,0,0,1-30.419,7.114Zm-91.87-7.768h91.87a61.191,61.191,0,0,0,27.315-6.476,72.986,72.986,0,0,0,22.777-17.382,84.4,84.4,0,0,0,15.386-26.074,89.638,89.638,0,0,0,0-63.313A85.275,85.275,0,0,0,454.07,41.686a72.64,72.64,0,0,0-22.777-17.424,61.182,61.182,0,0,0-27.315-6.476h-91.87Zm7.777-7.777V25.579h84.093A54.924,54.924,0,0,1,435.4,35.419a70.02,70.02,0,0,1,23.213,26.938,80.813,80.813,0,0,1,8.641,37.03,80.8,80.8,0,0,1-8.641,37.03A70.183,70.183,0,0,1,435.4,163.354a54.933,54.933,0,0,1-31.418,9.874Zm7.768-7.768H404a47.058,47.058,0,0,0,27.478-8.853A62.615,62.615,0,0,0,451.7,132.532a73.5,73.5,0,0,0,7.55-33.146A73.615,73.615,0,0,0,451.7,66.3a62.225,62.225,0,0,0-20.3-24.127,47.147,47.147,0,0,0-27.424-8.851H327.637Zm7.777-7.81V41.04h68.548a39.748,39.748,0,0,1,23.532,7.777,53.91,53.91,0,0,1,17.324,21.216,67.114,67.114,0,0,1,6.426,29.312,67.214,67.214,0,0,1-6.426,29.253,53.932,53.932,0,0,1-17.324,21.267,39.748,39.748,0,0,1-23.532,7.785Zm7.768-7.768h60.78q16.082,0,27.684-14.84t11.653-35.654a60.15,60.15,0,0,0-5.344-25.369,46.744,46.744,0,0,0-14.354-18.406,32.03,32.03,0,0,0-19.6-6.711H343.2Zm7.777-7.777V56.635h53q12.844,0,22.08,12.584t9.228,30.2q0,17.71-9.228,30.2t-22.08,12.525Zm7.768-7.777h45.234q9.606,0,16.46-10.26t6.854-24.723q0-14.572-6.854-24.773t-16.46-10.159H358.744Z" transform="translate(-49.024 -1.611)"/>
        <path id="Path_4" data-name="Path 4" d="M514.209,188.773H505.82L576.5,10h8.389l70.6,178.773h-8.314L580.71,20.47ZM581.683,38.934l4.43,9.933L530.836,188.773h-8.314Zm8.641,20.512,4.1,10.688-46.745,118.64h-8.389Zm8.2,21.376,4.1,10.906L564.3,188.773h-8.314ZM577.363,167.4l3.02-7.777h50.956l3.238,7.777Zm6.04-15.545,3.02-7.777h38.758l3.356,7.777Zm6.049-15.545,3.129-7.777h26.56l3.129,7.777ZM601.549,10l70.712,178.773h-8.389L593.218,10Zm16.736,0L689,188.773h-8.314L610,10Zm87.44,178.773h-8.389L626.7,10h8.314" transform="translate(-81.478 -1.611)"/>
        <path id="Path_5" data-name="Path 5" class="cls-2" d="M17.777,178.773H10V0h7.777Zm15.545,0H25.545V0h7.777Zm15.545,0H41.09V0h7.777Zm15.545,0H56.635V0h7.777Zm4.53-89.387L114.714,0h8.641L77.583,89.387l45.771,89.387h-8.641Zm17.491,0L132.1,0h8.632L95.066,89.387l45.671,89.387H132.1Zm17.382,0L149.479,0h8.641L112.449,89.387l45.662,89.387H149.47Zm17.382,0L166.878,0h8.632L129.831,89.387l45.662,89.387h-8.616Z" transform="translate(-1.611 0)"/>
        <path id="Path_6" data-name="Path 6" class="cls-2" d="M225,0h7.777V178.773H225Zm15.545,0h7.768V178.773h-7.768ZM256.09,0h7.777V178.773H256.09Zm15.545,0h7.777V178.773h-7.777Z" transform="translate(-36.243 0)"/>
        <path id="Path_7" data-name="Path 7" class="cls-2" d="M413.978,178.773H314.34V0h99.638a70.251,70.251,0,0,1,39.337,11.98,86.15,86.15,0,0,1,29.094,32.6,94.747,94.747,0,0,1,10.847,44.8,95.226,95.226,0,0,1-6.426,34.706,92.783,92.783,0,0,1-17.114,28.523A80.535,80.535,0,0,1,444.4,171.659a69.027,69.027,0,0,1-30.419,7.114Zm-91.87-7.768h91.87a61.19,61.19,0,0,0,27.315-6.476,72.985,72.985,0,0,0,22.777-17.382,84.4,84.4,0,0,0,15.386-26.074,89.638,89.638,0,0,0,0-63.313A85.278,85.278,0,0,0,464.07,31.686a72.64,72.64,0,0,0-22.776-17.424,61.182,61.182,0,0,0-27.315-6.476h-91.87Zm7.777-7.777V15.579h84.093A54.924,54.924,0,0,1,445.4,25.419a70.02,70.02,0,0,1,23.213,26.938,80.813,80.813,0,0,1,8.641,37.03,80.8,80.8,0,0,1-8.641,37.03A70.184,70.184,0,0,1,445.4,153.354a54.933,54.933,0,0,1-31.418,9.874Zm7.768-7.768H414a47.059,47.059,0,0,0,27.478-8.853A62.615,62.615,0,0,0,461.7,122.532a73.506,73.506,0,0,0,7.55-33.146A73.615,73.615,0,0,0,461.7,56.3a62.225,62.225,0,0,0-20.3-24.127,47.147,47.147,0,0,0-27.424-8.851H337.637Zm7.777-7.81V31.04h68.548a39.748,39.748,0,0,1,23.532,7.777,53.91,53.91,0,0,1,17.324,21.216,67.115,67.115,0,0,1,6.426,29.312,67.214,67.214,0,0,1-6.426,29.253,53.933,53.933,0,0,1-17.324,21.267,39.748,39.748,0,0,1-23.532,7.785Zm7.768-7.768h60.78q16.082,0,27.684-14.84t11.653-35.654a60.151,60.151,0,0,0-5.344-25.369,46.745,46.745,0,0,0-14.354-18.406,32.03,32.03,0,0,0-19.6-6.711H353.2Zm7.777-7.777V46.635h53q12.844,0,22.08,12.584t9.228,30.2q0,17.71-9.228,30.2t-22.08,12.525Zm7.768-7.777h45.234q9.606,0,16.46-10.26t6.854-24.723q0-14.572-6.854-24.773t-16.46-10.159H368.744Z" transform="translate(-50.635 0)"/>
        <path id="Path_8" data-name="Path 8" class="cls-2" d="M524.209,178.773H515.82L586.5,0h8.389l70.6,178.773h-8.314L590.71,10.47ZM591.683,28.934l4.43,9.933L540.836,178.773h-8.314Zm8.641,20.512,4.1,10.688-46.745,118.64h-8.389Zm8.2,21.376,4.1,10.906L574.3,178.773h-8.314ZM587.363,157.4l3.02-7.777h50.956l3.238,7.777Zm6.04-15.545,3.02-7.777h38.758l3.356,7.777Zm6.049-15.545,3.129-7.777h26.56l3.129,7.777ZM611.549,0l70.712,178.773h-8.389L603.218,0Zm16.736,0L699,178.773h-8.314L620,0Zm87.44,178.773h-8.389L636.7,0h8.314" transform="translate(-83.089 0)"/>
      </g>
    </g>
  </g>
</svg>
