<?xml version="1.0" encoding="utf-8"?>
<!-- Generator: Adobe Illustrator 21.1.0, SVG Export Plug-In . SVG Version: 6.00 Build 0)  -->
<svg version="1.1" id="Capa_1" xmlns="http://www.w3.org/2000/svg" xmlns:xlink="http://www.w3.org/1999/xlink" x="0px" y="0px"
	 viewBox="0 0 770 770" style="enable-background:new 0 0 770 770;" xml:space="preserve">
<style type="text/css">
	.st0{clip-path:url(#SVGID_2_);fill:#000080;}
	.st1{clip-path:url(#SVGID_2_);enable-background:new    ;}
	.st2{fill:#FFFFFF;}
	.st3{clip-path:url(#SVGID_2_);fill:#F0AD4E;}
	.st4{clip-path:url(#SVGID_2_);fill:#FFFFFF;}
</style>
<g>
	<defs>
		<rect id="SVGID_1_" width="770" height="770"/>
	</defs>
	<clipPath id="SVGID_2_">
		<use xlink:href="#SVGID_1_"  style="overflow:visible;"/>
	</clipPath>
	<rect class="st0" width="770" height="770"/>
	<g class="st1">
		<path class="st2" d="M70.6,528.1h10.3v44.6h23.3v9.3H70.6V528.1z"/>
		<path class="st2" d="M143.9,546.1c3.3,3.7,5,9,5,15.8c0,1.3,0,2.3-0.1,3h-30.4c0.7,2.9,2,5.2,4.1,6.9c2.1,1.7,4.6,2.5,7.7,2.5
			c2.1,0,4.1-0.4,6-1.2c1.9-0.8,3.6-1.9,5-3.4l5.4,5.6c-2.1,2.3-4.6,4-7.5,5.2c-3,1.2-6.2,1.8-9.8,1.8c-4.2,0-7.9-0.9-11.1-2.6
			c-3.2-1.7-5.7-4.2-7.4-7.4c-1.7-3.2-2.6-6.8-2.6-10.9c0-4.1,0.9-7.8,2.7-10.9c1.8-3.2,4.2-5.7,7.4-7.4c3.2-1.8,6.8-2.7,10.9-2.7
			C135.6,540.5,140.6,542.4,143.9,546.1z M139.7,558.2c-0.1-3-1.1-5.4-3-7.2c-1.9-1.8-4.4-2.7-7.5-2.7c-2.9,0-5.4,0.9-7.4,2.7
			c-2,1.8-3.2,4.2-3.7,7.3H139.7z"/>
		<path class="st2" d="M181.8,582v-5c-1.4,1.8-3.3,3.2-5.5,4.1c-2.3,0.9-4.9,1.4-7.8,1.4c-2.9,0-5.4-0.6-7.6-1.7
			c-2.2-1.1-3.9-2.6-5-4.6c-1.2-2-1.8-4.1-1.8-6.5c0-3.8,1.4-6.9,4.1-9c2.7-2.2,6.6-3.3,11.5-3.3h12v-1.1c0-2.4-0.8-4.3-2.4-5.6
			c-1.6-1.3-3.9-2-6.9-2c-3.9,0-8,1.3-12.2,3.8l-3.6-6.9c3.2-1.8,6.2-3.1,8.8-3.9c2.6-0.8,5.7-1.2,9.3-1.2c5.3,0,9.5,1.3,12.4,3.8
			c3,2.6,4.5,6.2,4.5,10.8l0.1,27H181.8z M178.3,572.7c2.1-1.4,3.2-3,3.5-5V564h-10.4c-2.7,0-4.6,0.4-5.9,1.2
			c-1.3,0.8-1.9,2.1-1.9,3.9c0,1.7,0.7,3.1,2,4.2c1.3,1,3.1,1.5,5.4,1.5C173.7,574.8,176.2,574.1,178.3,572.7z"/>
		<path class="st2" d="M218.6,542.6c2.4-1.4,5.2-2.1,8.4-2.2v9.7c-4.3-0.3-7.7,0.7-10.2,3c-2.5,2.2-3.8,5.2-3.8,9V582h-10v-41.2h10
			v7.9C214.3,546.1,216.2,544,218.6,542.6z"/>
		<path class="st2" d="M269.9,544.7c2.7,2.8,4.1,6.7,4.1,11.6V582h-10.1v-22.8c0-2.9-0.8-5.1-2.5-6.8c-1.6-1.7-3.9-2.5-6.7-2.5
			c-3.3,0.1-6,1.2-7.9,3.4c-1.9,2.2-2.9,5-2.9,8.5V582h-10v-41.2h10v7.7c2.8-5.3,7.8-8,14.8-8.1
			C263.5,540.4,267.2,541.8,269.9,544.7z"/>
		<path class="st2" d="M294.2,524.8c1.1,1.1,1.6,2.6,1.6,4.3c0,1.7-0.5,3.1-1.6,4.2c-1.1,1.1-2.4,1.7-4.1,1.7c-1.6,0-3-0.6-4.1-1.7
			c-1.1-1.1-1.6-2.5-1.6-4.2c0-1.7,0.5-3.2,1.6-4.3c1.1-1.1,2.4-1.7,4.1-1.7C291.8,523.1,293.1,523.7,294.2,524.8z M285.2,540.8h10
			V582h-10V540.8z"/>
		<path class="st2" d="M343.6,544.7c2.7,2.8,4.1,6.7,4.1,11.6V582h-10.1v-22.8c0-2.9-0.8-5.1-2.5-6.8c-1.6-1.7-3.9-2.5-6.7-2.5
			c-3.3,0.1-6,1.2-7.9,3.4c-1.9,2.2-2.9,5-2.9,8.5V582h-10v-41.2h10v7.7c2.8-5.3,7.8-8,14.8-8.1
			C337.1,540.4,340.9,541.8,343.6,544.7z"/>
		<path class="st2" d="M396.6,540.8v37.3c0,3.9-0.9,7.3-2.7,10.2c-1.8,2.9-4.3,5.1-7.5,6.7c-3.3,1.6-7,2.3-11.4,2.3
			c-6.3,0-12.1-1.8-17.4-5.5l4-7.2c3.9,2.9,8.2,4.3,12.9,4.3c3.7,0,6.6-1,8.8-2.8c2.2-1.9,3.3-4.5,3.3-7.8v-4.9
			c-1.4,2.1-3.2,3.7-5.4,4.8c-2.2,1.1-4.8,1.7-7.7,1.7c-3.6,0-6.8-0.8-9.5-2.5s-4.9-4-6.5-7s-2.3-6.5-2.3-10.4
			c0-3.8,0.8-7.2,2.3-10.2c1.5-3,3.7-5.2,6.5-6.9c2.8-1.6,6-2.5,9.5-2.5c2.9,0,5.4,0.6,7.7,1.7c2.2,1.1,4,2.7,5.4,4.8v-6.2H396.6z
			 M383.5,568.8c2-2.2,3-5,3-8.5c0-3.5-1-6.3-3-8.5c-2-2.2-4.7-3.3-7.9-3.3c-3.2,0-5.9,1.1-7.9,3.3c-2,2.2-3.1,5-3.1,8.5
			c0.1,3.5,1.1,6.3,3.1,8.5c2,2.2,4.7,3.3,7.9,3.3C378.8,572.1,381.5,571,383.5,568.8z"/>
		<path class="st2" d="M427.6,528.1h39.5v9h-29.2v13.3h26.2v9h-26.2V573H468v9h-40.4V528.1z"/>
		<path class="st2" d="M514.1,544.7c2.7,2.8,4.1,6.7,4.1,11.6V582h-10.1v-22.8c0-2.9-0.8-5.1-2.5-6.8c-1.6-1.7-3.9-2.5-6.7-2.5
			c-3.3,0.1-6,1.2-7.9,3.4s-2.9,5-2.9,8.5V582h-10v-41.2h10v7.7c2.8-5.3,7.8-8,14.8-8.1C507.6,540.4,511.3,541.8,514.1,544.7z"/>
		<path class="st2" d="M567,540.8v37.3c0,3.9-0.9,7.3-2.7,10.2c-1.8,2.9-4.3,5.1-7.5,6.7c-3.3,1.6-7,2.3-11.4,2.3
			c-6.3,0-12.1-1.8-17.4-5.5l4-7.2c3.9,2.9,8.2,4.3,12.9,4.3c3.7,0,6.6-1,8.8-2.8c2.2-1.9,3.3-4.5,3.3-7.8v-4.9
			c-1.4,2.1-3.2,3.7-5.4,4.8c-2.2,1.1-4.8,1.7-7.7,1.7c-3.6,0-6.8-0.8-9.5-2.5s-4.9-4-6.5-7c-1.5-3-2.3-6.5-2.3-10.4
			c0-3.8,0.8-7.2,2.3-10.2c1.5-3,3.7-5.2,6.5-6.9c2.8-1.6,6-2.5,9.5-2.5c2.9,0,5.4,0.6,7.7,1.7c2.2,1.1,4,2.7,5.4,4.8v-6.2H567z
			 M554,568.8c2-2.2,3-5,3-8.5c0-3.5-1-6.3-3-8.5c-2-2.2-4.7-3.3-7.9-3.3s-5.9,1.1-7.9,3.3c-2,2.2-3.1,5-3.1,8.5
			c0.1,3.5,1.1,6.3,3.1,8.5c2,2.2,4.7,3.3,7.9,3.3S552,571,554,568.8z"/>
		<path class="st2" d="M579.2,524.9h10V582h-10V524.9z"/>
		<path class="st2" d="M611.1,524.8c1.1,1.1,1.6,2.6,1.6,4.3c0,1.7-0.5,3.1-1.6,4.2c-1.1,1.1-2.4,1.7-4.1,1.7c-1.6,0-3-0.6-4.1-1.7
			c-1.1-1.1-1.6-2.5-1.6-4.2c0-1.7,0.5-3.2,1.6-4.3c1.1-1.1,2.4-1.7,4.1-1.7C608.6,523.1,610,523.7,611.1,524.8z M602.1,540.8h10
			V582h-10V540.8z"/>
		<path class="st2" d="M642.7,549.2c-2.1-0.7-4.1-1-5.9-1c-1.7,0-3,0.3-4,0.9c-1,0.6-1.5,1.5-1.5,2.7c0,1.3,0.6,2.3,1.9,3
			c1.3,0.7,3.2,1.4,6,2.2c2.9,0.9,5.2,1.7,7.1,2.6c1.8,0.8,3.5,2.1,4.8,3.8c1.4,1.7,2,3.9,2,6.6c0,4-1.5,7.1-4.6,9.2
			c-3.1,2.2-7,3.2-11.6,3.2c-3.2,0-6.3-0.5-9.3-1.5c-3-1-5.6-2.4-7.7-4.3l3.5-7c1.8,1.6,4.1,2.8,6.6,3.7c2.6,0.9,5,1.3,7.3,1.3
			c1.8,0,3.3-0.3,4.4-1c1.1-0.6,1.7-1.6,1.7-2.9c0-1.4-0.6-2.5-1.9-3.2c-1.3-0.7-3.4-1.5-6.2-2.4c-2.8-0.8-5-1.6-6.8-2.4
			c-1.7-0.8-3.3-2-4.5-3.6c-1.3-1.6-1.9-3.7-1.9-6.4c0-4.1,1.5-7.1,4.4-9.3c3-2.1,6.7-3.2,11.1-3.2c2.7,0,5.4,0.4,8,1.2
			c2.6,0.8,5,1.8,7,3.2l-3.6,7.2C646.9,550.8,644.8,549.9,642.7,549.2z"/>
		<path class="st2" d="M698,544.7c2.7,2.8,4.1,6.7,4.1,11.6V582H692v-22.8c0-2.9-0.8-5.1-2.5-6.8c-1.6-1.7-3.9-2.5-6.7-2.5
			c-3.3,0.1-6,1.2-7.9,3.4c-2,2.2-2.9,5-2.9,8.5V582h-10v-57.1h10v23.8c2.8-5.4,7.8-8.1,14.9-8.2C691.6,540.4,695.3,541.8,698,544.7
			z"/>
	</g>
	<path id="Path_6956" class="st3" d="M507.7,193h-321c-14.2,0-25.7,11.5-25.7,25.7v192.6c0,14.2,11.5,25.7,25.7,25.7c0,0,0,0,0,0
		h25.7v48.7c0,5.7,6.9,8.6,64.2-48.7h231.1c14.2,0,25.7-11.5,25.7-25.7l0,0V218.7C533.4,204.5,521.9,193,507.7,193z"/>
	<path id="Path_6957" class="st4" d="M582.7,169h-321c-14.2,0-25.7,11.5-25.7,25.7v192.6c0,14.2,11.5,25.7,25.7,25.7c0,0,0,0,0,0
		h245.7c53,55.4,59.9,58.3,64,54.2l0.2-54.2h11.1c14.2,0,25.7-11.5,25.7-25.7l0,0V194.7C608.4,180.5,596.9,169,582.7,169z"/>
</g>
</svg>
