<svg xmlns="http://www.w3.org/2000/svg" viewBox="-2170 -1095 770 770">
  <defs>
    <style>
      .cls-1 {
        fill: #3742fa;
      }

      .cls-2 {
        fill: #f1f2f6;
      }
    </style>
  </defs>
  <g id="Icono" transform="translate(-2170 -1095)">
    <rect id="Rectangle_1" data-name="Rectangle 1" class="cls-1" width="770" height="770"/>
    <path id="Path_25" data-name="Path 25" class="cls-2" d="M426.554,180.67c-135.8,0-245.884,110.11-245.884,245.884S290.757,672.438,426.554,672.438a244.375,244.375,0,0,0,109.055-25.479l-35.42-35.42a198.285,198.285,0,0,1-73.635,14.06c-109.918,0-199.045-89.128-199.045-199.045s89.127-199.045,199.045-199.045S625.6,316.637,625.6,426.554a198.213,198.213,0,0,1-48.333,129.991l-33.226-33.233a151.9,151.9,0,1,0-35.062,31.233,1.183,1.183,0,0,1,.266-.179L576.381,621.5a245.73,245.73,0,0,0,96.057-194.949C672.438,290.757,562.351,180.67,426.554,180.67Zm48.217,339.624a105.3,105.3,0,0,1-48.217,11.635c-2.064,0-4.12-.069-6.16-.185a105.367,105.367,0,1,1,90.3-41.749l-39.971-39.978-32.9,32.925,37.245,37.214a.894.894,0,0,0-.293.139Z" transform="translate(-41.554 -41.554)"/>
  </g>
</svg>
