<svg xmlns="http://www.w3.org/2000/svg" viewBox="0 0 770 770"><defs><style>.cls-1{fill:#f3476d;}.cls-2{fill:#fff;}</style></defs><title>SismoMX-Project</title><g id="Capa_2" data-name="Capa 2"><g id="Capa_1-2" data-name="Capa 1"><rect class="cls-1" width="770" height="770"/><g id="Capa_2-2" data-name="Capa 2"><g id="Layer_1" data-name="Layer 1"><path class="cls-2" d="M385,348a30.8,30.8,0,1,0,30.8,30.8h0A30.81,30.81,0,0,0,385,348Zm-1.3,38,11.5-11.2L384,363.19l5.1-5,16.2,16.7-16.6,16.2Zm1.7,8.2-5.2,5.1L364,382.61l16.7-16.2,5,5.1-11.5,11.2Z"/><path class="cls-2" d="M591.2,221c-53.2-53.1-139.4-53.1-192.5,0l-13.8,13.6L371.3,221c-53.1-53.1-139.3-53.1-192.5,0a136,136,0,0,0-.17,192.33l.17.17,153,154.2a75.12,75.12,0,0,0,104.4,0l155-154.2a136,136,0,0,0,.17-192.33Zm-255.3,88.5,3.1,22.2,14.8-2.1-5.5-39a129.13,129.13,0,0,1,73.4-.3l-5.5,39.3,14.8,2.1,3.2-22.6a115.72,115.72,0,0,1,66.1,97.8H434.6a57,57,0,1,0-106.5-28.1,55.94,55.94,0,0,0,7.5,28.1H270.8A115.51,115.51,0,0,1,335.9,309.51Zm91.2,69.3a42.1,42.1,0,1,1-42.1-42.1h0a42.17,42.17,0,0,1,42.1,42.1ZM511.7,445H258.3v-23.2h89.4a56.69,56.69,0,0,0,74.6,0h89.4Z"/></g></g></g></g></svg>