<svg id="Group_23" data-name="Group 23" xmlns="http://www.w3.org/2000/svg" viewBox="1249 1776 1367.739 767.413">
  <defs>
    <style>
      .cls-1 {
        fill: #fff;
      }

      .cls-2 {
        fill: #0a162b;
      }
    </style>
  </defs>
  <rect id="Rectangle_50" data-name="Rectangle 50" class="cls-1" width="1367" height="767" transform="translate(1249 1776)"/>
  <g id="Group_22" data-name="Group 22" transform="translate(-0.379 0.413)">
    <g id="book-shop" transform="translate(1444.24 2369.795)">
      <path id="Path_444" data-name="Path 444" class="cls-2" d="M109.145,101.869a6.93,6.93,0,0,0-6.908-6.908H77.9a6.93,6.93,0,0,0-6.908,6.908v81.736a6.93,6.93,0,0,0,6.908,6.908h24.34a6.93,6.93,0,0,0,6.908-6.908Z" transform="translate(-42.583 -72.857)"/>
      <path id="Path_445" data-name="Path 445" class="cls-2" d="M204.515,54.569a6.93,6.93,0,0,0-6.908-6.908h-24.34a6.931,6.931,0,0,0-6.908,6.908v81.736a6.931,6.931,0,0,0,6.908,6.908h24.338a6.93,6.93,0,0,0,6.908-6.908Z" transform="translate(-99.793 -44.482)"/>
      <rect id="Rectangle_71" data-name="Rectangle 71" class="cls-2" width="6.353" height="58.798" transform="translate(82.468 21.555)"/>
      <rect id="Rectangle_72" data-name="Rectangle 72" class="cls-2" width="76.318" height="14.082" transform="translate(28.401 39.08)"/>
      <path id="Path_446" data-name="Path 446" class="cls-2" d="M287,56.85a6.931,6.931,0,0,0-9.774,0L263.747,70.328a6.93,6.93,0,0,0,0,9.773l51.861,51.861a6.931,6.931,0,0,0,9.773,0l13.475-13.487a6.931,6.931,0,0,0,0-9.774Z" transform="translate(-157.007 -48.787)"/>
      <g id="Group_123" data-name="Group 123" transform="translate(122.632 23.954)">
        <circle id="Ellipse_21" data-name="Ellipse 21" class="cls-2" cx="3.166" cy="3.166" r="3.166" transform="translate(0 0)"/>
        <rect id="Rectangle_73" data-name="Rectangle 73" class="cls-2" width="44.732" height="6.353" transform="translate(41.078 45.568) rotate(-135)"/>
      </g>
      <path id="Path_447" data-name="Path 447" class="cls-2" d="M332.679,137.388H286.174l14.081,14.081h46.5Z" transform="translate(-171.669 -98.309)"/>
      <rect id="Rectangle_74" data-name="Rectangle 74" class="cls-2" width="174.143" height="112.068" transform="translate(15.361 54.907)"/>
      <rect id="Rectangle_75" data-name="Rectangle 75" class="cls-2" width="18.351" height="8.831" transform="translate(15.361 103.15)"/>
      <rect id="Rectangle_76" data-name="Rectangle 76" class="cls-2" width="18.351" height="8.831" transform="translate(44.343 77.388)"/>
      <rect id="Rectangle_77" data-name="Rectangle 77" class="cls-2" width="18.351" height="8.831" transform="translate(100.895 74.6)"/>
      <rect id="Rectangle_78" data-name="Rectangle 78" class="cls-2" width="18.351" height="8.831" transform="translate(72.6 60.422)"/>
      <rect id="Rectangle_79" data-name="Rectangle 79" class="cls-2" width="18.351" height="8.831" transform="translate(171.153 87.2)"/>
      <rect id="Rectangle_80" data-name="Rectangle 80" class="cls-2" width="18.351" height="8.831" transform="translate(168.125 141.466)"/>
      <rect id="Rectangle_81" data-name="Rectangle 81" class="cls-2" width="18.351" height="8.831" transform="translate(129.547 149.729)"/>
      <rect id="Rectangle_82" data-name="Rectangle 82" class="cls-2" width="18.351" height="8.83" transform="translate(96.961 124.779)"/>
      <rect id="Rectangle_83" data-name="Rectangle 83" class="cls-2" width="18.351" height="8.831" transform="translate(22.938 148.882)"/>
      <rect id="Rectangle_84" data-name="Rectangle 84" class="cls-2" width="174.143" height="16.551" transform="translate(15.361 54.907)"/>
      <g id="Group_124" data-name="Group 124" transform="translate(8.042 46.406)">
        <path id="Path_448" data-name="Path 448" class="cls-2" d="M208.877,169.893a4.248,4.248,0,0,1-4.235,4.235H24.333a4.248,4.248,0,0,1-4.235-4.235v-9.959a4.248,4.248,0,0,1,4.235-4.235H204.642a4.248,4.248,0,0,1,4.235,4.235Z" transform="translate(-20.098 -155.699)"/>
        <rect id="Rectangle_85" data-name="Rectangle 85" class="cls-2" width="71.163" height="76.793" transform="translate(98.092 28.406)"/>
      </g>
      <path id="Path_449" data-name="Path 449" class="cls-2" d="M308.85,270.928a2.31,2.31,0,0,1-2.3,2.3H289.753a2.311,2.311,0,0,1-2.3-2.3V249.642a2.31,2.31,0,0,1,2.3-2.3h16.795a2.31,2.31,0,0,1,2.3,2.3Z" transform="translate(-172.434 -164.266)"/>
      <rect id="Rectangle_86" data-name="Rectangle 86" class="cls-2" width="9.792" height="6.353" transform="translate(120.817 88.86)"/>
      <path id="Path_450" data-name="Path 450" class="cls-2" d="M388.835,270.928a2.31,2.31,0,0,1-2.3,2.3h-16.8a2.31,2.31,0,0,1-2.3-2.3V249.642a2.31,2.31,0,0,1,2.3-2.3h16.8a2.31,2.31,0,0,1,2.3,2.3Z" transform="translate(-220.416 -164.266)"/>
      <rect id="Rectangle_87" data-name="Rectangle 87" class="cls-2" width="9.792" height="6.353" transform="translate(152.823 88.86)"/>
      <path id="Path_451" data-name="Path 451" class="cls-2" d="M308.85,356.842a2.31,2.31,0,0,1-2.3,2.3H289.753a2.311,2.311,0,0,1-2.3-2.3V335.558a2.311,2.311,0,0,1,2.3-2.3h16.795a2.31,2.31,0,0,1,2.3,2.3Z" transform="translate(-172.434 -215.805)"/>
      <rect id="Rectangle_88" data-name="Rectangle 88" class="cls-2" width="9.792" height="6.353" transform="translate(120.817 123.237)"/>
      <path id="Path_452" data-name="Path 452" class="cls-2" d="M388.835,356.842a2.31,2.31,0,0,1-2.3,2.3h-16.8a2.31,2.31,0,0,1-2.3-2.3V335.558a2.31,2.31,0,0,1,2.3-2.3h16.8a2.31,2.31,0,0,1,2.3,2.3v21.283Z" transform="translate(-220.416 -215.805)"/>
      <rect id="Rectangle_89" data-name="Rectangle 89" class="cls-2" width="9.792" height="6.353" transform="translate(152.823 123.237)"/>
      <rect id="Rectangle_90" data-name="Rectangle 90" class="cls-2" width="57.264" height="75.361" transform="translate(32.114 91.614)"/>
      <rect id="Rectangle_91" data-name="Rectangle 91" class="cls-2" width="37.071" height="26.619" transform="translate(42.212 102.438)"/>
      <rect id="Rectangle_92" data-name="Rectangle 92" class="cls-2" width="17.584" height="6.353" transform="translate(51.954 110.875)"/>
      <path id="Path_453" data-name="Path 453" class="cls-2" d="M206.448,448.32a1.715,1.715,0,0,1-1.71,1.711H9.649a1.715,1.715,0,0,1-1.71-1.711V442.2a1.715,1.715,0,0,1,1.71-1.711H204.738a1.715,1.715,0,0,1,1.71,1.711v6.122Z" transform="translate(-4.762 -280.131)"/>
      <path id="Path_454" data-name="Path 454" class="cls-2" d="M45.378,184.385a3.166,3.166,0,1,0-3.166-3.166,3.166,3.166,0,0,0,3.166,3.166ZM106.135,194.5H177.3a3.177,3.177,0,0,0,3.177-3.177V114.529a3.177,3.177,0,0,0-3.177-3.177H106.135a3.177,3.177,0,0,0-3.177,3.177V191.32a3.177,3.177,0,0,0,3.177,3.179Zm3.176-76.791h64.813v70.441H109.311ZM199.976,196.9h-7.3V107.727A7.418,7.418,0,0,0,200,100.318V90.36a7.42,7.42,0,0,0-7.409-7.409H169.652L132.239,45.537a10.1,10.1,0,0,0-14.266,0L107.9,55.613v-5.8A10.1,10.1,0,0,0,97.81,39.72H73.473A10.1,10.1,0,0,0,63.386,49.812V59.37a10.028,10.028,0,0,0-3.734-.72H35.314A10.1,10.1,0,0,0,25.23,68.734V82.951H12.277A7.42,7.42,0,0,0,4.868,90.36v9.959a7.418,7.418,0,0,0,7.317,7.409V196.9h-7.3A4.892,4.892,0,0,0,0,201.787v6.122A4.893,4.893,0,0,0,4.887,212.8H199.976a4.893,4.893,0,0,0,4.887-4.888v-6.122a4.894,4.894,0,0,0-4.887-4.888ZM108.986,63.508l13.479-13.479a3.739,3.739,0,0,1,5.281,0l32.922,32.922H123.146l-14.16-14.163a3.754,3.754,0,0,1,0-5.281ZM107.9,76.684l6.265,6.265H107.9ZM69.739,49.812a3.738,3.738,0,0,1,3.734-3.734H97.811a3.738,3.738,0,0,1,3.734,3.734V82.951H69.739ZM31.579,68.734A3.738,3.738,0,0,1,35.314,65H59.651a3.738,3.738,0,0,1,3.734,3.734V82.951H31.578V68.734ZM11.213,100.32V90.36A1.073,1.073,0,0,1,12.272,89.3H192.585a1.073,1.073,0,0,1,1.058,1.058v9.959a1.073,1.073,0,0,1-1.058,1.058H12.277a1.073,1.073,0,0,1-1.063-1.057Zm80.432,28.786a3.175,3.175,0,0,0-2.267-.951H32.111a3.177,3.177,0,0,0-3.176,3.117L27.719,196.9H18.536V107.732H186.328V196.9H91.34l1.214-65.506a3.177,3.177,0,0,0-.909-2.288Zm-5.507,5.406L84.983,196.9H34.076l1.156-62.389h50.91Zm112.367,71.933H6.353v-3.192H198.51v3.192Z" transform="translate(0 -39.72)"/>
    </g>
    <g id="Group_21" data-name="Group 21" transform="translate(1249.379 2372.199)">
      <path id="Path_429" data-name="Path 429" class="cls-2" d="M166.326,74.046a4.248,4.248,0,0,0-4.235-4.235H109.668a4.248,4.248,0,0,0-4.235,4.235V89.173a4.248,4.248,0,0,0,4.235,4.235H162.09a4.248,4.248,0,0,0,4.235-4.235V74.046Z" transform="translate(-63.247 -58.928)"/>
      <rect id="Rectangle_51" data-name="Rectangle 51" class="cls-2" width="60.893" height="3.776" transform="translate(42.187 21.524)"/>
      <rect id="Rectangle_52" data-name="Rectangle 52" class="cls-2" width="109.349" height="128.339" transform="translate(20.608 34.48)"/>
      <rect id="Rectangle_53" data-name="Rectangle 53" class="cls-2" width="22.349" height="10.756" transform="translate(20.608 93.273)"/>
      <rect id="Rectangle_54" data-name="Rectangle 54" class="cls-2" width="22.349" height="10.756" transform="translate(98.604 120.823)"/>
      <rect id="Rectangle_55" data-name="Rectangle 55" class="cls-2" width="22.349" height="10.756" transform="translate(70.787 43.658)"/>
      <rect id="Rectangle_56" data-name="Rectangle 56" class="cls-2" width="22.349" height="10.756" transform="translate(87.428 80.597)"/>
      <rect id="Rectangle_57" data-name="Rectangle 57" class="cls-2" width="22.349" height="10.756" transform="translate(29.879 51.89)"/>
      <rect id="Rectangle_58" data-name="Rectangle 58" class="cls-2" width="22.349" height="10.756" transform="translate(28.588 144.218)"/>
      <rect id="Rectangle_59" data-name="Rectangle 59" class="cls-2" width="22.349" height="10.756" transform="translate(43.551 113.157)"/>
      <path id="Path_430" data-name="Path 430" class="cls-2" d="M171.938,302.1a19.21,19.21,0,1,0-38.421,0v33.3h38.421Z" transform="translate(-80.094 -186.75)"/>
      <path id="Path_431" data-name="Path 431" class="cls-2" d="M120.14,423.523v-7.275a2.124,2.124,0,0,1,2.118-2.118h44.89a2.124,2.124,0,0,1,2.118,2.118v7.275Z" transform="translate(-72.069 -265.478)"/>
      <g id="Group_122" data-name="Group 122" transform="translate(35.849 64.286)">
        <path id="Path_432" data-name="Path 432" class="cls-2" d="M176.869,316.918a9.328,9.328,0,0,0-18.656,0Z" transform="translate(-130.756 -265.853)"/>
        <path id="Path_433" data-name="Path 433" class="cls-2" d="M163.163,205.4a2.124,2.124,0,0,0-2.118-2.118H91.711a2.124,2.124,0,0,0-2.118,2.118v13.7a2.124,2.124,0,0,0,2.118,2.118h69.335a2.123,2.123,0,0,0,2.118-2.118Z" transform="translate(-89.593 -203.285)"/>
      </g>
      <path id="Path_434" data-name="Path 434" class="cls-2" d="M161.046,203.29H91.711a2.124,2.124,0,0,0-2.118,2.118v6.2a2.124,2.124,0,0,1,2.118-2.117h69.335a2.124,2.124,0,0,1,2.118,2.118v-6.2a2.125,2.125,0,0,0-2.118-2.112Z" transform="translate(-53.744 -138.999)"/>
      <rect id="Rectangle_60" data-name="Rectangle 60" class="cls-2" width="109.349" height="15.281" transform="translate(20.608 34.48)"/>
      <path id="Path_435" data-name="Path 435" class="cls-2" d="M152.907,110.084a4.248,4.248,0,0,0-4.235-4.235H42.489a4.248,4.248,0,0,0-4.235,4.235v9.883a4.248,4.248,0,0,0,4.235,4.235H148.672a4.248,4.248,0,0,0,4.235-4.235v-9.883Z" transform="translate(-22.948 -80.546)"/>
      <rect id="Rectangle_61" data-name="Rectangle 61" class="cls-2" width="15.157" height="137.513" transform="translate(114.804 25.302)"/>
      <rect id="Rectangle_62" data-name="Rectangle 62" class="cls-2" width="64.985" height="144.751" transform="translate(120.953 18.068)"/>
      <rect id="Rectangle_63" data-name="Rectangle 63" class="cls-2" width="22.349" height="10.756" transform="translate(120.953 93.141)"/>
      <rect id="Rectangle_64" data-name="Rectangle 64" class="cls-2" width="22.349" height="10.756" transform="translate(158.646 138.844)"/>
      <rect id="Rectangle_65" data-name="Rectangle 65" class="cls-2" width="22.349" height="10.756" transform="translate(163.589 63.427)"/>
      <rect id="Rectangle_66" data-name="Rectangle 66" class="cls-2" width="22.349" height="10.756" transform="translate(125.756 41.743)"/>
      <rect id="Rectangle_67" data-name="Rectangle 67" class="cls-2" width="22.349" height="10.756" transform="translate(156.673 21.524)"/>
      <rect id="Rectangle_68" data-name="Rectangle 68" class="cls-2" width="64.985" height="9.74" transform="translate(120.953 18.068)"/>
      <path id="Path_436" data-name="Path 436" class="cls-2" d="M376.64,143.516a13.734,13.734,0,1,0-27.469,0v31.037H376.64V143.516Z" transform="translate(-209.459 -94.902)"/>
      <path id="Path_437" data-name="Path 437" class="cls-2" d="M362.905,129.779a13.734,13.734,0,0,0-13.734,13.737v5.858a13.734,13.734,0,0,1,27.469,0v-5.858A13.735,13.735,0,0,0,362.9,129.779Z" transform="translate(-209.459 -94.902)"/>
      <rect id="Rectangle_69" data-name="Rectangle 69" class="cls-2" width="27.469" height="6.844" transform="translate(139.711 48.613)"/>
      <path id="Path_438" data-name="Path 438" class="cls-2" d="M376.64,296.64a13.734,13.734,0,1,0-27.469,0v31.045H376.64Z" transform="translate(-209.459 -186.759)"/>
      <path id="Path_439" data-name="Path 439" class="cls-2" d="M362.905,282.906a13.734,13.734,0,0,0-13.734,13.734V302.5a13.734,13.734,0,0,1,27.469,0V296.64A13.734,13.734,0,0,0,362.905,282.906Z" transform="translate(-209.459 -186.759)"/>
      <rect id="Rectangle_70" data-name="Rectangle 70" class="cls-2" width="27.469" height="6.844" transform="translate(139.711 109.879)"/>
      <path id="Path_440" data-name="Path 440" class="cls-2" d="M206.448,445.437a1.715,1.715,0,0,1-1.71,1.71H9.649a1.715,1.715,0,0,1-1.71-1.71v-6.123a1.716,1.716,0,0,1,1.71-1.714H204.738a1.715,1.715,0,0,1,1.71,1.711v6.123Z" transform="translate(-4.762 -279.558)"/>
      <path id="Path_441" data-name="Path 441" class="cls-2" d="M364.839,54.777a4.248,4.248,0,0,0-4.235-4.235H294.331a4.248,4.248,0,0,0-4.235,4.235V64.66a4.248,4.248,0,0,0,4.235,4.235H360.6a4.248,4.248,0,0,0,4.235-4.235Z" transform="translate(-174.022 -47.369)"/>
      <path id="Path_442" data-name="Path 442" class="cls-2" d="M367.514,437.6H279.286v9.545h88.227a1.715,1.715,0,0,0,1.71-1.71v-6.123a1.715,1.715,0,0,0-1.709-1.712Z" transform="translate(-167.538 -279.558)"/>
      <path id="Path_443" data-name="Path 443" class="cls-2" d="M112.594,122.719v-13.7a5.3,5.3,0,0,0-5.294-5.294H37.966a5.3,5.3,0,0,0-5.294,5.294v13.7a5.3,5.3,0,0,0,5.294,5.294H107.3a5.3,5.3,0,0,0,5.293-5.3Zm-43.138-1.058H39.02V110.074H69.456Zm36.786,0H75.81V110.074h30.436Zm93.733,75.815H189.114V66.854a7.417,7.417,0,0,0,4.879-6.956V50.016a7.42,7.42,0,0,0-7.409-7.409H120.31a7.42,7.42,0,0,0-7.409,7.409V59.9a7.373,7.373,0,0,0,1.807,4.835H106.26V57.726a7.42,7.42,0,0,0-7.409-7.409H46.421a7.42,7.42,0,0,0-7.409,7.409v7.008H19.541a7.42,7.42,0,0,0-7.409,7.409v9.883a7.423,7.423,0,0,0,5.306,7.1V197.476H0V213.4l199.976-.027a4.893,4.893,0,0,0,4.887-4.887v-6.122a4.894,4.894,0,0,0-4.887-4.891ZM119.25,50.016a1.073,1.073,0,0,1,1.058-1.058h66.273a1.073,1.073,0,0,1,1.058,1.058V59.9a1.073,1.073,0,0,1-1.058,1.058H120.309A1.073,1.073,0,0,1,119.25,59.9Zm63.511,17.293V197.476H124.13V67.309Zm-137.4-9.583a1.073,1.073,0,0,1,1.058-1.058H98.843A1.073,1.073,0,0,1,99.9,57.726v7.008H45.363ZM18.483,72.145a1.073,1.073,0,0,1,1.058-1.058h98.235v12H19.541a1.073,1.073,0,0,1-1.058-1.058ZM95.074,188.082h-.058V157.96a22.387,22.387,0,0,0-44.773,0v30.125h-.058a5.3,5.3,0,0,0-5.294,5.294v4.1H23.785V89.44h93.992V197.476H100.372v-4.1a5.3,5.3,0,0,0-5.294-5.3Zm-1.058,6.353v3.04H51.248v-3.04ZM56.6,188.082V157.96a16.034,16.034,0,1,1,32.068,0v30.125Zm51.973,18.936H6.353v-3.192H108.574v3.192Zm89.938,0h-83.58v-3.192h83.584v3.192Zm-58.8-81.581h27.469a3.176,3.176,0,0,0,3.177-3.177V91.22a16.911,16.911,0,0,0-33.822,0v31.045a3.177,3.177,0,0,0,3.182,3.176Zm13.734-44.779a10.577,10.577,0,0,1,10.069,7.382H143.377a10.577,10.577,0,0,1,10.069-7.38ZM142.887,94.4H164v9.169H142.887Zm0,15.518H164v9.177H142.887ZM139.712,186.7H167.18a3.176,3.176,0,0,0,3.177-3.177v-31.04a16.911,16.911,0,0,0-33.822,0v31.045a3.176,3.176,0,0,0,3.177,3.177Zm13.734-44.779a10.576,10.576,0,0,1,10.069,7.381H143.377a10.577,10.577,0,0,1,10.069-7.376ZM142.888,155.66H164v9.17H142.887Zm0,15.518H164v9.169H142.887Z" transform="translate(0 -42.607)"/>
    </g>
    <g id="museum" transform="translate(1638.698 2388.2)">
      <path id="Path_455" data-name="Path 455" class="cls-2" d="M246.1,72.394c-34-10.1-122.021,19.879-122.021,109.821H246.2S280.1,82.49,246.1,72.394Z" transform="translate(-61.228 -67.35)"/>
      <path id="Path_456" data-name="Path 456" class="cls-2" d="M332.354,99.626h-71.5a119.392,119.392,0,0,0-11.279,6.353h85.1A33.341,33.341,0,0,0,332.354,99.626Z" transform="translate(-136.51 -84.807)"/>
      <path id="Path_457" data-name="Path 457" class="cls-2" d="M259.961,110.017h0c-12.781-12.781-47.266-9.725-78,8.261-4.661-2.295-9.089-4.644-13.332-6.9-24.585,17.781-44.553,47.014-44.553,89.848H246.2S266.413,141.757,259.961,110.017Z" transform="translate(-61.227 -86.363)"/>
      <path id="Path_458" data-name="Path 458" class="cls-2" d="M263.332,132.852C238.265,107.786,129.7,143.634,129.7,233.577H251.812S288.4,157.919,263.332,132.852Z" transform="translate(-64.596 -100.062)"/>
      <path id="Path_459" data-name="Path 459" class="cls-2" d="M319.466,194.377H216.337q-3.642,3.017-7.083,6.353H319.831A62.969,62.969,0,0,0,319.466,194.377Z" transform="translate(-112.322 -141.646)"/>
      <path id="Path_460" data-name="Path 460" class="cls-2" d="M245.948,164.414c-20.1,0-36.89-5.064-51.461-11.414-33.094,15.939-64.787,48.744-64.787,97.34H251.812S270.376,211.952,272,180.8C268.765,171.111,261.071,164.414,245.948,164.414Z" transform="translate(-64.596 -116.827)"/>
      <path id="Path_461" data-name="Path 461" class="cls-2" d="M177.2,143.925c-69.592,0-99.528-60.709-135-25.237s-.237,112.934-.237,112.934h147.5S231.927,143.925,177.2,143.925Z" transform="translate(-2.617 -89.569)"/>
      <path id="Path_462" data-name="Path 462" class="cls-2" d="M117.308,160.153H34.61a52.875,52.875,0,0,0-3.122,6.353H131.65C126.619,164.538,121.857,162.375,117.308,160.153ZM203.577,192.9H26.411q-.079,3.17.03,6.353h178.4a37.888,37.888,0,0,0-1.259-6.353ZM31.417,232.01H200.991c.572-2.083,1.108-4.2,1.6-6.353H29.92Q30.629,228.914,31.417,232.01Z" transform="translate(-2.619 -121.116)"/>
      <path id="Path_463" data-name="Path 463" class="cls-2" d="M194.451,425.447a1.715,1.715,0,0,1-1.71,1.711H-2.348c-.941,0-9.712-.77-9.712-1.711v-6.122c0-.941,8.771-1.711,9.712-1.711H192.743a1.715,1.715,0,0,1,1.71,1.711v6.122Z" transform="translate(20.44 -275.561)"/>
      <path id="Path_464" data-name="Path 464" class="cls-2" d="M175.4,349.693V310.747a6.372,6.372,0,0,0-6.353-6.353H142.37a6.372,6.372,0,0,0-6.353,6.353v38.946Z" transform="translate(-68.388 -207.64)"/>
      <path id="Path_465" data-name="Path 465" class="cls-2" d="M393.13,366.149V339.842a7.8,7.8,0,0,0-7.509-8.021H347.131a7.8,7.8,0,0,0-7.509,8.021v26.306Z" transform="translate(-190.526 -224.096)"/>
      <path id="Path_466" data-name="Path 466" class="cls-2" d="M342.648,379.325V359.754a5.985,5.985,0,0,0-5.967-5.967H296.9a5.985,5.985,0,0,0-5.967,5.967v19.571Z" transform="translate(-161.318 -237.272)"/>
      <path id="Path_467" data-name="Path 467" class="cls-2" d="M168.181,201.465h4.605V178.337a11.423,11.423,0,0,0-3.29-8.071,121.9,121.9,0,0,0,2.488-12.884l.068.019c8.189-29.213,7.509-50.027-2-61.954-.939-17.35-6.743-27.733-17.268-30.857-10.63-3.158-25.58-2.55-41.02,1.665A121.619,121.619,0,0,0,66.158,90C55.164,84.179,45.483,79.307,35.9,77.848c-11.814-1.8-21.838,1.894-31.561,11.614-8.592,8.592-13.943,20.173-15.9,34.424-1.537,11.174-1,24.014,1.6,38.165A212.305,212.305,0,0,0,1.561,201.465H-31.8c-2.7,0,0,2.192,0,4.887v6.126c0,2.7-1.656,4.716,1.039,4.716l210.941.172a4.893,4.893,0,0,0,4.887-4.888v-9.345C185.071,200.439,170.875,201.465,168.181,201.465Zm2.526-68.982a27.954,27.954,0,0,0-4.4-8.465c-5.262-6.8-13.578-10.245-24.719-10.245-18.447,0-33.884-4.3-47.556-10,12.915-6.836,26.7-11.263,39.4-12.6,13.57-1.425,24.529.928,30.056,6.457C171.172,105.308,172.315,118.672,170.706,132.483Zm-28.34,43.452H119.853a4.277,4.277,0,0,1,3.755-2.437H162.1a4.615,4.615,0,0,1,4.334,4.845V201.47H151.514v-16.4A9.154,9.154,0,0,0,142.367,175.934Zm2.791,9.144v16.386H99.792v-16.39a2.794,2.794,0,0,1,2.791-2.791h39.783a2.794,2.794,0,0,1,2.79,2.791ZM113.433,72.385c14.329-3.912,28.012-4.532,37.539-1.7,6.461,1.918,10.512,8.2,12.1,18.712-7.281-4.249-17.768-5.857-30.3-4.54-14.918,1.567-31.2,7.122-46.021,15.685-5.04-2.361-9.852-4.852-14.5-7.309A115.41,115.41,0,0,1,113.433,72.385ZM-3.73,160.789c-2.464-13.469-2.978-25.61-1.527-36.1,1.773-12.815,6.515-23.159,14.093-30.736,17.775-17.775,33.389-9.481,57.022,3.072,19.372,10.29,43.481,23.1,75.731,23.1,9.073,0,15.7,2.618,19.7,7.78,5.848,7.556,6.662,21.125,2.4,39.36a10.231,10.231,0,0,0-1.583-.124h-38.49a10.832,10.832,0,0,0-10.435,8.793h-10.59a9.154,9.154,0,0,0-9.144,9.144v16.386H77.195v-35.77a9.539,9.539,0,0,0-9.529-9.529H40.988a9.54,9.54,0,0,0-9.529,9.529v35.77H8.44a208.14,208.14,0,0,1-12.17-40.68ZM70.842,165.7v35.769H37.8v-35.77a3.18,3.18,0,0,1,3.185-3.176H67.669a3.181,3.181,0,0,1,3.173,3.176Zm107.876,45.32H-25.443v-3.193H178.718v3.192Z" transform="translate(32.996 -62.592)"/>
    </g>
    <g id="skyscraper-1" transform="translate(1845.963 2350.987)">
      <g id="Group_125" data-name="Group 125" transform="translate(8.013 3.182)">
        <path id="Path_468" data-name="Path 468" class="cls-2" d="M53.139,24a33.149,33.149,0,0,1,22.375,8.646A26.666,26.666,0,0,1,112.2,54.236c.114,1,.338,3.04-2.536,3.04h-87.1c-1.728,0-2.638-2.2-2.532-3.289A33.278,33.278,0,0,1,53.139,24Z" transform="translate(-20.021 -24)"/>
        <path id="Path_469" data-name="Path 469" class="cls-2" d="M326.149,126.16a33.149,33.149,0,0,0-22.375,8.646,26.666,26.666,0,0,0-36.686,21.59c-.114,1-.338,3.04,2.536,3.04h87.1c1.728,0,2.638-2.2,2.532-3.289a33.278,33.278,0,0,0-33.111-29.987Z" transform="translate(-168.199 -85.286)"/>
      </g>
      <path id="Path_470" data-name="Path 470" class="cls-2" d="M238,50.139c2.33,0,2.747-1.192.93-2.648L211.448,25.469a5.548,5.548,0,0,0-6.608,0L177.354,47.49c-1.818,1.456-1.4,2.648.93,2.648Z" transform="translate(-105.712 -21.047)"/>
      <path id="Path_471" data-name="Path 471" class="cls-2" d="M238.933,72.461,230.874,66H185.411l-8.06,6.458c-1.818,1.456-1.4,2.648.93,2.648H238C240.332,75.111,240.751,73.916,238.933,72.461Z" transform="translate(-105.713 -46.017)"/>
      <rect id="Rectangle_93" data-name="Rectangle 93" class="cls-2" width="77.733" height="140.24" transform="translate(63.566 43.79)"/>
      <rect id="Rectangle_94" data-name="Rectangle 94" class="cls-2" width="23.001" height="24.247" transform="translate(90.93 159.817)"/>
      <g id="Group_126" data-name="Group 126" transform="translate(63.566 85.007)">
        <rect id="Rectangle_95" data-name="Rectangle 95" class="cls-2" width="77.733" height="19.003" transform="translate(0 45.279)"/>
        <rect id="Rectangle_96" data-name="Rectangle 96" class="cls-2" width="77.733" height="19.003"/>
      </g>
      <path id="Path_472" data-name="Path 472" class="cls-2" d="M206.448,471.984a1.715,1.715,0,0,1-1.71,1.71H9.649a1.715,1.715,0,0,1-1.71-1.71v-6.122a1.716,1.716,0,0,1,1.71-1.711H204.738a1.715,1.715,0,0,1,1.71,1.711Z" transform="translate(-4.762 -284.857)"/>
      <rect id="Rectangle_97" data-name="Rectangle 97" class="cls-2" width="102.763" height="9.545" transform="translate(51.052 179.294)"/>
      <rect id="Rectangle_98" data-name="Rectangle 98" class="cls-2" width="6.353" height="135.506" transform="translate(77.233 43.79)"/>
      <rect id="Rectangle_99" data-name="Rectangle 99" class="cls-2" width="6.353" height="135.506" transform="translate(121.279 43.79)"/>
      <path id="Path_473" data-name="Path 473" class="cls-2" d="M236.592,95.888V80.379a4.248,4.248,0,0,0-4.235-4.235H163.1a4.248,4.248,0,0,0-4.235,4.235V95.888Z" transform="translate(-95.297 -52.101)"/>
      <path id="Path_474" data-name="Path 474" class="cls-2" d="M196.2,98.561a3.176,3.176,0,0,1-3.177-3.177V90.579a3.177,3.177,0,0,1,6.354,0v4.806A3.177,3.177,0,0,1,196.2,98.561Z" transform="translate(-115.788 -58.856)"/>
      <path id="Path_475" data-name="Path 475" class="cls-2" d="M251.237,98.561a3.176,3.176,0,0,1-3.177-3.177V90.579a3.177,3.177,0,0,1,6.354,0v4.806A3.176,3.176,0,0,1,251.237,98.561Z" transform="translate(-148.805 -58.856)"/>
      <path id="Path_476" data-name="Path 476" class="cls-2" d="M306.278,98.561a3.176,3.176,0,0,1-3.177-3.177V90.579a3.177,3.177,0,1,1,6.354,0v4.806a3.176,3.176,0,0,1-3.177,3.177Z" transform="translate(-181.823 -58.856)"/>
      <path id="Path_477" data-name="Path 477" class="cls-2" d="M151.573,374.054c0-8.063-6.537-35.757-14.6-35.757s-14.6,27.695-14.6,35.757a14.6,14.6,0,1,0,29.2,0Z" transform="translate(-73.41 -209.36)"/>
      <g id="Group_127" data-name="Group 127" transform="translate(11.103 128.937)">
        <path id="Path_478" data-name="Path 478" class="cls-2" d="M56.947,374.054c0-8.063-6.537-35.757-14.6-35.757s-14.6,27.695-14.6,35.757a14.6,14.6,0,1,0,29.2,0Z" transform="translate(-27.749 -338.297)"/>
        <path id="Path_479" data-name="Path 479" class="cls-2" d="M411.279,374.054c0-8.063,6.537-35.757,14.6-35.757s14.6,27.695,14.6,35.757a14.6,14.6,0,1,1-29.2,0Z" transform="translate(-257.82 -338.297)"/>
      </g>
      <path id="Path_480" data-name="Path 480" class="cls-2" d="M316.653,374.054c0-8.063,6.537-35.757,14.6-35.757s14.6,27.695,14.6,35.757a14.6,14.6,0,1,1-29.2,0Z" transform="translate(-189.953 -209.36)"/>
      <rect id="Rectangle_100" data-name="Rectangle 100" class="cls-2" width="6.353" height="19.474" transform="translate(99.256 159.817)"/>
      <rect id="Rectangle_101" data-name="Rectangle 101" class="cls-2" width="6.353" height="19.003" transform="translate(99.256 85.007)"/>
      <rect id="Rectangle_102" data-name="Rectangle 102" class="cls-2" width="6.353" height="19.003" transform="translate(99.256 130.285)"/>
      <path id="Path_481" data-name="Path 481" class="cls-2" d="M199.976,192.173h-7.209a17.693,17.693,0,0,0,4.17-11.422c0-4.159-1.556-13.25-4.438-21.906-3.817-11.459-8.179-17.028-13.336-17.028s-9.519,5.57-13.337,17.028c-2.883,8.656-4.438,17.746-4.438,21.906a17.691,17.691,0,0,0,4.17,11.422H154.906a17.691,17.691,0,0,0,4.17-11.422c0-4.159-1.556-13.25-4.438-21.906-3-9.028-6.354-14.4-10.16-16.27V96.563h52.071a5.306,5.306,0,0,0,3.952-1.809,6.885,6.885,0,0,0,1.74-4.967,36.443,36.443,0,0,0-57.768-25.84V44.334a7.42,7.42,0,0,0-7.409-7.409h-5.725L107.728,18a8.743,8.743,0,0,0-10.583,0l-9.89,7.924a29.888,29.888,0,0,0-23.1-1.68A36.456,36.456,0,0,0,4.857,48.91,6.889,6.889,0,0,0,6.6,53.877a5.306,5.306,0,0,0,3.952,1.809H60.388v86.889c-3.8,1.873-7.153,7.243-10.16,16.27-2.883,8.656-4.439,17.747-4.439,21.906a17.691,17.691,0,0,0,4.171,11.423H39.308a17.691,17.691,0,0,0,4.17-11.422c0-4.159-1.556-13.25-4.439-21.906-3.817-11.459-8.18-17.028-13.337-17.028s-9.519,5.57-13.336,17.028c-2.883,8.656-4.438,17.747-4.438,21.906a17.693,17.693,0,0,0,4.17,11.422H4.889A4.892,4.892,0,0,0,0,197.061v6.122a4.893,4.893,0,0,0,4.887,4.887H199.976a4.893,4.893,0,0,0,4.887-4.887v-6.122a4.894,4.894,0,0,0-4.887-4.888ZM144.471,71.8a3.166,3.166,0,0,0,1.25-.695,30.1,30.1,0,0,1,50.171,19.1H144.471ZM18.394,160.853C21.842,150.5,24.9,148.17,25.7,148.17s3.861,2.331,7.309,12.683c2.541,7.627,4.113,16.267,4.113,19.9a11.423,11.423,0,1,1-22.845,0C14.28,177.12,15.853,168.481,18.394,160.853Zm29.48,40.867H6.353v-3.192H47.874ZM137.062,43.276a1.073,1.073,0,0,1,1.058,1.058V56.668H66.736V44.334a1.073,1.073,0,0,1,1.058-1.058h69.268Zm-9.37,148.9H117.107v-16.3a3.176,3.176,0,0,0-3.177-3.177h-23a3.176,3.176,0,0,0-3.177,3.177v16.3H77.168a17.691,17.691,0,0,0,4.17-11.422c0-4.159-1.556-13.25-4.438-21.906-3-9.027-6.354-14.4-10.16-16.27V63.021h71.385v79.554c-3.8,1.873-7.153,7.243-10.16,16.27-2.883,8.656-4.438,17.746-4.438,21.906a17.692,17.692,0,0,0,4.167,11.422Zm-16.94-13.122v13.122H94.106V179.051Zm-9.64-156.093a2.414,2.414,0,0,1,2.638,0l17.43,13.967h-37.5ZM11.2,49.332a30.1,30.1,0,0,1,50.173-19.1,3.178,3.178,0,0,0,3.353.584,23.542,23.542,0,0,1,16.928-.4l-8.131,6.511H67.8a7.42,7.42,0,0,0-7.409,7.409v5H11.2Zm45.053,111.52C59.7,150.5,62.76,148.17,63.561,148.17s3.861,2.331,7.309,12.683c2.541,7.627,4.113,16.267,4.113,19.9a11.423,11.423,0,1,1-22.845,0c0-3.631,1.576-12.271,4.117-19.9Zm94.382,40.865H54.22v-3.192h96.414Zm-9.337-9.545a11.435,11.435,0,0,1-11.423-11.422c0-3.63,1.573-12.271,4.113-19.9,3.449-10.352,6.508-12.683,7.309-12.683s3.861,2.331,7.309,12.683c2.541,7.627,4.113,16.267,4.113,19.9A11.435,11.435,0,0,1,141.3,192.173Zm30.552-31.32c3.449-10.352,6.508-12.683,7.309-12.683s3.861,2.331,7.309,12.683c2.541,7.627,4.113,16.267,4.113,19.9a11.423,11.423,0,1,1-22.845,0c0-3.631,1.576-12.271,4.117-19.9ZM198.51,201.72H156.986v-3.192h41.521v3.192Z" transform="translate(0 -16.056)"/>
    </g>
    <g id="building" transform="translate(2226.079 2344.587)">
      <path id="Path_482" data-name="Path 482" class="cls-2" d="M187.343,32.254V20.366A4.258,4.258,0,0,0,183.1,16.12H155.334a4.258,4.258,0,0,0-4.246,4.246V32.254Z" transform="translate(-90.634 -12.943)"/>
      <rect id="Rectangle_103" data-name="Rectangle 103" class="cls-2" width="36.258" height="6.934" transform="translate(60.454 12.377)"/>
      <rect id="Rectangle_104" data-name="Rectangle 104" class="cls-2" width="95.957" height="160.061" transform="translate(51.28 29.769)"/>
      <rect id="Rectangle_105" data-name="Rectangle 105" class="cls-2" width="95.957" height="10.925" transform="translate(51.28 29.769)"/>
      <path id="Path_483" data-name="Path 483" class="cls-2" d="M220.838,52.432a2.981,2.981,0,0,0-2.973-2.972H114.721a2.981,2.981,0,0,0-2.973,2.972V63.9a2.982,2.982,0,0,0,2.973,2.973H217.867a2.982,2.982,0,0,0,2.973-2.973V52.432Z" transform="translate(-67.035 -32.943)"/>
      <rect id="Rectangle_106" data-name="Rectangle 106" class="cls-2" width="18.351" height="8.831" transform="translate(128.886 94.483)"/>
      <rect id="Rectangle_107" data-name="Rectangle 107" class="cls-2" width="18.351" height="8.831" transform="translate(51.28 65.515)"/>
      <rect id="Rectangle_108" data-name="Rectangle 108" class="cls-2" width="18.351" height="8.831" transform="translate(118.531 146.026)"/>
      <rect id="Rectangle_109" data-name="Rectangle 109" class="cls-2" width="18.351" height="8.831" transform="translate(60.454 121.474)"/>
      <rect id="Rectangle_110" data-name="Rectangle 110" class="cls-2" width="18.351" height="8.831" transform="translate(51.28 168.184)"/>
      <rect id="Rectangle_111" data-name="Rectangle 111" class="cls-2" width="18.351" height="8.83" transform="translate(99.261 75.633)"/>
      <rect id="Rectangle_112" data-name="Rectangle 112" class="cls-2" width="18.351" height="8.831" transform="translate(121.339 43.22)"/>
      <path id="Path_484" data-name="Path 484" class="cls-2" d="M186.514,429.529a2.129,2.129,0,0,1-2.124,2.124H163.083a2.129,2.129,0,0,1-2.123-2.124v-4.386a2.13,2.13,0,0,1,2.123-2.124h21.308a2.13,2.13,0,0,1,2.124,2.124v4.387Z" transform="translate(-96.557 -257.033)"/>
      <path id="Path_485" data-name="Path 485" class="cls-2" d="M188.441,382.083V361.175a2.129,2.129,0,0,0-2.123-2.123H172.732a2.128,2.128,0,0,0-2.122,2.122v20.909Z" transform="translate(-102.344 -218.661)"/>
      <path id="Path_486" data-name="Path 486" class="cls-2" d="M186.319,359.053H172.732a2.128,2.128,0,0,0-2.122,2.122v3.376a2.129,2.129,0,0,1,2.122-2.124h13.587a2.13,2.13,0,0,1,2.123,2.124v-3.376a2.129,2.129,0,0,0-2.123-2.123Z" transform="translate(-102.344 -218.661)"/>
      <path id="Path_487" data-name="Path 487" class="cls-2" d="M186.514,423.123a2.129,2.129,0,0,1-2.124,2.124H163.083a2.129,2.129,0,0,1-2.123-2.124v-4.387a2.128,2.128,0,0,1,2.123-2.122h21.308a2.129,2.129,0,0,1,2.124,2.122v4.387Z" transform="translate(-96.557 -253.19)"/>
      <path id="Path_488" data-name="Path 488" class="cls-2" d="M271.312,429.529a2.13,2.13,0,0,0,2.122,2.124h21.308a2.129,2.129,0,0,0,2.124-2.124v-4.386a2.129,2.129,0,0,0-2.124-2.124H273.435a2.13,2.13,0,0,0-2.122,2.124Z" transform="translate(-162.754 -257.033)"/>
      <path id="Path_489" data-name="Path 489" class="cls-2" d="M280.963,382.083V361.175a2.129,2.129,0,0,1,2.121-2.123h13.587a2.13,2.13,0,0,1,2.124,2.122v20.909Z" transform="translate(-168.544 -218.661)"/>
      <path id="Path_490" data-name="Path 490" class="cls-2" d="M283.083,359.053h13.587a2.13,2.13,0,0,1,2.124,2.122v3.376a2.13,2.13,0,0,0-2.124-2.124H283.083a2.129,2.129,0,0,0-2.121,2.124v-3.376a2.129,2.129,0,0,1,2.121-2.123Z" transform="translate(-168.543 -218.661)"/>
      <path id="Path_491" data-name="Path 491" class="cls-2" d="M271.312,423.123a2.13,2.13,0,0,0,2.122,2.123h21.308a2.129,2.129,0,0,0,2.124-2.124v-4.387a2.129,2.129,0,0,0-2.124-2.122H273.435a2.129,2.129,0,0,0-2.122,2.122Z" transform="translate(-162.754 -253.19)"/>
      <path id="Path_492" data-name="Path 492" class="cls-2" d="M186.514,312.269a2.13,2.13,0,0,1-2.124,2.124H163.083a2.13,2.13,0,0,1-2.123-2.124v-4.387a2.13,2.13,0,0,1,2.123-2.124h21.308a2.13,2.13,0,0,1,2.124,2.124v4.387Z" transform="translate(-96.557 -186.691)"/>
      <path id="Path_493" data-name="Path 493" class="cls-2" d="M188.441,264.827V243.916a2.129,2.129,0,0,0-2.123-2.123H172.732a2.128,2.128,0,0,0-2.122,2.123v20.912Z" transform="translate(-102.344 -148.319)"/>
      <path id="Path_494" data-name="Path 494" class="cls-2" d="M186.319,241.793H172.732a2.128,2.128,0,0,0-2.122,2.123v3.376a2.129,2.129,0,0,1,2.122-2.124h13.587a2.13,2.13,0,0,1,2.123,2.124v-3.376a2.129,2.129,0,0,0-2.123-2.123Z" transform="translate(-102.344 -148.319)"/>
      <path id="Path_495" data-name="Path 495" class="cls-2" d="M186.514,305.862a2.13,2.13,0,0,1-2.124,2.124H163.083a2.129,2.129,0,0,1-2.123-2.124v-4.387a2.128,2.128,0,0,1,2.123-2.123h21.308a2.128,2.128,0,0,1,2.124,2.123v4.387Z" transform="translate(-96.557 -182.848)"/>
      <path id="Path_496" data-name="Path 496" class="cls-2" d="M271.312,312.269a2.13,2.13,0,0,0,2.122,2.124h21.308a2.129,2.129,0,0,0,2.124-2.124v-4.387a2.129,2.129,0,0,0-2.124-2.124H273.435a2.13,2.13,0,0,0-2.122,2.124Z" transform="translate(-162.754 -186.691)"/>
      <path id="Path_497" data-name="Path 497" class="cls-2" d="M280.963,264.827V243.916a2.129,2.129,0,0,1,2.121-2.123h13.587a2.13,2.13,0,0,1,2.124,2.123v20.912Z" transform="translate(-168.544 -148.319)"/>
      <path id="Path_498" data-name="Path 498" class="cls-2" d="M283.083,241.793h13.587a2.13,2.13,0,0,1,2.124,2.123v3.376a2.13,2.13,0,0,0-2.124-2.124H283.083a2.129,2.129,0,0,0-2.121,2.124v-3.376a2.129,2.129,0,0,1,2.121-2.123Z" transform="translate(-168.543 -148.319)"/>
      <path id="Path_499" data-name="Path 499" class="cls-2" d="M271.312,305.862a2.13,2.13,0,0,0,2.122,2.124h21.308a2.129,2.129,0,0,0,2.124-2.124v-4.387a2.129,2.129,0,0,0-2.124-2.123H273.435a2.128,2.128,0,0,0-2.122,2.123Z" transform="translate(-162.754 -182.848)"/>
      <path id="Path_500" data-name="Path 500" class="cls-2" d="M186.514,195.008a2.13,2.13,0,0,1-2.124,2.124H163.083a2.129,2.129,0,0,1-2.123-2.124v-4.387a2.13,2.13,0,0,1,2.123-2.124h21.308a2.13,2.13,0,0,1,2.124,2.124v4.387Z" transform="translate(-96.557 -116.349)"/>
      <path id="Path_501" data-name="Path 501" class="cls-2" d="M188.441,147.564V126.656a2.129,2.129,0,0,0-2.123-2.123H172.732a2.129,2.129,0,0,0-2.122,2.123v20.909Z" transform="translate(-102.344 -77.978)"/>
      <path id="Path_502" data-name="Path 502" class="cls-2" d="M186.319,124.533H172.732a2.129,2.129,0,0,0-2.122,2.123v3.376a2.13,2.13,0,0,1,2.122-2.124h13.587a2.13,2.13,0,0,1,2.123,2.124v-3.376A2.129,2.129,0,0,0,186.319,124.533Z" transform="translate(-102.344 -77.978)"/>
      <path id="Path_503" data-name="Path 503" class="cls-2" d="M186.514,188.6a2.13,2.13,0,0,1-2.124,2.124H163.083a2.128,2.128,0,0,1-2.123-2.124v-4.387a2.129,2.129,0,0,1,2.123-2.124h21.308a2.13,2.13,0,0,1,2.124,2.124V188.6Z" transform="translate(-96.557 -112.506)"/>
      <path id="Path_504" data-name="Path 504" class="cls-2" d="M271.312,195.008a2.13,2.13,0,0,0,2.122,2.124h21.308a2.129,2.129,0,0,0,2.124-2.124v-4.387a2.13,2.13,0,0,0-2.124-2.124H273.435a2.129,2.129,0,0,0-2.122,2.124Z" transform="translate(-162.754 -116.349)"/>
      <path id="Path_505" data-name="Path 505" class="cls-2" d="M280.963,147.564V126.656a2.129,2.129,0,0,1,2.121-2.123h13.587a2.13,2.13,0,0,1,2.124,2.123v20.909Z" transform="translate(-168.544 -77.978)"/>
      <path id="Path_506" data-name="Path 506" class="cls-2" d="M283.083,124.533h13.587a2.13,2.13,0,0,1,2.124,2.123v3.376a2.13,2.13,0,0,0-2.124-2.124H283.083a2.129,2.129,0,0,0-2.121,2.124v-3.376A2.129,2.129,0,0,1,283.083,124.533Z" transform="translate(-168.543 -77.978)"/>
      <path id="Path_507" data-name="Path 507" class="cls-2" d="M271.312,188.6a2.13,2.13,0,0,0,2.122,2.124h21.308a2.129,2.129,0,0,0,2.124-2.124v-4.387a2.13,2.13,0,0,0-2.124-2.124H273.435a2.13,2.13,0,0,0-2.122,2.124Z" transform="translate(-162.754 -112.506)"/>
      <path id="Path_508" data-name="Path 508" class="cls-2" d="M206.448,479.858a1.715,1.715,0,0,1-1.71,1.711H9.649a1.715,1.715,0,0,1-1.71-1.711v-6.122a1.715,1.715,0,0,1,1.71-1.711H204.738a1.715,1.715,0,0,1,1.71,1.711Z" transform="translate(-4.762 -286.43)"/>
      <rect id="Rectangle_113" data-name="Rectangle 113" class="cls-2" width="137.132" height="9.545" transform="translate(33.865 185.595)"/>
      <path id="Path_509" data-name="Path 509" class="cls-2" d="M66.527,89.576H87.835a5.306,5.306,0,0,0,5.3-5.3V79.885a5.306,5.306,0,0,0-3.861-5.1V56.858a5.306,5.306,0,0,0-5.3-5.3H70.383a5.306,5.306,0,0,0-5.3,5.3V74.794a5.306,5.306,0,0,0-3.861,5.1v4.387A5.306,5.306,0,0,0,66.527,89.576Zm4.915-31.665H82.92V74.591H71.441ZM67.581,80.939h19.2V83.22H67.58V80.943ZM199.976,190.6H163.327V72.706a16.119,16.119,0,0,0-12.915-15.773V45.282h.418a6.156,6.156,0,0,0,6.148-6.148V27.669a6.155,6.155,0,0,0-6.148-6.148H99.887V15.6a7.431,7.431,0,0,0-7.422-7.422H64.7A7.431,7.431,0,0,0,57.277,15.6v5.913H47.686a6.156,6.156,0,0,0-6.149,6.148V39.137a6.156,6.156,0,0,0,6.149,6.148H48.1V190.6H4.887A4.893,4.893,0,0,0,0,195.487v6.122A4.893,4.893,0,0,0,4.887,206.5H199.976a4.893,4.893,0,0,0,4.887-4.888v-6.122A4.894,4.894,0,0,0,199.976,190.6Zm-43-117.893V86.293h-6.56V63.506a9.752,9.752,0,0,1,6.56,9.2Zm-6.56,78.325V125.018h6.56v26.015Zm6.56,6.353V190.6h-6.56V157.385Zm-6.56-38.72V92.649h6.56v26.015ZM63.63,15.6a1.084,1.084,0,0,1,1.07-1.069H92.466A1.084,1.084,0,0,1,93.535,15.6v5.913H63.63V15.6ZM47.89,38.93V27.873H150.627V38.928Zm96.172,6.353V190.6H54.456V45.282ZM30.688,200.144H6.353v-3.192H30.688Zm137.133,0H37.044v-3.192H167.821v3.192Zm30.689,0H174.173v-3.192h24.336Zm-87.829-16.73h21.308a5.306,5.306,0,0,0,5.3-5.3v-4.388a5.306,5.306,0,0,0-3.861-5.1V150.695a5.306,5.306,0,0,0-5.3-5.3H114.543a5.306,5.306,0,0,0-5.3,5.3v17.936a5.306,5.306,0,0,0-3.861,5.1v4.387a5.306,5.306,0,0,0,5.3,5.3Zm4.914-31.665h11.48v16.679H115.6Zm-3.861,23.027h19.2v2.281h-19.2ZM66.526,183.41H87.835a5.306,5.306,0,0,0,5.3-5.3v-4.384a5.306,5.306,0,0,0-3.861-5.1V150.695a5.306,5.306,0,0,0-5.3-5.3H70.383a5.306,5.306,0,0,0-5.3,5.3v17.936a5.306,5.306,0,0,0-3.861,5.1v4.387a5.306,5.306,0,0,0,5.3,5.3Zm4.915-31.665H82.92v16.679H71.441ZM67.58,174.773h19.2v2.281H67.58v-2.281Zm-1.054-38.285H87.835a5.306,5.306,0,0,0,5.3-5.3V126.8a5.306,5.306,0,0,0-3.861-5.1V103.776a5.306,5.306,0,0,0-5.3-5.3H70.383a5.306,5.306,0,0,0-5.3,5.3v17.936a5.306,5.306,0,0,0-3.861,5.1V131.2a5.306,5.306,0,0,0,5.3,5.3Zm4.915-31.665H82.92V121.5H71.441ZM67.58,127.85h19.2v2.295H67.58v-2.283Zm43.1-38.285h21.308a5.306,5.306,0,0,0,5.3-5.3v-4.38a5.306,5.306,0,0,0-3.861-5.1V56.858a5.306,5.306,0,0,0-5.3-5.3H114.543a5.306,5.306,0,0,0-5.3,5.3V74.794a5.306,5.306,0,0,0-3.861,5.1v4.387a5.306,5.306,0,0,0,5.3,5.3ZM115.6,57.9h11.48V74.591H115.6Zm-3.861,23.027h19.2v2.281h-19.2Zm-1.053,55.552h21.308a5.306,5.306,0,0,0,5.3-5.3v-4.387a5.306,5.306,0,0,0-3.861-5.1v-17.92a5.306,5.306,0,0,0-5.3-5.3H114.543a5.306,5.306,0,0,0-5.3,5.3v17.936a5.306,5.306,0,0,0-3.861,5.1V131.2a5.306,5.306,0,0,0,5.3,5.3Zm4.914-31.665h11.48v16.679H115.6Zm-3.861,23.027h19.2v2.3h-19.2Z" transform="translate(0 -8.181)"/>
    </g>
    <g id="school" transform="translate(2044.823 2367.394)">
      <path id="Path_510" data-name="Path 510" class="cls-2" d="M195.787,171.48A8.141,8.141,0,0,0,189.5,167.9H36A8.142,8.142,0,0,0,29.7,171.48l-12,20.148c-1.171,1.967-.257,3.576,2.032,3.576H205.754c2.289,0,3.2-1.609,2.033-3.576Z" transform="translate(-10.314 -115.396)"/>
      <path id="Path_511" data-name="Path 511" class="cls-2" d="M31.141,196.4h75.124v-6.353H34.924ZM207.3,190.045H135.105V196.4h75.978Z" transform="translate(-18.681 -128.678)"/>
      <path id="Path_512" data-name="Path 512" class="cls-2" d="M135.285,181.554,113.66,146.839,92.034,181.554H19.425v84h188.46v-84Z" transform="translate(-11.653 -102.76)"/>
      <path id="Path_513" data-name="Path 513" class="cls-2" d="M142.045,189.126a5.758,5.758,0,0,1-4.373-2.421l-1.312-2.091h-1.08l-20.156-32.35a3.5,3.5,0,0,0-2.946,0L92.026,184.613H90.948L89.636,186.7a5.759,5.759,0,0,1-4.374,2.421H19.425v11.162H88.807a5.507,5.507,0,0,0,4.292-2.47l16.943-25.943c1.985-3.388,5.237-3.388,7.223,0l16.943,25.943a5.507,5.507,0,0,0,4.292,2.47h69.382V189.126Z" transform="translate(-11.653 -105.818)"/>
      <g id="Group_129" data-name="Group 129" transform="translate(7.772 86.695)">
        <rect id="Rectangle_114" data-name="Rectangle 114" class="cls-2" width="18.305" height="8.808" transform="translate(170.157 9.775)"/>
        <rect id="Rectangle_115" data-name="Rectangle 115" class="cls-2" width="18.305" height="8.807" transform="translate(115.252 28.011)"/>
        <rect id="Rectangle_116" data-name="Rectangle 116" class="cls-2" width="18.305" height="8.807" transform="translate(148.4 59.28)"/>
        <rect id="Rectangle_117" data-name="Rectangle 117" class="cls-2" width="18.305" height="8.808" transform="translate(53.392 61.618)"/>
        <rect id="Rectangle_118" data-name="Rectangle 118" class="cls-2" width="18.305" height="8.808" transform="translate(0 18.233)"/>
        <rect id="Rectangle_119" data-name="Rectangle 119" class="cls-2" width="18.305" height="8.807" transform="translate(44.24)"/>
      </g>
      <rect id="Rectangle_120" data-name="Rectangle 120" class="cls-2" width="31.442" height="43.249" transform="translate(86.283 119.543)"/>
      <rect id="Rectangle_121" data-name="Rectangle 121" class="cls-2" width="31.442" height="5.466" transform="translate(86.283 119.543)"/>
      <g id="Group_130" data-name="Group 130" transform="translate(53.41 112.251)">
        <rect id="Rectangle_122" data-name="Rectangle 122" class="cls-2" width="6.353" height="11.968" transform="translate(38.871 17.301)"/>
        <rect id="Rectangle_123" data-name="Rectangle 123" class="cls-2" width="6.353" height="11.968" transform="translate(51.962 17.301)"/>
        <rect id="Rectangle_124" data-name="Rectangle 124" class="cls-2" width="18.479" height="25.424"/>
      </g>
      <rect id="Rectangle_125" data-name="Rectangle 125" class="cls-2" width="18.479" height="5.607" transform="translate(53.41 112.251)"/>
      <rect id="Rectangle_126" data-name="Rectangle 126" class="cls-2" width="18.479" height="25.424" transform="translate(17.551 112.251)"/>
      <rect id="Rectangle_127" data-name="Rectangle 127" class="cls-2" width="18.479" height="5.607" transform="translate(17.551 112.251)"/>
      <rect id="Rectangle_128" data-name="Rectangle 128" class="cls-2" width="18.479" height="25.424" transform="translate(132.117 112.251)"/>
      <rect id="Rectangle_129" data-name="Rectangle 129" class="cls-2" width="18.479" height="5.607" transform="translate(132.117 112.251)"/>
      <rect id="Rectangle_130" data-name="Rectangle 130" class="cls-2" width="18.479" height="25.424" transform="translate(167.976 112.251)"/>
      <rect id="Rectangle_131" data-name="Rectangle 131" class="cls-2" width="18.479" height="5.607" transform="translate(167.976 112.251)"/>
      <rect id="Rectangle_132" data-name="Rectangle 132" class="cls-2" width="36.689" height="21.028" transform="translate(102.005 6.095)"/>
      <rect id="Rectangle_133" data-name="Rectangle 133" class="cls-2" width="9.605" height="21.028" transform="translate(102.005 6.095)"/>
      <path id="Path_514" data-name="Path 514" class="cls-2" d="M110.56,135c-2.085-3.328-5.5-3.328-7.585,0L82.751,167.279a5.76,5.76,0,0,1-4.374,2.421H10.8a2.864,2.864,0,0,0-2.856,2.856V178a2.865,2.865,0,0,0,2.856,2.856H81.921a5.507,5.507,0,0,0,4.292-2.47l16.943-25.943c1.985-3.389,5.237-3.389,7.223,0l16.943,25.943a5.507,5.507,0,0,0,4.292,2.47h71.122A2.865,2.865,0,0,0,205.593,178v-5.448a2.865,2.865,0,0,0-2.857-2.856h-67.58a5.757,5.757,0,0,1-4.373-2.421Z" transform="translate(-4.762 -94.162)"/>
      <circle id="Ellipse_22" data-name="Ellipse 22" class="cls-2" cx="14.421" cy="14.421" r="14.421" transform="translate(87.584 82.049)"/>
      <path id="Path_515" data-name="Path 515" class="cls-2" d="M206.448,451.364a1.715,1.715,0,0,1-1.71,1.711H9.65a1.716,1.716,0,0,1-1.711-1.711v-6.122a1.716,1.716,0,0,1,1.711-1.711H204.733a1.715,1.715,0,0,1,1.71,1.711Z" transform="translate(-4.762 -280.738)"/>
      <rect id="Rectangle_134" data-name="Rectangle 134" class="cls-2" width="51.242" height="9.545" transform="translate(76.81 162.792)"/>
      <g id="Group_131" data-name="Group 131" transform="translate(21.552 148.314)">
        <path id="Path_516" data-name="Path 516" class="cls-2" d="M435.681,421.824a14.478,14.478,0,0,0-28.956,0Z" transform="translate(-265.537 -407.346)"/>
        <path id="Path_517" data-name="Path 517" class="cls-2" d="M82.819,421.824a14.478,14.478,0,0,0-28.956,0Z" transform="translate(-53.863 -407.346)"/>
      </g>
      <path id="Path_518" data-name="Path 518" class="cls-2" d="M150.6,145.751H132.118a3.177,3.177,0,0,0-3.177,3.177v25.425a3.177,3.177,0,0,0,3.177,3.177H150.6a3.177,3.177,0,0,0,3.177-3.177V148.928A3.177,3.177,0,0,0,150.6,145.751Zm-3.177,25.425H135.293v-6.36H147.42Zm0-12.715H135.293V152.1H147.42Zm42.214-9.536a3.177,3.177,0,0,0-3.177-3.177H167.978a3.177,3.177,0,0,0-3.177,3.177V174.35a3.177,3.177,0,0,0,3.177,3.177h18.479a3.177,3.177,0,0,0,3.177-3.177Zm-6.353,22.248H171.155v-6.36h12.126Zm0-12.715H171.155V152.1h12.126ZM36.03,145.743H17.55a3.177,3.177,0,0,0-3.177,3.177v25.433a3.177,3.177,0,0,0,3.177,3.177H36.03a3.177,3.177,0,0,0,3.177-3.177V148.928a3.176,3.176,0,0,0-3.177-3.177Zm-3.176,25.425H20.725v-6.36H32.853v6.36Zm0-12.715H20.725v-6.36H32.853v6.36Zm167.122,37.836h-.564V126.37a6.037,6.037,0,0,0,4.594-5.852V115.07a6.038,6.038,0,0,0-5.1-5.953L188.2,91.135a11.305,11.305,0,0,0-9.021-5.127h-64.31l-6.379-10.178a8.842,8.842,0,0,0-3.3-3.183v-5.67H138.7a3.177,3.177,0,0,0,3.177-3.177V42.775A3.177,3.177,0,0,0,138.7,39.6H105.167a3.175,3.175,0,0,0-6.34.257V72.643a8.855,8.855,0,0,0-3.3,3.183L89.141,86.006H25.681a11.3,11.3,0,0,0-9.022,5.127L6,109.038a6.039,6.039,0,0,0-6,6.031v5.448a6.038,6.038,0,0,0,4.6,5.853v69.936A4.89,4.89,0,0,0,0,201.178V207.3a4.893,4.893,0,0,0,4.888,4.888H199.976a4.893,4.893,0,0,0,4.887-4.888V201.18a4.893,4.893,0,0,0-4.887-4.891ZM105.18,45.948h30.336V60.623H105.18V45.948Zm74,46.411a5.071,5.071,0,0,1,3.562,2.025l8.725,14.651H130.4a2.774,2.774,0,0,1-1.682-.931l-9.868-15.746ZM22.119,94.384a5.069,5.069,0,0,1,3.563-2.025H85.161L75.289,108.1a2.78,2.78,0,0,1-1.682.931H13.394ZM6.353,115.393H73.611a8.879,8.879,0,0,0,7.065-3.911L100.9,79.206c.463-.739.912-1.006,1.1-1.006s.638.268,1.1,1.006l20.224,32.275a8.878,8.878,0,0,0,7.065,3.912H197.65V120.2h-70.8a2.486,2.486,0,0,1-1.546-.89L108.313,93.284a6.947,6.947,0,0,0-12.615,0L78.793,119.168l-.086.139a2.489,2.489,0,0,1-1.547.89H6.353Zm170.866,66.425a17.68,17.68,0,0,0-17.363,14.471H120.9V153.038H83.107v43.251H53.392a17.65,17.65,0,0,0-34.725,0H10.949V126.551H77.157a8.64,8.64,0,0,0,6.989-3.966L101.053,96.7l.081-.131a2.47,2.47,0,0,1,.85-.973c.1.022.467.247.892.973l16.986,26.016a8.64,8.64,0,0,0,6.989,3.967H193.06v65.133a17.674,17.674,0,0,0-15.842-9.871Zm10.844,14.471H166.374a11.3,11.3,0,0,1,21.688,0ZM114.547,159.4v36.894H89.459V159.4ZM46.874,196.289H25.186a11.3,11.3,0,0,1,21.689,0Zm26.76,9.544H6.353v-3.192h67.28Zm51.242,0H79.987v-3.192h44.889Zm73.634,0H131.23v-3.192h67.28ZM102,115.548a17.6,17.6,0,1,0,17.6,17.6,17.6,17.6,0,0,0-17.6-17.6Zm0,28.839a11.243,11.243,0,1,1,11.243-11.243A11.243,11.243,0,0,1,102,144.387Zm5.524-14.417H105.18v-2.347a3.177,3.177,0,1,0-6.354,0v5.524A3.177,3.177,0,0,0,102,136.323h5.525a3.177,3.177,0,1,0,0-6.354ZM71.891,145.751H53.411a3.177,3.177,0,0,0-3.177,3.177v25.425a3.177,3.177,0,0,0,3.177,3.177h18.48a3.177,3.177,0,0,0,3.177-3.177V148.928a3.176,3.176,0,0,0-3.177-3.177Zm-3.176,25.425H56.588v-6.36H68.714v6.36Zm0-12.715H56.588V152.1H68.714v6.36Z" transform="translate(0 -36.675)"/>
    </g>
    <g id="factory" transform="translate(2412.137 2344.989)">
      <rect id="Rectangle_135" data-name="Rectangle 135" class="cls-2" width="42.797" height="37.342" transform="translate(136.009 148.978)"/>
      <rect id="Rectangle_136" data-name="Rectangle 136" class="cls-2" width="18.351" height="8.831" transform="translate(139.986 161.073)"/>
      <rect id="Rectangle_137" data-name="Rectangle 137" class="cls-2" width="18.351" height="8.83" transform="translate(160.455 172.83)"/>
      <rect id="Rectangle_138" data-name="Rectangle 138" class="cls-2" width="42.797" height="10.024" transform="translate(136.009 148.978)"/>
      <path id="Path_519" data-name="Path 519" class="cls-2" d="M380.82,369.125a2.123,2.123,0,0,0-2.117-2.118H332.539a2.123,2.123,0,0,0-2.117,2.118v7.032a2.124,2.124,0,0,0,2.117,2.117H378.7a2.124,2.124,0,0,0,2.118-2.117v-7.032Z" transform="translate(-198.212 -223.667)"/>
      <path id="Path_520" data-name="Path 520" class="cls-2" d="M299.7,16.7a16.749,16.749,0,0,0-12.079,5.129,16.8,16.8,0,0,0-25.758,14.217c0,.077,0,.153.006.229a19.977,19.977,0,1,0,22.564,15.556,16.813,16.813,0,0,0,6.307-4.114A16.8,16.8,0,1,0,299.7,16.7Z" transform="translate(-146.923 -13.526)"/>
      <path id="Path_521" data-name="Path 521" class="cls-2" d="M271.48,114.971H231.133L222.264,258.79h58.088Z" transform="translate(-133.332 -72.476)"/>
      <path id="Path_522" data-name="Path 522" class="cls-2" d="M282.321,169.985H239.26l-.391,6.353h43.845Zm.8,12.9H238.464l-.391,6.353H283.51Z" transform="translate(-142.814 -105.478)"/>
      <rect id="Rectangle_139" data-name="Rectangle 139" class="cls-2" width="109.455" height="79.524" transform="translate(17.415 106.791)"/>
      <rect id="Rectangle_140" data-name="Rectangle 140" class="cls-2" width="18.351" height="8.83" transform="translate(108.519 157.265)"/>
      <rect id="Rectangle_141" data-name="Rectangle 141" class="cls-2" width="18.351" height="8.831" transform="translate(17.361 146.551)"/>
      <rect id="Rectangle_142" data-name="Rectangle 142" class="cls-2" width="18.351" height="8.831" transform="translate(79.758 113.35)"/>
      <rect id="Rectangle_143" data-name="Rectangle 143" class="cls-2" width="18.351" height="8.83" transform="translate(40.104 106.791)"/>
      <rect id="Rectangle_144" data-name="Rectangle 144" class="cls-2" width="18.351" height="8.83" transform="translate(33.115 169.903)"/>
      <path id="Path_523" data-name="Path 523" class="cls-2" d="M158.4,334.765a4.248,4.248,0,0,0-4.235-4.235H74.9a4.248,4.248,0,0,0-4.235,4.235v7.777a4.248,4.248,0,0,0,4.235,4.235h79.266a4.248,4.248,0,0,0,4.235-4.235Z" transform="translate(-42.387 -201.784)"/>
      <path id="Path_524" data-name="Path 524" class="cls-2" d="M158.4,318.359a4.248,4.248,0,0,0-4.235-4.235H74.9a4.248,4.248,0,0,0-4.235,4.235v7.777a4.248,4.248,0,0,0,4.235,4.235h79.266a4.248,4.248,0,0,0,4.235-4.235Z" transform="translate(-42.387 -191.943)"/>
      <path id="Path_525" data-name="Path 525" class="cls-2" d="M154.162,314.124H74.9a4.248,4.248,0,0,0-4.235,4.235v5.4a4.248,4.248,0,0,1,4.235-4.235h79.266a4.248,4.248,0,0,1,4.235,4.235v-5.4A4.248,4.248,0,0,0,154.162,314.124Z" transform="translate(-42.387 -191.943)"/>
      <g id="Group_132" data-name="Group 132" transform="translate(17.415 89.589)">
        <path id="Path_526" data-name="Path 526" class="cls-2" d="M43.522,233.338v16.535H61.765L45.193,233.3C44.533,232.64,43.522,232.288,43.522,233.338Z" transform="translate(-43.522 -232.672)"/>
        <path id="Path_527" data-name="Path 527" class="cls-2" d="M89.114,233.338v16.535h18.243L90.785,233.3C90.125,232.64,89.114,232.288,89.114,233.338Z" transform="translate(-70.871 -232.672)"/>
        <path id="Path_528" data-name="Path 528" class="cls-2" d="M134.706,233.338v16.535h18.243L136.377,233.3C135.716,232.64,134.706,232.288,134.706,233.338Z" transform="translate(-98.221 -232.672)"/>
        <path id="Path_529" data-name="Path 529" class="cls-2" d="M180.3,233.338v16.535h18.243L181.968,233.3C181.308,232.64,180.3,232.288,180.3,233.338Z" transform="translate(-125.57 -232.672)"/>
        <path id="Path_530" data-name="Path 530" class="cls-2" d="M225.89,233.338v16.535h18.243L227.561,233.3C226.9,232.64,225.89,232.288,225.89,233.338Z" transform="translate(-152.921 -232.672)"/>
        <path id="Path_531" data-name="Path 531" class="cls-2" d="M271.482,233.338v16.535h18.24L273.153,233.3C272.492,232.64,271.482,232.288,271.482,233.338Z" transform="translate(-180.27 -232.672)"/>
        <rect id="Rectangle_145" data-name="Rectangle 145" class="cls-2" width="50.755" height="32.823" transform="translate(29.351 63.902)"/>
      </g>
      <rect id="Rectangle_146" data-name="Rectangle 146" class="cls-2" width="50.755" height="6.353" transform="translate(46.765 160.268)"/>
      <rect id="Rectangle_147" data-name="Rectangle 147" class="cls-2" width="50.755" height="6.353" transform="translate(46.765 172.338)"/>
      <path id="Path_532" data-name="Path 532" class="cls-2" d="M206.448,479.277a1.715,1.715,0,0,1-1.71,1.71H9.649a1.715,1.715,0,0,1-1.71-1.71v-6.123a1.716,1.716,0,0,1,1.71-1.711H204.738a1.715,1.715,0,0,1,1.71,1.711Z" transform="translate(-4.762 -286.316)"/>
      <path id="Path_533" data-name="Path 533" class="cls-2" d="M204.982,190.716h-23V166.331a5.3,5.3,0,0,0,3.8-5.076v-7.032a5.3,5.3,0,0,0-5.294-5.294H147.357l-6.036-97.865a3.175,3.175,0,0,0-.22-.976c-.019-.37-.046-.742-.083-1.112a20.241,20.241,0,0,0,3.268-2.152A19.977,19.977,0,1,0,140.227,13.2,19.979,19.979,0,0,0,111.9,28.916,23.157,23.157,0,0,0,94.854,50.084a3.162,3.162,0,0,0-.222.979L91.9,95.316a3.811,3.811,0,0,0-2.436.143A3.743,3.743,0,0,0,87.2,99.02v8.866L76.059,96.737a4.463,4.463,0,0,0-4.834-1.281,3.742,3.742,0,0,0-2.26,3.563v8.866L57.817,96.737a4.463,4.463,0,0,0-4.834-1.281,3.742,3.742,0,0,0-2.261,3.563v8.866L39.575,96.737a4.463,4.463,0,0,0-4.834-1.281,3.743,3.743,0,0,0-2.26,3.563v8.865L21.332,96.737A4.463,4.463,0,0,0,16.5,95.457a3.742,3.742,0,0,0-2.26,3.563v91.7H4.888A4.892,4.892,0,0,0,0,195.6v6.125a4.893,4.893,0,0,0,4.887,4.887h200.1s-.119-2.193-.119-4.887v-6.122Zm-25.551-35.434V160.2H148.053l-.3-4.915Zm-3.8,11.268v24.166H149.935l-1.491-24.167Zm-60.2-131.9a3.178,3.178,0,0,0,2.7-3.184l-.006-.186a13.621,13.621,0,0,1,20.885-11.526,3.175,3.175,0,0,0,3.98-.479,13.624,13.624,0,1,1,2.536,20.991,3.177,3.177,0,0,0-3.981.479,13.705,13.705,0,0,1-5.118,3.338,3.177,3.177,0,0,0-2.015,3.647c.025.117.043.235.066.352H101.485a16.92,16.92,0,0,1,13.939-13.433ZM100.79,54.436h34.37l8.41,136.28H130.045V115.555a3.167,3.167,0,0,0-.934-2.25L112.543,96.737a4.463,4.463,0,0,0-4.834-1.281,3.742,3.742,0,0,0-2.26,3.563v8.866l-7.494-7.494Zm18.41,57.942h-7.4v-7.4Zm-25.639-7.4,7.4,7.4h-7.4Zm-18.243,0,7.4,7.4h-7.4Zm-18.243,0,7.4,7.4h-7.4Zm-18.242,0,7.4,7.4h-7.4Zm-18.243,0,7.4,7.4h-7.4Zm0,13.75h103.1v71.985h-23V162.257a3.177,3.177,0,0,0-3.179-3.179H46.764a3.177,3.177,0,0,0-3.177,3.177v28.461h-23Zm73.75,46.7v25.283h-44.4V165.433ZM198.51,200.26H6.353v-3.192H198.51Zm-79.325-57.3V135.18a7.42,7.42,0,0,0-7.409-7.409H32.509A7.42,7.42,0,0,0,25.1,135.18v7.779a7.42,7.42,0,0,0,7.409,7.409h79.266a7.42,7.42,0,0,0,7.411-7.409ZM46.1,144.017H32.508a1.073,1.073,0,0,1-1.058-1.058V135.18a1.073,1.073,0,0,1,1.058-1.058H46.1Zm22.862,0h-16.5v-9.895H68.965Zm22.861,0h-16.5v-9.895H91.826Zm6.353-9.895h13.6a1.073,1.073,0,0,1,1.058,1.058v7.778a1.073,1.073,0,0,1-1.058,1.058H98.179v-9.895Z" transform="translate(0 -8.764)"/>
    </g>
  </g>
</svg>
