<svg xmlns="http://www.w3.org/2000/svg" viewBox="1120.28 459 565.775 161.451">
  <defs>
    <style>
      .cls-1 {
        fill: #fff;
      }

      .cls-2 {
        fill: #266fef;
      }
    </style>
  </defs>
  <g id="Logo-Alt" transform="translate(1120 459)">
    <g id="Capa_1" data-name="Capa 1">
      <path id="Path_68" data-name="Path 68" class="cls-1" d="M13.7,111.57V19.73L.28,17.82V9.68H44.44v8.14L31,19.66v91.91l13.64,2v7.78H.28v-8Z"/>
      <path id="Path_69" data-name="Path 69" class="cls-1" d="M69.82,112.37V52.82L59.33,50V40.71L81,37.78h.37l3.45,2.86v6.23l-.07,3.54a45.561,45.561,0,0,1,8.47-6,56,56,0,0,1,10.93-4.72,37,37,0,0,1,11-1.83q9.53,0,14.74,3.49t7.26,10.74q2.05,7.26,2.05,19.69v40.6l10.56,1.21v7.75H113v-7.75l9.39-1.21V71.84a59,59,0,0,0-1.14-13.07A12.17,12.17,0,0,0,117,51.62q-3.15-2.4-9.32-2.4a29,29,0,0,0-11,2.34,43.31,43.31,0,0,0-10,5.67v55.14l10.12,1.21v7.75H60.21v-7.75Z"/>
      <path id="Path_70" data-name="Path 70" class="cls-1" d="M172.65,96.7l2.93,10.62a8.41,8.41,0,0,0,3.41,2.79,26.18,26.18,0,0,0,6,2.17,29.71,29.71,0,0,0,7,.84q8.29,0,11.81-3a10.15,10.15,0,0,0,3.52-8.18A9.56,9.56,0,0,0,205,95.52a23.8,23.8,0,0,0-7.08-5.23,125.379,125.379,0,0,0-12.76-5.55q-11.66-4.35-17-10.28t-5.35-15.34a16.89,16.89,0,0,1,4-11.13,26,26,0,0,1,11-7.48,43.62,43.62,0,0,1,15.7-2.67,59.1,59.1,0,0,1,11.88,1.06,98.419,98.419,0,0,1,10.34,2.75l2.64.81V60.31h-9.39l-3.15-9.78q-.88-1.82-4.73-3.14a26.34,26.34,0,0,0-8.62-1.33q-6.75,0-10.42,2.74A8.53,8.53,0,0,0,178.3,56a10.13,10.13,0,0,0,2.16,6.6,16.91,16.91,0,0,0,5.39,4.35q3.23,1.69,9,4l2.86,1.19a115.1,115.1,0,0,1,13.57,6.46A28,28,0,0,1,220,86.29a19,19,0,0,1,3.45,11.51,20.56,20.56,0,0,1-3.85,12.36,24.73,24.73,0,0,1-11.15,8.28,46,46,0,0,1-17.27,2.95,64.73,64.73,0,0,1-15.7-2.05,81.3,81.3,0,0,1-13.13-4.25V96.7Z"/>
      <path id="Path_71" data-name="Path 71" class="cls-1" d="M247.69,112.08V50.61l-10.64-3V39l23.33-3h.37l3.74,2.86v73.28l11.74,1.25v8H235.81v-8ZM247.58,3.67a10,10,0,0,1,8.1-3.45h.07a9.85,9.85,0,0,1,5.35,1.43,9.6,9.6,0,0,1,3.48,3.78,10.74,10.74,0,0,1,1.21,5,12.22,12.22,0,0,1-2.93,8.44q-2.93,3.3-8.51,3.3h-.07a9.06,9.06,0,0,1-6.93-2.86,10.11,10.11,0,0,1-2.68-7.19,12.67,12.67,0,0,1,2.91-8.45Z"/>
      <path id="Path_72" data-name="Path 72" class="cls-1" d="M323,91.25A48.08,48.08,0,0,1,311.73,90a13.8,13.8,0,0,0-3.23,4.22,10.93,10.93,0,0,0-1.17,4.88,8.19,8.19,0,0,0,1.72,5.61,9.27,9.27,0,0,0,5.21,2.68,48.751,48.751,0,0,0,9.57.73h16q28.68,0,28.68,22a23.86,23.86,0,0,1-6.05,15.7,41.56,41.56,0,0,1-16.17,11.41,55.89,55.89,0,0,1-21.71,4.22h-.07q-19.66,0-28.53-6a19.254,19.254,0,0,1-8.87-16.91,20.62,20.62,0,0,1,4-12.36,26.731,26.731,0,0,1,9.65-8.4,13.25,13.25,0,0,1-7.11-12.32A17.76,17.76,0,0,1,296.8,95.3a23.86,23.86,0,0,1,8.29-7.52,25.27,25.27,0,0,1-11.26-9.12,24.34,24.34,0,0,1-3.92-13.8,22.36,22.36,0,0,1,4.91-14.39,31.17,31.17,0,0,1,12.91-9.4,45,45,0,0,1,17.09-3.25h.07a52,52,0,0,1,14.23,1.8A29.41,29.41,0,0,1,349.73,45a22.65,22.65,0,0,1,6.6-4.81,22,22,0,0,1,10.34-2.3h4V51.93h-15.4A24,24,0,0,1,357.8,63a24.85,24.85,0,0,1-4.55,14.7,29.75,29.75,0,0,1-12.47,10A43,43,0,0,1,323,91.25Zm-19.44,43q0,8.8,5.21,13.35t17.09,4.55H326a38.77,38.77,0,0,0,12.62-2.05,23.261,23.261,0,0,0,9.76-6.09,13.65,13.65,0,0,0,3.74-9.61,16.449,16.449,0,0,0-1.43-7.52,9.05,9.05,0,0,0-5.24-4.14q-3.81-1.39-11.08-1.39H319.58a64.909,64.909,0,0,1-11.37-1,21.33,21.33,0,0,0-4.69,13.89Zm20.32-87.8q-7.92,0-12.29,4t-4.37,13.11q0,8.63,4.14,13.8t13.24,5.17h.07q8.36,0,12.14-4.66t3.78-13.63q0-9.18-4.07-13.49t-12.58-4.31Z"/>
      <path id="Path_73" data-name="Path 73" class="cls-1" d="M387.58,112.44V11.59l-12.1-1.47v-7L400.34,0h.37l3.52,2.49.07,34.37-.66,13.26A53,53,0,0,1,416.7,41.7a38.09,38.09,0,0,1,16.58-3.85q9.39,0,14.63,3.52t7.33,10.81q2.09,7.29,2.09,19.58v40.6l10.56,1.21v7.75H431v-7.67l9.61-1.21V71.84a58.918,58.918,0,0,0-1.14-13.07,12,12,0,0,0-4.36-7.16q-3.23-2.4-9.46-2.4a30.81,30.81,0,0,0-11.08,2.23,40.061,40.061,0,0,0-10.2,5.64v55.28l10.42,1.21v7.75h-36v-7.75Z"/>
      <path id="Path_74" data-name="Path 74" class="cls-1" d="M476.63,48.41v-7a49.682,49.682,0,0,0,4.73-1.56,20.21,20.21,0,0,0,3.48-1.56,13.17,13.17,0,0,0,4-6.08q1.1-2.65,2.9-8.45T494.16,15h9.54l.15,22.89H528.5V48.41H503.91V91.69a94.768,94.768,0,0,0,.51,12.13q.51,3.4,2.09,4.36t5.76,1h.07a46.12,46.12,0,0,0,8.62-.92,47.777,47.777,0,0,0,7.45-1.92h.07l2.49,7a27.111,27.111,0,0,1-6.6,3.7,62,62,0,0,1-9.46,3.12,39.08,39.08,0,0,1-9.31,1.25h-.15q-9.1,0-13.72-3.92t-4.62-13.11v-56Z"/>
      <path id="Path_75" data-name="Path 75" class="cls-2" d="M545.25,105.52a12.42,12.42,0,0,1,4.51-4.22,12,12,0,0,1,5.87-1.54q5.06,0,7.74,2.86a10,10,0,0,1,2.68,7.12,11.43,11.43,0,0,1-1.65,6.12,11,11,0,0,1-4.47,4.11,13.37,13.37,0,0,1-6.12,1.43,10.6,10.6,0,0,1-5.06-1.25,9.84,9.84,0,0,1-3.78-3.52,9.57,9.57,0,0,1-1.43-5.21,10.68,10.68,0,0,1,1.71-5.9Z"/>
    </g>
  </g>
</svg>
