<svg xmlns="http://www.w3.org/2000/svg" viewBox="0 0 566.04 180.79"><defs><style>.cls-1{fill:#0a162b;}.cls-2{fill:#266fef;}</style></defs><title>Logo</title><g id="Capa_2" data-name="Capa 2"><g id="Capa_1-2" data-name="Capa 1"><path class="cls-1" d="M13.7,111.57V19.73L.28,17.82V9.68H44.44v8.14L31,19.66v91.91l13.64,2v7.78H.28v-8Z"/><path class="cls-1" d="M69.82,112.37V52.82L59.33,50V40.71L81,37.78h.37l3.45,2.86v6.23l-.07,3.54a45.56,45.56,0,0,1,8.47-6,56,56,0,0,1,10.93-4.72,37,37,0,0,1,11-1.83q9.53,0,14.74,3.49t7.26,10.74q2.05,7.26,2.05,19.69v40.6l10.56,1.21v7.75H113v-7.75l9.39-1.21V71.84a59,59,0,0,0-1.14-13.07A12.17,12.17,0,0,0,117,51.62q-3.15-2.4-9.32-2.4a29,29,0,0,0-11,2.34,43.31,43.31,0,0,0-10,5.67v55.14l10.12,1.21v7.75H60.21v-7.75Z"/><path class="cls-1" d="M172.65,96.7l2.93,10.62a8.41,8.41,0,0,0,3.41,2.79,26.18,26.18,0,0,0,6,2.17,29.71,29.71,0,0,0,7,.84q8.29,0,11.81-3a10.15,10.15,0,0,0,3.52-8.18A9.56,9.56,0,0,0,205,95.52a23.8,23.8,0,0,0-7.08-5.23,125.38,125.38,0,0,0-12.76-5.55q-11.66-4.35-17-10.28t-5.35-15.34a16.89,16.89,0,0,1,4-11.13,26,26,0,0,1,11-7.48,43.62,43.62,0,0,1,15.7-2.67,59.1,59.1,0,0,1,11.88,1.06,98.42,98.42,0,0,1,10.34,2.75l2.64.81V60.31h-9.39l-3.15-9.78q-.88-1.82-4.73-3.14a26.34,26.34,0,0,0-8.62-1.33q-6.75,0-10.42,2.74A8.53,8.53,0,0,0,178.3,56a10.13,10.13,0,0,0,2.16,6.6,16.91,16.91,0,0,0,5.39,4.35q3.23,1.69,9,4l2.86,1.19a115.1,115.1,0,0,1,13.57,6.46A28,28,0,0,1,220,86.29a19,19,0,0,1,3.45,11.51,20.56,20.56,0,0,1-3.85,12.36,24.73,24.73,0,0,1-11.15,8.28,46,46,0,0,1-17.27,2.95,64.73,64.73,0,0,1-15.7-2.05,81.3,81.3,0,0,1-13.13-4.25V96.7Z"/><path class="cls-1" d="M247.69,112.08V50.61l-10.64-3V39l23.33-3h.37l3.74,2.86v73.28l11.74,1.25v8H235.81v-8ZM247.58,3.67a10,10,0,0,1,8.1-3.45h.07a9.85,9.85,0,0,1,5.35,1.43,9.6,9.6,0,0,1,3.48,3.78,10.74,10.74,0,0,1,1.21,5,12.22,12.22,0,0,1-2.93,8.44q-2.93,3.3-8.51,3.3h-.07a9.06,9.06,0,0,1-6.93-2.86,10.11,10.11,0,0,1-2.68-7.19A12.67,12.67,0,0,1,247.58,3.67Z"/><path class="cls-1" d="M323,91.25A48.08,48.08,0,0,1,311.73,90a13.8,13.8,0,0,0-3.23,4.22,10.93,10.93,0,0,0-1.17,4.88,8.19,8.19,0,0,0,1.72,5.61,9.27,9.27,0,0,0,5.21,2.68,48.75,48.75,0,0,0,9.57.73h16q28.68,0,28.68,22a23.86,23.86,0,0,1-6.05,15.7,41.56,41.56,0,0,1-16.17,11.41,55.89,55.89,0,0,1-21.71,4.22h-.07q-19.66,0-28.53-6t-8.87-16.91a20.62,20.62,0,0,1,4-12.36,26.73,26.73,0,0,1,9.65-8.4,13.25,13.25,0,0,1-7.11-12.32,17.76,17.76,0,0,1,3.15-10.16,23.86,23.86,0,0,1,8.29-7.52,25.27,25.27,0,0,1-11.26-9.12,24.34,24.34,0,0,1-3.92-13.8,22.36,22.36,0,0,1,4.91-14.39,31.17,31.17,0,0,1,12.91-9.4,45,45,0,0,1,17.09-3.25h.07a52,52,0,0,1,14.23,1.8A29.41,29.41,0,0,1,349.73,45a22.65,22.65,0,0,1,6.6-4.81,22,22,0,0,1,10.34-2.3h4V51.93h-15.4A24,24,0,0,1,357.8,63a24.85,24.85,0,0,1-4.55,14.7,29.75,29.75,0,0,1-12.47,10A43,43,0,0,1,323,91.25Zm-19.44,43q0,8.8,5.21,13.35t17.09,4.55H326a38.77,38.77,0,0,0,12.62-2.05,23.26,23.26,0,0,0,9.76-6.09,13.65,13.65,0,0,0,3.74-9.61,16.45,16.45,0,0,0-1.43-7.52,9.05,9.05,0,0,0-5.24-4.14q-3.81-1.39-11.08-1.39H319.58a64.91,64.91,0,0,1-11.37-1A21.33,21.33,0,0,0,303.52,134.24Zm20.32-87.8q-7.92,0-12.29,4t-4.37,13.11q0,8.63,4.14,13.8t13.24,5.17h.07q8.36,0,12.14-4.66t3.78-13.63q0-9.18-4.07-13.49t-12.58-4.31Z"/><path class="cls-1" d="M387.58,112.44V11.59l-12.1-1.47v-7L400.34,0h.37l3.52,2.49.07,34.37-.66,13.26A53,53,0,0,1,416.7,41.7a38.09,38.09,0,0,1,16.58-3.85q9.39,0,14.63,3.52t7.33,10.81q2.09,7.29,2.09,19.58v40.6l10.56,1.21v7.75H431v-7.67l9.61-1.21V71.84a58.92,58.92,0,0,0-1.14-13.07,12,12,0,0,0-4.36-7.16q-3.23-2.4-9.46-2.4a30.81,30.81,0,0,0-11.08,2.23,40.06,40.06,0,0,0-10.2,5.64v55.28l10.42,1.21v7.75h-36v-7.75Z"/><path class="cls-1" d="M476.63,48.41v-7a49.68,49.68,0,0,0,4.73-1.56,20.21,20.21,0,0,0,3.48-1.56,13.17,13.17,0,0,0,4-6.08q1.1-2.65,2.9-8.45T494.16,15h9.54l.15,22.89h24.65V48.41H503.91V91.69a94.77,94.77,0,0,0,.51,12.13q.51,3.4,2.09,4.36t5.76,1h.07a46.12,46.12,0,0,0,8.62-.92,47.78,47.78,0,0,0,7.45-1.92h.07l2.49,7a27.11,27.11,0,0,1-6.6,3.7,62,62,0,0,1-9.46,3.12,39.08,39.08,0,0,1-9.31,1.25h-.15q-9.1,0-13.72-3.92t-4.62-13.11v-56Z"/><path class="cls-2" d="M545.25,105.52a12.42,12.42,0,0,1,4.51-4.22,12,12,0,0,1,5.87-1.54q5.06,0,7.74,2.86a10,10,0,0,1,2.68,7.12,11.43,11.43,0,0,1-1.65,6.12,11,11,0,0,1-4.47,4.11,13.37,13.37,0,0,1-6.12,1.43,10.6,10.6,0,0,1-5.06-1.25,9.84,9.84,0,0,1-3.78-3.52,9.57,9.57,0,0,1-1.43-5.21A10.68,10.68,0,0,1,545.25,105.52Z"/><path class="cls-1" d="M21.65,144.94a12,12,0,0,1,4.63,4.89,16.52,16.52,0,0,1,0,14.32A11.74,11.74,0,0,1,21.73,169,13.19,13.19,0,0,1,15,170.71a12.4,12.4,0,0,1-6.07-1.44,10.32,10.32,0,0,1-4.11-4.11v5.4H0V132.39H4.78v16.36a10.37,10.37,0,0,1,4.09-4.12,12.15,12.15,0,0,1,6-1.44A13.18,13.18,0,0,1,21.65,144.94Zm-3,20.37a8.49,8.49,0,0,0,3.24-3.45,10.6,10.6,0,0,0,1.16-5,10.31,10.31,0,0,0-1.18-4.94,8.74,8.74,0,0,0-3.24-3.45,8.92,8.92,0,0,0-4.68-1.23,9.05,9.05,0,0,0-4.71,1.23A8.68,8.68,0,0,0,6,151.93a11.06,11.06,0,0,0,0,10,8.71,8.71,0,0,0,3.27,3.42,9.06,9.06,0,0,0,4.71,1.23A9.06,9.06,0,0,0,18.65,165.31Z"/><path class="cls-1" d="M39.78,179.14a8.15,8.15,0,0,1-5,1.59,8.95,8.95,0,0,1-6-2.11l2.06-3.75a6.24,6.24,0,0,0,3.65,1.29q3.09,0,4.63-3.5l1-2.42-11.26-26.9h5l8.64,21.81,8.18-21.81h4.89L43.21,174.41A10.88,10.88,0,0,1,39.78,179.14Z"/><path class="cls-2" d="M69.33,134.55H98.7v6.12H87.49v29.88H80.55V140.67H69.33Z"/><path class="cls-2" d="M112.1,144.24a11.13,11.13,0,0,1,5.58-1.47v6.48a9.08,9.08,0,0,0-6.82,2,7.64,7.64,0,0,0-2.55,6v13.27h-6.69V143h6.69v5.3A9.94,9.94,0,0,1,112.1,144.24Z"/><path class="cls-2" d="M128.38,132.34a4,4,0,0,1,1.08,2.88,3.93,3.93,0,0,1-1.08,2.83,3.85,3.85,0,0,1-5.45,0,3.93,3.93,0,0,1-1.08-2.83,4,4,0,0,1,1.08-2.88,3.85,3.85,0,0,1,5.45,0Zm-6,10.7H129v27.52h-6.69Z"/><path class="cls-2" d="M153.58,170.55v-3.34a9,9,0,0,1-3.7,2.73,13.64,13.64,0,0,1-5.19.93,11.08,11.08,0,0,1-5.07-1.11,8.1,8.1,0,0,1-3.37-3.06,8.27,8.27,0,0,1-1.18-4.37,7.32,7.32,0,0,1,2.73-6q2.73-2.19,7.72-2.24h8v-.72a4.63,4.63,0,0,0-1.59-3.75,7,7,0,0,0-4.63-1.34,15.9,15.9,0,0,0-8.18,2.57l-2.42-4.63a30.47,30.47,0,0,1,5.89-2.6,21.6,21.6,0,0,1,6.2-.8q5.35,0,8.31,2.57a9.18,9.18,0,0,1,3,7.2l.05,18Zm-2.37-6.2a4.74,4.74,0,0,0,2.31-3.37v-2.47h-6.94a7.55,7.55,0,0,0-3.93.8,2.84,2.84,0,0,0-1.26,2.6,3.34,3.34,0,0,0,1.31,2.78,5.64,5.64,0,0,0,3.57,1A8.73,8.73,0,0,0,151.22,164.35Z"/><path class="cls-2" d="M191.69,145.63a10.75,10.75,0,0,1,2.73,7.74v17.18h-6.74V155.33a6.21,6.21,0,0,0-1.65-4.55,6,6,0,0,0-4.48-1.67,6.78,6.78,0,0,0-5.27,2.26,8.3,8.3,0,0,0-1.93,5.66v13.53h-6.69V143h6.69v5.14q2.83-5.3,9.88-5.4A9.82,9.82,0,0,1,191.69,145.63Z"/><path class="cls-2" d="M227.08,143v24.89a12.81,12.81,0,0,1-1.77,6.81,11.67,11.67,0,0,1-5,4.48,17.35,17.35,0,0,1-7.59,1.57,20.21,20.21,0,0,1-11.62-3.65l2.67-4.83a14.16,14.16,0,0,0,8.59,2.88,8.66,8.66,0,0,0,5.89-1.9,6.53,6.53,0,0,0,2.19-5.19v-3.24a9.15,9.15,0,0,1-3.6,3.21,11.36,11.36,0,0,1-5.14,1.11,12.12,12.12,0,0,1-6.38-1.67,11.4,11.4,0,0,1-4.32-4.68,15,15,0,0,1-1.54-6.92,14.52,14.52,0,0,1,1.54-6.81,11.31,11.31,0,0,1,4.32-4.6,12.28,12.28,0,0,1,6.38-1.65,11.19,11.19,0,0,1,5.12,1.13,9.45,9.45,0,0,1,3.63,3.19V143Zm-8.72,18.7a9,9,0,0,0,0-11.37,7.42,7.42,0,0,0-10.54,0,8.76,8.76,0,0,0,0,11.34,7.45,7.45,0,0,0,10.54,0Z"/><path class="cls-2" d="M235.21,132.39h6.69v38.16h-6.69Z"/><path class="cls-2" d="M271.85,146.58q3.32,3.76,3.32,10.54,0,1.34-.05,2H254.8a7.66,7.66,0,0,0,7.87,6.27,10.45,10.45,0,0,0,4-.8,9.86,9.86,0,0,0,3.37-2.29l3.6,3.75a13.92,13.92,0,0,1-5,3.5,16.86,16.86,0,0,1-6.56,1.23,15.3,15.3,0,0,1-7.43-1.75,12.23,12.23,0,0,1-5-4.91,16,16,0,0,1,0-14.58,12.57,12.57,0,0,1,5-5,14.65,14.65,0,0,1,7.25-1.77Q268.54,142.83,271.85,146.58Zm-2.8,8.08a6.67,6.67,0,0,0-2-4.83,7.82,7.82,0,0,0-10,0,7.84,7.84,0,0,0-2.44,4.86Z"/></g></g></svg>