<svg id="Group_24" data-name="Group 24" xmlns="http://www.w3.org/2000/svg" viewBox="1582 680 512 260.506">
  <defs>
    <style>
      .cls-1 {
        fill: #d1d3d3;
      }

      .cls-2 {
        opacity: 0.1;
      }

      .cls-3 {
        fill: #266fef;
      }

      .cls-4 {
        fill: #123570;
      }

      .cls-5 {
        fill: #f4f8ff;
      }

      .cls-6 {
        fill: #333e48;
      }

      .cls-7 {
        fill: #a4a9ad;
      }

      .cls-8 {
        fill: #00b3e3;
      }

      .cls-9 {
        opacity: 0.2;
      }

      .cls-10 {
        fill: #0a162b;
      }
    </style>
  </defs>
  <path id="Path_6875" data-name="Path 6875" class="cls-1" d="M321.379,166.068a8.771,8.771,0,0,1-8.924,10.473H280.719a8.771,8.771,0,0,1-8.924-10.473l3.452-21.484a12.9,12.9,0,0,1,12.291-10.473h18.1a12.9,12.9,0,0,1,12.29,10.473Z" transform="translate(1582 553.844)"/>
  <path id="Path_6876" data-name="Path 6876" class="cls-2" d="M321.379,166.068l-1.726-10.742H273.52l-1.726,10.742a8.771,8.771,0,0,0,8.924,10.473h31.736a8.771,8.771,0,0,0,8.925-10.473Z" transform="translate(1582 553.844)"/>
  <path id="Path_6877" data-name="Path 6877" class="cls-3" d="M476.515,262.89c-1.635-14.913-12.018-26.71-26.708-26.71H396.2l-32.283-51.134c-7.842-12.421-26.278-22.585-40.967-22.585H134.226c-14.691,0-30.021,11.555-34.069,25.675L86.449,235.965c-.021.072-.035.143-.056.215H55.783a26.788,26.788,0,0,0-26.71,26.71v54.044H482.924Z" transform="translate(1582 553.844)"/>
  <path id="Union_5" data-name="Union 5" class="cls-4" d="M0,25.967V0H28.905V25.967Zm416.037,0V0H448l3.079,25.965Z" transform="translate(1611.074 821.457)"/>
  <path id="Path_6879" data-name="Path 6879" class="cls-5" d="M451.167,293.578h-8.8a3.738,3.738,0,0,1-3.727-3.727V271.34a3.738,3.738,0,0,1,3.727-3.727h8.8Z" transform="translate(1582 553.844)"/>
  <path id="Path_6880" data-name="Path 6880" class="cls-2" d="M130.529,258.47a65.585,65.585,0,0,0-65.191,58.456l130.384.007a65.589,65.589,0,0,0-65.193-58.463Z" transform="translate(1582 553.844)"/>
  <circle id="Ellipse_264" data-name="Ellipse 264" class="cls-6" cx="53.832" cy="53.832" r="53.832" transform="translate(1658.693 824.068)"/>
  <circle id="Ellipse_265" data-name="Ellipse 265" class="cls-7" cx="27.287" cy="27.287" r="27.287" transform="translate(1685.238 850.613)"/>
  <path id="Path_6881" data-name="Path 6881" class="cls-2" d="M367.392,258.47A65.585,65.585,0,0,0,302.2,316.926l130.383.007a65.587,65.587,0,0,0-65.192-58.463Z" transform="translate(1582 553.844)"/>
  <circle id="Ellipse_266" data-name="Ellipse 266" class="cls-6" cx="53.833" cy="53.833" r="53.833" transform="translate(1895.556 824.067)"/>
  <circle id="Ellipse_267" data-name="Ellipse 267" class="cls-7" cx="27.287" cy="27.287" r="27.287" transform="translate(1922.102 850.613)"/>
  <g id="Group_2759" data-name="Group 2759" transform="translate(1582 553.844)">
    <path id="Path_6882" data-name="Path 6882" class="cls-6" d="M504.044,319.666a9.966,9.966,0,0,1-9.938,9.938h-22.36a9.968,9.968,0,0,1-9.938-9.938v-16.15a9.968,9.968,0,0,1,9.938-9.938h22.36a9.967,9.967,0,0,1,9.938,9.938Z"/>
    <path id="Path_6883" data-name="Path 6883" class="cls-6" d="M50.192,319.666a9.967,9.967,0,0,1-9.938,9.938H17.893a9.967,9.967,0,0,1-9.937-9.938v-16.15a9.968,9.968,0,0,1,9.937-9.938H40.255a9.968,9.968,0,0,1,9.938,9.938Z"/>
  </g>
  <path id="Path_6884" data-name="Path 6884" class="cls-5" d="M51.918,293.578h8.8a3.738,3.738,0,0,0,3.729-3.727V271.34a3.738,3.738,0,0,0-3.729-3.727h-8.8Z" transform="translate(1582 553.844)"/>
  <path id="Path_6885" data-name="Path 6885" class="cls-8" d="M242.387,195.111A10.638,10.638,0,0,1,252.994,184.5h71.445c5.834,0,13.211,4,16.393,8.892L357.363,218.8c3.182,4.89,1.012,8.892-4.822,8.892H252.993a10.638,10.638,0,0,1-10.607-10.607V195.112h0Z" transform="translate(1582 553.844)"/>
  <g id="Group_2760" data-name="Group 2760" transform="translate(1582 553.844)">
    <path id="Path_6886" data-name="Path 6886" class="cls-6" d="M242.387,195.111A10.638,10.638,0,0,1,252.994,184.5h71.445c5.834,0,13.211,4,16.393,8.892L357.363,218.8c3.182,4.89,1.012,8.892-4.822,8.892H252.993a10.638,10.638,0,0,1-10.607-10.607V195.112h0Z"/>
    <path id="Path_6887" data-name="Path 6887" class="cls-6" d="M135.735,194.6a15.544,15.544,0,0,1,13.854-10.1H209.9a10.638,10.638,0,0,1,10.6,10.612v21.975a10.638,10.638,0,0,1-10.6,10.607H135.7c-5.834,0-9.147-4.545-7.361-10.1Z"/>
  </g>
  <path id="Path_6888" data-name="Path 6888" class="cls-9" d="M340.833,193.4c-3.182-4.89-10.559-8.892-16.393-8.892H252.995a10.638,10.638,0,0,0-10.607,10.607V205a10.638,10.638,0,0,1,10.607-10.607h79.931a21.083,21.083,0,0,1,10.934,3.662Z" transform="translate(1582 553.844)"/>
  <path id="Path_6889" data-name="Path 6889" class="cls-9" d="M209.9,184.5H149.589a15.544,15.544,0,0,0-13.854,10.1l-1.771,5.508a15.553,15.553,0,0,1,11.382-5.726H209.9a10.638,10.638,0,0,1,10.6,10.609V195.11A10.638,10.638,0,0,0,209.9,184.5Z" transform="translate(1582 553.844)"/>
  <g id="Group_2761" data-name="Group 2761" transform="translate(1582 553.844)">
    <path id="Union_3" data-name="Union 3" class="cls-10" d="M-1475.088-523.3V-538.57h15.275V-523.3Zm-30.539,0V-538.57h15.264v-15.274h15.273v15.274h-15.264V-523.3Zm-30.549,0V-538.57h15.273V-523.3Zm-30.551,0V-538.57h15.273V-523.3Zm106.914-15.273v-15.274h15.273v15.274Zm-61.088,0v-15.274h15.274v15.274Zm-30.55,0v-15.274h15.274v15.274Zm-30.55,0v-15.274h15.273v15.274Z" transform="translate(1759.781 803.15)"/>
  </g>
  <g id="Group_2762" data-name="Group 2762" transform="translate(1582 553.844)">
    <path id="Union_4" data-name="Union 4" class="cls-5" d="M-1459.813-523.3V-538.57h15.273V-523.3Zm-30.551,0V-538.57h-15.264v-15.274h15.273v15.274h15.264V-523.3Zm-30.538,0V-538.57h15.274V-523.3Zm-30.55,0V-538.57h15.274V-523.3Zm-30.55,0V-538.57h15.273V-523.3Zm106.912-15.273v-15.274h15.275v15.274Zm-61.087,0v-15.274h15.273v15.274Zm-30.551,0v-15.274h15.273v15.274Z" transform="translate(1759.781 803.15)"/>
  </g>
  <path id="Path_6890" data-name="Path 6890" class="cls-10" d="M130.529,288.813a35.242,35.242,0,1,0,35.242,35.242,35.242,35.242,0,0,0-35.242-35.242Zm0,54.572a19.33,19.33,0,1,1,19.331-19.331,19.33,19.33,0,0,1-19.331,19.331ZM494.1,285.622h-6.882l-2.8-23.6c-2.181-19.9-16.416-33.8-34.616-33.8H400.588L370.645,180.8c-8.49-13.447-26.664-24.234-43.023-26.026l-1.839-11.451a20.835,20.835,0,0,0-20.145-17.167h-18.1a20.837,20.837,0,0,0-20.146,17.167l-1.8,11.183H134.226c-18.338,0-36.663,13.809-41.717,31.439l-12.118,42.28H55.783A34.7,34.7,0,0,0,21.118,262.89v22.734H17.892A17.913,17.913,0,0,0,0,303.517v16.15a17.914,17.914,0,0,0,17.893,17.894H40.255A17.922,17.922,0,0,0,57.367,324.89h11.4a61.769,61.769,0,1,0,123.537,0H305.629a61.77,61.77,0,1,0,123.539,0h25.469a17.922,17.922,0,0,0,17.111,12.671H494.1A17.915,17.915,0,0,0,512,319.667v-16.15a17.915,17.915,0,0,0-17.895-17.895Zm-211-139.776a4.988,4.988,0,0,1,4.436-3.78h18.1a4.987,4.987,0,0,1,4.435,3.779l1.391,8.66H281.712ZM42.237,319.666a2.008,2.008,0,0,1-1.983,1.983H17.893a2.007,2.007,0,0,1-1.981-1.983v-16.15a2.008,2.008,0,0,1,1.981-1.983H40.255a2.008,2.008,0,0,1,1.983,1.983S42.237,319.666,42.237,319.666Zm88.292,50.265A45.876,45.876,0,1,1,176.4,324.056a45.877,45.877,0,0,1-45.871,45.875Zm236.863,0a45.876,45.876,0,1,1,45.877-45.877A45.876,45.876,0,0,1,367.392,369.931Zm86.459-66.414v5.461h-26.54a61.787,61.787,0,0,0-119.838,0H190.447a61.785,61.785,0,0,0-119.836,0H58.148v-5.461a17.914,17.914,0,0,0-17.894-17.894H37.03V262.89a18.775,18.775,0,0,1,18.754-18.754H86.393a7.957,7.957,0,0,0,7.65-5.769c.029-.1.056-.205.083-.312l13.679-47.726c3.094-10.793,15.193-19.911,26.421-19.911H322.951c11.892,0,27.891,8.82,34.24,18.877l32.284,51.134a7.952,7.952,0,0,0,6.727,3.708h53.605c8.288,0,17.315,6.067,18.807,19.691l2.589,21.823a17.9,17.9,0,0,0-17.352,17.866Zm42.238,16.149a2.009,2.009,0,0,1-1.984,1.983h-22.36a2.007,2.007,0,0,1-1.981-1.983v-16.15a2.008,2.008,0,0,1,1.981-1.983H494.1a2.009,2.009,0,0,1,1.984,1.983ZM347.5,189.056c-4.64-7.131-14.554-12.508-23.061-12.508H253a18.585,18.585,0,0,0-18.563,18.563v21.975A18.585,18.585,0,0,0,253,235.649h99.548c5.791,0,10.45-2.469,12.785-6.775s1.864-9.558-1.3-14.411Zm-94.507,30.682a2.688,2.688,0,0,1-2.652-2.652V195.111a2.688,2.688,0,0,1,2.652-2.652H324.44c3.118,0,8.023,2.662,9.725,5.275l14.317,22Zm-43.1-43.19h-60.3a23.334,23.334,0,0,0-21.427,15.619l-7.393,22.993A15.211,15.211,0,0,0,135.7,235.65h74.2a18.585,18.585,0,0,0,18.563-18.563V195.112A18.587,18.587,0,0,0,209.9,176.548Zm2.652,40.539a2.688,2.688,0,0,1-2.652,2.652H136.01l7.3-22.7a7.7,7.7,0,0,1,6.28-4.577H209.9a2.687,2.687,0,0,1,2.652,2.652v21.974h0ZM367.39,288.813a35.242,35.242,0,1,0,35.242,35.242,35.242,35.242,0,0,0-35.242-35.242Zm0,54.572a19.33,19.33,0,1,1,19.331-19.331,19.33,19.33,0,0,1-19.331,19.331Z" transform="translate(1582 553.844)"/>
</svg>
