<svg xmlns="http://www.w3.org/2000/svg" viewBox="0 0 577.111 463.016"><defs><style>.a{fill:#fff;}.b{fill:#eee;}.c{fill:#144e80;}.d{fill:#683c11;}.e{fill:#6a757f;}.f{fill:#b7c7d6;}.g{fill:#576066;}.h,.l{fill:#1b1b1b;}.h{opacity:0.1;}.i{fill:#42250b;}.j{fill:#a9b5bf;}.k{fill:#ca8865;}.m{fill:#333;}.n{fill:#4d4d4d;}.o{fill:#e6e6e6;}.p{fill:#a34a29;}.q{fill:#2b1912;}.r{fill:#d70c3f;}.s{fill:#b4183f;}.t{fill:#e07c4e;}.u{fill:#ebb48b;}.v{fill:#381210;}.w{fill:#751f45;}.x{fill:#ffb61e;}.y{fill:#f2a51d;}.z{fill:#db958f;}.aa{fill:#d6d6d6;}.ab{fill:#e3e3e2;}.ac{fill:#fafafa;}</style></defs><g transform="translate(6780 -5395)"><rect class="a" width="577" height="463" transform="translate(-6780 5395)"/><g transform="translate(-1739)"><path class="b" d="M84.686,463.053a154.64,154.64,0,0,1-11.167-57.59q0-.233,0-.466c.008-94.45,82.527-193.746,209.134-240,45.585-16.615,91.772-24.51,135.289-24.533,102.553.008,190.336,43.849,221.034,120.172a154.492,154.492,0,0,1,11.19,57.8q0,.117,0,.233c0,94.458-82.526,193.747-209.134,240-45.6,16.648-91.765,24.538-135.273,24.538C203.194,583.207,115.4,539.362,84.686,463.053Z" transform="translate(-5114.056 5264.878)"/><g transform="translate(-4963.545 5395.244)"><path class="c" d="M150.687,451.48v3.041c0,.874,0,1.736-.062,2.6-.069,1.208-.167,2.407-.312,3.589a50.051,50.051,0,0,1-99.331,0c-.146-1.18-.25-2.381-.312-3.589-.046-.861-.069-1.722-.069-2.6V451.48Z" transform="translate(-15.753 -138.069)"/><path class="c" d="M95.318,521.311V624.339h-24V506.44a49.069,49.069,0,0,0,24,14.871Z" transform="translate(-22.09 -165.128)"/><path class="c" d="M162.368,507.55V638.932h-24V523.495A47.973,47.973,0,0,0,162.368,507.55Z" transform="translate(-42.595 -179.695)"/><path class="d" d="M72,282.559a2.887,2.887,0,0,0-.888.146l.694-.694Z" transform="translate(-22.026 -86.243)"/><path class="d" d="M173.544,282.244h-.354l.076-.264Z" transform="translate(-53.243 -86.233)"/><path class="e" d="M142.262,275.515c-.125-.125-.257-.243-.389-.361a49.812,49.812,0,0,0-30.253-13.724h0q-2.145-.185-4.332-.185a50.927,50.927,0,0,0-5.477.3,49.94,49.94,0,0,0-29.156,13.625l-.486.472.174.569c2.041-.185,6.944-.382,7.1-.569l.046,13.391v3.651l.4,101.025h54.74l.41-101.025V289.03l.046-13.4,7.192.264.076-.264a.845.845,0,0,1-.1-.111ZM116.807,304.17a36.84,36.84,0,0,1-19.1,0,32.884,32.884,0,0,1-3.644-1.194v-3.644a34.427,34.427,0,0,0,3.644,1.2,36.847,36.847,0,0,0,19.132,0,34.379,34.379,0,0,0,3.644-1.187v3.644a36.033,36.033,0,0,1-3.672,1.18Z" transform="translate(-22.35 -79.893)"/><path class="f" d="M72.837,282,73.3,400.067H50.63V317a49.85,49.85,0,0,1,14.217-34.306C65.083,282.458,72.594,282.222,72.837,282Z" transform="translate(-15.762 -86.24)"/><path class="f" d="M184.819,317.62v82.421H162.14l.479-118.081,7.546.278A49.877,49.877,0,0,1,184.8,316.149C184.812,316.641,184.819,317.128,184.819,317.62Z" transform="translate(-49.864 -86.227)"/><path class="g" d="M138.935,423.2h-30.7a2.78,2.78,0,0,1-.424,0,2.82,2.82,0,0,1-.424,0H76.68a2.735,2.735,0,0,1-2.561-3.665l11.669-31.877a2.778,2.778,0,0,1,2.561-1.791h19.062a2.137,2.137,0,0,1,.424.042,2.081,2.081,0,0,1,.424-.042h19.062a2.778,2.778,0,0,1,2.561,1.791l11.641,31.878a2.728,2.728,0,0,1-2.589,3.665Z" transform="translate(-22.896 -118.005)"/><path class="h" d="M103.64,305.644l-.09-23.6,3.63-.132.1,24.914A34.43,34.43,0,0,1,103.64,305.644Z" transform="translate(-31.946 -86.212)"/><path class="h" d="M140.134,305.667a34.369,34.369,0,0,1-3.644,1.187l.1-24.914,3.637.132Z" transform="translate(-42.02 -86.221)"/><path class="d" d="M87.869,405.28H50.64V317a49.85,49.85,0,0,1,14.212-34.306c.236-.243,22.29-.479,22.533-.694l.463,118.067Z" transform="translate(-15.766 -86.24)"/><path class="d" d="M178.379,316.148v89.12H141.15v-5.227l.479-117.949,14.578-.132,7.546.278a49.877,49.877,0,0,1,14.627,33.911Z" transform="translate(-43.445 -86.227)"/><path class="g" d="M143.214,250.748c0,.6,0,1.194-.046,1.784a21.878,21.878,0,0,1-.2,2.527,36.1,36.1,0,0,1-1.27,6.178l-.076.264c-.132.438-.271.861-.424,1.291a36.659,36.659,0,0,1-21.411,22.158,34.349,34.349,0,0,1-3.644,1.187,36.847,36.847,0,0,1-19.132,0,34.426,34.426,0,0,1-3.644-1.2,36.674,36.674,0,0,1-21.409-22.214c-.111-.306-.208-.618-.313-.93l-.174-.569a36.216,36.216,0,0,1-1.266-6.164c-.1-.833-.167-1.659-.208-2.5,0-.6-.046-1.2-.046-1.812a36.978,36.978,0,0,1,.257-4.318,36.6,36.6,0,0,1,31.363-31.981h0a37.184,37.184,0,0,1,5.005-.34q1.749,0,3.472.167h0a36.29,36.29,0,0,1,10.614,2.645h0a36.985,36.985,0,0,1,9.9,6.137,36.562,36.562,0,0,1,12.169,21.707,37.067,37.067,0,0,1,.486,5.984Z" transform="translate(-21.671 -65.477)"/><path class="e" d="M130.114,316.117v3.646a36.046,36.046,0,0,1-3.644,1.187,36.841,36.841,0,0,1-19.1,0,32.891,32.891,0,0,1-3.644-1.194V316.11a34.433,34.433,0,0,0,3.644,1.2,36.847,36.847,0,0,0,19.132,0,34.375,34.375,0,0,0,3.617-1.194Z" transform="translate(-31.999 -96.671)"/><path class="i" d="M214.8,366.358l-.979.521a11.669,11.669,0,0,1-15.786-4.8l-29.371-55.008a11.662,11.662,0,0,1,4.8-15.786l.979-.528a11.662,11.662,0,0,1,15.786,4.8L219.6,350.572a11.662,11.662,0,0,1-4.8,15.787Z" transform="translate(-51.437 -88.497)"/><circle class="j" cx="2.881" cy="2.881" r="2.881" transform="translate(125.389 210.206)"/><path class="i" d="M219.785,394.269l-28.8,16.161L179,389.111l28.8-16.154a12.22,12.22,0,1,1,11.962,21.313Z" transform="translate(-55.02 -113.575)"/><path class="k" d="M186.68,418.238l-12.44,6.97-9.3-22.8,9.781-5.491Z" transform="translate(-50.72 -121.384)"/><circle class="j" cx="2.881" cy="2.881" r="2.881" transform="translate(155.871 267.296)"/><path class="i" d="M53.455,306.873,25.1,362.408A11.662,11.662,0,0,1,9.4,367.5l-.988-.508a11.662,11.662,0,0,1-5.087-15.694l28.357-55.536a11.669,11.669,0,0,1,15.694-5.082l.986.5a11.662,11.662,0,0,1,5.089,15.694Z" transform="translate(-0.906 -88.503)"/><circle class="j" cx="2.881" cy="2.881" r="2.881" transform="translate(38.519 210.206)"/><path class="i" d="M6.376,395.14,35.171,411.3,47.138,389.99,18.33,373.822A12.225,12.225,0,0,0,6.376,395.14Z" transform="translate(-0.407 -113.891)"/><path class="k" d="M73.986,404.22l-8.615,23.2L50.46,419.048,62.428,397.73Z" transform="translate(-15.711 -121.632)"/><circle class="j" cx="2.881" cy="2.881" r="2.881" transform="translate(9.085 267.852)"/><path class="d" d="M169.842,427.627l-4.8,2.7-4.964.729-9.531-20.624,9.989-5.6Z" transform="translate(-46.32 -123.803)"/><path class="d" d="M159.892,403.22l.458,1.117-9.989,5.6-.431-.923Z" transform="translate(-46.13 -123.311)"/><path class="d" d="M176.99,439.55l-5.56.818,4.8-2.7Z" transform="translate(-52.705 -133.844)"/><path class="i" d="M173.217,430.439a3.472,3.472,0,0,0,1.312-.25,3.624,3.624,0,0,0,2.083-4.7l-9.948-25.643a3.637,3.637,0,1,0-6.783,2.631l9.948,25.643a3.645,3.645,0,0,0,3.388,2.318Z" transform="translate(-49.098 -121.568)"/><path class="d" d="M86.213,412.484l-5.5,21.86a12.064,12.064,0,0,1-4.028-1.389l-9.718-5.435L75.585,404.3l5.234,2.936Z" transform="translate(-20.76 -123.641)"/><path class="d" d="M76.343,443.167a12.065,12.065,0,0,0,4.028,1.389l-.451,1.784L65.77,440l.854-2.268Z" transform="translate(-20.393 -133.866)"/><path class="d" d="M84.614,406.536,79.38,403.6l.59-1.59Z" transform="translate(-24.555 -122.941)"/><path class="i" d="M64.783,430.439a3.556,3.556,0,0,1-1.319-.25,3.63,3.63,0,0,1-2.083-4.7l9.948-25.643a3.637,3.637,0,1,1,6.783,2.631l-9.94,25.644A3.63,3.63,0,0,1,64.783,430.439Z" transform="translate(-18.975 -121.568)"/><path class="h" d="M150.656,415.719c-.069,1.208-.167,2.407-.312,3.589H109.836v-3.589h0v-5.637l.361-89.133a36.841,36.841,0,0,1-19.1,0l.368,89.14v5.637h0v3.589H51.012c-.146-1.18-.25-2.381-.312-3.589H87.887v-5.637l-.375-90.335V316.11a34.434,34.434,0,0,0,3.644,1.2,36.847,36.847,0,0,0,19.132,0,34.371,34.371,0,0,0,3.644-1.187v3.644l-.368,90.319v5.637Z" transform="translate(-15.784 -96.671)"/><rect class="l" width="13.786" height="20.354" rx="6.893" transform="translate(49.192 431.458) rotate(25.69)"/><path class="m" d="M60.12,653.1c0-10.413,7.636-18.8,17.07-18.8s17.07,8.42,17.07,18.8Z" transform="translate(-18.665 -193.978)"/><path class="n" d="M78.146,654.841H70.871c0-7.226-6.747-13.252-15.661-14.578A24,24,0,0,1,58.854,640C69.5,640,78.146,646.657,78.146,654.841Z" transform="translate(-17.164 -195.721)"/><path class="b" d="M63.981,654.969H32.68c0-6.206,4.978-11.53,12.023-13.731a24.944,24.944,0,0,1,3.617-.819C57.233,641.718,63.981,647.764,63.981,654.969Z" transform="translate(-10.273 -195.849)"/><rect class="o" width="53.188" height="3.388" transform="translate(75.602 462.508) rotate(180)"/><rect class="l" width="13.786" height="20.354" rx="6.893" transform="translate(128.944 449.85) rotate(154.31)"/><path class="m" d="M169.5,653.191c0-10.413-7.636-18.8-17.07-18.8s-17.077,8.419-17.077,18.8Z" transform="translate(-41.671 -194.008)"/><path class="n" d="M156.41,654.932h7.275c0-7.227,6.747-13.252,15.661-14.578a25.1,25.1,0,0,0-3.651-.264C165.046,640.118,156.41,646.754,156.41,654.932Z" transform="translate(-48.112 -195.749)"/><path class="b" d="M166.89,655.06H198.2c0-6.206-4.971-11.523-12.016-13.731a25.159,25.159,0,0,0-3.616-.819C173.637,641.808,166.89,647.834,166.89,655.06Z" transform="translate(-51.317 -195.877)"/><rect class="o" width="53.188" height="3.388" transform="translate(93.679 459.183)"/><path class="p" d="M130.662,220.73V260.3c0,7.851-7.483,14.224-16.716,14.224S97.23,268.178,97.23,260.3V220.73c0-7.858,7.483-14.231,16.716-14.231a18.208,18.208,0,0,1,11.8,4.166,13.19,13.19,0,0,1,4.915,10.066Z" transform="translate(-30.014 -63.15)"/><circle class="k" cx="18.91" cy="18.91" r="18.91" transform="translate(17.756 107.731)"/><circle class="p" cx="11.635" cy="11.635" r="11.635" transform="translate(25.031 115.735)"/><circle class="k" cx="18.91" cy="18.91" r="18.91" transform="translate(112.29 107.731)"/><circle class="p" cx="11.635" cy="11.635" r="11.635" transform="translate(119.565 115.735)"/><path class="q" d="M155.008,129.043a53.883,53.883,0,0,1-11.864,33.682,59.7,59.7,0,0,1-46.885,22.214c-27.906,0-51.266-18.521-57.256-43.345a53.355,53.355,0,0,1-1.493-12.572v-1.389c.042-1.465.132-2.917.292-4.346a53.279,53.279,0,0,1,5.879-19.258,51.848,51.848,0,0,1,2.685-4.554,52.986,52.986,0,0,1,3.541-4.818,57.4,57.4,0,0,1,6.487-6.7c.694-.576,1.333-1.145,2.02-1.694q1.229-.986,2.534-1.916a59.623,59.623,0,0,1,19.944-9.3,61.6,61.6,0,0,1,15.341-1.93c.874,0,1.742,0,2.61.056,1.874.076,3.741.243,5.555.486.9.125,1.805.264,2.693.424a59.6,59.6,0,0,1,13.37,4.005c.354.153.694.306,1.048.472a58.132,58.132,0,0,1,11.732,7.06c1.389,1.083,2.735,2.214,4.019,3.409A55.758,55.758,0,0,1,147.3,101.386q1,1.659,1.874,3.395a54.151,54.151,0,0,1,3.7,9.372,53.25,53.25,0,0,1,1.991,11.44C154.966,126.738,155.008,127.876,155.008,129.043Z" transform="translate(-11.75 -22.361)"/><path class="k" d="M149.379,129.86v45.011a43.81,43.81,0,0,1-43.808,43.81H92.831A43.81,43.81,0,0,1,49,174.871V129.86A43.81,43.81,0,0,1,92.81,86.05h12.738a43.81,43.81,0,0,1,43.831,43.81Z" transform="translate(-15.264 -26.315)"/><circle class="l" cx="7.997" cy="7.997" r="7.997" transform="translate(51.208 110.049)"/><circle class="l" cx="7.997" cy="7.997" r="7.997" transform="translate(100.662 109.785)"/><path class="p" d="M127.391,188.348V193.1a10.906,10.906,0,1,1-21.811,0v-4.755a10.906,10.906,0,0,1,21.811,0Z" transform="translate(-32.567 -54.265)"/><circle class="q" cx="23.116" cy="23.116" r="23.116" transform="translate(17.416 60.29)"/><circle class="q" cx="27.552" cy="27.552" r="27.552" transform="translate(38.817 35.771)"/><circle class="q" cx="29.926" cy="29.926" r="29.926" transform="translate(67.647 26.976)"/><circle class="q" cx="26.462" cy="26.462" r="26.462" transform="translate(99.482 50.981)"/><path class="l" d="M106.567,245.414a87.205,87.205,0,0,1-9.212-.463,3.472,3.472,0,1,1,.812-6.894h0c6.151.694,23.651,1.263,30.655-4.741a3.472,3.472,0,1,1,4.519,5.269C126.678,244.3,114.835,245.414,106.567,245.414Z" transform="translate(-29.036 -71.048)"/><path class="r" d="M513.758,321.882v73.244H424.84V321.882A44.428,44.428,0,0,1,500.4,290.1l.347.34a44.325,44.325,0,0,1,13.016,31.439Z" transform="translate(-130.201 -84.825)"/><circle class="s" cx="32.544" cy="32.544" r="32.544" transform="translate(306.558 163.536)"/><path class="t" d="M495.056,250.383v33.453a12.023,12.023,0,1,1-24.047,0V250.383a12.023,12.023,0,1,1,24.047,0Z" transform="translate(-144.321 -72.894)"/><circle class="u" cx="16.799" cy="16.799" r="16.799" transform="translate(363.911 117.005)"/><circle class="t" cx="10.336" cy="10.336" r="10.336" transform="translate(370.374 123.468)"/><circle class="u" cx="16.799" cy="16.799" r="16.799" transform="translate(279.922 117.005)"/><circle class="t" cx="10.336" cy="10.336" r="10.336" transform="translate(286.385 123.468)"/><circle class="v" cx="57.499" cy="57.499" r="57.499" transform="translate(281.213 37.542)"/><path class="u" d="M511.826,99.788V171.5a42,42,0,1,1-84,0V99.788a42,42,0,1,1,84,0Z" transform="translate(-131.116 -17.673)"/><circle class="v" cx="36.181" cy="36.181" r="36.181" transform="translate(317.394 16.862)"/><circle class="v" cx="30.044" cy="30.044" r="30.044" transform="translate(283.795 36.243)"/><path class="l" d="M501.582,238.575a22.8,22.8,0,0,1-43.873-12.314Z" transform="translate(-140.052 -69.194)"/><path class="r" d="M496.067,254.889a22.8,22.8,0,0,1-33.9-5.109,22.8,22.8,0,0,1,33.9,5.109Z" transform="translate(-141.616 -74.741)"/><circle class="l" cx="7.108" cy="7.108" r="7.108" transform="translate(310.931 102.142)"/><circle class="l" cx="7.108" cy="7.108" r="7.108" transform="translate(352.284 102.142)"/><path class="t" d="M493.752,180.629v13.266a9.718,9.718,0,0,1-19.382,0V180.629a9.718,9.718,0,0,1,19.382,0Z" transform="translate(-145.349 -52.489)"/><path class="l" d="M513.678,446.46v2.7a44.459,44.459,0,1,1-88.918,0v-2.7Z" transform="translate(-130.177 -136.534)"/><rect class="l" width="21.318" height="149.028" transform="translate(306.669 310.571)"/><rect class="l" width="21.318" height="149.028" transform="translate(349.305 310.571)"/><rect class="s" width="21.714" height="76.131" rx="10.857" transform="translate(364.977 213.977) rotate(-31.72)"/><path class="s" d="M581.57,388.6,554.35,399.554l-8.1-20.129,27.212-10.954A10.857,10.857,0,1,1,581.57,388.6Z" transform="translate(-167.33 -112.405)"/><path class="u" d="M540.95,404.782l-23.262,9.365a10.857,10.857,0,1,1-8.108-20.131l23.269-9.364Z" transform="translate(-153.93 -117.632)"/><rect class="s" width="21.714" height="76.131" rx="10.857" transform="translate(273.266 278.758) rotate(-148.28)"/><path class="s" d="M377.859,388.713l27.212,10.954,8.108-20.131-27.221-10.954a10.857,10.857,0,0,0-8.1,20.131Z" transform="translate(-113.855 -112.517)"/><path class="u" d="M419.91,404.781l23.269,9.365a10.857,10.857,0,1,0,8.108-20.131l-23.269-9.365Z" transform="translate(-128.694 -117.632)"/><rect class="w" width="12.87" height="19" rx="6.435" transform="translate(305.865 433.464) rotate(25.69)"/><path class="s" d="M430.61,653.889c0-9.718,7.136-17.549,15.932-17.549s15.966,7.858,15.966,17.549Z" transform="translate(-131.966 -194.602)"/><path class="r" d="M447.436,655.527h-6.789c0-6.747-6.3-12.37-14.627-13.585a23.769,23.769,0,0,1,3.409-.243C439.369,641.7,447.436,647.892,447.436,655.527Z" transform="translate(-130.563 -196.241)"/><path class="b" d="M434.218,655.64H405c0-5.789,4.644-10.76,11.218-12.815a23.884,23.884,0,0,1,3.374-.77C427.908,643.268,434.218,648.89,434.218,655.64Z" transform="translate(-124.134 -196.351)"/><rect class="o" width="49.648" height="3.166" transform="translate(330.514 462.452) rotate(180)"/><rect class="w" width="12.87" height="19" rx="6.435" transform="translate(379.607 450.564) rotate(154.31)"/><path class="s" d="M531.672,653.889c0-9.718-7.136-17.549-15.966-17.549S499.74,644.2,499.74,653.889Z" transform="translate(-153.107 -194.602)"/><path class="r" d="M519.48,655.527h6.789c0-6.747,6.3-12.37,14.62-13.585a23.725,23.725,0,0,0-3.409-.243C527.544,641.7,519.48,647.892,519.48,655.527Z" transform="translate(-159.144 -196.241)"/><path class="b" d="M529.26,655.639h29.211c0-5.789-4.637-10.76-11.218-12.815a23.625,23.625,0,0,0-3.374-.771C535.556,643.267,529.26,648.89,529.26,655.639Z" transform="translate(-162.135 -196.35)"/><rect class="o" width="49.648" height="3.166" transform="translate(346.688 459.287)"/><path class="s" d="M503.292,419.468H476.018a2.167,2.167,0,0,1-.375,0,2.269,2.269,0,0,1-.375,0H447.987a2.422,2.422,0,0,1-2.268-3.256L456.055,387.9a2.436,2.436,0,0,1,2.277-1.59H475.27a2.262,2.262,0,0,1,.375,0,2.155,2.155,0,0,1,.375,0h16.938a2.423,2.423,0,0,1,2.268,1.59l10.343,28.316a2.423,2.423,0,0,1-2.277,3.256Z" transform="translate(-136.542 -118.136)"/><path class="x" d="M335.591,289.62v78.674H240.05V289.62a47.767,47.767,0,0,1,81.185-34.147l.375.368a47.628,47.628,0,0,1,13.981,33.779Z" transform="translate(-73.69 -73.957)"/><circle class="y" cx="34.966" cy="34.966" r="34.966" transform="translate(179.168 136.664)"/><path class="l" d="M335.588,424v2.9a47.772,47.772,0,1,1-95.544,0l0-2.9Z" transform="translate(-73.688 -129.666)"/><rect class="u" width="22.908" height="29.281" transform="translate(179.341 426.799)"/><rect class="l" width="22.908" height="131.77" transform="translate(179.341 295.029)"/><rect class="u" width="22.908" height="29.281" transform="translate(225.157 426.799)"/><rect class="l" width="22.908" height="131.77" transform="translate(225.157 295.029)"/><rect class="z" width="13.828" height="20.416" rx="6.914" transform="translate(257.817 450.013) rotate(154.31)"/><path class="aa" d="M355.1,653.435c0-10.413-7.671-18.847-17.125-18.847s-17.125,8.442-17.125,18.847Z" transform="translate(-98.4 -194.066)"/><path class="ab" d="M342,655.2h38.666c0-6.25-4.991-11.558-12.058-13.766a24.237,24.237,0,0,0-7.282-1.09C350.643,640.34,342,647,342,655.2Z" transform="translate(-104.868 -195.825)"/><rect class="b" width="53.348" height="3.402" transform="translate(222.45 459.37)"/><rect class="z" width="13.828" height="20.416" rx="6.914" transform="translate(178.502 431.63) rotate(25.69)"/><path class="aa" d="M246.37,653.435c0-10.413,7.636-18.847,17.119-18.847s17.125,8.441,17.125,18.847Z" transform="translate(-75.623 -194.066)"/><path class="ab" d="M257.54,655.2H218.86c0-6.25,4.984-11.558,12.058-13.765a24.194,24.194,0,0,1,7.275-1.09C248.877,640.34,257.54,647,257.54,655.2Z" transform="translate(-67.21 -195.825)"/><rect class="b" width="53.348" height="3.402" transform="translate(204.991 462.772) rotate(180)"/><path class="y" d="M239.581,285.861,206.322,338.5a11.669,11.669,0,0,1-16.119,3.623l-.916-.576a11.676,11.676,0,0,1-3.611-16.119l33.267-52.619a11.662,11.662,0,0,1,16.091-3.611l.916.583A11.662,11.662,0,0,1,239.581,285.861Z" transform="translate(-56.505 -81.77)"/><path class="y" d="M197.059,346.806l31.816,8.733-6.463,23.547L190.6,370.353A12.21,12.21,0,1,1,197.06,346.8Z" transform="translate(-55.821 -105.923)"/><path class="u" d="M246.843,359.57l27.191,7.463a12.21,12.21,0,0,1-6.464,23.549l-27.191-7.464Z" transform="translate(-73.791 -109.962)"/><rect class="y" width="24.414" height="85.6" rx="12.207" transform="translate(306.417 251.491) rotate(147.71)"/><path class="y" d="M408.221,367.233l-31.534,9.684-1.5-4.861-5.667-18.45,5.665-1.743,25.907-7.969a12.225,12.225,0,0,1,15.05,7.5c.076.194.139.4.2.6s.111.382.16.569l.083.324A12.211,12.211,0,0,1,408.221,367.233Z" transform="translate(-113.284 -105.004)"/><path class="u" d="M361.005,381.419l-1.5.458-25.462,7.817a12.211,12.211,0,0,1-15.071-7.518q-.1-.285-.185-.562c-.09-.3-.174-.6-.243-.9a12.224,12.224,0,0,1,8.33-14.363l26.955-8.275,5.665,18.451Z" transform="translate(-97.605 -109.507)"/><circle class="u" cx="19.111" cy="19.111" r="19.111" transform="translate(242.79 85.253)"/><circle class="t" cx="11.76" cy="11.76" r="11.76" transform="translate(250.141 92.604)"/><circle class="u" cx="19.111" cy="19.111" r="19.111" transform="translate(147.249 85.253)"/><circle class="t" cx="11.76" cy="11.76" r="11.76" transform="translate(154.6 92.604)"/><path class="t" d="M320.829,170.62V226.46a20.067,20.067,0,1,1-40.134,0l0-55.841a20.067,20.067,0,0,1,40.134,0Z" transform="translate(-86.12 -46.042)"/><path class="v" d="M342.173,65.406c0,36.1-26.657,65.413-59.526,65.413-30.391,0-55.46-24.991-59.082-57.333a.526.526,0,0,1,0-.1,71.883,71.883,0,0,1-.444-7.976,68.706,68.706,0,0,1,16.313-44.962c.507-.59,1.027-1.173,1.555-1.742a58.311,58.311,0,0,1,26.74-16.619A54.1,54.1,0,0,1,281.272,0h2.16c23.366.324,43.484,15.445,52.96,37.22q.826,1.9,1.534,3.853A70.609,70.609,0,0,1,342.173,65.406Z" transform="translate(-68.513)"/><rect class="u" width="95.541" height="160.218" rx="47.77" transform="translate(166.36 12.495)"/><circle class="l" cx="8.087" cy="8.087" r="8.087" transform="translate(182.528 73.493)"/><circle class="l" cx="8.087" cy="8.087" r="8.087" transform="translate(229.565 73.493)"/><path class="t" d="M315.04,140.433V155.5a11.024,11.024,0,0,1-22.041,0V140.433a11.024,11.024,0,0,1,22.047,0Z" transform="translate(-89.883 -39.575)"/><path class="v" d="M345.094,41.082A70.015,70.015,0,0,1,306,52.918a70.238,70.238,0,0,1-27.594-5.6A70.765,70.765,0,0,1,246.61,20.444c.507-.59,1.027-1.173,1.555-1.743A58.312,58.312,0,0,1,274.912,2.083,64.893,64.893,0,0,1,289.8,0h.819c23.366.324,43.484,15.445,52.96,37.22Q344.386,39.124,345.094,41.082Z" transform="translate(-75.696)"/><path class="l" d="M321.682,203a23.512,23.512,0,0,1-6.053,11.037,10.413,10.413,0,0,0-16.418-.611,10.059,10.059,0,0,0-15.133,2.555A23.6,23.6,0,0,1,275.88,203Z" transform="translate(-84.647 -62.08)"/><path class="ac" d="M322.019,194.646a23.36,23.36,0,0,1-.347,4.033c-.076.458-.174.9-.271,1.347H275.583c-.1-.444-.194-.888-.264-1.347a23.369,23.369,0,0,1-.354-4.033c0-.451,0-.9.042-1.34h46.957C322.005,193.787,322.019,194.2,322.019,194.646Z" transform="translate(-84.366 -59.115)"/><path class="r" d="M319.237,216.982a23.45,23.45,0,0,1-12.823,6.754,22.682,22.682,0,0,1-4.028.347,15.238,15.238,0,0,1-1.972-.083,23.422,23.422,0,0,1-12.731-5.075,10.059,10.059,0,0,1,15.133-2.554,10.413,10.413,0,0,1,16.42.611Z" transform="translate(-88.256 -65.033)"/><path class="v" d="M283.38,9.92a63.573,63.573,0,0,1-59.825,63.462,71.89,71.89,0,0,1-.445-7.976,68.706,68.706,0,0,1,16.314-44.962c.507-.59,1.027-1.173,1.555-1.743A58.312,58.312,0,0,1,267.725,2.083,64.892,64.892,0,0,1,282.609,0,63.779,63.779,0,0,1,283.38,9.92Z" transform="translate(-68.509)"/><path class="y" d="M324.352,396.474H295.043a2.655,2.655,0,0,1-.41-.035,2.489,2.489,0,0,1-.4.035H264.922A2.6,2.6,0,0,1,262.485,393l11.107-30.426a2.6,2.6,0,0,1,2.443-1.708h18.193a1.888,1.888,0,0,1,.4.035,2,2,0,0,1,.41-.035h18.193a2.6,2.6,0,0,1,2.443,1.708L326.785,393a2.6,2.6,0,0,1-2.436,3.472Z" transform="translate(-80.505 -110.358)"/></g></g></g></svg>