<svg xmlns="http://www.w3.org/2000/svg" viewBox="0 0 370.437 298.529"><defs><style>.a{fill:#eee;}.b{fill:#fff;}.c{fill:#ffb61e;}.d{fill:#283139;}.e{fill:#ff5959;}.f{fill:#2ecc71;}.g,.i,.j,.k{fill:#1b1b1b;}.g{opacity:0.4;}.h{fill:#1e81ff;}.i{opacity:0.7;}.j{opacity:0.2;}.k{opacity:0.9;}.l{fill:#a3a3a3;}.m{fill:#d0d0d0;}</style></defs><g transform="translate(-1552.574 2322)"><path class="a" d="M7.172,217.51A108.846,108.846,0,0,1,0,178.363C0,114.672,53.014,47.726,134.349,16.55,232.681-21.141,335.17,7.723,363.264,81.02a108.845,108.845,0,0,1,7.172,39.147c0,63.691-53.014,130.637-134.349,161.812a243.947,243.947,0,0,1-86.911,16.55C83.287,298.534,26.9,268.974,7.172,217.51Z" transform="translate(1552.574 -2322)"/><g transform="translate(1596.438 -2284.985)"><rect class="b" width="277.306" height="155.993" transform="translate(10.574 61.248)"/><rect class="a" width="46.998" height="158.993" transform="translate(10.574 58.248)"/><path class="c" d="M653.556,135.571,379.69,137.72v30.772H656.631V142.85C656.631,140.017,659.223,135.571,653.556,135.571Z" transform="translate(-369.434 -106.948)"/><path class="d" d="M356.777,74.62H90.1A15.391,15.391,0,0,0,74.71,90.006h0V284.892A15.391,15.391,0,0,0,90.1,300.278H356.777a15.386,15.386,0,0,0,15.386-15.386h0V90.006A15.386,15.386,0,0,0,356.777,74.62ZM331.135,84.858h5.13a5.13,5.13,0,0,1,.1,10.241h-5.227a5.13,5.13,0,1,1-.1-10.241Zm-143.6,0H310.624a5.13,5.13,0,1,1,.093,10.241H187.535a5.13,5.13,0,0,1-.1-10.241Zm-25.642,0h5.126a5.13,5.13,0,0,1,0,10.241h-5.126a5.13,5.13,0,0,1,0-10.241Zm-20.511,0h5.126a5.13,5.13,0,1,1,.1,10.241h-5.223a5.13,5.13,0,1,1-.1-10.241Zm-20.516,0a5.13,5.13,0,1,1-5.13,5.13h0a5.13,5.13,0,0,1,5.13-5.111Zm-15.386,0a5.13,5.13,0,1,1-5.13,5.13h0a5.13,5.13,0,0,1,5.13-5.126Zm-15.386,0a5.13,5.13,0,1,1-5.13,5.13h0a5.13,5.13,0,0,1,5.13-5.126Zm271.811,51.3V284.9a5.13,5.13,0,0,1-5.13,5.126H90.1a5.13,5.13,0,0,1-5.13-5.135V110.52a5.13,5.13,0,0,1,5.13-5.13H356.777a5.13,5.13,0,0,1,5.13,5.13Zm-5.13-41.027h-5.126a5.13,5.13,0,1,1-.1-10.241h5.223a5.13,5.13,0,1,1,.1,10.241Z" transform="translate(-74.71 -74.62)"/><circle class="e" cx="5.13" cy="5.13" r="5.13" transform="translate(10.256 10.256)"/><circle class="c" cx="5.13" cy="5.13" r="5.13" transform="translate(25.641 10.256)"/><circle class="f" cx="5.13" cy="5.13" r="5.13" transform="translate(41.027 10.256)"/><path class="b" d="M416.634,105.921a5.13,5.13,0,1,1,0-10.241h5.126a5.13,5.13,0,1,1,0,10.241Zm-20.516,0a5.13,5.13,0,1,1,0-10.241h5.13a5.13,5.13,0,0,1,0,10.241Zm-143.6,0a5.13,5.13,0,0,1,0-10.241H375.607a5.13,5.13,0,0,1,0,10.241Zm-25.642,0a5.135,5.135,0,0,1,0-10.241H232a5.13,5.13,0,0,1,0,10.241Zm-20.516,0a5.13,5.13,0,0,1,0-10.241h5.13a5.13,5.13,0,1,1,0,10.241Z" transform="translate(-139.693 -85.404)"/><path class="b" d="M462.268,165.4a3.32,3.32,0,0,1,0-6.627h13.276a3.32,3.32,0,1,1,0,6.627Zm-26.55,0a3.32,3.32,0,1,1,0-6.627H448.99a3.32,3.32,0,1,1,0,6.627Zm-26.55,0a3.32,3.32,0,1,1,0-6.627h13.276a3.32,3.32,0,0,1,0,6.627Z" transform="translate(-201.221 -115.922)"/><path class="b" d="M462.268,165.4a3.32,3.32,0,0,1,0-6.627h13.276a3.32,3.32,0,1,1,0,6.627Zm-26.55,0a3.32,3.32,0,1,1,0-6.627H448.99a3.32,3.32,0,1,1,0,6.627Zm-26.55,0a3.32,3.32,0,1,1,0-6.627h13.276a3.32,3.32,0,0,1,0,6.627Z" transform="translate(-281.218 -115.922)"/><path class="b" d="M411.089,169.021a5.13,5.13,0,1,1,0-10.241h20.516a5.13,5.13,0,0,1,0,10.241Z" transform="translate(-385.252 -117.733)"/><path class="g" d="M241.822,337.53H173.927a4.245,4.245,0,0,0-.081,8.473h67.976a4.245,4.245,0,0,0,0-8.473Z" transform="translate(-72.898 -195.923)"/><path class="g" d="M298.272,211.34H268.567a4.245,4.245,0,0,0-.081,8.473h29.786a4.245,4.245,0,0,0,0-8.473Z" transform="translate(-129.352 -120.65)"/><path class="f" d="M298.272,253.4H268.567a4.245,4.245,0,0,0-.081,8.473h29.786a4.245,4.245,0,0,0,0-8.473Z" transform="translate(-129.352 -145.739)"/><path class="h" d="M298.272,379.6H268.567a4.245,4.245,0,0,0-.081,8.473h29.786a4.245,4.245,0,0,0,0-8.473Z" transform="translate(-129.352 -221.018)"/><path class="g" d="M298.272,421.66H268.567a4.245,4.245,0,0,0-.081,8.473h29.786a4.245,4.245,0,0,0,.081-8.473Z" transform="translate(-129.352 -246.107)"/><path class="i" d="M173.981,296.592a4.245,4.245,0,0,1,0-8.473h67.9a4.245,4.245,0,0,1,0,8.473Zm0-67.892a4.245,4.245,0,0,1,0-8.473h67.9a4.245,4.245,0,0,1,0,8.473Zm0-50.917a4.245,4.245,0,0,1,0-8.473h67.9a4.245,4.245,0,0,1,0,8.473Z" transform="translate(-72.957 -95.579)"/><path class="j" d="M194.248,304.7a4.245,4.245,0,0,1,0-8.473h12.73a4.245,4.245,0,0,1,0,8.473Zm0-16.975a4.245,4.245,0,1,1,0-8.473h12.73a4.245,4.245,0,1,1,0,8.473Zm0-50.917a4.245,4.245,0,0,1,0-8.473h12.73a4.245,4.245,0,0,1,0,8.473Zm0-16.975a4.245,4.245,0,0,1,0-8.473h12.73a4.245,4.245,0,1,1,0,8.473Z" transform="translate(-84.735 -120.656)"/><path class="k" d="M121.4,296.58a4.245,4.245,0,0,1,0-8.473h4.242a4.245,4.245,0,1,1,0,8.473Zm8.473-16.971a4.245,4.245,0,0,1,0-8.473h4.242a4.245,4.245,0,1,1,0,8.473Zm0-16.975a4.245,4.245,0,1,1,0-8.473h4.242a4.245,4.245,0,1,1,0,8.473ZM121.4,245.663a4.245,4.245,0,0,1,0-8.473h4.242a4.245,4.245,0,0,1,0,8.473Zm0-16.975a4.245,4.245,0,0,1,0-8.473h4.242a4.245,4.245,0,1,1,0,8.473Zm8.473-16.971a4.245,4.245,0,0,1,0-8.473h4.242a4.245,4.245,0,1,1,0,8.473Zm0-16.975a4.245,4.245,0,1,1,0-8.473h4.242a4.245,4.245,0,1,1,0,8.473ZM121.4,177.771a4.245,4.245,0,0,1,0-8.473h4.242a4.245,4.245,0,1,1,0,8.473Z" transform="translate(-41.593 -95.567)"/><rect class="c" width="90.996" height="90.996" rx="12" transform="translate(186.566 73.248)"/><path class="b" d="M27.989,0,0,49.985H55.984Zm0,22.467L37.6,39.629H18.383Z" transform="translate(204.565 94.247)"/><rect class="l" width="34.999" height="6" rx="3" transform="translate(214.565 169.244)"/><rect class="l" width="34.999" height="6" rx="3" transform="translate(16.573 70.248)"/><rect class="e" width="34.999" height="6" rx="3" transform="translate(16.573 92.247)"/><rect class="m" width="34.999" height="6" rx="3" transform="translate(16.573 114.246)"/><rect class="h" width="34.999" height="6" rx="3" transform="translate(16.573 81.247)"/><rect class="l" width="34.999" height="6" rx="3" transform="translate(16.573 103.247)"/><rect class="c" width="34.999" height="6" rx="3" transform="translate(16.573 125.246)"/></g></g></svg>