<?xml version="1.0" encoding="utf-8"?>
<!-- Generator: Adobe Illustrator 22.1.0, SVG Export Plug-In . SVG Version: 6.00 Build 0)  -->
<svg version="1.1" id="Capa_1" xmlns="http://www.w3.org/2000/svg" xmlns:xlink="http://www.w3.org/1999/xlink" x="0px" y="0px"
	 viewBox="0 0 513.6 424.2" style="enable-background:new 0 0 513.6 424.2;" xml:space="preserve">
<style type="text/css">
	.st0{fill:#EEEEEE;}
	.st1{fill:#FFFFFF;}
	.st2{fill:#333E48;}
	.st3{fill:#FF5959;}
	.st4{fill:#FFB61E;}
	.st5{fill:#2ECC71;}
	.st6{fill:#283139;}
	.st7{fill:#0071CE;}
	.st8{fill:#E2E2E2;}
	.st9{fill:#D6D8DA;}
</style>
<g>
	<path class="st0" d="M501.9,326.1c-7.1,16.8-17.5,32-30.4,44.9c-61.2,61.2-179,72.1-291,20c-40.3-18.8-75.3-43.6-103.5-71.8
		C10.6,252.7-17.9,167.4,11.6,98.1c7.1-16.8,17.4-32,30.4-44.9c61.2-61.2,179-72.1,291-20C468.4,96.2,544,227.3,501.9,326.1z"/>
	<path class="st1" d="M464.5,95.7v254.2c0,4.8-5.8,8.8-13,8.8H113.9v-263L464.5,95.7z"/>
	<path class="st2" d="M121.2,92.1H66.8c-1.2,0-2.1,3.4-2.1,7.5v255c0,4.1,0.9,7.5,2.1,7.5h54.3L121.2,92.1L121.2,92.1z"/>
	<circle class="st3" cx="77.4" cy="73.8" r="7.3"/>
	<circle class="st4" cx="99.3" cy="73.8" r="7.3"/>
	<circle class="st5" cx="121.2" cy="73.8" r="7.3"/>
	<path class="st1" d="M449.9,81.1c-4,0.2-7.5-2.8-7.7-6.8c-0.2-4,2.8-7.5,6.8-7.7c0.3,0,0.6,0,0.9,0h7.3c4-0.2,7.5,2.8,7.7,6.8
		c0.2,4-2.8,7.5-6.8,7.7c-0.3,0-0.6,0-0.9,0L449.9,81.1z M420.7,81.1c-4,0.3-7.5-2.7-7.8-6.8c-0.3-4,2.7-7.5,6.8-7.8
		c0,0,0.1,0,0.1,0c0.3,0,0.6,0,0.9,0h7.3c4,0.3,7.1,3.7,6.8,7.8c-0.2,3.7-3.2,6.6-6.8,6.8L420.7,81.1z M216.2,81.1
		c-4-0.1-7.2-3.5-7-7.6c0.1-3.8,3.2-6.9,7-7h177.2c4,0.1,7.2,3.5,7,7.6c-0.1,3.8-3.2,6.9-7,7L216.2,81.1z M179.6,81.1
		c-4-0.3-7-3.9-6.7-7.9c0.3-3.6,3.1-6.4,6.7-6.7h7.3c4,0.3,7.1,3.7,6.8,7.8c-0.2,3.7-3.2,6.6-6.8,6.8L179.6,81.1z M149.4,81.1
		c-4-0.3-7.1-3.7-6.8-7.8c0.2-3.7,3.2-6.6,6.8-6.8h8.3c4-0.2,7.5,2.8,7.7,6.8s-2.8,7.5-6.8,7.7c-0.3,0-0.6,0-0.9,0L149.4,81.1z"/>
	<path class="st6" d="M457.2,51.8H77.4c-12.1,0-21.9,9.8-21.9,21.9l0,0v277.6c0,12.1,9.8,21.9,21.9,21.9h379.8
		c12.1,0,21.9-9.8,21.9-21.9c0,0,0,0,0,0l0,0V73.8C479.1,61.7,469.3,51.8,457.2,51.8L457.2,51.8z M420.7,66.4h7.3
		c4,0.2,7.1,3.7,6.9,7.7c-0.2,3.7-3.1,6.6-6.8,6.9h-7.4c-4,0.3-7.5-2.8-7.8-6.8c-0.3-4,2.8-7.5,6.8-7.8c0.3,0,0.6,0,0.9,0H420.7z
		 M216.1,66.4h175.3c4-0.3,7.5,2.8,7.8,6.8c0.3,4-2.8,7.5-6.8,7.8c-0.3,0-0.6,0-0.9,0H216.1c-4-0.2-7.1-3.7-6.9-7.7
		c0.2-3.7,3.1-6.6,6.8-6.9H216.1z M179.6,66.4h7.3c4,0.2,7.1,3.6,6.9,7.7c-0.2,3.7-3.2,6.7-6.9,6.9h-7.3c-4-0.2-7.1-3.6-6.9-7.7
		C172.9,69.6,175.9,66.6,179.6,66.4z M150.4,66.4h7.3c4-0.3,7.5,2.8,7.8,6.8c0.3,4-2.8,7.5-6.8,7.8c-0.3,0-0.6,0-0.9,0h-7.4
		c-4,0.3-7.5-2.8-7.8-6.8c-0.3-4,2.8-7.5,6.8-7.8c0.3,0,0.6,0,0.9,0H150.4z M121.2,66.4c4,0,7.3,3.3,7.3,7.3c0,4-3.3,7.3-7.3,7.3
		c-4,0-7.3-3.3-7.3-7.3c0,0,0,0,0,0l0,0C113.9,69.7,117.2,66.4,121.2,66.4L121.2,66.4z M99.3,66.4c4,0,7.3,3.2,7.3,7.3
		c0,4-3.2,7.3-7.3,7.3c-4,0-7.3-3.2-7.3-7.3c0,0,0,0,0,0l0,0C92,69.7,95.3,66.4,99.3,66.4L99.3,66.4z M77.4,66.4
		c4,0,7.3,3.3,7.3,7.3c0,4-3.3,7.3-7.3,7.3c-4,0-7.3-3.3-7.3-7.3c0,0,0,0,0,0l0,0C70.1,69.7,73.3,66.4,77.4,66.4
		C77.4,66.4,77.4,66.4,77.4,66.4z M464.5,139.5v211.8c0,4-3.3,7.3-7.3,7.3H77.4c-4,0-7.3-3.3-7.3-7.3c0,0,0,0,0,0l0,0V103
		c0-4,3.3-7.3,7.3-7.3h379.8c4,0,7.3,3.3,7.3,7.3c0,0,0,0,0,0l0,0V139.5z M457.2,81.1h-7.3c-4,0.2-7.4-3-7.6-7
		c-0.2-3.9,2.7-7.2,6.6-7.6h8.3c4-0.2,7.4,3,7.6,7c0.2,3.9-2.7,7.2-6.6,7.6c-0.3,0-0.6,0-0.9,0H457.2z"/>
	<path class="st5" d="M337.2,223.5l-9.6,16.7c-2.4,4.1-6.7,6.6-11.4,6.6h-19.3c-4.7,0-9.1-2.5-11.4-6.6l-9.7-16.7
		c-2.4-4.1-2.4-9.1,0-13.2l9.7-16.7c2.4-4.1,6.7-6.6,11.4-6.6h19.3c4.7,0,9.1,2.5,11.5,6.6l9.7,16.7
		C339.5,214.4,339.5,219.4,337.2,223.5z"/>
	<path class="st7" d="M358.9,146.3h-105c-9.9,0-18,8.1-18,18v105c0,9.9,8.1,18,18,18h105c9.9,0,18-8,18-17.9c0,0,0,0,0-0.1v-105
		C377,154.4,368.9,146.3,358.9,146.3C359,146.3,359,146.3,358.9,146.3L358.9,146.3z M306.4,262.5c-25.2,0-45.5-20.4-45.5-45.6
		s20.4-45.5,45.6-45.5c25.2,0,45.5,20.4,45.5,45.6c0,12.1-4.8,23.6-13.3,32.2C330.1,257.7,318.5,262.5,306.4,262.5z"/>
	<circle class="st3" cx="379.3" cy="232.5" r="45.6"/>
	<path class="st4" d="M259.4,308h-68.1c-11.4,0-20.7-9.3-20.7-20.7c0-3.6,1-7.2,2.8-10.3l34.1-59c5.7-9.9,18.4-13.3,28.3-7.5
		c3.1,1.8,5.7,4.4,7.5,7.5l34.1,59c5.7,9.9,2.3,22.5-7.5,28.2C266.6,307,263.1,308,259.4,308z"/>
	<path class="st8" d="M389.7,228.9l-37.5,6.3c-0.8,0.1-1.5-0.4-1.7-1.1c-0.1-0.3,0-0.6,0.1-0.9l14.9-34.9c0.2-0.4,0.5-0.7,0.9-0.8
		l19.8-6.3c0.6-0.2,1.2,0,1.6,0.5l13.5,17.1c0.4,0.5,0.4,1.1,0.1,1.6l-10.7,17.8C390.5,228.6,390.2,228.8,389.7,228.9z"/>
	
		<rect x="399.1" y="182.9" transform="matrix(0.7856 -0.6187 0.6187 0.7856 -32.5495 291.4474)" class="st6" width="10.3" height="19.6"/>
	<path class="st6" d="M373.9,216.6c-1.4-1.7-1.1-4.2,0.6-5.6c1.7-1.4,4.2-1.1,5.6,0.6c1.4,1.7,1.1,4.2-0.6,5.6c0,0,0,0-0.1,0
		C377.7,218.6,375.2,218.3,373.9,216.6z"/>
	<path class="st4" d="M386.2,190.5c-1.5-1.9-1.2-4.6,0.7-6s4.6-1.2,6,0.7l15.9,20.2c1.4,1.9,1,4.6-0.9,6c-1.8,1.3-4.4,1-5.8-0.7
		L386.2,190.5z"/>
	<path class="st1" d="M98.8,105.5h-7.3c-0.3,0-0.6,0-0.9,0c-0.1,0-0.1,0-0.1,0c-4,0.3-7.1,3.8-6.8,7.8c0.3,4,3.8,7.1,7.8,6.8h7.3
		c3.7-0.2,6.6-3.2,6.8-6.8C105.9,109.2,102.9,105.7,98.8,105.5z"/>
	<path class="st9" d="M98.8,130.1h-7.3c-0.3,0-0.6,0-0.9,0c-0.1,0-0.1,0-0.1,0c-4,0.3-7.1,3.8-6.8,7.8c0.3,4,3.8,7.1,7.8,6.8h7.3
		c3.7-0.2,6.6-3.2,6.8-6.8C105.9,133.8,102.9,130.4,98.8,130.1z"/>
	<path class="st9" d="M98.8,154.5h-7.3c-0.3,0-0.6,0-0.9,0c-0.1,0-0.1,0-0.1,0c-4,0.3-7.1,3.8-6.8,7.8c0.3,4,3.8,7.1,7.8,6.8h7.3
		c3.7-0.2,6.6-3.2,6.8-6.8C105.9,158.2,102.9,154.8,98.8,154.5z"/>
	<path class="st9" d="M98.8,179.1h-7.3c-0.3,0-0.6,0-0.9,0c-0.1,0-0.1,0-0.1,0c-4,0.3-7.1,3.8-6.8,7.8c0.3,4,3.8,7.1,7.8,6.8h7.3
		c3.7-0.2,6.6-3.2,6.8-6.8C105.9,182.8,102.9,179.4,98.8,179.1z"/>
	<path class="st9" d="M98.8,203.7h-7.3c-0.3,0-0.6,0-0.9,0c-0.1,0-0.1,0-0.1,0c-4,0.3-7.1,3.8-6.8,7.8c0.3,4,3.8,7.1,7.8,6.8h7.3
		c3.7-0.2,6.6-3.2,6.8-6.8C105.9,207.5,102.9,204,98.8,203.7z"/>
	<path class="st9" d="M98.8,228.1h-7.3c-0.3,0-0.6,0-0.9,0c-0.1,0-0.1,0-0.1,0c-4,0.3-7.1,3.8-6.8,7.8c0.3,4,3.8,7.1,7.8,6.8h7.3
		c3.7-0.2,6.6-3.2,6.8-6.8C105.9,231.9,102.9,228.4,98.8,228.1z"/>
</g>
</svg>
