<svg xmlns="http://www.w3.org/2000/svg" viewBox="0 0 513.564 424.19"><defs><style>.a{fill:#eee;}.b{fill:#fff;}.c{fill:#333e48;}.d{fill:#ff5959;}.e{fill:#ffb61e;}.f{fill:#2ecc71;}.g{fill:#283139;}.h{fill:#0071ce;}.i{fill:#e2e2e2;}</style></defs><g transform="translate(-0.001 -0.003)"><path class="a" d="M501.93,326.09a141.68,141.68,0,0,1-30.38,44.85c-61.2,61.19-179,72.06-291,20-40.3-18.77-75.34-43.58-103.55-71.76C10.56,252.73-17.91,167.45,11.65,98.11A141.57,141.57,0,0,1,42,53.26c61.2-61.2,179-72.06,291-20C468.4,96.23,544,227.33,501.93,326.09Z"/><path class="b" d="M464.5,95.67V349.88c0,4.84-5.82,8.76-13,8.76H113.89v-263Z"/><path class="c" d="M121.19,92.13H66.84c-1.16,0-2.09,3.36-2.09,7.5V354.68c0,4.14.93,7.49,2.09,7.5h54.35v-270Z"/><circle class="d" cx="7.31" cy="7.31" r="7.31" transform="translate(70.06 66.45)"/><circle class="e" cx="7.31" cy="7.31" r="7.31" transform="translate(91.97 66.45)"/><circle class="f" cx="7.31" cy="7.31" r="7.31" transform="translate(113.88 66.45)"/><path class="b" d="M449.9,81.07a7.309,7.309,0,1,1-.9-14.591,6.908,6.908,0,0,1,.91,0h7.3a7.309,7.309,0,1,1,.9,14.591,6.76,6.76,0,0,1-.9,0Zm-29.22,0a7.31,7.31,0,1,1-.91-14.591,6.909,6.909,0,0,1,.91,0H428a7.31,7.31,0,0,1,0,14.59Zm-204.46,0a7.3,7.3,0,0,1,0-14.59H393.43a7.3,7.3,0,0,1,0,14.59Zm-36.59,0a7.32,7.32,0,0,1,0-14.59h7.3a7.31,7.31,0,0,1,0,14.59Zm-30.21,0a7.31,7.31,0,0,1,0-14.59h8.3a7.309,7.309,0,1,1,.9,14.591,6.762,6.762,0,0,1-.9,0Z"/><path class="g" d="M457.2,51.85H77.37A21.93,21.93,0,0,0,55.45,73.76h0V351.33a21.93,21.93,0,0,0,21.92,21.92H457.2a21.91,21.91,0,0,0,21.91-21.92h0V73.76A21.91,21.91,0,0,0,457.2,51.85ZM420.68,66.43H428A7.3,7.3,0,0,1,428.12,81h-7.44a7.3,7.3,0,1,1-1-14.57,5.41,5.41,0,0,1,.9,0Zm-204.53,0H391.46a7.3,7.3,0,1,1,1,14.57,5.411,5.411,0,0,1-.9,0H216.15A7.3,7.3,0,0,1,216,66.43Zm-36.52,0h7.3a7.3,7.3,0,0,1,0,14.58h-7.3a7.3,7.3,0,0,1,0-14.58Zm-29.22,0h7.3a7.3,7.3,0,1,1,1,14.57,5.411,5.411,0,0,1-.9,0h-7.44a7.3,7.3,0,1,1-1-14.57,5.3,5.3,0,0,1,.89,0Zm-29.22,0a7.31,7.31,0,1,1-7.3,7.3h0a7.3,7.3,0,0,1,7.3-7.28Zm-21.91,0A7.31,7.31,0,1,1,92,73.73h0a7.32,7.32,0,0,1,7.31-7.3Zm-21.91,0a7.31,7.31,0,1,1-7.31,7.3h0a7.3,7.3,0,0,1,7.31-7.3ZM464.5,139.5V351.34a7.3,7.3,0,0,1-7.3,7.3H77.37a7.3,7.3,0,0,1-7.31-7.3h0V103a7.31,7.31,0,0,1,7.31-7.31H457.2a7.3,7.3,0,0,1,7.3,7.31h0Zm-7.3-58.44h-7.3a7.31,7.31,0,0,1-1-14.58h8.34a7.31,7.31,0,0,1,1,14.58,6.76,6.76,0,0,1-.9,0Z"/><path class="f" d="M331.848,218.588,322.2,235.322a13.2,13.2,0,0,1-11.434,6.6H291.429a13.2,13.2,0,0,1-11.434-6.6l-9.665-16.735a13.23,13.23,0,0,1,0-13.2l9.665-16.726a13.2,13.2,0,0,1,11.434-6.6h19.32a13.2,13.2,0,0,1,11.451,6.6l9.665,16.726A13.23,13.23,0,0,1,331.848,218.588Z" transform="translate(5.336 4.91)"/><path class="h" d="M358.94,146.33h-105a18,18,0,0,0-18,18v105a18,18,0,0,0,18,18h105a18,18,0,0,0,18.05-18v-105a18,18,0,0,0-18.05-18ZM306.42,262.46a45.55,45.55,0,1,1,32.234-13.337A45.56,45.56,0,0,1,306.42,262.46Z"/><circle class="d" cx="45.56" cy="45.56" r="45.56" transform="translate(333.72 186.97)"/><path class="e" d="M259.45,308H191.31a20.67,20.67,0,0,1-17.9-31l34.07-59a20.68,20.68,0,0,1,35.79,0l34.07,59a20.66,20.66,0,0,1-17.89,31Z"/><path class="i" d="M389.75,228.92l-37.48,6.31a1.43,1.43,0,0,1-1.56-2l14.93-34.95a1.43,1.43,0,0,1,.89-.81l19.82-6.26a1.43,1.43,0,0,1,1.56.48l13.47,17.11a1.43,1.43,0,0,1,.1,1.63l-10.74,17.8A1.45,1.45,0,0,1,389.75,228.92Z"/><rect class="g" width="10.31" height="19.63" transform="matrix(0.786, -0.619, 0.619, 0.786, 394.168, 188.173)"/><path class="g" d="M373.88,216.61a4,4,0,1,1,5.57.66A4,4,0,0,1,373.88,216.61Z"/><path class="e" d="M386.22,190.51a4.293,4.293,0,1,1,6.74-5.32l15.94,20.24a4.3,4.3,0,0,1-6.75,5.32Z"/></g></svg>