<svg xmlns="http://www.w3.org/2000/svg" viewBox="0 0 527.585 425.173"><defs><style>.a{fill:#eee;}.b{fill:#333e48;}.c{fill:#283139;}.d{fill:#fff;}.e{fill:#ff5959;}.f{fill:#ffb61e;}.g{fill:#2ecc71;}.h{fill:#dee3ed;}.i{fill:#0071ce;}</style></defs>
<g transform="translate(-284.442 -1759)"><path class="a" d="M10.214,309.783A155.021,155.021,0,0,1,0,254.029C0,163.318,75.5,67.972,191.343,23.571,331.39-30.109,477.358,11,517.371,115.391a155.02,155.02,0,0,1,10.215,55.754c0,90.711-75.5,186.057-191.344,230.457-41.713,15.989-83.973,23.568-123.78,23.571C118.62,425.179,38.309,383.08,10.214,309.783Z" transform="translate(284.442 1759)"/><g transform="translate(346.896 1811.339)"><path class="b" d="M290.629,132.62H95.591a7.513,7.513,0,0,0-7.5,7.5V395.17a7.513,7.513,0,0,0,7.5,7.5H290.622V132.62Z" transform="translate(-78.797 -92.335)"/><path class="c" d="M476.454,74.62H96.624A21.921,21.921,0,0,0,74.71,96.534h0V374.108a21.921,21.921,0,0,0,21.914,21.914h379.83a21.914,21.914,0,0,0,21.914-21.914h0V96.534A21.914,21.914,0,0,0,476.454,74.62ZM439.933,89.2h7.307a7.307,7.307,0,0,1,.139,14.586h-7.445a7.307,7.307,0,1,1-.139-14.586Zm-204.526,0H410.719a7.307,7.307,0,1,1,.132,14.586H235.405a7.307,7.307,0,0,1-.139-14.586Zm-36.521,0h7.3a7.307,7.307,0,0,1,0,14.586h-7.3a7.307,7.307,0,0,1,0-14.586Zm-29.214,0h7.3a7.307,7.307,0,1,1,.139,14.586h-7.439a7.307,7.307,0,1,1-.14-14.586Zm-29.221,0a7.307,7.307,0,1,1-7.307,7.307h0a7.307,7.307,0,0,1,7.307-7.279Zm-21.914,0a7.307,7.307,0,1,1-7.307,7.307h0a7.307,7.307,0,0,1,7.307-7.3Zm-21.914,0a7.307,7.307,0,1,1-7.307,7.307h0a7.307,7.307,0,0,1,7.307-7.3Zm387.137,73.069V374.118a7.307,7.307,0,0,1-7.307,7.3H96.624a7.307,7.307,0,0,1-7.307-7.314V125.751a7.307,7.307,0,0,1,7.307-7.307h379.83a7.307,7.307,0,0,1,7.307,7.307Zm-7.307-58.435h-7.3a7.307,7.307,0,1,1-.139-14.586h7.439a7.307,7.307,0,1,1,.139,14.586Z" transform="translate(-74.71 -74.62)"/>
<path class="d" d="M379.69,419.949H569.6a7.307,7.307,0,0,0,7.307-7.3V200.8H379.69ZM489.253,237.335v-7.3a7.307,7.307,0,0,1,7.342-7.307h51.128a7.307,7.307,0,0,1,7.307,7.307v65.735a7.307,7.307,0,0,1-7.307,7.307H496.594a7.307,7.307,0,0,1-7.307-7.307Zm-87.649,0v-7.3a7.307,7.307,0,0,1,7.3-7.307H460.04a7.3,7.3,0,0,1,7.3,7.307v65.735a7.3,7.3,0,0,1-7.3,7.307H408.906a7.314,7.314,0,0,1-7.307-7.307V237.335Zm7.3,87.655H547.688a7.307,7.307,0,0,1,7.307,7.307v58.436a7.307,7.307,0,0,1-7.307,7.307H408.906a7.3,7.3,0,0,1-7.3-7.307V332.3a7.3,7.3,0,0,1,7.3-7.308Z" transform="translate(-167.857 -113.158)"/>
<circle class="e" cx="7.307" cy="7.307" r="7.307" transform="translate(14.607 14.607)"/>
<circle class="f" cx="7.307" cy="7.307" r="7.307" transform="translate(36.521 14.607)"/>
<circle class="g" cx="7.307" cy="7.307" r="7.307" transform="translate(58.435 14.607)"/>
<path class="d" d="M507.893,110.27a7.307,7.307,0,1,1,0-14.586h7.3a7.307,7.307,0,1,1,0,14.586Zm-29.221,0a7.307,7.307,0,1,1,0-14.586h7.307a7.307,7.307,0,0,1,0,14.586Zm-204.526,0a7.307,7.307,0,0,1,0-14.586H449.458a7.307,7.307,0,0,1,0,14.586Zm-36.521,0a7.314,7.314,0,0,1,0-14.586h7.3a7.307,7.307,0,0,1,0,14.586Zm-29.221,0a7.307,7.307,0,0,1,0-14.586h7.307a7.307,7.307,0,1,1,0,14.586Z" transform="translate(-113.449 -81.049)"/><path class="f" d="M569.6,137.72H379.69v43.828H576.908V145.027A7.307,7.307,0,0,0,569.6,137.72Z" transform="translate(-167.857 -93.892)"/>
<path class="d" d="M530.269,173.37a7.307,7.307,0,0,1,0-14.586h29.221a7.307,7.307,0,1,1,0,14.586Zm-58.435,0a7.307,7.307,0,1,1,0-14.586h29.211a7.307,7.307,0,1,1,0,14.586Zm-58.435,0a7.307,7.307,0,1,1,0-14.586H442.62a7.307,7.307,0,0,1,0,14.586Z" transform="translate(-175.784 -100.321)"/>
<g transform="translate(233.739 124.176)">
<path class="h" d="M418.537,319.141h51.134a7.307,7.307,0,0,0,7.3-7.307V253.4a7.307,7.307,0,0,1-7.3,7.307H418.537a7.307,7.307,0,0,1-7.307-7.307v58.435A7.314,7.314,0,0,0,418.537,319.141Z" transform="translate(-411.23 -253.4)"/>
<path class="h" d="M544.787,319.141h51.126a7.307,7.307,0,0,0,7.307-7.307V253.4a7.307,7.307,0,0,1-7.307,7.307H544.787a7.307,7.307,0,0,1-7.307-7.307v58.435a7.307,7.307,0,0,0,7.307,7.307Z" transform="translate(-449.79 -253.4)"/></g>
<path class="e" d="M418.537,254.284h51.134a7.307,7.307,0,0,0,7.3-7.307v-7.3a7.307,7.307,0,0,0-7.3-7.307H418.537a7.314,7.314,0,0,0-7.307,7.307v7.3A7.314,7.314,0,0,0,418.537,254.284Z" transform="translate(-177.491 -122.801)"/>
<path class="i" d="M544.787,254.284h51.126a7.307,7.307,0,0,0,7.307-7.307v-7.3a7.307,7.307,0,0,0-7.307-7.307H544.787a7.307,7.307,0,0,0-7.307,7.307v7.3a7.307,7.307,0,0,0,7.307,7.307Z" transform="translate(-216.051 -122.801)"/>
<path class="h" d="M439.577,386.907v58.435a7.307,7.307,0,0,1-7.307,7.307H563.747a7.307,7.307,0,0,0,7.307-7.307V386.907a7.307,7.307,0,0,0-7.307-7.307H432.27a7.307,7.307,0,0,1,7.307,7.307Z" transform="translate(-183.917 -167.768)"/>
<path class="g" d="M418.537,452.642h7.307a7.307,7.307,0,0,0,7.307-7.3V386.907a7.307,7.307,0,0,0-7.307-7.307h-7.307a7.314,7.314,0,0,0-7.307,7.307v58.435a7.307,7.307,0,0,0,7.307,7.3Z" transform="translate(-177.491 -167.768)"/>
<path class="f" d="M176.855,388.414a7.307,7.307,0,0,1,0-14.586H293.732a7.307,7.307,0,0,1,0,14.586Zm0-116.87a7.307,7.307,0,0,1,0-14.586H293.732a7.307,7.307,0,0,1,0,14.586Zm0-87.649a7.307,7.307,0,0,1,0-14.586H293.732a7.307,7.307,0,0,1,0,14.586Z" transform="translate(-103.813 -103.541)"/>
<path class="g" d="M197.5,372.041a7.307,7.307,0,0,1,0-14.586h21.914a7.307,7.307,0,0,1,0,14.586Zm0-29.221a7.307,7.307,0,1,1,0-14.586h21.914a7.307,7.307,0,1,1,0,14.586Zm0-87.649a7.307,7.307,0,0,1,0-14.586h21.914a7.307,7.307,0,0,1,0,14.586Zm0-29.221a7.307,7.307,0,0,1,0-14.586h21.914a7.307,7.307,0,1,1,0,14.586Z" transform="translate(-109.843 -116.38)"/><g transform="translate(66.116 94.962)"><path class="d" d="M293.707,337.53H176.832a7.307,7.307,0,0,0-.139,14.586H293.707a7.307,7.307,0,0,0,0-14.586Z" transform="translate(-169.899 -249.881)"/>
<path class="d" d="M322.607,211.34H271.472a7.307,7.307,0,0,0-.139,14.586h51.274a7.307,7.307,0,0,0,0-14.586Z" transform="translate(-198.805 -211.34)"/>
<path class="d" d="M322.607,253.4H271.472a7.307,7.307,0,0,0-.139,14.586h51.274a7.307,7.307,0,0,0,0-14.586Z" transform="translate(-198.805 -224.186)"/>
<path class="d" d="M322.607,379.6H271.472a7.307,7.307,0,0,0-.139,14.586h51.274a7.307,7.307,0,0,0,0-14.586Z" transform="translate(-198.805 -262.731)"/>
<path class="d" d="M322.607,421.66H271.472a7.307,7.307,0,0,0-.139,14.586h51.274a7.307,7.307,0,0,0,.139-14.586Z" transform="translate(-198.805 -275.576)"/></g><path class="e" d="M124.277,388.408a7.307,7.307,0,0,1,0-14.586h7.3a7.307,7.307,0,1,1,0,14.586Zm14.586-29.214a7.307,7.307,0,0,1,0-14.586h7.3a7.307,7.307,0,1,1,0,14.586Zm0-29.221a7.307,7.307,0,1,1,0-14.586h7.3a7.307,7.307,0,1,1,0,14.586Zm-14.586-29.214a7.307,7.307,0,0,1,0-14.586h7.3a7.307,7.307,0,0,1,0,14.586Zm0-29.221a7.307,7.307,0,0,1,0-14.586h7.3a7.307,7.307,0,1,1,0,14.586Zm14.586-29.214a7.307,7.307,0,0,1,0-14.586h7.3a7.307,7.307,0,1,1,0,14.586Zm0-29.221a7.307,7.307,0,1,1,0-14.586h7.3a7.307,7.307,0,1,1,0,14.586ZM124.277,183.89a7.307,7.307,0,0,1,0-14.586h7.3a7.307,7.307,0,1,1,0,14.586Z" transform="translate(-87.754 -103.535)"/></g></g></svg>
