<svg xmlns="http://www.w3.org/2000/svg" width="394.773" height="298.817" viewBox="0 0 394.773 298.817"><g transform="translate(-1974.185 2866.288)"><path d="M174.173,295.5a253.911,253.911,0,0,1-86.95-30.31C33.98,234.458-.018,186.279,0,135.815a111.974,111.974,0,0,1,1.389-17.549A113.286,113.286,0,0,1,15.3,79.25C48.441,21.84,131.065-10.913,220.6,3.313,320.917,19.252,394.707,88.574,394.772,162.867a111.96,111.96,0,0,1-1.389,17.683,113.278,113.278,0,0,1-13.907,39.018c-27.929,48.376-91.005,79.244-163.732,79.248A264.863,264.863,0,0,1,174.173,295.5Z" transform="translate(1974.185 -2866.288)" fill="#eee"/><g transform="translate(2024.438 -2833.985)"><rect width="288.631" height="162.364" transform="translate(11.005 63.75)" fill="#fff"/><rect width="48.917" height="165.486" transform="translate(11.005 60.627)" fill="#eee"/><path d="M664.74,135.571l-285.05,2.236v32.028H667.941V143.147C667.941,140.2,670.638,135.571,664.74,135.571Z" transform="translate(-369.016 -105.779)" fill="#1364cb"/><path d="M368.3,74.62H90.724A16.02,16.02,0,0,0,74.71,90.634h0V293.48a16.02,16.02,0,0,0,16.014,16.014H368.3A16.014,16.014,0,0,0,384.31,293.48h0V90.634A16.014,16.014,0,0,0,368.3,74.62ZM341.607,85.276h5.34a5.34,5.34,0,0,1,.1,10.659h-5.441a5.34,5.34,0,1,1-.1-10.659Zm-149.463,0H320.258a5.34,5.34,0,1,1,.1,10.659H192.143a5.34,5.34,0,0,1-.1-10.659Zm-26.689,0h5.336a5.34,5.34,0,0,1,0,10.659h-5.336a5.34,5.34,0,0,1,0-10.659Zm-21.349,0h5.336a5.34,5.34,0,1,1,.1,10.659h-5.436a5.34,5.34,0,1,1-.1-10.659Zm-21.354,0a5.34,5.34,0,1,1-5.34,5.34h0a5.34,5.34,0,0,1,5.34-5.32Zm-16.014,0a5.34,5.34,0,1,1-5.34,5.34h0a5.34,5.34,0,0,1,5.34-5.336Zm-16.014,0a5.34,5.34,0,1,1-5.34,5.34h0a5.34,5.34,0,0,1,5.34-5.336Zm282.912,53.4V293.487a5.34,5.34,0,0,1-5.34,5.336H90.724a5.34,5.34,0,0,1-5.34-5.345V111.986a5.34,5.34,0,0,1,5.34-5.34H368.3a5.34,5.34,0,0,1,5.34,5.34Zm-5.34-42.7H362.96a5.34,5.34,0,1,1-.1-10.659H368.3a5.34,5.34,0,1,1,.1,10.659Z" transform="translate(-74.71 -74.62)" fill="#283139"/><circle cx="5.34" cy="5.34" r="5.34" transform="translate(10.674 10.675)" fill="#ff5959"/><circle cx="5.34" cy="5.34" r="5.34" transform="translate(26.689 10.675)" fill="#ffb61e"/><circle cx="5.34" cy="5.34" r="5.34" transform="translate(42.703 10.675)" fill="#2ecc71"/><path d="M425.418,106.339a5.34,5.34,0,1,1,0-10.659h5.336a5.34,5.34,0,1,1,0,10.659Zm-21.354,0a5.34,5.34,0,1,1,0-10.659h5.34a5.34,5.34,0,0,1,0,10.659Zm-149.463,0a5.34,5.34,0,0,1,0-10.659H382.715a5.34,5.34,0,0,1,0,10.659Zm-26.689,0a5.345,5.345,0,0,1,0-10.659h5.336a5.34,5.34,0,0,1,0,10.659Zm-21.354,0a5.34,5.34,0,0,1,0-10.659h5.34a5.34,5.34,0,1,1,0,10.659Z" transform="translate(-137.167 -84.985)" fill="#fff"/><path d="M464.58,165.674a3.455,3.455,0,0,1,0-6.9H478.4a3.455,3.455,0,1,1,0,6.9Zm-27.634,0a3.455,3.455,0,1,1,0-6.9H450.76a3.455,3.455,0,1,1,0,6.9Zm-27.634,0a3.455,3.455,0,1,1,0-6.9H423.13a3.455,3.455,0,0,1,0,6.9Z" transform="translate(-192.873 -114.173)" fill="#fff"/><path d="M464.58,165.674a3.455,3.455,0,0,1,0-6.9H478.4a3.455,3.455,0,1,1,0,6.9Zm-27.634,0a3.455,3.455,0,1,1,0-6.9H450.76a3.455,3.455,0,1,1,0,6.9Zm-27.634,0a3.455,3.455,0,1,1,0-6.9H423.13a3.455,3.455,0,0,1,0,6.9Z" transform="translate(-276.136 -114.173)" fill="#fff"/><path d="M411.312,169.439a5.34,5.34,0,1,1,0-10.659h21.354a5.34,5.34,0,0,1,0,10.659Z" transform="translate(-384.42 -116.057)" fill="#fff"/><path d="M244.759,337.53H174.091a4.418,4.418,0,0,0-.084,8.819h70.752a4.418,4.418,0,0,0,0-8.819Z" transform="translate(-68.937 -190.14)" fill="#1b1b1b" opacity="0.4"/><path d="M299.649,211.34H268.731a4.418,4.418,0,0,0-.084,8.819h31a4.418,4.418,0,0,0,0-8.819Z" transform="translate(-123.831 -116.947)" fill="#1b1b1b" opacity="0.4"/><path d="M299.649,253.4H268.731a4.418,4.418,0,0,0-.084,8.819h31a4.418,4.418,0,0,0,0-8.819Z" transform="translate(-123.831 -141.342)" fill="#1364cb"/><path d="M299.649,379.6H268.731a4.418,4.418,0,0,0-.084,8.819h31a4.418,4.418,0,0,0,0-8.819Z" transform="translate(-123.831 -214.542)" fill="#1364cb"/><path d="M299.649,421.66H268.731a4.418,4.418,0,0,0-.084,8.819h31a4.418,4.418,0,0,0,.084-8.819Z" transform="translate(-123.831 -238.938)" fill="#1b1b1b" opacity="0.4"/><path d="M174.144,301.79a4.418,4.418,0,0,1,0-8.819h70.669a4.418,4.418,0,0,1,0,8.819Zm0-70.664a4.418,4.418,0,0,1,0-8.819h70.669a4.418,4.418,0,0,1,0,8.819Zm0-53a4.418,4.418,0,0,1,0-8.819h70.669a4.418,4.418,0,0,1,0,8.819Z" transform="translate(-68.994 -92.568)" fill="#1b1b1b" opacity="0.7"/><path d="M194.432,308.511a4.418,4.418,0,0,1,0-8.819h13.25a4.418,4.418,0,0,1,0,8.819Zm0-17.668a4.418,4.418,0,1,1,0-8.819h13.25a4.418,4.418,0,1,1,0,8.819Zm0-53a4.418,4.418,0,0,1,0-8.819h13.25a4.418,4.418,0,0,1,0,8.819Zm0-17.668a4.418,4.418,0,0,1,0-8.819h13.25a4.418,4.418,0,1,1,0,8.819Z" transform="translate(-80.447 -116.952)" fill="#1b1b1b" opacity="0.2"/><path d="M121.566,301.779a4.418,4.418,0,0,1,0-8.819h4.415a4.418,4.418,0,1,1,0,8.819Zm8.819-17.664a4.418,4.418,0,0,1,0-8.819H134.8a4.418,4.418,0,1,1,0,8.819Zm0-17.668a4.418,4.418,0,1,1,0-8.819H134.8a4.418,4.418,0,1,1,0,8.819Zm-8.819-17.664a4.418,4.418,0,0,1,0-8.819h4.415a4.418,4.418,0,0,1,0,8.819Zm0-17.668a4.418,4.418,0,0,1,0-8.819h4.415a4.418,4.418,0,1,1,0,8.819Zm8.819-17.664a4.418,4.418,0,0,1,0-8.819H134.8a4.418,4.418,0,1,1,0,8.819Zm0-17.668a4.418,4.418,0,1,1,0-8.819H134.8a4.418,4.418,0,1,1,0,8.819Zm-8.819-17.664a4.418,4.418,0,0,1,0-8.819h4.415a4.418,4.418,0,1,1,0,8.819Z" transform="translate(-38.497 -92.556)" fill="#1b1b1b" opacity="0.9"/><rect width="94.712" height="94.712" rx="12" transform="translate(194.185 76.239)" fill="#ffb61e"/><path d="M29.133,0,0,52.027H58.27Zm0,23.384,10,17.863h-20Z" transform="translate(212.92 98.096)" fill="#fff"/><rect width="36.428" height="6.245" rx="3.122" transform="translate(223.328 176.155)" fill="#a3a3a3"/><rect width="36.428" height="6.245" rx="3.122" transform="translate(17.25 73.117)" fill="#a3a3a3"/><rect width="36.428" height="6.245" rx="3.122" transform="translate(17.25 96.014)" fill="#1364cb"/><rect width="36.428" height="6.245" rx="3.122" transform="translate(17.25 118.912)" fill="#d0d0d0"/><rect width="36.428" height="6.245" rx="3.122" transform="translate(17.25 84.565)" fill="#1364cb"/><rect width="36.428" height="6.245" rx="3.122" transform="translate(17.25 107.463)" fill="#a3a3a3"/><rect width="36.428" height="6.245" rx="3.122" transform="translate(17.25 130.36)" fill="#1364cb"/></g></g></svg>