<svg xmlns="http://www.w3.org/2000/svg" viewBox="0 0 577 463.191"><defs><style>.a{fill:#fff;}.b{fill:#eee;}.c{fill:#283139;}.d{fill:#ff5959;}.e{fill:#ffb61e;}.f{fill:#2ecc71;}.g{fill:#1e81ff;}.h{fill:#b9c7d8;}.i{fill:#293d7c;}</style></defs><g transform="translate(6780 -5898)"><rect class="a" width="577" height="463" transform="translate(-6780 5898)"/><g transform="translate(-765 -246)"><path class="b" d="M563.3,355.883a154.489,154.489,0,0,1-34.095,48.948c-68.683,66.781-200.887,78.644-326.582,21.827C157.4,406.173,118.074,379.1,86.415,348.342,11.851,275.821-20.1,182.749,13.074,107.074A154.362,154.362,0,0,1,47.135,58.126C115.819-8.666,248.023-20.518,373.717,36.3,525.673,105.022,610.517,248.1,563.3,355.883Z" transform="translate(-6014.399 6144.241)"/><g transform="translate(-368.292 -100.222)"><rect class="a" width="454.175" height="306.198" transform="translate(-5584.265 6343.038)"/><path class="c" d="M532.008,74.62H99.654A24.953,24.953,0,0,0,74.71,99.564h0V415.522a24.953,24.953,0,0,0,24.944,24.944H532.008a24.944,24.944,0,0,0,24.944-24.944h0V99.564A24.944,24.944,0,0,0,532.008,74.62Zm-41.571,16.6h8.317a8.317,8.317,0,0,1,.158,16.6h-8.475a8.317,8.317,0,1,1-.158-16.6Zm-232.808,0H457.183a8.317,8.317,0,1,1,.151,16.6H257.626a8.317,8.317,0,0,1-.158-16.6Zm-41.571,0h8.311a8.317,8.317,0,0,1,0,16.6h-8.311a8.317,8.317,0,0,1,0-16.6Zm-33.254,0h8.311a8.317,8.317,0,1,1,.158,16.6H182.8a8.317,8.317,0,1,1-.159-16.6Zm-33.261,0a8.317,8.317,0,1,1-8.317,8.317h0a8.317,8.317,0,0,1,8.317-8.286Zm-24.944,0a8.317,8.317,0,1,1-8.317,8.317h0a8.317,8.317,0,0,1,8.317-8.311Zm-24.944,0a8.317,8.317,0,1,1-8.317,8.317h0a8.317,8.317,0,0,1,8.317-8.311Zm440.671,83.174V415.534a8.317,8.317,0,0,1-8.317,8.311H99.654a8.317,8.317,0,0,1-8.317-8.326v-282.7a8.317,8.317,0,0,1,8.317-8.317H532.008a8.317,8.317,0,0,1,8.317,8.317Zm-8.317-66.515H523.7a8.317,8.317,0,1,1-.158-16.6h8.468a8.317,8.317,0,1,1,.158,16.6Z" transform="translate(-5673.255 6218.719)"/><circle class="d" cx="8.317" cy="8.317" r="8.317" transform="translate(-5581.918 6309.966)"/><circle class="e" cx="8.317" cy="8.317" r="8.317" transform="translate(-5556.974 6309.966)"/><circle class="f" cx="8.317" cy="8.317" r="8.317" transform="translate(-5532.03 6309.966)"/><path class="a" d="M550.255,112.289a8.317,8.317,0,1,1,0-16.6h8.311a8.317,8.317,0,1,1,0,16.6Zm-33.261,0a8.317,8.317,0,1,1,0-16.6h8.317a8.317,8.317,0,0,1,0,16.6Zm-232.808,0a8.317,8.317,0,0,1,0-16.6H483.74a8.317,8.317,0,0,1,0,16.6Zm-41.571,0a8.326,8.326,0,0,1,0-16.6h8.311a8.317,8.317,0,0,1,0,16.6Zm-33.261,0a8.317,8.317,0,0,1,0-16.6h8.317a8.317,8.317,0,1,1,0,16.6Z" transform="translate(-5699.813 6214.313)"/><rect class="g" width="89.963" height="89.963" rx="17" transform="translate(-5523.713 6391.231)"/><rect class="e" width="89.963" height="89.963" rx="17" transform="translate(-5402.729 6391.231)"/><rect class="f" width="89.963" height="89.963" rx="17" transform="translate(-5281.744 6391.231)"/><rect class="h" width="89.963" height="89.963" rx="17" transform="translate(-5281.744 6512.216)"/><rect class="i" width="89.963" height="89.963" rx="17" transform="translate(-5402.729 6512.216)"/><rect class="d" width="89.963" height="89.963" rx="17" transform="translate(-5523.387 6512.216)"/></g></g></g></svg>