<svg xmlns="http://www.w3.org/2000/svg" viewBox="0 0 429.271 410.826"><defs><style>.a{fill:#1e81ff;}.b{fill:#445ea0;}.c{fill:#2e4c89;}.d{fill:#293d7c;}.e{fill:#1a2b63;}.f{fill:#fff;}.g{fill:#d9eafc;}.h{fill:#c3ddf4;}.i{fill:#aec1ed;}.j{fill:#ffb61e;}.k{fill:#ff9518;}.l{fill:#ff5959;}</style></defs><circle class="a" cx="205.413" cy="205.413" r="205.413" transform="translate(18.445)"/><rect class="b" width="65.992" height="34.568" transform="translate(155.711 291.376)"/><rect class="c" width="16.636" height="34.568" transform="translate(155.711 291.376)"/><path class="d" d="M285.445,398.763H126.736a4.29,4.29,0,0,0-4.277,4.278V424.48a4.29,4.29,0,0,0,4.277,4.278h158.71V398.763Z" transform="translate(-19.787 -73.654)"/><path class="e" d="M139.095,424.479V403.04a4.29,4.29,0,0,1,4.278-4.278H126.736a4.29,4.29,0,0,0-4.277,4.278v21.439a4.29,4.29,0,0,0,4.277,4.278h16.636A4.29,4.29,0,0,1,139.095,424.479Z" transform="translate(-19.787 -73.654)"/><path class="d" d="M373.142,58.964H4.278A4.29,4.29,0,0,0,0,63.242V306.689a4.29,4.29,0,0,0,4.278,4.278H265.659V182.886a5.876,5.876,0,0,1,5.869-5.869H377.42V63.242A4.29,4.29,0,0,0,373.142,58.964Z" transform="translate(0 -18.75)"/><path class="f" d="M22.4,276.276a2.573,2.573,0,0,0,2.566,2.566H269.277V190.97a5.876,5.876,0,0,1,5.869-5.869h87.115V109H22.4Z" transform="translate(-3.619 -26.834)"/><path class="g" d="M39.033,276.276V109H22.4V276.276a2.573,2.573,0,0,0,2.566,2.566H41.6A2.573,2.573,0,0,1,39.033,276.276Z" transform="translate(-3.619 -26.834)"/><ellipse class="b" cx="11.548" cy="11.548" rx="11.548" ry="11.548" transform="translate(177.163 260.486)"/><path class="h" d="M307.739,223.146H262.947a2.523,2.523,0,0,0-2.515,2.515v50a2.523,2.523,0,0,0,2.515,2.515h44.792Z" transform="translate(-42.081 -45.278)"/><path class="i" d="M277.068,275.664v-50a2.523,2.523,0,0,1,2.515-2.515H262.947a2.523,2.523,0,0,0-2.515,2.515v50a2.523,2.523,0,0,0,2.515,2.515h16.636A2.523,2.523,0,0,1,277.068,275.664Z" transform="translate(-42.081 -45.278)"/><path class="h" d="M284.4,188.4h39.085V133.578a4.2,4.2,0,0,0-4.192-4.192H83.874a4.2,4.2,0,0,0-4.192,4.192v55.776a4.2,4.2,0,0,0,4.192,4.192H278.583A5.874,5.874,0,0,1,284.4,188.4Z" transform="translate(-12.875 -30.129)"/><path class="i" d="M96.318,189.353V133.577a4.2,4.2,0,0,1,4.192-4.192H83.874a4.2,4.2,0,0,0-4.192,4.192v55.776a4.2,4.2,0,0,0,4.192,4.192H100.51A4.2,4.2,0,0,1,96.318,189.353Z" transform="translate(-12.875 -30.129)"/><path class="j" d="M359.7,84.983H24.962A2.574,2.574,0,0,0,22.4,87.55v18.406H362.261V87.55A2.574,2.574,0,0,0,359.7,84.983Z" transform="translate(-3.619 -22.954)"/><path class="k" d="M41.6,84.983H24.962A2.574,2.574,0,0,0,22.4,87.55v18.406H39.032V87.55A2.575,2.575,0,0,1,41.6,84.983Z" transform="translate(-3.619 -22.954)"/><g transform="translate(66.934 178.566)"><path class="a" d="M156.692,236.555H86.122a6.288,6.288,0,1,1,0-12.576h70.57a6.288,6.288,0,1,1,0,12.576Z" transform="translate(-79.834 -223.979)"/><path class="a" d="M156.692,261.042H86.122a6.288,6.288,0,1,1,0-12.576h70.57a6.288,6.288,0,1,1,0,12.576Z" transform="translate(-79.834 -227.936)"/><path class="a" d="M156.692,285.529H86.122a6.288,6.288,0,1,1,0-12.576h70.57a6.288,6.288,0,1,1,0,12.576Z" transform="translate(-79.834 -231.892)"/></g><g transform="translate(156.562 178.566)"><path class="l" d="M229.348,236.555H193.022a6.288,6.288,0,1,1,0-12.576h36.325a6.288,6.288,0,0,1,0,12.576Z" transform="translate(-186.734 -223.979)"/><path class="l" d="M229.348,261.042H193.022a6.288,6.288,0,1,1,0-12.576h36.325a6.288,6.288,0,1,1,0,12.576Z" transform="translate(-186.734 -227.936)"/><path class="l" d="M229.348,285.529H193.022a6.288,6.288,0,1,1,0-12.576h36.325a6.288,6.288,0,1,1,0,12.576Z" transform="translate(-186.734 -231.892)"/></g><path class="b" d="M473.6,198.768a6.727,6.727,0,0,1,6.707,6.707v202.7a6.727,6.727,0,0,1-6.707,6.707H322.563a6.727,6.727,0,0,1-6.707-6.707v-202.7a6.727,6.727,0,0,1,6.707-6.707Z" transform="translate(-51.036 -41.339)"/><path class="f" d="M336.759,391.041a4.2,4.2,0,0,1-4.192-4.192V218.372a4.2,4.2,0,0,1,4.192-4.192H464.805A4.2,4.2,0,0,1,469,218.372V386.848a4.2,4.2,0,0,1-4.192,4.192Z" transform="translate(-53.736 -43.83)"/><path class="g" d="M349.2,386.848V218.372a4.2,4.2,0,0,1,4.192-4.192H336.759a4.2,4.2,0,0,0-4.192,4.192V386.848a4.2,4.2,0,0,0,4.192,4.192h16.636A4.2,4.2,0,0,1,349.2,386.848Z" transform="translate(-53.736 -43.83)"/><path class="b" d="M403.759,443.195A4.2,4.2,0,0,1,399.567,439v-1.631a4.2,4.2,0,0,1,4.192-4.192h15.7a4.2,4.2,0,0,1,4.192,4.192V439a4.2,4.2,0,0,1-4.192,4.192Z" transform="translate(-64.562 -79.215)"/><path class="j" d="M469,230.356V218.372a4.2,4.2,0,0,0-4.192-4.192H336.759a4.2,4.2,0,0,0-4.192,4.192v11.984Z" transform="translate(-53.736 -43.83)"/><path class="k" d="M353.395,214.18H336.759a4.2,4.2,0,0,0-4.192,4.192v11.984H349.2V218.372A4.2,4.2,0,0,1,353.395,214.18Z" transform="translate(-53.736 -43.83)"/><g transform="translate(312.181 250.632)"><path class="l" d="M435.787,322.509H378.632a6.288,6.288,0,1,1,0-12.576h57.154a6.288,6.288,0,0,1,0,12.576Z" transform="translate(-372.344 -309.933)"/><path class="l" d="M435.787,345.636H378.632a6.288,6.288,0,1,1,0-12.576h57.154a6.288,6.288,0,0,1,0,12.576Z" transform="translate(-372.344 -313.67)"/><path class="l" d="M435.787,368.761H378.632a6.288,6.288,0,1,1,0-12.576h57.154a6.288,6.288,0,0,1,0,12.576Z" transform="translate(-372.344 -317.406)"/></g><path class="h" d="M458.483,284.785a4.2,4.2,0,0,1-4.192,4.192h-102a4.2,4.2,0,0,1-4.192-4.192v-34.58a4.2,4.2,0,0,1,4.192-4.192h102a4.2,4.2,0,0,1,4.192,4.192Z" transform="translate(-56.246 -48.973)"/><path class="i" d="M364.737,284.785v-34.58a4.2,4.2,0,0,1,4.192-4.192H352.293a4.2,4.2,0,0,0-4.192,4.192v34.58a4.2,4.2,0,0,0,4.192,4.192h16.636A4.2,4.2,0,0,1,364.737,284.785Z" transform="translate(-56.246 -48.973)"/><path class="h" d="M446.3,405.876a4.2,4.2,0,0,1-4.192,4.192H370.292a4.2,4.2,0,0,1-4.192-4.192V391.7a4.2,4.2,0,0,1,4.192-4.192h71.817A4.2,4.2,0,0,1,446.3,391.7v14.178Z" transform="translate(-59.154 -71.836)"/><path class="i" d="M382.736,405.876V391.7a4.2,4.2,0,0,1,4.192-4.192H370.292A4.2,4.2,0,0,0,366.1,391.7v14.178a4.2,4.2,0,0,0,4.192,4.192h16.636A4.2,4.2,0,0,1,382.736,405.876Z" transform="translate(-59.154 -71.836)"/></svg>