<svg xmlns="http://www.w3.org/2000/svg" viewBox="0 0 429.813 463.452"><defs><style>.a{fill:#1e81ff;}.b{fill:#1768d0;}.c{fill:#eee;}.d{fill:#e4eaf6;}.e{fill:#2ecc71;}.f{fill:#2abc68;}.g{fill:#ffb61e;}.h{fill:#eda91b;}.i{fill:#ff5959;}.j{fill:#db4d4d;}</style></defs><g transform="translate(4317 -6546)"><path class="a" d="M232.562,500.433c-118.5,0-214.907-96.41-214.907-214.907S114.065,70.62,232.562,70.62s214.907,96.41,214.907,214.907S351.059,500.433,232.562,500.433Z" transform="translate(-4334.655 6509.018)"/><path class="b" d="M332.851,429.111c-118.5,0-214.907-96.41-214.907-214.907A213.6,213.6,0,0,1,163.336,82.588c-84.594,28.9-145.681,109-145.681,203.252,0,118.5,96.41,214.907,214.907,214.907,68.895,0,130.16-32.718,169.515-83.291A213.585,213.585,0,0,1,332.851,429.111Z" transform="translate(-4334.655 6508.705)"/><path class="c" d="M348.326,166.135h62.824q-5.527-8.24-11.79-15.92H342.086C329.428,120.481,312.7,96.129,293.34,79.429a214.082,214.082,0,0,0-121.558,0c-19.361,16.7-36.086,41.052-48.745,70.786H65.762q-6.243,7.68-11.79,15.92H116.8C105.155,198.861,98.182,236.9,97.369,277.568H17.858c-.1,2.647-.2,5.289-.2,7.959s.105,5.312.2,7.959H97.369c.813,40.665,7.786,78.707,19.428,111.433H53.973q5.527,8.24,11.79,15.92h57.276c12.659,29.735,29.384,54.087,48.745,70.786a214.079,214.079,0,0,0,121.557,0c19.362-16.7,36.087-41.051,48.746-70.786h57.275q6.244-7.68,11.79-15.92H348.326c11.642-32.726,18.615-70.769,19.428-111.433h79.511c.1-2.647.2-5.29.2-7.959s-.105-5.312-.2-7.959H367.755C366.941,236.9,359.968,198.861,348.326,166.135ZM224.6,499.9c-34.126-4.068-64.37-34.019-84.708-79.064H224.6V499.9Zm0-94.983H133.345c-11.963-32.106-19.226-70.315-20.062-111.433H224.6V404.92Zm0-127.352H113.281c.837-41.118,8.1-79.326,20.062-111.433H224.6V277.568Zm0-127.352H139.894c20.339-45.045,50.584-75,84.708-79.064v79.064ZM240.52,71.152c34.126,4.068,64.37,34.02,84.709,79.064H240.521V71.152Zm0,428.751V420.838H325.23C304.891,465.883,274.646,495.835,240.52,499.9ZM331.78,404.92H240.521V293.486h111.32C351.005,334.6,343.743,372.814,331.78,404.92ZM240.52,277.568V166.135h91.258C343.742,198.241,351,236.449,351.84,277.568Z" transform="translate(-4334.655 6509.018)"/><path class="c" d="M251.112,500.565c3.556-.31,7.1-.685,10.6-1.166,1.368-.187,2.729-.4,4.086-.609q5.409-.853,10.728-1.971c1.1-.231,2.214-.445,3.312-.694q6.306-1.429,12.472-3.215c.347-.1.7-.181,1.05-.284,17.64-15.221,33.052-36.846,45.23-63.054-1.922.054-3.808.248-5.741.248q-5.667,0-11.262-.3c-20.223,40.753-48.92,67.57-81.068,71.4V421.86h34.534A213.727,213.727,0,0,1,224.6,400.449v5.493H133.343c-11.963-32.106-19.226-70.315-20.062-111.433h20.009c-2.089-5.218-4.031-10.51-5.712-15.92h-14.3a373.413,373.413,0,0,1,4.925-53.317c-.164-3.435-.263-6.884-.263-10.358a212.549,212.549,0,0,1,27.928-105.292,228.144,228.144,0,0,0-22.835,41.617H66.021q-2.119,2.6-4.155,5.262c-1.7,2.223-3.383,4.458-5,6.748-.9,1.282-1.753,2.607-2.63,3.909H116.8c-11.642,32.726-18.615,70.769-19.428,111.433h-79.4c-.1,2.656-.321,5.278-.321,7.958s.105,5.312.2,7.959H97.368c.813,40.665,7.786,78.707,19.428,111.433H53.973v0q5.527,8.24,11.789,15.917h57.276c12.659,29.735,29.384,54.086,48.745,70.786q7.1,2.1,14.39,3.709c.143.031.283.068.427.1q7.282,1.6,14.74,2.7c.207.031.417.051.624.08,4.337.627,8.726,1.084,13.142,1.445,1.089.087,2.175.177,3.268.249,4.695.314,9.417.522,14.187.522,4.892,0,9.736-.207,14.547-.533C248.451,500.831,249.776,500.68,251.112,500.565Zm-26.51.359c-34.126-4.068-64.37-34.02-84.708-79.064H224.6v79.064Z" transform="translate(-4334.655 6507.996)"/><path class="d" d="M412.089,426.467c-4.054,1.385-8.212,2.541-12.365,3.7h9.324C410.054,428.926,411.109,427.729,412.089,426.467Z" transform="translate(-4344.667 6499.693)"/><g transform="translate(-4044.032 6546)"><path class="e" d="M77.829,0A60.174,60.174,0,0,0,17.655,60.174c0,51.578,60.174,94.558,60.174,94.558S138,111.751,138,60.174A60.173,60.173,0,0,0,77.829,0Zm0,94.558a34.385,34.385,0,1,1,34.385-34.385A34.385,34.385,0,0,1,77.829,94.558Z" transform="translate(-17.655 0)"/><path class="f" d="M43.444,60.174A34.189,34.189,0,0,1,54.4,35.128C58.477,14.414,67.421,0,77.829,0A60.174,60.174,0,0,0,17.655,60.174c0,51.578,60.174,94.558,60.174,94.558A211.265,211.265,0,0,1,53.97,84.862,34.222,34.222,0,0,1,43.444,60.174Z" transform="translate(-17.655 0)"/></g><g transform="translate(-4298.463 6639.583)"><path class="g" d="M430.933,176.552a60.174,60.174,0,0,0-60.174,60.174c0,51.577,60.174,94.558,60.174,94.558s60.174-42.981,60.174-94.558A60.173,60.173,0,0,0,430.933,176.552Zm0,94.558a34.385,34.385,0,1,1,34.385-34.385A34.385,34.385,0,0,1,430.933,271.11Z" transform="translate(-370.758 -176.552)"/><path class="h" d="M396.547,236.726a34.189,34.189,0,0,1,10.958-25.046c4.075-20.714,13.019-35.128,23.427-35.128a60.174,60.174,0,0,0-60.174,60.174c0,51.577,60.174,94.558,60.174,94.558a211.265,211.265,0,0,1-23.859-69.87A34.227,34.227,0,0,1,396.547,236.726Z" transform="translate(-370.758 -176.552)"/></g><g transform="translate(-4093.531 6794.381)"><path class="i" d="M192.588,282.483a60.174,60.174,0,0,0-60.174,60.174c0,51.578,60.174,94.558,60.174,94.558s60.174-42.981,60.174-94.558A60.173,60.173,0,0,0,192.588,282.483Zm0,94.558a34.385,34.385,0,1,1,34.385-34.385A34.385,34.385,0,0,1,192.588,377.041Z" transform="translate(-132.414 -282.483)"/><path class="j" d="M158.2,342.657a34.189,34.189,0,0,1,10.958-25.046c4.075-20.714,13.019-35.128,23.427-35.128a60.174,60.174,0,0,0-60.174,60.174c0,51.578,60.174,94.558,60.174,94.558a211.265,211.265,0,0,1-23.859-69.87A34.224,34.224,0,0,1,158.2,342.657Z" transform="translate(-132.414 -282.483)"/></g></g></svg>