<svg xmlns="http://www.w3.org/2000/svg" xmlns:xlink="http://www.w3.org/1999/xlink" viewBox="0 0 800 600"><defs><style>.a{clip-path:url(#bl);}.b{fill:#fff;}.c{fill:#197cce;}.d{filter:url(#bi);}.e{filter:url(#bg);}.f{filter:url(#be);}.g{filter:url(#bc);}.h{filter:url(#ba);}.i{filter:url(#ay);}.j{filter:url(#aw);}.k{filter:url(#au);}.l{filter:url(#as);}.m{filter:url(#aq);}.n{filter:url(#ao);}.o{filter:url(#am);}.p{filter:url(#ak);}.q{filter:url(#ai);}.r{filter:url(#ag);}.s{filter:url(#ae);}.t{filter:url(#ac);}.u{filter:url(#aa);}.v{filter:url(#y);}.w{filter:url(#w);}.x{filter:url(#u);}.y{filter:url(#s);}.z{filter:url(#q);}.aa{filter:url(#o);}.ab{filter:url(#m);}.ac{filter:url(#k);}.ad{filter:url(#i);}.ae{filter:url(#g);}.af{filter:url(#e);}.ag{filter:url(#c);}.ah{filter:url(#a);}</style><filter id="a" x="265.869" y="333.143" width="29.986" height="43.077" filterUnits="userSpaceOnUse"><feOffset dy="3" input="SourceAlpha"/><feGaussianBlur stdDeviation="3" result="b"/><feFlood flood-opacity="0.161"/><feComposite operator="in" in2="b"/><feComposite in="SourceGraphic"/></filter><filter id="c" x="282.298" y="333.396" width="19.862" height="42.834" filterUnits="userSpaceOnUse"><feOffset dy="3" input="SourceAlpha"/><feGaussianBlur stdDeviation="3" result="d"/><feFlood flood-opacity="0.161"/><feComposite operator="in" in2="d"/><feComposite in="SourceGraphic"/></filter><filter id="e" x="291.463" y="339.657" width="48.255" height="36.563" filterUnits="userSpaceOnUse"><feOffset dy="3" input="SourceAlpha"/><feGaussianBlur stdDeviation="3" result="f"/><feFlood flood-opacity="0.161"/><feComposite operator="in" in2="f"/><feComposite in="SourceGraphic"/></filter><filter id="g" x="329.226" y="339.67" width="35.961" height="43.502" filterUnits="userSpaceOnUse"><feOffset dy="3" input="SourceAlpha"/><feGaussianBlur stdDeviation="3" result="h"/><feFlood flood-opacity="0.161"/><feComposite operator="in" in2="h"/><feComposite in="SourceGraphic"/></filter><filter id="i" x="352.432" y="333.401" width="19.862" height="42.828" filterUnits="userSpaceOnUse"><feOffset dy="3" input="SourceAlpha"/><feGaussianBlur stdDeviation="3" result="j"/><feFlood flood-opacity="0.161"/><feComposite operator="in" in2="j"/><feComposite in="SourceGraphic"/></filter><filter id="k" x="359.495" y="339.669" width="35.574" height="36.553" filterUnits="userSpaceOnUse"><feOffset dy="3" input="SourceAlpha"/><feGaussianBlur stdDeviation="3" result="l"/><feFlood flood-opacity="0.161"/><feComposite operator="in" in2="l"/><feComposite in="SourceGraphic"/></filter><filter id="m" x="380.653" y="339.67" width="32.244" height="36.531" filterUnits="userSpaceOnUse"><feOffset dy="3" input="SourceAlpha"/><feGaussianBlur stdDeviation="3" result="n"/><feFlood flood-opacity="0.161"/><feComposite operator="in" in2="n"/><feComposite in="SourceGraphic"/></filter><filter id="o" x="398.279" y="339.619" width="32.569" height="36.606" filterUnits="userSpaceOnUse"><feOffset dy="3" input="SourceAlpha"/><feGaussianBlur stdDeviation="3" result="p"/><feFlood flood-opacity="0.161"/><feComposite operator="in" in2="p"/><feComposite in="SourceGraphic"/></filter><filter id="q" x="431.416" y="333.143" width="36.092" height="43.077" filterUnits="userSpaceOnUse"><feOffset dy="3" input="SourceAlpha"/><feGaussianBlur stdDeviation="3" result="r"/><feFlood flood-opacity="0.161"/><feComposite operator="in" in2="r"/><feComposite in="SourceGraphic"/></filter><filter id="s" x="454.521" y="339.67" width="25.818" height="36.541" filterUnits="userSpaceOnUse"><feOffset dy="3" input="SourceAlpha"/><feGaussianBlur stdDeviation="3" result="t"/><feFlood flood-opacity="0.161"/><feComposite operator="in" in2="t"/><feComposite in="SourceGraphic"/></filter><filter id="u" x="464.561" y="339.671" width="36.005" height="36.549" filterUnits="userSpaceOnUse"><feOffset dy="3" input="SourceAlpha"/><feGaussianBlur stdDeviation="3" result="v"/><feFlood flood-opacity="0.161"/><feComposite operator="in" in2="v"/><feComposite in="SourceGraphic"/></filter><filter id="w" x="486.301" y="331.244" width="28.556" height="44.977" filterUnits="userSpaceOnUse"><feOffset dy="3" input="SourceAlpha"/><feGaussianBlur stdDeviation="3" result="x"/><feFlood flood-opacity="0.161"/><feComposite operator="in" in2="x"/><feComposite in="SourceGraphic"/></filter><filter id="y" x="496.489" y="339.669" width="35.574" height="36.553" filterUnits="userSpaceOnUse"><feOffset dy="3" input="SourceAlpha"/><feGaussianBlur stdDeviation="3" result="z"/><feFlood flood-opacity="0.161"/><feComposite operator="in" in2="z"/><feComposite in="SourceGraphic"/></filter><filter id="aa" x="516.799" y="339.665" width="30.931" height="36.559" filterUnits="userSpaceOnUse"><feOffset dy="3" input="SourceAlpha"/><feGaussianBlur stdDeviation="3" result="ab"/><feFlood flood-opacity="0.161"/><feComposite operator="in" in2="ab"/><feComposite in="SourceGraphic"/></filter><filter id="ac" x="534.473" y="333.401" width="19.862" height="42.828" filterUnits="userSpaceOnUse"><feOffset dy="3" input="SourceAlpha"/><feGaussianBlur stdDeviation="3" result="ad"/><feFlood flood-opacity="0.161"/><feComposite operator="in" in2="ad"/><feComposite in="SourceGraphic"/></filter><filter id="ae" x="541.572" y="339.671" width="36.005" height="36.549" filterUnits="userSpaceOnUse"><feOffset dy="3" input="SourceAlpha"/><feGaussianBlur stdDeviation="3" result="af"/><feFlood flood-opacity="0.161"/><feComposite operator="in" in2="af"/><feComposite in="SourceGraphic"/></filter><filter id="ag" x="565.359" y="339.655" width="33.87" height="36.565" filterUnits="userSpaceOnUse"><feOffset dy="3" input="SourceAlpha"/><feGaussianBlur stdDeviation="3" result="ah"/><feFlood flood-opacity="0.161"/><feComposite operator="in" in2="ah"/><feComposite in="SourceGraphic"/></filter><filter id="ai" x="586.801" y="339.62" width="32.56" height="36.606" filterUnits="userSpaceOnUse"><feOffset dy="3" input="SourceAlpha"/><feGaussianBlur stdDeviation="3" result="aj"/><feFlood flood-opacity="0.161"/><feComposite operator="in" in2="aj"/><feComposite in="SourceGraphic"/></filter><filter id="ak" x="608.829" y="331.603" width="18.719" height="44.617" filterUnits="userSpaceOnUse"><feOffset dy="3" input="SourceAlpha"/><feGaussianBlur stdDeviation="3" result="al"/><feFlood flood-opacity="0.161"/><feComposite operator="in" in2="al"/><feComposite in="SourceGraphic"/></filter><filter id="am" x="59.094" y="195.374" width="64.041" height="201.802" filterUnits="userSpaceOnUse"><feOffset dy="3" input="SourceAlpha"/><feGaussianBlur stdDeviation="3" result="an"/><feFlood flood-opacity="0.161"/><feComposite operator="in" in2="an"/><feComposite in="SourceGraphic"/></filter><filter id="ao" x="80.105" y="203.285" width="64.032" height="201.802" filterUnits="userSpaceOnUse"><feOffset dy="3" input="SourceAlpha"/><feGaussianBlur stdDeviation="3" result="ap"/><feFlood flood-opacity="0.161"/><feComposite operator="in" in2="ap"/><feComposite in="SourceGraphic"/></filter><filter id="aq" x="101.089" y="209.444" width="64.041" height="201.802" filterUnits="userSpaceOnUse"><feOffset dy="3" input="SourceAlpha"/><feGaussianBlur stdDeviation="3" result="ar"/><feFlood flood-opacity="0.161"/><feComposite operator="in" in2="ar"/><feComposite in="SourceGraphic"/></filter><filter id="as" x="158.107" y="239.773" width="92.231" height="100.744" filterUnits="userSpaceOnUse"><feOffset dy="3" input="SourceAlpha"/><feGaussianBlur stdDeviation="3" result="at"/><feFlood flood-opacity="0.161"/><feComposite operator="in" in2="at"/><feComposite in="SourceGraphic"/></filter><filter id="au" x="232.909" y="258.84" width="75.715" height="81.715" filterUnits="userSpaceOnUse"><feOffset dy="3" input="SourceAlpha"/><feGaussianBlur stdDeviation="3" result="av"/><feFlood flood-opacity="0.161"/><feComposite operator="in" in2="av"/><feComposite in="SourceGraphic"/></filter><filter id="aw" x="301.199" y="258.888" width="55.902" height="81.652" filterUnits="userSpaceOnUse"><feOffset dy="3" input="SourceAlpha"/><feGaussianBlur stdDeviation="3" result="ax"/><feFlood flood-opacity="0.161"/><feComposite operator="in" in2="ax"/><feComposite in="SourceGraphic"/></filter><filter id="ay" x="338.908" y="236.282" width="83.854" height="104.274" filterUnits="userSpaceOnUse"><feOffset dy="3" input="SourceAlpha"/><feGaussianBlur stdDeviation="3" result="az"/><feFlood flood-opacity="0.161"/><feComposite operator="in" in2="az"/><feComposite in="SourceGraphic"/></filter><filter id="ba" x="412.986" y="258.885" width="75.632" height="81.67" filterUnits="userSpaceOnUse"><feOffset dy="3" input="SourceAlpha"/><feGaussianBlur stdDeviation="3" result="bb"/><feFlood flood-opacity="0.161"/><feComposite operator="in" in2="bb"/><feComposite in="SourceGraphic"/></filter><filter id="bc" x="481.848" y="236.282" width="35.582" height="104.268" filterUnits="userSpaceOnUse"><feOffset dy="3" input="SourceAlpha"/><feGaussianBlur stdDeviation="3" result="bd"/><feFlood flood-opacity="0.161"/><feComposite operator="in" in2="bd"/><feComposite in="SourceGraphic"/></filter><filter id="be" x="511.637" y="232.275" width="37.091" height="108.275" filterUnits="userSpaceOnUse"><feOffset dy="3" input="SourceAlpha"/><feGaussianBlur stdDeviation="3" result="bf"/><feFlood flood-opacity="0.161"/><feComposite operator="in" in2="bf"/><feComposite in="SourceGraphic"/></filter><filter id="bg" x="542.365" y="258.877" width="121.462" height="81.672" filterUnits="userSpaceOnUse"><feOffset dy="3" input="SourceAlpha"/><feGaussianBlur stdDeviation="3" result="bh"/><feFlood flood-opacity="0.161"/><feComposite operator="in" in2="bh"/><feComposite in="SourceGraphic"/></filter><filter id="bi" x="657.011" y="258.984" width="83.883" height="102.18" filterUnits="userSpaceOnUse"><feOffset dy="3" input="SourceAlpha"/><feGaussianBlur stdDeviation="3" result="bj"/><feFlood flood-opacity="0.161"/><feComposite operator="in" in2="bj"/><feComposite in="SourceGraphic"/></filter><clipPath id="bl"><rect width="800" height="600"/></clipPath></defs><g id="bk" class="a"><rect class="c" width="800" height="600"/><g class="ah" transform="matrix(1, 0, 0, 1, 0, 0)"><path class="b" d="M224.317,149.43h.719v24.358h11.229v.719H224.28Z" transform="translate(50.59 189.71)"/></g><g class="ag" transform="matrix(1, 0, 0, 1, 0, 0)"><path class="b" d="M243.677,149.977a.922.922,0,0,1,.286.664.867.867,0,0,1-.286.645.927.927,0,1,1,0-1.309Zm-1,6.011h.719v18.55h-.719Z" transform="translate(49.2 189.69)"/></g><g class="af" transform="matrix(1, 0, 0, 1, 0, 0)"><path class="b" d="M280.436,158.445a7.44,7.44,0,0,1,1.844,5.384v11.229h-.719V163.829a6.666,6.666,0,0,0-1.687-4.859,6.214,6.214,0,0,0-4.693-1.743,7.237,7.237,0,0,0-5.633,2.388,9.339,9.339,0,0,0-2.01,6.362v9.081h-.719V163.829a6.638,6.638,0,0,0-1.706-4.859,6.278,6.278,0,0,0-4.711-1.743,7.237,7.237,0,0,0-5.615,2.388,9.293,9.293,0,0,0-2.028,6.362v9.081h-.719v-18.55h.719v5.31a7.6,7.6,0,0,1,2.83-3.891,8.463,8.463,0,0,1,4.85-1.42,7.274,7.274,0,0,1,4.73,1.484,6.454,6.454,0,0,1,2.259,4.186,7.9,7.9,0,0,1,2.821-4.167,8.3,8.3,0,0,1,4.932-1.5,6.942,6.942,0,0,1,5.255,1.936Z" transform="translate(48.42 189.16)"/></g><g class="ae" transform="matrix(1, 0, 0, 1, 0, 0)"><path class="b" d="M306.59,157.709a8.546,8.546,0,0,1,3.208,3.319,9.764,9.764,0,0,1,1.162,4.776,9.635,9.635,0,0,1-1.162,4.748,8.556,8.556,0,0,1-3.208,3.3,9.478,9.478,0,0,1-9.708-.267,8.445,8.445,0,0,1-3.208-3.983v12.41H293v-25.5h.719v5.449a8.537,8.537,0,0,1,3.208-3.983,9.533,9.533,0,0,1,9.708-.267Zm-.378,15.535a7.791,7.791,0,0,0,2.959-3.052,9.487,9.487,0,0,0,0-8.786,8.03,8.03,0,0,0-2.959-3.07,8.722,8.722,0,0,0-8.5,0,8.03,8.03,0,0,0-2.959,3.07,9.487,9.487,0,0,0,0,8.786,7.79,7.79,0,0,0,2.959,3.052,8.777,8.777,0,0,0,8.5,0Z" transform="translate(45.23 189.16)"/></g><g class="ad" transform="matrix(1, 0, 0, 1, 0, 0)"><path class="b" d="M319.747,149.977a.922.922,0,0,1,.286.664.977.977,0,0,1-.922.922.848.848,0,0,1-.664-.286.919.919,0,0,1,1.3-1.3Zm-1,6.011h.71v18.55h-.71Z" transform="translate(43.26 189.69)"/></g><g class="ac" transform="matrix(1, 0, 0, 1, 0, 0)"><path class="b" d="M338.507,173.64a7.754,7.754,0,0,0,2.858-1.991l.5.5a8.639,8.639,0,0,1-3.116,2.157,10.372,10.372,0,0,1-3.946.756,8.759,8.759,0,0,1-4.61-1.208,8.583,8.583,0,0,1-3.2-3.319,10.381,10.381,0,0,1,0-9.542,8.472,8.472,0,0,1,3.2-3.3,8.915,8.915,0,0,1,4.61-1.18,8.574,8.574,0,0,1,4.5,1.18,8.076,8.076,0,0,1,3.033,3.3,10.482,10.482,0,0,1,1.069,4.776H326.586a9.219,9.219,0,0,0,1.051,4.425,7.763,7.763,0,0,0,2.923,3.052,8.233,8.233,0,0,0,4.241,1.1,9.755,9.755,0,0,0,3.706-.7Zm-7.781-15.424a7.532,7.532,0,0,0-2.886,2.766,8.879,8.879,0,0,0-1.226,4.075h16.079a8.722,8.722,0,0,0-2.369-5.67,7.422,7.422,0,0,0-5.532-2.148,8.3,8.3,0,0,0-4.066.977Z" transform="translate(42.66 189.16)"/></g><g class="ab" transform="matrix(1, 0, 0, 1, 0, 0)"><path class="b" d="M349.1,156.51h13.673v.922l-13.276,16.9h13.525v.71H348.78v-.922l13.276-16.89H349.1Z" transform="translate(40.87 189.16)"/></g><g class="aa" transform="matrix(1, 0, 0, 1, 0, 0)"><path class="b" d="M381.738,175.056v-4.2a7.892,7.892,0,0,1-3.208,3.162,9.791,9.791,0,0,1-4.61,1.042,6.251,6.251,0,0,1-4.333-1.512,4.923,4.923,0,0,1-1.687-3.835,4.029,4.029,0,0,1,1.844-3.522,8.934,8.934,0,0,1,5.043-1.254h6.887v-2.259a5.467,5.467,0,0,0-1.521-4.038,6.131,6.131,0,0,0-4.361-1.411,8.4,8.4,0,0,0-3.319.664,14.123,14.123,0,0,0-3.172,1.918l-.433-.572a11.137,11.137,0,0,1,6.924-2.766,6.712,6.712,0,0,1,4.859,1.65,6.131,6.131,0,0,1,1.743,4.518l.074,12.382Zm-3.052-1.945a7.883,7.883,0,0,0,3.015-3.872v-3.586h-6.887a8.214,8.214,0,0,0-4.554,1.06,3.374,3.374,0,0,0-1.613,3,4.25,4.25,0,0,0,1.448,3.356,5.7,5.7,0,0,0,3.891,1.272A8.648,8.648,0,0,0,378.687,173.11Z" transform="translate(39.38 189.16)"/></g><g class="z" transform="matrix(1, 0, 0, 1, 0, 0)"><path class="b" d="M419.4,151.56a7.459,7.459,0,0,1,2.517,6.011A7.689,7.689,0,0,1,419.4,163.7c-1.669,1.466-4.029,2.194-7.062,2.194h-7.781v8.611h-.719V149.43h8.5C415.374,149.43,417.734,150.14,419.4,151.56Zm-.516,11.626a7.016,7.016,0,0,0,2.314-5.615,6.758,6.758,0,0,0-2.314-5.486,9.924,9.924,0,0,0-6.546-1.936h-7.781v15.028h7.781A9.735,9.735,0,0,0,418.886,163.186Z" transform="translate(36.58 189.71)"/></g><g class="y" transform="matrix(1, 0, 0, 1, 0, 0)"><path class="b" d="M432.265,157.884a7.578,7.578,0,0,1,4.453-1.364v.719a6.666,6.666,0,0,0-5.006,2.093,8.952,8.952,0,0,0-2.1,5.578v10.142h-.71V156.51h.71v5.062A7.459,7.459,0,0,1,432.265,157.884Z" transform="translate(34.62 189.16)"/></g><g class="x" transform="matrix(1, 0, 0, 1, 0, 0)"><path class="b" d="M453.4,157.69a8.435,8.435,0,0,1,3.236,3.3,10.381,10.381,0,0,1,0,9.542,8.547,8.547,0,0,1-3.236,3.319,9.4,9.4,0,0,1-9.22,0,8.593,8.593,0,0,1-3.227-3.319,10.381,10.381,0,0,1,0-9.542,8.482,8.482,0,0,1,3.227-3.3A9.6,9.6,0,0,1,453.4,157.69Zm-8.878.627a7.8,7.8,0,0,0-2.959,3.033,9.819,9.819,0,0,0,0,8.842,7.661,7.661,0,0,0,2.959,3.052,8.851,8.851,0,0,0,8.537,0,7.551,7.551,0,0,0,2.96-3.052,9.745,9.745,0,0,0,0-8.842,7.671,7.671,0,0,0-2.959-3.033A8.915,8.915,0,0,0,444.52,158.317Z" transform="translate(33.77 189.16)"/></g><g class="w" transform="matrix(1, 0, 0, 1, 0, 0)"><path class="b" d="M467.712,149.537a5.264,5.264,0,0,0-1.3,3.642v2.978h6.03v.719h-6.03v17.471h-.71V156.875H463.37v-.719H465.7v-2.978a6.4,6.4,0,0,1,.673-2.923,5.532,5.532,0,0,1,1.844-2.12,4.508,4.508,0,0,1,2.545-.765,6.3,6.3,0,0,1,3.162.857l-.4.609a5.154,5.154,0,0,0-2.581-.756A4.14,4.14,0,0,0,467.712,149.537Z" transform="translate(31.93 189.87)"/></g><g class="v" transform="matrix(1, 0, 0, 1, 0, 0)"><path class="b" d="M487.1,173.64a7.717,7.717,0,0,0,2.849-1.991l.507.5a8.676,8.676,0,0,1-3.125,2.157,10.335,10.335,0,0,1-3.946.756,8.8,8.8,0,0,1-4.61-1.208,8.629,8.629,0,0,1-3.19-3.319,10.381,10.381,0,0,1,0-9.542,8.519,8.519,0,0,1,3.19-3.3,8.961,8.961,0,0,1,4.61-1.18,8.584,8.584,0,0,1,4.508,1.18,7.994,7.994,0,0,1,3.024,3.3,10.372,10.372,0,0,1,1.079,4.776H475.167a9.22,9.22,0,0,0,1.06,4.425,7.7,7.7,0,0,0,2.923,3.052,8.224,8.224,0,0,0,4.232,1.1,9.763,9.763,0,0,0,3.715-.7Zm-7.781-15.424a7.468,7.468,0,0,0-2.886,2.766,8.878,8.878,0,0,0-1.226,4.075h16.07a8.667,8.667,0,0,0-2.36-5.67,7.45,7.45,0,0,0-5.532-2.148A8.3,8.3,0,0,0,479.316,158.215Z" transform="translate(31.07 189.16)"/></g><g class="u" transform="matrix(1, 0, 0, 1, 0, 0)"><path class="b" d="M503.411,157.229a6.878,6.878,0,0,0-3.752.922,3.042,3.042,0,0,0-1.457,2.766,2.969,2.969,0,0,0,.7,2.038,4.609,4.609,0,0,0,1.742,1.2c.682.286,1.632.618,2.849,1a26.889,26.889,0,0,1,3.107,1.088,5.531,5.531,0,0,1,1.973,1.494,3.808,3.808,0,0,1,.8,2.508,4.038,4.038,0,0,1-1.844,3.586,7.772,7.772,0,0,1-4.435,1.226,9.976,9.976,0,0,1-3.688-.682,8.491,8.491,0,0,1-2.959-1.908l.461-.535a8.528,8.528,0,0,0,2.766,1.779,9.22,9.22,0,0,0,3.4.627,7.025,7.025,0,0,0,3.946-1.042,3.393,3.393,0,0,0,1.586-3.015,3,3,0,0,0-.719-2.065,5.135,5.135,0,0,0-1.779-1.272,26.44,26.44,0,0,0-2.849-1,31.826,31.826,0,0,1-3.07-1.125,5.412,5.412,0,0,1-1.955-1.457,3.586,3.586,0,0,1-.784-2.406,3.734,3.734,0,0,1,1.66-3.31,7.376,7.376,0,0,1,4.223-1.134,9.727,9.727,0,0,1,4.951,1.328l-.36.609a8.3,8.3,0,0,0-4.518-1.217Z" transform="translate(29.35 189.16)"/></g><g class="t" transform="matrix(1, 0, 0, 1, 0, 0)"><path class="b" d="M517.2,149.977a.922.922,0,0,1,.286.664.867.867,0,0,1-.286.645.922.922,0,0,1-.645.286.867.867,0,0,1-.664-.286.926.926,0,0,1,1.309-1.309Zm-1,6.011h.7v18.55h-.719Z" transform="translate(27.85 189.69)"/></g><g class="s" transform="matrix(1, 0, 0, 1, 0, 0)"><path class="b" d="M536.937,157.69a8.418,8.418,0,0,1,3.227,3.3,10.381,10.381,0,0,1,0,9.542,8.528,8.528,0,0,1-3.227,3.319,9.4,9.4,0,0,1-9.22,0,8.528,8.528,0,0,1-3.227-3.319,10.307,10.307,0,0,1,0-9.542,8.418,8.418,0,0,1,3.227-3.3A9.6,9.6,0,0,1,536.937,157.69Zm-8.879.627a7.67,7.67,0,0,0-2.959,3.033,9.745,9.745,0,0,0,0,8.842,7.551,7.551,0,0,0,2.959,3.052,8.851,8.851,0,0,0,8.537,0,7.661,7.661,0,0,0,2.959-3.052,9.745,9.745,0,0,0,0-8.842,7.8,7.8,0,0,0-2.959-3.033,8.915,8.915,0,0,0-8.537,0Z" transform="translate(27.25 189.16)"/></g><g class="r" transform="matrix(1, 0, 0, 1, 0, 0)"><path class="b" d="M563.051,158.445a7.311,7.311,0,0,1,1.927,5.384v11.229h-.719V163.829a6.039,6.039,0,0,0-6.564-6.6,7.662,7.662,0,0,0-5.532,2.111,8.7,8.7,0,0,0-2.333,5.633v10.086h-.71v-18.55h.71v5.237a7.579,7.579,0,0,1,2.913-3.835,8.74,8.74,0,0,1,4.914-1.4,7.191,7.191,0,0,1,5.393,1.936Z" transform="translate(25.24 189.16)"/></g><g class="q" transform="matrix(1, 0, 0, 1, 0, 0)"><path class="b" d="M586.228,175.056v-4.2a7.893,7.893,0,0,1-3.208,3.162,9.745,9.745,0,0,1-4.61,1.042,6.279,6.279,0,0,1-4.342-1.512,4.923,4.923,0,0,1-1.687-3.835,4.02,4.02,0,0,1,1.844-3.522,8.906,8.906,0,0,1,5.043-1.254h6.887v-2.259a5.44,5.44,0,0,0-1.53-4.038,6.113,6.113,0,0,0-4.361-1.411,8.3,8.3,0,0,0-3.31.664,14.373,14.373,0,0,0-3.181,1.918l-.424-.572a11.137,11.137,0,0,1,6.915-2.766,6.739,6.739,0,0,1,4.868,1.65,6.094,6.094,0,0,1,1.733,4.518l.074,12.382Zm-3.042-1.945a7.818,7.818,0,0,0,3.006-3.872v-3.586H579.3a8.3,8.3,0,0,0-4.61,1.06,3.393,3.393,0,0,0-1.613,3,4.259,4.259,0,0,0,1.457,3.356,5.7,5.7,0,0,0,3.891,1.272,8.676,8.676,0,0,0,4.757-1.226Z" transform="translate(23.42 189.16)"/></g><g class="p" transform="matrix(1, 0, 0, 1, 0, 0)"><path class="b" d="M596.27,147.76h.719v26.617h-.719Z" transform="translate(21.56 189.84)"/></g><g class="o" transform="matrix(1, 0, 0, 1, 0, 0)"><path class="b" d="M8.427,0S45.176,23.74,46.043,51c0,14.078-7.874,28.147-15.747,42.217S12.779,128.4,13.7,140.71,19.822,167.1,36.445,183.8C-7.32,158.3.553,129.277.553,128.4,2.305,112.571,18.928,84.424,23.3,75.6S44.254,32.536,8.427,0Z" transform="translate(68.09 201.37)"/></g><g class="n" transform="matrix(1, 0, 0, 1, 0, 0)"><path class="b" d="M31.2,8.58S67.948,32.33,68.824,59.592c0,14.069-7.874,28.138-15.756,42.217s-17.517,35.173-16.6,47.481,6.122,26.387,22.745,43.092c-43.747-25.5-35.873-54.525-35.873-55.4,1.733-15.83,18.356-43.968,22.689-52.764S67.072,41.125,31.2,8.58Z" transform="translate(66.31 200.7)"/></g><g class="m" transform="matrix(1, 0, 0, 1, 0, 0)"><path class="b" d="M53.977,15.26s36.74,23.731,37.616,51.012c0,14.069-7.874,28.138-15.747,42.207s-17.517,35.182-16.6,47.49,6.076,26.387,22.717,43.092c-43.738-25.5-35.864-54.525-35.864-55.4,1.706-15.83,18.365-43.978,22.745-52.764S89.841,47.805,53.977,15.26Z" transform="translate(64.54 200.18)"/></g><g class="l" transform="matrix(1, 0, 0, 1, 0, 0)"><path class="b" d="M161.362,66.82a24.432,24.432,0,0,0-11.137-2.766A23.906,23.906,0,0,0,129.1,76.427a25.594,25.594,0,0,0-3.2,12.723,25.926,25.926,0,0,0,3.2,12.778,24.248,24.248,0,0,0,8.786,9.164,23.454,23.454,0,0,0,12.336,3.3,25.815,25.815,0,0,0,10.907-2.572,34.4,34.4,0,0,0,9.874-6.933l10.621,11.571a48.015,48.015,0,0,1-15.019,10.547,41.774,41.774,0,0,1-17.3,3.891,42.41,42.41,0,0,1-21.353-5.44A39.644,39.644,0,0,1,112.885,110.5,41.719,41.719,0,0,1,107.4,89.3a40.041,40.041,0,0,1,20.956-35.754,43.978,43.978,0,0,1,21.638-5.384,45,45,0,0,1,31.522,13.405l-10.51,12.907a30.425,30.425,0,0,0-9.644-7.652Z" transform="translate(59.71 197.62)"/></g><g class="k" transform="matrix(1, 0, 0, 1, 0, 0)"><path class="b" d="M228.958,131.736v-7.274a19.794,19.794,0,0,1-7.993,6.011,28.894,28.894,0,0,1-11.312,2.074q-9.69,0-15.415-5.375T188.53,113.14q0-8.777,6.113-13.691t17.3-5.025h16.9V93.263a9.422,9.422,0,0,0-3.255-7.68c-2.176-1.807-5.347-2.766-9.533-2.766q-8.556,0-18.273,5.43L192.3,76a72.9,72.9,0,0,1,13.7-5.43,53.713,53.713,0,0,1,14.051-1.733q12.317,0,19.121,5.891t6.952,16.457l.12,40.566Zm-4.914-14.558a10.372,10.372,0,0,0,4.794-6.693v-5.532H215.009q-5.145,0-7.6,1.678c-1.641,1.116-2.452,2.9-2.452,5.375a7.053,7.053,0,0,0,2.563,5.716,10.639,10.639,0,0,0,7.025,2.139,16.669,16.669,0,0,0,9.5-2.683Z" transform="translate(53.38 196)"/></g><g class="j" transform="matrix(1, 0, 0, 1, 0, 0)"><path class="b" d="M288.516,72.052A23.971,23.971,0,0,1,300.5,68.89V85.863a22.435,22.435,0,0,0-2.766-.12q-8.1,0-12.843,4.508t-4.739,11.985v30.3H262.6V69.591h17.582V80.977A22.634,22.634,0,0,1,288.516,72.052Z" transform="translate(47.6 196)"/></g><g class="i" transform="matrix(1, 0, 0, 1, 0, 0)"><path class="b" d="M369.356,44.37v85.576H351.9v-9.109a21.722,21.722,0,0,1-8.215,7.32,24.414,24.414,0,0,1-11.193,2.48,28.9,28.9,0,0,1-15.249-3.974A26.635,26.635,0,0,1,307.1,115.416a37.22,37.22,0,0,1-3.6-16.724A36.7,36.7,0,0,1,307.05,82.2,26.138,26.138,0,0,1,317.1,71.135a28.433,28.433,0,0,1,14.954-3.918q13.027,0,19.868,9.8V44.37Zm-21.749,67.183q4.287-4.785,4.278-12.4t-4.278-12.4a15.212,15.212,0,0,0-22.127,0q-4.287,4.785-4.4,12.4.111,7.606,4.4,12.4a15.212,15.212,0,0,0,22.127,0Z" transform="translate(44.41 197.91)"/></g><g class="h" transform="matrix(1, 0, 0, 1, 0, 0)"><path class="b" d="M424.278,131.74v-7.274a19.8,19.8,0,0,1-7.993,6.011,28.848,28.848,0,0,1-11.3,2.074q-9.708,0-15.415-5.375t-5.716-14.032q0-8.777,6.113-13.691t17.3-5.025h16.9V93.266a9.422,9.422,0,0,0-3.255-7.68c-2.176-1.807-5.347-2.766-9.533-2.766q-8.565,0-18.273,5.43l-5.476-12.244a72.9,72.9,0,0,1,13.7-5.43,53.76,53.76,0,0,1,14.014-1.687q12.317,0,19.121,5.891t6.915,16.411l.111,40.566Zm-4.914-14.558a10.335,10.335,0,0,0,4.794-6.693v-5.532H410.329c-3.43,0-5.956.562-7.6,1.678s-2.452,2.9-2.452,5.375a7.071,7.071,0,0,0,2.563,5.716,10.639,10.639,0,0,0,7.025,2.139,16.65,16.65,0,0,0,9.5-2.683Z" transform="translate(38.14 196)"/></g><g class="g" transform="matrix(1, 0, 0, 1, 0, 0)"><path class="b" d="M458.54,44.37h17.582v86.268H458.54Z" transform="translate(32.31 197.91)"/></g><g class="f" transform="matrix(1, 0, 0, 1, 0, 0)"><path class="b" d="M507.252,42.823a9.948,9.948,0,0,1,2.683,7.2,9.957,9.957,0,0,1-2.683,7.2,9.164,9.164,0,0,1-6.915,2.766,8.934,8.934,0,0,1-6.795-2.849A10.012,10.012,0,0,1,490.859,50a9.948,9.948,0,0,1,2.683-7.2,9.026,9.026,0,0,1,6.795-2.766,9.164,9.164,0,0,1,6.915,2.794ZM491.661,67.8h17.591v62.5H491.661Z" transform="translate(29.79 198.25)"/></g><g class="e" transform="matrix(1, 0, 0, 1, 0, 0)"><path class="b" d="M621.64,75.389q6,6.454,6,17.609V132.55H610.171V98.263q0-6.085-3.2-9.478a11.367,11.367,0,0,0-8.685-3.393,12.465,12.465,0,0,0-9.93,4.564q-3.688,4.453-3.688,11.469V132.55H567.153V98.263q0-5.965-3.144-9.422a11.04,11.04,0,0,0-8.62-3.448,12.649,12.649,0,0,0-9.994,4.564q-3.688,4.453-3.688,11.469V132.55H524.18V69.59h17.591V80.478q6.389-11.349,20.781-11.589a22.127,22.127,0,0,1,13.092,3.789,20.606,20.606,0,0,1,7.652,10.7,22.727,22.727,0,0,1,8.657-10.7,25.317,25.317,0,0,1,13.534-3.743Q615.657,68.889,621.64,75.389Z" transform="translate(27.19 196)"/></g><g class="d" transform="matrix(1, 0, 0, 1, 0, 0)"><path class="b" d="M700.667,72.955a26.479,26.479,0,0,1,10.142,11.128,36.582,36.582,0,0,1,3.6,16.6,35.662,35.662,0,0,1-3.522,16.263,26.091,26.091,0,0,1-9.994,10.907,28.507,28.507,0,0,1-15.046,3.845,25.262,25.262,0,0,1-11.368-2.452,22.717,22.717,0,0,1-8.39-7.136v31.07H648.53V69.58h17.591v9.026a21.833,21.833,0,0,1,8.3-7.136A24.7,24.7,0,0,1,685.528,69a28.839,28.839,0,0,1,15.139,3.955Zm-8.3,39.4q4.213-4.739,4.223-12.281t-4.2-12.161a14.042,14.042,0,0,0-10.971-4.739,14.2,14.2,0,0,0-11.064,4.739,17.513,17.513,0,0,0-4.278,12.161q0,7.661,4.278,12.336a14.245,14.245,0,0,0,11.064,4.684,14,14,0,0,0,10.971-4.757Z" transform="translate(17.48 195.99)"/></g></g></svg>