<svg xmlns="http://www.w3.org/2000/svg" xmlns:xlink="http://www.w3.org/1999/xlink" viewBox="3251 114 400 150">
  <defs>
    <style>
      .cls-1 {
        clip-path: url(#clip-Astros);
      }

      .cls-2 {
        fill: #266fef;
      }

      .cls-3 {
        fill: #fff;
      }
    </style>
    <clipPath id="clip-Astros">
      <rect x="3251" y="114" width="400" height="150"/>
    </clipPath>
  </defs>
  <g id="Astros" class="cls-1">
    <rect class="cls-3" x="3251" y="114" width="400" height="150"/>
    <g id="Group_26" data-name="Group 26" transform="translate(3251 114)">
      <path id="Path_6946" data-name="Path 6946" class="cls-2" d="M73.151,26.8a13.67,13.67,0,0,1,.413,1.618,1.469,1.469,0,1,0,2.883-.555,16.675,16.675,0,0,0-.5-1.969,1.469,1.469,0,0,0-2.8.9Z" transform="translate(-22.395 19.007)"/>
      <path id="Path_6947" data-name="Path 6947" class="cls-2" d="M51.08,10.289a1.469,1.469,0,0,0,1.462,1.469,14.422,14.422,0,0,1,11.106,5.414,1.469,1.469,0,0,0,2.267-1.848A17.38,17.38,0,0,0,52.549,8.8h0a1.469,1.469,0,0,0-1.469,1.489Z" transform="translate(-15.281 24.211)"/>
      <path id="Path_6948" data-name="Path 6948" class="cls-2" d="M56.63,84.11H50.039a1.469,1.469,0,1,0,0,2.937H56.63a1.469,1.469,0,0,0,0-2.937Z" transform="translate(-14.47 -0.13)"/>
      <path id="Path_6949" data-name="Path 6949" class="cls-2" d="M138.576,67.8l-4.5-4.5a8.311,8.311,0,0,0-10.6-.947l-2.944-2.937.758.095a1.469,1.469,0,0,0,1.455-1.272l3.655-26.76a1.469,1.469,0,0,0-1.252-1.651l-6.308-.866a8.311,8.311,0,0,0-9.015,5.665L95.613,32.681a16.243,16.243,0,0,0-3.012-.129V26.076a11.553,11.553,0,1,0-23.1,0v7.83H63.784l-5.82-5.82a22.693,22.693,0,1,0-44.492-8.676L3.016,29.859a10.314,10.314,0,0,0,0,14.591L26.7,68.138v2.457A16.162,16.162,0,0,0,42.845,86.736h2.308l1.157,1.157a29.061,29.061,0,0,0,41.054,0L101.88,73.43l15.512,15.525a1.469,1.469,0,0,0,2.078,0l19.1-19.1a1.469,1.469,0,0,0,.007-2.057Zm-35.193,2.964V59.658a10.977,10.977,0,0,0,7.979-5.286l6.348,6.348L105.528,72.9ZM86.274,56.4l-6.416-6.389.426-3.106V46.86a11,11,0,0,0,2.707.914,11.12,11.12,0,0,0,2.145.21A10.889,10.889,0,0,0,90.071,46.8l2.653,3.492a16.317,16.317,0,0,0-2.288,1.9ZM93.1,35.476a8.074,8.074,0,0,1-12.026,8.453A13.211,13.211,0,0,1,93.1,35.476Zm8.8,11.979a16.094,16.094,0,0,0-6.538,1.354l-2.815-3.7a11.011,11.011,0,0,0,3.56-9.38l8.121,1.11-1.448,10.653c-.3-.02-.582-.027-.88-.027Zm0,2.937a13.109,13.109,0,0,1,7.133,2.091,8.074,8.074,0,0,1-14.3,0,13.109,13.109,0,0,1,7.167-2.084Zm18.138,6-2.321-.318,3.255-23.85,2.321.318Zm-9.285-18.666a1.469,1.469,0,0,0,1.651-1.259,5.367,5.367,0,0,1,5.658-4.622l-3,22.083-1.733-1.733a16.033,16.033,0,0,0-7.641-4.284l1.448-10.7ZM83.628,35.855a16.094,16.094,0,0,0-4.494,5.279l-6.768-6.768V25.717H89.577v7.255a16.087,16.087,0,0,0-5.949,2.883Zm-2.619-18.4a8.643,8.643,0,0,1,7.973,5.34H73.043a8.629,8.629,0,0,1,7.972-5.34ZM70.715,36.843s7.154,7.133,7.221,7.187a16.331,16.331,0,0,0-.535,2.477l-.122.9L66.722,36.85h3.993ZM84.2,58.5l-4.521,4.521L53.592,36.9a22.706,22.706,0,0,0,3.384-5.685ZM55.683,22.678a19.834,19.834,0,0,1-.1,2.03c-4.812,4.677-11.316,6.653-16.92,5.2a7.506,7.506,0,0,0-7.533-7.086,7.621,7.621,0,0,0-.954.068c-2.761-6-.948-13.806,4.629-19.383.2-.2.406-.4.609-.582H35.9A19.782,19.782,0,0,1,55.683,22.678ZM31.13,25.764a4.582,4.582,0,1,1-3.242,1.354,4.582,4.582,0,0,1,3.242-1.354ZM30.852,3.586c-4.839,6.132-6.193,13.955-3.445,20.256A7.519,7.519,0,1,0,38.236,32.83a17.881,17.881,0,0,0,4.135.481A21.535,21.535,0,0,0,54.5,29.365,19.755,19.755,0,1,1,30.812,3.586ZM26.724,49.519,7.1,29.893l6.145-6.145A22.726,22.726,0,0,0,26.7,43.374v6.091ZM11.11,48.4l5.171-5.171L18.6,45.54l-5.171,5.171ZM2.935,37.155a7.33,7.33,0,0,1,2.112-5.164l9.164,9.157L9.039,46.318,5.094,42.379a7.336,7.336,0,0,1-2.159-5.225ZM15.5,52.775,20.673,47.6l6.05,6.05V64ZM29.864,72.889A7.5,7.5,0,0,1,38.3,74.432a7.594,7.594,0,0,1,1.266,8.974,13.245,13.245,0,0,1-9.705-10.5ZM42.635,83.812A10.382,10.382,0,0,0,41.66,73.9l7.309-7.316H58V83.8ZM66.322,75.2a8.629,8.629,0,0,1-5.34,7.966V67.231a8.629,8.629,0,0,1,5.3,7.972Zm18.95,10.632a26.124,26.124,0,0,1-35.937.914h8.331a11.553,11.553,0,1,0,0-23.105H49.829V47.361a1.469,1.469,0,0,0-2.937,0V64.51l-7.208,7.215a10.416,10.416,0,0,0-10.023-1.888V44.484A22.618,22.618,0,0,0,51.6,39.07l26,26-3.553,3.553A1.469,1.469,0,0,0,76.129,70.7l16.3-16.3a10.984,10.984,0,0,0,8.006,5.265V70.77Zm22.273-10.829,12.182-12.182,2.585,2.585a1.469,1.469,0,0,0,2.078,0,5.367,5.367,0,0,1,7.3-.257L114.712,82.127Zm10.889,10.849L116.776,84.2,133.8,67.177l1.658,1.658Z" transform="translate(1.231 27.07)"/>
      <path id="Path_6950" data-name="Path 6950" class="cls-2" d="M217.73,83.589,235.38,35.91h3.973l16.8,47.679h-4.365l-4.69-14.4H227.178l-4.947,14.4Zm10.829-18.111h17.258l-8.48-24.161Z" transform="translate(-69.145 15.449)"/>
      <path id="Path_6951" data-name="Path 6951" class="cls-2" d="M299.844,35.33q2.673,0,8.013.521t8.013.914v2.87l-15.695-.589h-.914a10.357,10.357,0,0,0-5.99,1.5q-2.145,1.5-2.152,6.382v4.3a8.568,8.568,0,0,0,.717,4.237,5.942,5.942,0,0,0,1.354,1.563,4.738,4.738,0,0,0,1.53.717,17.637,17.637,0,0,0,4.061.393h8.649q6.186,0,8.4,3.384a13.008,13.008,0,0,1,1.888,7.3v4.426q0,7.445-5.665,9.576a17.752,17.752,0,0,1-6.321,1.11q-3.384,0-9.021-.487t-8-.954V79.619q6.314.589,11.823.589t6.578-.095a12.06,12.06,0,0,0,2.443-.521,7,7,0,0,0,2.274-1.171,6.22,6.22,0,0,0,2.152-5.211v-4.4a7.724,7.724,0,0,0-1.5-5.177q-1.5-1.726-5.056-1.726H298.87q-8.27,0-10.422-4.622a15.017,15.017,0,0,1-1.042-6.091v-4.27q0-6.842,3.648-9.38A15.619,15.619,0,0,1,299.844,35.33Z" transform="translate(-91.662 15.636)"/>
      <path id="Path_6952" data-name="Path 6952" class="cls-2" d="M345.83,39.619V35.91h33.277v3.716H364.13V83.616h-3.716V39.626Z" transform="translate(-110.549 15.449)"/>
      <path id="Path_6953" data-name="Path 6953" class="cls-2" d="M411,83.589V35.91h19.539q11.14,0,11.14,13.874A24.3,24.3,0,0,1,441,55.875a12.9,12.9,0,0,1-1.631,3.973,7.743,7.743,0,0,1-2.315,2.213,9.922,9.922,0,0,1-4.365,1.354l10.226,20.128h-4.061l-10.152-20q-.914,0-7.445-.393t-6.578-.453V83.542Zm26.889-34.083a18.492,18.492,0,0,0-.616-5.083,6.47,6.47,0,0,0-1.726-3.127,7.736,7.736,0,0,0-5.015-1.631H414.7V59.618h15.83q4.426,0,5.861-2.342T437.889,49.507Z" transform="translate(-131.613 15.449)"/>
      <path id="Path_6954" data-name="Path 6954" class="cls-2" d="M472.779,59.851a68.071,68.071,0,0,1,.453-8.3,40.463,40.463,0,0,1,1.2-6.26,14.948,14.948,0,0,1,2.03-4.4,12.669,12.669,0,0,1,2.639-2.863,10.259,10.259,0,0,1,3.384-1.631,25.535,25.535,0,0,1,7.228-.975q3.9,0,5.8.2a22.219,22.219,0,0,1,3.905.778,9.888,9.888,0,0,1,3.384,1.631,13.117,13.117,0,0,1,2.606,2.863,14.45,14.45,0,0,1,1.949,4.4,46.244,46.244,0,0,1,1.631,12.764,87.208,87.208,0,0,1-.521,10.923,25.375,25.375,0,0,1-1.631,6.45,17.427,17.427,0,0,1-2.477,4.264,8.433,8.433,0,0,1-3.58,2.511,26.845,26.845,0,0,1-9.9,1.5q-8.8,0-12.054-2.538a12.859,12.859,0,0,1-4.548-7.039A55.043,55.043,0,0,1,472.779,59.851Zm5.5-14.361a19.626,19.626,0,0,0-1.4,5.827,74.344,74.344,0,0,0-.393,8.013q0,4.433.23,7.262a36.576,36.576,0,0,0,.717,5.015,11.836,11.836,0,0,0,1.354,3.614,11.553,11.553,0,0,0,1.922,2.409,6.315,6.315,0,0,0,2.606,1.435,22.915,22.915,0,0,0,6.9.914,34.672,34.672,0,0,0,6.22-.426,10.97,10.97,0,0,0,4.007-1.631,7.654,7.654,0,0,0,2.8-3.485q2.03-4.69,2.03-14.524,0-10.226-1.692-14.267a17.97,17.97,0,0,0-1.2-2.639,5.475,5.475,0,0,0-1.665-1.78,14.888,14.888,0,0,0-1.922-1.137,7.878,7.878,0,0,0-2.315-.616,36.919,36.919,0,0,0-5.279-.325q-3.066,0-4.562.129a17.521,17.521,0,0,0-3.452.717,5.414,5.414,0,0,0-2.924,1.909,20.109,20.109,0,0,0-1.983,3.587Z" transform="translate(-151.581 15.608)"/>
      <path id="Path_6955" data-name="Path 6955" class="cls-2" d="M556.911,35.33q2.673,0,8.013.521t8.013.914v2.87l-15.695-.589h-.914a10.357,10.357,0,0,0-5.99,1.5q-2.145,1.5-2.132,6.382v4.3a8.568,8.568,0,0,0,.717,4.237,5.943,5.943,0,0,0,1.354,1.563,4.737,4.737,0,0,0,1.53.717,17.637,17.637,0,0,0,4.061.393h8.582q6.186,0,8.4,3.384a13.009,13.009,0,0,1,1.888,7.3v4.426q0,7.445-5.665,9.576a17.752,17.752,0,0,1-6.321,1.11q-3.384,0-9.022-.487t-7.959-.954V79.619q6.314.589,11.823.589t6.578-.095a12.06,12.06,0,0,0,2.443-.521,7,7,0,0,0,2.281-1.171,6.22,6.22,0,0,0,2.152-5.211v-4.4a7.725,7.725,0,0,0-1.5-5.177q-1.5-1.726-5.1-1.726H555.93q-8.27,0-10.422-4.622a15.019,15.019,0,0,1-1.042-6.091v-4.27q0-6.842,3.648-9.38A15.633,15.633,0,0,1,556.911,35.33Z" transform="translate(-174.748 15.636)"/>
    </g>
  </g>
</svg>
