<svg xmlns="http://www.w3.org/2000/svg" xmlns:xlink="http://www.w3.org/1999/xlink" viewBox="2781 114 400 150">
  <defs>
    <style>
      .cls-1 {
        clip-path: url(#clip-Kida);
      }

      .cls-2 {
        fill: #e74c3c;
      }

      .cls-3 {
        fill: #fff;
      }
    </style>
    <clipPath id="clip-Kida">
      <rect x="2781" y="114" width="400" height="150"/>
    </clipPath>
  </defs>
  <g id="Kida" class="cls-1">
    <rect class="cls-3" x="2781" y="114" width="400" height="150"/>
    <g id="Group_25" data-name="Group 25" transform="translate(413.24 -454.692)">
      <path id="Path_5" data-name="Path 5" class="cls-2" d="M14.986,114.624H10V0h4.986Zm9.967,0H19.967V0h4.986Zm9.967,0H29.934V0H34.92Zm9.967,0H39.9V0h4.986Zm2.9-57.312L77.139,0h5.54L53.332,57.312l29.347,57.312h-5.54Zm11.215,0L88.284,0h5.535L64.542,57.312l29.283,57.312h-5.54Zm11.145,0L99.429,0h5.54L75.687,57.312l29.277,57.312h-5.54Zm11.145,0L110.585,0h5.535L86.832,57.312l29.277,57.312h-5.524Z" transform="translate(2357.76 586.767)"/>
      <path id="Path_6" data-name="Path 6" class="cls-2" d="M225,0h4.986V114.624H225Zm9.967,0h4.981V114.624h-4.981Zm9.967,0h4.986V114.624h-4.986ZM254.9,0h4.986V114.624H254.9Z" transform="translate(2258.406 586.767)"/>
      <path id="Path_7" data-name="Path 7" class="cls-2" d="M378.225,114.624H314.34V0h63.885a45.043,45.043,0,0,1,25.222,7.681,55.237,55.237,0,0,1,18.654,20.9,60.749,60.749,0,0,1,6.955,28.723,61.056,61.056,0,0,1-4.12,22.252,59.49,59.49,0,0,1-10.973,18.288,51.636,51.636,0,0,1-16.233,12.215,44.258,44.258,0,0,1-19.5,4.561Zm-58.9-4.981h58.9a39.233,39.233,0,0,0,17.514-4.152,46.8,46.8,0,0,0,14.6-11.145,54.118,54.118,0,0,0,9.865-16.718,57.473,57.473,0,0,0,0-40.594,54.677,54.677,0,0,0-9.865-16.718,46.575,46.575,0,0,0-14.6-11.172,39.228,39.228,0,0,0-17.514-4.152h-58.9Zm4.986-4.986V9.989h53.918A35.216,35.216,0,0,1,398.369,16.3a44.894,44.894,0,0,1,14.883,17.272,51.815,51.815,0,0,1,5.54,23.742,51.809,51.809,0,0,1-5.54,23.742,45,45,0,0,1-14.883,17.272,35.221,35.221,0,0,1-20.144,6.331Zm4.981-4.981h48.948A30.173,30.173,0,0,0,395.854,94a40.147,40.147,0,0,0,12.971-15.436,47.13,47.13,0,0,0,4.841-21.252A47.2,47.2,0,0,0,408.825,36.1a39.9,39.9,0,0,0-13.017-15.47,30.229,30.229,0,0,0-17.584-5.675H329.277Zm4.986-5.008V19.9h43.951a25.485,25.485,0,0,1,15.088,4.986,34.566,34.566,0,0,1,11.107,13.6,43.032,43.032,0,0,1,4.12,18.794,43.1,43.1,0,0,1-4.12,18.756,34.58,34.58,0,0,1-11.107,13.635,25.485,25.485,0,0,1-15.088,4.992Zm4.981-4.981h38.97q10.311,0,17.75-9.515t7.471-22.86a38.567,38.567,0,0,0-3.426-16.266,29.971,29.971,0,0,0-9.2-11.8,20.537,20.537,0,0,0-12.565-4.3h-39Zm4.986-4.986V29.9h33.984q8.235,0,14.157,8.068T398.3,57.333q0,11.355-5.917,19.364t-14.157,8.031Zm4.981-4.986h29q6.159,0,10.553-6.578a27.876,27.876,0,0,0,4.395-15.852q0-9.343-4.395-15.884t-10.553-6.514h-29Z" transform="translate(2217.121 586.767)"/>
      <path id="Path_8" data-name="Path 8" class="cls-2" d="M521.2,114.624H515.82L561.137,0h5.379l45.268,114.624h-5.33L563.837,6.713Zm43.262-96.072,2.84,6.369-35.441,89.7h-5.33ZM570,31.7l2.63,6.853-29.971,76.068h-5.379Zm5.26,13.705,2.63,6.993-24.576,62.223h-5.33Zm-13.571,55.51,1.936-4.986H596.3l2.076,4.986Zm3.873-9.967,1.936-4.986h24.85l2.152,4.986Zm3.878-9.967L571.448,76h17.03l2.006,4.986ZM577.2,0l45.338,114.624h-5.379L571.857,0Zm10.731,0,45.338,114.624h-5.33L582.615,0Zm56.064,114.624h-5.379L593.324,0h5.33" transform="translate(2124.014 586.767)"/>
    </g>
  </g>
</svg>
