<svg xmlns="http://www.w3.org/2000/svg" xmlns:xlink="http://www.w3.org/1999/xlink" viewBox="2311 114 400 150">
  <defs>
    <style>
      .cls-1 {
        clip-path: url(#clip-Triangle);
      }

      .cls-2 {
        fill: #ffb61e;
      }

      .cls-3 {
        fill: #fff;
      }
    </style>
    <clipPath id="clip-Triangle">
      <rect x="2311" y="114" width="400" height="150"/>
    </clipPath>
  </defs>
  <g id="Triangle" class="cls-1">
    <rect class="cls-3" x="2311" y="114" width="400" height="150"/>
    <g id="Logo" transform="translate(1186.929 409.421)">
      <path id="T" class="cls-2" d="M16.1,14.239H0V1.14H46.119v13.1h-16.1V98.261H16.1Z" transform="translate(1124.071 -269.742)"/>
      <path id="R" class="cls-2" d="M72.77,1.14H95.147q24.56,0,24.56,28.517a35.982,35.982,0,0,1-2.664,14.528,20.6,20.6,0,0,1-9.336,9.752l15.009,44.345H107.973L95.011,56.81H86.688V98.29H72.77ZM86.688,44.53h7.9a14,14,0,0,0,5.867-1.027,7.541,7.541,0,0,0,3.361-2.966,12.5,12.5,0,0,0,1.566-4.7,45.242,45.242,0,0,0,.409-6.463,45.247,45.247,0,0,0-.409-6.463,11.713,11.713,0,0,0-1.7-4.776,7.734,7.734,0,0,0-3.591-2.93,16.438,16.438,0,0,0-6.14-.955h-7.26Z" transform="translate(1103.56 -269.742)"/>
      <path id="I" class="cls-2" d="M154.28,1.14H168.2V98.29H154.28Z" transform="translate(1080.586 -269.742)"/>
      <path id="A" class="cls-2" d="M206.98,1.14l-27.9,97.071h55.8Zm0,31.16,14.679,54.966H192.3Z" transform="translate(1073.595 -269.742)"/>
      <path id="N" class="cls-2" d="M262.38,1.14h13.372l21.013,58.536h.273V1.14h13.9V98.29H297.856l-21.286-58.4H276.3v58.4H262.38Z" transform="translate(1050.117 -269.742)"/>
      <path id="G" class="cls-2" d="M346.358,23.742a24.827,24.827,0,0,1,2.047-10.37,21.624,21.624,0,0,1,5.386-7.433A23.253,23.253,0,0,1,361.3,1.5a24.208,24.208,0,0,1,16.783,0A23.29,23.29,0,0,1,385.6,5.939a21.652,21.652,0,0,1,5.386,7.433,24.824,24.824,0,0,1,2.047,10.37v4.912h-13.9V23.742q0-5.027-2.8-7.433a10.363,10.363,0,0,0-13.235,0q-2.8,2.391-2.8,7.433v51.3q0,5.027,2.8,7.433a10.363,10.363,0,0,0,13.235,0q2.794-2.384,2.8-7.433V56.733H368.053V44.482h24.97V75.046a24.694,24.694,0,0,1-2.047,10.413,21.789,21.789,0,0,1-5.386,7.368,23.218,23.218,0,0,1-7.5,4.431,24.2,24.2,0,0,1-16.783,0,23.175,23.175,0,0,1-7.5-4.431,21.759,21.759,0,0,1-5.386-7.368,24.7,24.7,0,0,1-2.047-10.442Z" transform="translate(1026.448 -269.421)"/>
      <path id="L" class="cls-2" d="M428.44,1.14h13.918v83.2H469.92V98.261H428.44Z" transform="translate(1003.311 -269.742)"/>
      <path id="E" class="cls-2" d="M498.74,1.14h41.48v13.1H512.658V42.756h24.015v13.1H512.658V84.344H540.22V98.261H498.74Z" transform="translate(983.496 -269.742)"/>
    </g>
  </g>
</svg>
