<svg xmlns="http://www.w3.org/2000/svg" xmlns:xlink="http://www.w3.org/1999/xlink" viewBox="1487 246 589 91">
  <defs>
    <style>
      .cls-1 {
        clip-path: url(#clip-Artboard_3);
      }

      .cls-2 {
        fill: #fff;
      }
    </style>
    <clipPath id="clip-Artboard_3">
      <rect x="1487" y="246" width="589" height="91"/>
    </clipPath>
  </defs>
  <g id="Artboard_3" data-name="Artboard – 3" class="cls-1">
    <g id="Group_4" data-name="Group 4" transform="translate(-111 -378)">
      <path id="Path_10" data-name="Path 10" class="cls-2" d="M73.147,26.689a12.905,12.905,0,0,1,.39,1.526,1.386,1.386,0,1,0,2.721-.524,15.74,15.74,0,0,0-.473-1.859,1.386,1.386,0,0,0-2.638.849Z" transform="translate(1677.597 615.031)"/>
      <path id="Path_11" data-name="Path 11" class="cls-2" d="M51.08,10.205a1.386,1.386,0,0,0,1.38,1.386A13.611,13.611,0,0,1,62.941,16.7a1.386,1.386,0,0,0,2.14-1.744A16.4,16.4,0,0,0,52.466,8.8h0a1.386,1.386,0,0,0-1.386,1.405Z" transform="translate(1685.549 620.849)"/>
      <path id="Path_12" data-name="Path 12" class="cls-2" d="M56.177,84.11H49.956a1.386,1.386,0,0,0,0,2.772h6.221a1.386,1.386,0,1,0,0-2.772Z" transform="translate(1686.456 593.639)"/>
      <path id="Path_13" data-name="Path 13" class="cls-2" d="M130.777,63.981l-4.247-4.247a7.843,7.843,0,0,0-10-.894l-2.778-2.772.715.089a1.386,1.386,0,0,0,1.373-1.2L119.287,29.7a1.386,1.386,0,0,0-1.182-1.558l-5.953-.818a7.843,7.843,0,0,0-8.507,5.346L90.232,30.839a15.329,15.329,0,0,0-2.842-.121V24.606a10.9,10.9,0,1,0-21.8,0V32h-5.4L54.7,26.5a21.415,21.415,0,1,0-41.988-8.188L2.846,28.176a9.734,9.734,0,0,0,0,13.77L25.2,64.3v2.318A15.252,15.252,0,0,0,40.433,81.852h2.178L43.7,82.944a27.426,27.426,0,0,0,38.743,0L96.147,69.3l14.639,14.652a1.386,1.386,0,0,0,1.961,0L130.77,65.923a1.386,1.386,0,0,0,.006-1.942Zm-33.212,2.8V56.3a10.36,10.36,0,0,0,7.53-4.988l5.991,5.991-11.5,11.5ZM81.418,53.219,75.363,47.19l.4-2.932V44.22a10.379,10.379,0,0,0,2.555.862,10.494,10.494,0,0,0,2.025.2A10.277,10.277,0,0,0,85,44.163l2.5,3.3a15.4,15.4,0,0,0-2.159,1.795Zm6.438-19.742a7.62,7.62,0,0,1-11.35,7.977,12.467,12.467,0,0,1,11.35-7.977Zm8.3,11.3a15.188,15.188,0,0,0-6.17,1.277l-2.657-3.494a10.392,10.392,0,0,0,3.36-8.852l7.664,1.047L96.99,44.814c-.281-.019-.549-.026-.83-.026Zm0,2.772a12.371,12.371,0,0,1,6.732,1.974,7.62,7.62,0,0,1-13.5,0,12.372,12.372,0,0,1,6.764-1.967Zm17.117,5.659-2.191-.3,3.072-22.508,2.191.3ZM104.514,35.6a1.386,1.386,0,0,0,1.558-1.188,5.065,5.065,0,0,1,5.34-4.362l-2.836,20.841-1.635-1.635A15.131,15.131,0,0,0,99.73,45.21l1.367-10.1ZM78.921,33.835a15.188,15.188,0,0,0-4.241,4.982L68.293,32.43V24.267H84.535v6.847A15.182,15.182,0,0,0,78.921,33.835ZM76.449,16.469a8.156,8.156,0,0,1,7.524,5.039H68.932a8.143,8.143,0,0,1,7.524-5.039Zm-9.715,18.3S73.486,41.5,73.55,41.55a15.413,15.413,0,0,0-.5,2.338l-.115.849-9.964-9.964h3.768ZM79.458,55.206l-4.266,4.266L50.576,34.825a21.428,21.428,0,0,0,3.193-5.365ZM52.549,21.4a18.718,18.718,0,0,1-.1,1.916c-4.541,4.413-10.679,6.278-15.967,4.912a7.083,7.083,0,0,0-7.109-6.687,7.192,7.192,0,0,0-.9.064c-2.606-5.659-.894-13.029,4.369-18.292.192-.192.383-.377.575-.549h.46A18.669,18.669,0,0,1,52.549,21.4ZM29.377,24.312a4.324,4.324,0,1,1-3.059,1.277,4.324,4.324,0,0,1,3.059-1.277Zm-.262-20.93c-4.567,5.787-5.844,13.17-3.251,19.116A7.1,7.1,0,1,0,36.084,30.98a16.874,16.874,0,0,0,3.9.453A20.323,20.323,0,0,0,51.432,27.71,18.644,18.644,0,1,1,29.077,3.382Zm-3.9,43.348L6.7,28.208l5.8-5.8A21.447,21.447,0,0,0,25.2,40.931v5.748ZM10.485,45.67l4.88-4.88,2.184,2.184-4.88,4.88ZM2.769,35.061a6.917,6.917,0,0,1,1.993-4.873L13.41,38.83l-4.88,4.88L4.807,39.992a6.923,6.923,0,0,1-2.037-4.931ZM14.63,49.8l4.88-4.88,5.71,5.71V60.4ZM28.183,68.784a7.077,7.077,0,0,1,7.965,1.456,7.166,7.166,0,0,1,1.194,8.469A12.5,12.5,0,0,1,28.183,68.8ZM40.235,79.093a9.8,9.8,0,0,0-.92-9.357l6.9-6.9H54.74V79.08ZM62.59,70.969a8.143,8.143,0,0,1-5.039,7.517V63.445a8.143,8.143,0,0,1,5,7.524ZM80.473,81a24.654,24.654,0,0,1-33.915.862h7.862a10.9,10.9,0,1,0,0-21.805h-7.4V44.693a1.386,1.386,0,0,0-2.772,0V60.877l-6.8,6.808A9.83,9.83,0,0,0,27.991,65.9V41.978A21.345,21.345,0,0,0,48.7,36.869L73.237,61.407l-3.353,3.353a1.386,1.386,0,1,0,1.961,1.961l15.38-15.386A10.366,10.366,0,0,0,94.78,56.3V66.785Zm21.019-10.219,11.5-11.5,2.44,2.44a1.386,1.386,0,0,0,1.961,0,5.065,5.065,0,0,1,6.885-.243L108.256,77.5Zm10.277,10.238L110.2,79.457l16.063-16.063,1.565,1.565Z" transform="translate(1704.007 624.044)"/>
      <path id="Path_14" data-name="Path 14" class="cls-2" d="M217.73,80.906l16.657-45h3.749l15.859,45h-4.12l-4.426-13.585h-18.8l-4.669,13.585Zm10.219-17.092h16.287l-8-22.8Z" transform="translate(1625.338 611.054)"/>
      <path id="Path_15" data-name="Path 15" class="cls-2" d="M299.144,35.33q2.523,0,7.562.492t7.562.862v2.708l-14.811-.556h-.862a9.774,9.774,0,0,0-5.652,1.412q-2.025,1.412-2.031,6.023v4.056a8.085,8.085,0,0,0,.677,4,5.608,5.608,0,0,0,1.277,1.475,4.471,4.471,0,0,0,1.443.677,16.644,16.644,0,0,0,3.832.37H306.3q5.838,0,7.926,3.193a12.276,12.276,0,0,1,1.782,6.885V71.1q0,7.026-5.346,9.038a16.753,16.753,0,0,1-5.965,1.047q-3.193,0-8.514-.46t-7.549-.9v-2.7q5.959.556,11.158.556T306,77.593a11.382,11.382,0,0,0,2.306-.492,6.6,6.6,0,0,0,2.146-1.1,5.87,5.87,0,0,0,2.031-4.918V66.926a7.29,7.29,0,0,0-1.412-4.886q-1.412-1.629-4.771-1.629h-8.079q-7.8,0-9.836-4.362A14.173,14.173,0,0,1,287.4,50.3v-4.03q0-6.457,3.443-8.852A14.74,14.74,0,0,1,299.144,35.33Z" transform="translate(1600.168 611.263)"/>
      <path id="Path_16" data-name="Path 16" class="cls-2" d="M345.83,39.41v-3.5h31.4v3.506H363.1V80.932h-3.506V39.416Z" transform="translate(1579.055 611.054)"/>
      <path id="Path_17" data-name="Path 17" class="cls-2" d="M411,80.906v-45h18.439q10.513,0,10.513,13.093a22.929,22.929,0,0,1-.639,5.748,12.174,12.174,0,0,1-1.539,3.749,7.307,7.307,0,0,1-2.184,2.089,9.363,9.363,0,0,1-4.12,1.277l9.651,18.995h-3.832l-9.58-18.873q-.862,0-7.026-.37t-6.208-.428V80.861Zm25.375-32.165a17.451,17.451,0,0,0-.581-4.8,6.106,6.106,0,0,0-1.629-2.951,7.3,7.3,0,0,0-4.733-1.539H414.494V58.284h14.939q4.177,0,5.531-2.21T436.375,48.741Z" transform="translate(1555.509 611.054)"/>
      <path id="Path_18" data-name="Path 18" class="cls-2" d="M472.779,58.476a64.239,64.239,0,0,1,.428-7.837,38.175,38.175,0,0,1,1.137-5.908,14.108,14.108,0,0,1,1.916-4.152,11.958,11.958,0,0,1,2.491-2.7,9.683,9.683,0,0,1,3.193-1.539,24.1,24.1,0,0,1,6.821-.92q3.685,0,5.474.185a20.967,20.967,0,0,1,3.685.735,9.331,9.331,0,0,1,3.193,1.539,12.377,12.377,0,0,1,2.459,2.7,13.636,13.636,0,0,1,1.839,4.152,43.642,43.642,0,0,1,1.539,12.046,82.3,82.3,0,0,1-.492,10.309,23.944,23.944,0,0,1-1.539,6.087,16.447,16.447,0,0,1-2.338,4.024,7.959,7.959,0,0,1-3.379,2.37,25.334,25.334,0,0,1-9.344,1.412q-8.3,0-11.375-2.4A12.135,12.135,0,0,1,474.2,71.94,51.946,51.946,0,0,1,472.779,58.476Zm5.193-13.553a18.522,18.522,0,0,0-1.322,5.5,70.13,70.13,0,0,0-.37,7.562q0,4.183.217,6.853a34.53,34.53,0,0,0,.677,4.733,11.17,11.17,0,0,0,1.277,3.411,10.9,10.9,0,0,0,1.814,2.274,5.959,5.959,0,0,0,2.459,1.354,21.627,21.627,0,0,0,6.515.862,32.72,32.72,0,0,0,5.87-.4,10.353,10.353,0,0,0,3.781-1.539,7.224,7.224,0,0,0,2.644-3.289q1.916-4.426,1.916-13.706,0-9.651-1.6-13.464a16.951,16.951,0,0,0-1.137-2.491,5.167,5.167,0,0,0-1.571-1.68,14.049,14.049,0,0,0-1.814-1.073,7.434,7.434,0,0,0-2.184-.581,34.841,34.841,0,0,0-4.982-.307q-2.893,0-4.3.121a16.536,16.536,0,0,0-3.257.677,5.109,5.109,0,0,0-2.759,1.8A18.976,18.976,0,0,0,477.972,44.923Z" transform="translate(1533.188 611.231)"/>
      <path id="Path_19" data-name="Path 19" class="cls-2" d="M556.21,35.33q2.523,0,7.562.492t7.562.862v2.708l-14.811-.556h-.862a9.774,9.774,0,0,0-5.652,1.412q-2.025,1.412-2.012,6.023v4.056a8.086,8.086,0,0,0,.677,4,5.609,5.609,0,0,0,1.277,1.475,4.471,4.471,0,0,0,1.443.677,16.645,16.645,0,0,0,3.832.37h8.1q5.838,0,7.926,3.193a12.276,12.276,0,0,1,1.782,6.885V71.1q0,7.026-5.346,9.038a16.753,16.753,0,0,1-5.965,1.047q-3.193,0-8.514-.46t-7.511-.9v-2.7q5.959.556,11.158.556t6.208-.089a11.381,11.381,0,0,0,2.306-.492,6.6,6.6,0,0,0,2.152-1.1,5.87,5.87,0,0,0,2.031-4.918V66.926a7.29,7.29,0,0,0-1.411-4.886q-1.412-1.629-4.816-1.629h-8.041q-7.8,0-9.836-4.362a14.174,14.174,0,0,1-.984-5.748v-4.03q0-6.457,3.443-8.852A14.753,14.753,0,0,1,556.21,35.33Z" transform="translate(1507.291 611.263)"/>
    </g>
  </g>
</svg>
