<svg xmlns="http://www.w3.org/2000/svg" xmlns:xlink="http://www.w3.org/1999/xlink" viewBox="169 246 589 91">
  <defs>
    <style>
      .cls-1 {
        clip-path: url(#clip-Artboard_1);
      }

      .cls-2 {
        fill: #fff;
      }
    </style>
    <clipPath id="clip-Artboard_1">
      <rect x="169" y="246" width="589" height="91"/>
    </clipPath>
  </defs>
  <g id="Artboard_1" data-name="Artboard – 1" class="cls-1">
    <g id="Codeando" transform="translate(169 246)">
      <g id="Capa_1" data-name="Capa 1">
        <g id="Page-1">
          <g id="General">
            <g id="Header">
              <g id="TextBox">
                <g id="Group-3">
                  <g id="Group-2">
                    <g id="Logo">
                      <g id="Group-4">
                        <g id="Logo-Codeando">
                          <path id="Combined-Shape" class="cls-2" d="M45.5,91A45.5,45.5,0,1,1,91,45.5,45.5,45.5,0,0,1,45.5,91Zm.6-61.851,11.677,12.4L46.1,53.288l4.425,4.952,17.415-16.7L50.97,24.3Zm0,32.693L34.484,49.456,46.1,37.712,41.678,32.76l-17.415,16.7L41.237,66.7Z"/>
                        </g>
                        <g id="WordMark" transform="translate(103.453 18.2)">
                          <path id="Shape" class="cls-2" d="M403,72.853V24h13.612l10.8,38.134L438.2,24h13.65V72.853h-7.864V32.793h-1.063L431.5,70.841h-8.18L411.889,32.774h-1.063V72.853Z" transform="translate(-120.421 -19.211)"/>
                          <path id="Shape-2" data-name="Shape" class="cls-2" d="M489.29,65.5l2.012-.211.144,5.747a75.512,75.512,0,0,1-14.512,1.609q-7.97,0-11.495-4.311T462,54.547q0-18.794,15.575-18.794,15.077-.01,15.077,16.208l-.5,5.517H469.9q.077,4.378,1.916,6.427t6.983,2.031Q483.9,65.937,489.29,65.5Zm-21.543-39.36L484.692,19l2.443,6.638-17.472,5.508Zm17.242,25.375q0-5.23-1.686-7.309t-5.747-2.088q-4.023,0-5.853,2.213t-1.916,7.213Z" transform="translate(-122.905 -19)"/>
                          <path id="Shape-3" data-name="Shape" class="cls-2" d="M497,37h8.286l7,12.271L519.357,37h8.286L517,54.434l10.652,18.008h-8.3l-7.069-12.117-7,12.117H497l10.355-17.788Z" transform="translate(-124.379 -19.758)"/>
                          <path id="Shape-4" data-name="Shape" class="cls-2" d="M534,31.19V23h7.663v8.161Zm0,41.621V37.234h7.663V72.811Z" transform="translate(-125.937 -19.168)"/>
                          <path id="Shape-5" data-name="Shape" class="cls-2" d="M565.077,37a48.1,48.1,0,0,1,8.985.958l1.8.354-.287,6.15q-5.747-.584-8.458-.584-5.46,0-7.328,2.433t-1.868,9.157q0,6.705,1.8,9.3t7.52,2.625l8.343-.556.22,6.226a68.472,68.472,0,0,1-10.939,1.293q-8.19,0-11.495-4.406T550,55.535q0-10.02,3.525-14.282T565.077,37Z" transform="translate(-126.611 -19.758)"/>
                          <path id="Shape-6" data-name="Shape" class="cls-2" d="M584.65,41.655Q588.3,37,596.805,37t12.156,4.655q3.65,4.646,3.65,13.947t-3.544,14.024q-3.535,4.732-12.261,4.732t-12.261-4.722Q581,64.9,581,55.6T584.65,41.655ZM590.4,64.923q1.628,2.874,6.38,2.874t6.38-2.874q1.629-2.874,1.638-9.378t-1.734-9.234q-1.734-2.72-6.265-2.72T590.579,46.3q-1.734,2.72-1.734,9.234t1.619,9.339Z" transform="translate(-127.916 -19.758)"/>
                          <path id="Shape-7" data-name="Shape" class="cls-2" d="M139.611,72.274a65.616,65.616,0,0,1-12.644,1.494,26.591,26.591,0,0,1-8.429-1.14,12.51,12.51,0,0,1-8.41-8.267Q108,58.547,108,48.537q0-16.035,5.173-21.208Q117.416,23,126.1,23a70.539,70.539,0,0,1,13.506,1.485l-.22,3.832A71.124,71.124,0,0,0,127.4,26.966a20.164,20.164,0,0,0-7.012.958,11.016,11.016,0,0,0-4.023,2.558,10.173,10.173,0,0,0-2.337,4.445,42.914,42.914,0,0,0-1.446,12.022,84.9,84.9,0,0,0,.5,10.824,21.179,21.179,0,0,0,1.916,6.495,8.621,8.621,0,0,0,4.243,4.186A19.072,19.072,0,0,0,127,69.736a71.182,71.182,0,0,0,12.357-1.351Z" transform="translate(-108 -19.168)"/>
                          <path id="Shape-8" data-name="Shape" class="cls-2" d="M144,56.592q0-10.125,3.362-14.368t11.495-4.234q8.133,0,11.495,4.234t3.362,14.368q0,10.125-3.084,14.426T158.9,75.357q-8.621,0-11.773-4.3T144,56.592Zm4.4-.105q0,8.506,1.916,11.773t8.535,3.266q6.562,0,8.544-3.3t1.992-11.744q0-8.429-2.222-11.562T158.9,41.831q-6.025,0-8.257,3.084T148.4,56.487Z" transform="translate(-109.516 -19.8)"/>
                          <path id="Shape-9" data-name="Shape" class="cls-2" d="M206.779,22V72.989h-4.205V70.383a21.61,21.61,0,0,1-11.217,3.343,14.924,14.924,0,0,1-4.493-.6,10.738,10.738,0,0,1-3.832-2.385Q179,67.126,179,56.637t3.362-15.077q3.362-4.588,11.361-4.588a60.578,60.578,0,0,1,8.832.958V22ZM188.732,69.4a9.579,9.579,0,0,0,3.362.5,17.5,17.5,0,0,0,4.789-.785,31.514,31.514,0,0,0,4.243-1.475l1.466-.776V41.56a62.36,62.36,0,0,0-8.7-.843q-5.958,0-8.247,3.688t-2.3,11.37q0,9.043,2.74,11.792a7.663,7.663,0,0,0,2.644,1.83Z" transform="translate(-110.989 -19.126)"/>
                          <path id="Shape-10" data-name="Shape" class="cls-2" d="M239.164,71.019l2.146-.22.144,3.525a112.968,112.968,0,0,1-13.621,1.035q-7.663-.077-10.767-4.6T214,56.823Q214,38,228.685,38q7.06,0,10.537,4.061t3.515,12.97l-.144,3.448H218.349q0,6.609,2.232,9.809t7.663,3.2Q233.742,71.45,239.164,71.019Zm-20.825-16.16h20.116q0-7.108-2.318-10.135t-7.433-3q-5.106,0-7.73,3.123t-2.586,10Z" transform="translate(-112.463 -19.8)"/>
                          <path id="Shape-11" data-name="Shape" class="cls-2" d="M273.955,49.418V68.653q.287,2.663,4.655,3.161l-.22,3.448q-5.517,0-8.1-2.874a33.421,33.421,0,0,1-13.458,2.969q-4.79,0-7.318-2.768t-2.51-7.9q0-5.134,2.538-7.663t8-3.017l12.194-1.226V49.418q0-4.023-1.763-5.747a6.341,6.341,0,0,0-4.789-1.763,105.916,105.916,0,0,0-11.907.862l-2.241.22-.22-3.448A74.716,74.716,0,0,1,262.671,38q5.92,0,8.573,2.807T273.955,49.418ZM251.445,64.409q0,7.261,5.987,7.251a29.291,29.291,0,0,0,5.661-.613,34.923,34.923,0,0,0,4.876-1.255l1.791-.642V56.2L258,57.426q-3.515.3-5.058,2.012a7.2,7.2,0,0,0-1.513,5.029Z" transform="translate(-113.853 -19.8)"/>
                          <path id="Shape-12" data-name="Shape" class="cls-2" d="M287.215,74.4H283V38.718h4.215v2.644A23.832,23.832,0,0,1,298.853,38q7.146,0,9.579,3.784t2.347,13.851V74.4H306.5V55.846q0-8.19-1.571-11.1t-6.705-2.874a19.924,19.924,0,0,0-5.211.747,22.032,22.032,0,0,0-4.263,1.513l-1.485.747Z" transform="translate(-115.368 -19.8)"/>
                          <path id="Shape-13" data-name="Shape" class="cls-2" d="M344.779,22V72.989h-4.205V70.383a21.639,21.639,0,0,1-11.227,3.343,14.934,14.934,0,0,1-4.493-.6,10.747,10.747,0,0,1-3.832-2.366Q317,67.155,317,56.666t3.362-15.077Q323.724,37,331.723,37a60.645,60.645,0,0,1,8.841.958V22ZM326.713,69.4a9.579,9.579,0,0,0,3.362.5,17.51,17.51,0,0,0,4.789-.776,31.515,31.515,0,0,0,4.243-1.475l1.466-.776V41.56a62.438,62.438,0,0,0-8.7-.843q-5.968,0-8.238,3.688t-2.27,11.37q0,9.043,2.74,11.792a7.664,7.664,0,0,0,2.605,1.83Z" transform="translate(-116.8 -19.126)"/>
                          <path id="Shape-14" data-name="Shape" class="cls-2" d="M352,56.592q0-10.125,3.362-14.368t11.495-4.234q8.132,0,11.495,4.234t3.362,14.368q0,10.125-3.084,14.426T366.9,75.357q-8.621,0-11.773-4.3T352,56.592Zm4.4-.105q0,8.506,1.916,11.773t8.535,3.266q6.562,0,8.544-3.3t1.973-11.734q0-8.429-2.222-11.562t-8.257-3.094q-6.025,0-8.257,3.084T356.4,56.487Z" transform="translate(-118.274 -19.8)"/>
                        </g>
                      </g>
                    </g>
                  </g>
                </g>
              </g>
            </g>
          </g>
        </g>
      </g>
    </g>
  </g>
</svg>
