<svg xmlns="http://www.w3.org/2000/svg" viewBox="0 0 614 95"><defs><style>.cls-1{fill:#fff;}</style></defs><title>Codeando</title><g id="Capa_2" data-name="Capa 2"><g id="Capa_1-2" data-name="Capa 1"><g id="Page-1"><g id="General"><g id="Header"><g id="TextBox"><g id="Group-3"><g id="Group-2"><g id="Logo"><g id="Group-4"><g id="Logo-Codeando"><path id="Combined-Shape" class="cls-1" d="M47.5,95A47.5,47.5,0,1,1,95,47.5,47.5,47.5,0,0,1,47.5,95Zm.63-64.57L60.32,43.37,48.13,55.63l4.62,5.17L70.93,43.37l-17.72-18Zm0,34.13L36,51.63,48.13,39.37,43.51,34.2,25.33,51.63l17.72,18Z"/></g><g id="WordMark"><polygon id="Shape" class="cls-1" points="403 75 403 24 417.21 24 428.48 63.81 439.75 24 454 24 454 75 445.79 75 445.79 33.18 444.68 33.18 432.75 72.9 424.21 72.9 412.28 33.16 411.17 33.16 411.17 75 403 75"/><path id="Shape-2" data-name="Shape" class="cls-1" d="M490.49,67.54l2.1-.22.15,6A78.83,78.83,0,0,1,477.59,75q-8.32,0-12-4.5T462,56.11q0-19.62,16.26-19.62Q494,36.48,494,53.41l-.52,5.76H470.25q.08,4.57,2,6.71T479.54,68Q484.86,68,490.49,67.54ZM468,26.45,485.69,19l2.55,6.93L470,31.68Zm18,26.49q0-5.46-1.76-7.63t-6-2.18q-4.2,0-6.11,2.31t-2,7.53Z"/><polygon id="Shape-3" data-name="Shape" class="cls-1" points="497 37 505.65 37 512.96 49.81 520.34 37 528.99 37 517.88 55.2 529 74 520.34 74 512.96 61.35 505.65 74 497 74 507.81 55.43 497 37"/><path id="Shape-4" data-name="Shape" class="cls-1" d="M534,31.55V23h8v8.52ZM534,75V37.86h8V75Z"/><path id="Shape-5" data-name="Shape" class="cls-1" d="M565.74,37a50.21,50.21,0,0,1,9.38,1l1.88.37-.3,6.42q-6-.61-8.83-.61-5.7,0-7.65,2.54t-1.95,9.56q0,7,1.88,9.71T568,68.73l8.71-.58.23,6.5A71.48,71.48,0,0,1,565.52,76q-8.55,0-12-4.6T550,56.35q0-10.46,3.68-14.91T565.74,37Z"/><path id="Shape-6" data-name="Shape" class="cls-1" d="M584.81,41.86Q588.62,37,597.5,37t12.69,4.86Q614,46.71,614,56.42t-3.7,14.64Q606.61,76,597.5,76t-12.8-4.93Q581,66.13,581,56.42T584.81,41.86Zm6,24.29q1.7,3,6.66,3t6.66-3q1.7-3,1.71-9.79t-1.81-9.64q-1.81-2.84-6.54-2.84T591,46.71q-1.81,2.84-1.81,9.64t1.69,9.75Z"/><path id="Shape-7" data-name="Shape" class="cls-1" d="M141,74.44A68.5,68.5,0,0,1,127.8,76,27.76,27.76,0,0,1,119,74.81a13.06,13.06,0,0,1-8.78-8.63Q108,60.11,108,49.66q0-16.74,5.4-22.14Q117.83,23,126.9,23A73.64,73.64,0,0,1,141,24.55l-.23,4a74.25,74.25,0,0,0-12.52-1.41,21.05,21.05,0,0,0-7.32,1,11.5,11.5,0,0,0-4.2,2.67,10.62,10.62,0,0,0-2.44,4.64A44.8,44.8,0,0,0,112.78,48a88.63,88.63,0,0,0,.52,11.3,22.11,22.11,0,0,0,2,6.78,9,9,0,0,0,4.43,4.37,19.91,19.91,0,0,0,8.1,1.34,74.31,74.31,0,0,0,12.9-1.41Z"/><path id="Shape-8" data-name="Shape" class="cls-1" d="M144,57.41q0-10.57,3.51-15t12-4.42q8.49,0,12,4.42t3.51,15q0,10.57-3.22,15.06T159.55,77q-9,0-12.29-4.49T144,57.41Zm4.59-.11q0,8.88,2,12.29T159.5,73q6.85,0,8.92-3.45t2.08-12.26q0-8.8-2.32-12.07T159.55,42q-6.29,0-8.62,3.22T148.59,57.3Z"/><path id="Shape-9" data-name="Shape" class="cls-1" d="M208,22V75.23h-4.39V72.51A22.56,22.56,0,0,1,191.9,76a15.58,15.58,0,0,1-4.69-.63,11.21,11.21,0,0,1-4-2.49Q179,69.11,179,58.16t3.51-15.74q3.51-4.79,11.86-4.79a63.24,63.24,0,0,1,9.22,1V22ZM189.16,71.48a10,10,0,0,0,3.51.52,18.27,18.27,0,0,0,5-.82,32.9,32.9,0,0,0,4.43-1.54l1.53-.81V42.42a65.1,65.1,0,0,0-9.08-.88q-6.22,0-8.61,3.85t-2.4,11.87q0,9.44,2.86,12.31A8,8,0,0,0,189.16,71.48Z"/><path id="Shape-10" data-name="Shape" class="cls-1" d="M240.27,72.47l2.24-.23.15,3.68A117.93,117.93,0,0,1,228.44,77q-8-.08-11.24-4.8T214,57.65Q214,38,229.33,38q7.37,0,11,4.24T244,55.78l-.15,3.6H218.54q0,6.9,2.33,10.24t8,3.34Q234.61,72.92,240.27,72.47ZM218.53,55.6h21q0-7.42-2.42-10.58t-7.76-3.13q-5.33,0-8.07,3.26t-2.7,10.44Z"/><path id="Shape-11" data-name="Shape" class="cls-1" d="M275.14,49.92V70q.3,2.78,4.86,3.3l-.23,3.6q-5.76,0-8.46-3A34.89,34.89,0,0,1,257.26,77q-5,0-7.64-2.89T247,65.86q0-5.36,2.65-8T258,54.71l12.73-1.28V49.92q0-4.2-1.84-6a6.62,6.62,0,0,0-5-1.84,110.57,110.57,0,0,0-12.43.9l-2.34.23-.23-3.6A78,78,0,0,1,263.36,38q6.18,0,8.95,2.93T275.14,49.92Zm-23.5,15.65q0,7.58,6.25,7.57a30.58,30.58,0,0,0,5.91-.64,36.46,36.46,0,0,0,5.09-1.31l1.87-.67V57l-12.28,1.28q-3.67.31-5.28,2.1a7.52,7.52,0,0,0-1.58,5.25Z"/><path id="Shape-12" data-name="Shape" class="cls-1" d="M287.4,76H283V38.75h4.4v2.76A24.88,24.88,0,0,1,299.55,38q7.46,0,10,3.95T312,56.41V76h-4.47V56.63q0-8.55-1.64-11.59t-7-3a20.8,20.8,0,0,0-5.44.78A23,23,0,0,0,289,44.4l-1.55.78Z"/><path id="Shape-13" data-name="Shape" class="cls-1" d="M346,22V75.23h-4.39V72.51A22.59,22.59,0,0,1,329.89,76a15.59,15.59,0,0,1-4.69-.63,11.22,11.22,0,0,1-4-2.47Q317,69.14,317,58.19t3.51-15.74q3.51-4.79,11.86-4.79a63.31,63.31,0,0,1,9.23,1V22ZM327.14,71.48a10,10,0,0,0,3.51.52,18.28,18.28,0,0,0,5-.81,32.9,32.9,0,0,0,4.43-1.54l1.53-.81V42.42a65.18,65.18,0,0,0-9.08-.88q-6.23,0-8.6,3.85t-2.37,11.87q0,9.44,2.86,12.31A8,8,0,0,0,327.14,71.48Z"/><path id="Shape-14" data-name="Shape" class="cls-1" d="M352,57.41q0-10.57,3.51-15t12-4.42q8.49,0,12,4.42t3.51,15q0,10.57-3.22,15.06T367.55,77q-9,0-12.29-4.49T352,57.41Zm4.59-.11q0,8.88,2,12.29T367.5,73q6.85,0,8.92-3.45t2.06-12.25q0-8.8-2.32-12.07T367.54,42q-6.29,0-8.62,3.22T356.59,57.3Z"/></g></g></g></g></g></g></g></g></g></g></g></svg>