<svg xmlns="http://www.w3.org/2000/svg" viewBox="0 0 664.24 183.92"><defs><style>.cls-1{fill:#fff;}</style></defs><title>SismoMX</title><g id="Capa_2" data-name="Capa 2"><g id="Capa_1-2" data-name="Capa 1"><g id="Capa_2-2" data-name="Capa 2"><g id="Capa_1-2-2" data-name="Capa 1-2"><g id="Layer_1" data-name="Layer 1"><path class="cls-1" d="M111,75.26a13.89,13.89,0,1,0,13.89,13.89h0A13.9,13.9,0,0,0,111,75.26Zm-.59,17.14,5.19-5.05-5.05-5.24,2.3-2.26,7.31,7.53-7.49,7.31Zm.77,3.7-2.35,2.3-7.31-7.53,7.53-7.31,2.26,2.3-5.19,5.05Z"/><path class="cls-1" d="M204,18a61.44,61.44,0,0,0-86.82,0L111,24.12,104.84,18a61.39,61.39,0,1,0-86.9,86.75l.08.08L87,174.4a32.41,32.41,0,0,0,23.54,9.52,32.41,32.41,0,0,0,23.54-9.52L204,104.8a61.34,61.34,0,0,0,.11-86.75l0,0ZM88.88,57.9l1.4,10L97,66.95,94.47,49.37a58.24,58.24,0,0,1,33.1-.14L125.09,67l6.68.95,1.44-10.19A52.19,52.19,0,0,1,163,101.83H133.39a25.71,25.71,0,1,0-48-12.67,25.23,25.23,0,0,0,3.38,12.67H59.52A52.1,52.1,0,0,1,88.88,57.9ZM130,89.15a19,19,0,1,1-19-19h0a19,19,0,0,1,19,19ZM168.17,119H53.88V108.55H94.2a25.57,25.57,0,0,0,33.65,0h40.32Z"/></g><path class="cls-1" d="M285.23,109.18a7.3,7.3,0,0,0-2.85-6.19q-2.85-2.16-10.24-4.55a72.5,72.5,0,0,1-11.71-4.72q-11.76-6.35-11.76-17.12a16.67,16.67,0,0,1,3.15-10,20.58,20.58,0,0,1,9.06-6.85,34.1,34.1,0,0,1,13.25-2.47A31,31,0,0,1,287.32,60a21,21,0,0,1,9,7.56,19.79,19.79,0,0,1,3.2,11.1H285.28a9.31,9.31,0,0,0-3-7.37q-3-2.63-8.39-2.63-5.22,0-8.11,2.21a7,7,0,0,0-2.89,5.81q0,3.37,3.39,5.64a38.3,38.3,0,0,0,10,4.27q12.14,3.65,17.69,9.06a18,18,0,0,1,5.55,13.47q0,9-6.78,14.06t-18.26,5.1A35.25,35.25,0,0,1,260,125.38a23,23,0,0,1-10-8,20.45,20.45,0,0,1-3.44-11.76H260.8q0,11.43,13.66,11.43,5.07,0,7.92-2.06A6.71,6.71,0,0,0,285.23,109.18Z"/><path class="cls-1" d="M308.14,62.71a6.75,6.75,0,0,1,2.06-5.07,8.89,8.89,0,0,1,11.22,0,7.24,7.24,0,0,1,0,10.2,8.79,8.79,0,0,1-11.14,0A6.73,6.73,0,0,1,308.14,62.71ZM322.7,127.3H308.94V76h13.75Z"/><path class="cls-1" d="M361.77,113.12a4.42,4.42,0,0,0-2.49-4,28.29,28.29,0,0,0-8-2.58Q333,102.74,333,91a14.1,14.1,0,0,1,5.67-11.41Q344.32,75,353.47,75q9.77,0,15.63,4.6a14.5,14.5,0,0,1,5.86,12H361.25a6.64,6.64,0,0,0-1.9-4.86q-1.9-1.92-5.93-1.92a8.2,8.2,0,0,0-5.4,1.53,4.94,4.94,0,0,0-1.9,4A4.22,4.22,0,0,0,348.33,94a22.17,22.17,0,0,0,7.28,2.42,59.53,59.53,0,0,1,8.63,2.3q10.86,4,10.86,13.8a13.39,13.39,0,0,1-6,11.36q-6,4.34-15.55,4.34a27.13,27.13,0,0,1-11.45-2.3,19.21,19.21,0,0,1-7.85-6.31A14.66,14.66,0,0,1,331.4,111h13a7.15,7.15,0,0,0,2.7,5.6,10.72,10.72,0,0,0,6.73,1.94,9.92,9.92,0,0,0,6-1.49A4.65,4.65,0,0,0,361.77,113.12Z"/><path class="cls-1" d="M396.77,76l.43,5.74Q402.65,75,411.94,75q9.91,0,13.61,7.82Q431,75,441,75q8.35,0,12.42,4.86t4.08,14.63v32.77H443.72V94.58q0-4.36-1.71-6.38t-6-2q-6.17,0-8.54,5.88v35.23H413.79V94.63q0-4.46-1.75-6.45t-6-2A8.88,8.88,0,0,0,397.62,91V127.3h-13.7V76Z"/><path class="cls-1" d="M465.86,101.17a30.42,30.42,0,0,1,2.94-13.61,21.52,21.52,0,0,1,8.46-9.25A24.7,24.7,0,0,1,490.1,75q10.38,0,17,6.35t7.33,17.26l.09,3.51q0,11.81-6.59,19t-17.69,7.14q-11.1,0-17.71-7.11t-6.62-19.35Zm13.71,1q0,7.32,2.75,11.19a9.88,9.88,0,0,0,15.65,0q2.8-3.82,2.8-12.23Q500.77,94,498,90a9.1,9.1,0,0,0-7.87-3.94A9,9,0,0,0,482.32,90q-2.75,3.91-2.75,12.12Z"/><path class="cls-1" d="M542.41,58.25l17.74,50.08,17.64-50.08h18.68v69H582.19V108.43l1.42-32.58L565,127.3h-9.77L536.62,75.89l1.4,32.54V127.3h-14.2v-69Z"/><path class="cls-1" d="M634.41,82l13-23.81h16.36L643.61,92.49l20.63,34.81H647.68L634.4,103.11,621.12,127.3H604.58l20.63-34.81L605.1,58.25h16.36Z"/></g></g></g></g></svg>