<svg xmlns="http://www.w3.org/2000/svg" xmlns:xlink="http://www.w3.org/1999/xlink" viewBox="828 246 589 91">
  <defs>
    <style>
      .cls-1 {
        clip-path: url(#clip-Artboard_2);
      }

      .cls-2 {
        fill: #fff;
      }
    </style>
    <clipPath id="clip-Artboard_2">
      <rect x="828" y="246" width="589" height="91"/>
    </clipPath>
  </defs>
  <g id="Artboard_2" data-name="Artboard – 2" class="cls-1">
    <g id="Group_3" data-name="Group 3" transform="translate(913.692 246)">
      <g id="Group_2" data-name="Group 2" transform="translate(0.308)">
        <path id="Path_1" data-name="Path 1" class="cls-2" d="M103.982,75.26a6.872,6.872,0,1,0,6.872,6.872h0A6.877,6.877,0,0,0,103.982,75.26Zm-.292,8.479,2.568-2.5-2.5-2.592,1.138-1.118,3.616,3.725-3.705,3.616Zm.381,1.83-1.163,1.138-3.616-3.725,3.725-3.616,1.118,1.138L101.567,83Z" transform="translate(-49.066 -38.018)"/>
        <path id="Path_2" data-name="Path 2" class="cls-2" d="M100.919,8.895a30.4,30.4,0,0,0-42.951,0l-3.057,3.028L51.863,8.895A30.373,30.373,0,0,0,8.873,51.811l.04.04L43.038,86.268a16.034,16.034,0,0,0,11.646,4.71,16.034,16.034,0,0,0,11.646-4.71l34.59-34.432a30.346,30.346,0,0,0,.054-42.916h0ZM43.968,28.634l.693,4.947,3.324-.47-1.252-8.7a28.812,28.812,0,0,1,16.375-.069l-1.227,8.791,3.3.47.712-5.041a25.819,25.819,0,0,1,14.738,21.8H65.987A12.719,12.719,0,1,0,42.241,44.1a12.482,12.482,0,0,0,1.672,6.268H29.443A25.775,25.775,0,0,1,43.968,28.634ZM64.31,44.094a9.4,9.4,0,1,1-9.4-9.4h0A9.4,9.4,0,0,1,64.31,44.094ZM83.194,58.861H26.653v-5.17H46.6a12.65,12.65,0,0,0,16.647,0H83.194Z" transform="translate(0.005 0.02)"/>
      </g>
      <g id="Group_1" data-name="Group 1" transform="translate(121.588 20.685)">
        <path id="Path_3" data-name="Path 3" class="cls-2" d="M274.013,94.126a5.183,5.183,0,0,0-2.023-4.395,26.466,26.466,0,0,0-7.27-3.23,51.471,51.471,0,0,1-8.314-3.351Q248.057,78.641,248.057,71a11.835,11.835,0,0,1,2.236-7.1,14.611,14.611,0,0,1,6.432-4.863,24.21,24.21,0,0,1,9.407-1.754A22.009,22.009,0,0,1,275.5,59.21a14.909,14.909,0,0,1,6.39,5.367,14.05,14.05,0,0,1,2.272,7.881h-10.11a6.61,6.61,0,0,0-2.13-5.232,8.74,8.74,0,0,0-5.957-1.867,9.3,9.3,0,0,0-5.758,1.569,4.97,4.97,0,0,0-2.052,4.125,4.721,4.721,0,0,0,2.407,4,27.191,27.191,0,0,0,7.1,3.032q8.619,2.591,12.559,6.432a12.779,12.779,0,0,1,3.94,9.563,11.753,11.753,0,0,1-4.813,9.982q-4.814,3.592-12.964,3.621a25.026,25.026,0,0,1-10.28-2.059,16.329,16.329,0,0,1-7.1-5.68,14.519,14.519,0,0,1-2.442-8.349h10.11q0,8.115,9.7,8.115a9.452,9.452,0,0,0,5.623-1.463,4.764,4.764,0,0,0,2.023-4.125Z" transform="translate(-246.556 -56.119)"/>
        <path id="Path_4" data-name="Path 4" class="cls-2" d="M308.139,60.661a4.792,4.792,0,0,1,1.462-3.6,6.312,6.312,0,0,1,7.966,0,5.14,5.14,0,0,1,0,7.242,6.241,6.241,0,0,1-7.909,0A4.778,4.778,0,0,1,308.139,60.661Zm10.337,45.856h-9.769V70.1h9.762Z" transform="translate(-264.417 -55.646)"/>
        <path id="Path_5" data-name="Path 5" class="cls-2" d="M352.961,102.064a3.138,3.138,0,0,0-1.768-2.84,20.084,20.084,0,0,0-5.68-1.832q-12.978-2.7-12.978-11.033a10.01,10.01,0,0,1,4.025-8.1Q340.573,75,347.069,75q6.936,0,11.1,3.266a10.294,10.294,0,0,1,4.16,8.519h-9.733a4.714,4.714,0,0,0-1.349-3.45,5.707,5.707,0,0,0-4.21-1.363,5.821,5.821,0,0,0-3.834,1.086,3.507,3.507,0,0,0-1.349,2.84,3,3,0,0,0,1.569,2.591,15.739,15.739,0,0,0,5.169,1.718,42.263,42.263,0,0,1,6.127,1.633q7.71,2.84,7.71,9.8a9.506,9.506,0,0,1-4.26,8.065q-4.26,3.081-11.04,3.081A19.262,19.262,0,0,1,339,111.151a13.638,13.638,0,0,1-5.573-4.48,10.408,10.408,0,0,1-2.023-6.113h9.229a5.076,5.076,0,0,0,1.917,3.976,7.611,7.611,0,0,0,4.778,1.377,7.043,7.043,0,0,0,4.26-1.058A3.3,3.3,0,0,0,352.961,102.064Z" transform="translate(-271.164 -61.26)"/>
        <path id="Path_6" data-name="Path 6" class="cls-2" d="M393.043,75.71l.305,4.075A12.75,12.75,0,0,1,403.813,75q7.036,0,9.662,5.552A12.584,12.584,0,0,1,424.444,75q5.928,0,8.818,3.45t2.9,10.387V112.1h-9.783V88.9a6.938,6.938,0,0,0-1.214-4.53q-1.214-1.434-4.26-1.42a6.074,6.074,0,0,0-6.063,4.175v25.012h-9.712v-23.2q0-3.166-1.242-4.579t-4.26-1.42a6.3,6.3,0,0,0-5.978,3.422v25.771H383.92V75.71Z" transform="translate(-286.398 -61.26)"/>
        <path id="Path_7" data-name="Path 7" class="cls-2" d="M465.859,93.578a21.6,21.6,0,0,1,2.087-9.662,15.278,15.278,0,0,1,6.006-6.567A17.536,17.536,0,0,1,483.068,75a16.718,16.718,0,0,1,12.069,4.508q4.7,4.508,5.2,12.254l.064,2.492q0,8.385-4.679,13.489t-12.559,5.069q-7.88,0-12.573-5.048t-4.7-13.738Zm9.733.71q0,5.2,1.952,7.944a7.014,7.014,0,0,0,11.111,0q1.988-2.712,1.988-8.683,0-5.062-1.966-7.9a6.461,6.461,0,0,0-5.587-2.8,6.39,6.39,0,0,0-5.545,2.8q-1.952,2.776-1.952,8.6Z" transform="translate(-310.162 -61.258)"/>
        <path id="Path_8" data-name="Path 8" class="cls-2" d="M537.018,58.25,549.613,93.8,562.136,58.25H575.4v48.987H565.26V93.876l1.008-23.13-13.212,36.527H546.12l-13.212-36.5.994,23.1v13.4H523.82V58.285Z" transform="translate(-326.975 -56.402)"/>
        <path id="Path_9" data-name="Path 9" class="cls-2" d="M625.758,75.094l9.229-16.9H646.6L632.29,82.541l14.646,24.714H635.179l-9.428-17.174-9.428,17.174H604.58l14.646-24.714L604.949,58.233h11.615Z" transform="translate(-350.399 -56.384)"/>
      </g>
    </g>
  </g>
</svg>
