<svg xmlns="http://www.w3.org/2000/svg" xmlns:xlink="http://www.w3.org/1999/xlink" x="0px" y="0px" width="96px" height="16px" viewBox="0 0 96 16">
<style type="text/css">
	.st0{fill:#FFFFFF;}
</style>
<g transform="translate(16, 0)">
	<path class="st0" d="M15,1H1C0.4,1,0,1.4,0,2v12c0,0.6,0.4,1,1,1h14c0.6,0,1-0.4,1-1V2C16,1.4,15.6,1,15,1z M14,13H2V6.7l5.5,3.1
		C7.7,10,7.8,10,8,10s0.3,0,0.5-0.1L14,6.7V13z M14,4.4L8,7.8L2,4.4V3h12V4.4z"/>
</g>
<g transform="translate(32, 0)">
	<path class="st0" d="M3,16h10c0.6,0,1-0.4,1-1V7.5l0.3,0.3C14.5,7.9,14.8,8,15,8c0.3,0,0.6-0.1,0.8-0.3c0.4-0.4,0.3-1-0.1-1.4l-7-6
		C8.3,0,7.8,0,7.4,0.3L4,3.1V2c0-0.6-0.4-1-1-1S2,1.4,2,2v2.8L0.3,6.2c-0.4,0.4-0.5,1-0.1,1.4s1,0.5,1.4,0.1L2,7.5V15
		C2,15.6,2.4,16,3,16z M4,5.7l4-3.4l4,3.5c0,0.1,0,0.1,0,0.2v8h-2v-3c0-0.6-0.4-1-1-1H7c-0.6,0-1,0.4-1,1v3H4V5.7z"/>
	<rect x="6" y="6" class="st0" width="4" height="2"/>
</g>
<g transform="translate(64, 0)">
	<path class="st0" d="M6,0H1C0.4,0,0,0.4,0,1v5c0,0.6,0.4,1,1,1h5c0.6,0,1-0.4,1-1V1C7,0.4,6.6,0,6,0z M5,5H2V2h3V5z"/>
	<path class="st0" d="M15,0h-5C9.4,0,9,0.4,9,1v5c0,0.6,0.4,1,1,1h5c0.6,0,1-0.4,1-1V1C16,0.4,15.6,0,15,0z M14,5h-3V2h3V5z"/>
	<path class="st0" d="M6,9H1c-0.6,0-1,0.4-1,1v5c0,0.6,0.4,1,1,1h5c0.6,0,1-0.4,1-1v-5C7,9.4,6.6,9,6,9z M5,14H2v-3h3V14z"/>
	<path class="st0" d="M15,9h-5c-0.6,0-1,0.4-1,1v5c0,0.6,0.4,1,1,1h5c0.6,0,1-0.4,1-1v-5C16,9.4,15.6,9,15,9z M14,14h-3v-3h3V14z"/>
</g>
<g transform="translate(48, 0)">
	<circle class="st0" cx="6" cy="-31.1" r="2"/>
	<path class="st0" d="M10-37.1H6c-3.3,0-6,2.7-6,6s2.7,6,6,6h4c3.3,0,6-2.7,6-6S13.3-37.1,10-37.1z M10-27.1H6c-2.2,0-4-1.8-4-4
		s1.8-4,4-4h4c2.2,0,4,1.8,4,4S12.2-27.1,10-27.1z"/>
</g>
<path class="st0" d="M91.6,0.4c-0.5-0.5-1.3-0.5-1.9,0l-9.3,9.3C80.1,10,80,10.2,80,10.6v4c0,0.8,0.5,1.3,1.3,1.3h4
	c0.4,0,0.7-0.1,0.9-0.4l9.3-9.3c0.5-0.5,0.5-1.3,0-1.9L91.6,0.4z M84.8,13.3h-2.1v-2.1l8-8l2.1,2.1L84.8,13.3z"/>
<g>
	<g>
		<g>
			<path class="st0" d="M9.8,2.7L9.3,2.5c-0.1,0-0.1,0-0.2,0C9.1,2.6,9,2.6,9,2.7L6,13c0,0.1,0,0.1,0,0.2c0,0.1,0.1,0.1,0.2,0.1
				l0.5,0.1c0.1,0,0.1,0,0.2,0c0.1,0,0.1-0.1,0.1-0.2L10,3c0-0.1,0-0.1,0-0.2C9.9,2.7,9.9,2.7,9.8,2.7z"/>
			<path class="st0" d="M6.8,14.2c-0.1,0-0.2,0-0.3,0L6,14c-0.3-0.1-0.4-0.2-0.6-0.4c-0.1-0.2-0.2-0.5-0.1-0.7l3-10.3
				c0.1-0.2,0.2-0.4,0.4-0.6C9,1.8,9.3,1.8,9.5,1.9L10,2c0.2,0.1,0.4,0.2,0.6,0.4c0.1,0.2,0.2,0.5,0.1,0.7l-3,10.3
				c-0.1,0.2-0.2,0.4-0.4,0.6C7.1,14.1,6.9,14.2,6.8,14.2z M6.7,13.2L6.7,13.2C6.7,13.2,6.7,13.2,6.7,13.2z M6.8,12.8L6.8,12.8
				C6.9,12.8,6.9,12.8,6.8,12.8z M9.1,3.2C9.1,3.2,9.1,3.2,9.1,3.2L9.1,3.2z M9.3,2.8C9.3,2.8,9.3,2.8,9.3,2.8L9.3,2.8z"/>
		</g>
		<g>
			<path class="st0" d="M5.3,4.7c0-0.1,0-0.1-0.1-0.2L4.9,4.1C4.8,4,4.7,4,4.7,4C4.6,4,4.5,4,4.5,4.1L0.8,7.8C0.7,7.9,0.7,7.9,0.7,8
				s0,0.1,0.1,0.2l3.7,3.7C4.5,12,4.6,12,4.7,12c0.1,0,0.1,0,0.2-0.1l0.4-0.4c0.1-0.1,0.1-0.1,0.1-0.2c0-0.1,0-0.1-0.1-0.2L2.1,8
				l3.1-3.1C5.3,4.8,5.3,4.7,5.3,4.7z"/>
			<path class="st0" d="M4.7,12.7c-0.2,0-0.5-0.1-0.7-0.3L0.3,8.7C0.1,8.5,0,8.3,0,8c0-0.2,0.1-0.5,0.3-0.7L4,3.6
				c0.4-0.4,1-0.4,1.3,0L5.7,4C5.9,4.2,6,4.4,6,4.7c0,0.3-0.1,0.5-0.3,0.7L3.1,8l2.7,2.7C5.9,10.8,6,11.1,6,11.3S5.9,11.8,5.7,12
				l-0.4,0.4C5.2,12.6,4.9,12.7,4.7,12.7z M4.4,11.4C4.4,11.4,4.4,11.4,4.4,11.4L4.4,11.4z M4.8,5C4.8,5,4.8,5,4.8,5L4.8,5z
				 M4.8,4.4C4.8,4.4,4.8,4.4,4.8,4.4L4.8,4.4z"/>
		</g>
		<g>
			<path class="st0" d="M15.2,7.8l-3.7-3.7C11.5,4,11.4,4,11.3,4c-0.1,0-0.1,0-0.2,0.1l-0.4,0.4c-0.1,0.1-0.1,0.1-0.1,0.2
				s0,0.1,0.1,0.2L13.9,8l-3.1,3.1c-0.1,0.1-0.1,0.1-0.1,0.2c0,0.1,0,0.1,0.1,0.2l0.4,0.4c0.1,0.1,0.1,0.1,0.2,0.1
				c0.1,0,0.1,0,0.2-0.1l3.7-3.7c0.1-0.1,0.1-0.1,0.1-0.2C15.3,7.9,15.3,7.9,15.2,7.8z"/>
			<path class="st0" d="M11.3,12.7c-0.2,0-0.5-0.1-0.7-0.3L10.3,12c-0.2-0.2-0.3-0.4-0.3-0.7s0.1-0.5,0.3-0.7L12.9,8l-2.7-2.7
				C10.1,5.2,10,4.9,10,4.7c0-0.2,0.1-0.5,0.3-0.7l0.4-0.4c0.4-0.4,1-0.4,1.3,0l3.7,3.7C15.9,7.5,16,7.8,16,8c0,0.3-0.1,0.5-0.3,0.7
				L12,12.4C11.8,12.6,11.6,12.7,11.3,12.7z"/>
		</g>
	</g>
</g>
<g>
	<g>
		<g>
			<path class="st0" d="M61.1,10.1c-0.8-0.8-1.7-1.4-2.7-1.7c1.3-0.9,2-2.4,1.7-4.2c-0.3-1.6-1.6-3-3.2-3.3
				c-2.7-0.6-5.1,1.5-5.1,4.1c0,1.4,0.7,2.7,1.8,3.4c-1,0.4-2,0.9-2.7,1.7c-1.4,1.4-2.1,3.2-2.1,5.1h1.1c0-3.4,2.7-6.1,6.1-6.1
				c3.4,0,6.1,2.7,6.1,6.1h1.1C63.2,13.3,62.5,11.5,61.1,10.1z M56.6,7.9c-2.1,0.4-4-1.4-3.6-3.6c0.2-1.2,1.2-2.2,2.4-2.4
				c2.1-0.4,4,1.4,3.6,3.6C58.8,6.7,57.8,7.7,56.6,7.9z"/>
			<path class="st0" d="M64,16h-2.7v-0.6c0-2.5-1.7-4.8-4.1-5.3c-3.4-0.8-6.5,1.9-6.5,5.2V16H48l0-0.6c0-1.8,0.5-3.7,1.7-5.1
				c0.7-0.9,1.6-1.6,2.5-2.1c-1.2-1.4-1.6-3.4-0.7-5.3c0.6-1.3,1.8-2.3,3.3-2.7C58-0.7,61,1.8,61,4.9c0,1.2-0.4,2.3-1.2,3.2
				c0.7,0.4,1.3,0.8,1.9,1.4l0,0l0,0c1.5,1.5,2.3,3.5,2.3,5.7V16z M56.6,2.8c-1.7-0.4-3.2,1.1-2.7,2.7c0.2,0.8,0.8,1.4,1.6,1.6
				c1.7,0.4,3.2-1.1,2.7-2.7C58,3.6,57.3,2.9,56.6,2.8z"/>
		</g>
	</g>
</g>
</svg>
