
<svg xmlns="http://www.w3.org/2000/svg" xmlns:xlink="http://www.w3.org/1999/xlink" x="0px" y="0px" width="96px" height="16px" viewBox="0 0 96 16">
<style type="text/css">
	.st0{fill:#FFFFFF;}
</style>
<g transform="translate(48, 0)">
	<circle class="st0" cx="6" cy="-31.1" r="2"/>
	<path class="st0" d="M10-37.1H6c-3.3,0-6,2.7-6,6s2.7,6,6,6h4c3.3,0,6-2.7,6-6S13.3-37.1,10-37.1z M10-27.1H6c-2.2,0-4-1.8-4-4
		s1.8-4,4-4h4c2.2,0,4,1.8,4,4S12.2-27.1,10-27.1z"/>
</g>
<g transform="translate(16, 0)">
	<path class="st0" d="M15,1H1C0.4,1,0,1.4,0,2v12c0,0.6,0.4,1,1,1h14c0.6,0,1-0.4,1-1V2C16,1.4,15.6,1,15,1z M14,13H2V6.7l5.5,3.1
		C7.7,10,7.8,10,8,10c0.2,0,0.3,0,0.5-0.1L14,6.7V13z M14,4.4L8,7.8L2,4.4V3h12V4.4z"/>
</g>
<g transform="translate(32, 0)">
	<path class="st0" d="M3,16h10c0.6,0,1-0.4,1-1V7.5l0.3,0.3C14.5,7.9,14.8,8,15,8c0.3,0,0.6-0.1,0.8-0.3c0.4-0.4,0.3-1-0.1-1.4l-7-6
		C8.3,0,7.8,0,7.4,0.3L4,3.1V2c0-0.6-0.4-1-1-1S2,1.4,2,2v2.8L0.3,6.2c-0.4,0.4-0.5,1-0.1,1.4s1,0.5,1.4,0.1L2,7.5V15
		C2,15.6,2.4,16,3,16z M4,5.7l4-3.4l4,3.5c0,0.1,0,0.1,0,0.2v8h-2v-3c0-0.6-0.4-1-1-1H7c-0.6,0-1,0.4-1,1v3H4V5.7z"/>
	<rect x="6" y="6" class="st0" width="4" height="2"/>
</g>
<g transform="translate(64, 0)">
	<path class="st0" d="M-57.9,0h-5c-0.6,0-1,0.4-1,1v5c0,0.6,0.4,1,1,1h5c0.6,0,1-0.4,1-1V1C-56.9,0.4-57.3,0-57.9,0z M-58.9,5h-3V2
		h3V5z"/>
	<path class="st0" d="M-48.9,0h-5c-0.6,0-1,0.4-1,1v5c0,0.6,0.4,1,1,1h5c0.6,0,1-0.4,1-1V1C-47.9,0.4-48.3,0-48.9,0z M-49.9,5h-3V2
		h3V5z"/>
	<path class="st0" d="M-57.9,9h-5c-0.6,0-1,0.4-1,1v5c0,0.6,0.4,1,1,1h5c0.6,0,1-0.4,1-1v-5C-56.9,9.4-57.3,9-57.9,9z M-58.9,14h-3
		v-3h3V14z"/>
	<path class="st0" d="M-48.9,9h-5c-0.6,0-1,0.4-1,1v5c0,0.6,0.4,1,1,1h5c0.6,0,1-0.4,1-1v-5C-47.9,9.4-48.3,9-48.9,9z M-49.9,14h-3
		v-3h3V14z"/>
</g>
<path class="st0" d="M91.6,0.4c-0.5-0.5-1.3-0.5-1.9,0l-9.3,9.3C80.1,10,80,10.2,80,10.6v4c0,0.8,0.5,1.3,1.3,1.3h4
	c0.4,0,0.7-0.1,0.9-0.4l9.3-9.3c0.5-0.5,0.5-1.3,0-1.9L91.6,0.4z M84.8,13.3h-2.1v-2.1l8-8l2.1,2.1L84.8,13.3z"/>
<g>
	<g>
		<g>
			<path class="st0" d="M73.8,2.9l-0.5-0.2c-0.1,0-0.1,0-0.2,0c0,0.1-0.1,0.1-0.1,0.2l-3,10.3c0,0.1,0,0.1,0,0.2
				c0,0.1,0.1,0.1,0.2,0.1l0.5,0.1c0.1,0,0.1,0,0.2,0c0.1,0,0.1-0.1,0.1-0.2l3-10.2c0-0.1,0-0.1,0-0.2C73.9,2.9,73.9,2.9,73.8,2.9z"
				/>
			<path class="st0" d="M70.8,14.4c-0.1,0-0.2,0-0.3,0L70,14.2c-0.3-0.1-0.4-0.2-0.6-0.4c-0.1-0.2-0.2-0.5-0.1-0.7l3-10.3
				c0.1-0.2,0.2-0.4,0.4-0.6C73,2,73.3,2,73.5,2.1L74,2.2c0.2,0.1,0.4,0.2,0.6,0.4c0.1,0.2,0.2,0.5,0.1,0.7l-3,10.3
				c-0.1,0.2-0.2,0.4-0.4,0.6C71.1,14.3,70.9,14.4,70.8,14.4z M70.7,13.4L70.7,13.4L70.7,13.4z M70.8,13L70.8,13
				C70.9,13,70.9,13,70.8,13z M73.1,3.4L73.1,3.4L73.1,3.4z M73.3,3L73.3,3L73.3,3z"/>
		</g>
		<g>
			<path class="st0" d="M69.3,4.9c0-0.1,0-0.1-0.1-0.2l-0.3-0.4c-0.1-0.1-0.2-0.1-0.2-0.1c-0.1,0-0.2,0-0.2,0.1L64.8,8
				c-0.1,0.1-0.1,0.1-0.1,0.2s0,0.1,0.1,0.2l3.7,3.7c0,0.1,0.1,0.1,0.2,0.1s0.1,0,0.2-0.1l0.4-0.4c0.1-0.1,0.1-0.1,0.1-0.2
				c0-0.1,0-0.1-0.1-0.2l-3.2-3.1l3.1-3.1C69.3,5,69.3,4.9,69.3,4.9z"/>
			<path class="st0" d="M68.7,12.9c-0.2,0-0.5-0.1-0.7-0.3l-3.7-3.7C64.1,8.7,64,8.5,64,8.2c0-0.2,0.1-0.5,0.3-0.7L68,3.8
				c0.4-0.4,1-0.4,1.3,0l0.4,0.4C69.9,4.4,70,4.6,70,4.9c0,0.3-0.1,0.5-0.3,0.7l-2.6,2.6l2.7,2.7c0.1,0.1,0.2,0.4,0.2,0.6
				s-0.1,0.5-0.3,0.7l-0.4,0.4C69.2,12.8,68.9,12.9,68.7,12.9z M68.4,11.6L68.4,11.6L68.4,11.6z M68.8,5.2L68.8,5.2L68.8,5.2z
				 M68.8,4.6L68.8,4.6L68.8,4.6z"/>
		</g>
		<g>
			<path class="st0" d="M79.2,8l-3.7-3.7c0-0.1-0.1-0.1-0.2-0.1c-0.1,0-0.1,0-0.2,0.1l-0.4,0.4c-0.1,0.1-0.1,0.1-0.1,0.2
				s0,0.1,0.1,0.2l3.2,3.1l-3.1,3.1c-0.1,0.1-0.1,0.1-0.1,0.2c0,0.1,0,0.1,0.1,0.2l0.4,0.4c0.1,0.1,0.1,0.1,0.2,0.1
				c0.1,0,0.1,0,0.2-0.1l3.7-3.7c0.1-0.1,0.1-0.1,0.1-0.2C79.3,8.1,79.3,8.1,79.2,8z"/>
			<path class="st0" d="M75.3,12.9c-0.2,0-0.5-0.1-0.7-0.3l-0.3-0.4C74.1,12,74,11.8,74,11.5s0.1-0.5,0.3-0.7l2.6-2.6l-2.7-2.7
				C74.1,5.4,74,5.1,74,4.9c0-0.2,0.1-0.5,0.3-0.7l0.4-0.4c0.4-0.4,1-0.4,1.3,0l3.7,3.7C79.9,7.7,80,8,80,8.2c0,0.3-0.1,0.5-0.3,0.7
				L76,12.6C75.8,12.8,75.6,12.9,75.3,12.9z"/>
		</g>
	</g>
</g>
<g>
	<g>
		<g>
			<path class="st0" d="M61.1,10.1c-0.8-0.8-1.7-1.4-2.7-1.7c1.3-0.9,2-2.4,1.7-4.2c-0.3-1.6-1.6-3-3.2-3.3
				c-2.7-0.6-5.1,1.5-5.1,4.1c0,1.4,0.7,2.7,1.8,3.4c-1,0.4-2,0.9-2.7,1.7c-1.4,1.4-2.1,3.2-2.1,5.1h1.1c0-3.4,2.7-6.1,6.1-6.1
				c3.4,0,6.1,2.7,6.1,6.1h1.1C63.2,13.3,62.5,11.5,61.1,10.1z M56.6,7.9c-2.1,0.4-4-1.4-3.6-3.6c0.2-1.2,1.2-2.2,2.4-2.4
				c2.1-0.4,4,1.4,3.6,3.6C58.8,6.7,57.8,7.7,56.6,7.9z"/>
			<path class="st0" d="M64,16h-2.7v-0.6c0-2.5-1.7-4.8-4.1-5.3c-3.4-0.8-6.5,1.9-6.5,5.2V16H48v-0.6c0-1.8,0.5-3.7,1.7-5.1
				c0.7-0.9,1.6-1.6,2.5-2.1c-1.2-1.4-1.6-3.4-0.7-5.3c0.6-1.3,1.8-2.3,3.3-2.7C58-0.7,61,1.8,61,4.9c0,1.2-0.4,2.3-1.2,3.2
				c0.7,0.4,1.3,0.8,1.9,1.4l0,0l0,0C63.2,11,64,13,64,15.2V16z M56.6,2.8c-1.7-0.4-3.2,1.1-2.7,2.7c0.2,0.8,0.8,1.4,1.6,1.6
				c1.7,0.4,3.2-1.1,2.7-2.7C58,3.6,57.3,2.9,56.6,2.8z"/>
		</g>
	</g>
</g>
</svg>
