<svg xmlns="http://www.w3.org/2000/svg" viewBox="-1173.929 -3057 354.517 87.607">
  <defs>
    <style>
      .cls-1 {
        fill: #44c2a7;
      }

      .cls-2 {
        fill: #6d4d42;
      }

      .cls-3 {
        fill: #543a33;
      }

      .cls-4 {
        fill: #14977c;
      }

      .cls-5 {
        fill: #eeeeec;
      }

      .cls-6 {
        fill: #117d66;
      }
    </style>
  </defs>
  <g id="Group_2845" data-name="Group 2845" transform="translate(-8 331)">
    <path id="T" class="cls-1" d="M14.283,12.76H0V1.14H40.911V12.76H26.629V87.294H14.283Z" transform="translate(-1165.929 -3388.414)"/>
    <path id="R" class="cls-1" d="M72.77,1.14H92.62q21.787,0,21.787,25.3a31.919,31.919,0,0,1-2.363,12.887,18.272,18.272,0,0,1-8.282,8.651l13.314,39.338H104L92.5,50.524H85.116v36.8H72.77ZM85.116,39.63h7.008a12.423,12.423,0,0,0,5.2-.911,6.689,6.689,0,0,0,2.981-2.631,11.085,11.085,0,0,0,1.389-4.173,40.132,40.132,0,0,0,.363-5.733,40.135,40.135,0,0,0-.363-5.733,10.391,10.391,0,0,0-1.51-4.236A6.861,6.861,0,0,0,97,13.613a14.582,14.582,0,0,0-5.447-.847H85.116Z" transform="translate(-1192.341 -3388.414)"/>
    <path id="I" class="cls-1" d="M154.28,1.14h12.346V87.32H154.28Z" transform="translate(-1221.925 -3388.414)"/>
    <path id="N" class="cls-1" d="M262.38,1.14h11.862l18.64,51.926h.242V1.14h12.333V87.32H293.85l-18.882-51.8h-.242v51.8H262.38Z" transform="translate(-1261.161 -3388.414)"/>
    <path id="G" class="cls-1" d="M346.358,21.061a22.024,22.024,0,0,1,1.816-9.2,19.182,19.182,0,0,1,4.778-6.593,20.627,20.627,0,0,1,6.657-3.937,21.475,21.475,0,0,1,14.888,0,20.66,20.66,0,0,1,6.67,3.937,19.208,19.208,0,0,1,4.778,6.593,22.021,22.021,0,0,1,1.816,9.2v4.357H375.432V21.061q0-4.459-2.485-6.593a9.193,9.193,0,0,0-11.741,0q-2.484,2.121-2.485,6.593V66.572q0,4.459,2.485,6.593a9.193,9.193,0,0,0,11.741,0q2.478-2.115,2.485-6.593V50.327H365.6V39.459h22.15V66.572a21.906,21.906,0,0,1-1.816,9.237,19.328,19.328,0,0,1-4.778,6.536,20.6,20.6,0,0,1-6.657,3.931,21.469,21.469,0,0,1-14.888,0,20.557,20.557,0,0,1-6.657-3.931,19.3,19.3,0,0,1-4.778-6.536,21.907,21.907,0,0,1-1.816-9.263Z" transform="translate(-1291.639 -3388)"/>
    <path id="L" class="cls-1" d="M428.44,1.14h12.346V74.948h24.45V87.294h-36.8Z" transform="translate(-1321.432 -3388.414)"/>
    <path id="E" class="cls-1" d="M498.74,1.14h36.8V12.76h-24.45v25.3h21.3v11.62h-21.3V74.948h24.45V87.294h-36.8Z" transform="translate(-1346.948 -3388.414)"/>
    <g id="Group_2844" data-name="Group 2844">
      <rect id="Rectangle_526" data-name="Rectangle 526" class="cls-2" width="7.116" height="22.544" transform="translate(-1030.714 -3323.886)"/>
      <rect id="Rectangle_527" data-name="Rectangle 527" class="cls-3" width="7.116" height="15.281" transform="translate(-1030.714 -3323.886)"/>
      <path id="Path_7242" data-name="Path 7242" class="cls-4" d="M110.41,244.955l-3.038-2.733H85.667l-1.855,2.733-8.618,20.438v6.256h43.836v-6.256Z" transform="translate(-1124.267 -3585.818)"/>
      <path id="Path_7243" data-name="Path 7243" class="cls-1" d="M165.032,112.525l-.559-2.361h-10.8l-1.3,2.361-7.1,16.825,1.977,4.627h21.706l3.16-4.627Z" transform="translate(-1185.863 -3477.573)"/>
      <path id="Path_7244" data-name="Path 7244" class="cls-4" d="M204.465,0l-7.109,16.859,2.079,3.006h10.8l1.342-3.006Z" transform="translate(-1231.622 -3387.274)"/>
      <path id="Path_7245" data-name="Path 7245" class="cls-5" d="M95.272,372.408h0c-1.362-2.938-4.28-2.938-5.642,0h0c-1.362,2.938-4.28,2.938-5.642,0h0c-1.362-2.938-4.28-2.938-5.642,0h0c-1.362,2.938-4.28,2.938-5.642,0h0c-1.362-2.938-4.28-2.938-5.642,0h0c-1.362,2.938-4.28,2.938-5.642,0h0c-1.362-2.938-4.28-2.938-5.642,0h0c-1.362,2.938-4.28,2.938-5.642,0h0c-1.362-2.938-4.28-2.938-5.642,0h0v0c-.918,2.917.514,6.265,2.679,6.265H92.592C94.758,378.675,96.19,375.326,95.272,372.408Z" transform="translate(-1097.039 -3690.723)"/>
      <path id="Path_7246" data-name="Path 7246" class="cls-6" d="M158.2,250.528l-2.35-5.573-3.038-2.733H131.11l-1.855,2.733-2.35,5.573Z" transform="translate(-1169.71 -3585.818)"/>
      <path id="Path_7247" data-name="Path 7247" class="cls-5" d="M165.11,212.612h0c-1.362-2.938-4.28-2.938-5.642,0h0c-1.362,2.938-4.28,2.938-5.642,0h0c-1.362-2.938-4.28-2.938-5.642,0h0c-1.362,2.938-4.28,2.938-5.642,0h0c-1.362-2.938-4.28-2.938-5.642,0h0c-1.077,2.789.277,6.267,2.439,6.267h23.334C164.833,218.878,166.187,215.4,165.11,212.612Z" transform="translate(-1178.161 -3559.741)"/>
      <path id="Path_7248" data-name="Path 7248" class="cls-4" d="M186.779,112.525l-2.35,5.573h17.353l-2.35-5.573-.559-2.361h-10.8Z" transform="translate(-1220.262 -3477.573)"/>
      <path id="Path_7249" data-name="Path 7249" class="cls-5" d="M191.586,83.561h0c-.838-1.64-2.244-2.386-3.595-1.932-1.291.434-2.838.531-3.561-1.029h0c-1.558-2.318-4.084-2.318-5.642,0h0c-.724,1.56-2.27,1.463-3.561,1.029-1.351-.454-2.756.292-3.595,1.932h0c-.693,1.356-.043,3.306,1.1,3.306h17.75C191.629,86.867,192.279,84.917,191.586,83.561Z" transform="translate(-1208.765 -3451.915)"/>
    </g>
  </g>
</svg>
