<svg xmlns="http://www.w3.org/2000/svg" viewBox="1536 0 1366.119 768.884">
  <defs>
    <style>
      .cls-1 {
        fill: #fff;
      }

      .cls-2 {
        fill: #ffb819;
      }

      .cls-3 {
        fill: #0071ce;
      }

      .cls-4 {
        fill: #00b3e3;
      }

      .cls-5 {
        opacity: 0.2;
      }

      .cls-6 {
        fill: #00ad68;
      }

      .cls-7 {
        fill: #d1d3d3;
      }

      .cls-8 {
        opacity: 0.1;
      }

      .cls-9 {
        fill: #333e48;
      }

      .cls-10 {
        fill: #d68231;
      }

      .cls-11 {
        fill: #a4a9ad;
      }

      .cls-12 {
        fill: #1e252b;
      }

      .cls-13 {
        fill: #ff5959;
      }

      .cls-14 {
        fill: #929596;
      }

      .cls-15 {
        fill: #a4a7a8;
      }

      .cls-16 {
        fill: #218649;
      }

      .cls-17 {
        fill: #fafafa;
      }

      .cls-18 {
        fill: #ffb61e;
      }

      .cls-19 {
        opacity: 0.3;
      }
    </style>
  </defs>
  <g id="Group_2830" data-name="Group 2830" transform="translate(1536)">
    <rect id="Rectangle_50" data-name="Rectangle 50" class="cls-1" width="1366" height="767"/>
    <g id="City" transform="translate(-1616.999 1456.705)">
      <g id="book-shop" transform="translate(1811.629 -860.822)">
        <path id="Path_444" data-name="Path 444" class="cls-2" d="M109.1,101.861a6.922,6.922,0,0,0-6.9-6.9H77.889a6.922,6.922,0,0,0-6.9,6.9V183.5a6.922,6.922,0,0,0,6.9,6.9H102.2a6.922,6.922,0,0,0,6.9-6.9V101.861Z" transform="translate(-42.617 -72.883)"/>
        <path id="Path_445" data-name="Path 445" class="cls-3" d="M204.47,54.561a6.922,6.922,0,0,0-6.9-6.9H173.259a6.923,6.923,0,0,0-6.9,6.9V136.2a6.923,6.923,0,0,0,6.9,6.9h24.309a6.922,6.922,0,0,0,6.9-6.9Z" transform="translate(-99.872 -44.486)"/>
        <rect id="Rectangle_71" data-name="Rectangle 71" class="cls-4" width="6.345" height="58.728" transform="translate(82.37 21.529)"/>
        <rect id="Rectangle_72" data-name="Rectangle 72" class="cls-5" width="76.228" height="14.065" transform="translate(28.367 39.034)"/>
        <path id="Path_446" data-name="Path 446" class="cls-6" d="M286.97,56.848a6.923,6.923,0,0,0-9.762,0L263.745,70.31a6.922,6.922,0,0,0,0,9.761l51.8,51.8a6.923,6.923,0,0,0,9.761,0L338.765,118.4a6.923,6.923,0,0,0,0-9.762Z" transform="translate(-157.131 -48.794)"/>
        <g id="Group_123" data-name="Group 123" transform="translate(122.487 23.926)">
          <circle id="Ellipse_21" data-name="Ellipse 21" class="cls-1" cx="3.162" cy="3.162" r="3.162"/>
          <rect id="Rectangle_73" data-name="Rectangle 73" class="cls-1" width="44.679" height="6.345" transform="translate(41.029 45.514) rotate(-135)"/>
        </g>
        <path id="Path_447" data-name="Path 447" class="cls-5" d="M332.624,137.388h-46.45l14.064,14.064h46.449Z" transform="translate(-171.805 -98.355)"/>
        <rect id="Rectangle_74" data-name="Rectangle 74" class="cls-7" width="173.937" height="111.935" transform="translate(15.343 54.842)"/>
        <rect id="Rectangle_75" data-name="Rectangle 75" class="cls-8" width="18.329" height="8.821" transform="translate(15.343 103.028)"/>
        <rect id="Rectangle_76" data-name="Rectangle 76" class="cls-8" width="18.329" height="8.821" transform="translate(44.29 77.296)"/>
        <rect id="Rectangle_77" data-name="Rectangle 77" class="cls-8" width="18.329" height="8.821" transform="translate(100.775 74.512)"/>
        <rect id="Rectangle_78" data-name="Rectangle 78" class="cls-8" width="18.329" height="8.821" transform="translate(72.514 60.35)"/>
        <rect id="Rectangle_79" data-name="Rectangle 79" class="cls-8" width="18.329" height="8.821" transform="translate(170.95 87.097)"/>
        <rect id="Rectangle_80" data-name="Rectangle 80" class="cls-8" width="18.329" height="8.821" transform="translate(167.926 141.298)"/>
        <rect id="Rectangle_81" data-name="Rectangle 81" class="cls-8" width="18.329" height="8.821" transform="translate(129.393 149.551)"/>
        <rect id="Rectangle_82" data-name="Rectangle 82" class="cls-8" width="18.329" height="8.82" transform="translate(96.846 124.631)"/>
        <rect id="Rectangle_83" data-name="Rectangle 83" class="cls-8" width="18.329" height="8.821" transform="translate(22.911 148.705)"/>
        <rect id="Rectangle_84" data-name="Rectangle 84" class="cls-8" width="173.937" height="16.531" transform="translate(15.343 54.842)"/>
        <g id="Group_124" data-name="Group 124" transform="translate(8.032 46.35)">
          <path id="Path_448" data-name="Path 448" class="cls-9" d="M208.653,169.876a4.243,4.243,0,0,1-4.23,4.23H24.328a4.243,4.243,0,0,1-4.23-4.23v-9.947a4.243,4.243,0,0,1,4.23-4.23H204.423a4.243,4.243,0,0,1,4.23,4.23v9.947Z" transform="translate(-20.098 -155.698)"/>
          <rect id="Rectangle_85" data-name="Rectangle 85" class="cls-9" width="71.079" height="76.702" transform="translate(97.976 28.373)"/>
        </g>
        <path id="Path_449" data-name="Path 449" class="cls-6" d="M308.825,270.9a2.307,2.307,0,0,1-2.3,2.3H289.75a2.308,2.308,0,0,1-2.3-2.3V249.639a2.307,2.307,0,0,1,2.3-2.3h16.775a2.307,2.307,0,0,1,2.3,2.3Z" transform="translate(-172.57 -164.364)"/>
        <rect id="Rectangle_86" data-name="Rectangle 86" class="cls-1" width="9.78" height="6.345" transform="translate(120.674 88.755)"/>
        <path id="Path_450" data-name="Path 450" class="cls-3" d="M388.81,270.9a2.307,2.307,0,0,1-2.3,2.3H369.734a2.307,2.307,0,0,1-2.3-2.3V249.639a2.307,2.307,0,0,1,2.3-2.3H386.51a2.307,2.307,0,0,1,2.3,2.3V270.9Z" transform="translate(-220.59 -164.364)"/>
        <rect id="Rectangle_87" data-name="Rectangle 87" class="cls-1" width="9.78" height="6.345" transform="translate(152.642 88.755)"/>
        <path id="Path_451" data-name="Path 451" class="cls-4" d="M308.825,356.814a2.307,2.307,0,0,1-2.3,2.3H289.75a2.308,2.308,0,0,1-2.3-2.3V335.555a2.308,2.308,0,0,1,2.3-2.3h16.775a2.307,2.307,0,0,1,2.3,2.3Z" transform="translate(-172.57 -215.944)"/>
        <rect id="Rectangle_88" data-name="Rectangle 88" class="cls-1" width="9.78" height="6.345" transform="translate(120.674 123.091)"/>
        <path id="Path_452" data-name="Path 452" class="cls-2" d="M388.81,356.814a2.307,2.307,0,0,1-2.3,2.3H369.734a2.307,2.307,0,0,1-2.3-2.3V335.555a2.307,2.307,0,0,1,2.3-2.3H386.51a2.307,2.307,0,0,1,2.3,2.3v21.258Z" transform="translate(-220.59 -215.944)"/>
        <rect id="Rectangle_89" data-name="Rectangle 89" class="cls-1" width="9.78" height="6.345" transform="translate(152.642 123.091)"/>
        <rect id="Rectangle_90" data-name="Rectangle 90" class="cls-10" width="57.196" height="75.272" transform="translate(32.076 91.505)"/>
        <rect id="Rectangle_91" data-name="Rectangle 91" class="cls-9" width="37.027" height="26.587" transform="translate(42.162 102.317)"/>
        <rect id="Rectangle_92" data-name="Rectangle 92" class="cls-1" width="17.563" height="6.345" transform="translate(51.892 110.744)"/>
        <path id="Path_453" data-name="Path 453" class="cls-11" d="M206.213,448.311a1.713,1.713,0,0,1-1.708,1.709H9.647a1.713,1.713,0,0,1-1.708-1.709V442.2a1.713,1.713,0,0,1,1.708-1.709H204.505a1.713,1.713,0,0,1,1.708,1.709v6.115Z" transform="translate(-4.766 -280.321)"/>
        <path id="Path_454" data-name="Path 454" class="cls-12" d="M45.324,184.213a3.162,3.162,0,1,0-3.162-3.162A3.162,3.162,0,0,0,45.324,184.213Zm60.685,10.1H177.09a3.173,3.173,0,0,0,3.173-3.173v-76.7a3.173,3.173,0,0,0-3.173-3.173H106.009a3.173,3.173,0,0,0-3.173,3.173v76.7A3.173,3.173,0,0,0,106.009,194.315Zm3.172-76.7h64.736V187.97H109.181Zm90.558,79.1h-7.287V107.646a7.409,7.409,0,0,0,7.308-7.4V90.3a7.411,7.411,0,0,0-7.4-7.4H169.451L132.082,45.53a10.089,10.089,0,0,0-14.249,0L107.77,55.594V49.8A10.087,10.087,0,0,0,97.694,39.72H73.386A10.087,10.087,0,0,0,63.311,49.8v9.547a10.016,10.016,0,0,0-3.73-.719H35.272A10.086,10.086,0,0,0,25.2,68.7V82.9H12.262a7.411,7.411,0,0,0-7.4,7.4v9.947a7.409,7.409,0,0,0,7.308,7.4v89.067H4.881A4.886,4.886,0,0,0,0,201.595v6.115a4.887,4.887,0,0,0,4.881,4.882H199.739a4.887,4.887,0,0,0,4.881-4.882v-6.115A4.888,4.888,0,0,0,199.739,196.713ZM108.857,63.48,122.32,50.017a3.735,3.735,0,0,1,5.275,0L160.478,82.9H123L108.857,68.754a3.75,3.75,0,0,1,0-5.275ZM107.77,76.64l6.258,6.258H107.77V76.64ZM69.656,49.8a3.734,3.734,0,0,1,3.73-3.73H97.695a3.734,3.734,0,0,1,3.73,3.73V82.9H69.656V49.8ZM31.542,68.7a3.734,3.734,0,0,1,3.73-3.73H59.58a3.734,3.734,0,0,1,3.73,3.73V82.9H31.541V68.7ZM11.2,100.248V90.3a1.072,1.072,0,0,1,1.057-1.057H192.357a1.072,1.072,0,0,1,1.057,1.057v9.947a1.072,1.072,0,0,1-1.057,1.057H12.262A1.072,1.072,0,0,1,11.2,100.248ZM91.537,129a3.171,3.171,0,0,0-2.264-.95h-57.2a3.173,3.173,0,0,0-3.172,3.114l-1.215,65.547H18.514V107.651H186.107v89.062H91.232l1.213-65.428A3.173,3.173,0,0,0,91.537,129Zm-5.5,5.4-1.155,62.315H34.036L35.191,134.4h50.85Zm112.234,71.848H6.345v-3.188h191.93v3.188Z" transform="translate(0 -39.72)"/>
      </g>
      <g id="building-1" transform="translate(1617 -858.424)">
        <path id="Path_429" data-name="Path 429" class="cls-11" d="M166.254,74.041a4.243,4.243,0,0,0-4.23-4.23H109.663a4.243,4.243,0,0,0-4.23,4.23V89.15a4.243,4.243,0,0,0,4.23,4.23h52.36a4.243,4.243,0,0,0,4.23-4.23V74.041Z" transform="translate(-63.297 -58.938)"/>
        <rect id="Rectangle_51" data-name="Rectangle 51" class="cls-5" width="60.821" height="3.772" transform="translate(42.137 21.502)"/>
        <rect id="Rectangle_52" data-name="Rectangle 52" class="cls-13" width="109.219" height="128.187" transform="translate(20.584 34.442)"/>
        <rect id="Rectangle_53" data-name="Rectangle 53" class="cls-8" width="22.323" height="10.743" transform="translate(20.584 93.165)"/>
        <rect id="Rectangle_54" data-name="Rectangle 54" class="cls-8" width="22.323" height="10.743" transform="translate(98.487 120.683)"/>
        <rect id="Rectangle_55" data-name="Rectangle 55" class="cls-8" width="22.323" height="10.743" transform="translate(70.703 43.609)"/>
        <rect id="Rectangle_56" data-name="Rectangle 56" class="cls-8" width="22.323" height="10.743" transform="translate(87.324 80.504)"/>
        <rect id="Rectangle_57" data-name="Rectangle 57" class="cls-8" width="22.323" height="10.743" transform="translate(29.844 51.832)"/>
        <rect id="Rectangle_58" data-name="Rectangle 58" class="cls-8" width="22.323" height="10.743" transform="translate(28.554 144.05)"/>
        <rect id="Rectangle_59" data-name="Rectangle 59" class="cls-8" width="22.323" height="10.743" transform="translate(43.499 113.026)"/>
        <path id="Path_430" data-name="Path 430" class="cls-9" d="M171.892,302.08a19.187,19.187,0,1,0-38.375,0v33.262h38.375V302.08Z" transform="translate(-80.157 -186.861)"/>
        <path id="Path_431" data-name="Path 431" class="cls-14" d="M120.14,423.512v-7.266a2.121,2.121,0,0,1,2.115-2.115h44.837a2.121,2.121,0,0,1,2.115,2.115v7.266Z" transform="translate(-72.126 -265.651)"/>
        <g id="Group_122" data-name="Group 122" transform="translate(35.806 64.218)">
          <path id="Path_432" data-name="Path 432" class="cls-1" d="M176.847,316.907a9.317,9.317,0,0,0-18.634,0Z" transform="translate(-130.789 -265.907)"/>
          <path id="Path_433" data-name="Path 433" class="cls-1" d="M163.076,205.4a2.121,2.121,0,0,0-2.115-2.115H91.708a2.121,2.121,0,0,0-2.115,2.115v13.688a2.121,2.121,0,0,0,2.115,2.115h69.253a2.121,2.121,0,0,0,2.115-2.115V205.4Z" transform="translate(-89.593 -203.29)"/>
        </g>
        <path id="Path_434" data-name="Path 434" class="cls-5" d="M160.961,203.29H91.708a2.121,2.121,0,0,0-2.115,2.115v6.189a2.121,2.121,0,0,1,2.115-2.115h69.253a2.121,2.121,0,0,1,2.115,2.115V205.4A2.122,2.122,0,0,0,160.961,203.29Z" transform="translate(-53.787 -139.072)"/>
        <rect id="Rectangle_60" data-name="Rectangle 60" class="cls-8" width="109.219" height="15.263" transform="translate(20.584 34.442)"/>
        <path id="Path_435" data-name="Path 435" class="cls-9" d="M152.771,110.079a4.243,4.243,0,0,0-4.23-4.23H42.484a4.243,4.243,0,0,0-4.23,4.23v9.871a4.243,4.243,0,0,0,4.23,4.23H148.541a4.243,4.243,0,0,0,4.23-4.23v-9.871h0Z" transform="translate(-22.966 -80.573)"/>
        <rect id="Rectangle_61" data-name="Rectangle 61" class="cls-8" width="15.139" height="137.35" transform="translate(114.668 25.275)"/>
        <rect id="Rectangle_62" data-name="Rectangle 62" class="cls-15" width="64.908" height="144.579" transform="translate(120.81 18.05)"/>
        <rect id="Rectangle_63" data-name="Rectangle 63" class="cls-8" width="22.323" height="10.743" transform="translate(120.81 93.034)"/>
        <rect id="Rectangle_64" data-name="Rectangle 64" class="cls-8" width="22.323" height="10.743" transform="translate(158.458 138.682)"/>
        <rect id="Rectangle_65" data-name="Rectangle 65" class="cls-8" width="22.323" height="10.743" transform="translate(163.395 63.355)"/>
        <rect id="Rectangle_66" data-name="Rectangle 66" class="cls-8" width="22.323" height="10.743" transform="translate(125.607 41.697)"/>
        <rect id="Rectangle_67" data-name="Rectangle 67" class="cls-8" width="22.323" height="10.743" transform="translate(156.487 21.502)"/>
        <rect id="Rectangle_68" data-name="Rectangle 68" class="cls-8" width="64.908" height="9.728" transform="translate(120.81 18.05)"/>
        <path id="Path_436" data-name="Path 436" class="cls-1" d="M376.607,143.5a13.718,13.718,0,1,0-27.436,0V174.5h27.436V143.5h0Z" transform="translate(-209.625 -94.94)"/>
        <path id="Path_437" data-name="Path 437" class="cls-5" d="M362.889,129.779A13.718,13.718,0,0,0,349.171,143.5v5.851a13.718,13.718,0,0,1,27.436,0V143.5A13.718,13.718,0,0,0,362.889,129.779Z" transform="translate(-209.625 -94.94)"/>
        <rect id="Rectangle_69" data-name="Rectangle 69" class="cls-5" width="27.436" height="6.836" transform="translate(139.545 48.558)"/>
        <path id="Path_438" data-name="Path 438" class="cls-1" d="M376.607,296.624a13.718,13.718,0,0,0-27.436,0v31.008h27.436V296.624Z" transform="translate(-209.625 -186.87)"/>
        <path id="Path_439" data-name="Path 439" class="cls-5" d="M362.889,282.906a13.718,13.718,0,0,0-13.718,13.718v5.852a13.718,13.718,0,1,1,27.436,0v-5.852A13.718,13.718,0,0,0,362.889,282.906Z" transform="translate(-209.625 -186.87)"/>
        <rect id="Rectangle_70" data-name="Rectangle 70" class="cls-5" width="27.436" height="6.836" transform="translate(139.545 109.752)"/>
        <path id="Path_440" data-name="Path 440" class="cls-11" d="M206.213,445.428a1.713,1.713,0,0,1-1.708,1.708H9.647a1.713,1.713,0,0,1-1.708-1.708v-6.116A1.714,1.714,0,0,1,9.647,437.6H204.505a1.713,1.713,0,0,1,1.708,1.709v6.116Z" transform="translate(-4.766 -279.742)"/>
        <path id="Path_441" data-name="Path 441" class="cls-9" d="M364.75,54.772a4.243,4.243,0,0,0-4.23-4.23H294.326a4.243,4.243,0,0,0-4.23,4.23v9.871a4.243,4.243,0,0,0,4.23,4.23H360.52a4.243,4.243,0,0,0,4.23-4.23Z" transform="translate(-174.16 -47.37)"/>
        <path id="Path_442" data-name="Path 442" class="cls-7" d="M367.409,437.6H279.286v9.534h88.122a1.713,1.713,0,0,0,1.708-1.708v-6.116A1.713,1.713,0,0,0,367.409,437.6Z" transform="translate(-167.67 -279.742)"/>
        <path id="Path_443" data-name="Path 443" class="cls-12" d="M112.461,122.624V108.937a5.294,5.294,0,0,0-5.288-5.288H37.921a5.294,5.294,0,0,0-5.288,5.288v13.688a5.294,5.294,0,0,0,5.288,5.288h69.253A5.293,5.293,0,0,0,112.461,122.624Zm-43.087-1.057h-30.4V109.994h30.4v11.573Zm36.742,0H75.72V109.994h30.4Zm93.622,75.725H188.89V66.825a7.408,7.408,0,0,0,4.873-6.948V50.007a7.411,7.411,0,0,0-7.4-7.4H120.167a7.411,7.411,0,0,0-7.4,7.4v9.871a7.365,7.365,0,0,0,1.806,4.83h-8.439v-7a7.411,7.411,0,0,0-7.4-7.4H46.366a7.411,7.411,0,0,0-7.4,7.4v7H19.518a7.411,7.411,0,0,0-7.4,7.4v9.871a7.414,7.414,0,0,0,5.3,7.094V197.292H0V213.2l199.739-.027a4.887,4.887,0,0,0,4.881-4.881v-6.115A4.888,4.888,0,0,0,199.739,197.292ZM119.109,50.007a1.072,1.072,0,0,1,1.057-1.057H186.36a1.072,1.072,0,0,1,1.057,1.057v9.871a1.072,1.072,0,0,1-1.057,1.057H120.166a1.072,1.072,0,0,1-1.057-1.057V50.007ZM182.545,67.28V197.292H123.983V67.28ZM45.309,57.708a1.072,1.072,0,0,1,1.057-1.057h52.36a1.072,1.072,0,0,1,1.057,1.057v7H45.309ZM18.461,72.11a1.072,1.072,0,0,1,1.057-1.057h98.119V83.038H19.518a1.072,1.072,0,0,1-1.057-1.057Zm76.5,115.8h-.058V157.823a22.36,22.36,0,1,0-44.72,0v30.089h-.058a5.294,5.294,0,0,0-5.288,5.288v4.093H23.757V89.384h93.881V197.292H100.253V193.2A5.293,5.293,0,0,0,94.965,187.911Zm-1.057,6.345v3.036H51.187v-3.036Zm-37.376-6.345V157.823a16.015,16.015,0,1,1,32.03,0v30.089Zm51.911,18.914H6.345v-3.188h102.1v3.188Zm89.831,0H114.789v-3.188h83.485v3.188Zm-58.729-81.484h27.436a3.172,3.172,0,0,0,3.173-3.173V91.162a16.891,16.891,0,1,0-33.782,0v31.008A3.173,3.173,0,0,0,139.546,125.342Zm13.718-44.726a10.564,10.564,0,0,1,10.057,7.373H143.207A10.564,10.564,0,0,1,153.264,80.616ZM142.718,94.334h21.091v9.158H142.718Zm0,15.5h21.091V119H142.718Zm-3.172,76.7h27.436a3.172,3.172,0,0,0,3.173-3.173V152.358a16.891,16.891,0,0,0-33.782,0v31.008A3.172,3.172,0,0,0,139.546,186.539Zm13.718-44.726a10.563,10.563,0,0,1,10.057,7.372H143.207A10.564,10.564,0,0,1,153.264,141.813Zm-10.545,13.718h21.091v9.159H142.718Zm0,15.5h21.091v9.158H142.718Z" transform="translate(0 -42.604)"/>
      </g>
      <g id="museum" transform="translate(2005.861 -842.438)">
        <path id="Path_455" data-name="Path 455" class="cls-11" d="M245.957,72.392C212,62.308,124.081,92.247,124.081,182.083H246.053S279.914,82.476,245.957,72.392Z" transform="translate(-61.306 -67.355)"/>
        <path id="Path_456" data-name="Path 456" class="cls-8" d="M332.256,99.626H260.842a119.251,119.251,0,0,0-11.266,6.345h84.995A33.3,33.3,0,0,0,332.256,99.626Z" transform="translate(-136.648 -84.826)"/>
        <path id="Path_457" data-name="Path 457" class="cls-5" d="M259.8,110.008l0,0c-12.766-12.766-47.21-9.713-77.911,8.251-4.655-2.292-9.078-4.638-13.316-6.888-24.556,17.76-44.5,46.958-44.5,89.741H246.051S266.244,141.71,259.8,110.008Z" transform="translate(-61.305 -86.383)"/>
        <path id="Path_458" data-name="Path 458" class="cls-11" d="M263.174,132.843C238.136,107.806,129.7,143.612,129.7,233.448H251.667S288.211,157.88,263.174,132.843Z" transform="translate(-64.677 -100.093)"/>
        <path id="Path_459" data-name="Path 459" class="cls-8" d="M319.335,194.377H216.329q-3.638,3.013-7.075,6.345H319.7A62.893,62.893,0,0,0,319.335,194.377Z" transform="translate(-112.44 -141.71)"/>
        <path id="Path_460" data-name="Path 460" class="cls-8" d="M245.81,164.4c-20.075,0-36.846-5.058-51.4-11.4C161.355,168.92,129.7,201.686,129.7,250.225H251.667s18.542-38.343,20.16-69.454C268.6,171.09,260.915,164.4,245.81,164.4Z" transform="translate(-64.677 -116.871)"/>
        <path id="Path_461" data-name="Path 461" class="cls-7" d="M177.023,143.882c-69.51,0-99.41-60.637-134.839-25.207s-.237,112.8-.237,112.8H189.274S231.683,143.882,177.023,143.882Z" transform="translate(-2.649 -89.592)"/>
        <path id="Path_462" data-name="Path 462" class="cls-8" d="M117.2,160.153H34.6a52.812,52.812,0,0,0-3.118,6.345H131.525C126.5,164.533,121.744,162.372,117.2,160.153Zm86.167,32.713H26.411q-.079,3.166.03,6.345H204.626A37.842,37.842,0,0,0,203.368,192.866ZM31.411,231.925H200.784c.571-2.081,1.107-4.2,1.594-6.345H29.916Q30.624,228.833,31.411,231.925Z" transform="translate(-2.651 -121.164)"/>
        <path id="Path_463" data-name="Path 463" class="cls-11" d="M194.206,425.438a1.713,1.713,0,0,1-1.708,1.709H-2.36c-.94,0-9.7-.769-9.7-1.709v-6.115c0-.94,8.761-1.709,9.7-1.709H192.5a1.713,1.713,0,0,1,1.708,1.709v6.115Z" transform="translate(20.427 -275.731)"/>
        <path id="Path_464" data-name="Path 464" class="cls-9" d="M175.357,349.639v-38.9a6.364,6.364,0,0,0-6.345-6.345h-26.65a6.364,6.364,0,0,0-6.345,6.345v38.9Z" transform="translate(-68.472 -207.756)"/>
        <path id="Path_465" data-name="Path 465" class="cls-16" d="M393.067,366.108V339.832a7.792,7.792,0,0,0-7.5-8.011H347.122a7.792,7.792,0,0,0-7.5,8.011v26.275Z" transform="translate(-190.706 -224.225)"/>
        <path id="Path_466" data-name="Path 466" class="cls-6" d="M342.587,379.295V359.747a5.978,5.978,0,0,0-5.96-5.96H296.89a5.978,5.978,0,0,0-5.96,5.96v19.548Z" transform="translate(-161.475 -237.412)"/>
        <path id="Path_467" data-name="Path 467" class="cls-12" d="M167.942,201.3h4.6V178.2a11.41,11.41,0,0,0-3.286-8.061,121.754,121.754,0,0,0,2.485-12.869l.068.019c8.179-29.178,7.5-49.968-2-61.881-.938-17.329-6.735-27.7-17.248-30.82-10.617-3.154-25.55-2.547-40.971,1.663A121.474,121.474,0,0,0,66.04,89.966C55.059,84.153,45.39,79.287,35.821,77.83c-11.8-1.8-21.812,1.892-31.524,11.6-8.582,8.582-13.926,20.149-15.884,34.383-1.535,11.161-1,23.986,1.6,38.12A212.053,212.053,0,0,0,1.52,201.3H-31.8c-2.692,0,0,2.189,0,4.881V212.3c0,2.692-1.654,4.71,1.038,4.71l210.691.172a4.887,4.887,0,0,0,4.881-4.882v-9.334C184.812,200.276,170.633,201.3,167.942,201.3Zm2.523-68.9a27.921,27.921,0,0,0-4.394-8.455c-5.256-6.79-13.562-10.233-24.69-10.233-18.425,0-33.844-4.294-47.5-9.991,12.9-6.828,26.673-11.25,39.356-12.582,13.554-1.423,24.5.927,30.02,6.449C170.93,105.257,172.072,118.606,170.465,132.4Zm-28.306,43.4H119.672a4.272,4.272,0,0,1,3.751-2.434h38.443a4.61,4.61,0,0,1,4.329,4.839v23.1h-14.9V184.929A9.143,9.143,0,0,0,142.159,175.8Zm2.788,9.133V201.3H99.635V184.929a2.791,2.791,0,0,1,2.788-2.788h39.736A2.791,2.791,0,0,1,144.946,184.929ZM113.259,72.373c14.312-3.907,27.979-4.527,37.494-1.7,6.453,1.916,10.5,8.194,12.087,18.69-7.272-4.244-17.747-5.85-30.263-4.535-14.9,1.565-31.165,7.114-45.966,15.666-5.034-2.358-9.84-4.846-14.485-7.3A115.273,115.273,0,0,1,113.259,72.373Zm-117.024,88.3C-6.226,147.22-6.739,135.093-5.29,124.62c1.771-12.8,6.507-23.132,14.076-30.7,17.754-17.754,33.349-9.47,56.954,3.068,19.349,10.278,43.429,23.069,75.641,23.069,9.062,0,15.681,2.615,19.672,7.771,5.841,7.547,6.654,21.1,2.395,39.313a10.224,10.224,0,0,0-1.581-.124H123.423A10.819,10.819,0,0,0,113,175.8H102.423a9.143,9.143,0,0,0-9.133,9.133V201.3H77.064V165.572a9.528,9.528,0,0,0-9.518-9.518H40.9a9.529,9.529,0,0,0-9.518,9.518V201.3H8.391A207.894,207.894,0,0,1-3.765,160.668Zm74.484,4.9V201.3h-33V165.572A3.176,3.176,0,0,1,40.9,162.4h26.65A3.177,3.177,0,0,1,70.719,165.572Zm107.748,45.266H-25.452V207.65H178.467v3.188Z" transform="translate(32.993 -62.594)"/>
      </g>
      <g id="skyscraper-1" transform="translate(2212.876 -879.606)">
        <g id="Group_125" data-name="Group 125" transform="translate(7.999 3.173)">
          <path id="Path_468" data-name="Path 468" class="cls-17" d="M53.1,24a33.11,33.11,0,0,1,22.348,8.636A26.634,26.634,0,0,1,112.091,54.2c.114,1,.338,3.036-2.533,3.036h-87c-1.726,0-2.635-2.2-2.529-3.285A33.239,33.239,0,0,1,53.1,24Z" transform="translate(-20.016 -23.997)"/>
          <path id="Path_469" data-name="Path 469" class="cls-17" d="M326.079,126.16a33.11,33.11,0,0,0-22.348,8.636,26.634,26.634,0,0,0-36.642,21.564c-.114,1-.338,3.036,2.533,3.036h87c1.726,0,2.635-2.2,2.529-3.285A33.239,33.239,0,0,0,326.079,126.16Z" transform="translate(-168.312 -85.331)"/>
        </g>
        <path id="Path_470" data-name="Path 470" class="cls-18" d="M237.928,50.108c2.327,0,2.744-1.191.929-2.645L211.406,25.468a5.541,5.541,0,0,0-6.6,0L177.353,47.463c-1.816,1.454-1.4,2.645.929,2.645Z" transform="translate(-105.796 -21.053)"/>
        <path id="Path_471" data-name="Path 471" class="cls-5" d="M238.859,72.453,230.809,66H185.4l-8.05,6.45c-1.816,1.454-1.4,2.645.929,2.645h59.646C240.256,75.1,240.674,73.907,238.859,72.453Z" transform="translate(-105.797 -46.043)"/>
        <rect id="Rectangle_93" data-name="Rectangle 93" class="cls-3" width="77.641" height="140.074" transform="translate(63.491 43.736)"/>
        <rect id="Rectangle_94" data-name="Rectangle 94" class="cls-18" width="22.974" height="24.218" transform="translate(90.822 159.626)"/>
        <g id="Group_126" data-name="Group 126" transform="translate(63.491 84.904)">
          <rect id="Rectangle_95" data-name="Rectangle 95" class="cls-4" width="77.641" height="18.98" transform="translate(0 45.225)"/>
          <rect id="Rectangle_96" data-name="Rectangle 96" class="cls-4" width="77.641" height="18.98"/>
        </g>
        <path id="Path_472" data-name="Path 472" class="cls-9" d="M206.213,471.975a1.713,1.713,0,0,1-1.708,1.708H9.647a1.713,1.713,0,0,1-1.708-1.708v-6.115a1.714,1.714,0,0,1,1.708-1.709H204.505a1.713,1.713,0,0,1,1.708,1.709v6.115Z" transform="translate(-4.766 -285.071)"/>
        <rect id="Rectangle_97" data-name="Rectangle 97" class="cls-11" width="102.641" height="9.534" transform="translate(50.991 179.08)"/>
        <rect id="Rectangle_98" data-name="Rectangle 98" class="cls-5" width="6.345" height="135.345" transform="translate(77.141 43.736)"/>
        <rect id="Rectangle_99" data-name="Rectangle 99" class="cls-5" width="6.345" height="135.345" transform="translate(121.135 43.736)"/>
        <path id="Path_473" data-name="Path 473" class="cls-18" d="M236.5,95.865V80.374a4.243,4.243,0,0,0-4.23-4.23H163.091a4.243,4.243,0,0,0-4.23,4.23V95.865Z" transform="translate(-95.372 -52.131)"/>
        <path id="Path_474" data-name="Path 474" class="cls-5" d="M196.193,98.548a3.172,3.172,0,0,1-3.173-3.173v-4.8a3.173,3.173,0,1,1,6.346,0v4.8A3.173,3.173,0,0,1,196.193,98.548Z" transform="translate(-115.88 -58.892)"/>
        <path id="Path_475" data-name="Path 475" class="cls-5" d="M251.233,98.548a3.172,3.172,0,0,1-3.173-3.173v-4.8a3.173,3.173,0,1,1,6.346,0v4.8A3.172,3.172,0,0,1,251.233,98.548Z" transform="translate(-148.923 -58.892)"/>
        <path id="Path_476" data-name="Path 476" class="cls-5" d="M306.274,98.548a3.172,3.172,0,0,1-3.173-3.173v-4.8a3.173,3.173,0,1,1,6.346,0v4.8A3.172,3.172,0,0,1,306.274,98.548Z" transform="translate(-181.967 -58.892)"/>
        <path id="Path_477" data-name="Path 477" class="cls-6" d="M151.538,374.012c0-8.053-6.529-35.715-14.582-35.715s-14.581,27.662-14.581,35.715a14.582,14.582,0,0,0,29.163,0Z" transform="translate(-73.468 -209.515)"/>
        <g id="Group_127" data-name="Group 127" transform="translate(11.09 128.782)">
          <path id="Path_478" data-name="Path 478" class="cls-16" d="M56.912,374.012c0-8.053-6.529-35.715-14.582-35.715s-14.581,27.662-14.581,35.715a14.582,14.582,0,0,0,29.163,0Z" transform="translate(-27.749 -338.297)"/>
          <path id="Path_479" data-name="Path 479" class="cls-16" d="M411.279,374.012c0-8.053,6.529-35.715,14.582-35.715s14.581,27.662,14.581,35.715a14.582,14.582,0,0,1-29.163,0Z" transform="translate(-258.002 -338.297)"/>
        </g>
        <path id="Path_480" data-name="Path 480" class="cls-6" d="M316.653,374.012c0-8.053,6.529-35.715,14.582-35.715s14.581,27.662,14.581,35.715a14.582,14.582,0,0,1-29.163,0Z" transform="translate(-190.103 -209.515)"/>
        <rect id="Rectangle_100" data-name="Rectangle 100" class="cls-5" width="6.345" height="19.451" transform="translate(99.138 159.626)"/>
        <rect id="Rectangle_101" data-name="Rectangle 101" class="cls-8" width="6.345" height="18.98" transform="translate(99.138 84.904)"/>
        <rect id="Rectangle_102" data-name="Rectangle 102" class="cls-8" width="6.345" height="18.98" transform="translate(99.138 130.129)"/>
        <path id="Path_481" data-name="Path 481" class="cls-12" d="M199.739,191.964h-7.2a17.672,17.672,0,0,0,4.165-11.408c0-4.154-1.554-13.234-4.433-21.88-3.812-11.445-8.169-17.008-13.32-17.008s-9.508,5.563-13.321,17.008c-2.88,8.646-4.433,17.725-4.433,21.88a17.67,17.67,0,0,0,4.165,11.408H154.722a17.67,17.67,0,0,0,4.165-11.408c0-4.154-1.554-13.234-4.433-21.88-3-9.017-6.346-14.381-10.148-16.251V96.468h52.009a5.3,5.3,0,0,0,3.947-1.807A6.877,6.877,0,0,0,202,89.7a36.4,36.4,0,0,0-57.7-25.809V44.3a7.411,7.411,0,0,0-7.4-7.4h-5.718L107.6,18a8.733,8.733,0,0,0-10.57,0l-9.878,7.915a29.853,29.853,0,0,0-23.07-1.678A36.413,36.413,0,0,0,4.851,48.871,6.881,6.881,0,0,0,6.59,53.832a5.3,5.3,0,0,0,3.947,1.807H60.316v86.786c-3.8,1.871-7.145,7.234-10.148,16.251-2.88,8.646-4.434,17.726-4.434,21.88A17.67,17.67,0,0,0,49.9,191.965H39.261a17.67,17.67,0,0,0,4.165-11.408c0-4.154-1.554-13.234-4.434-21.88-3.812-11.445-8.17-17.008-13.321-17.008s-9.508,5.563-13.32,17.008c-2.88,8.646-4.433,17.726-4.433,21.88a17.672,17.672,0,0,0,4.165,11.408h-7.2A4.886,4.886,0,0,0,0,196.846v6.115a4.887,4.887,0,0,0,4.881,4.881H199.739a4.887,4.887,0,0,0,4.881-4.881v-6.115A4.888,4.888,0,0,0,199.739,191.964ZM144.3,71.737a3.162,3.162,0,0,0,1.249-.694,30.066,30.066,0,0,1,50.112,19.079H144.3ZM18.372,160.681c3.444-10.34,6.5-12.668,7.3-12.668s3.856,2.328,7.3,12.668c2.538,7.618,4.108,16.248,4.108,19.875a11.409,11.409,0,0,1-22.818,0C14.263,176.929,15.834,168.3,18.372,160.681ZM47.817,201.5H6.345v-3.188H47.817ZM136.9,43.244a1.072,1.072,0,0,1,1.057,1.057V56.62h-71.3V44.3a1.072,1.072,0,0,1,1.057-1.057H136.9Zm-9.359,148.72H116.968V175.686a3.172,3.172,0,0,0-3.173-3.173H90.821a3.172,3.172,0,0,0-3.173,3.173v16.278H77.077a17.67,17.67,0,0,0,4.165-11.408c0-4.154-1.554-13.234-4.433-21.88-3-9.016-6.346-14.38-10.148-16.251V62.965h71.3v79.46c-3.8,1.871-7.145,7.234-10.148,16.251-2.88,8.646-4.433,17.725-4.433,21.88A17.671,17.671,0,0,0,127.542,191.964Zm-16.92-13.106v13.106H93.994V178.858ZM100.992,22.95a2.411,2.411,0,0,1,2.635,0L121.036,36.9H83.583ZM11.186,49.293A30.065,30.065,0,0,1,61.3,30.214a3.174,3.174,0,0,0,3.349.583,23.514,23.514,0,0,1,16.908-.4L73.436,36.9H67.719a7.411,7.411,0,0,0-7.4,7.4v4.992H11.186Zm45,111.388c3.444-10.34,6.5-12.668,7.3-12.668s3.856,2.328,7.3,12.668c2.538,7.618,4.108,16.248,4.108,19.875a11.409,11.409,0,0,1-22.818,0C52.08,176.929,53.65,168.3,56.188,160.681Zm94.27,40.817h-96.3v-3.188h96.3Zm-9.326-9.534a11.421,11.421,0,0,1-11.409-11.408c0-3.626,1.571-12.256,4.108-19.875,3.445-10.34,6.5-12.668,7.3-12.668s3.856,2.328,7.3,12.668c2.538,7.618,4.108,16.248,4.108,19.875A11.421,11.421,0,0,1,141.132,191.964Zm30.516-31.283c3.445-10.34,6.5-12.668,7.3-12.668s3.856,2.328,7.3,12.668c2.538,7.618,4.108,16.248,4.108,19.875a11.409,11.409,0,0,1-22.818,0C167.539,176.929,169.11,168.3,171.648,160.681ZM198.275,201.5H156.8v-3.188h41.472V201.5Z" transform="translate(0 -16.058)"/>
      </g>
      <g id="building" transform="translate(2592.542 -886)">
        <path id="Path_482" data-name="Path 482" class="cls-11" d="M187.3,32.235V20.361a4.253,4.253,0,0,0-4.241-4.241H155.329a4.253,4.253,0,0,0-4.241,4.241V32.235H187.3Z" transform="translate(-90.706 -12.947)"/>
        <rect id="Rectangle_103" data-name="Rectangle 103" class="cls-5" width="36.215" height="6.926" transform="translate(60.382 12.362)"/>
        <rect id="Rectangle_104" data-name="Rectangle 104" class="cls-13" width="95.843" height="159.871" transform="translate(51.219 29.734)"/>
        <rect id="Rectangle_105" data-name="Rectangle 105" class="cls-19" width="95.843" height="10.912" transform="translate(51.219 29.734)"/>
        <path id="Path_483" data-name="Path 483" class="cls-9" d="M220.709,52.428a2.977,2.977,0,0,0-2.969-2.968H114.717a2.977,2.977,0,0,0-2.969,2.968v11.45a2.978,2.978,0,0,0,2.969,2.969H217.741a2.978,2.978,0,0,0,2.969-2.969V52.428Z" transform="translate(-67.088 -32.963)"/>
        <rect id="Rectangle_106" data-name="Rectangle 106" class="cls-5" width="18.329" height="8.821" transform="translate(128.733 94.371)"/>
        <rect id="Rectangle_107" data-name="Rectangle 107" class="cls-5" width="18.329" height="8.821" transform="translate(51.219 65.437)"/>
        <rect id="Rectangle_108" data-name="Rectangle 108" class="cls-5" width="18.329" height="8.821" transform="translate(118.39 145.853)"/>
        <rect id="Rectangle_109" data-name="Rectangle 109" class="cls-5" width="18.329" height="8.821" transform="translate(60.382 121.33)"/>
        <rect id="Rectangle_110" data-name="Rectangle 110" class="cls-5" width="18.329" height="8.821" transform="translate(51.219 167.985)"/>
        <rect id="Rectangle_111" data-name="Rectangle 111" class="cls-5" width="18.329" height="8.82" transform="translate(99.143 75.543)"/>
        <rect id="Rectangle_112" data-name="Rectangle 112" class="cls-5" width="18.329" height="8.821" transform="translate(121.195 43.169)"/>
        <path id="Path_484" data-name="Path 484" class="cls-5" d="M186.484,429.521a2.126,2.126,0,0,1-2.121,2.121H163.08a2.126,2.126,0,0,1-2.12-2.121V425.14a2.127,2.127,0,0,1,2.12-2.121h21.283a2.127,2.127,0,0,1,2.121,2.121v4.382Z" transform="translate(-96.633 -257.23)"/>
        <path id="Path_485" data-name="Path 485" class="cls-1" d="M188.42,382.056V361.172a2.126,2.126,0,0,0-2.12-2.12H172.729a2.126,2.126,0,0,0-2.12,2.12v20.884Z" transform="translate(-102.425 -218.827)"/>
        <path id="Path_486" data-name="Path 486" class="cls-5" d="M186.3,359.053H172.729a2.126,2.126,0,0,0-2.12,2.12v3.372a2.127,2.127,0,0,1,2.12-2.121H186.3a2.127,2.127,0,0,1,2.12,2.121v-3.372A2.126,2.126,0,0,0,186.3,359.053Z" transform="translate(-102.425 -218.827)"/>
        <path id="Path_487" data-name="Path 487" class="cls-9" d="M186.484,423.115a2.126,2.126,0,0,1-2.121,2.121H163.08a2.126,2.126,0,0,1-2.12-2.121v-4.382a2.126,2.126,0,0,1,2.12-2.12h21.283a2.126,2.126,0,0,1,2.121,2.12v4.382Z" transform="translate(-96.633 -253.384)"/>
        <path id="Path_488" data-name="Path 488" class="cls-5" d="M271.312,429.521a2.127,2.127,0,0,0,2.12,2.121h21.283a2.126,2.126,0,0,0,2.121-2.121V425.14a2.127,2.127,0,0,0-2.121-2.121H273.432a2.127,2.127,0,0,0-2.12,2.121Z" transform="translate(-162.883 -257.23)"/>
        <path id="Path_489" data-name="Path 489" class="cls-1" d="M280.963,382.056V361.172a2.126,2.126,0,0,1,2.119-2.12h13.571a2.127,2.127,0,0,1,2.121,2.12v20.884Z" transform="translate(-168.677 -218.827)"/>
        <path id="Path_490" data-name="Path 490" class="cls-5" d="M283.081,359.053h13.571a2.127,2.127,0,0,1,2.121,2.12v3.372a2.127,2.127,0,0,0-2.121-2.121H283.081a2.126,2.126,0,0,0-2.119,2.121v-3.372A2.126,2.126,0,0,1,283.081,359.053Z" transform="translate(-168.676 -218.827)"/>
        <path id="Path_491" data-name="Path 491" class="cls-9" d="M271.312,423.115a2.127,2.127,0,0,0,2.12,2.121h21.283a2.126,2.126,0,0,0,2.121-2.121v-4.382a2.126,2.126,0,0,0-2.121-2.12H273.432a2.126,2.126,0,0,0-2.12,2.12Z" transform="translate(-162.883 -253.384)"/>
        <path id="Path_492" data-name="Path 492" class="cls-5" d="M186.484,312.261a2.127,2.127,0,0,1-2.121,2.121H163.08a2.127,2.127,0,0,1-2.12-2.121v-4.382a2.127,2.127,0,0,1,2.12-2.121h21.283a2.127,2.127,0,0,1,2.121,2.121v4.382Z" transform="translate(-96.633 -186.832)"/>
        <path id="Path_493" data-name="Path 493" class="cls-1" d="M188.42,264.8V243.913a2.126,2.126,0,0,0-2.12-2.12H172.729a2.126,2.126,0,0,0-2.12,2.12V264.8Z" transform="translate(-102.425 -148.43)"/>
        <path id="Path_494" data-name="Path 494" class="cls-5" d="M186.3,241.793H172.729a2.126,2.126,0,0,0-2.12,2.12v3.372a2.127,2.127,0,0,1,2.12-2.121H186.3a2.127,2.127,0,0,1,2.12,2.121v-3.372A2.126,2.126,0,0,0,186.3,241.793Z" transform="translate(-102.425 -148.43)"/>
        <path id="Path_495" data-name="Path 495" class="cls-9" d="M186.484,305.854a2.127,2.127,0,0,1-2.121,2.121H163.08a2.126,2.126,0,0,1-2.12-2.121v-4.382a2.126,2.126,0,0,1,2.12-2.12h21.283a2.126,2.126,0,0,1,2.121,2.12v4.382Z" transform="translate(-96.633 -182.986)"/>
        <path id="Path_496" data-name="Path 496" class="cls-5" d="M271.312,312.261a2.127,2.127,0,0,0,2.12,2.121h21.283a2.127,2.127,0,0,0,2.121-2.121v-4.382a2.127,2.127,0,0,0-2.121-2.121H273.432a2.127,2.127,0,0,0-2.12,2.121Z" transform="translate(-162.883 -186.832)"/>
        <path id="Path_497" data-name="Path 497" class="cls-1" d="M280.963,264.8V243.913a2.126,2.126,0,0,1,2.119-2.12h13.571a2.127,2.127,0,0,1,2.121,2.12V264.8Z" transform="translate(-168.677 -148.43)"/>
        <path id="Path_498" data-name="Path 498" class="cls-5" d="M283.081,241.793h13.571a2.127,2.127,0,0,1,2.121,2.12v3.372a2.127,2.127,0,0,0-2.121-2.121H283.081a2.126,2.126,0,0,0-2.119,2.121v-3.372A2.126,2.126,0,0,1,283.081,241.793Z" transform="translate(-168.676 -148.43)"/>
        <path id="Path_499" data-name="Path 499" class="cls-9" d="M271.312,305.854a2.127,2.127,0,0,0,2.12,2.121h21.283a2.126,2.126,0,0,0,2.121-2.121v-4.382a2.126,2.126,0,0,0-2.121-2.12H273.432a2.126,2.126,0,0,0-2.12,2.12Z" transform="translate(-162.883 -182.986)"/>
        <path id="Path_500" data-name="Path 500" class="cls-5" d="M186.484,195a2.127,2.127,0,0,1-2.121,2.121H163.08A2.126,2.126,0,0,1,160.96,195v-4.382a2.127,2.127,0,0,1,2.12-2.121h21.283a2.127,2.127,0,0,1,2.121,2.121V195Z" transform="translate(-96.633 -116.435)"/>
        <path id="Path_501" data-name="Path 501" class="cls-1" d="M188.42,147.537V126.653a2.126,2.126,0,0,0-2.12-2.12H172.729a2.126,2.126,0,0,0-2.12,2.12v20.884Z" transform="translate(-102.425 -78.033)"/>
        <path id="Path_502" data-name="Path 502" class="cls-5" d="M186.3,124.533H172.729a2.126,2.126,0,0,0-2.12,2.12v3.372a2.127,2.127,0,0,1,2.12-2.121H186.3a2.127,2.127,0,0,1,2.12,2.121v-3.372A2.126,2.126,0,0,0,186.3,124.533Z" transform="translate(-102.425 -78.033)"/>
        <path id="Path_503" data-name="Path 503" class="cls-9" d="M186.484,188.594a2.127,2.127,0,0,1-2.121,2.121H163.08a2.126,2.126,0,0,1-2.12-2.121v-4.382a2.127,2.127,0,0,1,2.12-2.121h21.283a2.127,2.127,0,0,1,2.121,2.121v4.382Z" transform="translate(-96.633 -112.588)"/>
        <path id="Path_504" data-name="Path 504" class="cls-5" d="M271.312,195a2.127,2.127,0,0,0,2.12,2.121h21.283A2.126,2.126,0,0,0,296.836,195v-4.382a2.127,2.127,0,0,0-2.121-2.121H273.432a2.127,2.127,0,0,0-2.12,2.121Z" transform="translate(-162.883 -116.435)"/>
        <path id="Path_505" data-name="Path 505" class="cls-1" d="M280.963,147.537V126.653a2.126,2.126,0,0,1,2.119-2.12h13.571a2.127,2.127,0,0,1,2.121,2.12v20.884Z" transform="translate(-168.677 -78.033)"/>
        <path id="Path_506" data-name="Path 506" class="cls-5" d="M283.081,124.533h13.571a2.127,2.127,0,0,1,2.121,2.12v3.372a2.127,2.127,0,0,0-2.121-2.121H283.081a2.126,2.126,0,0,0-2.119,2.121v-3.372A2.126,2.126,0,0,1,283.081,124.533Z" transform="translate(-168.676 -78.033)"/>
        <path id="Path_507" data-name="Path 507" class="cls-9" d="M271.312,188.594a2.127,2.127,0,0,0,2.12,2.121h21.283a2.126,2.126,0,0,0,2.121-2.121v-4.382a2.127,2.127,0,0,0-2.121-2.121H273.432a2.127,2.127,0,0,0-2.12,2.121Z" transform="translate(-162.883 -112.588)"/>
        <path id="Path_508" data-name="Path 508" class="cls-11" d="M206.213,479.849a1.713,1.713,0,0,1-1.708,1.709H9.647a1.713,1.713,0,0,1-1.708-1.709v-6.115a1.713,1.713,0,0,1,1.708-1.709H204.505a1.713,1.713,0,0,1,1.708,1.709v6.115Z" transform="translate(-4.766 -286.65)"/>
        <rect id="Rectangle_113" data-name="Rectangle 113" class="cls-9" width="136.969" height="9.534" transform="translate(33.825 185.375)"/>
        <path id="Path_509" data-name="Path 509" class="cls-12" d="M66.448,89.48H87.731a5.3,5.3,0,0,0,5.293-5.293V79.8a5.3,5.3,0,0,0-3.856-5.09V56.8a5.3,5.3,0,0,0-5.293-5.293H70.3A5.3,5.3,0,0,0,65.011,56.8V74.715a5.3,5.3,0,0,0-3.856,5.09v4.382A5.3,5.3,0,0,0,66.448,89.48Zm4.909-31.627H82.822V74.512H71.356Zm-3.856,23H86.679v2.278H67.5V80.857ZM199.739,190.383H163.133V72.63a16.1,16.1,0,0,0-12.9-15.754V45.238h.417a6.149,6.149,0,0,0,6.141-6.141V27.646a6.148,6.148,0,0,0-6.141-6.141H99.769V15.594a7.422,7.422,0,0,0-7.413-7.413H64.623a7.422,7.422,0,0,0-7.414,7.413V21.5h-9.58a6.149,6.149,0,0,0-6.142,6.141V39.1a6.149,6.149,0,0,0,6.142,6.141h.417V190.383H4.881A4.887,4.887,0,0,0,0,195.265v6.115a4.887,4.887,0,0,0,4.881,4.882H199.739a4.887,4.887,0,0,0,4.881-4.882v-6.115A4.888,4.888,0,0,0,199.739,190.383ZM156.788,72.63V86.2h-6.552V63.44A9.74,9.74,0,0,1,156.788,72.63Zm-6.552,78.232V124.879h6.552v25.984Zm6.552,6.345v33.175h-6.552V157.208Zm-6.552-38.674V92.549h6.552v25.984ZM63.555,15.594a1.083,1.083,0,0,1,1.069-1.068H92.356a1.083,1.083,0,0,1,1.068,1.068V21.5H63.555v-5.91Zm-15.722,23.3V27.85H150.448V38.892Zm96.058,6.345V190.383h-89.5V45.238ZM30.652,199.916H6.345v-3.188H30.652Zm136.97,0H37v-3.188H167.622v3.188Zm30.653,0H173.967v-3.188h24.307ZM110.55,183.206h21.283a5.3,5.3,0,0,0,5.293-5.293V173.53a5.3,5.3,0,0,0-3.856-5.09V150.526a5.3,5.3,0,0,0-5.293-5.293H114.407a5.3,5.3,0,0,0-5.293,5.293v17.915a5.3,5.3,0,0,0-3.856,5.09v4.382A5.3,5.3,0,0,0,110.55,183.206Zm4.908-31.627h11.466v16.659H115.459Zm-3.856,23h19.178v2.278H111.6Zm-45.155,8.623H87.731a5.3,5.3,0,0,0,5.293-5.293V173.53a5.3,5.3,0,0,0-3.856-5.09V150.526a5.3,5.3,0,0,0-5.293-5.293H70.3a5.3,5.3,0,0,0-5.293,5.293v17.915a5.3,5.3,0,0,0-3.856,5.09v4.382A5.3,5.3,0,0,0,66.448,183.206Zm4.909-31.627H82.822v16.659H71.356Zm-3.856,23H86.679v2.278H67.5v-2.278Zm-1.053-38.24H87.731a5.3,5.3,0,0,0,5.293-5.293v-4.382a5.3,5.3,0,0,0-3.856-5.09V103.663a5.3,5.3,0,0,0-5.293-5.293H70.3a5.3,5.3,0,0,0-5.293,5.293v17.915a5.3,5.3,0,0,0-3.856,5.09v4.382A5.3,5.3,0,0,0,66.448,136.343Zm4.909-31.627H82.822v16.659H71.356Zm-3.856,23H86.679V130H67.5V127.72Zm43.05-38.24h21.283a5.3,5.3,0,0,0,5.293-5.293V79.8a5.3,5.3,0,0,0-3.856-5.09V56.8a5.3,5.3,0,0,0-5.293-5.293H114.407a5.3,5.3,0,0,0-5.293,5.293V74.715a5.3,5.3,0,0,0-3.856,5.09v4.382A5.3,5.3,0,0,0,110.55,89.48Zm4.908-31.627h11.466V74.512H115.459Zm-3.856,23h19.178v2.278H111.6Zm-1.052,55.486h21.283a5.3,5.3,0,0,0,5.293-5.293v-4.382a5.3,5.3,0,0,0-3.856-5.09V103.663a5.3,5.3,0,0,0-5.293-5.293H114.407a5.3,5.3,0,0,0-5.293,5.293v17.915a5.3,5.3,0,0,0-3.856,5.09v4.382A5.3,5.3,0,0,0,110.55,136.343Zm4.908-31.627h11.466v16.659H115.459Zm-3.856,23h19.178V130H111.6Z" transform="translate(0 -8.181)"/>
      </g>
      <g id="school" transform="translate(2411.501 -863.22)">
        <path id="Path_510" data-name="Path 510" class="cls-13" d="M195.575,171.476a8.131,8.131,0,0,0-6.284-3.572H35.974a8.132,8.132,0,0,0-6.285,3.572L17.7,191.6c-1.17,1.965-.257,3.572,2.03,3.572h185.8c2.286,0,3.2-1.607,2.031-3.572Z" transform="translate(-10.322 -115.459)"/>
        <path id="Path_511" data-name="Path 511" class="cls-8" d="M31.141,196.39h75.035v-6.345H34.92Zm175.95-6.345H134.982v6.345H210.87Z" transform="translate(-18.696 -128.751)"/>
        <path id="Path_512" data-name="Path 512" class="cls-7" d="M135.148,181.513l-21.6-34.674-21.6,34.674H19.425v83.9H207.662v-83.9Z" transform="translate(-11.662 -102.813)"/>
        <path id="Path_513" data-name="Path 513" class="cls-8" d="M141.9,189.082a5.751,5.751,0,0,1-4.368-2.418l-1.31-2.089h-1.079l-20.132-32.312a3.493,3.493,0,0,0-2.943,0L91.94,184.574H90.863l-1.31,2.089a5.752,5.752,0,0,1-4.369,2.418H19.425v11.149h69.3a5.5,5.5,0,0,0,4.287-2.467l16.923-25.912c1.983-3.384,5.231-3.384,7.214,0l16.923,25.912a5.5,5.5,0,0,0,4.287,2.467h69.3V189.082Z" transform="translate(-11.662 -105.873)"/>
        <g id="Group_129" data-name="Group 129" transform="translate(7.763 86.592)">
          <rect id="Rectangle_114" data-name="Rectangle 114" class="cls-11" width="18.283" height="8.798" transform="translate(169.955 9.763)"/>
          <rect id="Rectangle_115" data-name="Rectangle 115" class="cls-11" width="18.283" height="8.797" transform="translate(115.115 27.978)"/>
          <rect id="Rectangle_116" data-name="Rectangle 116" class="cls-11" width="18.283" height="8.797" transform="translate(148.224 59.21)"/>
          <rect id="Rectangle_117" data-name="Rectangle 117" class="cls-11" width="18.283" height="8.798" transform="translate(53.329 61.545)"/>
          <rect id="Rectangle_118" data-name="Rectangle 118" class="cls-11" width="18.283" height="8.798" transform="translate(0 18.211)"/>
          <rect id="Rectangle_119" data-name="Rectangle 119" class="cls-11" width="18.283" height="8.797" transform="translate(44.188)"/>
        </g>
        <rect id="Rectangle_120" data-name="Rectangle 120" class="cls-9" width="31.405" height="43.198" transform="translate(86.181 119.401)"/>
        <rect id="Rectangle_121" data-name="Rectangle 121" class="cls-8" width="31.405" height="5.46" transform="translate(86.181 119.401)"/>
        <g id="Group_130" data-name="Group 130" transform="translate(53.347 112.117)">
          <rect id="Rectangle_122" data-name="Rectangle 122" class="cls-1" width="6.345" height="11.954" transform="translate(38.825 17.28)"/>
          <rect id="Rectangle_123" data-name="Rectangle 123" class="cls-1" width="6.345" height="11.954" transform="translate(51.9 17.28)"/>
          <rect id="Rectangle_124" data-name="Rectangle 124" class="cls-1" width="18.457" height="25.394"/>
        </g>
        <rect id="Rectangle_125" data-name="Rectangle 125" class="cls-5" width="18.457" height="5.6" transform="translate(53.347 112.117)"/>
        <rect id="Rectangle_126" data-name="Rectangle 126" class="cls-1" width="18.457" height="25.394" transform="translate(17.53 112.117)"/>
        <rect id="Rectangle_127" data-name="Rectangle 127" class="cls-5" width="18.457" height="5.6" transform="translate(17.53 112.117)"/>
        <rect id="Rectangle_128" data-name="Rectangle 128" class="cls-1" width="18.457" height="25.394" transform="translate(131.96 112.117)"/>
        <rect id="Rectangle_129" data-name="Rectangle 129" class="cls-5" width="18.457" height="5.6" transform="translate(131.96 112.117)"/>
        <rect id="Rectangle_130" data-name="Rectangle 130" class="cls-1" width="18.457" height="25.394" transform="translate(167.777 112.117)"/>
        <rect id="Rectangle_131" data-name="Rectangle 131" class="cls-5" width="18.457" height="5.6" transform="translate(167.777 112.117)"/>
        <rect id="Rectangle_132" data-name="Rectangle 132" class="cls-2" width="36.646" height="21.003" transform="translate(101.884 6.087)"/>
        <rect id="Rectangle_133" data-name="Rectangle 133" class="cls-8" width="9.594" height="21.003" transform="translate(101.884 6.087)"/>
        <path id="Path_514" data-name="Path 514" class="cls-2" d="M110.438,135c-2.083-3.324-5.493-3.324-7.576,0l-20.2,32.238a5.753,5.753,0,0,1-4.369,2.418h-67.5a2.861,2.861,0,0,0-2.853,2.853v5.442a2.862,2.862,0,0,0,2.853,2.853h71.04a5.5,5.5,0,0,0,4.287-2.467l16.923-25.912c1.983-3.385,5.231-3.385,7.214,0l16.923,25.912a5.5,5.5,0,0,0,4.287,2.467h71.038a2.862,2.862,0,0,0,2.854-2.853v-5.442a2.862,2.862,0,0,0-2.854-2.853h-67.5a5.75,5.75,0,0,1-4.368-2.418Z" transform="translate(-4.766 -94.208)"/>
        <circle id="Ellipse_22" data-name="Ellipse 22" class="cls-1" cx="14.404" cy="14.404" r="14.404" transform="translate(87.48 81.951)"/>
        <path id="Path_515" data-name="Path 515" class="cls-6" d="M206.213,451.355a1.713,1.713,0,0,1-1.708,1.709H9.648a1.714,1.714,0,0,1-1.709-1.709V445.24a1.714,1.714,0,0,1,1.709-1.709H204.5a1.713,1.713,0,0,1,1.708,1.709Z" transform="translate(-4.766 -280.932)"/>
        <rect id="Rectangle_134" data-name="Rectangle 134" class="cls-11" width="51.181" height="9.534" transform="translate(76.719 162.599)"/>
        <g id="Group_131" data-name="Group 131" transform="translate(21.526 148.138)">
          <path id="Path_516" data-name="Path 516" class="cls-16" d="M435.647,421.807a14.461,14.461,0,1,0-28.922,0Z" transform="translate(-265.704 -407.346)"/>
          <path id="Path_517" data-name="Path 517" class="cls-16" d="M82.785,421.807a14.461,14.461,0,0,0-28.922,0Z" transform="translate(-53.863 -407.346)"/>
        </g>
        <path id="Path_518" data-name="Path 518" class="cls-12" d="M150.418,145.622H131.961a3.173,3.173,0,0,0-3.173,3.173V174.19a3.173,3.173,0,0,0,3.173,3.173h18.457a3.173,3.173,0,0,0,3.173-3.173V148.795A3.173,3.173,0,0,0,150.418,145.622Zm-3.173,25.395H135.133v-6.352h12.112Zm0-12.7H135.133v-6.352h12.112Zm42.164-9.525a3.173,3.173,0,0,0-3.173-3.173H167.779a3.173,3.173,0,0,0-3.173,3.173v25.395a3.173,3.173,0,0,0,3.173,3.173h18.457a3.173,3.173,0,0,0,3.173-3.173Zm-6.345,22.222H170.952v-6.352h12.112Zm0-12.7H170.952v-6.352h12.112Zm-147.077-12.7H17.529a3.173,3.173,0,0,0-3.173,3.173V174.19a3.173,3.173,0,0,0,3.173,3.173H35.987a3.173,3.173,0,0,0,3.173-3.173V148.795A3.172,3.172,0,0,0,35.987,145.622Zm-3.172,25.395H20.7v-6.352H32.814v6.352Zm0-12.7H20.7v-6.352H32.814v6.352ZM199.739,196.1h-.563V126.264a6.03,6.03,0,0,0,4.589-5.845v-5.442a6.031,6.031,0,0,0-5.091-5.946l-10.7-17.961a11.292,11.292,0,0,0-9.01-5.121H114.73l-6.371-10.166a8.832,8.832,0,0,0-3.3-3.179V66.941h33.475a3.173,3.173,0,0,0,3.173-3.173v-21a3.173,3.173,0,0,0-3.173-3.173H105.042a3.171,3.171,0,0,0-6.332.257V72.6a8.845,8.845,0,0,0-3.3,3.179L89.035,85.948H25.651a11.291,11.291,0,0,0-9.011,5.121L5.992,108.952A6.032,6.032,0,0,0,0,114.976v5.442a6.031,6.031,0,0,0,4.591,5.846v69.853A4.884,4.884,0,0,0,0,200.983V207.1a4.887,4.887,0,0,0,4.882,4.882H199.739a4.887,4.887,0,0,0,4.881-4.882v-6.115A4.887,4.887,0,0,0,199.739,196.1ZM105.055,45.937h30.3V60.595h-30.3V45.937Zm73.914,46.356a5.065,5.065,0,0,1,3.558,2.023l8.715,14.634h-61a2.771,2.771,0,0,1-1.68-.93l-9.856-15.727ZM22.093,94.316a5.063,5.063,0,0,1,3.559-2.023H85.06L75.2,108.02a2.777,2.777,0,0,1-1.68.93H13.378ZM6.345,115.3H73.524a8.868,8.868,0,0,0,7.057-3.906l20.2-32.238c.462-.738.911-1.005,1.1-1.005s.637.268,1.1,1.005l20.2,32.237a8.867,8.867,0,0,0,7.057,3.907h67.178v4.8H126.7a2.483,2.483,0,0,1-1.544-.889L108.185,93.217a6.939,6.939,0,0,0-12.6,0L78.7,119.07l-.086.139a2.486,2.486,0,0,1-1.545.889H6.345Zm170.663,66.346A17.659,17.659,0,0,0,159.666,196.1h-38.91V152.9H83.008v43.2H53.329a17.629,17.629,0,0,0-34.684,0H10.936V126.444h66.13a8.63,8.63,0,0,0,6.981-3.961l16.886-25.855.081-.131a2.467,2.467,0,0,1,.849-.972c.1.022.466.247.891.972l16.966,25.985a8.63,8.63,0,0,0,6.981,3.962h66.13V191.5A17.653,17.653,0,0,0,177.008,181.641ZM187.839,196.1H166.177a11.285,11.285,0,0,1,21.662,0ZM114.411,159.25V196.1H89.353V159.25ZM46.818,196.1H25.156a11.286,11.286,0,0,1,21.663,0Zm26.728,9.533H6.345v-3.188h67.2Zm51.181,0H79.892v-3.188h44.836Zm73.547,0h-67.2v-3.188h67.2v3.188Zm-96.392-90.179a17.575,17.575,0,1,0,17.575,17.575A17.595,17.595,0,0,0,101.883,115.456Zm0,28.805a11.23,11.23,0,1,1,11.23-11.23A11.243,11.243,0,0,1,101.883,144.261Zm5.517-14.4h-2.344v-2.344a3.173,3.173,0,0,0-6.346,0v5.517a3.173,3.173,0,0,0,3.173,3.173H107.4a3.173,3.173,0,0,0,0-6.346ZM71.806,145.622H53.348a3.173,3.173,0,0,0-3.173,3.173V174.19a3.173,3.173,0,0,0,3.173,3.173H71.806a3.173,3.173,0,0,0,3.173-3.173V148.795A3.172,3.172,0,0,0,71.806,145.622Zm-3.172,25.395H56.521v-6.352H68.633v6.352Zm0-12.7H56.521v-6.352H68.633v6.352Z" transform="translate(0 -36.676)"/>
      </g>
      <g id="factory" transform="translate(2778.379 -885.6)">
        <rect id="Rectangle_135" data-name="Rectangle 135" class="cls-11" width="42.746" height="37.298" transform="translate(135.848 148.802)"/>
        <rect id="Rectangle_136" data-name="Rectangle 136" class="cls-8" width="18.329" height="8.821" transform="translate(139.82 160.883)"/>
        <rect id="Rectangle_137" data-name="Rectangle 137" class="cls-8" width="18.329" height="8.82" transform="translate(160.265 172.626)"/>
        <rect id="Rectangle_138" data-name="Rectangle 138" class="cls-8" width="42.746" height="10.012" transform="translate(135.848 148.802)"/>
        <path id="Path_519" data-name="Path 519" class="cls-3" d="M380.76,369.123a2.121,2.121,0,0,0-2.115-2.115H332.537a2.121,2.121,0,0,0-2.115,2.115v7.024a2.121,2.121,0,0,0,2.115,2.115h46.108a2.121,2.121,0,0,0,2.115-2.115v-7.024Z" transform="translate(-198.369 -223.836)"/>
        <path id="Path_520" data-name="Path 520" class="cls-7" d="M299.633,16.7a16.729,16.729,0,0,0-12.065,5.123,16.779,16.779,0,0,0-25.727,14.2c0,.077,0,.153.006.229a19.953,19.953,0,1,0,22.537,15.538,16.793,16.793,0,0,0,6.3-4.109A16.78,16.78,0,1,0,299.633,16.7Z" transform="translate(-147.039 -13.529)"/>
        <path id="Path_521" data-name="Path 521" class="cls-9" d="M271.422,114.971h-40.3L222.264,258.62h58.019Z" transform="translate(-133.437 -72.525)"/>
        <path id="Path_522" data-name="Path 522" class="cls-3" d="M282.269,169.985h-43.01l-.391,6.345h43.793Zm.795,12.884h-44.6l-.391,6.345h45.383Z" transform="translate(-142.927 -105.553)"/>
        <rect id="Rectangle_139" data-name="Rectangle 139" class="cls-11" width="109.325" height="79.43" transform="translate(17.394 106.665)"/>
        <rect id="Rectangle_140" data-name="Rectangle 140" class="cls-8" width="18.329" height="8.82" transform="translate(108.39 157.08)"/>
        <rect id="Rectangle_141" data-name="Rectangle 141" class="cls-8" width="18.329" height="8.821" transform="translate(17.34 146.378)"/>
        <rect id="Rectangle_142" data-name="Rectangle 142" class="cls-8" width="18.329" height="8.821" transform="translate(79.663 113.217)"/>
        <rect id="Rectangle_143" data-name="Rectangle 143" class="cls-8" width="18.329" height="8.82" transform="translate(40.056 106.665)"/>
        <rect id="Rectangle_144" data-name="Rectangle 144" class="cls-8" width="18.329" height="8.82" transform="translate(33.076 169.703)"/>
        <path id="Path_523" data-name="Path 523" class="cls-8" d="M158.293,334.76a4.243,4.243,0,0,0-4.23-4.23H74.891a4.243,4.243,0,0,0-4.23,4.23v7.768a4.243,4.243,0,0,0,4.23,4.23h79.172a4.243,4.243,0,0,0,4.23-4.23Z" transform="translate(-42.421 -201.936)"/>
        <path id="Path_524" data-name="Path 524" class="cls-1" d="M158.293,318.354a4.243,4.243,0,0,0-4.23-4.23H74.891a4.243,4.243,0,0,0-4.23,4.23v7.768a4.243,4.243,0,0,0,4.23,4.23h79.172a4.243,4.243,0,0,0,4.23-4.23Z" transform="translate(-42.421 -192.087)"/>
        <path id="Path_525" data-name="Path 525" class="cls-8" d="M154.063,314.124H74.891a4.243,4.243,0,0,0-4.23,4.23v5.394a4.243,4.243,0,0,1,4.23-4.23h79.172a4.243,4.243,0,0,1,4.23,4.23v-5.394A4.243,4.243,0,0,0,154.063,314.124Z" transform="translate(-42.421 -192.087)"/>
        <g id="Group_132" data-name="Group 132" transform="translate(17.394 89.485)">
          <path id="Path_526" data-name="Path 526" class="cls-7" d="M43.522,233.337v16.515H61.743L45.191,233.3C44.532,232.64,43.522,232.288,43.522,233.337Z" transform="translate(-43.522 -232.673)"/>
          <path id="Path_527" data-name="Path 527" class="cls-7" d="M89.114,233.337v16.515h18.221L90.783,233.3C90.124,232.64,89.114,232.288,89.114,233.337Z" transform="translate(-70.893 -232.673)"/>
          <path id="Path_528" data-name="Path 528" class="cls-7" d="M134.706,233.337v16.515h18.221L136.375,233.3C135.715,232.64,134.706,232.288,134.706,233.337Z" transform="translate(-98.264 -232.673)"/>
          <path id="Path_529" data-name="Path 529" class="cls-7" d="M180.3,233.337v16.515h18.221L181.966,233.3C181.307,232.64,180.3,232.288,180.3,233.337Z" transform="translate(-125.635 -232.673)"/>
          <path id="Path_530" data-name="Path 530" class="cls-7" d="M225.89,233.337v16.515h18.221L227.559,233.3C226.9,232.64,225.89,232.288,225.89,233.337Z" transform="translate(-153.007 -232.673)"/>
          <path id="Path_531" data-name="Path 531" class="cls-7" d="M271.482,233.337v16.515H289.7L273.151,233.3C272.491,232.64,271.482,232.288,271.482,233.337Z" transform="translate(-180.378 -232.673)"/>
          <rect id="Rectangle_145" data-name="Rectangle 145" class="cls-7" width="50.695" height="32.784" transform="translate(29.316 63.826)"/>
        </g>
        <rect id="Rectangle_146" data-name="Rectangle 146" class="cls-8" width="50.695" height="6.345" transform="translate(46.71 160.079)"/>
        <rect id="Rectangle_147" data-name="Rectangle 147" class="cls-8" width="50.695" height="6.345" transform="translate(46.71 172.135)"/>
        <path id="Path_532" data-name="Path 532" class="cls-9" d="M206.213,479.268a1.713,1.713,0,0,1-1.708,1.708H9.647a1.713,1.713,0,0,1-1.708-1.708v-6.116a1.714,1.714,0,0,1,1.708-1.709H204.505a1.713,1.713,0,0,1,1.708,1.709v6.116Z" transform="translate(-4.766 -286.534)"/>
        <path id="Path_533" data-name="Path 533" class="cls-12" d="M204.739,190.5H181.767V166.144a5.294,5.294,0,0,0,3.8-5.07V154.05a5.294,5.294,0,0,0-5.288-5.288H147.182l-6.029-97.749a3.171,3.171,0,0,0-.22-.975c-.019-.37-.046-.741-.083-1.111a20.216,20.216,0,0,0,3.264-2.149,19.953,19.953,0,1,0-4.053-33.586,19.955,19.955,0,0,0-28.291,15.7A23.13,23.13,0,0,0,94.742,50.035a3.158,3.158,0,0,0-.222.978l-2.726,44.2a3.806,3.806,0,0,0-2.433.143A3.739,3.739,0,0,0,87.1,98.913v8.855L75.969,96.633a4.458,4.458,0,0,0-4.828-1.279,3.738,3.738,0,0,0-2.257,3.559v8.855L57.748,96.633a4.458,4.458,0,0,0-4.828-1.279,3.738,3.738,0,0,0-2.258,3.559v8.855L39.528,96.633A4.458,4.458,0,0,0,34.7,95.354a3.739,3.739,0,0,0-2.257,3.559v8.855L21.307,96.633a4.458,4.458,0,0,0-4.828-1.279,3.738,3.738,0,0,0-2.257,3.559V190.5H4.882A4.886,4.886,0,0,0,0,195.382V201.5a4.887,4.887,0,0,0,4.881,4.881H204.739s-.119-2.19-.119-4.881v-6.115Zm-25.521-35.392v4.909H147.877l-.3-4.909Zm-3.8,11.255V190.5H149.757l-1.489-24.138ZM115.287,34.62a3.174,3.174,0,0,0,2.7-3.18l-.006-.186a13.605,13.605,0,0,1,20.86-11.512,3.171,3.171,0,0,0,3.975-.478,13.608,13.608,0,1,1,2.533,20.966,3.173,3.173,0,0,0-3.976.478,13.689,13.689,0,0,1-5.112,3.334,3.173,3.173,0,0,0-2.013,3.643c.025.117.043.235.066.352H101.365A16.9,16.9,0,0,1,115.287,34.62ZM100.671,54.382H135L143.4,190.5H129.891V115.428a3.163,3.163,0,0,0-.933-2.247L112.41,96.633a4.458,4.458,0,0,0-4.828-1.279,3.738,3.738,0,0,0-2.257,3.559v8.855l-7.485-7.485Zm18.388,57.873H111.67v-7.389Zm-25.609-7.389,7.389,7.389H93.449Zm-18.221,0,7.389,7.389H75.228Zm-18.221,0,7.389,7.389H57.007Zm-18.22,0,7.389,7.389H38.787Zm-18.221,0,7.389,7.389H20.566Zm0,13.734H123.545v71.9H100.575V162.075A3.173,3.173,0,0,0,97.4,158.9H46.709a3.173,3.173,0,0,0-3.173,3.173V190.5H20.566ZM94.23,165.247V190.5H49.882V165.247Zm104.045,34.786H6.345v-3.188h191.93v3.188ZM119.044,142.8V135.03a7.411,7.411,0,0,0-7.4-7.4H32.47a7.411,7.411,0,0,0-7.4,7.4V142.8a7.411,7.411,0,0,0,7.4,7.4h79.172A7.411,7.411,0,0,0,119.044,142.8Zm-73,1.057H32.469a1.072,1.072,0,0,1-1.057-1.057V135.03a1.072,1.072,0,0,1,1.057-1.057H46.048Zm22.835,0H52.394v-9.883H68.883Zm22.834,0H75.228v-9.883H91.717Zm6.345-9.883h13.579a1.072,1.072,0,0,1,1.057,1.057V142.8a1.072,1.072,0,0,1-1.057,1.057H98.063v-9.883Z" transform="translate(0 -8.763)"/>
      </g>
    </g>
  </g>
</svg>
