<svg xmlns="http://www.w3.org/2000/svg" viewBox="44.374 71 1366.626 767">
  <defs>
    <style>
      .cls-1 {
        fill: #fff;
      }

      .cls-2 {
        fill: #ffb819;
      }

      .cls-3 {
        fill: #0071ce;
      }

      .cls-4 {
        fill: #00b3e3;
      }

      .cls-5 {
        opacity: 0.2;
      }

      .cls-6 {
        fill: #00ad68;
      }

      .cls-7 {
        fill: #d1d3d3;
      }

      .cls-8 {
        opacity: 0.1;
      }

      .cls-9 {
        fill: #333e48;
      }

      .cls-10 {
        fill: #d68231;
      }

      .cls-11 {
        fill: #a4a9ad;
      }

      .cls-12 {
        fill: #1e252b;
      }

      .cls-13 {
        fill: #929596;
      }

      .cls-14 {
        fill: #d9ddde;
      }

      .cls-15 {
        fill: #218649;
      }

      .cls-16 {
        fill: #fafafa;
      }

      .cls-17 {
        fill: #ffb61e;
      }

      .cls-18 {
        fill: #ff5959;
      }

      .cls-19 {
        opacity: 0.3;
      }

      .cls-20 {
        fill: #f2d383;
      }

      .cls-21 {
        fill: #a93439;
      }

      .cls-22 {
        fill: #eee;
      }
    </style>
  </defs>
  <g id="Group_2829" data-name="Group 2829" transform="translate(-7307 1473)">
    <rect id="Rectangle_50" data-name="Rectangle 50" class="cls-1" width="1366" height="767" transform="translate(7352 -1402)"/>
    <g id="Group_2828" data-name="Group 2828" transform="translate(1262.374 -881.029)">
      <g id="book-shop" transform="translate(6376.832 110.381)">
        <path id="Path_444" data-name="Path 444" class="cls-2" d="M100.845,100.366a5.423,5.423,0,0,0-5.407-5.407H76.394a5.423,5.423,0,0,0-5.407,5.407v63.959a5.423,5.423,0,0,0,5.407,5.407H95.438a5.423,5.423,0,0,0,5.407-5.407Z" transform="translate(-48.762 -77.664)"/>
        <path id="Path_445" data-name="Path 445" class="cls-3" d="M196.215,53.066a5.423,5.423,0,0,0-5.407-5.407H171.764a5.423,5.423,0,0,0-5.408,5.407v63.959a5.423,5.423,0,0,0,5.408,5.408h19.044a5.423,5.423,0,0,0,5.407-5.408Z" transform="translate(-114.272 -45.173)"/>
        <rect id="Rectangle_71" data-name="Rectangle 71" class="cls-4" width="4.971" height="46.008" transform="translate(64.529 16.866)"/>
        <rect id="Rectangle_72" data-name="Rectangle 72" class="cls-5" width="59.718" height="11.019" transform="translate(22.223 30.579)"/>
        <path id="Path_446" data-name="Path 446" class="cls-6" d="M281.5,56.412a5.424,5.424,0,0,0-7.647,0L263.309,66.958a5.423,5.423,0,0,0,0,7.647l40.577,40.577a5.423,5.423,0,0,0,7.647,0l10.547-10.547a5.424,5.424,0,0,0,0-7.647Z" transform="translate(-179.786 -50.102)"/>
        <g id="Group_123" data-name="Group 123" transform="translate(95.958 18.744)">
          <ellipse id="Ellipse_21" data-name="Ellipse 21" class="cls-1" cx="2.477" cy="2.477" rx="2.477" ry="2.477"/>
          <rect id="Rectangle_73" data-name="Rectangle 73" class="cls-1" width="35.002" height="4.971" transform="translate(32.143 35.656) rotate(-135)"/>
        </g>
        <path id="Path_447" data-name="Path 447" class="cls-5" d="M322.563,137.388H286.174l11.018,11.018h36.389Z" transform="translate(-196.576 -106.809)"/>
        <rect id="Rectangle_74" data-name="Rectangle 74" class="cls-7" width="136.264" height="87.691" transform="translate(12.02 42.964)"/>
        <rect id="Rectangle_75" data-name="Rectangle 75" class="cls-8" width="14.36" height="6.91" transform="translate(12.02 80.713)"/>
        <rect id="Rectangle_76" data-name="Rectangle 76" class="cls-8" width="14.36" height="6.91" transform="translate(34.697 60.554)"/>
        <rect id="Rectangle_77" data-name="Rectangle 77" class="cls-8" width="14.36" height="6.91" transform="translate(78.948 58.374)"/>
        <rect id="Rectangle_78" data-name="Rectangle 78" class="cls-8" width="14.36" height="6.91" transform="translate(56.808 47.279)"/>
        <rect id="Rectangle_79" data-name="Rectangle 79" class="cls-8" width="14.36" height="6.91" transform="translate(133.924 68.233)"/>
        <rect id="Rectangle_80" data-name="Rectangle 80" class="cls-8" width="14.36" height="6.91" transform="translate(131.555 110.694)"/>
        <rect id="Rectangle_81" data-name="Rectangle 81" class="cls-8" width="14.36" height="6.91" transform="translate(101.368 117.16)"/>
        <rect id="Rectangle_82" data-name="Rectangle 82" class="cls-8" width="14.36" height="6.91" transform="translate(75.87 97.637)"/>
        <rect id="Rectangle_83" data-name="Rectangle 83" class="cls-8" width="14.36" height="6.91" transform="translate(17.948 116.497)"/>
        <rect id="Rectangle_84" data-name="Rectangle 84" class="cls-8" width="136.264" height="12.951" transform="translate(12.02 42.964)"/>
        <g id="Group_124" data-name="Group 124" transform="translate(6.292 36.311)">
          <path id="Path_448" data-name="Path 448" class="cls-9" d="M167.814,166.8a3.324,3.324,0,0,1-3.314,3.314H23.412A3.324,3.324,0,0,1,20.1,166.8v-7.793a3.324,3.324,0,0,1,3.314-3.314H164.5a3.324,3.324,0,0,1,3.314,3.314V166.8Z" transform="translate(-20.098 -155.698)"/>
          <rect id="Rectangle_85" data-name="Rectangle 85" class="cls-9" width="55.684" height="60.089" transform="translate(76.756 22.228)"/>
        </g>
        <path id="Path_449" data-name="Path 449" class="cls-6" d="M304.2,265.795a1.808,1.808,0,0,1-1.8,1.8H289.251a1.808,1.808,0,0,1-1.8-1.8V249.14a1.808,1.808,0,0,1,1.8-1.8h13.142a1.807,1.807,0,0,1,1.8,1.8Z" transform="translate(-197.452 -182.335)"/>
        <rect id="Rectangle_86" data-name="Rectangle 86" class="cls-1" width="7.662" height="4.971" transform="translate(94.537 69.532)"/>
        <path id="Path_450" data-name="Path 450" class="cls-3" d="M384.18,265.795a1.808,1.808,0,0,1-1.8,1.8H369.236a1.808,1.808,0,0,1-1.8-1.8V249.14a1.807,1.807,0,0,1,1.8-1.8h13.142a1.807,1.807,0,0,1,1.8,1.8v16.654Z" transform="translate(-252.395 -182.335)"/>
        <rect id="Rectangle_87" data-name="Rectangle 87" class="cls-1" width="7.662" height="4.971" transform="translate(119.581 69.532)"/>
        <path id="Path_451" data-name="Path 451" class="cls-4" d="M304.2,351.711a1.808,1.808,0,0,1-1.8,1.8H289.251a1.808,1.808,0,0,1-1.8-1.8V335.057a1.808,1.808,0,0,1,1.8-1.8h13.142a1.807,1.807,0,0,1,1.8,1.8Z" transform="translate(-197.452 -241.352)"/>
        <rect id="Rectangle_88" data-name="Rectangle 88" class="cls-1" width="7.662" height="4.971" transform="translate(94.537 96.431)"/>
        <path id="Path_452" data-name="Path 452" class="cls-2" d="M384.18,351.711a1.808,1.808,0,0,1-1.8,1.8H369.236a1.808,1.808,0,0,1-1.8-1.8V335.057a1.808,1.808,0,0,1,1.8-1.8h13.142a1.808,1.808,0,0,1,1.8,1.8v16.654Z" transform="translate(-252.395 -241.352)"/>
        <rect id="Rectangle_89" data-name="Rectangle 89" class="cls-1" width="7.662" height="4.971" transform="translate(119.581 96.431)"/>
        <rect id="Rectangle_90" data-name="Rectangle 90" class="cls-10" width="44.808" height="58.969" transform="translate(25.129 71.686)"/>
        <rect id="Rectangle_91" data-name="Rectangle 91" class="cls-9" width="29.007" height="20.828" transform="translate(33.03 80.156)"/>
        <rect id="Rectangle_92" data-name="Rectangle 92" class="cls-1" width="13.759" height="4.971" transform="translate(40.652 86.758)"/>
        <path id="Path_453" data-name="Path 453" class="cls-11" d="M163.269,446.617a1.342,1.342,0,0,1-1.338,1.339H9.277a1.342,1.342,0,0,1-1.338-1.339v-4.791a1.342,1.342,0,0,1,1.338-1.339H161.931a1.342,1.342,0,0,1,1.338,1.339v4.791Z" transform="translate(-5.453 -315.011)"/>
        <path id="Path_454" data-name="Path 454" class="cls-12" d="M35.507,152.917a2.477,2.477,0,1,0-2.477-2.477A2.477,2.477,0,0,0,35.507,152.917Zm47.541,7.914h55.686a2.485,2.485,0,0,0,2.486-2.486V98.258a2.485,2.485,0,0,0-2.486-2.486H83.048a2.485,2.485,0,0,0-2.486,2.486v60.087A2.485,2.485,0,0,0,83.048,160.831Zm2.485-60.087h50.715V155.86H85.534Zm70.944,61.966h-5.709V92.934a5.8,5.8,0,0,0,5.725-5.8V79.345a5.806,5.806,0,0,0-5.8-5.8H132.75L103.475,44.272a7.9,7.9,0,0,0-11.163,0l-7.884,7.884V47.613a7.9,7.9,0,0,0-7.893-7.893H57.491A7.9,7.9,0,0,0,49.6,47.613v7.479a7.847,7.847,0,0,0-2.922-.563H27.633a7.9,7.9,0,0,0-7.893,7.893V73.546H9.607a5.806,5.806,0,0,0-5.8,5.8v7.793a5.8,5.8,0,0,0,5.725,5.8V162.71H3.824A3.828,3.828,0,0,0,0,166.534v4.791a3.829,3.829,0,0,0,3.824,3.824H156.478a3.829,3.829,0,0,0,3.824-3.824v-4.791A3.829,3.829,0,0,0,156.477,162.71ZM85.28,58.333,95.827,47.787a2.926,2.926,0,0,1,4.133,0l25.76,25.76H96.361L85.28,62.466a2.937,2.937,0,0,1,0-4.132Zm-.852,10.31,4.9,4.9h-4.9v-4.9ZM54.57,47.613a2.925,2.925,0,0,1,2.922-2.922H76.535a2.925,2.925,0,0,1,2.922,2.922V73.546H54.57V47.613ZM24.71,62.422A2.925,2.925,0,0,1,27.632,59.5H46.676A2.925,2.925,0,0,1,49.6,62.422V73.546H24.71V62.422ZM8.778,87.138V79.345a.839.839,0,0,1,.828-.828H150.694a.84.84,0,0,1,.828.828v7.793a.84.84,0,0,1-.828.828H9.607A.84.84,0,0,1,8.778,87.138Zm62.933,22.527a2.484,2.484,0,0,0-1.774-.744H25.129a2.486,2.486,0,0,0-2.485,2.439l-.952,51.35H14.5V92.938H145.8V162.71H71.472l.95-51.257A2.486,2.486,0,0,0,71.711,109.665Zm-4.306,4.227-.9,48.818H26.664l.9-48.818H67.405Zm87.925,56.287H4.971v-2.5h150.36v2.5Z" transform="translate(0 -39.72)"/>
      </g>
      <g id="building-1" transform="translate(6224.357 112.26)">
        <path id="Path_429" data-name="Path 429" class="cls-11" d="M153.081,73.125a3.324,3.324,0,0,0-3.314-3.314h-41.02a3.324,3.324,0,0,0-3.314,3.314V84.961a3.324,3.324,0,0,0,3.314,3.314h41.02a3.324,3.324,0,0,0,3.314-3.314V73.125Z" transform="translate(-72.423 -61.293)"/>
        <rect id="Rectangle_51" data-name="Rectangle 51" class="cls-5" width="47.648" height="2.955" transform="translate(33.011 16.845)"/>
        <rect id="Rectangle_52" data-name="Rectangle 52" class="cls-3" width="85.563" height="100.423" transform="translate(16.126 26.982)"/>
        <rect id="Rectangle_53" data-name="Rectangle 53" class="cls-8" width="17.488" height="8.416" transform="translate(16.126 72.987)"/>
        <rect id="Rectangle_54" data-name="Rectangle 54" class="cls-8" width="17.488" height="8.416" transform="translate(77.156 94.544)"/>
        <rect id="Rectangle_55" data-name="Rectangle 55" class="cls-8" width="17.488" height="8.416" transform="translate(55.389 34.164)"/>
        <rect id="Rectangle_56" data-name="Rectangle 56" class="cls-8" width="17.488" height="8.416" transform="translate(68.41 63.068)"/>
        <rect id="Rectangle_57" data-name="Rectangle 57" class="cls-8" width="17.488" height="8.416" transform="translate(23.38 40.606)"/>
        <rect id="Rectangle_58" data-name="Rectangle 58" class="cls-8" width="17.488" height="8.416" transform="translate(22.369 112.85)"/>
        <rect id="Rectangle_59" data-name="Rectangle 59" class="cls-8" width="17.488" height="8.416" transform="translate(34.078 88.546)"/>
        <path id="Path_430" data-name="Path 430" class="cls-9" d="M163.58,297.924a15.032,15.032,0,1,0-30.063,0v26.057h30.064V297.924Z" transform="translate(-91.714 -207.661)"/>
        <path id="Path_431" data-name="Path 431" class="cls-13" d="M120.14,421.48v-5.692a1.662,1.662,0,0,1,1.657-1.657h35.125a1.662,1.662,0,0,1,1.657,1.657v5.692Z" transform="translate(-82.526 -297.81)"/>
        <g id="Group_122" data-name="Group 122" transform="translate(28.051 50.309)">
          <path id="Path_432" data-name="Path 432" class="cls-1" d="M172.811,314.889a7.3,7.3,0,0,0-14.6,0Z" transform="translate(-136.729 -274.935)"/>
          <path id="Path_433" data-name="Path 433" class="cls-1" d="M147.16,204.947a1.662,1.662,0,0,0-1.657-1.657H91.25a1.662,1.662,0,0,0-1.657,1.657V215.67a1.662,1.662,0,0,0,1.657,1.657H145.5a1.662,1.662,0,0,0,1.657-1.657V204.947Z" transform="translate(-89.593 -203.29)"/>
        </g>
        <path id="Path_434" data-name="Path 434" class="cls-5" d="M145.5,203.29H91.25a1.662,1.662,0,0,0-1.657,1.657V209.8a1.662,1.662,0,0,1,1.657-1.657H145.5a1.662,1.662,0,0,1,1.657,1.657v-4.849A1.662,1.662,0,0,0,145.5,203.29Z" transform="translate(-61.542 -152.981)"/>
        <rect id="Rectangle_60" data-name="Rectangle 60" class="cls-8" width="85.563" height="11.957" transform="translate(16.126 26.982)"/>
        <path id="Path_435" data-name="Path 435" class="cls-9" d="M127.968,109.163a3.324,3.324,0,0,0-3.314-3.314H41.568a3.324,3.324,0,0,0-3.314,3.314V116.9a3.324,3.324,0,0,0,3.314,3.314h83.086a3.324,3.324,0,0,0,3.314-3.314v-7.733Z" transform="translate(-26.277 -86.048)"/>
        <rect id="Rectangle_61" data-name="Rectangle 61" class="cls-8" width="11.86" height="107.601" transform="translate(89.832 19.801)"/>
        <rect id="Rectangle_62" data-name="Rectangle 62" class="cls-14" width="50.849" height="113.265" transform="translate(94.644 14.141)"/>
        <rect id="Rectangle_63" data-name="Rectangle 63" class="cls-8" width="17.488" height="8.416" transform="translate(94.644 72.884)"/>
        <rect id="Rectangle_64" data-name="Rectangle 64" class="cls-8" width="17.488" height="8.416" transform="translate(124.138 108.645)"/>
        <rect id="Rectangle_65" data-name="Rectangle 65" class="cls-8" width="17.488" height="8.416" transform="translate(128.005 49.633)"/>
        <rect id="Rectangle_66" data-name="Rectangle 66" class="cls-8" width="17.488" height="8.416" transform="translate(98.402 32.665)"/>
        <rect id="Rectangle_67" data-name="Rectangle 67" class="cls-8" width="17.488" height="8.416" transform="translate(122.593 16.845)"/>
        <rect id="Rectangle_68" data-name="Rectangle 68" class="cls-8" width="50.849" height="7.621" transform="translate(94.644 14.141)"/>
        <path id="Path_436" data-name="Path 436" class="cls-1" d="M370.665,140.526a10.747,10.747,0,1,0-21.494,0v24.292h21.494V140.526h0Z" transform="translate(-239.849 -102.485)"/>
        <path id="Path_437" data-name="Path 437" class="cls-5" d="M359.918,129.779a10.747,10.747,0,0,0-10.747,10.747v4.584a10.747,10.747,0,0,1,21.494,0v-4.584A10.747,10.747,0,0,0,359.918,129.779Z" transform="translate(-239.849 -102.485)"/>
        <rect id="Rectangle_69" data-name="Rectangle 69" class="cls-5" width="21.494" height="5.355" transform="translate(109.321 38.041)"/>
        <path id="Path_438" data-name="Path 438" class="cls-1" d="M370.665,293.652a10.747,10.747,0,0,0-21.494,0v24.292h21.494V293.652Z" transform="translate(-239.849 -207.67)"/>
        <path id="Path_439" data-name="Path 439" class="cls-5" d="M359.918,282.906a10.747,10.747,0,0,0-10.747,10.746v4.585a10.747,10.747,0,1,1,21.494,0v-4.585A10.747,10.747,0,0,0,359.918,282.906Z" transform="translate(-239.849 -207.67)"/>
        <rect id="Rectangle_70" data-name="Rectangle 70" class="cls-5" width="21.494" height="5.355" transform="translate(109.321 85.981)"/>
        <path id="Path_440" data-name="Path 440" class="cls-11" d="M163.269,443.733a1.342,1.342,0,0,1-1.338,1.338H9.277a1.342,1.342,0,0,1-1.338-1.338v-4.791A1.342,1.342,0,0,1,9.277,437.6H161.931a1.342,1.342,0,0,1,1.338,1.339v4.791Z" transform="translate(-5.453 -313.933)"/>
        <path id="Path_441" data-name="Path 441" class="cls-9" d="M348.581,53.856a3.324,3.324,0,0,0-3.314-3.314H293.41a3.324,3.324,0,0,0-3.314,3.314v7.733A3.324,3.324,0,0,0,293.41,64.9h51.857a3.324,3.324,0,0,0,3.314-3.314Z" transform="translate(-199.27 -48.057)"/>
        <path id="Path_442" data-name="Path 442" class="cls-7" d="M348.322,437.6H279.286v7.469h69.036a1.342,1.342,0,0,0,1.338-1.338v-4.791A1.342,1.342,0,0,0,348.322,437.6Z" transform="translate(-191.845 -313.933)"/>
        <path id="Path_443" data-name="Path 443" class="cls-12" d="M88.1,105.293V94.57a4.147,4.147,0,0,0-4.142-4.142H29.707a4.147,4.147,0,0,0-4.142,4.142v10.723a4.147,4.147,0,0,0,4.142,4.142H83.961A4.147,4.147,0,0,0,88.1,105.293Zm-33.755-.828H30.536V95.4H54.349v9.066Zm28.784,0H59.32V95.4H83.133Zm73.345,59.324h-8.5V61.579a5.8,5.8,0,0,0,3.818-5.443V48.4a5.806,5.806,0,0,0-5.8-5.8H94.14a5.806,5.806,0,0,0-5.8,5.8v7.733a5.77,5.77,0,0,0,1.415,3.784H83.144V54.436a5.806,5.806,0,0,0-5.8-5.8H36.324a5.806,5.806,0,0,0-5.8,5.8V59.92H15.291a5.806,5.806,0,0,0-5.8,5.8v7.733a5.808,5.808,0,0,0,4.149,5.557v84.779H0v12.461l156.478-.021A3.829,3.829,0,0,0,160.3,172.4v-4.791A3.829,3.829,0,0,0,156.477,163.788ZM93.311,48.4a.84.84,0,0,1,.828-.828H146a.84.84,0,0,1,.828.828v7.733a.84.84,0,0,1-.828.828H94.14a.84.84,0,0,1-.828-.828V48.4Zm49.7,13.532V163.788H97.13V61.936ZM35.5,54.436a.84.84,0,0,1,.828-.828h41.02a.84.84,0,0,1,.828.828V59.92H35.5ZM14.463,65.719a.84.84,0,0,1,.828-.828H92.159v9.39H15.291a.84.84,0,0,1-.828-.828ZM74.4,156.439h-.046V132.867a17.517,17.517,0,1,0-35.034,0v23.572h-.045a4.147,4.147,0,0,0-4.142,4.142v3.207H18.612V79.252H92.159v84.536H78.539v-3.207A4.147,4.147,0,0,0,74.4,156.439Zm-.828,4.971v2.378H40.1V161.41Zm-29.28-4.971V132.867a12.546,12.546,0,1,1,25.093,0v23.572Zm40.668,14.818H4.971v-2.5H84.956v2.5Zm70.375,0h-65.4v-2.5h65.4v2.5Zm-46.009-63.835h21.494a2.485,2.485,0,0,0,2.486-2.486V80.645a13.233,13.233,0,1,0-26.465,0v24.292A2.485,2.485,0,0,0,109.322,107.422Zm10.746-35.039a8.276,8.276,0,0,1,7.879,5.776H112.19A8.276,8.276,0,0,1,120.068,72.383ZM111.807,83.13H128.33V90.3H111.807Zm0,12.146H128.33v7.175H111.807Zm-2.485,60.089h21.494a2.485,2.485,0,0,0,2.486-2.486V128.586a13.233,13.233,0,0,0-26.465,0v24.292A2.485,2.485,0,0,0,109.322,155.364Zm10.746-35.039a8.275,8.275,0,0,1,7.879,5.776H112.19A8.276,8.276,0,0,1,120.068,120.325Zm-8.261,10.747H128.33v7.175H111.807Zm0,12.146H128.33v7.175H111.807Z" transform="translate(0 -42.604)"/>
      </g>
      <g id="museum" transform="translate(6528.995 124.783)">
        <path id="Path_455" data-name="Path 455" class="cls-11" d="M219.56,71.987c-26.6-7.9-95.479,15.555-95.479,85.933h95.554S246.162,79.887,219.56,71.987Z" transform="translate(-74.903 -68.041)"/>
        <path id="Path_456" data-name="Path 456" class="cls-8" d="M314.348,99.626H258.4a93.432,93.432,0,0,0-8.826,4.971h66.586A26.091,26.091,0,0,0,314.348,99.626Z" transform="translate(-161.107 -88.032)"/>
        <path id="Path_457" data-name="Path 457" class="cls-5" d="M230.407,108.321h0c-10-10-36.985-7.609-61.036,6.464-3.647-1.8-7.112-3.633-10.432-5.4-19.237,13.914-34.859,36.788-34.859,70.3h95.554S235.453,133.157,230.407,108.321Z" transform="translate(-74.901 -89.813)"/>
        <path id="Path_458" data-name="Path 458" class="cls-11" d="M234.264,131.156c-19.614-19.614-104.569,8.437-104.569,78.815h95.554S253.878,150.771,234.264,131.156Z" transform="translate(-78.759 -105.499)"/>
        <path id="Path_459" data-name="Path 459" class="cls-8" d="M295.493,194.377H214.8q-2.85,2.36-5.543,4.971H295.78A49.272,49.272,0,0,0,295.493,194.377Z" transform="translate(-133.409 -153.117)"/>
        <path id="Path_460" data-name="Path 460" class="cls-8" d="M220.661,161.932c-15.727,0-28.865-3.962-40.267-8.93-25.9,12.47-50.7,38.139-50.7,76.166h95.554s14.526-30.039,15.794-54.411C238.518,167.173,232.494,161.932,220.661,161.932Z" transform="translate(-78.759 -124.696)"/>
        <path id="Path_461" data-name="Path 461" class="cls-7" d="M144.394,136.016c-54.455,0-77.879-47.5-105.634-19.748s-.186,88.369-.186,88.369H153.992S187.216,136.016,144.394,136.016Z" transform="translate(-7.788 -93.485)"/>
        <path id="Path_462" data-name="Path 462" class="cls-8" d="M97.53,160.153H32.817a41.374,41.374,0,0,0-2.442,4.971h78.377C104.819,163.584,101.088,161.892,97.53,160.153Zm67.5,25.628H26.4q-.062,2.481.024,4.971H166.019A29.648,29.648,0,0,0,165.034,185.781ZM30.321,216.38H163.01c.447-1.63.868-3.292,1.249-4.971H29.15Q29.7,213.958,30.321,216.38Z" transform="translate(-7.79 -129.608)"/>
        <path id="Path_463" data-name="Path 463" class="cls-11" d="M149.531,423.744a1.342,1.342,0,0,1-1.338,1.339H-4.461c-.736,0-7.6-.6-7.6-1.339v-4.791c0-.736,6.864-1.339,7.6-1.339H148.193a1.342,1.342,0,0,1,1.338,1.339v4.791Z" transform="translate(18.615 -306.461)"/>
        <path id="Path_464" data-name="Path 464" class="cls-9" d="M166.836,339.838V309.36a4.986,4.986,0,0,0-4.971-4.971H140.987a4.986,4.986,0,0,0-4.971,4.971v30.478Z" transform="translate(-83.101 -228.686)"/>
        <path id="Path_465" data-name="Path 465" class="cls-15" d="M381.491,358.682V338.1a6.1,6.1,0,0,0-5.877-6.276H345.5a6.1,6.1,0,0,0-5.877,6.276v20.584Z" transform="translate(-222.96 -247.529)"/>
        <path id="Path_466" data-name="Path 466" class="cls-6" d="M331.4,373.77V358.456a4.683,4.683,0,0,0-4.669-4.669H295.6a4.683,4.683,0,0,0-4.669,4.669V373.77Z" transform="translate(-189.513 -262.618)"/>
        <path id="Path_467" data-name="Path 467" class="cls-12" d="M124.421,171.261h3.6v-18.1a8.939,8.939,0,0,0-2.574-6.315,95.382,95.382,0,0,0,1.946-10.082l.054.015c6.408-22.858,5.877-39.145-1.567-48.478-.735-13.576-5.276-21.7-13.512-24.145-8.318-2.471-20.016-2-32.1,1.3A95.164,95.164,0,0,0,44.59,84.038c-8.6-4.554-16.178-8.366-23.674-9.507-9.241-1.407-17.088,1.482-24.7,9.09-6.723,6.723-10.91,15.785-12.443,26.936-1.2,8.743-.781,18.791,1.255,29.864a166.125,166.125,0,0,0,9.013,30.841h-26.1c-2.109,0,0,1.715,0,3.824v4.791c0,2.109-1.3,3.69.813,3.69l165.058.135a3.829,3.829,0,0,0,3.824-3.824v-7.312C137.638,170.456,126.53,171.261,124.421,171.261ZM126.4,117.28a21.873,21.873,0,0,0-3.442-6.624c-4.117-5.32-10.625-8.016-19.342-8.016A94.5,94.5,0,0,1,66.4,94.813a86.9,86.9,0,0,1,30.832-9.857c10.618-1.115,19.192.726,23.518,5.052C126.762,96.017,127.657,106.475,126.4,117.28Zm-22.175,34H86.606a3.347,3.347,0,0,1,2.938-1.907h30.117a3.612,3.612,0,0,1,3.391,3.791v18.1H111.377V158.432A7.163,7.163,0,0,0,104.223,151.278Zm2.184,7.155v12.829h-35.5V158.433a2.186,2.186,0,0,1,2.184-2.184h31.13A2.186,2.186,0,0,1,106.406,158.433ZM81.583,70.255c11.212-3.061,21.919-3.546,29.373-1.333,5.055,1.5,8.228,6.419,9.469,14.642-5.7-3.325-13.9-4.583-23.708-3.553C85.041,81.238,72.3,85.585,60.706,92.285c-3.944-1.848-7.709-3.8-11.348-5.72A90.306,90.306,0,0,1,81.583,70.255ZM-10.1,139.426c-1.928-10.535-2.331-20.036-1.2-28.241C-9.9,101.156-6.193,93.064-.264,87.135c13.909-13.909,26.126-7.419,44.618,2.4,15.158,8.052,34.023,18.072,59.258,18.072,7.1,0,12.285,2.048,15.411,6.088,4.576,5.912,5.213,16.529,1.876,30.8a8.007,8.007,0,0,0-1.239-.1H89.545a8.475,8.475,0,0,0-8.166,6.878H73.093a7.163,7.163,0,0,0-7.155,7.155v12.829H53.227V143.268a7.465,7.465,0,0,0-7.457-7.457H24.892a7.465,7.465,0,0,0-7.457,7.457v27.993H-.573A162.867,162.867,0,0,1-10.1,139.426Zm58.351,3.842v27.993H22.407V143.268a2.488,2.488,0,0,1,2.486-2.486H45.771A2.489,2.489,0,0,1,48.256,143.268Zm84.411,35.462H-27.085v-2.5H132.667v2.5Z" transform="translate(32.993 -62.594)"/>
      </g>
      <g id="skyscraper-1" transform="translate(6691.173 95.666)">
        <g id="Group_125" data-name="Group 125" transform="translate(6.267 2.486)">
          <path id="Path_468" data-name="Path 468" class="cls-16" d="M45.935,24a25.939,25.939,0,0,1,17.508,6.765A20.865,20.865,0,0,1,92.148,47.656c.09.781.265,2.378-1.984,2.378H22c-1.352,0-2.064-1.727-1.981-2.574A26.04,26.04,0,0,1,45.935,24Z" transform="translate(-20.016 -23.997)"/>
          <path id="Path_469" data-name="Path 469" class="cls-16" d="M313.29,126.16a25.939,25.939,0,0,0-17.508,6.765,20.866,20.866,0,0,0-28.706,16.894c-.09.781-.265,2.378,1.984,2.378h68.16c1.352,0,2.064-1.727,1.981-2.574A26.04,26.04,0,0,0,313.29,126.16Z" transform="translate(-189.694 -94.174)"/>
        </g>
        <path id="Path_470" data-name="Path 470" class="cls-17" d="M224.564,44.535c1.823,0,2.15-.933.728-2.072L203.786,25.232a4.341,4.341,0,0,0-5.172,0L177.108,42.463c-1.422,1.139-1.095,2.072.728,2.072Z" transform="translate(-121.05 -21.773)"/>
        <path id="Path_471" data-name="Path 471" class="cls-5" d="M225.293,71.056,218.987,66h-35.57l-6.306,5.053c-1.422,1.139-1.095,2.072.728,2.072h46.727C226.388,73.128,226.715,72.2,225.293,71.056Z" transform="translate(-121.051 -50.366)"/>
        <rect id="Rectangle_93" data-name="Rectangle 93" class="cls-3" width="60.824" height="109.735" transform="translate(49.739 34.263)"/>
        <rect id="Rectangle_94" data-name="Rectangle 94" class="cls-17" width="17.998" height="18.973" transform="translate(71.151 125.052)"/>
        <g id="Group_126" data-name="Group 126" transform="translate(49.739 66.514)">
          <rect id="Rectangle_95" data-name="Rectangle 95" class="cls-4" width="60.824" height="14.869" transform="translate(0 35.43)"/>
          <rect id="Rectangle_96" data-name="Rectangle 96" class="cls-4" width="60.824" height="14.869"/>
        </g>
        <path id="Path_472" data-name="Path 472" class="cls-9" d="M163.269,470.28a1.342,1.342,0,0,1-1.338,1.338H9.277a1.342,1.342,0,0,1-1.338-1.338v-4.791a1.342,1.342,0,0,1,1.338-1.339H161.931a1.342,1.342,0,0,1,1.338,1.339v4.791Z" transform="translate(-5.453 -323.857)"/>
        <rect id="Rectangle_97" data-name="Rectangle 97" class="cls-11" width="80.41" height="7.469" transform="translate(39.947 140.293)"/>
        <rect id="Rectangle_98" data-name="Rectangle 98" class="cls-5" width="4.971" height="106.03" transform="translate(60.433 34.263)"/>
        <rect id="Rectangle_99" data-name="Rectangle 99" class="cls-5" width="4.971" height="106.03" transform="translate(94.899 34.263)"/>
        <path id="Path_473" data-name="Path 473" class="cls-17" d="M219.687,91.594V79.458a3.324,3.324,0,0,0-3.314-3.314h-54.2a3.324,3.324,0,0,0-3.314,3.314V91.594Z" transform="translate(-109.123 -57.332)"/>
        <path id="Path_474" data-name="Path 474" class="cls-5" d="M195.506,96.135a2.485,2.485,0,0,1-2.486-2.486V89.893a2.486,2.486,0,0,1,4.971,0V93.65A2.485,2.485,0,0,1,195.506,96.135Z" transform="translate(-132.588 -65.068)"/>
        <path id="Path_475" data-name="Path 475" class="cls-5" d="M250.546,96.135a2.485,2.485,0,0,1-2.486-2.486V89.893a2.486,2.486,0,1,1,4.971,0V93.65A2.485,2.485,0,0,1,250.546,96.135Z" transform="translate(-170.395 -65.068)"/>
        <path id="Path_476" data-name="Path 476" class="cls-5" d="M305.587,96.135A2.485,2.485,0,0,1,303.1,93.65V89.893a2.486,2.486,0,0,1,4.971,0V93.65A2.485,2.485,0,0,1,305.587,96.135Z" transform="translate(-208.203 -65.068)"/>
        <path id="Path_477" data-name="Path 477" class="cls-6" d="M145.222,366.277c0-6.309-5.115-27.98-11.424-27.98s-11.423,21.671-11.423,27.98a11.423,11.423,0,0,0,22.847,0Z" transform="translate(-84.061 -237.408)"/>
        <g id="Group_127" data-name="Group 127" transform="translate(8.688 100.889)">
          <path id="Path_478" data-name="Path 478" class="cls-15" d="M50.6,366.277c0-6.309-5.115-27.98-11.424-27.98s-11.423,21.671-11.423,27.98a11.423,11.423,0,0,0,22.847,0Z" transform="translate(-27.749 -338.297)"/>
          <path id="Path_479" data-name="Path 479" class="cls-15" d="M411.279,366.277c0-6.309,5.115-27.98,11.424-27.98s11.423,21.671,11.423,27.98a11.423,11.423,0,0,1-22.847,0Z" transform="translate(-291.2 -338.297)"/>
        </g>
        <path id="Path_480" data-name="Path 480" class="cls-6" d="M316.653,366.277c0-6.309,5.115-27.98,11.424-27.98s11.423,21.671,11.423,27.98a11.423,11.423,0,0,1-22.847,0Z" transform="translate(-217.512 -237.408)"/>
        <rect id="Rectangle_100" data-name="Rectangle 100" class="cls-5" width="4.971" height="15.238" transform="translate(77.666 125.052)"/>
        <rect id="Rectangle_101" data-name="Rectangle 101" class="cls-8" width="4.971" height="14.869" transform="translate(77.666 66.514)"/>
        <rect id="Rectangle_102" data-name="Rectangle 102" class="cls-8" width="4.971" height="14.869" transform="translate(77.666 101.944)"/>
        <path id="Path_481" data-name="Path 481" class="cls-12" d="M156.477,153.865h-5.641a13.844,13.844,0,0,0,3.263-8.937c0-3.254-1.217-10.368-3.473-17.141-2.987-8.966-6.4-13.324-10.435-13.324s-7.449,4.358-10.436,13.324c-2.256,6.773-3.473,13.886-3.473,17.141a13.843,13.843,0,0,0,3.263,8.937h-8.334a13.843,13.843,0,0,0,3.263-8.937c0-3.254-1.217-10.368-3.473-17.141-2.353-7.064-4.972-11.266-7.95-12.731v-36H153.8a4.151,4.151,0,0,0,3.092-1.416,5.388,5.388,0,0,0,1.362-3.886,28.52,28.52,0,0,0-45.2-20.219V38.184a5.806,5.806,0,0,0-5.8-5.8h-4.48L84.292,17.577a6.842,6.842,0,0,0-8.28,0l-7.739,6.2A23.387,23.387,0,0,0,50.2,22.464a28.526,28.526,0,0,0-46.4,19.3A5.391,5.391,0,0,0,5.163,45.65a4.151,4.151,0,0,0,3.092,1.416h39v67.989c-2.978,1.466-5.6,5.667-7.95,12.731-2.256,6.773-3.473,13.886-3.473,17.141a13.843,13.843,0,0,0,3.263,8.937H30.758a13.843,13.843,0,0,0,3.263-8.937c0-3.255-1.217-10.368-3.473-17.141-2.987-8.966-6.4-13.324-10.436-13.324s-7.449,4.358-10.435,13.324C7.421,134.56,6.2,141.673,6.2,144.928a13.844,13.844,0,0,0,3.263,8.937H3.824A3.828,3.828,0,0,0,0,157.689v4.791A3.829,3.829,0,0,0,3.824,166.3H156.478a3.829,3.829,0,0,0,3.824-3.824v-4.791A3.83,3.83,0,0,0,156.477,153.865ZM113.049,59.678a2.477,2.477,0,0,0,.978-.544,23.554,23.554,0,0,1,39.258,14.947H113.049Zm-98.656,69.68c2.7-8.1,5.093-9.924,5.719-9.924s3.021,1.823,5.72,9.924c1.988,5.968,3.219,12.729,3.219,15.57a8.938,8.938,0,0,1-17.875,0C11.174,142.086,12.4,135.325,14.393,129.357ZM37.46,161.333H4.971v-2.5H37.46ZM107.25,37.356a.84.84,0,0,1,.828.828v9.651H52.223V38.184a.84.84,0,0,1,.828-.828h54.2ZM99.918,153.865H91.634V141.112a2.485,2.485,0,0,0-2.486-2.486h-18a2.485,2.485,0,0,0-2.486,2.486v12.753H60.383a13.843,13.843,0,0,0,3.263-8.937c0-3.255-1.217-10.368-3.473-17.141-2.353-7.064-4.971-11.266-7.95-12.731V52.806h55.855v62.25c-2.979,1.466-5.6,5.668-7.95,12.731-2.256,6.773-3.473,13.886-3.473,17.141A13.844,13.844,0,0,0,99.918,153.865ZM86.663,143.6v10.267H73.636V143.6ZM79.118,21.457a1.889,1.889,0,0,1,2.064,0L94.821,32.385H65.48ZM8.763,42.095A23.553,23.553,0,0,1,48.021,27.148a2.487,2.487,0,0,0,2.624.457,18.421,18.421,0,0,1,13.246-.316l-6.36,5.1H53.052a5.806,5.806,0,0,0-5.8,5.8V42.1H8.763Zm35.255,87.263c2.7-8.1,5.093-9.924,5.719-9.924s3.021,1.823,5.72,9.924c1.988,5.968,3.219,12.729,3.219,15.57a8.938,8.938,0,0,1-17.875,0C40.8,142.086,42.03,135.325,44.018,129.357Zm73.852,31.976H42.431v-2.5H117.87Zm-7.306-7.469a8.948,8.948,0,0,1-8.938-8.937c0-2.841,1.23-9.6,3.219-15.57,2.7-8.1,5.093-9.924,5.72-9.924s3.021,1.823,5.719,9.924c1.988,5.968,3.219,12.729,3.219,15.57A8.947,8.947,0,0,1,110.564,153.865Zm23.907-24.507c2.7-8.1,5.093-9.924,5.72-9.924s3.021,1.823,5.719,9.924c1.988,5.968,3.219,12.729,3.219,15.57a8.938,8.938,0,0,1-17.875,0C131.252,142.086,132.483,135.325,134.471,129.357Zm20.86,31.976H122.841v-2.5h32.489v2.5Z" transform="translate(0 -16.058)"/>
      </g>
      <g id="building" transform="translate(6988.607 90.657)">
        <path id="Path_482" data-name="Path 482" class="cls-11" d="M179.459,28.745v-9.3a3.332,3.332,0,0,0-3.322-3.322H154.41a3.332,3.332,0,0,0-3.323,3.322v9.3h28.371Z" transform="translate(-103.784 -13.634)"/>
        <rect id="Rectangle_103" data-name="Rectangle 103" class="cls-5" width="28.371" height="5.426" transform="translate(47.304 9.684)"/>
        <rect id="Rectangle_104" data-name="Rectangle 104" class="cls-18" width="75.085" height="125.245" transform="translate(40.125 23.294)"/>
        <rect id="Rectangle_105" data-name="Rectangle 105" class="cls-19" width="75.085" height="8.548" transform="translate(40.125 23.294)"/>
        <path id="Path_483" data-name="Path 483" class="cls-9" d="M197.109,51.785a2.332,2.332,0,0,0-2.326-2.325h-80.71a2.332,2.332,0,0,0-2.326,2.325v8.97a2.333,2.333,0,0,0,2.326,2.326h80.71a2.333,2.333,0,0,0,2.326-2.326v-8.97Z" transform="translate(-76.761 -36.536)"/>
        <rect id="Rectangle_106" data-name="Rectangle 106" class="cls-5" width="14.36" height="6.91" transform="translate(100.851 73.932)"/>
        <rect id="Rectangle_107" data-name="Rectangle 107" class="cls-5" width="14.36" height="6.91" transform="translate(40.125 51.264)"/>
        <rect id="Rectangle_108" data-name="Rectangle 108" class="cls-5" width="14.36" height="6.91" transform="translate(92.748 114.262)"/>
        <rect id="Rectangle_109" data-name="Rectangle 109" class="cls-5" width="14.36" height="6.91" transform="translate(47.304 95.052)"/>
        <rect id="Rectangle_110" data-name="Rectangle 110" class="cls-5" width="14.36" height="6.91" transform="translate(40.125 131.601)"/>
        <rect id="Rectangle_111" data-name="Rectangle 111" class="cls-5" width="14.36" height="6.91" transform="translate(77.67 59.181)"/>
        <rect id="Rectangle_112" data-name="Rectangle 112" class="cls-5" width="14.36" height="6.91" transform="translate(94.945 33.819)"/>
        <path id="Path_484" data-name="Path 484" class="cls-5" d="M180.955,428.113a1.666,1.666,0,0,1-1.661,1.661H162.621a1.666,1.666,0,0,1-1.661-1.661V424.68a1.666,1.666,0,0,1,1.661-1.661h16.674a1.666,1.666,0,0,1,1.661,1.661v3.433Z" transform="translate(-110.565 -293.138)"/>
        <path id="Path_485" data-name="Path 485" class="cls-1" d="M184.562,377.074V360.713a1.666,1.666,0,0,0-1.661-1.661H172.27a1.666,1.666,0,0,0-1.661,1.661v16.361Z" transform="translate(-117.193 -249.198)"/>
        <path id="Path_486" data-name="Path 486" class="cls-5" d="M182.9,359.053H172.27a1.666,1.666,0,0,0-1.661,1.661v2.642a1.666,1.666,0,0,1,1.661-1.661H182.9a1.666,1.666,0,0,1,1.661,1.661v-2.642A1.666,1.666,0,0,0,182.9,359.053Z" transform="translate(-117.193 -249.199)"/>
        <path id="Path_487" data-name="Path 487" class="cls-9" d="M180.955,421.707a1.666,1.666,0,0,1-1.661,1.661H162.621a1.666,1.666,0,0,1-1.661-1.661v-3.433a1.666,1.666,0,0,1,1.661-1.661h16.674a1.666,1.666,0,0,1,1.661,1.661v3.433Z" transform="translate(-110.565 -288.737)"/>
        <path id="Path_488" data-name="Path 488" class="cls-5" d="M271.312,428.113a1.666,1.666,0,0,0,1.661,1.661h16.674a1.666,1.666,0,0,0,1.661-1.661V424.68a1.666,1.666,0,0,0-1.661-1.661H272.973a1.666,1.666,0,0,0-1.661,1.661Z" transform="translate(-186.367 -293.138)"/>
        <path id="Path_489" data-name="Path 489" class="cls-1" d="M280.963,377.074V360.713a1.665,1.665,0,0,1,1.66-1.661h10.632a1.666,1.666,0,0,1,1.661,1.661v16.361Z" transform="translate(-192.997 -249.198)"/>
        <path id="Path_490" data-name="Path 490" class="cls-5" d="M282.622,359.053h10.632a1.666,1.666,0,0,1,1.661,1.661v2.642a1.666,1.666,0,0,0-1.661-1.661H282.622a1.666,1.666,0,0,0-1.66,1.661v-2.642A1.665,1.665,0,0,1,282.622,359.053Z" transform="translate(-192.996 -249.199)"/>
        <path id="Path_491" data-name="Path 491" class="cls-9" d="M271.312,421.707a1.666,1.666,0,0,0,1.661,1.661h16.674a1.666,1.666,0,0,0,1.661-1.661v-3.433a1.666,1.666,0,0,0-1.661-1.661H272.973a1.666,1.666,0,0,0-1.661,1.661Z" transform="translate(-186.367 -288.737)"/>
        <path id="Path_492" data-name="Path 492" class="cls-5" d="M180.955,310.852a1.666,1.666,0,0,1-1.661,1.661H162.621a1.666,1.666,0,0,1-1.661-1.661V307.42a1.666,1.666,0,0,1,1.661-1.662h16.674a1.666,1.666,0,0,1,1.661,1.662v3.433Z" transform="translate(-110.565 -212.59)"/>
        <path id="Path_493" data-name="Path 493" class="cls-1" d="M184.562,259.815V243.454a1.666,1.666,0,0,0-1.661-1.661H172.27a1.666,1.666,0,0,0-1.661,1.661v16.361Z" transform="translate(-117.193 -168.652)"/>
        <path id="Path_494" data-name="Path 494" class="cls-5" d="M182.9,241.793H172.27a1.666,1.666,0,0,0-1.661,1.661V246.1a1.666,1.666,0,0,1,1.661-1.661H182.9a1.666,1.666,0,0,1,1.661,1.661v-2.642A1.666,1.666,0,0,0,182.9,241.793Z" transform="translate(-117.193 -168.652)"/>
        <path id="Path_495" data-name="Path 495" class="cls-9" d="M180.955,304.446a1.666,1.666,0,0,1-1.661,1.661H162.621a1.666,1.666,0,0,1-1.661-1.661v-3.433a1.666,1.666,0,0,1,1.661-1.661h16.674a1.666,1.666,0,0,1,1.661,1.661v3.433Z" transform="translate(-110.565 -208.19)"/>
        <path id="Path_496" data-name="Path 496" class="cls-5" d="M271.312,310.852a1.666,1.666,0,0,0,1.661,1.661h16.674a1.666,1.666,0,0,0,1.661-1.661V307.42a1.666,1.666,0,0,0-1.661-1.662H272.973a1.666,1.666,0,0,0-1.661,1.662Z" transform="translate(-186.367 -212.59)"/>
        <path id="Path_497" data-name="Path 497" class="cls-1" d="M280.963,259.815V243.454a1.665,1.665,0,0,1,1.66-1.661h10.632a1.666,1.666,0,0,1,1.661,1.661v16.361Z" transform="translate(-192.997 -168.652)"/>
        <path id="Path_498" data-name="Path 498" class="cls-5" d="M282.622,241.793h10.632a1.666,1.666,0,0,1,1.661,1.661V246.1a1.666,1.666,0,0,0-1.661-1.661H282.622a1.665,1.665,0,0,0-1.66,1.661v-2.642A1.665,1.665,0,0,1,282.622,241.793Z" transform="translate(-192.996 -168.652)"/>
        <path id="Path_499" data-name="Path 499" class="cls-9" d="M271.312,304.446a1.666,1.666,0,0,0,1.661,1.661h16.674a1.666,1.666,0,0,0,1.661-1.661v-3.433a1.666,1.666,0,0,0-1.661-1.661H272.973a1.666,1.666,0,0,0-1.661,1.661Z" transform="translate(-186.367 -208.19)"/>
        <path id="Path_500" data-name="Path 500" class="cls-5" d="M180.955,193.592a1.666,1.666,0,0,1-1.661,1.661H162.621a1.666,1.666,0,0,1-1.661-1.661v-3.433a1.666,1.666,0,0,1,1.661-1.661h16.674a1.666,1.666,0,0,1,1.661,1.661v3.433Z" transform="translate(-110.565 -132.043)"/>
        <path id="Path_501" data-name="Path 501" class="cls-1" d="M184.562,142.554v-16.36a1.666,1.666,0,0,0-1.661-1.661H172.27a1.666,1.666,0,0,0-1.661,1.661v16.36Z" transform="translate(-117.193 -88.104)"/>
        <path id="Path_502" data-name="Path 502" class="cls-5" d="M182.9,124.533H172.27a1.666,1.666,0,0,0-1.661,1.661v2.642a1.666,1.666,0,0,1,1.661-1.662H182.9a1.666,1.666,0,0,1,1.661,1.662v-2.642A1.666,1.666,0,0,0,182.9,124.533Z" transform="translate(-117.193 -88.104)"/>
        <path id="Path_503" data-name="Path 503" class="cls-9" d="M180.955,187.185a1.666,1.666,0,0,1-1.661,1.661H162.621a1.666,1.666,0,0,1-1.661-1.661v-3.433a1.666,1.666,0,0,1,1.661-1.661h16.674a1.666,1.666,0,0,1,1.661,1.661v3.433Z" transform="translate(-110.565 -127.642)"/>
        <path id="Path_504" data-name="Path 504" class="cls-5" d="M271.312,193.592a1.666,1.666,0,0,0,1.661,1.661h16.674a1.666,1.666,0,0,0,1.661-1.661v-3.433a1.666,1.666,0,0,0-1.661-1.661H272.973a1.666,1.666,0,0,0-1.661,1.661Z" transform="translate(-186.367 -132.043)"/>
        <path id="Path_505" data-name="Path 505" class="cls-1" d="M280.963,142.554v-16.36a1.665,1.665,0,0,1,1.66-1.661h10.632a1.666,1.666,0,0,1,1.661,1.661v16.36Z" transform="translate(-192.997 -88.104)"/>
        <path id="Path_506" data-name="Path 506" class="cls-5" d="M282.622,124.533h10.632a1.666,1.666,0,0,1,1.661,1.661v2.642a1.667,1.667,0,0,0-1.661-1.662H282.622a1.666,1.666,0,0,0-1.66,1.662v-2.642A1.665,1.665,0,0,1,282.622,124.533Z" transform="translate(-192.996 -88.104)"/>
        <path id="Path_507" data-name="Path 507" class="cls-9" d="M271.312,187.185a1.666,1.666,0,0,0,1.661,1.661h16.674a1.666,1.666,0,0,0,1.661-1.661v-3.433a1.666,1.666,0,0,0-1.661-1.661H272.973a1.666,1.666,0,0,0-1.661,1.661Z" transform="translate(-186.367 -127.642)"/>
        <path id="Path_508" data-name="Path 508" class="cls-11" d="M163.269,478.155a1.342,1.342,0,0,1-1.338,1.339H9.277a1.342,1.342,0,0,1-1.338-1.339v-4.791a1.342,1.342,0,0,1,1.338-1.339H161.931a1.342,1.342,0,0,1,1.338,1.339v4.791Z" transform="translate(-5.453 -326.801)"/>
        <rect id="Rectangle_113" data-name="Rectangle 113" class="cls-9" width="107.303" height="7.469" transform="translate(26.499 145.225)"/>
        <path id="Path_509" data-name="Path 509" class="cls-12" d="M52.056,71.871H68.729a4.152,4.152,0,0,0,4.147-4.147V64.292A4.151,4.151,0,0,0,69.855,60.3V46.27a4.151,4.151,0,0,0-4.146-4.147H55.077A4.151,4.151,0,0,0,50.93,46.27V60.3a4.151,4.151,0,0,0-3.021,3.987v3.433A4.151,4.151,0,0,0,52.056,71.871ZM55.9,47.095h8.983V60.146H55.9ZM52.88,65.117H67.9V66.9H52.88V65.117Zm103.6,85.8H127.8V58.671A12.61,12.61,0,0,0,117.7,46.33V37.212h.327a4.817,4.817,0,0,0,4.811-4.811V23.43a4.817,4.817,0,0,0-4.811-4.811H78.16V13.989a5.815,5.815,0,0,0-5.808-5.808H50.626a5.815,5.815,0,0,0-5.808,5.808v4.63H37.313A4.817,4.817,0,0,0,32.5,23.43V32.4a4.817,4.817,0,0,0,4.812,4.811h.327V150.92H3.824A3.829,3.829,0,0,0,0,154.744v4.791a3.829,3.829,0,0,0,3.824,3.824H156.478a3.829,3.829,0,0,0,3.824-3.824v-4.791A3.829,3.829,0,0,0,156.477,150.92ZM122.829,58.671V69.305H117.7V51.471A7.631,7.631,0,0,1,122.829,58.671ZM117.7,119.959V99.6h5.133v20.356Zm5.133,4.971v25.99H117.7V124.93Zm-5.133-30.3V74.276h5.133V94.632ZM49.789,13.989a.848.848,0,0,1,.837-.837H72.353a.848.848,0,0,1,.837.837v4.63H49.79v-4.63ZM37.472,32.241V23.59h80.391v8.651Zm75.253,4.971V150.92H42.61V37.212ZM24.013,158.388H4.971v-2.5H24.013Zm107.3,0H28.984v-2.5H131.317v2.5Zm24.014,0H136.288v-2.5h19.043ZM86.606,145.3H103.28a4.152,4.152,0,0,0,4.147-4.147v-3.433a4.151,4.151,0,0,0-3.021-3.987V119.7a4.151,4.151,0,0,0-4.146-4.147H89.628a4.151,4.151,0,0,0-4.147,4.147V133.73a4.151,4.151,0,0,0-3.021,3.987v3.433A4.151,4.151,0,0,0,86.606,145.3Zm3.845-24.777h8.982v13.051H90.452Zm-3.021,18.022h15.025v1.784H87.431ZM52.056,145.3H68.729a4.152,4.152,0,0,0,4.147-4.147v-3.433a4.151,4.151,0,0,0-3.021-3.987V119.7a4.151,4.151,0,0,0-4.146-4.147H55.077A4.151,4.151,0,0,0,50.93,119.7V133.73a4.151,4.151,0,0,0-3.021,3.987v3.433A4.151,4.151,0,0,0,52.056,145.3ZM55.9,120.52h8.983v13.051H55.9ZM52.88,138.542H67.9v1.784H52.88v-1.784Zm-.825-29.958H68.729a4.152,4.152,0,0,0,4.147-4.147V101a4.151,4.151,0,0,0-3.021-3.987V82.983a4.151,4.151,0,0,0-4.146-4.147H55.077a4.151,4.151,0,0,0-4.147,4.147V97.017A4.151,4.151,0,0,0,47.909,101v3.433A4.151,4.151,0,0,0,52.056,108.585ZM55.9,83.808h8.983V96.858H55.9ZM52.88,101.829H67.9v1.784H52.88v-1.784ZM86.606,71.871H103.28a4.152,4.152,0,0,0,4.147-4.147V64.292a4.151,4.151,0,0,0-3.021-3.987V46.27a4.151,4.151,0,0,0-4.146-4.147H89.628a4.151,4.151,0,0,0-4.147,4.147V60.3a4.151,4.151,0,0,0-3.021,3.987v3.433A4.151,4.151,0,0,0,86.606,71.871Zm3.845-24.777h8.982V60.146H90.452ZM87.431,65.117h15.025V66.9H87.431Zm-.824,43.468H103.28a4.152,4.152,0,0,0,4.147-4.147V101a4.151,4.151,0,0,0-3.021-3.987V82.983a4.151,4.151,0,0,0-4.146-4.147H89.628a4.151,4.151,0,0,0-4.147,4.147V97.017A4.151,4.151,0,0,0,82.46,101v3.433A4.151,4.151,0,0,0,86.606,108.585Zm3.845-24.777h8.982V96.858H90.452Zm-3.021,18.022h15.025v1.784H87.431Z" transform="translate(0 -8.181)"/>
      </g>
      <g id="school" transform="translate(6846.778 108.503)">
        <path id="Path_510" data-name="Path 510" class="cls-18" d="M156.939,170.7a6.37,6.37,0,0,0-4.923-2.8H31.906a6.37,6.37,0,0,0-4.924,2.8l-9.39,15.768c-.917,1.539-.2,2.8,1.59,2.8H164.739c1.791,0,2.507-1.259,1.591-2.8Z" transform="translate(-11.81 -126.818)"/>
        <path id="Path_511" data-name="Path 511" class="cls-8" d="M31.141,195.016H89.924v-4.971H34.1Zm137.841-4.971H112.491v4.971h59.451Z" transform="translate(-21.391 -142.027)"/>
        <path id="Path_512" data-name="Path 512" class="cls-7" d="M110.083,174,93.159,146.839,76.234,174H19.425V239.73H166.892V174Z" transform="translate(-13.343 -112.348)"/>
        <path id="Path_513" data-name="Path 513" class="cls-8" d="M115.376,181.037a4.505,4.505,0,0,1-3.422-1.894l-1.026-1.637h-.845L94.311,152.192a2.736,2.736,0,0,0-2.306,0L76.234,177.506h-.843l-1.026,1.637a4.506,4.506,0,0,1-3.422,1.894H19.425v8.734H73.717a4.311,4.311,0,0,0,3.359-1.933l13.258-20.3c1.554-2.651,4.1-2.651,5.652,0l13.258,20.3a4.311,4.311,0,0,0,3.359,1.933h54.29v-8.734Z" transform="translate(-13.343 -115.85)"/>
        <g id="Group_129" data-name="Group 129" transform="translate(6.082 67.837)">
          <rect id="Rectangle_114" data-name="Rectangle 114" class="cls-11" width="14.323" height="6.893" transform="translate(133.144 7.648)"/>
          <rect id="Rectangle_115" data-name="Rectangle 115" class="cls-11" width="14.323" height="6.892" transform="translate(90.182 21.918)"/>
          <rect id="Rectangle_116" data-name="Rectangle 116" class="cls-11" width="14.323" height="6.892" transform="translate(116.121 46.385)"/>
          <rect id="Rectangle_117" data-name="Rectangle 117" class="cls-11" width="14.323" height="6.892" transform="translate(41.779 48.215)"/>
          <rect id="Rectangle_118" data-name="Rectangle 118" class="cls-11" width="14.323" height="6.892" transform="translate(0 14.267)"/>
          <rect id="Rectangle_119" data-name="Rectangle 119" class="cls-11" width="14.323" height="6.892" transform="translate(34.617)"/>
        </g>
        <rect id="Rectangle_120" data-name="Rectangle 120" class="cls-9" width="24.603" height="33.842" transform="translate(67.515 93.54)"/>
        <rect id="Rectangle_121" data-name="Rectangle 121" class="cls-8" width="24.603" height="4.277" transform="translate(67.515 93.54)"/>
        <g id="Group_130" data-name="Group 130" transform="translate(41.792 87.833)">
          <rect id="Rectangle_122" data-name="Rectangle 122" class="cls-1" width="4.971" height="9.365" transform="translate(30.416 13.538)"/>
          <rect id="Rectangle_123" data-name="Rectangle 123" class="cls-1" width="4.971" height="9.365" transform="translate(40.659 13.538)"/>
          <rect id="Rectangle_124" data-name="Rectangle 124" class="cls-1" width="14.46" height="19.894"/>
        </g>
        <rect id="Rectangle_125" data-name="Rectangle 125" class="cls-5" width="14.46" height="4.387" transform="translate(41.792 87.833)"/>
        <rect id="Rectangle_126" data-name="Rectangle 126" class="cls-1" width="14.46" height="19.894" transform="translate(13.733 87.833)"/>
        <rect id="Rectangle_127" data-name="Rectangle 127" class="cls-5" width="14.46" height="4.387" transform="translate(13.733 87.833)"/>
        <rect id="Rectangle_128" data-name="Rectangle 128" class="cls-1" width="14.46" height="19.894" transform="translate(103.379 87.833)"/>
        <rect id="Rectangle_129" data-name="Rectangle 129" class="cls-5" width="14.46" height="4.387" transform="translate(103.379 87.833)"/>
        <rect id="Rectangle_130" data-name="Rectangle 130" class="cls-1" width="14.46" height="19.894" transform="translate(131.438 87.833)"/>
        <rect id="Rectangle_131" data-name="Rectangle 131" class="cls-5" width="14.46" height="4.387" transform="translate(131.438 87.833)"/>
        <rect id="Rectangle_132" data-name="Rectangle 132" class="cls-2" width="28.709" height="16.454" transform="translate(79.817 4.769)"/>
        <rect id="Rectangle_133" data-name="Rectangle 133" class="cls-8" width="7.516" height="16.454" transform="translate(79.817 4.769)"/>
        <path id="Path_514" data-name="Path 514" class="cls-2" d="M88.238,134.459c-1.632-2.6-4.3-2.6-5.935,0L66.475,159.715a4.507,4.507,0,0,1-3.422,1.894H10.174a2.242,2.242,0,0,0-2.235,2.235v4.264a2.242,2.242,0,0,0,2.235,2.235H65.828a4.312,4.312,0,0,0,3.359-1.932l13.258-20.3c1.554-2.652,4.1-2.652,5.652,0l13.258,20.3a4.312,4.312,0,0,0,3.359,1.932h55.652a2.242,2.242,0,0,0,2.235-2.235v-4.264a2.242,2.242,0,0,0-2.235-2.235H107.487a4.5,4.5,0,0,1-3.422-1.894Z" transform="translate(-5.453 -102.503)"/>
        <ellipse id="Ellipse_22" data-name="Ellipse 22" class="cls-1" cx="11.284" cy="11.284" rx="11.284" ry="11.284" transform="translate(68.533 64.201)"/>
        <path id="Path_515" data-name="Path 515" class="cls-6" d="M163.269,449.661A1.342,1.342,0,0,1,161.931,451H9.278a1.343,1.343,0,0,1-1.339-1.339V444.87a1.343,1.343,0,0,1,1.339-1.339H161.931a1.342,1.342,0,0,1,1.338,1.339Z" transform="translate(-5.453 -316.149)"/>
        <rect id="Rectangle_134" data-name="Rectangle 134" class="cls-11" width="40.096" height="7.469" transform="translate(60.102 127.382)"/>
        <g id="Group_131" data-name="Group 131" transform="translate(16.864 116.053)">
          <path id="Path_516" data-name="Path 516" class="cls-15" d="M429.383,418.675a11.329,11.329,0,0,0-22.658,0Z" transform="translate(-296.248 -407.346)"/>
          <path id="Path_517" data-name="Path 517" class="cls-15" d="M76.521,418.675a11.329,11.329,0,0,0-22.658,0Z" transform="translate(-53.863 -407.346)"/>
        </g>
        <path id="Path_518" data-name="Path 518" class="cls-12" d="M117.839,122.026h-14.46a2.486,2.486,0,0,0-2.486,2.486v19.895a2.486,2.486,0,0,0,2.486,2.486h14.46a2.486,2.486,0,0,0,2.486-2.486V124.511A2.486,2.486,0,0,0,117.839,122.026Zm-2.486,19.895h-9.489v-4.976h9.489Zm0-9.947h-9.489V127h9.489Zm33.032-7.462a2.486,2.486,0,0,0-2.486-2.486H131.44a2.486,2.486,0,0,0-2.486,2.486v19.895a2.486,2.486,0,0,0,2.486,2.486H145.9a2.486,2.486,0,0,0,2.486-2.486Zm-4.971,17.409h-9.489v-4.976h9.489Zm0-9.947h-9.489V127h9.489ZM28.193,122.026H13.733a2.486,2.486,0,0,0-2.486,2.486v19.895a2.486,2.486,0,0,0,2.486,2.486h14.46a2.486,2.486,0,0,0,2.486-2.486V124.511A2.485,2.485,0,0,0,28.193,122.026ZM25.707,141.92H16.218v-4.976h9.489v4.976Zm0-9.947H16.218V127h9.489v4.977Zm130.77,29.6h-.441V106.86a4.724,4.724,0,0,0,3.6-4.579V98.017a4.725,4.725,0,0,0-3.988-4.658l-8.38-14.071a8.847,8.847,0,0,0-7.058-4.012H89.881L84.89,67.312a6.919,6.919,0,0,0-2.589-2.49V60.386h26.224a2.486,2.486,0,0,0,2.486-2.486V41.446a2.486,2.486,0,0,0-2.486-2.486H82.291a2.485,2.485,0,0,0-4.961.2v25.66a6.929,6.929,0,0,0-2.588,2.49l-4.991,7.964H20.1a8.845,8.845,0,0,0-7.059,4.012L4.694,93.3A4.725,4.725,0,0,0,0,98.017v4.264a4.725,4.725,0,0,0,3.6,4.58v54.724A3.826,3.826,0,0,0,0,165.4v4.791a3.829,3.829,0,0,0,3.824,3.824H156.477a3.829,3.829,0,0,0,3.824-3.824V165.4A3.829,3.829,0,0,0,156.477,161.572ZM82.3,43.931H106.04V55.414H82.3V43.931Zm57.9,36.316a3.968,3.968,0,0,1,2.788,1.585L149.821,93.3H102.033a2.171,2.171,0,0,1-1.316-.729L93,80.247Zm-122.9,1.585A3.967,3.967,0,0,1,20.1,80.247H66.637l-7.721,12.32A2.175,2.175,0,0,1,57.6,93.3H10.481ZM4.971,98.267H57.6a6.948,6.948,0,0,0,5.528-3.06L78.955,69.952c.362-.578.714-.787.862-.787s.5.21.862.787L96.505,95.207a6.947,6.947,0,0,0,5.529,3.06h52.628v3.763h-55.4a1.946,1.946,0,0,1-1.21-.7l-13.3-20.363a5.436,5.436,0,0,0-9.874,0L61.652,101.225l-.068.109a1.947,1.947,0,0,1-1.21.7H4.971Zm133.7,51.976a13.834,13.834,0,0,0-13.586,11.329H94.6V127.731H65.029v33.841H41.779a13.811,13.811,0,0,0-27.172,0H8.567V107H60.374a6.761,6.761,0,0,0,5.469-3.1L79.072,83.643l.063-.1a1.932,1.932,0,0,1,.665-.761c.075.017.365.193.7.761L93.79,103.9a6.76,6.76,0,0,0,5.469,3.1h51.807v50.967A13.829,13.829,0,0,0,138.67,150.243Zm8.485,11.329h-16.97a8.841,8.841,0,0,1,16.97,0ZM89.631,132.7v28.871H70V132.7Zm-52.953,28.87H19.707a8.841,8.841,0,0,1,16.971,0Zm20.939,7.468H4.971v-2.5H57.617Zm40.1,0H62.588v-2.5H97.713Zm57.617,0H102.684v-2.5H155.33v2.5ZM79.816,98.393a13.769,13.769,0,1,0,13.768,13.768A13.784,13.784,0,0,0,79.816,98.393Zm0,22.567a8.8,8.8,0,1,1,8.8-8.8A8.808,8.808,0,0,1,79.816,120.96Zm4.322-11.283H82.3V107.84a2.486,2.486,0,1,0-4.971,0v4.322a2.486,2.486,0,0,0,2.486,2.486h4.322a2.486,2.486,0,1,0,0-4.971ZM56.253,122.026H41.794a2.486,2.486,0,0,0-2.486,2.486v19.895a2.486,2.486,0,0,0,2.486,2.486h14.46a2.486,2.486,0,0,0,2.486-2.486V124.511A2.485,2.485,0,0,0,56.253,122.026ZM53.768,141.92H44.279v-4.976h9.489v4.976Zm0-9.947H44.279V127h9.489v4.977Z" transform="translate(0 -36.676)"/>
      </g>
      <g id="factory" transform="translate(7134.194 90.97)">
        <rect id="Rectangle_135" data-name="Rectangle 135" class="cls-11" width="33.488" height="29.219" transform="translate(106.425 116.573)"/>
        <rect id="Rectangle_136" data-name="Rectangle 136" class="cls-8" width="14.36" height="6.91" transform="translate(109.537 126.037)"/>
        <rect id="Rectangle_137" data-name="Rectangle 137" class="cls-8" width="14.36" height="6.91" transform="translate(125.553 135.237)"/>
        <rect id="Rectangle_138" data-name="Rectangle 138" class="cls-8" width="33.488" height="7.844" transform="translate(106.425 116.573)"/>
        <path id="Path_519" data-name="Path 519" class="cls-3" d="M369.857,368.665a1.662,1.662,0,0,0-1.657-1.657H332.079a1.662,1.662,0,0,0-1.657,1.657v5.5a1.662,1.662,0,0,0,1.657,1.657H368.2a1.662,1.662,0,0,0,1.657-1.657Z" transform="translate(-226.971 -254.845)"/>
        <path id="Path_520" data-name="Path 520" class="cls-7" d="M287.783,16.7a13.105,13.105,0,0,0-9.452,4.013,13.145,13.145,0,0,0-20.154,11.121c0,.06,0,.12,0,.179a15.631,15.631,0,1,0,17.656,12.173,13.156,13.156,0,0,0,4.938-3.219A13.146,13.146,0,1,0,287.783,16.7Z" transform="translate(-168.239 -14.216)"/>
        <path id="Path_521" data-name="Path 521" class="cls-9" d="M260.775,114.971h-31.57l-6.941,112.536h45.453Z" transform="translate(-152.676 -81.718)"/>
        <path id="Path_522" data-name="Path 522" class="cls-3" d="M272.7,169.985H239l-.307,4.971H273Zm.623,10.093H238.38l-.307,4.971h35.553Z" transform="translate(-163.535 -119.508)"/>
        <rect id="Rectangle_139" data-name="Rectangle 139" class="cls-11" width="85.646" height="62.226" transform="translate(13.627 83.562)"/>
        <rect id="Rectangle_140" data-name="Rectangle 140" class="cls-8" width="14.36" height="6.91" transform="translate(84.914 123.058)"/>
        <rect id="Rectangle_141" data-name="Rectangle 141" class="cls-8" width="14.36" height="6.91" transform="translate(13.584 114.674)"/>
        <rect id="Rectangle_142" data-name="Rectangle 142" class="cls-8" width="14.36" height="6.91" transform="translate(62.409 88.696)"/>
        <rect id="Rectangle_143" data-name="Rectangle 143" class="cls-8" width="14.36" height="6.91" transform="translate(31.38 83.562)"/>
        <rect id="Rectangle_144" data-name="Rectangle 144" class="cls-8" width="14.36" height="6.91" transform="translate(25.912 132.947)"/>
        <path id="Path_523" data-name="Path 523" class="cls-8" d="M139.313,333.844A3.324,3.324,0,0,0,136,330.53H73.975a3.324,3.324,0,0,0-3.314,3.314v6.086a3.324,3.324,0,0,0,3.314,3.314H136a3.324,3.324,0,0,0,3.314-3.314Z" transform="translate(-48.538 -229.788)"/>
        <path id="Path_524" data-name="Path 524" class="cls-1" d="M139.313,317.438A3.324,3.324,0,0,0,136,314.124H73.975a3.324,3.324,0,0,0-3.314,3.314v6.086a3.324,3.324,0,0,0,3.314,3.314H136a3.324,3.324,0,0,0,3.314-3.314Z" transform="translate(-48.538 -218.519)"/>
        <path id="Path_525" data-name="Path 525" class="cls-8" d="M136,314.124H73.975a3.324,3.324,0,0,0-3.314,3.314v4.225a3.324,3.324,0,0,1,3.314-3.314H136a3.324,3.324,0,0,1,3.314,3.314v-4.225A3.324,3.324,0,0,0,136,314.124Z" transform="translate(-48.538 -218.519)"/>
        <g id="Group_132" data-name="Group 132" transform="translate(13.626 70.104)">
          <path id="Path_526" data-name="Path 526" class="cls-7" d="M43.522,233.193v12.938H57.8L44.83,233.165C44.313,232.647,43.522,232.372,43.522,233.193Z" transform="translate(-43.522 -232.673)"/>
          <path id="Path_527" data-name="Path 527" class="cls-7" d="M89.114,233.193v12.938h14.274L90.422,233.165C89.9,232.647,89.114,232.372,89.114,233.193Z" transform="translate(-74.84 -232.673)"/>
          <path id="Path_528" data-name="Path 528" class="cls-7" d="M134.706,233.193v12.938H148.98l-12.967-12.967C135.5,232.647,134.706,232.372,134.706,233.193Z" transform="translate(-106.157 -232.673)"/>
          <path id="Path_529" data-name="Path 529" class="cls-7" d="M180.3,233.193v12.938h14.274L181.6,233.165C181.088,232.647,180.3,232.372,180.3,233.193Z" transform="translate(-137.474 -232.673)"/>
          <path id="Path_530" data-name="Path 530" class="cls-7" d="M225.89,233.193v12.938h14.274L227.2,233.165C226.681,232.647,225.89,232.372,225.89,233.193Z" transform="translate(-168.793 -232.673)"/>
          <path id="Path_531" data-name="Path 531" class="cls-7" d="M271.482,233.193v12.938h14.274L272.79,233.165C272.273,232.647,271.482,232.372,271.482,233.193Z" transform="translate(-200.11 -232.673)"/>
          <rect id="Rectangle_145" data-name="Rectangle 145" class="cls-7" width="39.715" height="25.683" transform="translate(22.967 50.002)"/>
        </g>
        <rect id="Rectangle_146" data-name="Rectangle 146" class="cls-8" width="39.715" height="4.971" transform="translate(36.593 125.408)"/>
        <rect id="Rectangle_147" data-name="Rectangle 147" class="cls-8" width="39.715" height="4.971" transform="translate(36.593 134.852)"/>
        <path id="Path_532" data-name="Path 532" class="cls-9" d="M163.269,477.573a1.342,1.342,0,0,1-1.338,1.338H9.277a1.342,1.342,0,0,1-1.338-1.338v-4.791a1.342,1.342,0,0,1,1.338-1.339H161.931a1.342,1.342,0,0,1,1.338,1.339v4.791Z" transform="translate(-5.453 -326.583)"/>
        <path id="Path_533" data-name="Path 533" class="cls-12" d="M160.394,151.137h-18v-19.08a4.147,4.147,0,0,0,2.974-3.972v-5.5a4.147,4.147,0,0,0-4.142-4.142H115.3L110.58,41.862a2.484,2.484,0,0,0-.172-.764c-.015-.29-.036-.58-.065-.871a15.837,15.837,0,0,0,2.557-1.684,15.632,15.632,0,1,0-3.175-26.312,15.633,15.633,0,0,0-22.163,12.3A18.12,18.12,0,0,0,74.222,41.1a2.474,2.474,0,0,0-.174.766L71.913,76.488a2.981,2.981,0,0,0-1.906.112,2.929,2.929,0,0,0-1.768,2.788v6.937L59.515,77.6a3.493,3.493,0,0,0-3.782-1,2.928,2.928,0,0,0-1.768,2.788v6.937L45.241,77.6a3.493,3.493,0,0,0-3.782-1,2.929,2.929,0,0,0-1.769,2.788v6.937L30.966,77.6a3.493,3.493,0,0,0-3.782-1,2.929,2.929,0,0,0-1.768,2.788v6.937L16.692,77.6a3.493,3.493,0,0,0-3.782-1,2.928,2.928,0,0,0-1.768,2.788v71.751H3.825A3.828,3.828,0,0,0,0,154.962v4.791a3.829,3.829,0,0,0,3.824,3.824H160.395s-.093-1.716-.093-3.824v-4.791ZM140.4,123.411v3.846H115.848l-.237-3.846Zm-2.974,8.817v18.91H117.321l-1.167-18.91ZM90.317,29.02a2.487,2.487,0,0,0,2.111-2.491l0-.146a10.659,10.659,0,0,1,16.342-9.019,2.484,2.484,0,0,0,3.114-.374,10.661,10.661,0,1,1,1.984,16.425,2.486,2.486,0,0,0-3.115.374,10.724,10.724,0,0,1-4,2.612,2.485,2.485,0,0,0-1.577,2.854c.019.091.034.184.051.276H79.41A13.238,13.238,0,0,1,90.317,29.02ZM78.866,44.5h26.9l6.578,106.636H101.758V92.325a2.478,2.478,0,0,0-.731-1.76L88.063,77.6a3.493,3.493,0,0,0-3.782-1,2.928,2.928,0,0,0-1.768,2.788v6.937L76.649,80.46ZM93.272,89.84H87.483V84.051ZM73.209,84.051,79,89.84H73.209Zm-14.275,0,5.788,5.788H58.935Zm-14.274,0,5.788,5.788H44.66Zm-14.274,0,5.788,5.788H30.386Zm-14.274,0L21.9,89.84H16.112Zm0,10.76H96.787v56.327h-18V128.869a2.485,2.485,0,0,0-2.486-2.486H36.593a2.485,2.485,0,0,0-2.486,2.486v22.269h-18ZM73.82,131.354v19.783H39.078V131.354Zm81.51,27.252H4.971v-2.5h150.36v2.5Zm-62.07-44.838v-6.086a5.806,5.806,0,0,0-5.8-5.8H25.437a5.806,5.806,0,0,0-5.8,5.8v6.086a5.806,5.806,0,0,0,5.8,5.8H87.461A5.806,5.806,0,0,0,93.261,113.768Zm-57.186.828H25.437a.84.84,0,0,1-.828-.828v-6.086a.84.84,0,0,1,.828-.828H36.075Zm17.889,0H41.046v-7.742H53.964Zm17.889,0H58.935v-7.742H71.852Zm4.971-7.742H87.461a.84.84,0,0,1,.828.828v6.086a.84.84,0,0,1-.828.828H76.823v-7.742Z" transform="translate(0 -8.763)"/>
      </g>
      <g id="pizzeria" transform="translate(7294.199 113.91)">
        <rect id="Rectangle_473" data-name="Rectangle 473" class="cls-18" width="129.244" height="78.969" transform="translate(16.089 42.974)"/>
        <g id="Group_2822" data-name="Group 2822" transform="translate(16.089 89.858)">
          <rect id="Rectangle_474" data-name="Rectangle 474" class="cls-20" width="44.138" height="5.006"/>
          <rect id="Rectangle_475" data-name="Rectangle 475" class="cls-20" width="44.138" height="5.006" transform="translate(85.109)"/>
        </g>
        <rect id="Rectangle_476" data-name="Rectangle 476" class="cls-5" width="7.23" height="6.959" transform="translate(16.089 114.985)"/>
        <rect id="Rectangle_477" data-name="Rectangle 477" class="cls-5" width="14.46" height="6.958" transform="translate(16.089 76.143)"/>
        <rect id="Rectangle_478" data-name="Rectangle 478" class="cls-5" width="14.46" height="6.958" transform="translate(108.914 80.064)"/>
        <rect id="Rectangle_479" data-name="Rectangle 479" class="cls-5" width="14.46" height="6.959" transform="translate(97.774 108.551)"/>
        <rect id="Rectangle_480" data-name="Rectangle 480" class="cls-5" width="14.46" height="6.958" transform="translate(120.704 42.974)"/>
        <rect id="Rectangle_481" data-name="Rectangle 481" class="cls-5" width="14.46" height="6.959" transform="translate(130.876 98.112)"/>
        <rect id="Rectangle_482" data-name="Rectangle 482" class="cls-5" width="14.46" height="6.958" transform="translate(43.614 52.869)"/>
        <rect id="Rectangle_483" data-name="Rectangle 483" class="cls-5" width="14.46" height="6.959" transform="translate(24.258 40.161)"/>
        <rect id="Rectangle_484" data-name="Rectangle 484" class="cls-5" width="14.46" height="6.958" transform="translate(36.075 99.924)"/>
        <path id="Path_7214" data-name="Path 7214" class="cls-11" d="M164.359,439.659a1.352,1.352,0,0,1-1.348,1.348H9.287a1.352,1.352,0,0,1-1.348-1.348v-4.824a1.352,1.352,0,0,1,1.348-1.348H163.012a1.352,1.352,0,0,1,1.348,1.348v4.824Z" transform="translate(-5.436 -311.544)"/>
        <rect id="Rectangle_485" data-name="Rectangle 485" class="cls-2" width="40.971" height="43.184" transform="translate(60.227 78.759)"/>
        <rect id="Rectangle_486" data-name="Rectangle 486" class="cls-5" width="5.006" height="43.184" transform="translate(78.208 78.759)"/>
        <path id="Path_7215" data-name="Path 7215" class="cls-9" d="M180.276,149.41V137.965a5.021,5.021,0,0,0-5.006-5.006H56.038a5.021,5.021,0,0,0-5.006,5.006V149.41Z" transform="translate(-34.942 -105.769)"/>
        <circle id="Ellipse_281" data-name="Ellipse 281" class="cls-1" cx="28.2" cy="28.2" r="28.2" transform="translate(52.511 2.503)"/>
        <path id="Path_7216" data-name="Path 7216" class="cls-5" d="M194.752,54.661a28.158,28.158,0,0,0-27.991,31.583.591.591,0,0,1,.064.172,28.013,28.013,0,0,1,1.268-5.293l26.659,26.659,26.659-26.659a28.024,28.024,0,0,1,1.268,5.293.484.484,0,0,1,.063-.16,28.157,28.157,0,0,0-27.99-31.595Z" transform="translate(-114.04 -52.157)"/>
        <path id="Path_7217" data-name="Path 7217" class="cls-9" d="M189.317,108.128a30.7,30.7,0,1,1,30.7-30.7A30.739,30.739,0,0,1,189.317,108.128Zm0-56.4a25.7,25.7,0,1,0,25.7,25.7A25.727,25.727,0,0,0,189.317,51.727Z" transform="translate(-108.605 -46.721)"/>
        <path id="Path_7218" data-name="Path 7218" class="cls-10" d="M155.367,88.2l31.727,31.726,32.258-32.258A45.628,45.628,0,0,0,155.367,88.2Z" transform="translate(-106.382 -65.975)"/>
        <path id="Path_7219" data-name="Path 7219" class="cls-20" d="M180.632,120.632l23.761,23.761L228.685,120.1A34.363,34.363,0,0,0,180.632,120.632Z" transform="translate(-123.681 -90.437)"/>
        <g id="Group_2823" data-name="Group 2823" transform="translate(60.883 27.969)">
          <path id="Path_7220" data-name="Path 7220" class="cls-21" d="M206.61,162.391A9.551,9.551,0,0,0,193.1,148.884Z" transform="translate(-193.103 -142.727)"/>
          <path id="Path_7221" data-name="Path 7221" class="cls-21" d="M262.051,138.228A9.554,9.554,0,0,0,265.646,154l12.174-12.174a9.555,9.555,0,0,0-15.769-3.595Z" transform="translate(-238.397 -135.431)"/>
        </g>
        <path id="Path_7222" data-name="Path 7222" class="cls-8" d="M228.686,120.1a34.364,34.364,0,0,0-48.053.532l3.009,3.009a28.652,28.652,0,0,1,40.521,0c.165.165.319.336.479.5Z" transform="translate(-123.682 -90.437)"/>
        <path id="Path_7223" data-name="Path 7223" class="cls-1" d="M372.386,234.768a3.347,3.347,0,0,0-3.337-3.337H348.777a3.347,3.347,0,0,0-3.337,3.337v9.842a3.347,3.347,0,0,0,3.337,3.337h20.272a3.347,3.347,0,0,0,3.337-3.337Z" transform="translate(-236.528 -173.194)"/>
        <path id="Path_7224" data-name="Path 7224" class="cls-5" d="M369.049,231.432H348.777a3.347,3.347,0,0,0-3.337,3.337v4.784a3.347,3.347,0,0,1,3.337-3.337h20.272a3.347,3.347,0,0,1,3.337,3.337v-4.784A3.347,3.347,0,0,0,369.049,231.432Z" transform="translate(-236.528 -173.195)"/>
        <path id="Path_7225" data-name="Path 7225" class="cls-9" d="M363.614,245.017H343.342a5.847,5.847,0,0,1-5.84-5.84v-9.842a5.847,5.847,0,0,1,5.84-5.84h20.272a5.847,5.847,0,0,1,5.84,5.84v9.842A5.846,5.846,0,0,1,363.614,245.017ZM343.342,228.5a.846.846,0,0,0-.834.834v9.842a.846.846,0,0,0,.834.834h20.272a.846.846,0,0,0,.834-.834v-9.842a.846.846,0,0,0-.834-.834Z" transform="translate(-231.092 -167.76)"/>
        <path id="Path_7226" data-name="Path 7226" class="cls-1" d="M81.085,234.768a3.347,3.347,0,0,1,3.337-3.337h20.272a3.347,3.347,0,0,1,3.337,3.337v9.842a3.347,3.347,0,0,1-3.337,3.337H84.422a3.347,3.347,0,0,1-3.337-3.337v-9.842Z" transform="translate(-55.52 -173.194)"/>
        <path id="Path_7227" data-name="Path 7227" class="cls-5" d="M84.422,231.432h20.272a3.347,3.347,0,0,1,3.337,3.337v4.784a3.347,3.347,0,0,0-3.337-3.337H84.422a3.347,3.347,0,0,0-3.337,3.337v-4.784A3.347,3.347,0,0,1,84.422,231.432Z" transform="translate(-55.52 -173.195)"/>
        <g id="Group_2824" data-name="Group 2824" transform="translate(23.062 55.735)">
          <path id="Path_7228" data-name="Path 7228" class="cls-9" d="M99.259,245.017H78.987a5.847,5.847,0,0,1-5.84-5.84v-9.842a5.847,5.847,0,0,1,5.84-5.84H99.259a5.847,5.847,0,0,1,5.84,5.84v9.842A5.846,5.846,0,0,1,99.259,245.017ZM78.987,228.5a.846.846,0,0,0-.834.834v9.842a.846.846,0,0,0,.834.834H99.259a.846.846,0,0,0,.834-.834v-9.842a.846.846,0,0,0-.834-.834Z" transform="translate(-73.147 -223.495)"/>
          <rect id="Rectangle_487" data-name="Rectangle 487" class="cls-9" width="80.901" height="7.521" transform="translate(17.201 66.208)"/>
        </g>
        <g id="Group_2825" data-name="Group 2825" transform="translate(8.838 104.547)">
          <path id="Path_7229" data-name="Path 7229" class="cls-6" d="M406.819,395.709a17.395,17.395,0,0,0-34.789,0Z" transform="translate(-263.572 -378.315)"/>
          <path id="Path_7230" data-name="Path 7230" class="cls-6" d="M62.821,395.709a17.395,17.395,0,0,0-34.789,0Z" transform="translate(-28.032 -378.315)"/>
        </g>
        <path id="Path_7231" data-name="Path 7231" class="cls-9" d="M229.06,334.271h-5.006V293.592H188.09v40.679h-5.006V291.089a2.5,2.5,0,0,1,2.5-2.5h40.97a2.5,2.5,0,0,1,2.5,2.5v43.182Z" transform="translate(-125.36 -212.329)"/>
        <path id="Path_7232" data-name="Path 7232" class="cls-12" d="M112.249,123.976h20.272a5.847,5.847,0,0,0,5.84-5.84v-9.842a5.847,5.847,0,0,0-5.84-5.84H112.249a5.847,5.847,0,0,0-5.84,5.84v9.842A5.847,5.847,0,0,0,112.249,123.976Zm-.834-15.682a.846.846,0,0,1,.834-.834h20.272a.846.846,0,0,1,.834.834v9.842a.846.846,0,0,1-.834.834H112.249a.846.846,0,0,1-.834-.834Zm50.012,57.864h-7a19.872,19.872,0,0,0-6.588-12.414V90.361h0V78.916a7.517,7.517,0,0,0-7.509-7.509H113.52l1.22-1.22a2.5,2.5,0,0,0-.029-3.569,48.344,48.344,0,0,0-8.817-6.761,30.7,30.7,0,0,0-51.128,1.15,48.617,48.617,0,0,0-7.55,6.171,2.5,2.5,0,0,0,0,3.539l.688.688H21.1a7.517,7.517,0,0,0-7.509,7.509v74.4A19.89,19.89,0,0,0,6.5,166.158H0v12.488l161.427-.086v-12.4ZM111.4,76.413h28.933a2.506,2.506,0,0,1,2.5,2.5v8.942H109.589a30.563,30.563,0,0,0,1.826-10.434C111.415,77.087,111.406,76.75,111.4,76.413ZM80.712,51.727a25.678,25.678,0,0,1,11.1,2.518,48.65,48.65,0,0,0-23.29.533A25.659,25.659,0,0,1,80.712,51.727Zm.534,6.362a42.878,42.878,0,0,1,28.1,10.41l-4.441,4.441a36.867,36.867,0,0,0-47.9.5L52.575,69A42.8,42.8,0,0,1,81.246,58.089Zm10.044,14.1A12.054,12.054,0,0,0,79.237,84.24c0,.029,0,.057,0,.086a12.058,12.058,0,0,0-18.172-6.834l-.5-.5a31.833,31.833,0,0,1,40.783-.49l-.456.456a12.179,12.179,0,0,0-1.078-1.239A11.974,11.974,0,0,0,91.291,72.187ZM97.3,80.551l-9.7,9.7a7.048,7.048,0,1,1,9.7-9.7ZM74.684,87.6a7.021,7.021,0,0,1-.622,2.886L64.75,81.174A7.045,7.045,0,0,1,74.684,87.6Zm4.258,14.846a2.487,2.487,0,0,0,1.187.661A25.723,25.723,0,0,1,55.043,78.546Zm-1.2-8.277A11.969,11.969,0,0,0,79.69,87.6c0-.029,0-.057,0-.086a11.986,11.986,0,0,0,3.079,5.249,12.17,12.17,0,0,0,1.239,1.078l-3.294,3.294Zm4.737,8.277,23.9-23.9a25.723,25.723,0,0,1-25.086,24.561A2.493,2.493,0,0,0,82.482,102.446ZM18.593,78.916a2.506,2.506,0,0,1,2.5-2.5H50.029c-.011.337-.02.674-.02,1.011a30.563,30.563,0,0,0,1.826,10.434H18.593Zm0,13.948h35.59a30.688,30.688,0,0,0,53.06,0h35.59v57.649a19.879,19.879,0,0,0-27.875,15.646H103.7V125.48a2.5,2.5,0,0,0-2.5-2.5H60.227a2.5,2.5,0,0,0-2.5,2.5v40.679H45.967a19.887,19.887,0,0,0-27.375-15.866S18.593,92.864,18.593,92.864Zm80.1,35.119v38.176H62.73V127.983Zm-60.935,45.7H5.006v-2.515H37.759Zm-26.2-7.521a14.888,14.888,0,0,1,29.354,0Zm107.105,7.521h-75.9v-2.515h75.9Zm16.029-19.909a14.914,14.914,0,0,1,14.677,12.389H120.014A14.912,14.912,0,0,1,134.691,153.77Zm21.73,19.909H123.667v-2.515h32.754v2.515Zm-107.246-49.7a5.847,5.847,0,0,0,5.84-5.84v-9.842a5.847,5.847,0,0,0-5.84-5.84H28.9a5.847,5.847,0,0,0-5.84,5.84v9.842a5.847,5.847,0,0,0,5.84,5.84Zm-21.106-5.84v-9.842a.846.846,0,0,1,.834-.834H49.174a.846.846,0,0,1,.834.834v9.842a.846.846,0,0,1-.834.834H28.9A.846.846,0,0,1,28.068,118.136Z" transform="translate(0 -46.72)"/>
      </g>
      <g id="house" transform="translate(6089 133.592)">
        <path id="Path_7233" data-name="Path 7233" class="cls-10" d="M96.874,98.446a2.951,2.951,0,0,1-2.943,2.943H72.893a2.951,2.951,0,0,1-2.943-2.943V68.041A2.951,2.951,0,0,1,72.893,65.1H93.931a2.951,2.951,0,0,1,2.943,2.943Z" transform="translate(-51.45 -59.458)"/>
        <rect id="Rectangle_488" data-name="Rectangle 488" class="cls-8" width="15.528" height="7.472" transform="translate(18.5 10.695)"/>
        <rect id="Rectangle_489" data-name="Rectangle 489" class="cls-8" width="15.528" height="7.472" transform="translate(29.896 22.224)"/>
        <path id="Path_7234" data-name="Path 7234" class="cls-22" d="M49.533,104v60.959H158.744V104L104.138,69.92Z" transform="translate(-36.433 -63.005)"/>
        <path id="Path_7235" data-name="Path 7235" class="cls-8" d="M104.138,69.92,49.533,104v12.359l54.605-34.079,54.606,34.079V104Z" transform="translate(-36.433 -63.005)"/>
        <rect id="Rectangle_490" data-name="Rectangle 490" class="cls-8" width="15.528" height="7.472" transform="translate(106.783 52.811)"/>
        <rect id="Rectangle_491" data-name="Rectangle 491" class="cls-8" width="15.528" height="7.472" transform="translate(85.538 86.723)"/>
        <rect id="Rectangle_492" data-name="Rectangle 492" class="cls-8" width="15.528" height="7.472" transform="translate(66.376 52.69)"/>
        <rect id="Rectangle_493" data-name="Rectangle 493" class="cls-8" width="15.528" height="7.472" transform="translate(13.1 70.925)"/>
        <rect id="Rectangle_494" data-name="Rectangle 494" class="cls-8" width="15.528" height="7.472" transform="translate(25.296 44.166)"/>
        <rect id="Rectangle_495" data-name="Rectangle 495" class="cls-10" width="26.671" height="36.69" transform="translate(54.368 65.263)"/>
        <g id="Group_2826" data-name="Group 2826" transform="translate(56.594 23.117)">
          <circle id="Ellipse_282" data-name="Ellipse 282" class="cls-1" cx="5.224" cy="5.224" r="5.224" transform="translate(5.885 50.075)"/>
          <circle id="Ellipse_283" data-name="Ellipse 283" class="cls-1" cx="11.109" cy="11.109" r="11.109"/>
        </g>
        <path id="Path_7236" data-name="Path 7236" class="cls-5" d="M225.1,131.181a11.1,11.1,0,0,0-10.933,13.07,11.107,11.107,0,0,1,21.866,0,11.1,11.1,0,0,0-10.932-13.07Z" transform="translate(-157.396 -108.064)"/>
        <rect id="Rectangle_496" data-name="Rectangle 496" class="cls-8" width="26.671" height="4.637" transform="translate(54.368 65.263)"/>
        <rect id="Rectangle_497" data-name="Rectangle 497" class="cls-1" width="19.084" height="21.568" transform="translate(22.722 56.504)"/>
        <rect id="Rectangle_498" data-name="Rectangle 498" class="cls-5" width="19.084" height="4.755" transform="translate(22.722 56.504)"/>
        <rect id="Rectangle_499" data-name="Rectangle 499" class="cls-1" width="19.084" height="21.568" transform="translate(93.606 56.504)"/>
        <rect id="Rectangle_500" data-name="Rectangle 500" class="cls-5" width="19.084" height="4.755" transform="translate(93.606 56.504)"/>
        <path id="Path_7237" data-name="Path 7237" class="cls-6" d="M139.341,435.913a1.456,1.456,0,0,1-1.451,1.452H9.8a1.456,1.456,0,0,1-1.451-1.452v-5.194A1.456,1.456,0,0,1,9.8,429.268H137.89a1.456,1.456,0,0,1,1.451,1.451v5.194Z" transform="translate(-6.138 -327.315)"/>
        <rect id="Rectangle_501" data-name="Rectangle 501" class="cls-9" width="43.469" height="8.097" transform="translate(45.967 101.953)"/>
        <path id="Path_7238" data-name="Path 7238" class="cls-17" d="M136.394,98.785a4.684,4.684,0,0,1-2.485-.713L76.6,62.373l-57.309,35.7a4.708,4.708,0,1,1-4.979-7.992l59.8-37.25a4.707,4.707,0,0,1,4.979,0l59.8,37.25a4.708,4.708,0,0,1-2.494,8.7Z" transform="translate(-8.895 -49.911)"/>
        <g id="Group_2827" data-name="Group 2827" transform="translate(6.728 84.47)">
          <path id="Path_7239" data-name="Path 7239" class="cls-15" d="M389.309,380.646a17.483,17.483,0,0,0-34.966,0Z" transform="translate(-267.357 -363.163)"/>
          <path id="Path_7240" data-name="Path 7240" class="cls-15" d="M25.438,380.646a17.483,17.483,0,0,1,34.966,0Z" transform="translate(-25.438 -363.163)"/>
        </g>
        <path id="Path_7241" data-name="Path 7241" class="cls-12" d="M135.41,143.519h-4.65a19.654,19.654,0,0,0-6.246-12.28V94.17a6.913,6.913,0,0,0,6.645-12.1l-59.8-37.25a6.914,6.914,0,0,0-7.312,0L47.631,55.047V52.355a5.155,5.155,0,0,0-5.149-5.149H21.443a5.155,5.155,0,0,0-5.149,5.149V74.568l-12.042,7.5a6.913,6.913,0,0,0,6.642,12.1v37.067a19.657,19.657,0,0,0-6.246,12.28H0v12.612l135.41.03v-8.984C135.41,145.16,137.427,143.519,135.41,143.519Zm-9.1,0H96.082a15.275,15.275,0,0,1,30.23,0ZM20.707,52.355a.745.745,0,0,1,.735-.735H42.481a.745.745,0,0,1,.736.735V57.8L20.707,71.818S20.707,52.355,20.707,52.355ZM9.229,90.061a2.5,2.5,0,0,1-2.645-4.246l59.8-37.25a2.5,2.5,0,0,1,2.645,0l59.8,37.25a2.5,2.5,0,1,1-2.645,4.246l-57.309-35.7a2.207,2.207,0,0,0-2.334,0Zm14.982,40.388a15.3,15.3,0,0,1,15.115,13.069H9.1A15.3,15.3,0,0,1,24.211,130.449Zm19.551,21.166H4.414v-3.683H43.762v3.683Zm43.47,0H48.176v-3.683H87.232v3.683Zm-30.656-8.1V111.244H78.834v32.275H56.576Zm26.672,0V109.036a2.207,2.207,0,0,0-2.207-2.207H54.369a2.207,2.207,0,0,0-2.207,2.207v34.482H43.774a19.672,19.672,0,0,0-28.467-15.346v-36.7l52.4-32.641,52.4,32.639v36.7a19.672,19.672,0,0,0-28.467,15.346Zm47.748,8.1H91.646v-3.683H131v3.683ZM67.7,64.683A13.316,13.316,0,1,0,81.02,78,13.331,13.331,0,0,0,67.7,64.683ZM65.5,86.624a8.935,8.935,0,0,1-6.418-6.418H65.5Zm0-10.832H59.079A8.935,8.935,0,0,1,65.5,69.374Zm4.414,10.832V80.206h6.418A8.936,8.936,0,0,1,69.911,86.624Zm0-10.832V69.374a8.935,8.935,0,0,1,6.418,6.418Zm44.983,46.053V100.277a2.207,2.207,0,0,0-2.207-2.207H93.6a2.207,2.207,0,0,0-2.207,2.207v21.569a2.207,2.207,0,0,0,2.207,2.207h19.084A2.207,2.207,0,0,0,114.894,121.845Zm-4.414-2.207H95.809v-6.37H110.48Zm0-10.784H95.809v-6.37H110.48ZM41.805,98.07H22.721a2.207,2.207,0,0,0-2.207,2.207v21.569a2.207,2.207,0,0,0,2.207,2.207H41.805a2.207,2.207,0,0,0,2.207-2.207V100.277A2.207,2.207,0,0,0,41.805,98.07ZM39.6,119.638H24.928v-6.37H39.6v6.37Zm0-10.784H24.928v-6.37H39.6v6.37Z" transform="translate(0 -43.773)"/>
      </g>
    </g>
  </g>
</svg>
