<svg xmlns="http://www.w3.org/2000/svg" xmlns:xlink="http://www.w3.org/1999/xlink" viewBox="-281 -3197 1366 767">
  <defs>
    <style>
      .cls-1 {
        clip-path: url(#clip-Hero_New);
      }

      .cls-2 {
        fill: #fff;
      }

      .cls-3 {
        fill: #333e48;
      }

      .cls-4 {
        fill: #a4a9ad;
      }

      .cls-19, .cls-5 {
        opacity: 0.2;
      }

      .cls-6 {
        fill: #ff5959;
      }

      .cls-7 {
        opacity: 0.3;
      }

      .cls-20, .cls-8 {
        opacity: 0.1;
      }

      .cls-9 {
        fill: #a4a7a8;
      }

      .cls-10 {
        fill: #ffb819;
      }

      .cls-11 {
        fill: #0071ce;
      }

      .cls-12 {
        fill: #00b3e3;
      }

      .cls-13 {
        fill: #00ad68;
      }

      .cls-14 {
        fill: #d1d3d3;
      }

      .cls-15 {
        fill: #d68231;
      }

      .cls-16 {
        fill: #a93439;
      }

      .cls-17 {
        fill: #218649;
      }

      .cls-18 {
        fill: #ffb61e;
      }

      .cls-21 {
        fill: #f2d383;
      }
    </style>
    <clipPath id="clip-Hero_New">
      <rect x="-281" y="-3197" width="1366" height="767"/>
    </clipPath>
  </defs>
  <g id="Hero_New" data-name="Hero New" class="cls-1">
    <rect id="Rectangle_50" data-name="Rectangle 50" class="cls-2" width="1366" height="767" transform="translate(-281 -3197)"/>
    <g id="Group_2912" data-name="Group 2912" transform="translate(-690.713 1397.246)">
      <g id="building" transform="translate(1310.377 -3982.058)">
        <path id="Path_7377" data-name="Path 7377" class="cls-3" d="M370.814,125.18h-.25v5.13h.25a7.87,7.87,0,0,1,7.862,7.862v10.974h-8.2v5.13h8.2v21.008h-8.2v5.13h8.2V201.42h-8.2v5.13h8.2v32.806h5.13V138.171A13.006,13.006,0,0,0,370.814,125.18Z" transform="translate(-254.483 -88.631)"/>
        <path id="Path_7378" data-name="Path 7378" class="cls-4" d="M177.009,21.471v-9.6a3.439,3.439,0,0,0-3.429-3.429H151.159a3.439,3.439,0,0,0-3.429,3.429v9.6h29.279Z" transform="translate(-101.478 -8.442)"/>
        <rect id="Rectangle_536" data-name="Rectangle 536" class="cls-5" width="29.279" height="5.6" transform="translate(46.252 7.429)"/>
        <rect id="Rectangle_537" data-name="Rectangle 537" class="cls-6" width="77.486" height="129.251" transform="translate(38.844 21.475)"/>
        <rect id="Rectangle_538" data-name="Rectangle 538" class="cls-7" width="77.486" height="8.822" transform="translate(38.844 21.475)"/>
        <path id="Path_7379" data-name="Path 7379" class="cls-3" d="M195.223,45.249a2.407,2.407,0,0,0-2.4-2.4H109.531a2.407,2.407,0,0,0-2.4,2.4v9.257a2.408,2.408,0,0,0,2.4,2.4h83.292a2.408,2.408,0,0,0,2.4-2.4V45.249Z" transform="translate(-73.59 -32.077)"/>
        <rect id="Rectangle_539" data-name="Rectangle 539" class="cls-5" width="14.819" height="7.131" transform="translate(101.512 73.732)"/>
        <rect id="Rectangle_540" data-name="Rectangle 540" class="cls-5" width="14.819" height="7.131" transform="translate(38.844 50.339)"/>
        <rect id="Rectangle_541" data-name="Rectangle 541" class="cls-5" width="14.819" height="7.131" transform="translate(93.15 115.353)"/>
        <rect id="Rectangle_542" data-name="Rectangle 542" class="cls-5" width="14.819" height="7.131" transform="translate(46.252 95.527)"/>
        <rect id="Rectangle_543" data-name="Rectangle 543" class="cls-5" width="14.819" height="7.131" transform="translate(38.844 133.246)"/>
        <rect id="Rectangle_544" data-name="Rectangle 544" class="cls-5" width="14.819" height="7.131" transform="translate(77.589 58.509)"/>
        <rect id="Rectangle_545" data-name="Rectangle 545" class="cls-5" width="14.819" height="7.131" transform="translate(95.418 32.336)"/>
        <path id="Path_7380" data-name="Path 7380" class="cls-5" d="M178.554,433.621a1.719,1.719,0,0,1-1.714,1.714H159.633a1.719,1.719,0,0,1-1.714-1.714v-3.542a1.719,1.719,0,0,1,1.714-1.714H176.84a1.719,1.719,0,0,1,1.714,1.714v3.543h0Z" transform="translate(-108.477 -296.892)"/>
        <path id="Path_7381" data-name="Path 7381" class="cls-2" d="M182.276,380.948V364.064a1.719,1.719,0,0,0-1.714-1.714H169.59a1.719,1.719,0,0,0-1.714,1.714v16.884Z" transform="translate(-115.316 -251.546)"/>
        <path id="Path_7382" data-name="Path 7382" class="cls-5" d="M180.562,362.35H169.59a1.719,1.719,0,0,0-1.714,1.714v2.726a1.719,1.719,0,0,1,1.714-1.714h10.972a1.72,1.72,0,0,1,1.714,1.714v-2.726A1.719,1.719,0,0,0,180.562,362.35Z" transform="translate(-115.316 -251.546)"/>
        <path id="Path_7383" data-name="Path 7383" class="cls-3" d="M178.554,427.009a1.719,1.719,0,0,1-1.714,1.714H159.633a1.719,1.719,0,0,1-1.714-1.714v-3.543a1.719,1.719,0,0,1,1.714-1.714H176.84a1.719,1.719,0,0,1,1.714,1.714v3.543Z" transform="translate(-108.477 -292.351)"/>
        <path id="Path_7384" data-name="Path 7384" class="cls-5" d="M271.8,433.621a1.719,1.719,0,0,0,1.714,1.714h17.207a1.719,1.719,0,0,0,1.714-1.714v-3.542a1.719,1.719,0,0,0-1.714-1.714H273.516a1.72,1.72,0,0,0-1.714,1.714v3.542Z" transform="translate(-186.705 -296.892)"/>
        <path id="Path_7385" data-name="Path 7385" class="cls-2" d="M281.761,380.948V364.064a1.718,1.718,0,0,1,1.714-1.714h10.972a1.719,1.719,0,0,1,1.714,1.714v16.884Z" transform="translate(-193.546 -251.546)"/>
        <path id="Path_7386" data-name="Path 7386" class="cls-5" d="M283.475,362.35h10.972a1.719,1.719,0,0,1,1.714,1.714v2.726a1.72,1.72,0,0,0-1.714-1.714H283.475a1.719,1.719,0,0,0-1.714,1.714v-2.726A1.719,1.719,0,0,1,283.475,362.35Z" transform="translate(-193.546 -251.546)"/>
        <path id="Path_7387" data-name="Path 7387" class="cls-3" d="M271.8,427.009a1.719,1.719,0,0,0,1.714,1.714h17.207a1.719,1.719,0,0,0,1.714-1.714v-3.543a1.719,1.719,0,0,0-1.714-1.714H273.516a1.719,1.719,0,0,0-1.714,1.714v3.543Z" transform="translate(-186.705 -292.351)"/>
        <path id="Path_7388" data-name="Path 7388" class="cls-5" d="M178.554,312.607a1.719,1.719,0,0,1-1.714,1.714H159.633a1.719,1.719,0,0,1-1.714-1.714v-3.543a1.719,1.719,0,0,1,1.714-1.715H176.84a1.719,1.719,0,0,1,1.714,1.715v3.543Z" transform="translate(-108.477 -213.766)"/>
        <path id="Path_7389" data-name="Path 7389" class="cls-2" d="M182.276,259.935V243.051a1.719,1.719,0,0,0-1.714-1.714H169.59a1.719,1.719,0,0,0-1.714,1.714v16.884Z" transform="translate(-115.316 -168.421)"/>
        <path id="Path_7390" data-name="Path 7390" class="cls-5" d="M180.562,241.337H169.59a1.719,1.719,0,0,0-1.714,1.714v2.726a1.719,1.719,0,0,1,1.714-1.714h10.972a1.72,1.72,0,0,1,1.714,1.714v-2.726A1.719,1.719,0,0,0,180.562,241.337Z" transform="translate(-115.316 -168.421)"/>
        <path id="Path_7391" data-name="Path 7391" class="cls-3" d="M178.554,306a1.719,1.719,0,0,1-1.714,1.714H159.633A1.719,1.719,0,0,1,157.919,306v-3.543a1.719,1.719,0,0,1,1.714-1.714H176.84a1.719,1.719,0,0,1,1.714,1.714V306Z" transform="translate(-108.477 -209.225)"/>
        <path id="Path_7392" data-name="Path 7392" class="cls-5" d="M271.8,312.607a1.719,1.719,0,0,0,1.714,1.714h17.207a1.719,1.719,0,0,0,1.714-1.714v-3.543a1.72,1.72,0,0,0-1.714-1.715H273.516a1.72,1.72,0,0,0-1.714,1.715v3.543Z" transform="translate(-186.705 -213.766)"/>
        <path id="Path_7393" data-name="Path 7393" class="cls-2" d="M281.761,259.935V243.051a1.718,1.718,0,0,1,1.714-1.714h10.972a1.719,1.719,0,0,1,1.714,1.714v16.884Z" transform="translate(-193.546 -168.421)"/>
        <path id="Path_7394" data-name="Path 7394" class="cls-5" d="M283.475,241.337h10.972a1.719,1.719,0,0,1,1.714,1.714v2.726a1.719,1.719,0,0,0-1.714-1.714H283.475a1.719,1.719,0,0,0-1.714,1.714v-2.726A1.719,1.719,0,0,1,283.475,241.337Z" transform="translate(-193.546 -168.421)"/>
        <path id="Path_7395" data-name="Path 7395" class="cls-3" d="M271.8,306a1.719,1.719,0,0,0,1.714,1.714h17.207A1.719,1.719,0,0,0,292.438,306v-3.543a1.719,1.719,0,0,0-1.714-1.714H273.516a1.719,1.719,0,0,0-1.714,1.714V306Z" transform="translate(-186.705 -209.225)"/>
        <path id="Path_7396" data-name="Path 7396" class="cls-5" d="M178.554,191.594a1.719,1.719,0,0,1-1.714,1.714H159.633a1.719,1.719,0,0,1-1.714-1.714v-3.543a1.719,1.719,0,0,1,1.714-1.714H176.84a1.719,1.719,0,0,1,1.714,1.714v3.543Z" transform="translate(-108.477 -130.641)"/>
        <path id="Path_7397" data-name="Path 7397" class="cls-2" d="M182.276,138.923V122.039a1.719,1.719,0,0,0-1.714-1.714H169.59a1.719,1.719,0,0,0-1.714,1.714v16.884Z" transform="translate(-115.316 -85.296)"/>
        <path id="Path_7398" data-name="Path 7398" class="cls-5" d="M180.562,120.325H169.59a1.719,1.719,0,0,0-1.714,1.714v2.726a1.719,1.719,0,0,1,1.714-1.715h10.972a1.72,1.72,0,0,1,1.714,1.715v-2.726A1.719,1.719,0,0,0,180.562,120.325Z" transform="translate(-115.316 -85.296)"/>
        <path id="Path_7399" data-name="Path 7399" class="cls-3" d="M178.554,184.982a1.719,1.719,0,0,1-1.714,1.714H159.633a1.719,1.719,0,0,1-1.714-1.714v-3.543a1.719,1.719,0,0,1,1.714-1.714H176.84a1.719,1.719,0,0,1,1.714,1.714v3.543Z" transform="translate(-108.477 -126.099)"/>
        <path id="Path_7400" data-name="Path 7400" class="cls-5" d="M271.8,191.594a1.719,1.719,0,0,0,1.714,1.714h17.207a1.719,1.719,0,0,0,1.714-1.714v-3.543a1.719,1.719,0,0,0-1.714-1.714H273.516a1.72,1.72,0,0,0-1.714,1.714v3.543Z" transform="translate(-186.705 -130.641)"/>
        <path id="Path_7401" data-name="Path 7401" class="cls-2" d="M281.761,138.923V122.039a1.718,1.718,0,0,1,1.714-1.714h10.972a1.719,1.719,0,0,1,1.714,1.714v16.884Z" transform="translate(-193.546 -85.296)"/>
        <path id="Path_7402" data-name="Path 7402" class="cls-5" d="M283.475,120.325h10.972a1.719,1.719,0,0,1,1.714,1.714v2.726a1.72,1.72,0,0,0-1.714-1.715H283.475a1.719,1.719,0,0,0-1.714,1.715v-2.726A1.718,1.718,0,0,1,283.475,120.325Z" transform="translate(-193.546 -85.296)"/>
        <path id="Path_7403" data-name="Path 7403" class="cls-3" d="M271.8,184.982a1.719,1.719,0,0,0,1.714,1.714h17.207a1.719,1.719,0,0,0,1.714-1.714v-3.543a1.719,1.719,0,0,0-1.714-1.714H273.516a1.72,1.72,0,0,0-1.714,1.714v3.543Z" transform="translate(-186.705 -126.099)"/>
        <path id="Path_7404" data-name="Path 7404" class="cls-3" d="M160.3,485.264a1.385,1.385,0,0,1-1.381,1.382H1.381A1.386,1.386,0,0,1,0,485.264v-4.945a1.386,1.386,0,0,1,1.381-1.382H158.918a1.385,1.385,0,0,1,1.381,1.382v4.945Z" transform="translate(0 -331.632)"/>
        <rect id="Rectangle_546" data-name="Rectangle 546" class="cls-3" width="110.736" height="7.708" transform="translate(24.781 147.306)"/>
      </g>
      <g id="building-1" transform="translate(542.544 -3961.088)">
        <path id="Path_7405" data-name="Path 7405" class="cls-4" d="M150.245,67.306a3.462,3.462,0,0,0-3.452-3.452H104.068a3.462,3.462,0,0,0-3.452,3.452V79.634a3.462,3.462,0,0,0,3.452,3.452h42.726a3.462,3.462,0,0,0,3.452-3.452V67.306Z" transform="translate(-68.822 -57.57)"/>
        <rect id="Rectangle_547" data-name="Rectangle 547" class="cls-5" width="49.63" height="3.078" transform="translate(31.794 14.957)"/>
        <rect id="Rectangle_548" data-name="Rectangle 548" class="cls-6" width="89.122" height="104.6" transform="translate(14.208 25.516)"/>
        <rect id="Rectangle_549" data-name="Rectangle 549" class="cls-8" width="18.215" height="8.766" transform="translate(14.208 73.434)"/>
        <rect id="Rectangle_550" data-name="Rectangle 550" class="cls-8" width="18.215" height="8.766" transform="translate(77.776 95.888)"/>
        <rect id="Rectangle_551" data-name="Rectangle 551" class="cls-8" width="18.215" height="8.766" transform="translate(55.104 32.996)"/>
        <rect id="Rectangle_552" data-name="Rectangle 552" class="cls-8" width="18.215" height="8.766" transform="translate(68.667 63.102)"/>
        <rect id="Rectangle_553" data-name="Rectangle 553" class="cls-8" width="18.215" height="8.766" transform="translate(21.764 39.706)"/>
        <rect id="Rectangle_554" data-name="Rectangle 554" class="cls-8" width="18.215" height="8.766" transform="translate(20.711 114.955)"/>
        <rect id="Rectangle_555" data-name="Rectangle 555" class="cls-8" width="18.215" height="8.766" transform="translate(32.906 89.64)"/>
        <path id="Path_7406" data-name="Path 7406" class="cls-3" d="M160.91,299.41a15.657,15.657,0,1,0-31.314,0v27.141H160.91V299.41Z" transform="translate(-88.644 -207.981)"/>
        <path id="Path_7407" data-name="Path 7407" class="cls-4" d="M115.792,426.846v-5.929a1.731,1.731,0,0,1,1.726-1.726H154.1a1.731,1.731,0,0,1,1.726,1.726v5.929Z" transform="translate(-79.202 -300.621)"/>
        <g id="Group_2877" data-name="Group 2877" transform="translate(26.628 49.812)">
          <path id="Path_7408" data-name="Path 7408" class="cls-2" d="M170.29,316.845a7.6,7.6,0,0,0-15.206,0Z" transform="translate(-132.706 -275.228)"/>
          <path id="Path_7409" data-name="Path 7409" class="cls-2" d="M144.229,203.328A1.731,1.731,0,0,0,142.5,201.6H85.993a1.731,1.731,0,0,0-1.726,1.726V214.5a1.731,1.731,0,0,0,1.726,1.726H142.5a1.731,1.731,0,0,0,1.726-1.726V203.328Z" transform="translate(-84.267 -201.602)"/>
        </g>
        <path id="Path_7410" data-name="Path 7410" class="cls-5" d="M142.5,201.6H85.993a1.731,1.731,0,0,0-1.726,1.726v5.05a1.731,1.731,0,0,1,1.726-1.726H142.5a1.731,1.731,0,0,1,1.726,1.726v-5.05A1.731,1.731,0,0,0,142.5,201.6Z" transform="translate(-57.639 -151.79)"/>
        <rect id="Rectangle_556" data-name="Rectangle 556" class="cls-3" width="5.178" height="14.622" transform="translate(54.021 49.813)"/>
        <path id="Path_7411" data-name="Path 7411" class="cls-3" d="M136.9,213.209H80.39a4.319,4.319,0,0,1-4.315-4.315V197.726a4.319,4.319,0,0,1,4.315-4.315H136.9a4.319,4.319,0,0,1,4.315,4.315v11.169A4.32,4.32,0,0,1,136.9,213.209Zm-55.647-5.178h54.785v-9.443H81.253Z" transform="translate(-52.035 -146.187)"/>
        <rect id="Rectangle_557" data-name="Rectangle 557" class="cls-8" width="89.122" height="12.454" transform="translate(14.208 25.516)"/>
        <path id="Path_7412" data-name="Path 7412" class="cls-3" d="M124.731,104.5a3.462,3.462,0,0,0-3.452-3.452H34.738a3.462,3.462,0,0,0-3.452,3.452v8.054A3.462,3.462,0,0,0,34.738,116H121.28a3.462,3.462,0,0,0,3.452-3.452V104.5Z" transform="translate(-21.4 -83.008)"/>
        <rect id="Rectangle_558" data-name="Rectangle 558" class="cls-8" width="12.353" height="112.077" transform="translate(90.979 18.036)"/>
        <rect id="Rectangle_559" data-name="Rectangle 559" class="cls-9" width="52.964" height="117.976" transform="translate(95.991 12.14)"/>
        <rect id="Rectangle_560" data-name="Rectangle 560" class="cls-8" width="18.215" height="8.766" transform="translate(95.991 73.327)"/>
        <rect id="Rectangle_561" data-name="Rectangle 561" class="cls-8" width="18.215" height="8.766" transform="translate(126.712 110.575)"/>
        <rect id="Rectangle_562" data-name="Rectangle 562" class="cls-8" width="18.215" height="8.766" transform="translate(130.741 49.109)"/>
        <rect id="Rectangle_563" data-name="Rectangle 563" class="cls-8" width="18.215" height="8.766" transform="translate(99.905 31.436)"/>
        <rect id="Rectangle_564" data-name="Rectangle 564" class="cls-8" width="18.215" height="8.766" transform="translate(125.104 14.957)"/>
        <rect id="Rectangle_565" data-name="Rectangle 565" class="cls-8" width="52.964" height="7.938" transform="translate(95.991 12.14)"/>
        <path id="Path_7413" data-name="Path 7413" class="cls-2" d="M374.54,136.933a11.194,11.194,0,1,0-22.388,0v25.3H374.54v-25.3Z" transform="translate(-240.873 -99.899)"/>
        <path id="Path_7414" data-name="Path 7414" class="cls-5" d="M363.346,125.739a11.194,11.194,0,0,0-11.194,11.194v4.774a11.194,11.194,0,0,1,22.388,0v-4.774A11.194,11.194,0,0,0,363.346,125.739Z" transform="translate(-240.872 -99.899)"/>
        <rect id="Rectangle_566" data-name="Rectangle 566" class="cls-5" width="22.388" height="5.578" transform="translate(111.279 37.034)"/>
        <rect id="Rectangle_567" data-name="Rectangle 567" class="cls-3" width="22.388" height="5.178" transform="translate(111.279 47.096)"/>
        <path id="Path_7415" data-name="Path 7415" class="cls-3" d="M357.744,117.547a13.8,13.8,0,0,0-13.783,13.783v25.3a2.589,2.589,0,0,0,2.589,2.589h22.388a2.588,2.588,0,0,0,2.589-2.589v-25.3A13.8,13.8,0,0,0,357.744,117.547Zm0,5.178a8.62,8.62,0,0,1,8.207,6.017H349.537A8.619,8.619,0,0,1,357.744,122.725Zm8.6,31.319h-17.21V133.919h17.21Z" transform="translate(-235.27 -94.296)"/>
        <path id="Path_7416" data-name="Path 7416" class="cls-2" d="M374.54,294.961a11.194,11.194,0,0,0-22.388,0v25.3H374.54v-25.3Z" transform="translate(-240.873 -207.991)"/>
        <path id="Path_7417" data-name="Path 7417" class="cls-5" d="M363.346,283.767a11.194,11.194,0,0,0-11.194,11.194v4.775a11.194,11.194,0,1,1,22.388,0v-4.775A11.194,11.194,0,0,0,363.346,283.767Z" transform="translate(-240.872 -207.991)"/>
        <rect id="Rectangle_568" data-name="Rectangle 568" class="cls-5" width="22.388" height="5.578" transform="translate(111.279 86.968)"/>
        <rect id="Rectangle_569" data-name="Rectangle 569" class="cls-3" width="22.388" height="5.178" transform="translate(111.279 97.034)"/>
        <path id="Path_7418" data-name="Path 7418" class="cls-3" d="M357.744,275.574a13.8,13.8,0,0,0-13.783,13.782v25.3a2.588,2.588,0,0,0,2.589,2.589h22.388a2.588,2.588,0,0,0,2.589-2.589v-25.3A13.8,13.8,0,0,0,357.744,275.574Zm0,5.178a8.621,8.621,0,0,1,8.207,6.016H349.538A8.619,8.619,0,0,1,357.744,280.752Zm8.6,31.318h-17.21V291.945h17.21Z" transform="translate(-235.27 -202.387)"/>
        <path id="Path_7419" data-name="Path 7419" class="cls-3" d="M161.791,449.8a1.4,1.4,0,0,1-1.394,1.394H0v-7.779H160.4a1.4,1.4,0,0,1,1.394,1.395Z" transform="translate(0 -317.19)"/>
        <path id="Path_7420" data-name="Path 7420" class="cls-3" d="M352.105,47.419a3.462,3.462,0,0,0-3.452-3.452H294.64a3.462,3.462,0,0,0-3.452,3.452v8.054a3.462,3.462,0,0,0,3.452,3.452h54.014a3.462,3.462,0,0,0,3.452-3.452Z" transform="translate(-199.173 -43.967)"/>
        <path id="Path_7421" data-name="Path 7421" class="cls-3" d="M351.939,443.415H280.031v7.779h71.907a1.4,1.4,0,0,0,1.394-1.394v-4.99A1.4,1.4,0,0,0,351.939,443.415Z" transform="translate(-191.542 -317.19)"/>
      </g>
      <g id="book-shop" transform="translate(698.518 -3959.939)">
        <path id="Path_7422" data-name="Path 7422" class="cls-10" d="M95.464,95.31a5.521,5.521,0,0,0-5.505-5.505H70.571a5.521,5.521,0,0,0-5.505,5.505v65.115a5.521,5.521,0,0,0,5.505,5.505H89.959a5.521,5.521,0,0,0,5.505-5.505V95.31Z" transform="translate(-44.97 -74.728)"/>
        <path id="Path_7423" data-name="Path 7423" class="cls-11" d="M193.885,46.5a5.521,5.521,0,0,0-5.505-5.505H168.992a5.522,5.522,0,0,0-5.505,5.505v65.115a5.522,5.522,0,0,0,5.505,5.506h19.388a5.521,5.521,0,0,0,5.505-5.506Z" transform="translate(-112.991 -40.991)"/>
        <rect id="Rectangle_570" data-name="Rectangle 570" class="cls-12" width="5.061" height="46.839" transform="translate(63.165 14.642)"/>
        <rect id="Rectangle_571" data-name="Rectangle 571" class="cls-5" width="60.797" height="11.218" transform="translate(20.095 28.602)"/>
        <path id="Path_7424" data-name="Path 7424" class="cls-13" d="M282.044,50a5.522,5.522,0,0,0-7.786,0L263.52,60.739a5.521,5.521,0,0,0,0,7.786l41.31,41.31a5.521,5.521,0,0,0,7.786,0L323.354,99.1a5.522,5.522,0,0,0,0-7.786Z" transform="translate(-181.019 -46.109)"/>
        <g id="Group_2878" data-name="Group 2878" transform="translate(95.162 16.552)">
          <circle id="Ellipse_293" data-name="Ellipse 293" class="cls-2" cx="2.522" cy="2.522" r="2.522"/>
          <rect id="Rectangle_572" data-name="Rectangle 572" class="cls-2" width="35.634" height="5.061" transform="translate(32.723 36.302) rotate(-135)"/>
        </g>
        <path id="Path_7425" data-name="Path 7425" class="cls-5" d="M324.187,133.592H287.14l11.217,11.217H335.4Z" transform="translate(-198.453 -104.991)"/>
        <rect id="Rectangle_573" data-name="Rectangle 573" class="cls-14" width="138.727" height="89.276" transform="translate(9.705 41.21)"/>
        <rect id="Rectangle_574" data-name="Rectangle 574" class="cls-8" width="14.619" height="7.035" transform="translate(9.705 79.642)"/>
        <rect id="Rectangle_575" data-name="Rectangle 575" class="cls-8" width="14.619" height="7.035" transform="translate(32.794 59.118)"/>
        <rect id="Rectangle_576" data-name="Rectangle 576" class="cls-8" width="14.619" height="7.035" transform="translate(77.845 56.898)"/>
        <rect id="Rectangle_577" data-name="Rectangle 577" class="cls-8" width="14.619" height="7.035" transform="translate(55.304 45.603)"/>
        <rect id="Rectangle_578" data-name="Rectangle 578" class="cls-8" width="14.619" height="7.035" transform="translate(133.814 66.936)"/>
        <rect id="Rectangle_579" data-name="Rectangle 579" class="cls-8" width="14.619" height="7.035" transform="translate(131.402 110.165)"/>
        <rect id="Rectangle_580" data-name="Rectangle 580" class="cls-8" width="14.619" height="7.035" transform="translate(100.669 116.747)"/>
        <rect id="Rectangle_581" data-name="Rectangle 581" class="cls-8" width="14.619" height="7.035" transform="translate(74.711 96.872)"/>
        <rect id="Rectangle_582" data-name="Rectangle 582" class="cls-8" width="14.619" height="7.035" transform="translate(15.743 116.072)"/>
        <rect id="Rectangle_583" data-name="Rectangle 583" class="cls-8" width="138.727" height="13.185" transform="translate(9.705 41.21)"/>
        <g id="Group_2879" data-name="Group 2879" transform="translate(3.876 34.438)">
          <path id="Path_7426" data-name="Path 7426" class="cls-3" d="M162.935,163.8a3.384,3.384,0,0,1-3.374,3.374H15.923a3.384,3.384,0,0,1-3.374-3.374v-7.934a3.384,3.384,0,0,1,3.374-3.374H159.561a3.384,3.384,0,0,1,3.374,3.374V163.8Z" transform="translate(-12.549 -152.489)"/>
          <rect id="Rectangle_584" data-name="Rectangle 584" class="cls-3" width="56.691" height="61.175" transform="translate(78.143 22.629)"/>
        </g>
        <path id="Path_7427" data-name="Path 7427" class="cls-13" d="M305.5,265.851a1.84,1.84,0,0,1-1.835,1.835H290.291a1.841,1.841,0,0,1-1.835-1.835V248.9a1.84,1.84,0,0,1,1.835-1.835H303.67A1.84,1.84,0,0,1,305.5,248.9Z" transform="translate(-199.363 -183.414)"/>
        <rect id="Rectangle_585" data-name="Rectangle 585" class="cls-2" width="7.8" height="5.061" transform="translate(93.716 68.258)"/>
        <path id="Path_7428" data-name="Path 7428" class="cls-11" d="M388.049,265.851a1.84,1.84,0,0,1-1.835,1.835H372.835A1.84,1.84,0,0,1,371,265.851V248.9a1.84,1.84,0,0,1,1.835-1.835h13.379a1.84,1.84,0,0,1,1.835,1.835Z" transform="translate(-256.412 -183.414)"/>
        <rect id="Rectangle_586" data-name="Rectangle 586" class="cls-2" width="7.8" height="5.061" transform="translate(119.212 68.258)"/>
        <path id="Path_7429" data-name="Path 7429" class="cls-12" d="M305.5,354.517a1.84,1.84,0,0,1-1.835,1.835H290.291a1.841,1.841,0,0,1-1.835-1.835V337.562a1.841,1.841,0,0,1,1.835-1.835H303.67a1.84,1.84,0,0,1,1.835,1.835Z" transform="translate(-199.363 -244.694)"/>
        <rect id="Rectangle_587" data-name="Rectangle 587" class="cls-2" width="7.8" height="5.061" transform="translate(93.716 95.644)"/>
        <path id="Path_7430" data-name="Path 7430" class="cls-10" d="M388.049,354.517a1.84,1.84,0,0,1-1.835,1.835H372.835A1.84,1.84,0,0,1,371,354.517V337.562a1.84,1.84,0,0,1,1.835-1.835h13.379a1.84,1.84,0,0,1,1.835,1.835Z" transform="translate(-256.412 -244.694)"/>
        <rect id="Rectangle_588" data-name="Rectangle 588" class="cls-2" width="7.8" height="5.061" transform="translate(119.212 95.644)"/>
        <rect id="Rectangle_589" data-name="Rectangle 589" class="cls-15" width="45.618" height="60.034" transform="translate(23.054 70.451)"/>
        <rect id="Rectangle_590" data-name="Rectangle 590" class="cls-3" width="29.531" height="21.205" transform="translate(31.097 79.075)"/>
        <rect id="Rectangle_591" data-name="Rectangle 591" class="cls-2" width="14.008" height="5.061" transform="translate(38.857 85.795)"/>
        <circle id="Ellipse_294" data-name="Ellipse 294" class="cls-3" cx="2.522" cy="2.522" r="2.522" transform="translate(31.095 107.67)"/>
        <path id="Path_7431" data-name="Path 7431" class="cls-4" d="M158.138,452.584a1.367,1.367,0,0,1-1.363,1.363H0v-7.778H1.363l155.413.174a1.367,1.367,0,0,1,1.363,1.363Z" transform="translate(0 -321.131)"/>
      </g>
      <g id="school" transform="translate(1166.995 -3970.812)">
        <path id="Path_7432" data-name="Path 7432" class="cls-12" d="M158.845,172.168a6.807,6.807,0,0,0-5.259-2.99H25.268a6.805,6.805,0,0,0-5.26,2.99L9.976,189.013C9,190.657,9.761,192,11.675,192h155.5c1.914,0,2.678-1.345,1.7-2.99Z" transform="translate(-6.447 -125.285)"/>
        <path id="Path_7433" data-name="Path 7433" class="cls-8" d="M23.945,197.34h62.8v-5.311H27.108Zm147.26-5.311H110.853v5.311h63.514Z" transform="translate(-16.177 -140.73)"/>
        <path id="Path_7434" data-name="Path 7434" class="cls-14" d="M108.707,176.46,90.626,147.44,72.545,176.46H11.854v70.217H169.4V176.46Z" transform="translate(-8.004 -110.593)"/>
        <path id="Path_7435" data-name="Path 7435" class="cls-8" d="M114.362,183.789a4.814,4.814,0,0,1-3.656-2.024l-1.1-1.749h-.9l-16.85-27.044a2.922,2.922,0,0,0-2.464,0L72.545,180.016h-.9l-1.1,1.749a4.814,4.814,0,0,1-3.656,2.024H11.854v9.331h58a4.605,4.605,0,0,0,3.588-2.065l14.164-21.687c1.66-2.832,4.378-2.832,6.038,0l14.164,21.687a4.606,4.606,0,0,0,3.588,2.065h58v-9.331H114.362Z" transform="translate(-8.004 -114.149)"/>
        <g id="Group_2880" data-name="Group 2880" transform="translate(3.85 72.472)">
          <rect id="Rectangle_592" data-name="Rectangle 592" class="cls-4" width="15.302" height="7.363" transform="translate(142.242 8.171)"/>
          <rect id="Rectangle_593" data-name="Rectangle 593" class="cls-4" width="15.302" height="7.363" transform="translate(96.344 23.416)"/>
          <rect id="Rectangle_594" data-name="Rectangle 594" class="cls-4" width="15.302" height="7.363" transform="translate(124.055 49.555)"/>
          <rect id="Rectangle_595" data-name="Rectangle 595" class="cls-4" width="15.302" height="7.363" transform="translate(44.633 51.509)"/>
          <rect id="Rectangle_596" data-name="Rectangle 596" class="cls-4" width="15.302" height="7.363" transform="translate(0 15.241)"/>
          <rect id="Rectangle_597" data-name="Rectangle 597" class="cls-4" width="15.302" height="7.363" transform="translate(36.982 0)"/>
        </g>
        <rect id="Rectangle_598" data-name="Rectangle 598" class="cls-3" width="26.284" height="36.154" transform="translate(69.481 99.931)"/>
        <rect id="Rectangle_599" data-name="Rectangle 599" class="cls-8" width="26.284" height="4.57" transform="translate(69.481 99.931)"/>
        <g id="Group_2881" data-name="Group 2881" transform="translate(42 93.835)">
          <rect id="Rectangle_600" data-name="Rectangle 600" class="cls-2" width="5.311" height="10.005" transform="translate(32.494 14.462)"/>
          <rect id="Rectangle_601" data-name="Rectangle 601" class="cls-2" width="5.311" height="10.005" transform="translate(43.437 14.462)"/>
          <rect id="Rectangle_602" data-name="Rectangle 602" class="cls-2" width="15.448" height="21.253"/>
        </g>
        <rect id="Rectangle_603" data-name="Rectangle 603" class="cls-5" width="15.448" height="4.687" transform="translate(42 93.835)"/>
        <rect id="Rectangle_604" data-name="Rectangle 604" class="cls-16" width="15.448" height="5.311" transform="translate(42 101.807)"/>
        <path id="Path_7436" data-name="Path 7436" class="cls-6" d="M139.479,341.645H124.031a2.656,2.656,0,0,1-2.655-2.655V317.735a2.655,2.655,0,0,1,2.655-2.655h15.448a2.656,2.656,0,0,1,2.655,2.655V338.99A2.656,2.656,0,0,1,139.479,341.645Zm-12.793-5.311h10.137V320.391H126.686Z" transform="translate(-82.029 -223.899)"/>
        <rect id="Rectangle_605" data-name="Rectangle 605" class="cls-2" width="15.448" height="21.253" transform="translate(12.023 93.835)"/>
        <rect id="Rectangle_606" data-name="Rectangle 606" class="cls-5" width="15.448" height="4.687" transform="translate(12.023 93.835)"/>
        <rect id="Rectangle_607" data-name="Rectangle 607" class="cls-16" width="15.448" height="5.311" transform="translate(12.023 101.807)"/>
        <path id="Path_7437" data-name="Path 7437" class="cls-6" d="M46.984,341.645H31.535a2.656,2.656,0,0,1-2.655-2.655V317.735a2.655,2.655,0,0,1,2.655-2.655H46.983a2.656,2.656,0,0,1,2.655,2.655V338.99A2.655,2.655,0,0,1,46.984,341.645Zm-12.793-5.311H44.328V320.391H34.191Z" transform="translate(-19.512 -223.899)"/>
        <rect id="Rectangle_608" data-name="Rectangle 608" class="cls-2" width="15.448" height="21.253" transform="translate(107.795 93.835)"/>
        <rect id="Rectangle_609" data-name="Rectangle 609" class="cls-5" width="15.448" height="4.687" transform="translate(107.795 93.835)"/>
        <rect id="Rectangle_610" data-name="Rectangle 610" class="cls-16" width="15.448" height="5.311" transform="translate(107.795 101.807)"/>
        <path id="Path_7438" data-name="Path 7438" class="cls-6" d="M342.476,341.645H327.028a2.656,2.656,0,0,1-2.655-2.655V317.735a2.655,2.655,0,0,1,2.655-2.655h15.448a2.655,2.655,0,0,1,2.655,2.655V338.99A2.656,2.656,0,0,1,342.476,341.645Zm-12.793-5.311h10.137V320.391H329.684Z" transform="translate(-219.233 -223.899)"/>
        <rect id="Rectangle_611" data-name="Rectangle 611" class="cls-2" width="15.448" height="21.253" transform="translate(137.772 93.835)"/>
        <rect id="Rectangle_612" data-name="Rectangle 612" class="cls-5" width="15.448" height="4.687" transform="translate(137.772 93.835)"/>
        <rect id="Rectangle_613" data-name="Rectangle 613" class="cls-16" width="15.448" height="5.311" transform="translate(137.772 101.807)"/>
        <path id="Path_7439" data-name="Path 7439" class="cls-6" d="M434.97,341.645H419.522a2.655,2.655,0,0,1-2.655-2.655V317.735a2.655,2.655,0,0,1,2.655-2.655H434.97a2.656,2.656,0,0,1,2.655,2.655V338.99A2.656,2.656,0,0,1,434.97,341.645Zm-12.793-5.311h10.137V320.391H422.178Z" transform="translate(-281.749 -223.899)"/>
        <rect id="Rectangle_614" data-name="Rectangle 614" class="cls-10" width="30.671" height="17.578" transform="translate(82.623 5.094)"/>
        <rect id="Rectangle_615" data-name="Rectangle 615" class="cls-8" width="8.029" height="17.578" transform="translate(82.623 5.094)"/>
        <path id="Path_7440" data-name="Path 7440" class="cls-3" d="M249.359,73.256A2.655,2.655,0,0,1,246.7,70.6V36.408a2.655,2.655,0,1,1,5.311,0V70.6A2.656,2.656,0,0,1,249.359,73.256Z" transform="translate(-166.737 -33.753)"/>
        <path id="Path_7441" data-name="Path 7441" class="cls-11" d="M85.785,134.735c-1.744-2.782-4.6-2.782-6.341,0L62.536,161.716a4.815,4.815,0,0,1-3.656,2.023H2.388A2.4,2.4,0,0,0,0,166.127v4.555a2.4,2.4,0,0,0,2.388,2.388H61.844a4.606,4.606,0,0,0,3.588-2.064L79.6,149.319c1.66-2.833,4.378-2.833,6.038,0L99.8,171.006a4.606,4.606,0,0,0,3.588,2.064h59.455a2.4,2.4,0,0,0,2.388-2.388v-4.555a2.4,2.4,0,0,0-2.388-2.388H106.35a4.814,4.814,0,0,1-3.656-2.023Z" transform="translate(0.008 -100.595)"/>
        <circle id="Ellipse_295" data-name="Ellipse 295" class="cls-2" cx="12.055" cy="12.055" r="12.055" transform="translate(70.568 68.588)"/>
        <path id="Path_7442" data-name="Path 7442" class="cls-3" d="M253.977,264.745h-1.962v-1.962a2.655,2.655,0,1,0-5.311,0V267.4a2.655,2.655,0,0,0,2.655,2.655h4.617a2.655,2.655,0,1,0,0-5.311Z" transform="translate(-166.737 -186.757)"/>
        <path id="Path_7443" data-name="Path 7443" class="cls-13" d="M165.942,461.336c-1.345.314-.643.267-1.43.267L0,461.654v-6.6c0-.787-.017,0,0-1.411l164.514-.019c.787,0-.046-.015,1.43,0v7.712Z" transform="translate(0.01 -317.539)"/>
        <rect id="Rectangle_616" data-name="Rectangle 616" class="cls-3" width="42.835" height="7.979" transform="translate(61.561 136.086)"/>
        <g id="Group_2882" data-name="Group 2882" transform="translate(15.369 123.982)">
          <path id="Path_7444" data-name="Path 7444" class="cls-17" d="M435.755,428.387a12.1,12.1,0,0,0-24.206,0Z" transform="translate(-293.523 -416.284)"/>
          <path id="Path_7445" data-name="Path 7445" class="cls-17" d="M71.6,428.387a12.1,12.1,0,0,0-24.206,0Z" transform="translate(-47.394 -416.284)"/>
        </g>
      </g>
      <g id="skyscraper-1" transform="translate(1009.719 -3976.735)">
        <path id="Path_7448" data-name="Path 7448" class="cls-18" d="M223.546,37.761c1.881,0,2.218-.962.751-2.138L202.109,17.845a4.479,4.479,0,0,0-5.336,0L174.585,35.623c-1.467,1.175-1.13,2.138.751,2.138h48.21Z" transform="translate(-119.311 -16.964)"/>
        <path id="Path_7449" data-name="Path 7449" class="cls-5" d="M224.3,65.134l-6.506-5.213h-36.7l-6.506,5.213c-1.467,1.175-1.13,2.138.751,2.138h48.21C225.427,67.272,225.766,66.31,224.3,65.134Z" transform="translate(-119.312 -46.475)"/>
        <rect id="Rectangle_617" data-name="Rectangle 617" class="cls-11" width="62.755" height="113.218" transform="translate(48.754 32.663)"/>
        <rect id="Rectangle_618" data-name="Rectangle 618" class="cls-18" width="18.569" height="19.575" transform="translate(70.845 126.334)"/>
        <g id="Group_2884" data-name="Group 2884" transform="translate(48.754 65.938)">
          <rect id="Rectangle_619" data-name="Rectangle 619" class="cls-12" width="62.755" height="15.341" transform="translate(0 36.554)"/>
          <rect id="Rectangle_620" data-name="Rectangle 620" class="cls-12" width="62.755" height="15.341"/>
        </g>
        <path id="Path_7450" data-name="Path 7450" class="cls-3" d="M160.261,478.514H1.381A1.385,1.385,0,0,1,0,477.133V472.19a1.385,1.385,0,0,1,1.381-1.382h158.88v7.706Z" transform="translate(0 -328.75)"/>
        <rect id="Rectangle_621" data-name="Rectangle 621" class="cls-4" width="82.962" height="7.706" transform="translate(38.65 142.059)"/>
        <g id="Group_2885" data-name="Group 2885" class="cls-19" transform="translate(59.787 32.663)">
          <rect id="Rectangle_622" data-name="Rectangle 622" width="5.129" height="109.396"/>
        </g>
        <g id="Group_2886" data-name="Group 2886" class="cls-19" transform="translate(95.346 32.663)">
          <rect id="Rectangle_623" data-name="Rectangle 623" width="5.129" height="109.396"/>
        </g>
        <path id="Path_7451" data-name="Path 7451" class="cls-18" d="M218.51,86.326V73.805a3.429,3.429,0,0,0-3.419-3.419H159.172a3.429,3.429,0,0,0-3.419,3.419V86.326Z" transform="translate(-107.001 -53.664)"/>
        <g id="Group_2887" data-name="Group 2887" class="cls-19" transform="translate(59.786 20.36)">
          <path id="Path_7452" data-name="Path 7452" d="M193.568,91.015A2.564,2.564,0,0,1,191,88.451V84.574a2.564,2.564,0,0,1,5.129,0v3.876A2.564,2.564,0,0,1,193.568,91.015Z" transform="translate(-191.004 -82.01)"/>
        </g>
        <g id="Group_2888" data-name="Group 2888" class="cls-19" transform="translate(77.566 20.36)">
          <path id="Path_7453" data-name="Path 7453" d="M250.37,91.015a2.564,2.564,0,0,1-2.564-2.564V84.574a2.564,2.564,0,1,1,5.129,0v3.876A2.564,2.564,0,0,1,250.37,91.015Z" transform="translate(-247.806 -82.01)"/>
        </g>
        <g id="Group_2889" data-name="Group 2889" class="cls-19" transform="translate(95.346 20.36)">
          <path id="Path_7454" data-name="Path 7454" d="M307.174,91.015a2.564,2.564,0,0,1-2.565-2.564V84.574a2.564,2.564,0,1,1,5.129,0v3.876A2.564,2.564,0,0,1,307.174,91.015Z" transform="translate(-304.609 -82.01)"/>
        </g>
        <path id="Path_7455" data-name="Path 7455" class="cls-13" d="M141.671,369.8c0-6.509-5.277-28.868-11.786-28.868S118.1,363.288,118.1,369.8a11.786,11.786,0,0,0,23.571,0Z" transform="translate(-81.134 -239.525)"/>
        <g id="Group_2890" data-name="Group 2890" transform="translate(6.4 101.404)">
          <path id="Path_7456" data-name="Path 7456" class="cls-17" d="M44.017,369.8c0-6.509-5.277-28.868-11.786-28.868S20.446,363.288,20.446,369.8a11.786,11.786,0,0,0,23.571,0Z" transform="translate(-20.446 -340.929)"/>
          <path id="Path_7457" data-name="Path 7457" class="cls-17" d="M416.248,369.8c0-6.509,5.277-28.868,11.786-28.868s11.785,22.359,11.785,28.868a11.786,11.786,0,0,1-23.572,0Z" transform="translate(-292.358 -340.929)"/>
        </g>
        <path id="Path_7458" data-name="Path 7458" class="cls-13" d="M318.594,369.8c0-6.509,5.277-28.868,11.786-28.868s11.785,22.359,11.785,28.868a11.786,11.786,0,0,1-23.571,0Z" transform="translate(-218.871 -239.525)"/>
        <g id="Group_2891" data-name="Group 2891" class="cls-19" transform="translate(77.567 126.334)">
          <rect id="Rectangle_624" data-name="Rectangle 624" width="5.129" height="15.722"/>
        </g>
        <g id="Group_2892" data-name="Group 2892" class="cls-20" transform="translate(77.567 65.938)">
          <rect id="Rectangle_625" data-name="Rectangle 625" width="5.129" height="15.341"/>
        </g>
        <g id="Group_2893" data-name="Group 2893" class="cls-20" transform="translate(77.567 102.492)">
          <rect id="Rectangle_626" data-name="Rectangle 626" width="5.129" height="15.341"/>
        </g>
      </g>
      <g id="museum" transform="translate(854.523 -3948.835)">
        <path id="Path_7468" data-name="Path 7468" class="cls-4" d="M220.135,66.129c-27.939-8.3-100.276,16.337-100.276,90.251H220.215S248.075,74.426,220.135,66.129Z" transform="translate(-81.669 -64.593)"/>
        <path id="Path_7469" data-name="Path 7469" class="cls-8" d="M317.4,94.626H258.639a98.212,98.212,0,0,0-9.269,5.221H319.3A27.393,27.393,0,0,0,317.4,94.626Z" transform="translate(-169.915 -85.057)"/>
        <path id="Path_7470" data-name="Path 7470" class="cls-5" d="M231.53,103.711h0c-10.5-10.5-38.843-7.991-64.1,6.789-3.83-1.886-7.469-3.816-10.956-5.668-20.2,14.613-36.611,38.636-36.611,73.837H220.215S236.829,129.8,231.53,103.711Z" transform="translate(-81.669 -86.881)"/>
        <path id="Path_7471" data-name="Path 7471" class="cls-4" d="M235.476,127.277c-20.6-20.6-109.823,8.861-109.823,82.775H226.009S256.076,147.877,235.476,127.277Z" transform="translate(-85.617 -102.938)"/>
        <path id="Path_7472" data-name="Path 7472" class="cls-8" d="M298.33,192.409H213.579q-2.993,2.479-5.821,5.221h90.874A51.877,51.877,0,0,0,298.33,192.409Z" transform="translate(-141.561 -151.684)"/>
        <path id="Path_7473" data-name="Path 7473" class="cls-8" d="M221.19,159.089c-16.517,0-30.316-4.161-42.291-9.378-27.2,13.1-53.246,40.055-53.246,79.993H226.009s15.256-31.548,16.587-57.145C239.945,164.594,233.618,159.089,221.19,159.089Z" transform="translate(-85.617 -122.59)"/>
        <path id="Path_7474" data-name="Path 7474" class="cls-14" d="M142.977,132.7c-57.191,0-81.792-49.89-110.942-20.74s-.2,92.809-.2,92.809H153.058S187.95,132.7,142.977,132.7Z" transform="translate(-12.966 -90.64)"/>
        <path id="Path_7475" data-name="Path 7475" class="cls-8" d="M93.756,157.09H25.792a43.56,43.56,0,0,0-2.565,5.221h82.316C101.411,160.694,97.494,158.916,93.756,157.09Zm70.9,26.916H19.056q-.065,2.605.025,5.221H165.688A31.14,31.14,0,0,0,164.652,184.006ZM23.17,216.142H162.527c.47-1.712.911-3.457,1.312-5.221H21.94Q22.523,213.6,23.17,216.142Z" transform="translate(-12.966 -127.618)"/>
        <path id="Path_7476" data-name="Path 7476" class="cls-3" d="M163.136,429.228a1.41,1.41,0,0,1-1.406,1.406H0V422.79H161.73a1.41,1.41,0,0,1,1.406,1.406v5.032Z" transform="translate(0 -308.659)"/>
        <path id="Path_7477" data-name="Path 7477" class="cls-3" d="M164.545,343.172v-32.01a5.236,5.236,0,0,0-5.221-5.221H137.4a5.236,5.236,0,0,0-5.221,5.221v32.01Z" transform="translate(-90.062 -229.042)"/>
        <path id="Path_7478" data-name="Path 7478" class="cls-17" d="M386.271,362.461V340.843a6.411,6.411,0,0,0-6.172-6.592h-31.63a6.411,6.411,0,0,0-6.172,6.592v21.619Z" transform="translate(-233.233 -248.331)"/>
        <path id="Path_7479" data-name="Path 7479" class="cls-13" d="M334.55,377.908V361.825a4.919,4.919,0,0,0-4.9-4.9H296.952a4.919,4.919,0,0,0-4.9,4.9v16.083Z" transform="translate(-198.994 -263.778)"/>
      </g>
      <g id="factory" transform="translate(1458.838 -3983.372)">
        <rect id="Rectangle_629" data-name="Rectangle 629" class="cls-4" width="34.901" height="30.452" transform="translate(108.326 118.902)"/>
        <rect id="Rectangle_630" data-name="Rectangle 630" class="cls-8" width="14.965" height="7.202" transform="translate(111.569 128.766)"/>
        <rect id="Rectangle_631" data-name="Rectangle 631" class="cls-8" width="14.965" height="7.202" transform="translate(128.261 138.353)"/>
        <rect id="Rectangle_632" data-name="Rectangle 632" class="cls-8" width="34.901" height="8.175" transform="translate(108.326 118.902)"/>
        <path id="Path_7480" data-name="Path 7480" class="cls-15" d="M373.9,372.287a1.732,1.732,0,0,0-1.727-1.727H334.53a1.732,1.732,0,0,0-1.727,1.727v5.735a1.732,1.732,0,0,0,1.727,1.727h37.646a1.732,1.732,0,0,0,1.727-1.727Z" transform="translate(-227.576 -256.255)"/>
        <path id="Path_7481" data-name="Path 7481" class="cls-14" d="M289.239,9.044a13.658,13.658,0,0,0-9.851,4.183,13.7,13.7,0,0,0-21,11.59c0,.063,0,.125,0,.187a16.292,16.292,0,1,0,18.4,12.686,13.709,13.709,0,0,0,5.146-3.355,13.7,13.7,0,1,0,7.3-25.291Z" transform="translate(-167.24 -9.044)"/>
        <path id="Path_7482" data-name="Path 7482" class="cls-3" d="M261.321,110.458h-32.9l-7.234,117.285h47.371Z" transform="translate(-151.249 -78.393)"/>
        <path id="Path_7483" data-name="Path 7483" class="cls-15" d="M274.234,177.751H237.819l-.319,5.181h37.053Zm-.649-10.519H238.468l-.319,5.181H273.9Z" transform="translate(-162.407 -117.216)"/>
        <rect id="Rectangle_633" data-name="Rectangle 633" class="cls-4" width="89.26" height="64.852" transform="translate(11.611 84.498)"/>
        <rect id="Rectangle_634" data-name="Rectangle 634" class="cls-8" width="14.965" height="7.202" transform="translate(85.907 125.661)"/>
        <rect id="Rectangle_635" data-name="Rectangle 635" class="cls-8" width="14.965" height="7.202" transform="translate(11.567 116.923)"/>
        <rect id="Rectangle_636" data-name="Rectangle 636" class="cls-8" width="14.965" height="7.202" transform="translate(62.452 89.848)"/>
        <rect id="Rectangle_637" data-name="Rectangle 637" class="cls-8" width="14.965" height="7.202" transform="translate(30.114 84.498)"/>
        <rect id="Rectangle_638" data-name="Rectangle 638" class="cls-8" width="14.965" height="7.202" transform="translate(24.415 135.967)"/>
        <path id="Path_7484" data-name="Path 7484" class="cls-8" d="M136.28,336.37a3.464,3.464,0,0,0-3.454-3.454H68.185a3.464,3.464,0,0,0-3.454,3.454v6.342a3.464,3.464,0,0,0,3.454,3.454h64.641a3.464,3.464,0,0,0,3.454-3.454Z" transform="translate(-44.264 -230.513)"/>
        <path id="Path_7485" data-name="Path 7485" class="cls-2" d="M136.28,319.439a3.464,3.464,0,0,0-3.454-3.454H68.185a3.464,3.464,0,0,0-3.454,3.454v6.342a3.464,3.464,0,0,0,3.454,3.454h64.641a3.464,3.464,0,0,0,3.454-3.454Z" transform="translate(-44.264 -218.935)"/>
        <path id="Path_7486" data-name="Path 7486" class="cls-8" d="M132.826,315.984H68.185a3.464,3.464,0,0,0-3.454,3.454v4.4a3.464,3.464,0,0,1,3.454-3.454h64.641a3.464,3.464,0,0,1,3.454,3.454v-4.4A3.464,3.464,0,0,0,132.826,315.984Z" transform="translate(-44.264 -218.935)"/>
        <g id="Group_2896" data-name="Group 2896" transform="translate(11.611 70.472)">
          <path id="Path_7487" data-name="Path 7487" class="cls-14" d="M36.723,232.469v13.484H51.6L38.086,232.439C37.547,231.9,36.723,231.613,36.723,232.469Z" transform="translate(-36.723 -231.926)"/>
          <path id="Path_7488" data-name="Path 7488" class="cls-14" d="M83.773,232.469v13.484H98.65L85.136,232.439C84.6,231.9,83.773,231.613,83.773,232.469Z" transform="translate(-68.897 -231.926)"/>
          <path id="Path_7489" data-name="Path 7489" class="cls-14" d="M130.824,232.469v13.484H145.7l-13.514-13.514C131.648,231.9,130.824,231.613,130.824,232.469Z" transform="translate(-101.071 -231.926)"/>
          <path id="Path_7490" data-name="Path 7490" class="cls-14" d="M177.875,232.469v13.484h14.877l-13.514-13.514C178.7,231.9,177.875,231.613,177.875,232.469Z" transform="translate(-133.245 -231.926)"/>
          <path id="Path_7491" data-name="Path 7491" class="cls-14" d="M224.927,232.469v13.484H239.8L226.29,232.439C225.751,231.9,224.927,231.613,224.927,232.469Z" transform="translate(-165.42 -231.926)"/>
          <path id="Path_7492" data-name="Path 7492" class="cls-14" d="M271.977,232.469v13.484h14.877L273.34,232.439C272.8,231.9,271.977,231.613,271.977,232.469Z" transform="translate(-197.594 -231.926)"/>
          <rect id="Rectangle_639" data-name="Rectangle 639" class="cls-14" width="41.391" height="26.767" transform="translate(23.935 52.112)"/>
        </g>
        <g id="Group_2897" data-name="Group 2897" class="cls-20" transform="translate(35.547 128.109)">
          <rect id="Rectangle_640" data-name="Rectangle 640" width="41.391" height="5.181"/>
        </g>
        <g id="Group_2898" data-name="Group 2898" class="cls-20" transform="translate(35.547 137.953)">
          <rect id="Rectangle_641" data-name="Rectangle 641" width="41.391" height="5.181"/>
        </g>
        <g id="Group_2899" data-name="Group 2899" transform="translate(35.008 97.049)">
          <rect id="Rectangle_642" data-name="Rectangle 642" class="cls-4" width="5.181" height="13.249"/>
          <rect id="Rectangle_643" data-name="Rectangle 643" class="cls-4" width="5.181" height="13.249" transform="translate(18.644)"/>
          <rect id="Rectangle_644" data-name="Rectangle 644" class="cls-4" width="5.181" height="13.249" transform="translate(37.287)"/>
        </g>
        <path id="Path_7493" data-name="Path 7493" class="cls-15" d="M127.224,326.222H62.582a6.051,6.051,0,0,1-6.044-6.044v-6.342a6.051,6.051,0,0,1,6.044-6.044h64.641a6.051,6.051,0,0,1,6.044,6.044v6.342A6.051,6.051,0,0,1,127.224,326.222Zm-64.641-13.25a.875.875,0,0,0-.863.864v6.342a.875.875,0,0,0,.863.863h64.641a.875.875,0,0,0,.863-.863v-6.342a.875.875,0,0,0-.863-.864Z" transform="translate(-38.662 -213.332)"/>
        <path id="Path_7494" data-name="Path 7494" class="cls-3" d="M161.886,486.122H1.395A1.4,1.4,0,0,1,0,484.727v-4.993a1.4,1.4,0,0,1,1.395-1.4H161.886v7.784Z" transform="translate(0 -329.955)"/>
      </g>
      <g id="pizzeria" transform="translate(1620.467 -3957.752)">
        <rect id="Rectangle_664" data-name="Rectangle 664" class="cls-6" width="129.74" height="79.272" transform="translate(13.639 43.139)"/>
        <g id="Group_2905" data-name="Group 2905" transform="translate(13.639 90.203)">
          <rect id="Rectangle_665" data-name="Rectangle 665" class="cls-21" width="44.308" height="5.025"/>
          <rect id="Rectangle_666" data-name="Rectangle 666" class="cls-21" width="44.308" height="5.025" transform="translate(85.435)"/>
        </g>
        <rect id="Rectangle_667" data-name="Rectangle 667" class="cls-5" width="7.258" height="6.986" transform="translate(13.639 115.425)"/>
        <rect id="Rectangle_668" data-name="Rectangle 668" class="cls-5" width="14.516" height="6.985" transform="translate(13.639 76.434)"/>
        <rect id="Rectangle_669" data-name="Rectangle 669" class="cls-5" width="14.516" height="6.985" transform="translate(106.819 80.371)"/>
        <rect id="Rectangle_670" data-name="Rectangle 670" class="cls-5" width="14.516" height="6.986" transform="translate(95.637 108.967)"/>
        <rect id="Rectangle_671" data-name="Rectangle 671" class="cls-5" width="14.516" height="6.985" transform="translate(118.655 43.139)"/>
        <rect id="Rectangle_672" data-name="Rectangle 672" class="cls-5" width="14.516" height="6.986" transform="translate(128.866 98.488)"/>
        <rect id="Rectangle_673" data-name="Rectangle 673" class="cls-5" width="14.516" height="6.985" transform="translate(41.269 53.071)"/>
        <rect id="Rectangle_674" data-name="Rectangle 674" class="cls-5" width="14.516" height="6.986" transform="translate(21.839 40.314)"/>
        <rect id="Rectangle_675" data-name="Rectangle 675" class="cls-5" width="14.516" height="6.985" transform="translate(33.701 100.307)"/>
        <path id="Path_7510" data-name="Path 7510" class="cls-4" d="M164.847,449.921a1.442,1.442,0,0,1-1.42,1.455H0V443.26H163.426a1.442,1.442,0,0,1,1.42,1.455v5.206Z" transform="translate(0 -320.851)"/>
        <rect id="Rectangle_676" data-name="Rectangle 676" class="cls-10" width="41.129" height="43.35" transform="translate(57.945 79.061)"/>
        <g id="Group_2906" data-name="Group 2906" class="cls-19" transform="translate(75.996 79.061)">
          <rect id="Rectangle_677" data-name="Rectangle 677" width="5.025" height="43.35"/>
        </g>
        <path id="Path_7511" data-name="Path 7511" class="cls-3" d="M174.213,149.63V138.141a5.04,5.04,0,0,0-5.025-5.025H49.5a5.04,5.04,0,0,0-5.025,5.025V149.63Z" transform="translate(-30.834 -105.822)"/>
        <circle id="Ellipse_306" data-name="Ellipse 306" class="cls-2" cx="28.308" cy="28.308" r="28.308" transform="translate(50.201 2.513)"/>
        <path id="Path_7512" data-name="Path 7512" class="cls-5" d="M192,52.313a28.267,28.267,0,0,0-28.1,31.7.6.6,0,0,1,.065.173,28.118,28.118,0,0,1,1.273-5.313L192,105.638l26.761-26.761a28.126,28.126,0,0,1,1.273,5.314.489.489,0,0,1,.063-.161A28.266,28.266,0,0,0,192,52.313Z" transform="translate(-113.488 -49.8)"/>
        <path id="Path_7513" data-name="Path 7513" class="cls-3" d="M186.318,105.762A30.821,30.821,0,1,1,217.14,74.94,30.856,30.856,0,0,1,186.318,105.762Zm0-56.617a25.8,25.8,0,1,0,25.8,25.8A25.826,25.826,0,0,0,186.318,49.144Z" transform="translate(-107.809 -44.119)"/>
        <path id="Path_7514" data-name="Path 7514" class="cls-15" d="M152.147,86.552,184,118.4l32.382-32.382A45.8,45.8,0,0,0,152.147,86.552Z" transform="translate(-105.486 -64.238)"/>
        <path id="Path_7515" data-name="Path 7515" class="cls-21" d="M178.22,120.111l23.852,23.852,24.386-24.386A34.5,34.5,0,0,0,178.22,120.111Z" transform="translate(-123.563 -89.801)"/>
        <g id="Group_2907" data-name="Group 2907" transform="translate(58.604 28.076)">
          <path id="Path_7516" data-name="Path 7516" class="cls-16" d="M204.65,163.031a9.587,9.587,0,1,0-13.559-13.559Z" transform="translate(-191.091 -143.291)"/>
          <path id="Path_7517" data-name="Path 7517" class="cls-16" d="M262.167,138.475a9.591,9.591,0,0,0,3.609,15.83L278,142.084a9.592,9.592,0,0,0-15.83-3.609Z" transform="translate(-238.423 -135.667)"/>
        </g>
        <path id="Path_7518" data-name="Path 7518" class="cls-8" d="M226.459,119.577a34.5,34.5,0,0,0-48.238.534l3.021,3.021a28.763,28.763,0,0,1,40.676,0c.166.166.32.338.481.506Z" transform="translate(-123.564 -89.801)"/>
        <path id="Path_7519" data-name="Path 7519" class="cls-2" d="M375.352,238.091a3.36,3.36,0,0,0-3.35-3.35h-20.35a3.36,3.36,0,0,0-3.35,3.35v9.879a3.36,3.36,0,0,0,3.35,3.35H372a3.36,3.36,0,0,0,3.35-3.35Z" transform="translate(-241.485 -176.281)"/>
        <path id="Path_7520" data-name="Path 7520" class="cls-5" d="M372,234.74h-20.35a3.36,3.36,0,0,0-3.35,3.35v4.8a3.36,3.36,0,0,1,3.35-3.35H372a3.36,3.36,0,0,1,3.35,3.35v-4.8A3.36,3.36,0,0,0,372,234.74Z" transform="translate(-241.485 -176.28)"/>
        <path id="Path_7521" data-name="Path 7521" class="cls-3" d="M366.322,248.154h-20.35a5.869,5.869,0,0,1-5.863-5.863v-9.879a5.869,5.869,0,0,1,5.863-5.863h20.35a5.869,5.869,0,0,1,5.863,5.863v9.879A5.869,5.869,0,0,1,366.322,248.154Zm-20.35-16.58a.849.849,0,0,0-.838.838v9.879a.849.849,0,0,0,.838.838h20.35a.849.849,0,0,0,.838-.838v-9.879a.849.849,0,0,0-.838-.838h-20.35Z" transform="translate(-235.804 -170.601)"/>
        <path id="Path_7522" data-name="Path 7522" class="cls-2" d="M75.488,238.091a3.36,3.36,0,0,1,3.35-3.35h20.35a3.36,3.36,0,0,1,3.35,3.35v9.879a3.36,3.36,0,0,1-3.35,3.35H78.838a3.36,3.36,0,0,1-3.35-3.35v-9.879Z" transform="translate(-52.337 -176.281)"/>
        <path id="Path_7523" data-name="Path 7523" class="cls-5" d="M78.838,234.74h20.35a3.36,3.36,0,0,1,3.35,3.35v4.8a3.36,3.36,0,0,0-3.35-3.35H78.838a3.36,3.36,0,0,0-3.35,3.35v-4.8A3.36,3.36,0,0,1,78.838,234.74Z" transform="translate(-52.337 -176.28)"/>
        <g id="Group_2908" data-name="Group 2908" transform="translate(20.638 55.948)">
          <path id="Path_7524" data-name="Path 7524" class="cls-3" d="M93.507,248.154H73.158a5.869,5.869,0,0,1-5.863-5.863v-9.879a5.869,5.869,0,0,1,5.863-5.863h20.35a5.869,5.869,0,0,1,5.863,5.863v9.879A5.869,5.869,0,0,1,93.507,248.154Zm-20.35-16.58a.849.849,0,0,0-.838.838v9.879a.849.849,0,0,0,.838.838h20.35a.849.849,0,0,0,.838-.838v-9.879a.849.849,0,0,0-.838-.838H73.158Z" transform="translate(-67.295 -226.549)"/>
          <rect id="Rectangle_678" data-name="Rectangle 678" class="cls-3" width="81.212" height="7.55" transform="translate(17.267 66.462)"/>
        </g>
        <g id="Group_2909" data-name="Group 2909" transform="translate(6.36 104.949)">
          <path id="Path_7525" data-name="Path 7525" class="cls-13" d="M410.667,403.786a17.461,17.461,0,0,0-34.922,0Z" transform="translate(-266.871 -386.325)"/>
          <path id="Path_7526" data-name="Path 7526" class="cls-13" d="M55.66,403.786a17.461,17.461,0,0,0-34.922,0Z" transform="translate(-20.738 -386.325)"/>
        </g>
        <path id="Path_7527" data-name="Path 7527" class="cls-3" d="M226.9,339.583h-5.025V298.748h-36.1v40.835h-5.025V296.236a2.513,2.513,0,0,1,2.513-2.513h41.127a2.513,2.513,0,0,1,2.513,2.513v43.348Z" transform="translate(-125.318 -217.174)"/>
      </g>
      <g id="house" transform="translate(399.993 -3943.283)">
        <path id="Path_7528" data-name="Path 7528" class="cls-15" d="M92.911,94.867a3.2,3.2,0,0,1-3.194,3.194H66.876a3.2,3.2,0,0,1-3.194-3.194V61.858a3.2,3.2,0,0,1,3.194-3.194h22.84a3.2,3.2,0,0,1,3.194,3.194Z" transform="translate(-45.609 -54.937)"/>
        <rect id="Rectangle_679" data-name="Rectangle 679" class="cls-8" width="16.857" height="8.112" transform="translate(18.073 9.214)"/>
        <rect id="Rectangle_680" data-name="Rectangle 680" class="cls-8" width="16.857" height="8.112" transform="translate(30.445 21.73)"/>
        <path id="Path_7529" data-name="Path 7529" class="cls-14" d="M42.577,100.644v66.178H161.139V100.644l-59.281-37Z" transform="translate(-30.366 -58.537)"/>
        <path id="Path_7530" data-name="Path 7530" class="cls-8" d="M101.857,63.648l-59.28,37v13.416l59.28-37,59.281,37V100.644Z" transform="translate(-30.366 -58.537)"/>
        <rect id="Rectangle_681" data-name="Rectangle 681" class="cls-8" width="16.858" height="8.112" transform="translate(113.914 54.936)"/>
        <rect id="Rectangle_682" data-name="Rectangle 682" class="cls-8" width="16.858" height="8.112" transform="translate(90.851 91.752)"/>
        <rect id="Rectangle_683" data-name="Rectangle 683" class="cls-8" width="16.858" height="8.112" transform="translate(70.049 54.805)"/>
        <rect id="Rectangle_684" data-name="Rectangle 684" class="cls-8" width="16.857" height="8.112" transform="translate(12.211 74.601)"/>
        <rect id="Rectangle_685" data-name="Rectangle 685" class="cls-8" width="16.858" height="8.112" transform="translate(25.452 45.551)"/>
        <rect id="Rectangle_686" data-name="Rectangle 686" class="cls-15" width="28.954" height="39.831" transform="translate(57.013 68.455)"/>
        <g id="Group_2910" data-name="Group 2910" transform="translate(59.429 22.7)">
          <circle id="Ellipse_307" data-name="Ellipse 307" class="cls-2" cx="5.671" cy="5.671" r="5.671" transform="translate(6.389 54.363)"/>
          <circle id="Ellipse_308" data-name="Ellipse 308" class="cls-2" cx="12.06" cy="12.06" r="12.06"/>
        </g>
        <path id="Path_7531" data-name="Path 7531" class="cls-5" d="M224.636,126.974a12.05,12.05,0,0,0-11.869,14.189,12.058,12.058,0,0,1,23.738,0,12.05,12.05,0,0,0-11.869-14.189Z" transform="translate(-153.146 -104.274)"/>
        <path id="Path_7532" data-name="Path 7532" class="cls-15" d="M236.7,136.638h-9.664v-9.664H222.24v9.664h-9.664v4.792h9.664v9.664h4.792V141.43H236.7Z" transform="translate(-153.146 -104.274)"/>
        <path id="Path_7533" data-name="Path 7533" class="cls-10" d="M218.406,147.261A14.456,14.456,0,1,1,232.862,132.8,14.473,14.473,0,0,1,218.406,147.261Zm0-24.12a9.664,9.664,0,1,0,9.664,9.664A9.675,9.675,0,0,0,218.406,123.14Z" transform="translate(-146.916 -98.045)"/>
        <rect id="Rectangle_687" data-name="Rectangle 687" class="cls-8" width="28.954" height="5.034" transform="translate(57.013 68.455)"/>
        <rect id="Rectangle_688" data-name="Rectangle 688" class="cls-2" width="20.718" height="23.415" transform="translate(22.657 58.945)"/>
        <rect id="Rectangle_689" data-name="Rectangle 689" class="cls-5" width="20.718" height="5.162" transform="translate(22.657 58.945)"/>
        <rect id="Rectangle_690" data-name="Rectangle 690" class="cls-15" width="20.718" height="4.792" transform="translate(22.657 68.257)"/>
        <rect id="Rectangle_692" data-name="Rectangle 692" class="cls-2" width="20.718" height="23.415" transform="translate(99.61 58.945)"/>
        <rect id="Rectangle_693" data-name="Rectangle 693" class="cls-5" width="20.718" height="5.162" transform="translate(99.61 58.945)"/>
        <rect id="Rectangle_694" data-name="Rectangle 694" class="cls-15" width="20.718" height="4.792" transform="translate(99.61 68.257)"/>
        <path id="Path_7534" data-name="Path 7534" class="cls-10" d="M371.724,277.046H351.006a2.4,2.4,0,0,1-2.4-2.4V251.235a2.4,2.4,0,0,1,2.4-2.4h20.718a2.4,2.4,0,0,1,2.4,2.4V274.65A2.4,2.4,0,0,1,371.724,277.046ZM353.4,272.254h15.927V253.631H353.4Z" transform="translate(-251.396 -192.29)"/>
        <path id="Path_7535" data-name="Path 7535" class="cls-13" d="M142.216,443.9H140.64L0,444.1c-.867,0,0-.915,0-1.782v-5.639c0-.867-.867-1.763,0-1.763l140.636.187h1.576Z" transform="translate(0.381 -326.821)"/>
        <rect id="Rectangle_695" data-name="Rectangle 695" class="cls-3" width="47.191" height="8.79" transform="translate(47.892 108.286)"/>
        <path id="Path_7536" data-name="Path 7536" class="cls-10" d="M138.819,95.91a5.084,5.084,0,0,1-2.7-.774L73.906,56.38,11.69,95.136a5.111,5.111,0,1,1-5.4-8.676L71.2,46.02a5.111,5.111,0,0,1,5.4,0l64.918,40.44a5.111,5.111,0,0,1-2.708,9.45Z" transform="translate(-2.414 -45.247)"/>
        <g id="Group_2911" data-name="Group 2911" transform="translate(5.293 89.305)">
          <path id="Path_7537" data-name="Path 7537" class="cls-17" d="M395.616,385.751a18.98,18.98,0,0,0-37.96,0Z" transform="translate(-263.222 -366.771)"/>
          <path id="Path_7538" data-name="Path 7538" class="cls-17" d="M17.67,385.751a18.98,18.98,0,0,1,37.96,0Z" transform="translate(-17.67 -366.771)"/>
        </g>
        <path id="Path_7539" data-name="Path 7539" class="cls-10" d="M371.724,277.046H351.006a2.4,2.4,0,0,1-2.4-2.4V251.235a2.4,2.4,0,0,1,2.4-2.4h20.718a2.4,2.4,0,0,1,2.4,2.4V274.65A2.4,2.4,0,0,1,371.724,277.046ZM353.4,272.254h15.927V253.631H353.4Z" transform="translate(-327.241 -193.301)"/>
      </g>
    </g>
  </g>
</svg>
