<svg xmlns="http://www.w3.org/2000/svg" viewBox="5209 2894 1366.363 767.17">
  <defs>
    <style>
      .cls-1 {
        fill: #fff;
      }

      .cls-2 {
        fill: #a4a9ad;
      }

      .cls-3 {
        opacity: 0.2;
      }

      .cls-4 {
        fill: #0071ce;
      }

      .cls-5 {
        opacity: 0.1;
      }

      .cls-6 {
        fill: #333e48;
      }

      .cls-7 {
        fill: #929596;
      }

      .cls-8 {
        fill: #d9ddde;
      }

      .cls-9 {
        fill: #d1d3d3;
      }

      .cls-10 {
        fill: #1e252b;
      }

      .cls-11 {
        fill: #e69e05;
      }

      .cls-12 {
        fill: #8d8a94;
      }

      .cls-13 {
        fill: #736f7b;
      }

      .cls-14 {
        fill: #ffb61e;
      }

      .cls-15 {
        fill: #00b3e3;
      }

      .cls-16 {
        fill: #008eb4;
      }
    </style>
  </defs>
  <g id="Group_2753" data-name="Group 2753" transform="translate(-4 -151)">
    <rect id="Rectangle_50" data-name="Rectangle 50" class="cls-1" width="1366" height="767" transform="translate(5213 3045)"/>
    <g id="Group_2752" data-name="Group 2752" transform="translate(123.297 57.975)">
      <g id="building-1" transform="translate(6094.157 3605.738)">
        <path id="Path_429" data-name="Path 429" class="cls-2" d="M158.27,73.486a3.686,3.686,0,0,0-3.675-3.675H109.108a3.686,3.686,0,0,0-3.675,3.675V86.611a3.686,3.686,0,0,0,3.675,3.675h45.487a3.686,3.686,0,0,0,3.675-3.675V73.486Z" transform="translate(-68.828 -60.365)"/>
        <rect id="Rectangle_51" data-name="Rectangle 51" class="cls-3" width="52.837" height="3.277" transform="translate(36.606 18.679)"/>
        <rect id="Rectangle_52" data-name="Rectangle 52" class="cls-4" width="94.882" height="111.36" transform="translate(17.882 29.921)"/>
        <rect id="Rectangle_53" data-name="Rectangle 53" class="cls-5" width="19.393" height="9.332" transform="translate(17.882 80.935)"/>
        <rect id="Rectangle_54" data-name="Rectangle 54" class="cls-5" width="19.393" height="9.332" transform="translate(85.559 104.841)"/>
        <rect id="Rectangle_55" data-name="Rectangle 55" class="cls-5" width="19.393" height="9.332" transform="translate(61.422 37.884)"/>
        <rect id="Rectangle_56" data-name="Rectangle 56" class="cls-5" width="19.393" height="9.332" transform="translate(75.861 69.937)"/>
        <rect id="Rectangle_57" data-name="Rectangle 57" class="cls-5" width="19.393" height="9.332" transform="translate(25.926 45.028)"/>
        <rect id="Rectangle_58" data-name="Rectangle 58" class="cls-5" width="19.393" height="9.332" transform="translate(24.805 125.141)"/>
        <rect id="Rectangle_59" data-name="Rectangle 59" class="cls-5" width="19.393" height="9.332" transform="translate(37.789 98.189)"/>
        <path id="Path_430" data-name="Path 430" class="cls-6" d="M166.854,299.561a16.669,16.669,0,1,0-33.337,0v28.9h33.338v-28.9Z" transform="translate(-87.162 -199.467)"/>
        <path id="Path_431" data-name="Path 431" class="cls-7" d="M120.14,422.28v-6.312a1.843,1.843,0,0,1,1.837-1.837h38.951a1.843,1.843,0,0,1,1.837,1.837v6.312Z" transform="translate(-78.429 -285.142)"/>
        <g id="Group_122" data-name="Group 122" transform="translate(31.105 55.788)">
          <path id="Path_432" data-name="Path 432" class="cls-1" d="M174.4,315.684a8.094,8.094,0,0,0-16.188,0Z" transform="translate(-134.389 -271.378)"/>
          <path id="Path_433" data-name="Path 433" class="cls-1" d="M153.43,205.127a1.843,1.843,0,0,0-1.837-1.837H91.43a1.843,1.843,0,0,0-1.837,1.837v11.891a1.843,1.843,0,0,0,1.837,1.837h60.163a1.843,1.843,0,0,0,1.837-1.837V205.127Z" transform="translate(-89.593 -203.29)"/>
        </g>
        <path id="Path_434" data-name="Path 434" class="cls-3" d="M151.592,203.29H91.43a1.843,1.843,0,0,0-1.837,1.837V210.5a1.843,1.843,0,0,1,1.837-1.837h60.163a1.843,1.843,0,0,1,1.837,1.837v-5.377A1.843,1.843,0,0,0,151.592,203.29Z" transform="translate(-58.488 -147.502)"/>
        <rect id="Rectangle_60" data-name="Rectangle 60" class="cls-5" width="94.882" height="13.259" transform="translate(17.882 29.921)"/>
        <path id="Path_435" data-name="Path 435" class="cls-6" d="M137.739,109.524a3.686,3.686,0,0,0-3.675-3.675H41.929a3.686,3.686,0,0,0-3.675,3.675V118.1a3.686,3.686,0,0,0,3.675,3.675h92.135a3.686,3.686,0,0,0,3.675-3.675v-8.575h0Z" transform="translate(-24.973 -83.891)"/>
        <rect id="Rectangle_61" data-name="Rectangle 61" class="cls-5" width="13.151" height="119.32" transform="translate(99.615 21.957)"/>
        <rect id="Rectangle_62" data-name="Rectangle 62" class="cls-8" width="56.387" height="125.6" transform="translate(104.951 15.681)"/>
        <rect id="Rectangle_63" data-name="Rectangle 63" class="cls-5" width="19.393" height="9.332" transform="translate(104.951 80.822)"/>
        <rect id="Rectangle_64" data-name="Rectangle 64" class="cls-5" width="19.393" height="9.332" transform="translate(137.657 120.477)"/>
        <rect id="Rectangle_65" data-name="Rectangle 65" class="cls-5" width="19.393" height="9.332" transform="translate(141.946 55.038)"/>
        <rect id="Rectangle_66" data-name="Rectangle 66" class="cls-5" width="19.393" height="9.332" transform="translate(109.118 36.223)"/>
        <rect id="Rectangle_67" data-name="Rectangle 67" class="cls-5" width="19.393" height="9.332" transform="translate(135.945 18.679)"/>
        <rect id="Rectangle_68" data-name="Rectangle 68" class="cls-5" width="56.387" height="8.451" transform="translate(104.951 15.681)"/>
        <path id="Path_436" data-name="Path 436" class="cls-1" d="M373.006,141.7a11.917,11.917,0,1,0-23.835,0v26.937h23.835V141.7h0Z" transform="translate(-227.944 -99.513)"/>
        <path id="Path_437" data-name="Path 437" class="cls-3" d="M361.088,129.779A11.918,11.918,0,0,0,349.171,141.7v5.083a11.917,11.917,0,0,1,23.835,0V141.7A11.918,11.918,0,0,0,361.088,129.779Z" transform="translate(-227.944 -99.513)"/>
        <rect id="Rectangle_69" data-name="Rectangle 69" class="cls-3" width="23.835" height="5.939" transform="translate(121.227 42.184)"/>
        <path id="Path_438" data-name="Path 438" class="cls-1" d="M373.006,294.823a11.917,11.917,0,0,0-23.835,0v26.938h23.835V294.823Z" transform="translate(-227.944 -199.476)"/>
        <path id="Path_439" data-name="Path 439" class="cls-3" d="M361.088,282.906a11.917,11.917,0,0,0-11.917,11.917v5.084a11.917,11.917,0,1,1,23.835,0v-5.084A11.917,11.917,0,0,0,361.088,282.906Z" transform="translate(-227.944 -199.476)"/>
        <rect id="Rectangle_70" data-name="Rectangle 70" class="cls-3" width="23.835" height="5.939" transform="translate(121.227 95.345)"/>
        <path id="Path_440" data-name="Path 440" class="cls-2" d="M180.186,444.4a1.488,1.488,0,0,1-1.484,1.484H9.423A1.488,1.488,0,0,1,7.939,444.4v-5.313A1.489,1.489,0,0,1,9.423,437.6H178.7a1.488,1.488,0,0,1,1.484,1.485V444.4Z" transform="translate(-5.183 -300.465)"/>
        <path id="Path_441" data-name="Path 441" class="cls-6" d="M354.95,54.217a3.686,3.686,0,0,0-3.675-3.675h-57.5a3.686,3.686,0,0,0-3.675,3.675v8.575a3.686,3.686,0,0,0,3.675,3.675h57.5a3.686,3.686,0,0,0,3.675-3.675Z" transform="translate(-189.379 -47.786)"/>
        <path id="Path_442" data-name="Path 442" class="cls-9" d="M355.841,437.6H279.286v8.282H355.84a1.488,1.488,0,0,0,1.484-1.484v-5.313A1.488,1.488,0,0,0,355.841,437.6Z" transform="translate(-182.322 -300.465)"/>
        <path id="Path_443" data-name="Path 443" class="cls-10" d="M97.7,112.12V100.229A4.6,4.6,0,0,0,93.1,95.636H32.943a4.6,4.6,0,0,0-4.594,4.594V112.12a4.6,4.6,0,0,0,4.594,4.594H93.105A4.6,4.6,0,0,0,97.7,112.12ZM60.268,111.2H33.861V101.148H60.268V111.2Zm31.919,0H65.78V101.148H92.186Zm85.676,65.785H164.094V63.646a6.436,6.436,0,0,0,4.234-6.036V49.035A6.438,6.438,0,0,0,161.9,42.6h-57.5a6.438,6.438,0,0,0-6.431,6.431V57.61a6.4,6.4,0,0,0,1.569,4.2H92.2V55.725a6.438,6.438,0,0,0-6.431-6.431H40.28a6.438,6.438,0,0,0-6.431,6.431v6.081H16.956a6.438,6.438,0,0,0-6.431,6.431v8.575a6.441,6.441,0,0,0,4.6,6.163v94.012H0V190.8l177.76-.114v-9.463ZM103.473,49.035a.931.931,0,0,1,.919-.919h57.5a.931.931,0,0,1,.919.919V57.61a.931.931,0,0,1-.919.919h-57.5a.931.931,0,0,1-.919-.919V49.035Zm55.109,15.006V176.986H107.708V64.041ZM39.361,55.725a.931.931,0,0,1,.919-.919H85.767a.931.931,0,0,1,.919.919v6.081H39.361ZM16.038,68.237a.931.931,0,0,1,.919-.919H102.2V77.731H16.956a.931.931,0,0,1-.919-.919ZM82.5,168.837h-.051V142.7a19.425,19.425,0,1,0-38.85,0v26.139h-.05a4.6,4.6,0,0,0-4.594,4.594v3.556H20.638V83.243H102.2v93.743h-15.1V173.43A4.6,4.6,0,0,0,82.5,168.837Zm-.919,5.512v2.637H44.467v-2.637Zm-32.469-5.512V142.7a13.913,13.913,0,1,1,27.825,0v26.139Zm45.1,16.431H5.512V182.5h88.7v2.77Zm78.039,0H99.72V182.5h72.526v2.77Zm-51.019-70.787h23.835a2.756,2.756,0,0,0,2.756-2.756V84.787a14.674,14.674,0,1,0-29.347,0v26.937A2.756,2.756,0,0,0,121.228,114.481Zm11.917-38.855a9.177,9.177,0,0,1,8.737,6.405H124.408A9.177,9.177,0,0,1,133.145,75.626Zm-9.161,11.918h18.322V95.5H123.984Zm0,13.468h18.322v7.956H123.984Zm-2.756,66.633h23.835a2.756,2.756,0,0,0,2.756-2.756V137.95a14.674,14.674,0,0,0-29.347,0v26.938A2.756,2.756,0,0,0,121.228,167.645Zm11.917-38.855a9.176,9.176,0,0,1,8.737,6.4H124.408A9.177,9.177,0,0,1,133.145,128.79Zm-9.161,11.917h18.322v7.957H123.984Zm0,13.469h18.322v7.956H123.984Z" transform="translate(0 -42.604)"/>
      </g>
      <g id="Group_2751" data-name="Group 2751" transform="translate(6228.759 3370.525)">
        <path id="Path_6853" data-name="Path 6853" class="cls-11" d="M59.773,84.171H248.929V94.4H52.1Z" transform="translate(-44.752 -46.807)"/>
        <g id="Group_2750" data-name="Group 2750" transform="translate(19.58 51.598)">
          <path id="Path_6854" data-name="Path 6854" class="cls-12" d="M455.082,124.907a1.559,1.559,0,0,1-1.557,1.557h-7.117a1.559,1.559,0,0,1-1.557-1.557v-8.674h10.231v8.674Z" transform="translate(-444.851 -116.233)"/>
          <path id="Path_6855" data-name="Path 6855" class="cls-12" d="M119.52,137.139H102.168a5.1,5.1,0,0,1-4.952-3.845l-5.04-17.061H119.52Z" transform="translate(47.284 -116.232)"/>
        </g>
        <path id="Path_6856" data-name="Path 6856" class="cls-13" d="M108.368,116.231c3.208,9.026,8.939,16.429,16.119,20.906H111.1a5.1,5.1,0,0,1-4.952-3.845l-5.04-17.061Z" transform="translate(57.932 -64.633)"/>
        <path id="Path_6857" data-name="Path 6857" class="cls-14" d="M65.23,476.923H93.7a5.121,5.121,0,0,1,5.115,5.115v5.115h-38.7v-5.115A5.121,5.121,0,0,1,65.23,476.923Z" transform="translate(101.805 -108.821)"/>
        <path id="Path_6858" data-name="Path 6858" class="cls-11" d="M109.735,476.923h.382a32.146,32.146,0,0,0,13.443,10.231H104.62v-5.115A5.121,5.121,0,0,1,109.735,476.923Z" transform="translate(57.299 -108.821)"/>
        <path id="Path_6859" data-name="Path 6859" class="cls-14" d="M100.85,448.548H93.733c-.859,0-1.557-1.649-1.557-3.676V172.34h10.231V444.873C102.407,446.9,101.708,448.548,100.85,448.548Z" transform="translate(83.978 -98.683)"/>
        <path id="Path_6860" data-name="Path 6860" class="cls-14" d="M95.665,13.414a1.559,1.559,0,0,1,1.548-1.38h.747a1.552,1.552,0,0,1,.514.09l.214.066.187.156.2.144.119.157a1.535,1.535,0,0,1,.317.775l2.958,26.636h-9.76Z" transform="translate(83.682 -6.696)"/>
        <rect id="Rectangle_377" data-name="Rectangle 377" class="cls-11" width="13.789" height="13.789" transform="translate(208.18 33.806)"/>
        <path id="Path_6861" data-name="Path 6861" class="cls-10" d="M.676-132.4a3.346,3.346,0,0,0-.316,3.5,3.335,3.335,0,0,0,2.985,1.842h10.9v7.34a6.9,6.9,0,0,0,6.895,6.895h.222v12.383L.6-65.842A3.328,3.328,0,0,0,0-63.934,3.334,3.334,0,0,0,3.336-60.6H46.047a3.339,3.339,0,0,0,2.9-1.69,3.343,3.343,0,0,0-.044-3.363L28.032-100.44v-12.383h.222a6.9,6.9,0,0,0,6.895-6.895v-7.34h118.72l5.044,17.068a10.437,10.437,0,0,0,10.12,7.842h1.784V168.318a6.884,6.884,0,0,0,2.936,5.636l-2.206,8.821h-4.51a10.464,10.464,0,0,0-10.453,10.453v3.781H152.8a3.336,3.336,0,0,0,0,6.672h56.935a3.336,3.336,0,0,0,0-6.672h-3.781v-3.781A10.464,10.464,0,0,0,195.5,182.774h-4.51l-2.206-8.821a6.884,6.884,0,0,0,2.936-5.636V-127.057h32.249a3.334,3.334,0,0,0,3.336-3.336v-17.793c0-.031,0-.067,0-.1,0-.067,0-.138-.013-.209,0-.053-.013-.111-.022-.165s-.013-.1-.022-.151-.027-.125-.04-.187c-.013-.044-.022-.084-.035-.129-.018-.062-.04-.12-.062-.182-.013-.04-.027-.084-.044-.125s-.049-.107-.071-.16-.044-.093-.067-.138a1.318,1.318,0,0,1-.075-.138l-.093-.147c-.022-.036-.053-.075-.08-.111-.036-.053-.071-.1-.111-.151s-.058-.067-.089-.1a1.835,1.835,0,0,0-.125-.138c-.04-.04-.08-.075-.115-.111l-.12-.107c-.058-.049-.115-.089-.174-.134-.027-.018-.049-.04-.075-.058l-.027-.018,0,0L185.913-178.5a6.857,6.857,0,0,0-4.27-1.49H180.9c-.138,0-.271.013-.409.022a3.331,3.331,0,0,0-1.085.067l-137.3,31.938H14.02a3.337,3.337,0,0,0-2.669,1.335ZM9.238-67.271,24.7-93.034,40.153-67.271Zm.778-66.459,5.671-7.562H202.843v7.562H10.017Zm10.9,14.012v-7.34h7.562v7.34a.22.22,0,0,1-.222.222H21.137A.221.221,0,0,1,20.915-119.718Zm150.253-28.246H71.552L173.81-171.752Zm-5.84,36.145-4.5-15.239H185.05v18.237H169.033a3.765,3.765,0,0,1-3.665-2.864Zm-2.073,308.826v-3.781a3.786,3.786,0,0,1,3.781-3.781H195.5a3.786,3.786,0,0,1,3.781,3.781v3.781Zm14.234-28.69V-102.148h7.562V168.318a.22.22,0,0,1-.222.222h-7.117A.221.221,0,0,1,177.488,168.318Zm.392-316.281,2.793-25.154a.226.226,0,0,1,.222-.2h.747a.26.26,0,0,1,.08.018c.027.022.058.044.089.067a.23.23,0,0,1,.053.115l2.793,25.154H177.88Zm.547,330.738,1.89-7.562h1.9l1.891,7.562Zm12.944-330.738-2.246-20.217,24.14,16.658h-7.086a3.337,3.337,0,0,0-3.336,3.336v.222Zm18.144,14.234v-11.12h11.12v11.12h-11.12Z" transform="translate(0 179.99)"/>
      </g>
      <g id="trucking" transform="translate(5971 3640.244)">
        <path id="Path_552" data-name="Path 552" class="cls-14" d="M29.162,303H80.874V281.655a1.108,1.108,0,0,0-1.107-1.107h-50.6a1.108,1.108,0,0,0-1.107,1.107V301.9A1.108,1.108,0,0,0,29.162,303Zm7.591-10.121H54.465a1.423,1.423,0,0,1,0,2.847H36.753a1.423,1.423,0,0,1,0-2.847Zm17.711-4.744H36.752a1.423,1.423,0,0,1,0-2.847H54.464a1.423,1.423,0,0,1,0,2.847Z" transform="translate(-19.199 -216.027)"/>
        <path id="Path_553" data-name="Path 553" class="cls-11" d="M151.882,280.548h-8.333A35.856,35.856,0,0,1,133.435,303h19.554V281.655A1.108,1.108,0,0,0,151.882,280.548Z" transform="translate(-91.315 -216.027)"/>
        <path id="Path_554" data-name="Path 554" class="cls-14" d="M173.286,250.29l1.351.114-2.707-9.934h-3.973a3.642,3.642,0,0,0-3.637,3.637v6.167h8.7C173.108,250.274,173.2,250.283,173.286,250.29Z" transform="translate(-112.45 -188.6)"/>
        <path id="Path_555" data-name="Path 555" class="cls-2" d="M435.217,355.463h16.8a3.641,3.641,0,0,0,3.637-3.637v-16.8Z" transform="translate(-297.836 -253.305)"/>
        <path id="Path_556" data-name="Path 556" class="cls-2" d="M91.568,384.751H18.191a6.167,6.167,0,0,0,0,12.335H91.568a6.167,6.167,0,0,0,0-12.335Zm-1,5.16a1.417,1.417,0,1,1-.421,1.008A1.439,1.439,0,0,1,90.565,389.911ZM85.4,390.919a1.425,1.425,0,0,1-1.423,1.423h-58.2a1.423,1.423,0,0,1,0-2.847h58.2A1.425,1.425,0,0,1,85.4,390.919Zm-68.212-1.008a1.44,1.44,0,0,1,1-.416,1.428,1.428,0,0,1,1.423,1.423,1.423,1.423,0,1,1-2.426-1.008Z" transform="translate(-8.228 -287.337)"/>
        <path id="Path_557" data-name="Path 557" class="cls-15" d="M222.324,260.485a3.632,3.632,0,0,0-.385-1.626l-8.187-16.374a3.609,3.609,0,0,0-3.254-2.013h-12.72l6.084,22.308a3.649,3.649,0,0,0,3.509,2.678h14.954v-4.972Z" transform="translate(-135.347 -188.601)"/>
        <path id="Path_558" data-name="Path 558" class="cls-16" d="M250.252,260.586l-8.187-16.374a3.625,3.625,0,0,0-.976-1.216,44.662,44.662,0,0,1,.851,8.691,44,44,0,0,1-2.788,15.5h11.486v-4.972A3.635,3.635,0,0,0,250.252,260.586Z" transform="translate(-163.66 -190.329)"/>
        <path id="Path_559" data-name="Path 559" class="cls-14" d="M440.144,187.027l-16.233-62.612-1.171,1.151a8.973,8.973,0,0,1-8.31,2.364l-1.652-.375,21.971,64.868Z" transform="translate(-282.48 -109.18)"/>
        <g id="Group_141" data-name="Group 141" transform="translate(64.521 7.139)">
          <path id="Path_560" data-name="Path 560" class="cls-11" d="M206.184,317.756l-1.785.448v10.263h22.456v-7.274H211.9A6.478,6.478,0,0,1,206.184,317.756Z" transform="translate(-204.399 -248.629)"/>
          <path id="Path_561" data-name="Path 561" class="cls-11" d="M266.808,104.9a8.913,8.913,0,0,1-.635-3.315,8.766,8.766,0,0,1,.074-1.137l.219-1.687L216.352,121.4a8.748,8.748,0,0,0-4.566,4.874l-5.392,14.379h10a6.407,6.407,0,0,1,4.664,1.979l1.139,1.186,2.323-8.022a11.585,11.585,0,0,1,5.892-7.1l37.972-19.145-1.558-4.6Z" transform="translate(-205.764 -98.765)"/>
        </g>
        <path id="Path_562" data-name="Path 562" class="cls-2" d="M417.126,94.339a6.16,6.16,0,0,0-8.609-5.66,1.126,1.126,0,0,0-.1.049l-.035.015a6.139,6.139,0,0,0-3.368,7.208l.008.029.25.738.014.034a6.168,6.168,0,0,0,11.844-2.413Z" transform="translate(-277.014 -84.377)"/>
        <path id="Path_563" data-name="Path 563" class="cls-10" d="M161.619,154.429v20.242a7.44,7.44,0,0,1-7.433,7.433h-25.3a2.372,2.372,0,1,1,0-4.744h4.077l15.975-15.975L127.514,98.134,90.876,116.608a7.755,7.755,0,0,0-3.953,4.763l-3.157,10.9,6.221,12.439a7.477,7.477,0,0,1,.784,3.324v16.516a2.373,2.373,0,0,1-2.372,2.372H73.06v2.847H83.339a9.963,9.963,0,1,1,0,19.926H9.963a9.963,9.963,0,1,1,0-19.925H20.242v-2.847H9.963a4.906,4.906,0,0,1-4.9-4.9V141.778a4.906,4.906,0,0,1,4.9-4.9H48.075v-5.219a7.44,7.44,0,0,1,7.433-7.433h5.946l5.538-14.764a12.568,12.568,0,0,1,6.557-7l56.038-25.306A9.957,9.957,0,0,1,143.9,85.778l17.645,68.057a2.021,2.021,0,0,1,.051.24v0a2.174,2.174,0,0,1,.022.319C161.616,154.407,161.619,154.416,161.619,154.429Zm-4.744,20.242V160.156l-17.2,17.2h14.514A2.69,2.69,0,0,0,156.875,174.671Zm-.266-20.96-15.684-60.5a9.921,9.921,0,0,1-9.185,2.612l20.938,61.817Zm-17.446-67.6a5.212,5.212,0,0,0-7.3-4.782c-.019.006-.035.019-.051.025l-.051.022a5.19,5.19,0,0,0-2.85,6.1l.228.674a5.219,5.219,0,0,0,10.023-2.04ZM125.977,93.6l-1.294-3.818a9.883,9.883,0,0,1-.7-3.666,9.711,9.711,0,0,1,.082-1.259L75.5,106.784a7.8,7.8,0,0,0-4.067,4.343l-4.912,13.1h8.631a7.382,7.382,0,0,1,5.348,2.271l1.866-6.443a12.535,12.535,0,0,1,6.376-7.683ZM88.558,179.731a5.224,5.224,0,0,0-5.219-5.218H9.963a5.219,5.219,0,1,0,0,10.437H83.34A5.224,5.224,0,0,0,88.558,179.731Zm-2.53-17.554V156.8h-14a7.448,7.448,0,0,1-6.553-3.938v9.315H86.028Zm0-10.121v-4.023a2.677,2.677,0,0,0-.285-1.2l-8.189-16.377a2.669,2.669,0,0,0-2.4-1.486H63.673l5.756,21.109a2.7,2.7,0,0,0,2.593,1.98ZM68.316,169.768v-2.847H24.986v2.847Zm-7.4-32.874-2.16-7.926H55.507a2.69,2.69,0,0,0-2.688,2.689v5.219h7.749C60.684,136.875,60.8,136.885,60.915,136.894Zm-.19,25.283v-20.4a.156.156,0,0,0-.158-.158H9.963a.156.156,0,0,0-.158.158v20.242a.156.156,0,0,0,.158.158ZM83.34,177.359a2.375,2.375,0,1,0,1.676.7A2.381,2.381,0,0,0,83.34,177.359Zm-65.786,0a2.372,2.372,0,0,0,0,4.744h58.2a2.372,2.372,0,1,0,0-4.744Zm0-32.893a2.372,2.372,0,0,0,0,4.744H35.265a2.372,2.372,0,0,0,0-4.744Zm0,7.591a2.372,2.372,0,0,0,0,4.744H35.265a2.372,2.372,0,0,0,0-4.744Zm-7.591,25.3a2.375,2.375,0,1,0,1.676.7A2.381,2.381,0,0,0,9.963,177.359Z" transform="translate(0 -76.15)"/>
      </g>
      <g id="billboard" transform="translate(6169.735 3492.56)">
        <rect id="Rectangle_148" data-name="Rectangle 148" class="cls-6" width="9.669" height="40.888" transform="translate(52.069 70.935)"/>
        <rect id="Rectangle_149" data-name="Rectangle 149" class="cls-3" width="9.669" height="8.435" transform="translate(52.069 70.935)"/>
        <rect id="Rectangle_150" data-name="Rectangle 150" class="cls-3" width="9.669" height="5.856" transform="translate(52.069 91.923)"/>
        <path id="Path_534" data-name="Path 534" class="cls-9" d="M181.258,375.95v8.291a1.867,1.867,0,0,0,1.862,1.861h29.505a1.867,1.867,0,0,0,1.862-1.861V375.95Z" transform="translate(-140.969 -292.452)"/>
        <g id="Group_134" data-name="Group 134" transform="translate(45.667 86.599)">
          <ellipse id="Ellipse_23" data-name="Ellipse 23" class="cls-2" cx="1.976" cy="1.976" rx="1.976" ry="1.976" transform="translate(9.259)"/>
          <ellipse id="Ellipse_24" data-name="Ellipse 24" class="cls-2" cx="1.976" cy="1.976" rx="1.976" ry="1.976"/>
          <ellipse id="Ellipse_25" data-name="Ellipse 25" class="cls-2" cx="1.976" cy="1.976" rx="1.976" ry="1.976" transform="translate(18.518)"/>
        </g>
        <rect id="Rectangle_151" data-name="Rectangle 151" class="cls-3" width="33.228" height="5.076" transform="translate(40.289 83.498)"/>
        <g id="Group_135" data-name="Group 135" transform="translate(11.359 1.85)">
          <path id="Path_535" data-name="Path 535" class="cls-6" d="M71.276,9.979a1.365,1.365,0,0,0-1.362-1.362H52.468a1.366,1.366,0,0,0-1.362,1.362v3.633a1.366,1.366,0,0,0,1.362,1.362H69.915a1.366,1.366,0,0,0,1.362-1.362V9.979Z" transform="translate(-51.106 -8.617)"/>
          <path id="Path_536" data-name="Path 536" class="cls-6" d="M230.794,9.979a1.366,1.366,0,0,0-1.362-1.362H211.985a1.366,1.366,0,0,0-1.362,1.362v3.633a1.366,1.366,0,0,0,1.362,1.362h17.447a1.366,1.366,0,0,0,1.362-1.362Z" transform="translate(-175.167 -8.617)"/>
          <path id="Path_537" data-name="Path 537" class="cls-6" d="M390.31,9.979a1.365,1.365,0,0,0-1.362-1.362H371.5a1.366,1.366,0,0,0-1.362,1.362v3.633a1.366,1.366,0,0,0,1.362,1.362h17.447a1.366,1.366,0,0,0,1.362-1.362Z" transform="translate(-299.228 -8.617)"/>
        </g>
        <path id="Path_538" data-name="Path 538" class="cls-15" d="M118.427,70.984A2.732,2.732,0,0,0,115.7,68.26H11.048a2.732,2.732,0,0,0-2.723,2.724V126.9a2.732,2.732,0,0,0,2.723,2.724H115.7a2.732,2.732,0,0,0,2.723-2.724Z" transform="translate(-6.475 -53.153)"/>
        <path id="Path_539" data-name="Path 539" class="cls-4" d="M261.772,156.213h51.045a2.732,2.732,0,0,0,2.724-2.724V102.445A53.768,53.768,0,0,0,261.772,156.213Z" transform="translate(-203.587 -79.739)"/>
        <g id="Group_136" data-name="Group 136" transform="translate(13.751 30.978)">
          <path id="Path_540" data-name="Path 540" class="cls-1" d="M95.574,143.363H63.717a1.85,1.85,0,0,1,0-3.7H95.574a1.85,1.85,0,0,1,0,3.7Z" transform="translate(-61.867 -139.662)"/>
          <path id="Path_541" data-name="Path 541" class="cls-1" d="M86.226,181.047H63.718a1.85,1.85,0,1,1,0-3.7H86.226a1.85,1.85,0,1,1,0,3.7Z" transform="translate(-61.868 -168.97)"/>
        </g>
        <path id="Path_542" data-name="Path 542" class="cls-10" d="M109.229,78.616a4.579,4.579,0,0,0,4.574-4.574V18.123a4.579,4.579,0,0,0-4.574-4.574H94.209v-3.2h6.872a3.216,3.216,0,0,0,3.212-3.212V3.5A3.216,3.216,0,0,0,101.08.292H83.634A3.216,3.216,0,0,0,80.421,3.5V7.137a3.216,3.216,0,0,0,3.212,3.212h6.874v3.2H58.752v-3.2h6.872a3.216,3.216,0,0,0,3.212-3.212V3.5A3.216,3.216,0,0,0,65.624.292H48.177A3.216,3.216,0,0,0,44.965,3.5V7.137a3.216,3.216,0,0,0,3.212,3.212h6.874v3.2H23.3v-3.2h6.872A3.216,3.216,0,0,0,33.38,7.137V3.5A3.216,3.216,0,0,0,30.168.292H12.721A3.216,3.216,0,0,0,9.509,3.5V7.137a3.216,3.216,0,0,0,3.212,3.212h6.873v3.2H4.574A4.579,4.579,0,0,0,0,18.123V74.043a4.579,4.579,0,0,0,4.574,4.574H50.218V81.94H1.852a1.85,1.85,0,0,0,0,3.7H38.438v6.441a3.716,3.716,0,0,0,3.712,3.711h8.068v16.323a1.85,1.85,0,0,0,1.85,1.85h9.668a1.85,1.85,0,0,0,1.85-1.85V95.793h8.068a3.716,3.716,0,0,0,3.712-3.711V85.641h36.586a1.85,1.85,0,0,0,0-3.7H63.586V78.616ZM84.122,6.649V3.993h16.469V6.649H84.122Zm-35.456,0V3.993H65.136V6.649H48.666Zm-35.456,0V3.993H29.679V6.649H13.21ZM59.886,110.265H53.919V95.793h5.967ZM71.664,85.64l-.009,6.451-29.516-.01V85.64Zm-17.745-3.7V78.616h5.967V81.94ZM4.574,74.916a.885.885,0,0,1-.873-.873V18.123a.885.885,0,0,1,.873-.873H109.229a.885.885,0,0,1,.873.873V74.043a.885.885,0,0,1-.873.873Z" transform="translate(0 -0.292)"/>
      </g>
    </g>
  </g>
</svg>
