<svg xmlns="http://www.w3.org/2000/svg" xmlns:xlink="http://www.w3.org/1999/xlink" viewBox="1155 -3197 1366 767">
  <defs>
    <style>
      .cls-1 {
        clip-path: url(#clip-Hero_New_Alt_);
      }

      .cls-2 {
        fill: #fff;
      }

      .cls-3 {
        fill: #333e48;
      }

      .cls-4 {
        fill: #a4a9ad;
      }

      .cls-19, .cls-5 {
        opacity: 0.2;
      }

      .cls-6 {
        fill: #ff5959;
      }

      .cls-7 {
        opacity: 0.3;
      }

      .cls-20, .cls-8 {
        opacity: 0.1;
      }

      .cls-9 {
        fill: #a4a7a8;
      }

      .cls-10 {
        fill: #ffb819;
      }

      .cls-11 {
        fill: #0071ce;
      }

      .cls-12 {
        fill: #00b3e3;
      }

      .cls-13 {
        fill: #00ad68;
      }

      .cls-14 {
        fill: #d1d3d3;
      }

      .cls-15 {
        fill: #d68231;
      }

      .cls-16 {
        fill: #a93439;
      }

      .cls-17 {
        fill: #218649;
      }

      .cls-18 {
        fill: #ffb61e;
      }
    </style>
    <clipPath id="clip-Hero_New_Alt_">
      <rect x="1155" y="-3197" width="1366" height="767"/>
    </clipPath>
  </defs>
  <g id="Hero_New_Alt_" data-name="Hero New Alt " class="cls-1">
    <rect id="Rectangle_50" data-name="Rectangle 50" class="cls-2" width="1366" height="767" transform="translate(1155 -3197)"/>
    <g id="building" transform="translate(2127.642 -2626.539)">
      <path id="Path_7377" data-name="Path 7377" class="cls-3" d="M370.905,125.18h-.317v6.5h.317a9.976,9.976,0,0,1,9.965,9.965v13.909h-10.4v6.5h10.4v26.627h-10.4v6.5h10.4v26.626h-10.4v6.5h10.4V269.9h6.5V141.646A16.484,16.484,0,0,0,370.905,125.18Z" transform="translate(-223.458 -78.855)"/>
      <path id="Path_7378" data-name="Path 7378" class="cls-4" d="M184.84,24.956V12.788a4.358,4.358,0,0,0-4.346-4.346H152.076a4.358,4.358,0,0,0-4.346,4.346V24.956h37.11Z" transform="translate(-89.106 -8.442)"/>
      <rect id="Rectangle_536" data-name="Rectangle 536" class="cls-5" width="37.11" height="7.098" transform="translate(58.623 9.416)"/>
      <rect id="Rectangle_537" data-name="Rectangle 537" class="cls-6" width="98.212" height="163.823" transform="translate(49.234 27.218)"/>
      <rect id="Rectangle_538" data-name="Rectangle 538" class="cls-7" width="98.212" height="11.181" transform="translate(49.234 27.218)"/>
      <path id="Path_7379" data-name="Path 7379" class="cls-3" d="M218.786,45.891a3.051,3.051,0,0,0-3.042-3.042H110.173a3.051,3.051,0,0,0-3.042,3.042V57.624a3.052,3.052,0,0,0,3.042,3.042H215.744a3.052,3.052,0,0,0,3.042-3.042V45.891Z" transform="translate(-64.618 -29.195)"/>
      <rect id="Rectangle_539" data-name="Rectangle 539" class="cls-5" width="18.782" height="9.039" transform="translate(128.664 93.454)"/>
      <rect id="Rectangle_540" data-name="Rectangle 540" class="cls-5" width="18.782" height="9.039" transform="translate(49.234 63.804)"/>
      <rect id="Rectangle_541" data-name="Rectangle 541" class="cls-5" width="18.782" height="9.039" transform="translate(118.066 146.207)"/>
      <rect id="Rectangle_542" data-name="Rectangle 542" class="cls-5" width="18.782" height="9.039" transform="translate(58.623 121.079)"/>
      <rect id="Rectangle_543" data-name="Rectangle 543" class="cls-5" width="18.782" height="9.039" transform="translate(49.234 168.887)"/>
      <rect id="Rectangle_544" data-name="Rectangle 544" class="cls-5" width="18.782" height="9.039" transform="translate(98.342 74.159)"/>
      <rect id="Rectangle_545" data-name="Rectangle 545" class="cls-5" width="18.782" height="9.039" transform="translate(120.939 40.986)"/>
      <path id="Path_7380" data-name="Path 7380" class="cls-5" d="M184.074,435.027A2.179,2.179,0,0,1,181.9,437.2H160.092a2.179,2.179,0,0,1-2.173-2.173v-4.49a2.179,2.179,0,0,1,2.173-2.173H181.9a2.179,2.179,0,0,1,2.173,2.173v4.49h0Z" transform="translate(-95.252 -261.727)"/>
      <path id="Path_7381" data-name="Path 7381" class="cls-2" d="M186.128,385.923v-21.4a2.179,2.179,0,0,0-2.172-2.173H170.049a2.179,2.179,0,0,0-2.173,2.173v21.4Z" transform="translate(-101.258 -221.909)"/>
      <path id="Path_7382" data-name="Path 7382" class="cls-5" d="M183.955,362.35H170.049a2.179,2.179,0,0,0-2.173,2.173v3.455a2.179,2.179,0,0,1,2.173-2.173h13.907a2.18,2.18,0,0,1,2.172,2.173v-3.455A2.179,2.179,0,0,0,183.955,362.35Z" transform="translate(-101.258 -221.909)"/>
      <path id="Path_7383" data-name="Path 7383" class="cls-3" d="M184.074,428.415a2.179,2.179,0,0,1-2.173,2.173H160.092a2.179,2.179,0,0,1-2.173-2.173v-4.491a2.179,2.179,0,0,1,2.173-2.173H181.9a2.179,2.179,0,0,1,2.173,2.173v4.491Z" transform="translate(-95.252 -257.739)"/>
      <path id="Path_7384" data-name="Path 7384" class="cls-5" d="M271.8,435.027a2.179,2.179,0,0,0,2.173,2.173h21.809a2.179,2.179,0,0,0,2.173-2.173v-4.49a2.179,2.179,0,0,0-2.173-2.173H273.975a2.18,2.18,0,0,0-2.173,2.173v4.49Z" transform="translate(-163.943 -261.727)"/>
      <path id="Path_7385" data-name="Path 7385" class="cls-2" d="M281.761,385.923v-21.4a2.178,2.178,0,0,1,2.172-2.173H297.84a2.179,2.179,0,0,1,2.173,2.173v21.4Z" transform="translate(-169.95 -221.909)"/>
      <path id="Path_7386" data-name="Path 7386" class="cls-5" d="M283.933,362.35H297.84a2.179,2.179,0,0,1,2.173,2.173v3.455a2.18,2.18,0,0,0-2.173-2.173H283.933a2.179,2.179,0,0,0-2.172,2.173v-3.455A2.178,2.178,0,0,1,283.933,362.35Z" transform="translate(-169.95 -221.909)"/>
      <path id="Path_7387" data-name="Path 7387" class="cls-3" d="M271.8,428.415a2.179,2.179,0,0,0,2.173,2.173h21.809a2.179,2.179,0,0,0,2.173-2.173v-4.491a2.179,2.179,0,0,0-2.173-2.173H273.975a2.179,2.179,0,0,0-2.173,2.173v4.491Z" transform="translate(-163.943 -257.739)"/>
      <path id="Path_7388" data-name="Path 7388" class="cls-5" d="M184.074,314.014a2.179,2.179,0,0,1-2.173,2.173H160.092a2.179,2.179,0,0,1-2.173-2.173v-4.49a2.179,2.179,0,0,1,2.173-2.173H181.9a2.179,2.179,0,0,1,2.173,2.173v4.49Z" transform="translate(-95.252 -188.735)"/>
      <path id="Path_7389" data-name="Path 7389" class="cls-2" d="M186.128,264.91v-21.4a2.179,2.179,0,0,0-2.172-2.173H170.049a2.179,2.179,0,0,0-2.173,2.173v21.4Z" transform="translate(-101.258 -148.917)"/>
      <path id="Path_7390" data-name="Path 7390" class="cls-5" d="M183.955,241.337H170.049a2.179,2.179,0,0,0-2.173,2.173v3.455a2.179,2.179,0,0,1,2.173-2.173h13.907a2.179,2.179,0,0,1,2.172,2.173V243.51A2.179,2.179,0,0,0,183.955,241.337Z" transform="translate(-101.258 -148.918)"/>
      <path id="Path_7391" data-name="Path 7391" class="cls-3" d="M184.074,307.4a2.179,2.179,0,0,1-2.173,2.173H160.092a2.179,2.179,0,0,1-2.173-2.173v-4.491a2.179,2.179,0,0,1,2.173-2.173H181.9a2.179,2.179,0,0,1,2.173,2.173V307.4Z" transform="translate(-95.252 -184.747)"/>
      <path id="Path_7392" data-name="Path 7392" class="cls-5" d="M271.8,314.014a2.179,2.179,0,0,0,2.173,2.173h21.809a2.179,2.179,0,0,0,2.173-2.173v-4.49a2.179,2.179,0,0,0-2.173-2.173H273.975a2.18,2.18,0,0,0-2.173,2.173v4.49Z" transform="translate(-163.943 -188.735)"/>
      <path id="Path_7393" data-name="Path 7393" class="cls-2" d="M281.761,264.91v-21.4a2.178,2.178,0,0,1,2.172-2.173H297.84a2.179,2.179,0,0,1,2.173,2.173v21.4Z" transform="translate(-169.95 -148.917)"/>
      <path id="Path_7394" data-name="Path 7394" class="cls-5" d="M283.933,241.337H297.84a2.179,2.179,0,0,1,2.173,2.173v3.455a2.179,2.179,0,0,0-2.173-2.173H283.933a2.178,2.178,0,0,0-2.172,2.173V243.51A2.178,2.178,0,0,1,283.933,241.337Z" transform="translate(-169.95 -148.918)"/>
      <path id="Path_7395" data-name="Path 7395" class="cls-3" d="M271.8,307.4a2.179,2.179,0,0,0,2.173,2.173h21.809a2.179,2.179,0,0,0,2.173-2.173v-4.491a2.179,2.179,0,0,0-2.173-2.173H273.975a2.179,2.179,0,0,0-2.173,2.173V307.4Z" transform="translate(-163.943 -184.747)"/>
      <path id="Path_7396" data-name="Path 7396" class="cls-5" d="M184.074,193a2.179,2.179,0,0,1-2.173,2.173H160.092A2.179,2.179,0,0,1,157.919,193v-4.49a2.179,2.179,0,0,1,2.173-2.173H181.9a2.179,2.179,0,0,1,2.173,2.173V193Z" transform="translate(-95.252 -115.743)"/>
      <path id="Path_7397" data-name="Path 7397" class="cls-2" d="M186.128,143.9V122.5a2.179,2.179,0,0,0-2.172-2.173H170.049a2.179,2.179,0,0,0-2.173,2.173v21.4Z" transform="translate(-101.258 -75.927)"/>
      <path id="Path_7398" data-name="Path 7398" class="cls-5" d="M183.955,120.325H170.049a2.179,2.179,0,0,0-2.173,2.173v3.455a2.179,2.179,0,0,1,2.173-2.173h13.907a2.18,2.18,0,0,1,2.172,2.173V122.5A2.179,2.179,0,0,0,183.955,120.325Z" transform="translate(-101.258 -75.927)"/>
      <path id="Path_7399" data-name="Path 7399" class="cls-3" d="M184.074,186.389a2.179,2.179,0,0,1-2.173,2.173H160.092a2.179,2.179,0,0,1-2.173-2.173V181.9a2.179,2.179,0,0,1,2.173-2.173H181.9a2.179,2.179,0,0,1,2.173,2.173v4.49Z" transform="translate(-95.252 -111.755)"/>
      <path id="Path_7400" data-name="Path 7400" class="cls-5" d="M271.8,193a2.179,2.179,0,0,0,2.173,2.173h21.809A2.179,2.179,0,0,0,297.957,193v-4.49a2.179,2.179,0,0,0-2.173-2.173H273.975a2.18,2.18,0,0,0-2.173,2.173V193Z" transform="translate(-163.943 -115.743)"/>
      <path id="Path_7401" data-name="Path 7401" class="cls-2" d="M281.761,143.9V122.5a2.178,2.178,0,0,1,2.172-2.173H297.84a2.179,2.179,0,0,1,2.173,2.173v21.4Z" transform="translate(-169.95 -75.927)"/>
      <path id="Path_7402" data-name="Path 7402" class="cls-5" d="M283.933,120.325H297.84a2.179,2.179,0,0,1,2.173,2.173v3.455a2.18,2.18,0,0,0-2.173-2.173H283.933a2.179,2.179,0,0,0-2.172,2.173V122.5A2.178,2.178,0,0,1,283.933,120.325Z" transform="translate(-169.95 -75.927)"/>
      <path id="Path_7403" data-name="Path 7403" class="cls-3" d="M271.8,186.389a2.179,2.179,0,0,0,2.173,2.173h21.809a2.179,2.179,0,0,0,2.173-2.173V181.9a2.179,2.179,0,0,0-2.173-2.173H273.975A2.18,2.18,0,0,0,271.8,181.9v4.49Z" transform="translate(-163.943 -111.755)"/>
      <path id="Path_7404" data-name="Path 7404" class="cls-3" d="M203.176,486.956a1.756,1.756,0,0,1-1.751,1.751H1.751A1.756,1.756,0,0,1,0,486.956v-6.268a1.756,1.756,0,0,1,1.751-1.751H201.425a1.756,1.756,0,0,1,1.751,1.751v6.268Z" transform="translate(0 -292.231)"/>
      <rect id="Rectangle_546" data-name="Rectangle 546" class="cls-3" width="140.355" height="9.769" transform="translate(31.41 186.707)"/>
    </g>
    <g id="building-1" transform="translate(1154.432 -2599.96)">
      <path id="Path_7405" data-name="Path 7405" class="cls-4" d="M163.52,68.229a4.388,4.388,0,0,0-4.375-4.375H104.991a4.388,4.388,0,0,0-4.375,4.375V83.854a4.388,4.388,0,0,0,4.375,4.375h54.154a4.388,4.388,0,0,0,4.375-4.375V68.229Z" transform="translate(-60.317 -55.889)"/>
      <rect id="Rectangle_547" data-name="Rectangle 547" class="cls-5" width="62.905" height="3.902" transform="translate(40.299 18.957)"/>
      <rect id="Rectangle_548" data-name="Rectangle 548" class="cls-6" width="112.96" height="132.578" transform="translate(18.008 32.34)"/>
      <rect id="Rectangle_549" data-name="Rectangle 549" class="cls-8" width="23.088" height="11.11" transform="translate(18.008 93.075)"/>
      <rect id="Rectangle_550" data-name="Rectangle 550" class="cls-8" width="23.088" height="11.11" transform="translate(98.579 121.535)"/>
      <rect id="Rectangle_551" data-name="Rectangle 551" class="cls-8" width="23.088" height="11.11" transform="translate(69.844 41.822)"/>
      <rect id="Rectangle_552" data-name="Rectangle 552" class="cls-8" width="23.088" height="11.11" transform="translate(87.034 79.981)"/>
      <rect id="Rectangle_553" data-name="Rectangle 553" class="cls-8" width="23.088" height="11.11" transform="translate(27.585 50.327)"/>
      <rect id="Rectangle_554" data-name="Rectangle 554" class="cls-8" width="23.088" height="11.11" transform="translate(26.25 145.704)"/>
      <rect id="Rectangle_555" data-name="Rectangle 555" class="cls-8" width="23.088" height="11.11" transform="translate(41.708 113.617)"/>
      <path id="Path_7406" data-name="Path 7406" class="cls-3" d="M169.286,303.6a19.845,19.845,0,1,0-39.69,0V338h39.69V303.6Z" transform="translate(-77.69 -187.714)"/>
      <path id="Path_7407" data-name="Path 7407" class="cls-4" d="M115.792,428.893v-7.515a2.194,2.194,0,0,1,2.188-2.188h46.372a2.194,2.194,0,0,1,2.188,2.188v7.515Z" transform="translate(-69.415 -268.906)"/>
      <g id="Group_2877" data-name="Group 2877" transform="translate(33.751 63.136)">
        <path id="Path_7408" data-name="Path 7408" class="cls-2" d="M174.357,318.878a9.636,9.636,0,0,0-19.273,0Z" transform="translate(-126.72 -266.13)"/>
        <path id="Path_7409" data-name="Path 7409" class="cls-2" d="M160.267,203.79a2.194,2.194,0,0,0-2.188-2.188H86.455a2.194,2.194,0,0,0-2.188,2.188v14.156a2.194,2.194,0,0,0,2.188,2.188H158.08a2.194,2.194,0,0,0,2.188-2.188V203.79Z" transform="translate(-84.267 -201.602)"/>
      </g>
      <path id="Path_7410" data-name="Path 7410" class="cls-5" d="M158.08,201.6H86.455a2.194,2.194,0,0,0-2.188,2.188v6.4A2.194,2.194,0,0,1,86.455,208H158.08a2.194,2.194,0,0,1,2.188,2.188v-6.4A2.194,2.194,0,0,0,158.08,201.6Z" transform="translate(-50.516 -138.466)"/>
      <rect id="Rectangle_556" data-name="Rectangle 556" class="cls-3" width="6.563" height="18.533" transform="translate(68.47 63.137)"/>
      <path id="Path_7411" data-name="Path 7411" class="cls-3" d="M153.169,218.5H81.544a5.475,5.475,0,0,1-5.469-5.469V198.88a5.475,5.475,0,0,1,5.469-5.469h71.626a5.475,5.475,0,0,1,5.469,5.469v14.156A5.475,5.475,0,0,1,153.169,218.5Zm-70.531-6.563h69.438V199.974H82.638Z" transform="translate(-45.605 -133.555)"/>
      <rect id="Rectangle_557" data-name="Rectangle 557" class="cls-8" width="112.96" height="15.785" transform="translate(18.008 32.34)"/>
      <path id="Path_7412" data-name="Path 7412" class="cls-3" d="M149.726,105.42a4.388,4.388,0,0,0-4.375-4.375H35.661a4.388,4.388,0,0,0-4.375,4.375v10.209A4.388,4.388,0,0,0,35.661,120h109.69a4.388,4.388,0,0,0,4.375-4.375V105.42Z" transform="translate(-18.755 -78.184)"/>
      <rect id="Rectangle_558" data-name="Rectangle 558" class="cls-8" width="15.657" height="142.055" transform="translate(115.314 22.86)"/>
      <rect id="Rectangle_559" data-name="Rectangle 559" class="cls-9" width="67.131" height="149.532" transform="translate(121.667 15.387)"/>
      <rect id="Rectangle_560" data-name="Rectangle 560" class="cls-8" width="23.088" height="11.11" transform="translate(121.667 92.94)"/>
      <rect id="Rectangle_561" data-name="Rectangle 561" class="cls-8" width="23.088" height="11.11" transform="translate(160.605 140.151)"/>
      <rect id="Rectangle_562" data-name="Rectangle 562" class="cls-8" width="23.088" height="11.11" transform="translate(165.711 62.244)"/>
      <rect id="Rectangle_563" data-name="Rectangle 563" class="cls-8" width="23.088" height="11.11" transform="translate(126.628 39.844)"/>
      <rect id="Rectangle_564" data-name="Rectangle 564" class="cls-8" width="23.088" height="11.11" transform="translate(158.566 18.957)"/>
      <rect id="Rectangle_565" data-name="Rectangle 565" class="cls-8" width="67.131" height="10.061" transform="translate(121.667 15.387)"/>
      <path id="Path_7413" data-name="Path 7413" class="cls-2" d="M380.529,139.927a14.188,14.188,0,1,0-28.377,0V172h28.376v-32.07Z" transform="translate(-211.108 -92.988)"/>
      <path id="Path_7414" data-name="Path 7414" class="cls-5" d="M366.34,125.739a14.188,14.188,0,0,0-14.188,14.188v6.051a14.188,14.188,0,0,1,28.376,0v-6.051A14.188,14.188,0,0,0,366.34,125.739Z" transform="translate(-211.108 -92.988)"/>
      <rect id="Rectangle_566" data-name="Rectangle 566" class="cls-5" width="28.376" height="7.07" transform="translate(141.044 46.94)"/>
      <rect id="Rectangle_567" data-name="Rectangle 567" class="cls-3" width="28.376" height="6.563" transform="translate(141.044 59.694)"/>
      <path id="Path_7415" data-name="Path 7415" class="cls-3" d="M361.43,117.547a17.489,17.489,0,0,0-17.469,17.47v32.07a3.281,3.281,0,0,0,3.281,3.281h28.376a3.281,3.281,0,0,0,3.281-3.281v-32.07A17.49,17.49,0,0,0,361.43,117.547Zm0,6.563a10.926,10.926,0,0,1,10.4,7.626h-20.8A10.924,10.924,0,0,1,361.43,124.11Zm10.907,39.7H350.524V138.3h21.813Z" transform="translate(-206.198 -88.077)"/>
      <path id="Path_7416" data-name="Path 7416" class="cls-2" d="M380.529,297.955a14.188,14.188,0,0,0-28.377,0v32.071h28.376V297.955Z" transform="translate(-211.108 -187.722)"/>
      <path id="Path_7417" data-name="Path 7417" class="cls-5" d="M366.34,283.767a14.188,14.188,0,0,0-14.188,14.188v6.053a14.188,14.188,0,1,1,28.376,0v-6.053A14.188,14.188,0,0,0,366.34,283.767Z" transform="translate(-211.108 -187.722)"/>
      <rect id="Rectangle_568" data-name="Rectangle 568" class="cls-5" width="28.376" height="7.07" transform="translate(141.044 110.23)"/>
      <rect id="Rectangle_569" data-name="Rectangle 569" class="cls-3" width="28.376" height="6.563" transform="translate(141.044 122.988)"/>
      <path id="Path_7418" data-name="Path 7418" class="cls-3" d="M361.43,275.574a17.489,17.489,0,0,0-17.469,17.469v32.07a3.281,3.281,0,0,0,3.281,3.281h28.376a3.281,3.281,0,0,0,3.281-3.281v-32.07A17.49,17.49,0,0,0,361.43,275.574Zm0,6.563a10.926,10.926,0,0,1,10.4,7.625h-20.8A10.924,10.924,0,0,1,361.43,282.137Zm10.907,39.7H350.524V296.324h21.813Z" transform="translate(-206.198 -182.811)"/>
      <path id="Path_7419" data-name="Path 7419" class="cls-3" d="M205.067,451.508a1.772,1.772,0,0,1-1.767,1.767H0v-9.86H203.3a1.772,1.772,0,0,1,1.767,1.768Z" transform="translate(0 -283.428)"/>
      <path id="Path_7420" data-name="Path 7420" class="cls-3" d="M368.4,48.342a4.388,4.388,0,0,0-4.375-4.375H295.563a4.388,4.388,0,0,0-4.375,4.375V58.551a4.388,4.388,0,0,0,4.375,4.375h68.461a4.388,4.388,0,0,0,4.375-4.375Z" transform="translate(-174.561 -43.967)"/>
      <path id="Path_7421" data-name="Path 7421" class="cls-3" d="M371.172,443.415H280.031v9.86h91.141a1.772,1.772,0,0,0,1.767-1.767v-6.325A1.772,1.772,0,0,0,371.172,443.415Z" transform="translate(-167.873 -283.428)"/>
    </g>
    <g id="book-shop" transform="translate(1352.126 -2598.504)">
      <path id="Path_7422" data-name="Path 7422" class="cls-10" d="M103.595,96.783A7,7,0,0,0,96.617,89.8H72.044a7,7,0,0,0-6.978,6.978v82.532a7,7,0,0,0,6.978,6.978H96.617a7,7,0,0,0,6.978-6.978V96.783Z" transform="translate(-39.594 -70.695)"/>
      <path id="Path_7423" data-name="Path 7423" class="cls-11" d="M202.016,47.969a7,7,0,0,0-6.978-6.978H170.464a7,7,0,0,0-6.978,6.978V130.5a7,7,0,0,0,6.978,6.978h24.574a7,7,0,0,0,6.978-6.978Z" transform="translate(-99.485 -40.991)"/>
      <rect id="Rectangle_570" data-name="Rectangle 570" class="cls-12" width="6.414" height="59.368" transform="translate(80.061 18.559)"/>
      <rect id="Rectangle_571" data-name="Rectangle 571" class="cls-5" width="77.059" height="14.219" transform="translate(25.469 36.252)"/>
      <path id="Path_7424" data-name="Path 7424" class="cls-13" d="M287.428,50.431a7,7,0,0,0-9.868,0L263.95,64.041a7,7,0,0,0,0,9.868l52.36,52.36a7,7,0,0,0,9.868,0l13.61-13.609a7,7,0,0,0,0-9.868Z" transform="translate(-159.381 -45.497)"/>
      <g id="Group_2878" data-name="Group 2878" transform="translate(120.615 20.979)">
        <ellipse id="Ellipse_293" data-name="Ellipse 293" class="cls-2" cx="3.196" cy="3.196" rx="3.196" ry="3.196"/>
        <rect id="Rectangle_572" data-name="Rectangle 572" class="cls-2" width="45.166" height="6.414" transform="translate(41.476 46.012) rotate(-135)"/>
      </g>
      <path id="Path_7425" data-name="Path 7425" class="cls-5" d="M334.1,133.592H287.14l14.217,14.217h46.956Z" transform="translate(-174.731 -97.341)"/>
      <rect id="Rectangle_573" data-name="Rectangle 573" class="cls-14" width="175.833" height="113.155" transform="translate(12.301 52.232)"/>
      <rect id="Rectangle_574" data-name="Rectangle 574" class="cls-8" width="18.529" height="8.917" transform="translate(12.301 100.944)"/>
      <rect id="Rectangle_575" data-name="Rectangle 575" class="cls-8" width="18.529" height="8.917" transform="translate(41.565 74.931)"/>
      <rect id="Rectangle_576" data-name="Rectangle 576" class="cls-8" width="18.529" height="8.917" transform="translate(98.667 72.117)"/>
      <rect id="Rectangle_577" data-name="Rectangle 577" class="cls-8" width="18.529" height="8.917" transform="translate(70.097 57.8)"/>
      <rect id="Rectangle_578" data-name="Rectangle 578" class="cls-8" width="18.529" height="8.917" transform="translate(169.606 84.839)"/>
      <rect id="Rectangle_579" data-name="Rectangle 579" class="cls-8" width="18.529" height="8.917" transform="translate(166.549 139.631)"/>
      <rect id="Rectangle_580" data-name="Rectangle 580" class="cls-8" width="18.529" height="8.917" transform="translate(127.596 147.975)"/>
      <rect id="Rectangle_581" data-name="Rectangle 581" class="cls-8" width="18.529" height="8.917" transform="translate(94.694 122.783)"/>
      <rect id="Rectangle_582" data-name="Rectangle 582" class="cls-8" width="18.529" height="8.917" transform="translate(19.954 147.119)"/>
      <rect id="Rectangle_583" data-name="Rectangle 583" class="cls-8" width="175.833" height="16.712" transform="translate(12.301 52.232)"/>
      <g id="Group_2879" data-name="Group 2879" transform="translate(4.913 43.649)">
        <path id="Path_7426" data-name="Path 7426" class="cls-3" d="M203.16,166.821a4.289,4.289,0,0,1-4.276,4.276H16.825a4.289,4.289,0,0,1-4.276-4.276V156.765a4.289,4.289,0,0,1,4.276-4.276H198.883a4.289,4.289,0,0,1,4.276,4.276v10.056Z" transform="translate(-12.549 -152.489)"/>
        <rect id="Rectangle_584" data-name="Rectangle 584" class="cls-3" width="71.854" height="77.538" transform="translate(99.044 28.682)"/>
      </g>
      <path id="Path_7427" data-name="Path 7427" class="cls-13" d="M310.065,270.877a2.333,2.333,0,0,1-2.325,2.326H290.782a2.333,2.333,0,0,1-2.326-2.326v-21.49a2.333,2.333,0,0,1,2.326-2.326H307.74a2.332,2.332,0,0,1,2.325,2.326Z" transform="translate(-175.532 -166.389)"/>
      <rect id="Rectangle_585" data-name="Rectangle 585" class="cls-2" width="9.887" height="6.414" transform="translate(118.783 86.516)"/>
      <path id="Path_7428" data-name="Path 7428" class="cls-11" d="M392.609,270.877a2.333,2.333,0,0,1-2.326,2.326H373.325A2.333,2.333,0,0,1,371,270.877v-21.49a2.332,2.332,0,0,1,2.325-2.326h16.958a2.332,2.332,0,0,1,2.326,2.326Z" transform="translate(-225.762 -166.389)"/>
      <rect id="Rectangle_586" data-name="Rectangle 586" class="cls-2" width="9.887" height="6.414" transform="translate(151.098 86.516)"/>
      <path id="Path_7429" data-name="Path 7429" class="cls-12" d="M310.065,359.543a2.333,2.333,0,0,1-2.325,2.326H290.782a2.333,2.333,0,0,1-2.326-2.326v-21.49a2.333,2.333,0,0,1,2.326-2.326H307.74a2.332,2.332,0,0,1,2.325,2.326Z" transform="translate(-175.532 -220.345)"/>
      <rect id="Rectangle_587" data-name="Rectangle 587" class="cls-2" width="9.887" height="6.414" transform="translate(118.783 121.226)"/>
      <path id="Path_7430" data-name="Path 7430" class="cls-10" d="M392.609,359.543a2.333,2.333,0,0,1-2.326,2.326H373.325A2.333,2.333,0,0,1,371,359.543v-21.49a2.333,2.333,0,0,1,2.325-2.326h16.958a2.332,2.332,0,0,1,2.326,2.326Z" transform="translate(-225.762 -220.345)"/>
      <rect id="Rectangle_588" data-name="Rectangle 588" class="cls-2" width="9.887" height="6.414" transform="translate(151.098 121.226)"/>
      <rect id="Rectangle_589" data-name="Rectangle 589" class="cls-15" width="57.82" height="76.092" transform="translate(29.22 89.295)"/>
      <rect id="Rectangle_590" data-name="Rectangle 590" class="cls-3" width="37.43" height="26.876" transform="translate(39.415 100.225)"/>
      <rect id="Rectangle_591" data-name="Rectangle 591" class="cls-2" width="17.754" height="6.414" transform="translate(49.25 108.744)"/>
      <ellipse id="Ellipse_294" data-name="Ellipse 294" class="cls-3" cx="3.196" cy="3.196" rx="3.196" ry="3.196" transform="translate(39.413 136.469)"/>
      <path id="Path_7431" data-name="Path 7431" class="cls-4" d="M200.436,454.3a1.732,1.732,0,0,1-1.727,1.728H0v-9.858H1.727l196.982.221a1.732,1.732,0,0,1,1.727,1.728Z" transform="translate(0 -287.686)"/>
    </g>
    <g id="school" transform="translate(1945.91 -2612.284)">
      <path id="Path_7432" data-name="Path 7432" class="cls-12" d="M198.778,172.967a8.627,8.627,0,0,0-6.666-3.789H29.472a8.626,8.626,0,0,0-6.667,3.789L10.09,194.319c-1.241,2.084-.272,3.789,2.153,3.789h197.1c2.425,0,3.395-1.705,2.154-3.789Z" transform="translate(-5.617 -113.545)"/>
      <path id="Path_7433" data-name="Path 7433" class="cls-8" d="M23.945,198.76h79.6v-6.731H27.954Zm186.649-6.731H134.1v6.731h80.5Z" transform="translate(-14.099 -127.009)"/>
      <path id="Path_7434" data-name="Path 7434" class="cls-14" d="M134.613,184.223,111.7,147.44,88.778,184.223H11.854v89H211.536v-89Z" transform="translate(-6.975 -100.737)"/>
      <path id="Path_7435" data-name="Path 7435" class="cls-8" d="M141.78,192.1a6.1,6.1,0,0,1-4.634-2.565l-1.389-2.216h-1.145l-21.356-34.277a3.7,3.7,0,0,0-3.123,0L88.778,187.323H87.636l-1.389,2.216a6.1,6.1,0,0,1-4.634,2.565H11.854v11.827H85.37a5.837,5.837,0,0,0,4.548-2.617l17.952-27.488c2.1-3.59,5.549-3.59,7.653,0l17.952,27.488a5.838,5.838,0,0,0,4.548,2.617h73.513V192.1H141.78Z" transform="translate(-6.975 -103.837)"/>
      <g id="Group_2880" data-name="Group 2880" transform="translate(4.879 91.857)">
        <rect id="Rectangle_592" data-name="Rectangle 592" class="cls-4" width="19.394" height="9.333" transform="translate(180.288 10.357)"/>
        <rect id="Rectangle_593" data-name="Rectangle 593" class="cls-4" width="19.394" height="9.333" transform="translate(122.114 29.679)"/>
        <rect id="Rectangle_594" data-name="Rectangle 594" class="cls-4" width="19.394" height="9.333" transform="translate(157.237 62.81)"/>
        <rect id="Rectangle_595" data-name="Rectangle 595" class="cls-4" width="19.394" height="9.333" transform="translate(56.571 65.287)"/>
        <rect id="Rectangle_596" data-name="Rectangle 596" class="cls-4" width="19.394" height="9.333" transform="translate(0 19.318)"/>
        <rect id="Rectangle_597" data-name="Rectangle 597" class="cls-4" width="19.394" height="9.333" transform="translate(46.874 0)"/>
      </g>
      <rect id="Rectangle_598" data-name="Rectangle 598" class="cls-3" width="33.314" height="45.825" transform="translate(88.065 126.66)"/>
      <rect id="Rectangle_599" data-name="Rectangle 599" class="cls-8" width="33.314" height="5.792" transform="translate(88.065 126.66)"/>
      <g id="Group_2881" data-name="Group 2881" transform="translate(53.234 118.933)">
        <rect id="Rectangle_600" data-name="Rectangle 600" class="cls-2" width="6.731" height="12.681" transform="translate(41.185 18.331)"/>
        <rect id="Rectangle_601" data-name="Rectangle 601" class="cls-2" width="6.731" height="12.681" transform="translate(55.056 18.331)"/>
        <rect id="Rectangle_602" data-name="Rectangle 602" class="cls-2" width="19.58" height="26.938"/>
      </g>
      <rect id="Rectangle_603" data-name="Rectangle 603" class="cls-5" width="19.58" height="5.94" transform="translate(53.234 118.933)"/>
      <rect id="Rectangle_604" data-name="Rectangle 604" class="cls-16" width="19.58" height="6.731" transform="translate(53.234 129.039)"/>
      <path id="Path_7436" data-name="Path 7436" class="cls-6" d="M144.321,348.751h-19.58a3.366,3.366,0,0,1-3.366-3.366V318.446a3.366,3.366,0,0,1,3.366-3.366h19.58a3.366,3.366,0,0,1,3.366,3.366v26.939A3.366,3.366,0,0,1,144.321,348.751Zm-16.215-6.731h12.849V321.811H128.107Z" transform="translate(-71.505 -199.51)"/>
      <rect id="Rectangle_605" data-name="Rectangle 605" class="cls-2" width="19.58" height="26.938" transform="translate(15.239 118.933)"/>
      <rect id="Rectangle_606" data-name="Rectangle 606" class="cls-5" width="19.58" height="5.94" transform="translate(15.239 118.933)"/>
      <rect id="Rectangle_607" data-name="Rectangle 607" class="cls-16" width="19.58" height="6.731" transform="translate(15.239 129.039)"/>
      <path id="Path_7437" data-name="Path 7437" class="cls-6" d="M51.826,348.751H32.246a3.366,3.366,0,0,1-3.366-3.366V318.446a3.366,3.366,0,0,1,3.366-3.366h19.58a3.366,3.366,0,0,1,3.366,3.366v26.939A3.365,3.365,0,0,1,51.826,348.751Zm-16.215-6.731H48.46V321.811H35.611Z" transform="translate(-17.006 -199.51)"/>
      <rect id="Rectangle_608" data-name="Rectangle 608" class="cls-2" width="19.58" height="26.938" transform="translate(136.628 118.933)"/>
      <rect id="Rectangle_609" data-name="Rectangle 609" class="cls-5" width="19.58" height="5.94" transform="translate(136.628 118.933)"/>
      <rect id="Rectangle_610" data-name="Rectangle 610" class="cls-16" width="19.58" height="6.731" transform="translate(136.628 129.039)"/>
      <path id="Path_7438" data-name="Path 7438" class="cls-6" d="M347.318,348.751h-19.58a3.366,3.366,0,0,1-3.366-3.366V318.446a3.366,3.366,0,0,1,3.366-3.366h19.58a3.366,3.366,0,0,1,3.366,3.366v26.939A3.366,3.366,0,0,1,347.318,348.751ZM331.1,342.019h12.849V321.811H331.1Z" transform="translate(-191.11 -199.51)"/>
      <rect id="Rectangle_611" data-name="Rectangle 611" class="cls-2" width="19.58" height="26.938" transform="translate(174.623 118.933)"/>
      <rect id="Rectangle_612" data-name="Rectangle 612" class="cls-5" width="19.58" height="5.94" transform="translate(174.623 118.933)"/>
      <rect id="Rectangle_613" data-name="Rectangle 613" class="cls-16" width="19.58" height="6.731" transform="translate(174.623 129.039)"/>
      <path id="Path_7439" data-name="Path 7439" class="cls-6" d="M439.813,348.751h-19.58a3.366,3.366,0,0,1-3.366-3.366V318.446a3.366,3.366,0,0,1,3.366-3.366h19.58a3.366,3.366,0,0,1,3.366,3.366v26.939A3.366,3.366,0,0,1,439.813,348.751ZM423.6,342.019h12.849V321.811H423.6Z" transform="translate(-245.608 -199.51)"/>
      <rect id="Rectangle_614" data-name="Rectangle 614" class="cls-10" width="38.874" height="22.28" transform="translate(104.723 6.457)"/>
      <rect id="Rectangle_615" data-name="Rectangle 615" class="cls-8" width="10.177" height="22.28" transform="translate(104.723 6.457)"/>
      <path id="Path_7440" data-name="Path 7440" class="cls-3" d="M250.07,83.822a3.366,3.366,0,0,1-3.366-3.366V37.119a3.366,3.366,0,1,1,6.731,0V80.456A3.366,3.366,0,0,1,250.07,83.822Z" transform="translate(-145.348 -33.753)"/>
      <path id="Path_7441" data-name="Path 7441" class="cls-11" d="M108.731,135.293c-2.21-3.526-5.827-3.526-8.037,0l-21.431,34.2a6.1,6.1,0,0,1-4.634,2.565H3.027A3.036,3.036,0,0,0,0,175.082v5.773a3.036,3.036,0,0,0,3.027,3.027H78.386a5.838,5.838,0,0,0,4.548-2.616l17.952-27.488c2.1-3.59,5.549-3.59,7.653,0l17.952,27.488a5.838,5.838,0,0,0,4.548,2.616H206.4a3.036,3.036,0,0,0,3.027-3.027v-5.773a3.036,3.036,0,0,0-3.027-3.027H134.8a6.1,6.1,0,0,1-4.634-2.565Z" transform="translate(0.01 -92.022)"/>
      <ellipse id="Ellipse_295" data-name="Ellipse 295" class="cls-2" cx="15.279" cy="15.279" rx="15.279" ry="15.279" transform="translate(89.443 86.934)"/>
      <path id="Path_7442" data-name="Path 7442" class="cls-3" d="M255.922,265.98h-2.487v-2.487a3.366,3.366,0,1,0-6.731,0v5.852a3.366,3.366,0,0,0,3.366,3.366h5.852a3.365,3.365,0,1,0,0-6.731Z" transform="translate(-145.348 -167.132)"/>
      <path id="Path_7443" data-name="Path 7443" class="cls-13" d="M210.33,463.4c-1.705.4-.815.339-1.812.339L0,463.8v-8.365c0-1-.022,0,0-1.788l208.518-.025c1,0-.059-.019,1.812,0V463.4Z" transform="translate(0.01 -281.141)"/>
      <rect id="Rectangle_616" data-name="Rectangle 616" class="cls-3" width="54.293" height="10.113" transform="translate(78.027 172.485)"/>
      <g id="Group_2882" data-name="Group 2882" transform="translate(19.479 157.144)">
        <path id="Path_7444" data-name="Path 7444" class="cls-17" d="M442.229,431.624a15.34,15.34,0,0,0-30.68,0Z" transform="translate(-261.953 -416.284)"/>
        <path id="Path_7445" data-name="Path 7445" class="cls-17" d="M78.074,431.624a15.34,15.34,0,0,0-30.68,0Z" transform="translate(-47.394 -416.284)"/>
      </g>
    </g>
    <g id="skyscraper-1" transform="translate(1746.566 -2619.792)">
      <path id="Path_7448" data-name="Path 7448" class="cls-18" d="M236.886,43.324c2.384,0,2.812-1.22.952-2.71L209.715,18.081a5.676,5.676,0,0,0-6.763,0L174.829,40.614c-1.86,1.49-1.432,2.71.952,2.71Z" transform="translate(-104.771 -16.964)"/>
      <path id="Path_7449" data-name="Path 7449" class="cls-5" d="M237.839,66.529l-8.246-6.608H183.077l-8.246,6.608c-1.86,1.49-1.432,2.71.952,2.71h61.105C239.271,69.238,239.7,68.019,237.839,66.529Z" transform="translate(-104.771 -42.878)"/>
      <rect id="Rectangle_617" data-name="Rectangle 617" class="cls-11" width="79.541" height="143.502" transform="translate(61.794 41.4)"/>
      <rect id="Rectangle_618" data-name="Rectangle 618" class="cls-18" width="23.536" height="24.81" transform="translate(89.794 160.125)"/>
      <g id="Group_2884" data-name="Group 2884" transform="translate(61.794 83.575)">
        <rect id="Rectangle_619" data-name="Rectangle 619" class="cls-12" width="79.541" height="19.444" transform="translate(0 46.332)"/>
        <rect id="Rectangle_620" data-name="Rectangle 620" class="cls-12" width="79.541" height="19.444"/>
      </g>
      <path id="Path_7450" data-name="Path 7450" class="cls-3" d="M203.127,480.575H1.75A1.756,1.756,0,0,1,0,478.824v-6.265a1.756,1.756,0,0,1,1.75-1.751H203.127v9.767Z" transform="translate(0 -290.753)"/>
      <rect id="Rectangle_621" data-name="Rectangle 621" class="cls-4" width="105.153" height="9.767" transform="translate(48.988 180.056)"/>
      <g id="Group_2885" data-name="Group 2885" class="cls-19" transform="translate(75.779 41.4)">
        <rect id="Rectangle_622" data-name="Rectangle 622" width="6.5" height="138.657"/>
      </g>
      <g id="Group_2886" data-name="Group 2886" class="cls-19" transform="translate(120.849 41.4)">
        <rect id="Rectangle_623" data-name="Rectangle 623" width="6.5" height="138.657"/>
      </g>
      <path id="Path_7451" data-name="Path 7451" class="cls-18" d="M235.3,90.59V74.72a4.346,4.346,0,0,0-4.333-4.334H160.087a4.346,4.346,0,0,0-4.334,4.334V90.59Z" transform="translate(-93.961 -49.192)"/>
      <g id="Group_2887" data-name="Group 2887" class="cls-19" transform="translate(75.777 25.806)">
        <path id="Path_7452" data-name="Path 7452" d="M194.254,93.424a3.25,3.25,0,0,1-3.25-3.25V85.26a3.25,3.25,0,0,1,6.5,0v4.913A3.25,3.25,0,0,1,194.254,93.424Z" transform="translate(-191.004 -82.01)"/>
      </g>
      <g id="Group_2888" data-name="Group 2888" class="cls-19" transform="translate(98.313 25.806)">
        <path id="Path_7453" data-name="Path 7453" d="M251.056,93.424a3.25,3.25,0,0,1-3.25-3.25V85.26a3.25,3.25,0,0,1,6.5,0v4.913A3.25,3.25,0,0,1,251.056,93.424Z" transform="translate(-247.806 -82.01)"/>
      </g>
      <g id="Group_2889" data-name="Group 2889" class="cls-19" transform="translate(120.848 25.806)">
        <path id="Path_7454" data-name="Path 7454" d="M307.859,93.424a3.25,3.25,0,0,1-3.25-3.25V85.26a3.25,3.25,0,1,1,6.5,0v4.913A3.25,3.25,0,0,1,307.859,93.424Z" transform="translate(-304.609 -82.01)"/>
      </g>
      <path id="Path_7455" data-name="Path 7455" class="cls-13" d="M147.976,377.518c0-8.25-6.689-36.589-14.939-36.589S118.1,369.268,118.1,377.518a14.938,14.938,0,0,0,29.876,0Z" transform="translate(-71.246 -212.401)"/>
      <g id="Group_2890" data-name="Group 2890" transform="translate(8.112 128.528)">
        <path id="Path_7456" data-name="Path 7456" class="cls-17" d="M50.322,377.518c0-8.25-6.689-36.589-14.939-36.589s-14.938,28.339-14.938,36.589a14.938,14.938,0,0,0,29.876,0Z" transform="translate(-20.446 -340.929)"/>
        <path id="Path_7457" data-name="Path 7457" class="cls-17" d="M416.248,377.518c0-8.25,6.688-36.589,14.939-36.589s14.938,28.339,14.938,36.589a14.938,14.938,0,0,1-29.876,0Z" transform="translate(-259.221 -340.929)"/>
      </g>
      <path id="Path_7458" data-name="Path 7458" class="cls-13" d="M318.594,377.518c0-8.25,6.689-36.589,14.939-36.589s14.938,28.339,14.938,36.589a14.938,14.938,0,0,1-29.876,0Z" transform="translate(-192.198 -212.401)"/>
      <g id="Group_2891" data-name="Group 2891" class="cls-19" transform="translate(98.314 160.125)">
        <rect id="Rectangle_624" data-name="Rectangle 624" width="6.5" height="19.927"/>
      </g>
      <g id="Group_2892" data-name="Group 2892" class="cls-20" transform="translate(98.314 83.575)">
        <rect id="Rectangle_625" data-name="Rectangle 625" width="6.5" height="19.444"/>
      </g>
      <g id="Group_2893" data-name="Group 2893" class="cls-20" transform="translate(98.314 129.907)">
        <rect id="Rectangle_626" data-name="Rectangle 626" width="6.5" height="19.444"/>
      </g>
    </g>
    <g id="museum" transform="translate(1549.859 -2584.43)">
      <path id="Path_7468" data-name="Path 7468" class="cls-4" d="M246.957,66.54c-35.412-10.516-127.1,20.707-127.1,114.391h127.2S282.37,77.056,246.957,66.54Z" transform="translate(-71.454 -64.593)"/>
      <path id="Path_7469" data-name="Path 7469" class="cls-8" d="M335.593,94.626H261.119a124.489,124.489,0,0,0-11.749,6.617h88.637A34.717,34.717,0,0,0,335.593,94.626Z" transform="translate(-148.662 -82.497)"/>
      <path id="Path_7470" data-name="Path 7470" class="cls-5" d="M261.4,105.425l0,0c-13.312-13.312-49.232-10.129-81.249,8.6-4.855-2.39-9.467-4.836-13.886-7.184-25.608,18.521-46.4,48.97-46.4,93.587h127.2S268.115,138.486,261.4,105.425Z" transform="translate(-71.454 -84.093)"/>
      <path id="Path_7471" data-name="Path 7471" class="cls-4" d="M264.851,128.99c-26.11-26.11-139.2,11.231-139.2,104.916h127.2S290.961,155.1,264.851,128.99Z" transform="translate(-74.908 -98.142)"/>
      <path id="Path_7472" data-name="Path 7472" class="cls-8" d="M322.556,192.409H215.136q-3.793,3.142-7.378,6.617h115.18A65.76,65.76,0,0,0,322.556,192.409Z" transform="translate(-123.855 -140.79)"/>
      <path id="Path_7473" data-name="Path 7473" class="cls-8" d="M246.744,161.6c-20.935,0-38.425-5.274-53.6-11.887-34.472,16.6-67.489,50.769-67.489,101.389h127.2s19.336-39.987,21.024-72.43C270.515,168.574,262.5,161.6,246.744,161.6Z" transform="translate(-74.908 -115.336)"/>
      <path id="Path_7474" data-name="Path 7474" class="cls-14" d="M176.13,140.693c-72.489,0-103.669-63.235-140.616-26.288s-.247,117.634-.247,117.634h153.64S233.133,140.693,176.13,140.693Z" transform="translate(-11.344 -87.382)"/>
      <path id="Path_7475" data-name="Path 7475" class="cls-8" d="M113.744,157.09H27.6a55.211,55.211,0,0,0-3.251,6.617H128.682C123.447,161.658,118.481,159.4,113.744,157.09ZM203.6,191.2H19.064q-.083,3.3.032,6.617h185.82A39.468,39.468,0,0,0,203.6,191.2ZM24.278,231.937H200.909c.6-2.169,1.155-4.382,1.663-6.617H22.719Q23.457,228.714,24.278,231.937Z" transform="translate(-11.344 -119.735)"/>
      <path id="Path_7476" data-name="Path 7476" class="cls-3" d="M206.771,430.95a1.787,1.787,0,0,1-1.782,1.782H0V422.79H204.989a1.787,1.787,0,0,1,1.782,1.782v6.378Z" transform="translate(0 -278.132)"/>
      <path id="Path_7477" data-name="Path 7477" class="cls-3" d="M173.2,353.131V312.559a6.636,6.636,0,0,0-6.617-6.617H138.794a6.636,6.636,0,0,0-6.617,6.617v40.572Z" transform="translate(-78.797 -208.473)"/>
      <path id="Path_7478" data-name="Path 7478" class="cls-17" d="M398.033,370.007v-27.4a8.125,8.125,0,0,0-7.823-8.355H350.12a8.126,8.126,0,0,0-7.823,8.355v27.4Z" transform="translate(-204.061 -225.35)"/>
      <path id="Path_7479" data-name="Path 7479" class="cls-13" d="M345.918,383.522V363.137a6.234,6.234,0,0,0-6.216-6.216H298.264a6.234,6.234,0,0,0-6.216,6.216v20.385Z" transform="translate(-174.105 -238.864)"/>
    </g>
    <g id="factory" transform="translate(2315.814 -2628.204)">
      <rect id="Rectangle_629" data-name="Rectangle 629" class="cls-4" width="44.236" height="38.597" transform="translate(137.3 150.705)"/>
      <rect id="Rectangle_630" data-name="Rectangle 630" class="cls-8" width="18.968" height="9.128" transform="translate(141.411 163.207)"/>
      <rect id="Rectangle_631" data-name="Rectangle 631" class="cls-8" width="18.968" height="9.128" transform="translate(162.568 175.36)"/>
      <rect id="Rectangle_632" data-name="Rectangle 632" class="cls-8" width="44.236" height="10.361" transform="translate(137.3 150.705)"/>
      <path id="Path_7480" data-name="Path 7480" class="cls-15" d="M384.9,372.749a2.2,2.2,0,0,0-2.189-2.189H334.992a2.2,2.2,0,0,0-2.189,2.189v7.269a2.2,2.2,0,0,0,2.189,2.189h47.715a2.2,2.2,0,0,0,2.189-2.189Z" transform="translate(-199.431 -225.681)"/>
      <path id="Path_7481" data-name="Path 7481" class="cls-14" d="M301.187,9.044a17.311,17.311,0,0,0-12.485,5.3,17.363,17.363,0,0,0-26.623,14.69c0,.08,0,.158.006.237a20.649,20.649,0,1,0,23.323,16.079A17.376,17.376,0,0,0,291.93,41.1a17.365,17.365,0,1,0,9.257-32.056Z" transform="translate(-146.556 -9.044)"/>
      <path id="Path_7482" data-name="Path 7482" class="cls-3" d="M272.056,110.458h-41.7l-9.169,148.656h60.042Z" transform="translate(-132.544 -69.816)"/>
      <path id="Path_7483" data-name="Path 7483" class="cls-15" d="M284.059,180.565H237.9l-.4,6.566h46.964Zm-.822-13.333h-44.51l-.4,6.566h45.32Z" transform="translate(-142.321 -103.837)"/>
      <rect id="Rectangle_633" data-name="Rectangle 633" class="cls-4" width="113.135" height="82.199" transform="translate(14.717 107.099)"/>
      <rect id="Rectangle_634" data-name="Rectangle 634" class="cls-8" width="18.968" height="9.128" transform="translate(108.885 159.272)"/>
      <rect id="Rectangle_635" data-name="Rectangle 635" class="cls-8" width="18.968" height="9.128" transform="translate(14.661 148.197)"/>
      <rect id="Rectangle_636" data-name="Rectangle 636" class="cls-8" width="18.968" height="9.128" transform="translate(79.156 113.881)"/>
      <rect id="Rectangle_637" data-name="Rectangle 637" class="cls-8" width="18.968" height="9.128" transform="translate(38.169 107.099)"/>
      <rect id="Rectangle_638" data-name="Rectangle 638" class="cls-8" width="18.968" height="9.128" transform="translate(30.945 172.335)"/>
      <path id="Path_7484" data-name="Path 7484" class="cls-8" d="M155.417,337.293a4.39,4.39,0,0,0-4.377-4.377H69.108a4.39,4.39,0,0,0-4.377,4.377v8.039a4.39,4.39,0,0,0,4.377,4.377H151.04a4.39,4.39,0,0,0,4.377-4.377Z" transform="translate(-38.79 -203.123)"/>
      <path id="Path_7485" data-name="Path 7485" class="cls-2" d="M155.417,320.362a4.39,4.39,0,0,0-4.377-4.377H69.108a4.39,4.39,0,0,0-4.377,4.377V328.4a4.39,4.39,0,0,0,4.377,4.377H151.04a4.39,4.39,0,0,0,4.377-4.377Z" transform="translate(-38.79 -192.977)"/>
      <path id="Path_7486" data-name="Path 7486" class="cls-8" d="M151.04,315.984H69.108a4.39,4.39,0,0,0-4.377,4.377v5.581a4.39,4.39,0,0,1,4.377-4.377H151.04a4.39,4.39,0,0,1,4.377,4.377v-5.581A4.39,4.39,0,0,0,151.04,315.984Z" transform="translate(-38.79 -192.976)"/>
      <g id="Group_2896" data-name="Group 2896" transform="translate(14.717 89.321)">
        <path id="Path_7487" data-name="Path 7487" class="cls-14" d="M36.723,232.614V249.7H55.579L38.451,232.576C37.767,231.893,36.723,231.529,36.723,232.614Z" transform="translate(-36.723 -231.926)"/>
        <path id="Path_7488" data-name="Path 7488" class="cls-14" d="M83.773,232.614V249.7h18.856L85.5,232.576C84.818,231.893,83.773,231.529,83.773,232.614Z" transform="translate(-64.918 -231.926)"/>
        <path id="Path_7489" data-name="Path 7489" class="cls-14" d="M130.824,232.614V249.7H149.68l-17.128-17.128C131.868,231.893,130.824,231.529,130.824,232.614Z" transform="translate(-93.113 -231.926)"/>
        <path id="Path_7490" data-name="Path 7490" class="cls-14" d="M177.875,232.614V249.7h18.856L179.6,232.576C178.92,231.893,177.875,231.529,177.875,232.614Z" transform="translate(-121.308 -231.926)"/>
        <path id="Path_7491" data-name="Path 7491" class="cls-14" d="M224.927,232.614V249.7h18.856l-17.128-17.128C225.971,231.893,224.927,231.529,224.927,232.614Z" transform="translate(-149.503 -231.926)"/>
        <path id="Path_7492" data-name="Path 7492" class="cls-14" d="M271.977,232.614V249.7h18.856L273.7,232.576C273.022,231.893,271.977,231.529,271.977,232.614Z" transform="translate(-177.698 -231.926)"/>
        <rect id="Rectangle_639" data-name="Rectangle 639" class="cls-14" width="52.462" height="33.927" transform="translate(30.338 66.05)"/>
      </g>
      <g id="Group_2897" data-name="Group 2897" class="cls-20" transform="translate(45.054 162.376)">
        <rect id="Rectangle_640" data-name="Rectangle 640" width="52.462" height="6.566"/>
      </g>
      <g id="Group_2898" data-name="Group 2898" class="cls-20" transform="translate(45.054 174.852)">
        <rect id="Rectangle_641" data-name="Rectangle 641" width="52.462" height="6.566"/>
      </g>
      <g id="Group_2899" data-name="Group 2899" transform="translate(44.372 123.008)">
        <rect id="Rectangle_642" data-name="Rectangle 642" class="cls-4" width="6.566" height="16.792"/>
        <rect id="Rectangle_643" data-name="Rectangle 643" class="cls-4" width="6.566" height="16.792" transform="translate(23.63)"/>
        <rect id="Rectangle_644" data-name="Rectangle 644" class="cls-4" width="6.566" height="16.792" transform="translate(47.261)"/>
      </g>
      <path id="Path_7493" data-name="Path 7493" class="cls-15" d="M146.13,331.151H64.2a7.67,7.67,0,0,1-7.661-7.661v-8.039a7.67,7.67,0,0,1,7.661-7.661H146.13a7.67,7.67,0,0,1,7.661,7.661v8.039A7.67,7.67,0,0,1,146.13,331.151ZM64.2,314.358a1.109,1.109,0,0,0-1.094,1.094v8.039a1.109,1.109,0,0,0,1.094,1.094H146.13a1.109,1.109,0,0,0,1.094-1.094v-8.039a1.109,1.109,0,0,0-1.094-1.094Z" transform="translate(-33.88 -188.067)"/>
      <path id="Path_7494" data-name="Path 7494" class="cls-3" d="M205.186,488.2H1.768A1.773,1.773,0,0,1,0,486.436v-6.329a1.774,1.774,0,0,1,1.768-1.769H205.186V488.2Z" transform="translate(0 -290.266)"/>
    </g>
  </g>
</svg>
