<svg id="Group_2966" data-name="Group 2966" xmlns="http://www.w3.org/2000/svg" viewBox="-211.247 241 1366.247 767.267">
  <defs>
    <style>
      .cls-1 {
        fill: #fff;
      }

      .cls-2 {
        fill: #a4a9ad;
      }

      .cls-3 {
        opacity: 0.2;
      }

      .cls-4 {
        fill: #0071ce;
      }

      .cls-5, .cls-8 {
        opacity: 0.1;
      }

      .cls-6 {
        fill: #333e48;
      }

      .cls-7 {
        fill: #d9ddde;
      }

      .cls-9 {
        fill: #d1d3d3;
      }

      .cls-10 {
        fill: #ffb61e;
      }

      .cls-11 {
        fill: #e4a21a;
      }

      .cls-12 {
        fill: #0064b5;
      }

      .cls-13 {
        fill: #cac9cd;
      }

      .cls-14 {
        fill: #e6901c;
      }

      .cls-15 {
        fill: #283139;
      }

      .cls-16 {
        fill: #455361;
      }
    </style>
  </defs>
  <rect id="Rectangle_714" data-name="Rectangle 714" class="cls-1" width="1366" height="767" transform="translate(-211 241)"/>
  <g id="Group_2965" data-name="Group 2965" transform="translate(-130.804 -27.151)">
    <g id="building-1" transform="translate(-381.302 863.294)">
      <path id="Path_7405" data-name="Path 7405" class="cls-2" d="M164.194,68.276a4.435,4.435,0,0,0-4.422-4.422H105.038a4.435,4.435,0,0,0-4.422,4.422V84.069a4.435,4.435,0,0,0,4.422,4.422h54.734a4.435,4.435,0,0,0,4.422-4.422V68.276Z" transform="translate(1344.933 -55.804)"/>
      <rect id="Rectangle_547" data-name="Rectangle 547" class="cls-3" width="63.579" height="3.944" transform="translate(1445.549 19.16)"/>
      <rect id="Rectangle_548" data-name="Rectangle 548" class="cls-4" width="114.17" height="133.998" transform="translate(1423.019 32.687)"/>
      <rect id="Rectangle_549" data-name="Rectangle 549" class="cls-5" width="23.335" height="11.229" transform="translate(1423.019 94.072)"/>
      <rect id="Rectangle_550" data-name="Rectangle 550" class="cls-5" width="23.335" height="11.229" transform="translate(1504.454 122.837)"/>
      <rect id="Rectangle_551" data-name="Rectangle 551" class="cls-5" width="23.335" height="11.229" transform="translate(1475.41 42.27)"/>
      <rect id="Rectangle_552" data-name="Rectangle 552" class="cls-5" width="23.335" height="11.229" transform="translate(1492.784 80.837)"/>
      <rect id="Rectangle_553" data-name="Rectangle 553" class="cls-5" width="23.335" height="11.229" transform="translate(1432.699 50.866)"/>
      <rect id="Rectangle_554" data-name="Rectangle 554" class="cls-5" width="23.335" height="11.229" transform="translate(1431.35 147.264)"/>
      <rect id="Rectangle_555" data-name="Rectangle 555" class="cls-5" width="23.335" height="11.229" transform="translate(1446.973 114.833)"/>
      <path id="Path_7406" data-name="Path 7406" class="cls-6" d="M169.711,303.811a20.057,20.057,0,1,0-40.115,0V338.58h40.115V303.811Z" transform="translate(1327.684 -186.685)"/>
      <path id="Path_7407" data-name="Path 7407" class="cls-2" d="M115.792,429v-7.6A2.218,2.218,0,0,1,118,419.191h46.869a2.218,2.218,0,0,1,2.211,2.211V429Z" transform="translate(1335.9 -267.296)"/>
      <g id="Group_2877" data-name="Group 2877" transform="translate(1438.931 63.812)">
        <path id="Path_7408" data-name="Path 7408" class="cls-1" d="M174.563,318.981a9.74,9.74,0,0,0-19.479,0Z" transform="translate(-126.417 -265.668)"/>
        <path id="Path_7409" data-name="Path 7409" class="cls-1" d="M161.081,203.813a2.218,2.218,0,0,0-2.211-2.211H86.478a2.218,2.218,0,0,0-2.211,2.211v14.308a2.218,2.218,0,0,0,2.211,2.211h72.393a2.218,2.218,0,0,0,2.211-2.211V203.813Z" transform="translate(-84.267 -201.602)"/>
      </g>
      <path id="Path_7410" data-name="Path 7410" class="cls-3" d="M158.87,201.6H86.478a2.218,2.218,0,0,0-2.211,2.211v6.47a2.218,2.218,0,0,1,2.211-2.211h72.393a2.218,2.218,0,0,1,2.211,2.211v-6.47A2.218,2.218,0,0,0,158.87,201.6Z" transform="translate(1354.664 -137.79)"/>
      <rect id="Rectangle_556" data-name="Rectangle 556" class="cls-6" width="6.633" height="18.731" transform="translate(1474.022 63.813)"/>
      <path id="Path_7411" data-name="Path 7411" class="cls-6" d="M153.994,218.774H81.6a5.533,5.533,0,0,1-5.527-5.527V198.938a5.533,5.533,0,0,1,5.527-5.527h72.393a5.533,5.533,0,0,1,5.527,5.527v14.308A5.534,5.534,0,0,1,153.994,218.774Zm-71.287-6.633H152.89v-12.1H82.708Z" transform="translate(1359.54 -132.914)"/>
      <rect id="Rectangle_557" data-name="Rectangle 557" class="cls-5" width="114.17" height="15.954" transform="translate(1423.019 32.687)"/>
      <path id="Path_7412" data-name="Path 7412" class="cls-6" d="M150.994,105.467a4.435,4.435,0,0,0-4.422-4.422H35.708a4.435,4.435,0,0,0-4.422,4.422v10.318a4.435,4.435,0,0,0,4.422,4.422H146.573a4.435,4.435,0,0,0,4.422-4.422V105.467Z" transform="translate(1386.198 -77.939)"/>
      <rect id="Rectangle_558" data-name="Rectangle 558" class="cls-5" width="15.825" height="143.576" transform="translate(1521.368 23.105)"/>
      <rect id="Rectangle_559" data-name="Rectangle 559" class="cls-7" width="67.85" height="151.133" transform="translate(1527.788 15.552)"/>
      <rect id="Rectangle_560" data-name="Rectangle 560" class="cls-5" width="23.335" height="11.229" transform="translate(1527.788 93.935)"/>
      <rect id="Rectangle_561" data-name="Rectangle 561" class="cls-5" width="23.335" height="11.229" transform="translate(1567.143 141.653)"/>
      <rect id="Rectangle_562" data-name="Rectangle 562" class="cls-5" width="23.335" height="11.229" transform="translate(1572.304 62.911)"/>
      <rect id="Rectangle_563" data-name="Rectangle 563" class="cls-5" width="23.335" height="11.229" transform="translate(1532.803 40.271)"/>
      <rect id="Rectangle_564" data-name="Rectangle 564" class="cls-5" width="23.335" height="11.229" transform="translate(1565.083 19.16)"/>
      <rect id="Rectangle_565" data-name="Rectangle 565" class="cls-5" width="67.85" height="10.169" transform="translate(1527.788 15.552)"/>
      <path id="Path_7413" data-name="Path 7413" class="cls-1" d="M380.832,140.079a14.34,14.34,0,1,0-28.68,0v32.413h28.68V140.079Z" transform="translate(1195.221 -92.637)"/>
      <path id="Path_7414" data-name="Path 7414" class="cls-3" d="M366.492,125.739a14.34,14.34,0,0,0-14.34,14.34V146.2a14.34,14.34,0,0,1,28.68,0v-6.116A14.34,14.34,0,0,0,366.492,125.739Z" transform="translate(1195.221 -92.637)"/>
      <rect id="Rectangle_566" data-name="Rectangle 566" class="cls-3" width="28.68" height="7.146" transform="translate(1547.373 47.443)"/>
      <rect id="Rectangle_567" data-name="Rectangle 567" class="cls-6" width="28.68" height="6.633" transform="translate(1547.373 60.333)"/>
      <path id="Path_7415" data-name="Path 7415" class="cls-6" d="M361.617,117.547A17.676,17.676,0,0,0,343.961,135.2v32.413a3.316,3.316,0,0,0,3.317,3.317h28.68a3.316,3.316,0,0,0,3.317-3.317V135.2A17.677,17.677,0,0,0,361.617,117.547Zm0,6.633a11.043,11.043,0,0,1,10.513,7.708H351.1A11.041,11.041,0,0,1,361.617,124.18ZM372.641,164.3H350.594V138.52h22.047Z" transform="translate(1200.096 -87.761)"/>
      <path id="Path_7416" data-name="Path 7416" class="cls-1" d="M380.832,298.107a14.34,14.34,0,0,0-28.68,0v32.414h28.68V298.107Z" transform="translate(1195.221 -186.693)"/>
      <path id="Path_7417" data-name="Path 7417" class="cls-3" d="M366.492,283.767a14.34,14.34,0,0,0-14.34,14.34v6.118a14.34,14.34,0,1,1,28.68,0v-6.118A14.34,14.34,0,0,0,366.492,283.767Z" transform="translate(1195.221 -186.693)"/>
      <rect id="Rectangle_568" data-name="Rectangle 568" class="cls-3" width="28.68" height="7.146" transform="translate(1547.373 111.411)"/>
      <rect id="Rectangle_569" data-name="Rectangle 569" class="cls-6" width="28.68" height="6.633" transform="translate(1547.373 124.305)"/>
      <path id="Path_7418" data-name="Path 7418" class="cls-6" d="M361.617,275.574a17.676,17.676,0,0,0-17.656,17.656v32.414a3.316,3.316,0,0,0,3.317,3.317h28.68a3.316,3.316,0,0,0,3.317-3.317V293.23A17.677,17.677,0,0,0,361.617,275.574Zm0,6.633a11.043,11.043,0,0,1,10.513,7.706H351.105A11.041,11.041,0,0,1,361.617,282.207Zm11.023,40.12H350.594V296.546h22.047Z" transform="translate(1200.096 -181.817)"/>
      <path id="Path_7419" data-name="Path 7419" class="cls-6" d="M1311.222,451.595c0,.982-5.081,1.786-11.3,1.786H0v-9.966H1299.923c6.218,0,11.3.8,11.3,1.787Z" transform="translate(300.859 -281.714)"/>
      <path id="Path_7420" data-name="Path 7420" class="cls-6" d="M369.226,48.389a4.435,4.435,0,0,0-4.422-4.422H295.61a4.435,4.435,0,0,0-4.422,4.422V58.707a4.435,4.435,0,0,0,4.422,4.422H364.8a4.435,4.435,0,0,0,4.422-4.422Z" transform="translate(1231.506 -43.967)"/>
      <g id="Group_2963" data-name="Group 2963" transform="translate(1587.031 84.165)">
        <rect id="Rectangle_724" data-name="Rectangle 724" class="cls-2" width="18.924" height="19.377" transform="translate(12.896 52.886)"/>
        <g id="Group_2963-2" data-name="Group 2963" class="cls-8" transform="translate(21.081 57.915)">
          <rect id="Rectangle_725" data-name="Rectangle 725" width="2.557" height="14.348"/>
        </g>
        <rect id="Rectangle_726" data-name="Rectangle 726" class="cls-5" width="18.924" height="8.792" transform="translate(12.896 52.886)"/>
        <path id="Path_7733" data-name="Path 7733" class="cls-9" d="M153.937,1.913A1.919,1.919,0,0,0,152.024,0H111.131a1.919,1.919,0,0,0-1.913,1.913V56a1.918,1.918,0,0,0,1.913,1.913h40.893A1.918,1.918,0,0,0,153.937,56Z" transform="translate(-109.218)"/>
        <g id="Group_2964" data-name="Group 2964" transform="translate(2.727 2.728)">
          <circle id="Ellipse_344" data-name="Ellipse 344" class="cls-2" cx="1.298" cy="1.298" r="1.298" transform="translate(36.668)"/>
          <circle id="Ellipse_345" data-name="Ellipse 345" class="cls-2" cx="1.298" cy="1.298" r="1.298"/>
          <circle id="Ellipse_346" data-name="Ellipse 346" class="cls-2" cx="1.298" cy="1.298" r="1.298" transform="translate(36.668 49.864)"/>
          <circle id="Ellipse_347" data-name="Ellipse 347" class="cls-2" cx="1.298" cy="1.298" r="1.298" transform="translate(0 49.864)"/>
        </g>
        <path id="Path_7734" data-name="Path 7734" class="cls-10" d="M154.7,88.478a1.535,1.535,0,0,1-1.531-1.53V45.483a1.535,1.535,0,0,1,1.531-1.53h28.267a1.535,1.535,0,0,1,1.53,1.53V86.947a1.535,1.535,0,0,1-1.53,1.53Z" transform="translate(-146.475 -37.258)"/>
        <path id="Path_7735" data-name="Path 7735" class="cls-11" d="M215.729,160.514H236a1.535,1.535,0,0,0,1.53-1.53V128.935A34.909,34.909,0,0,0,215.729,160.514Z" transform="translate(-199.504 -109.294)"/>
        <path id="Path_7736" data-name="Path 7736" class="cls-5" d="M182.968,43.953H154.7a1.535,1.535,0,0,0-1.531,1.53v2.806a1.535,1.535,0,0,1,1.531-1.53h28.267a1.535,1.535,0,0,1,1.53,1.53V45.483A1.535,1.535,0,0,0,182.968,43.953Z" transform="translate(-146.475 -37.258)"/>
        <path id="Path_7737" data-name="Path 7737" class="cls-9" d="M184.2,470.977a1.919,1.919,0,0,1-1.913,1.913H154.662a1.919,1.919,0,0,1-1.913-1.913v-3.2a1.919,1.919,0,0,1,1.913-1.913h27.629a1.919,1.919,0,0,1,1.913,1.913v3.2Z" transform="translate(-146.118 -394.897)"/>
        <path id="Path_7738" data-name="Path 7738" class="cls-1" d="M194,95.075H182.328a1.278,1.278,0,1,1,0-2.557H194a1.278,1.278,0,1,1,0,2.557Z" transform="translate(-170.108 -72.331)"/>
        <path id="Path_7739" data-name="Path 7739" class="cls-1" d="M188.164,136.649h-5.834a1.278,1.278,0,1,1,0-2.557h5.834a1.278,1.278,0,1,1,0,2.557Z" transform="translate(-170.109 -109.096)"/>
        <path id="Union_27" data-name="Union 27" class="cls-1" d="M14.622,2.883a1.464,1.464,0,0,1-.571-.55,1.54,1.54,0,0,1-.206-.795A1.477,1.477,0,0,1,14.654.2,1.821,1.821,0,0,1,15.51,0,2.016,2.016,0,0,1,16.2.126a1.787,1.787,0,0,1,.584.336l-.553.67A1.1,1.1,0,0,0,15.885.9.962.962,0,0,0,15.5.813a.622.622,0,0,0-.336.095.649.649,0,0,0-.236.259.8.8,0,0,0-.084.371.809.809,0,0,0,.086.377.66.66,0,0,0,.238.261.626.626,0,0,0,.341.095,1.222,1.222,0,0,0,.434-.109V1.454h.838V2.688a2.212,2.212,0,0,1-.614.278,2.7,2.7,0,0,1-.726.117h-.027A1.681,1.681,0,0,1,14.622,2.883Zm4.939.2V0H22.1V.774H20.536v.378h1.382v.774H20.537v.383H22.1v.774Zm-2.459,0V0h.978V2.234h1.228v.849Zm-4.346,0L11.594,1.508V3.083H10.7V0h.817l1.167,1.583V0h.885V3.083Zm-6.814,0V0H6.92V3.083Zm-1.71-.8H3.865v.8H2.887V0H4.315a1.367,1.367,0,0,1,.931.288,1.028,1.028,0,0,1,.328.816,1.321,1.321,0,0,1-.12.581.946.946,0,0,1-.345.394l.581,1h-1.1Zm-.366-.774h.451a.309.309,0,0,0,.246-.1.4.4,0,0,0,.086-.275A.374.374,0,0,0,4.563.868.316.316,0,0,0,4.316.774H3.866ZM.837,3.083V.8H0V0H2.657V.8H1.815V3.083Zm6.25,0L8.811,0l1.725,3.082ZM8.22,2.444H9.4L8.811,1.386Z" transform="translate(11.006 14.295)"/>
      </g>
      <path id="Path_7421" data-name="Path 7421" class="cls-6" d="M428.935,443.615l-148.9-.2v9.966l148.9.131V445.2C428.935,444.219,428.935,443.615,428.935,443.615Z" transform="translate(1238.147 -281.714)"/>
    </g>
    <g id="Group_2962" data-name="Group 2962" transform="translate(1110.805 729.535)">
      <path id="Path_7713" data-name="Path 7713" class="cls-6" d="M138.97,332.729H76.634v-13.3h-12v13.3H2.3a2.3,2.3,0,0,0,0,4.594H64.633v32.864h12V337.323H138.97a2.3,2.3,0,1,0,0-4.594Z" transform="translate(0 -233.673)"/>
      <rect id="Rectangle_718" data-name="Rectangle 718" class="cls-3" width="12.002" height="10.471" transform="translate(64.633 85.759)"/>
      <rect id="Rectangle_719" data-name="Rectangle 719" class="cls-3" width="12.002" height="7.269" transform="translate(64.633 111.812)"/>
      <path id="Path_7714" data-name="Path 7714" class="cls-9" d="M181.254,375.951v10.292a2.317,2.317,0,0,0,2.311,2.31H220.19a2.318,2.318,0,0,0,2.311-2.31V375.951Z" transform="translate(-131.244 -274.598)"/>
      <g id="Group_2961" data-name="Group 2961" transform="translate(56.685 105.2)">
        <circle id="Ellipse_341" data-name="Ellipse 341" class="cls-2" cx="2.453" cy="2.453" r="2.453" transform="translate(11.494)"/>
        <circle id="Ellipse_342" data-name="Ellipse 342" class="cls-2" cx="2.453" cy="2.453" r="2.453"/>
        <circle id="Ellipse_343" data-name="Ellipse 343" class="cls-2" cx="2.453" cy="2.453" r="2.453" transform="translate(22.991)"/>
      </g>
      <rect id="Rectangle_720" data-name="Rectangle 720" class="cls-3" width="41.247" height="6.301" transform="translate(50.009 101.353)"/>
      <path id="Path_7715" data-name="Path 7715" class="cls-2" d="M90.447,33.157a2.3,2.3,0,0,1-2.3-2.3V16.886a2.3,2.3,0,1,1,4.594,0V30.861A2.3,2.3,0,0,1,90.447,33.157Z" transform="translate(-63.828 -12.94)"/>
      <rect id="Rectangle_721" data-name="Rectangle 721" class="cls-3" width="4.594" height="4.816" transform="translate(24.323 6.729)"/>
      <path id="Path_7716" data-name="Path 7716" class="cls-6" d="M76.138,10.3a1.7,1.7,0,0,0-1.691-1.691H52.791A1.7,1.7,0,0,0,51.1,10.3v4.51A1.7,1.7,0,0,0,52.791,16.5H74.448a1.7,1.7,0,0,0,1.691-1.691V10.3Z" transform="translate(-37.001 -8.613)"/>
      <path id="Path_7717" data-name="Path 7717" class="cls-2" d="M249.966,33.157a2.3,2.3,0,0,1-2.3-2.3V16.886a2.3,2.3,0,0,1,4.594,0V30.861A2.3,2.3,0,0,1,249.966,33.157Z" transform="translate(-179.334 -12.94)"/>
      <rect id="Rectangle_722" data-name="Rectangle 722" class="cls-3" width="4.594" height="4.816" transform="translate(68.335 6.729)"/>
      <path id="Path_7718" data-name="Path 7718" class="cls-6" d="M235.657,10.3a1.7,1.7,0,0,0-1.69-1.691H212.309a1.7,1.7,0,0,0-1.691,1.691v4.51a1.7,1.7,0,0,0,1.691,1.691h21.657a1.7,1.7,0,0,0,1.691-1.691V10.3Z" transform="translate(-152.507 -8.613)"/>
      <path id="Path_7719" data-name="Path 7719" class="cls-2" d="M409.486,33.157a2.3,2.3,0,0,1-2.3-2.3V16.886a2.3,2.3,0,0,1,4.594,0V30.861A2.3,2.3,0,0,1,409.486,33.157Z" transform="translate(-294.841 -12.94)"/>
      <rect id="Rectangle_723" data-name="Rectangle 723" class="cls-3" width="4.594" height="4.816" transform="translate(112.347 6.729)"/>
      <path id="Path_7720" data-name="Path 7720" class="cls-6" d="M395.175,10.3a1.7,1.7,0,0,0-1.691-1.691H371.827a1.7,1.7,0,0,0-1.69,1.691v4.51a1.7,1.7,0,0,0,1.69,1.691h21.657a1.7,1.7,0,0,0,1.691-1.691Z" transform="translate(-268.012 -8.613)"/>
      <path id="Path_7721" data-name="Path 7721" class="cls-4" d="M144.993,71.639a3.391,3.391,0,0,0-3.381-3.381H11.7a3.391,3.391,0,0,0-3.381,3.381v69.415a3.391,3.391,0,0,0,3.381,3.381H141.612a3.391,3.391,0,0,0,3.381-3.381V71.639Z" transform="translate(-6.023 -51.801)"/>
      <path id="Path_7722" data-name="Path 7722" class="cls-12" d="M261.769,169.188h63.364a3.391,3.391,0,0,0,3.381-3.381V102.443A66.744,66.744,0,0,0,261.769,169.188Z" transform="translate(-189.544 -76.554)"/>
      <path id="Path_7723" data-name="Path 7723" class="cls-1" d="M103.7,144.255H64.158a2.3,2.3,0,0,1,0-4.594H103.7a2.3,2.3,0,0,1,0,4.594Z" transform="translate(-44.793 -91.448)"/>
      <path id="Path_7724" data-name="Path 7724" class="cls-1" d="M92.1,181.94H64.16a2.3,2.3,0,0,1,0-4.594H92.1a2.3,2.3,0,1,1,0,4.594Z" transform="translate(-44.794 -118.735)"/>
      <path id="Union_23" data-name="Union 23" class="cls-1" d="M41.311,8.145A4.138,4.138,0,0,1,39.7,6.59a4.353,4.353,0,0,1-.583-2.245A4.173,4.173,0,0,1,41.4.56,5.149,5.149,0,0,1,43.821,0a5.7,5.7,0,0,1,1.953.357,5.053,5.053,0,0,1,1.649.95L45.861,3.2a3.094,3.094,0,0,0-.981-.661A2.718,2.718,0,0,0,43.8,2.3a1.759,1.759,0,0,0-.951.268,1.828,1.828,0,0,0-.666.731,2.265,2.265,0,0,0-.238,1.047,2.3,2.3,0,0,0,.243,1.065,1.868,1.868,0,0,0,.673.737,1.773,1.773,0,0,0,.962.268,3.455,3.455,0,0,0,1.227-.307v-2h2.368V7.594a6.26,6.26,0,0,1-1.735.785,7.607,7.607,0,0,1-2.052.332H43.56A4.75,4.75,0,0,1,41.311,8.145Zm13.953.565V0h7.161V2.188h-4.4V3.256h3.905V5.442h-3.9V6.523h4.405V8.71Zm-6.949,0V0h2.764V6.312H54.55v2.4Zm-12.278,0L32.756,4.262V8.71H30.243V0h2.308l3.3,4.472V0h2.5V8.71Zm-19.25,0V0h2.765V8.71ZM11.957,6.449H10.92V8.71H8.157V0H12.19a3.862,3.862,0,0,1,2.63.814,2.9,2.9,0,0,1,.928,2.3,3.73,3.73,0,0,1-.339,1.641,2.668,2.668,0,0,1-.976,1.114l1.641,2.833-3.119,0ZM10.921,4.262H12.2a.874.874,0,0,0,.7-.279,1.144,1.144,0,0,0,.244-.778,1.058,1.058,0,0,0-.244-.751.892.892,0,0,0-.7-.267H10.922ZM2.364,8.71V2.274H0V0H7.507V2.274H5.128V8.71Zm17.659,0L24.9,0l4.873,8.708Zm3.2-1.8h3.345L24.9,3.915Z" transform="translate(17.889 34.143)"/>
    </g>
    <g id="Group_2960" data-name="Group 2960" transform="translate(885.715 878.788)">
      <rect id="Rectangle_715" data-name="Rectangle 715" class="cls-13" width="3.32" height="66.429" transform="translate(97.314 45.018) rotate(-126.857)"/>
      <path id="Path_7702" data-name="Path 7702" class="cls-10" d="M384.921,56.282l25.714,48.571a3.843,3.843,0,0,0,5.115,1.639h0a3.843,3.843,0,0,0,1.793-5L395.223,51.272a5.731,5.731,0,0,0-8.416-2.441h0A5.731,5.731,0,0,0,384.921,56.282Z" transform="translate(-239.67 -47.867)"/>
      <path id="Path_7703" data-name="Path 7703" class="cls-14" d="M216.394,171.879l-13.059-2.449,9.11-48.589a16.608,16.608,0,0,1,8.091-11.363l52.636-30.044a4.714,4.714,0,0,1,5.67.761h0a4.713,4.713,0,0,1-.75,7.276l-49.926,32.71a6.642,6.642,0,0,0-2.889,4.332Z" transform="translate(-126.825 -67.17)"/>
      <rect id="Rectangle_716" data-name="Rectangle 716" class="cls-15" width="39.859" height="13.286" transform="translate(59.789 120.092)"/>
      <path id="Path_7704" data-name="Path 7704" class="cls-15" d="M75.169,276.57H35.31v-3.322a3.322,3.322,0,0,1,3.322-3.322H71.848a3.322,3.322,0,0,1,3.322,3.322v3.322Z" transform="translate(-22.024 -186.372)"/>
      <path id="Path_7705" data-name="Path 7705" class="cls-15" d="M143.876,420.086H30.942A13.286,13.286,0,0,1,17.656,406.8h0a13.286,13.286,0,0,1,13.286-13.286H143.876A13.286,13.286,0,0,1,157.162,406.8h0A13.286,13.286,0,0,1,143.876,420.086Z" transform="translate(-11.012 -263.457)"/>
      <rect id="Rectangle_717" data-name="Rectangle 717" class="cls-6" width="112.934" height="13.286" transform="translate(19.93 136.7)"/>
      <path id="Union_26" data-name="Union 26" class="cls-16" d="M112.934,6.643a6.643,6.643,0,1,1,6.643,6.642A6.643,6.643,0,0,1,112.934,6.643ZM0,6.643a6.643,6.643,0,1,1,6.643,6.642A6.644,6.644,0,0,1,0,6.643Z" transform="translate(13.286 136.7)"/>
      <path id="Path_7706" data-name="Path 7706" class="cls-10" d="M106.252,225.79H65.294a3.322,3.322,0,0,0-3.322,3.322v19.93H12.149a3.322,3.322,0,0,0-3.322,3.322v23.251H118.439v-5.8a83.049,83.049,0,0,0-1.34-14.854l-4.312-23.717A6.642,6.642,0,0,0,106.252,225.79Z" transform="translate(-5.506 -158.842)"/>
      <path id="Path_7707" data-name="Path 7707" class="cls-15" d="M221.715,254.961,217.4,231.244a6.643,6.643,0,0,0-6.536-5.455H176.552v36.537a3.322,3.322,0,0,0,3.322,3.322h42.993A82.957,82.957,0,0,0,221.715,254.961Z" transform="translate(-110.12 -158.842)"/>
      <path id="Path_7708" data-name="Path 7708" class="cls-6" d="M251.483,261.061l-4.312-23.717a3.321,3.321,0,0,0-3.268-2.728H231.179a1.661,1.661,0,0,0-1.661,1.661v29.894a1.661,1.661,0,0,0,1.661,1.661h19.346A1.672,1.672,0,0,0,252.183,266C252,264.25,251.768,262.627,251.483,261.061Z" transform="translate(-143.157 -164.347)"/>
      <path id="Path_7709" data-name="Path 7709" class="cls-15" d="M435.873,233.659a3.322,3.322,0,0,1-2.348-5.67l2.348-2.348V193.8a3.322,3.322,0,0,1,3.323-3.322l9.88,0c7.05,0,13.422,5.761,13.37,12.811a12.63,12.63,0,0,1-3.724,8.895l-20.5,20.5A3.314,3.314,0,0,1,435.873,233.659Z" transform="translate(-269.794 -136.817)"/>
      <path id="Path_7710" data-name="Path 7710" class="cls-6" d="M435.873,266.7a3.322,3.322,0,0,1-2.348-5.67l16.608-16.608a3.321,3.321,0,0,1,4.7,4.7l-16.608,16.608A3.312,3.312,0,0,1,435.873,266.7Z" transform="translate(-269.794 -169.854)"/>
      <path id="Path_7711" data-name="Path 7711" class="cls-14" d="M3.322,359.339H112.934a3.322,3.322,0,0,0,3.322-3.322V352.7a3.322,3.322,0,0,0-3.322-3.322H3.322A3.322,3.322,0,0,0,0,352.7v3.322A3.322,3.322,0,0,0,3.322,359.339Z" transform="translate(0 -235.925)"/>
      <path id="Path_7712" data-name="Path 7712" class="cls-6" d="M197,257.868H187.04a1.661,1.661,0,0,1-1.661-1.661v-19.93a1.661,1.661,0,0,1,1.661-1.661H197a1.661,1.661,0,0,1,1.661,1.661v19.93A1.661,1.661,0,0,1,197,257.868Z" transform="translate(-115.626 -164.348)"/>
    </g>
  </g>
</svg>
