
<svg version="1.1" xmlns="http://www.w3.org/2000/svg" x="0px" y="0px"
	 viewBox="0 0 405.1 339.6" style="enable-background:new 0 0 405.1 339.6;">
<style type="text/css">
	.st0{fill:url(#Ellipse_23_1_);}
	.st1{fill:url(#Ellipse_25_2_);}
	.st2{fill:url(#Ellipse_24_1_);}
	.st3{fill:#283139;}
	.st4{fill:#FFFFFF;}
	.st5{fill:#EEEEEE;}
	.st6{fill:#FFB61E;}
	.st7{fill:#FF5959;}
	.st8{fill:#2ECC71;}
	.st9{opacity:0.4;fill:#1B1B1B;enable-background:new    ;}
	.st10{fill:#1E81FF;}
	.st11{opacity:0.7;fill:#1B1B1B;enable-background:new    ;}
	.st12{opacity:0.2;fill:#1B1B1B;enable-background:new    ;}
	.st13{opacity:0.9;fill:#1B1B1B;enable-background:new    ;}
	.st14{fill:#A3A3A3;}
	.st15{fill:#D0D0D0;}
</style>
<g id="Yellow">

		<linearGradient id="Ellipse_23_1_" gradientUnits="userSpaceOnUse" x1="-297.8102" y1="672.2452" x2="-296.9301" y2="672.7899" gradientTransform="matrix(-159.656 0 0 159.656 -47394.5195 -107118.6016)">
		<stop  offset="0" style="stop-color:#FFB61E"/>
		<stop  offset="1" style="stop-color:#D87513"/>
	</linearGradient>
	<circle id="Ellipse_23" class="st0" cx="82.6" cy="252.7" r="82.6"/>
</g>
<g id="Blue">

		<linearGradient id="Ellipse_25_2_" gradientUnits="userSpaceOnUse" x1="-299.171" y1="668.4781" x2="-298.2521" y2="669.0099" gradientTransform="matrix(-31.3738 -117.0151 -117.0151 31.3738 69222.4922 -55683.7344)">
		<stop  offset="0" style="stop-color:#491EFF"/>
		<stop  offset="1" style="stop-color:#62B7FF"/>
	</linearGradient>
	<circle id="Ellipse_25_1_" class="st1" cx="342.4" cy="252.3" r="62.7"/>
</g>
<g id="Red">

		<linearGradient id="Ellipse_24_1_" gradientUnits="userSpaceOnUse" x1="-294.9599" y1="666.7838" x2="-294.041" y2="667.3157" gradientTransform="matrix(107.6554 -57.1805 -57.1805 -107.6554 70083.8203 55039.5039)">
		<stop  offset="0" style="stop-color:#FF1E8F"/>
		<stop  offset="1" style="stop-color:#FF6262"/>
	</linearGradient>
	<circle id="Ellipse_24" class="st2" cx="236.1" cy="69.2" r="63.1"/>
</g>
<g id="Computer">
	<g id="COMPUTER_1_">
		<rect x="115.5" y="46.6" class="st3" width="238.3" height="22.7"/>
		<rect id="Rectangle_38_1_" x="66.9" y="106.5" class="st4" width="287" height="161.4"/>
		<rect id="Rectangle_39_1_" x="66.9" y="103.4" class="st5" width="48.6" height="164.5"/>
		<path id="Path_7623_1_" class="st6" d="M350,72.8L66.6,75v31.8h286.6V80.3C353.2,77.4,355.8,72.8,350,72.8z"/>
		<path id="Path_7616_1_" class="st3" d="M347.9,43.1h-276c-8.8,0-15.9,7.1-15.9,15.9l0,0v201.7c0,8.8,7.1,15.9,15.9,15.9h276
			c8.8,0,15.9-7.1,15.9-15.9c0,0,0,0,0,0l0,0V59.1C363.8,50.3,356.6,43.1,347.9,43.1z M321.3,53.7h5.3c2.9,0.1,5.2,2.6,5,5.6
			c-0.1,2.7-2.3,4.8-4.9,5h-5.4c-2.9,0.2-5.5-2-5.7-4.9c-0.2-2.9,2-5.5,4.9-5.7c0.2,0,0.4,0,0.6,0H321.3z M172.7,53.7h127.4
			c2.9-0.2,5.5,2,5.7,4.9c0.2,2.9-2,5.5-4.9,5.7c-0.2,0-0.4,0-0.6,0H172.7c-2.9-0.1-5.2-2.6-5-5.6c0.1-2.7,2.3-4.8,4.9-5H172.7z
			 M146.2,53.7h5.3c2.9,0.2,5.2,2.7,5,5.6c-0.2,2.7-2.3,4.8-5,5h-5.3c-2.9-0.2-5.2-2.7-5-5.6C141.4,56,143.5,53.9,146.2,53.7
			L146.2,53.7z M125,53.7h5.3c2.9-0.2,5.5,2,5.7,4.9c0.2,2.9-2,5.5-4.9,5.7c-0.2,0-0.4,0-0.6,0H125c-2.9,0.2-5.5-2-5.7-4.9
			c-0.2-2.9,2-5.5,4.9-5.7C124.4,53.7,124.7,53.7,125,53.7L125,53.7z M103.7,53.7c2.9,0,5.3,2.4,5.3,5.3s-2.4,5.3-5.3,5.3
			c-2.9,0-5.3-2.4-5.3-5.3c0,0,0,0,0,0l0,0C98.4,56.1,100.8,53.7,103.7,53.7L103.7,53.7z M87.8,53.7c2.9,0,5.3,2.4,5.3,5.3
			s-2.4,5.3-5.3,5.3c-2.9,0-5.3-2.4-5.3-5.3c0,0,0,0,0,0l0,0C82.5,56.1,84.9,53.7,87.8,53.7L87.8,53.7z M71.9,53.7
			c2.9,0,5.3,2.4,5.3,5.3s-2.4,5.3-5.3,5.3c-2.9,0-5.3-2.4-5.3-5.3c0,0,0,0,0,0l0,0C66.6,56.1,69,53.7,71.9,53.7L71.9,53.7z
			 M353.2,106.8v153.9c0,2.9-2.4,5.3-5.3,5.3h-276c-2.9,0-5.3-2.4-5.3-5.3c0,0,0,0,0,0V80.3c0-2.9,2.4-5.3,5.3-5.3h276
			c2.9,0,5.3,2.4,5.3,5.3l0,0L353.2,106.8z M347.9,64.4h-5.3c-2.9,0.2-5.5-2-5.7-4.9c-0.2-2.9,2-5.5,4.9-5.7c0.2,0,0.4,0,0.6,0h5.4
			c2.9-0.2,5.5,2,5.7,4.9c0.2,2.9-2,5.5-4.9,5.7C348.4,64.4,348.2,64.4,347.9,64.4L347.9,64.4z"/>
		<circle id="Ellipse_319_1_" class="st7" cx="71.9" cy="59.1" r="5.3"/>
		<circle id="Ellipse_320_1_" class="st6" cx="87.8" cy="59.1" r="5.3"/>
		<circle id="Ellipse_321_1_" class="st8" cx="103.7" cy="59.1" r="5.3"/>
		<path id="Union_21_1_" class="st4" d="M342.6,64.4c-2.9,0.2-5.4-2-5.6-5c-0.2-2.9,2-5.4,5-5.6c0.2,0,0.4,0,0.6,0h5.3
			c2.9-0.2,5.4,2,5.6,5c0.2,2.9-2,5.4-5,5.6c-0.2,0-0.4,0-0.6,0H342.6z M321.3,64.4c-2.9,0.2-5.4-2-5.6-5c-0.2-2.9,2-5.4,5-5.6
			c0.2,0,0.4,0,0.6,0h5.3c2.9,0.2,5.2,2.7,5,5.6c-0.2,2.7-2.3,4.8-5,5H321.3z M172.7,64.4c-2.9-0.2-5.2-2.7-5-5.6
			c0.2-2.7,2.3-4.8,5-5h127.4c2.9,0.2,5.2,2.7,5,5.6c-0.2,2.7-2.3,4.8-5,5H172.7z M146.2,64.4c-2.9-0.2-5.1-2.8-4.9-5.7
			c0.2-2.6,2.3-4.7,4.9-4.9h5.3c2.9,0.2,5.2,2.7,5,5.6c-0.2,2.7-2.3,4.8-5,5H146.2z M125,64.4c-2.9-0.2-5.2-2.7-5-5.6
			c0.2-2.7,2.3-4.8,5-5h5.3c2.9-0.2,5.4,2,5.6,5c0.2,2.9-2,5.4-5,5.6c-0.2,0-0.4,0-0.6,0H125z"/>
		<path id="Union_17_1_" class="st4" d="M326.1,94.3c-1.9-0.1-3.3-1.7-3.2-3.6c0.1-1.7,1.5-3.1,3.2-3.2h13.7
			c1.9-0.1,3.5,1.3,3.6,3.2c0.1,1.9-1.3,3.5-3.2,3.6c-0.1,0-0.3,0-0.4,0H326.1z M298.6,94.3c-1.9,0.1-3.5-1.3-3.6-3.2
			c-0.1-1.9,1.3-3.5,3.2-3.6c0.1,0,0.3,0,0.4,0h13.7c1.9-0.1,3.5,1.3,3.6,3.2c0.1,1.9-1.3,3.5-3.2,3.6c-0.1,0-0.3,0-0.4,0H298.6z
			 M271.2,94.3c-1.9,0.1-3.5-1.3-3.6-3.2c-0.1-1.9,1.3-3.5,3.2-3.6c0.1,0,0.3,0,0.4,0h13.7c1.9,0.1,3.3,1.8,3.2,3.6
			c-0.1,1.7-1.5,3.1-3.2,3.2H271.2z"/>
		<path id="Union_17-2_1_" class="st4" d="M243.3,94.3c-1.9-0.1-3.3-1.7-3.2-3.6c0.1-1.7,1.5-3.1,3.2-3.2h13.7
			c1.9-0.1,3.5,1.3,3.6,3.2c0.1,1.9-1.3,3.5-3.2,3.6c-0.1,0-0.3,0-0.4,0H243.3z M215.8,94.3c-1.9,0.1-3.5-1.3-3.6-3.2
			c-0.1-1.9,1.3-3.5,3.2-3.6c0.1,0,0.3,0,0.4,0h13.7c1.9-0.1,3.5,1.3,3.6,3.2c0.1,1.9-1.3,3.5-3.2,3.6c-0.1,0-0.3,0-0.4,0H215.8z
			 M188.4,94.3c-1.9,0.1-3.5-1.3-3.6-3.2c-0.1-1.9,1.3-3.5,3.2-3.6c0.1,0,0.3,0,0.4,0h13.7c1.9,0.1,3.3,1.8,3.2,3.6
			c-0.1,1.7-1.5,3.1-3.2,3.2H188.4z"/>
		<path id="Union_17-3_1_" class="st4" d="M82.7,96.2c-2.9,0.2-5.4-2-5.6-5c-0.2-2.9,2-5.4,5-5.6c0.2,0,0.4,0,0.6,0h21.2
			c2.9,0.2,5.2,2.7,5,5.6c-0.2,2.7-2.3,4.8-5,5H82.7z"/>
		<path id="Path_7638_1_" class="st9" d="M230.8,189.7h-70.3c-2.4,0.1-4.3,2.2-4.2,4.6c0.1,2.2,1.9,4,4.1,4.2h70.3
			c2.4-0.1,4.3-2.2,4.1-4.7C234.7,191.6,233,189.8,230.8,189.7L230.8,189.7z"/>
		<path id="Path_7639_1_" class="st9" d="M230.8,137H200c-2.4,0.1-4.3,2.2-4.2,4.6c0.1,2.2,1.9,4,4.1,4.2h30.8
			c2.4-0.1,4.3-2.2,4.1-4.7C234.7,138.9,233,137.1,230.8,137L230.8,137z"/>
		<path id="Path_7640_1_" class="st8" d="M230.8,154.5H200c-2.4,0.1-4.3,2.2-4.2,4.6c0.1,2.2,1.9,4,4.1,4.2h30.8
			c2.4-0.1,4.3-2.2,4.1-4.7C234.7,156.4,233,154.7,230.8,154.5L230.8,154.5z"/>
		<path id="Path_7641_1_" class="st10" d="M230.8,207.2H200c-2.4,0.1-4.3,2.2-4.2,4.6c0.1,2.2,1.9,4,4.1,4.2h30.8
			c2.4-0.1,4.3-2.2,4.1-4.7C234.7,209.1,233,207.4,230.8,207.2L230.8,207.2z"/>
		<path id="Path_7642_1_" class="st9" d="M230.8,224.8H200c-2.4,0.1-4.3,2.2-4.2,4.6c0.1,2.2,1.9,4,4.1,4.2h30.8
			c2.4-0.1,4.3-2.2,4.2-4.6C234.8,226.7,233.1,225,230.8,224.8L230.8,224.8z"/>
		<path id="Union_18_1_" class="st11" d="M160.5,251.2c-2.4-0.1-4.3-2.2-4.1-4.7c0.1-2.2,1.9-4,4.1-4.1h70.3
			c2.4,0.1,4.3,2.2,4.1,4.7c-0.1,2.2-1.9,4-4.1,4.1H160.5z M160.5,180.9c-2.4-0.1-4.3-2.2-4.1-4.7c0.1-2.2,1.9-4,4.1-4.1h70.3
			c2.4,0.1,4.3,2.2,4.1,4.7c-0.1,2.2-1.9,4-4.1,4.1H160.5z M160.5,128.2c-2.4-0.1-4.3-2.2-4.1-4.7c0.1-2.2,1.9-4,4.1-4.1h70.3
			c2.4,0.1,4.3,2.2,4.1,4.7c-0.1,2.2-1.9,4-4.1,4.1H160.5z"/>
		<path id="Union_20_1_" class="st12" d="M169.3,233.6c-2.4-0.1-4.3-2.2-4.1-4.7c0.1-2.2,1.9-4,4.1-4.1h13.2
			c2.4,0.1,4.3,2.2,4.1,4.7c-0.1,2.2-1.9,4-4.1,4.1H169.3z M169.3,216c-2.4,0.1-4.5-1.7-4.7-4.1c-0.1-2.4,1.7-4.5,4.1-4.7
			c0.2,0,0.4,0,0.5,0h13.2c2.4-0.1,4.5,1.7,4.7,4.1c0.1,2.4-1.7,4.5-4.1,4.7c-0.2,0-0.4,0-0.5,0H169.3z M169.3,163.3
			c-2.4-0.1-4.3-2.2-4.1-4.7c0.1-2.2,1.9-4,4.1-4.1h13.2c2.4,0.1,4.3,2.2,4.1,4.7c-0.1,2.2-1.9,4-4.1,4.1H169.3z M169.3,145.8
			c-2.4-0.1-4.3-2.2-4.1-4.7c0.1-2.2,1.9-4,4.1-4.1h13.2c2.4-0.1,4.5,1.7,4.7,4.1c0.1,2.4-1.7,4.5-4.1,4.7c-0.2,0-0.4,0-0.5,0H169.3
			z"/>
		<path id="Union_19_1_" class="st13" d="M138.6,251.1c-2.4-0.1-4.3-2.2-4.1-4.7c0.1-2.2,1.9-4,4.1-4.1h4.4c2.4-0.1,4.5,1.7,4.7,4.1
			c0.1,2.4-1.7,4.5-4.1,4.7c-0.2,0-0.4,0-0.5,0H138.6z M147.3,233.6c-2.4-0.1-4.3-2.2-4.1-4.7c0.1-2.2,1.9-4,4.1-4.1h4.4
			c2.4-0.1,4.5,1.7,4.7,4.1c0.1,2.4-1.7,4.5-4.1,4.7c-0.2,0-0.4,0-0.5,0H147.3z M147.3,216c-2.4,0.1-4.5-1.7-4.7-4.1
			c-0.1-2.4,1.7-4.5,4.1-4.7c0.2,0,0.4,0,0.5,0h4.4c2.4-0.1,4.5,1.7,4.7,4.1c0.1,2.4-1.7,4.5-4.1,4.7c-0.2,0-0.4,0-0.5,0H147.3z
			 M138.6,198.5c-2.4-0.1-4.3-2.2-4.1-4.7c0.1-2.2,1.9-4,4.1-4.1h4.4c2.4,0.1,4.3,2.2,4.1,4.7c-0.1,2.2-1.9,4-4.1,4.1H138.6z
			 M138.6,180.9c-2.4-0.1-4.3-2.2-4.1-4.7c0.1-2.2,1.9-4,4.1-4.1h4.4c2.4-0.1,4.5,1.7,4.7,4.1c0.1,2.4-1.7,4.5-4.1,4.7
			c-0.2,0-0.4,0-0.5,0H138.6z M147.3,163.3c-2.4-0.1-4.3-2.2-4.1-4.7c0.1-2.2,1.9-4,4.1-4.1h4.4c2.4-0.1,4.5,1.7,4.7,4.1
			c0.1,2.4-1.7,4.5-4.1,4.7c-0.2,0-0.4,0-0.5,0H147.3z M147.3,145.8c-2.4,0.1-4.5-1.7-4.7-4.1c-0.1-2.4,1.7-4.5,4.1-4.7
			c0.2,0,0.4,0,0.5,0h4.4c2.4-0.1,4.5,1.7,4.7,4.1c0.1,2.4-1.7,4.5-4.1,4.7c-0.2,0-0.4,0-0.5,0H147.3z M138.6,128.2
			c-2.4-0.1-4.3-2.2-4.1-4.7c0.1-2.2,1.9-4,4.1-4.1h4.4c2.4-0.1,4.5,1.7,4.7,4.1c0.1,2.4-1.7,4.5-4.1,4.7c-0.2,0-0.4,0-0.5,0H138.6z
			"/>
		<path id="Rectangle_40_1_" class="st6" d="M261.4,118.9h69.3c6.9,0,12.4,5.6,12.4,12.4v69.3c0,6.9-5.6,12.4-12.4,12.4h-69.3
			c-6.9,0-12.4-5.6-12.4-12.4v-69.3C249,124.5,254.6,118.9,261.4,118.9z"/>
		<path id="Path_7988_1_" class="st4" d="M296.6,140.7l-29,51.7h57.9L296.6,140.7z M296.6,163.9l9.9,17.8h-19.9L296.6,163.9z"/>
		<path id="Rectangle_41_1_" class="st14" d="M281.1,218.3h30c1.7,0,3.1,1.4,3.1,3.1l0,0c0,1.7-1.4,3.1-3.1,3.1h-30
			c-1.7,0-3.1-1.4-3.1-3.1l0,0C278,219.7,279.4,218.3,281.1,218.3z"/>
		<path id="Rectangle_42_1_" class="st14" d="M76.2,115.8h30c1.7,0,3.1,1.4,3.1,3.1l0,0c0,1.7-1.4,3.1-3.1,3.1h-30
			c-1.7,0-3.1-1.4-3.1-3.1l0,0C73.1,117.2,74.5,115.8,76.2,115.8z"/>
		<path id="Rectangle_45_1_" class="st7" d="M76.2,138.6h30c1.7,0,3.1,1.4,3.1,3.1l0,0c0,1.7-1.4,3.1-3.1,3.1h-30
			c-1.7,0-3.1-1.4-3.1-3.1l0,0C73.1,140,74.5,138.6,76.2,138.6z"/>
		<path id="Rectangle_47_1_" class="st15" d="M76.2,161.4h30c1.7,0,3.1,1.4,3.1,3.1l0,0c0,1.7-1.4,3.1-3.1,3.1h-30
			c-1.7,0-3.1-1.4-3.1-3.1l0,0C73.1,162.7,74.5,161.4,76.2,161.4z"/>
		<path id="Rectangle_43_1_" class="st10" d="M76.2,127.2h30c1.7,0,3.1,1.4,3.1,3.1l0,0c0,1.7-1.4,3.1-3.1,3.1h-30
			c-1.7,0-3.1-1.4-3.1-3.1l0,0C73.1,128.6,74.5,127.2,76.2,127.2z"/>
		<path id="Rectangle_44_1_" class="st14" d="M76.2,150h30c1.7,0,3.1,1.4,3.1,3.1l0,0c0,1.7-1.4,3.1-3.1,3.1h-30
			c-1.7,0-3.1-1.4-3.1-3.1l0,0C73.1,151.4,74.5,150,76.2,150z"/>
		<path id="Rectangle_46_1_" class="st6" d="M76.2,172.7h30c1.7,0,3.1,1.4,3.1,3.1l0,0c0,1.7-1.4,3.1-3.1,3.1h-30
			c-1.7,0-3.1-1.4-3.1-3.1l0,0C73.1,174.1,74.5,172.7,76.2,172.7z"/>
	</g>
</g>
</svg>
