<svg xmlns="http://www.w3.org/2000/svg" viewBox="0 0 722.79 100.84"><defs><style>.cls-1{fill:#1b1b1b;}</style></defs><title>Logo-Black</title><g id="Capa_2" data-name="Capa 2"><g id="Logos"><path class="cls-1" d="M0,0H86.92V26.32H59.37v74.52h-32V26.32H0Z"/><path class="cls-1" d="M150,100.84,138.44,74.66h-12v26.18h-32V0h46.7q19.7,0,30.44,9.42t10.75,26.69a43.29,43.29,0,0,1-3.93,19A30.92,30.92,0,0,1,167.1,68l19,32.8Zm-23.55-51.5H141.2c3.49,0,6.17-1.08,8.06-3.24s2.82-5.15,2.82-9-.94-6.64-2.82-8.7-4.57-3.09-8.06-3.09H126.46Z"/><path class="cls-1" d="M194.37,0h32V100.84h-32Z"/><path class="cls-1" d="M415.05,0H444V100.84H417.26l-38-51.5v51.5H350.17V0h26.72l38.16,51.78Z"/><path class="cls-1" d="M521.67,47.55h27.42V87.91A72.64,72.64,0,0,1,529,97a88.34,88.34,0,0,1-23.76,3.84,55,55,0,0,1-26.93-6.55,47.92,47.92,0,0,1-18.67-18,50.36,50.36,0,0,1-6.75-26A48.31,48.31,0,0,1,479.38,6.47a59.6,59.6,0,0,1,28-6.47A66.07,66.07,0,0,1,530,4.13a58.33,58.33,0,0,1,19.08,11L531,37.06a36,36,0,0,0-11.37-7.65,31.47,31.47,0,0,0-12.46-2.82,20.33,20.33,0,0,0-11,3.1,21.14,21.14,0,0,0-7.72,8.47,26.12,26.12,0,0,0-2.75,12.12,26.41,26.41,0,0,0,2.82,12.33,21.52,21.52,0,0,0,7.79,8.54,20.55,20.55,0,0,0,11.15,3.1c3.49,0,9.23-1.35,14.19-3.56Z"/><path class="cls-1" d="M559.42,0h32V73.07H631.6v27.77H559.42Z"/><path class="cls-1" d="M639.87,0h82.92V25.32h-51V37.69H717V63H671.82V75.52h51v25.32H639.87Z"/><path class="cls-1" d="M288.24,0,231.83,100.83H344.66Zm0,45.32,19.37,34.62H268.88Z"/></g></g></svg>