<svg id="Group_2767" data-name="Group 2767" xmlns="http://www.w3.org/2000/svg" viewBox="997.071 -117 354.517 87.607">
  <defs>
    <style>
      .cls-1 {
        fill: #fff;
      }
    </style>
  </defs>
  <path id="T" class="cls-1" d="M14.283,12.76H0V1.14H40.911V12.76H26.629V87.294H14.283Z" transform="translate(997.071 -117.414)"/>
  <path id="R" class="cls-1" d="M72.77,1.14H92.62q21.787,0,21.787,25.3a31.919,31.919,0,0,1-2.363,12.887,18.272,18.272,0,0,1-8.282,8.651l13.314,39.338H104L92.5,50.524H85.116v36.8H72.77ZM85.116,39.63h7.008a12.423,12.423,0,0,0,5.2-.911,6.689,6.689,0,0,0,2.981-2.631,11.085,11.085,0,0,0,1.389-4.173,40.132,40.132,0,0,0,.363-5.733,40.135,40.135,0,0,0-.363-5.733,10.391,10.391,0,0,0-1.51-4.236A6.861,6.861,0,0,0,97,13.613a14.582,14.582,0,0,0-5.447-.847H85.116Z" transform="translate(970.659 -117.414)"/>
  <path id="I" class="cls-1" d="M154.28,1.14h12.346V87.32H154.28Z" transform="translate(941.075 -117.414)"/>
  <path id="A" class="cls-1" d="M203.829,1.14,179.08,87.25h49.5Zm0,27.642,13.021,48.76H190.808Z" transform="translate(932.073 -117.414)"/>
  <path id="N" class="cls-1" d="M262.38,1.14h11.862l18.64,51.926h.242V1.14h12.333V87.32H293.85l-18.882-51.8h-.242v51.8H262.38Z" transform="translate(901.839 -117.414)"/>
  <path id="G" class="cls-1" d="M346.358,21.061a22.024,22.024,0,0,1,1.816-9.2,19.182,19.182,0,0,1,4.778-6.593,20.627,20.627,0,0,1,6.657-3.937,21.475,21.475,0,0,1,14.888,0,20.66,20.66,0,0,1,6.67,3.937,19.208,19.208,0,0,1,4.778,6.593,22.021,22.021,0,0,1,1.816,9.2v4.357H375.432V21.061q0-4.459-2.485-6.593a9.193,9.193,0,0,0-11.741,0q-2.484,2.121-2.485,6.593V66.572q0,4.459,2.485,6.593a9.193,9.193,0,0,0,11.741,0q2.478-2.115,2.485-6.593V50.327H365.6V39.459h22.15V66.572a21.906,21.906,0,0,1-1.816,9.237,19.328,19.328,0,0,1-4.778,6.536,20.6,20.6,0,0,1-6.657,3.931,21.469,21.469,0,0,1-14.888,0,20.557,20.557,0,0,1-6.657-3.931,19.3,19.3,0,0,1-4.778-6.536,21.907,21.907,0,0,1-1.816-9.263Z" transform="translate(871.361 -117)"/>
  <path id="L" class="cls-1" d="M428.44,1.14h12.346V74.948h24.45V87.294h-36.8Z" transform="translate(841.568 -117.414)"/>
  <path id="E" class="cls-1" d="M498.74,1.14h36.8V12.76h-24.45v25.3h21.3v11.62h-21.3V74.948h24.45V87.294h-36.8Z" transform="translate(816.052 -117.414)"/>
</svg>
