<svg xmlns="http://www.w3.org/2000/svg" viewBox="0 0 627.3 147.73"><defs><style>.cls-1{fill:#1b1b1b;}.cls-2{fill:#1e81ff;}</style></defs><title>Logo-Insight</title><g id="Capa_2" data-name="Capa 2"><g id="_Capa_" data-name="&lt;Capa&gt;"><path class="cls-1" d="M162,118.11q-3.52-3.51-3.51-9.54V31.83a12.7,12.7,0,0,1,3.51-9.4q3.51-3.51,9.54-3.51t9.75,3.51a12.57,12.57,0,0,1,3.59,9.4v76.74q0,6-3.59,9.54t-9.75,3.51Q165.56,121.62,162,118.11Z"/><path class="cls-1" d="M267.83,56Q274,63.53,274,78.88v31a11.09,11.09,0,0,1-3.44,8.61q-3.44,3.16-9.32,3.16t-9.32-3.16a11.09,11.09,0,0,1-3.44-8.61V80q0-6.31-2.22-9.18T239.58,68a11.78,11.78,0,0,0-9.11,3.66q-3.37,3.66-3.37,9.83v28.4a11.09,11.09,0,0,1-3.44,8.61q-3.44,3.16-9.32,3.16T205,118.47a11.09,11.09,0,0,1-3.44-8.61V60.23A10.6,10.6,0,0,1,205.15,52a13.4,13.4,0,0,1,9.32-3.23,12.21,12.21,0,0,1,8.68,3,10.29,10.29,0,0,1,3.23,7.89A24.46,24.46,0,0,1,236,51.33,29.38,29.38,0,0,1,249,48.46Q261.66,48.46,267.83,56Z"/><path class="cls-1" d="M300,120.47a36,36,0,0,1-11.62-4.59,7,7,0,0,1-3.16-3.44A12.63,12.63,0,0,1,284,107a9.67,9.67,0,0,1,2.08-6.38,6.52,6.52,0,0,1,5.24-2.51,15.43,15.43,0,0,1,4,.5,37.68,37.68,0,0,1,4.59,1.65q4.59,1.58,8.1,2.44a38.62,38.62,0,0,0,9,.86,14.22,14.22,0,0,0,6.1-1.08,3.36,3.36,0,0,0,2.22-3.08,2.94,2.94,0,0,0-1.08-2.44,11.89,11.89,0,0,0-4.09-1.65q-3-.79-10.18-2.22-12.77-2.44-18.43-7.39t-5.67-14A19,19,0,0,1,290,59.8a27.07,27.07,0,0,1,11.26-8.32,41.11,41.11,0,0,1,16.07-3A49.93,49.93,0,0,1,329.87,50a40.32,40.32,0,0,1,10.83,4.45q4.44,2.58,4.45,8.32A10.54,10.54,0,0,1,343,69.55a6.53,6.53,0,0,1-5.31,2.73,21.52,21.52,0,0,1-8.89-2.44,47.52,47.52,0,0,0-6.1-2.37,22.07,22.07,0,0,0-6.24-.79,12,12,0,0,0-5.59,1.08,3.36,3.36,0,0,0-2,3.08q0,2.3,2.8,3.59t11.12,2.87q13.91,2.44,19.65,7.39T348.16,99a19.57,19.57,0,0,1-8.68,16.71q-8.68,6.24-23.31,6.24A77.82,77.82,0,0,1,300,120.47Z"/><path class="cls-1" d="M361.14,35.34a11.39,11.39,0,0,1-3.8-9,11.18,11.18,0,0,1,3.8-8.89q3.8-3.3,10.26-3.3t10.18,3.3a11.08,11.08,0,0,1,3.87,8.89,11.4,11.4,0,0,1-3.8,9q-3.8,3.37-10.26,3.37T361.14,35.34Zm1.15,83.34q-3.66-2.94-3.66-8.82V60.51q0-5.88,3.66-8.82a15.58,15.58,0,0,1,18.22,0q3.66,2.94,3.66,8.82v49.35q0,5.88-3.66,8.82a15.58,15.58,0,0,1-18.22,0Z"/><path class="cls-1" d="M470.81,52a11.15,11.15,0,0,1,3.44,8.54v51.64q0,17.5-10.54,26.54t-30.91,9a74.59,74.59,0,0,1-14.92-1.43A41.35,41.35,0,0,1,406,142.13a11.44,11.44,0,0,1-4.09-3.73,9.21,9.21,0,0,1-1.51-5.16,10.41,10.41,0,0,1,2.08-6.74,6.59,6.59,0,0,1,5.38-2.58q2.58,0,9.32,2.15,4.44,1.43,7.89,2.22a31.46,31.46,0,0,0,7,.79q8.75,0,12.84-3.66T449,113.88v-5.45a21.8,21.8,0,0,1-9,7.53,29.35,29.35,0,0,1-12.77,2.8,31.16,31.16,0,0,1-16.35-4.3,29.3,29.3,0,0,1-11.19-12.27,40.38,40.38,0,0,1-4-18.43,40.85,40.85,0,0,1,4-18.51,29.7,29.7,0,0,1,11.19-12.41,30.78,30.78,0,0,1,16.35-4.37,29.07,29.07,0,0,1,12.91,2.87,21.52,21.52,0,0,1,9,7.89,10.27,10.27,0,0,1,3.66-7.67,13.36,13.36,0,0,1,8.82-2.8A12.88,12.88,0,0,1,470.81,52ZM445.42,95.51q3.73-4.16,3.73-11.76t-3.73-11.91q-3.73-4.3-10.47-4.3t-10.33,4.23q-3.73,4.23-3.73,12,0,7.46,3.8,11.69a13.1,13.1,0,0,0,10.26,4.23Q441.68,99.67,445.42,95.51Z"/><path class="cls-1" d="M555.58,56q6,7.53,6,22.88v31a11.09,11.09,0,0,1-3.44,8.61q-3.44,3.16-9.32,3.16t-9.32-3.16a11.09,11.09,0,0,1-3.44-8.61V78.3q0-10.33-8.89-10.33a11.78,11.78,0,0,0-9.11,3.66q-3.37,3.66-3.37,9.83v28.4a11.09,11.09,0,0,1-3.44,8.61q-3.44,3.16-9.32,3.16t-9.32-3.16a11.09,11.09,0,0,1-3.44-8.61V30.39a10.6,10.6,0,0,1,3.58-8.25,13.61,13.61,0,0,1,9.47-3.23,13.23,13.23,0,0,1,9,3,10.14,10.14,0,0,1,3.44,8V58.65a24.85,24.85,0,0,1,9.61-7.6,31.12,31.12,0,0,1,12.91-2.58Q549.56,48.46,555.58,56Z"/><path class="cls-1" d="M627.3,112a8.2,8.2,0,0,1-3.87,7.46q-3.87,2.44-11,2l-4-.29q-12.91-1-19.58-7.82t-6.67-19V69H578q-11.48,0-11.48-9.47T578,50.19h4.16V40.86a11.33,11.33,0,0,1,3.44-8.68Q589,29,594.89,29t9.32,3.23a11.33,11.33,0,0,1,3.44,8.68v9.32h7.89q11.47,0,11.47,9.32T615.54,69h-7.89V96.52a6.68,6.68,0,0,0,1.65,4.59,5.85,5.85,0,0,0,4.23,2l4.16.29Q627.3,104,627.3,112Z"/><circle class="cls-2" cx="70.27" cy="70.27" r="70.27"/></g></g></svg>