<svg xmlns="http://www.w3.org/2000/svg" xmlns:xlink="http://www.w3.org/1999/xlink" viewBox="0 0 1920 750"><defs><style>.a{clip-path:url(#l);}.b{fill:#07093b;}.c,.d{opacity:0.7;}.c{fill:url(#a);}.d{fill:url(#d);}.e{fill:#fff;}.f{filter:url(#i);}.g{filter:url(#g);}.h{filter:url(#e);}.i{filter:url(#b);}</style><linearGradient id="a" x1="0.168" y1="0.892" x2="1.131" y2="0.3" gradientUnits="objectBoundingBox"><stop offset="0" stop-color="#18084c"/><stop offset="1" stop-color="#2700a7"/></linearGradient><filter id="b" x="-29.677" y="2.062" width="1976.457" height="322.389" filterUnits="userSpaceOnUse"><feOffset dy="-3" input="SourceAlpha"/><feGaussianBlur stdDeviation="3" result="c"/><feFlood flood-opacity="0.161"/><feComposite operator="in" in2="c"/><feComposite in="SourceGraphic"/></filter><linearGradient id="d" x1="0.992" y1="0.5" x2="0.01" y2="0.04" gradientUnits="objectBoundingBox"><stop offset="0" stop-color="#060b4f"/><stop offset="1" stop-color="#121da3"/></linearGradient><filter id="e" x="-98.459" y="402.261" width="2138.228" height="353.942" filterUnits="userSpaceOnUse"><feOffset dy="3" input="SourceAlpha"/><feGaussianBlur stdDeviation="3" result="f"/><feFlood flood-opacity="0.161"/><feComposite operator="in" in2="f"/><feComposite in="SourceGraphic"/></filter><filter id="g" x="-194.4" y="564.586" width="2145.388" height="295.617" filterUnits="userSpaceOnUse"><feOffset dy="-3" input="SourceAlpha"/><feGaussianBlur stdDeviation="3" result="h"/><feFlood flood-opacity="0.161"/><feComposite operator="in" in2="h"/><feComposite in="SourceGraphic"/></filter><filter id="i" x="-165.795" y="-107.167" width="2232.902" height="353.942" filterUnits="userSpaceOnUse"><feOffset dy="3" input="SourceAlpha"/><feGaussianBlur stdDeviation="3" result="j"/><feFlood flood-opacity="0.161"/><feComposite operator="in" in2="j"/><feComposite in="SourceGraphic"/></filter><clipPath id="l"><rect width="1920" height="750"/></clipPath></defs><g id="k" class="a"><rect class="e" width="1920" height="750"/><rect class="b" width="1920" height="742" transform="translate(0 4)"/><g transform="translate(1928.199 857.036) rotate(180)"><g class="i" transform="matrix(-1, 0, 0, -1, 1928.2, 857.04)"><path class="c" d="M-1533.064,2251.441v-78.625s267.437-135.993,588.624-136.116,475.268,97.433,744.443,93.857,450.078-149.079,625.39-156.732c-.261,100.885-87.715,241.624-87.715,241.624l-613.083,62.765Z" transform="translate(404.72 2292.27) rotate(180)"/></g><g class="h" transform="matrix(-1, 0, 0, -1, 1928.2, 857.04)"><path class="d" d="M-2115.57,1191.522s209.277,223.569,806.315,82.656,665.276-64.282,791.12-22.012,383.023,226.178,522.794,128.284c-1.788-101.958,0-307.617,0-307.617H-2115.57Z" transform="translate(-84.8 1817.04) rotate(180)"/></g></g><g class="g" transform="matrix(1, 0, 0, 1, 0, 0)"><path class="e" d="M-1533.064,2251.441v-78.625s290.5-135.993,639.4-136.116,516.264,97.433,808.656,93.857,488.9-149.079,679.335-156.732c-.284,100.885,0,277.617,0,277.617Z" transform="translate(1347.66 -1397.24)"/></g><g class="f" transform="matrix(1, 0, 0, 1, 0, 0)"><path class="e" d="M99.332,1191.522s-218.622,223.569-842.319,82.656-694.982-64.282-826.445-22.012-400.126,226.178-546.138,128.284c1.867-101.958,0-307.617,0-307.617H99.332Z" transform="translate(1958.77 -1174)"/></g></g></svg>