<svg xmlns="http://www.w3.org/2000/svg" xmlns:xlink="http://www.w3.org/1999/xlink" viewBox="0 0 1920 750"><defs><style>.a{clip-path:url(#h);}.b{fill:#07093b;}.c,.d{opacity:0.7;}.c{fill:url(#a);}.d{fill:url(#d);}.e{fill:#fff;}.f{filter:url(#e);}.g{filter:url(#b);}</style><linearGradient id="a" x1="0.168" y1="0.892" x2="1.131" y2="0.3" gradientUnits="objectBoundingBox"><stop offset="0" stop-color="#18084c"/><stop offset="1" stop-color="#2700a7"/></linearGradient><filter id="b" x="-25.469" y="504.586" width="1976.457" height="295.617" filterUnits="userSpaceOnUse"><feOffset dy="-3" input="SourceAlpha"/><feGaussianBlur stdDeviation="3" result="c"/><feFlood flood-opacity="0.161"/><feComposite operator="in" in2="c"/><feComposite in="SourceGraphic"/></filter><linearGradient id="d" x1="0.992" y1="0.5" x2="0.01" y2="0.04" gradientUnits="objectBoundingBox"><stop offset="0" stop-color="#060b4f"/><stop offset="1" stop-color="#121da3"/></linearGradient><filter id="e" x="-118.458" y="-65.167" width="2138.228" height="353.942" filterUnits="userSpaceOnUse"><feOffset dy="3" input="SourceAlpha"/><feGaussianBlur stdDeviation="3" result="f"/><feFlood flood-opacity="0.161"/><feComposite operator="in" in2="f"/><feComposite in="SourceGraphic"/></filter><clipPath id="h"><rect width="1920" height="750"/></clipPath></defs><g id="g" class="a"><rect class="e" width="1920" height="750"/><rect class="b" width="1920" height="750"/><g transform="translate(-6.888 -22)"><g class="g" transform="matrix(1, 0, 0, 1, 6.89, 22)"><path class="c" d="M-1533.064,2251.441v-78.625s267.437-135.993,588.624-136.116,475.268,97.433,744.443,93.857,450.078-149.079,625.39-156.732c-.261,100.885,0,277.617,0,277.617Z" transform="translate(1516.59 -1457.24)"/></g><g class="f" transform="matrix(1, 0, 0, 1, 6.89, 22)"><path class="d" d="M-2115.57,1191.522s209.277,223.569,806.315,82.656,665.276-64.282,791.12-22.012,383.023,226.178,522.794,128.284c-1.788-101.958,0-307.617,0-307.617H-2115.57Z" transform="translate(2006.11 -1132)"/></g></g></g></svg>