<svg xmlns="http://www.w3.org/2000/svg" xmlns:xlink="http://www.w3.org/1999/xlink" viewBox="0 0 2160 1212.826"><defs><style>.a{clip-path:url(#j);}.b{fill:#07093b;}.c,.e{opacity:0.8;}.c{fill:url(#a);}.d{fill:#fff;}.e{fill:url(#f);}.f{filter:url(#g);}.g{filter:url(#d);}.h{filter:url(#b);}</style><linearGradient id="a" x1="0.168" y1="0.892" x2="1.131" y2="0.3" gradientUnits="objectBoundingBox"><stop offset="0" stop-color="#18084c"/><stop offset="1" stop-color="#2700a7"/></linearGradient><filter id="b" x="-9" y="766.838" width="2178.242" height="411.461" filterUnits="userSpaceOnUse"><feOffset dy="-3" input="SourceAlpha"/><feGaussianBlur stdDeviation="3" result="c"/><feFlood flood-opacity="0.161"/><feComposite operator="in" in2="c"/><feComposite in="SourceGraphic"/></filter><filter id="d" x="-88.643" y="893.726" width="2352.521" height="435.627" filterUnits="userSpaceOnUse"><feOffset dy="-3" input="SourceAlpha"/><feGaussianBlur stdDeviation="3" result="e"/><feFlood flood-opacity="0.161"/><feComposite operator="in" in2="e"/><feComposite in="SourceGraphic"/></filter><linearGradient id="f" x1="0.992" y1="0.5" x2="0.01" y2="0.04" gradientUnits="objectBoundingBox"><stop offset="0" stop-color="#060b4f"/><stop offset="1" stop-color="#121da3"/></linearGradient><filter id="g" x="-111.57" y="-43.167" width="2356.681" height="494.124" filterUnits="userSpaceOnUse"><feOffset dy="3" input="SourceAlpha"/><feGaussianBlur stdDeviation="3" result="h"/><feFlood flood-opacity="0.161"/><feComposite operator="in" in2="h"/><feComposite in="SourceGraphic"/></filter><clipPath id="j"><rect width="2160" height="1212.826"/></clipPath></defs><g id="i" class="a"><rect class="b" width="2160" height="1173"/><g class="h" transform="matrix(1, 0, 0, 1, 0, 0)"><path class="c" d="M-1533.064,2367.285V2255.852s294.991-192.741,649.272-192.915,524.237,138.089,821.144,133.021S433.8,1984.671,627.178,1973.824c-.288,142.982,0,393.461,0,393.461Z" transform="translate(1533.06 -1194.99)"/></g><g class="g" transform="matrix(1, 0, 0, 1, 0, 0)"><path class="d" d="M831.357,2091.193S1026.6,2247.75,1722.73,2267.682s956.985-67.661,1393.7-210.713c53.7,214.926,49.363,417.627,49.363,417.627H831.357Z" transform="translate(-911 -1151.24)"/></g><g class="f" transform="matrix(1, 0, 0, 1, 0, 0)"><path class="e" d="M-2115.57,1241.049s230.839,316.861,889.391,117.147,733.821-91.106,872.631-31.2,422.486,320.558,576.658,181.815c-1.972-144.5,0-435.98,0-435.98H-2115.57Z" transform="translate(2013 -1110)"/></g></g></svg>