<svg xmlns="http://www.w3.org/2000/svg" xmlns:xlink="http://www.w3.org/1999/xlink" viewBox="0 0 3465 1945.826"><defs><style>.a{clip-path:url(#n);}.b{fill:#07093b;}.c,.d{opacity:0.7;}.c{fill:url(#a);}.d{fill:url(#d);}.e{fill:url(#g);}.f{fill:url(#h);}.g{fill:url(#i);}.h{fill:url(#j);}.i{fill:#fff;}.j{fill:#03e2ff;opacity:0.07;}.k{fill:url(#k);}.l{fill:url(#l);}.m{filter:url(#e);}.n{filter:url(#b);}</style><linearGradient id="a" x1="0.168" y1="0.892" x2="1.131" y2="0.3" gradientUnits="objectBoundingBox"><stop offset="0" stop-color="#18084c"/><stop offset="1" stop-color="#2700a7"/></linearGradient><filter id="b" x="51.715" y="1249.862" width="3456.971" height="644.365" filterUnits="userSpaceOnUse"><feOffset dy="-3" input="SourceAlpha"/><feGaussianBlur stdDeviation="3" result="c"/><feFlood flood-opacity="0.161"/><feComposite operator="in" in2="c"/><feComposite in="SourceGraphic"/></filter><linearGradient id="d" x1="0.992" y1="0.5" x2="0.01" y2="0.04" gradientUnits="objectBoundingBox"><stop offset="0" stop-color="#060b4f"/><stop offset="1" stop-color="#121da3"/></linearGradient><filter id="e" x="-111.57" y="-43.167" width="3741.035" height="775.96" filterUnits="userSpaceOnUse"><feOffset dy="3" input="SourceAlpha"/><feGaussianBlur stdDeviation="3" result="f"/><feFlood flood-opacity="0.161"/><feComposite operator="in" in2="f"/><feComposite in="SourceGraphic"/></filter><linearGradient id="g" x1="0.072" y1="0.756" x2="0.96" y2="0.242" gradientUnits="objectBoundingBox"><stop offset="0" stop-color="#ff1e8f"/><stop offset="1" stop-color="#ff6262"/></linearGradient><linearGradient id="h" x1="0.072" y1="0.756" x2="0.96" y2="0.242" gradientUnits="objectBoundingBox"><stop offset="0" stop-color="#ff861e"/><stop offset="1" stop-color="#ff6c00"/></linearGradient><linearGradient id="i" x1="0.072" y1="0.756" x2="0.96" y2="0.242" gradientUnits="objectBoundingBox"><stop offset="0" stop-color="#77d589"/><stop offset="1" stop-color="#02b59a"/></linearGradient><linearGradient id="j" x1="0.072" y1="0.756" x2="2.06" y2="-0.283" gradientUnits="objectBoundingBox"><stop offset="0" stop-color="#861eff"/><stop offset="1" stop-color="#ff62cf"/></linearGradient><linearGradient id="k" x1="0.072" y1="0.756" x2="0.922" y2="0.23" gradientUnits="objectBoundingBox"><stop offset="0" stop-color="#ffb61e"/><stop offset="1" stop-color="#d87513"/></linearGradient><linearGradient id="l" x1="0.072" y1="0.756" x2="0.96" y2="0.242" gradientUnits="objectBoundingBox"><stop offset="0" stop-color="#491eff"/><stop offset="1" stop-color="#62b7ff"/></linearGradient><clipPath id="n"><rect width="3465" height="1945.826"/></clipPath></defs><g id="m" class="a"><rect class="b" width="3465" height="1899"/><g class="n" transform="matrix(1, 0, 0, 1, 0, 0)"><path class="c" d="M-1533.064,2600.19v-177.4s469.608-306.831,1033.6-307.109,834.552,219.83,1307.211,211.762,790.319-336.356,1098.16-353.623c-.459,227.619,0,626.365,0,626.365Z" transform="translate(1593.78 -711.96)"/></g><g class="m" transform="matrix(1, 0, 0, 1, 0, 0)"><path class="d" d="M-2115.57,1340.622s367.481,504.423,1415.856,186.491,1168.2-145.036,1389.175-49.664,672.572,510.308,918,289.439c-3.139-230.041,0-694.054,0-694.054H-2115.57Z" transform="translate(2013 -1110)"/></g><circle class="e" cx="223.59" cy="223.59" r="223.59" transform="matrix(0.883, -0.469, 0.469, 0.883, 2096.232, 211.435)"/><ellipse class="f" cx="195.09" cy="195.09" rx="195.09" ry="195.09" transform="matrix(-0.454, -0.891, 0.891, -0.454, 3049.802, 1016.894)"/><ellipse class="g" cx="230.921" cy="230.921" rx="230.921" ry="230.921" transform="matrix(0.966, 0.259, -0.259, 0.966, 416.425, 207.696)"/><ellipse class="h" cx="149.06" cy="149.06" rx="149.06" ry="149.06" transform="translate(355.426 1331.009) rotate(180)"/><path class="i" d="M831.357,2111.213s692.991,307.067,1410.792,314.608,1518.77-142.121,2210.945-368.852c85.116,340.648,78.238,661.92,78.238,661.92H831.357Z" transform="translate(-911 -536.581)"/><circle class="j" cx="157.259" cy="157.259" r="157.259" transform="translate(-320.091 1454.629) rotate(-59)"/><circle class="k" cx="297.951" cy="297.951" r="297.951" transform="translate(1181.027 1915.031) rotate(180)"/><ellipse class="l" cx="239.011" cy="239.011" rx="239.011" ry="239.011" transform="matrix(-0.259, -0.966, 0.966, -0.259, 2846.013, 1871.658)"/></g></svg>