<svg xmlns="http://www.w3.org/2000/svg" xmlns:xlink="http://www.w3.org/1999/xlink" viewBox="0 0 1366 767"><defs><style>.a{clip-path:url(#h);}.b{fill:#aa01dd;}.b,.c{opacity:0.1;}.c{fill:#0320ff;}.d{fill:#03e2ff;opacity:0.07;}.e{fill:url(#a);}.f{fill:url(#b);}.g{fill:url(#c);}.h{fill:url(#d);}.i{fill:url(#e);}.j{fill:url(#f);}.k{fill:#07093b;}</style><linearGradient id="a" x1="0.072" y1="0.756" x2="0.922" y2="0.23" gradientUnits="objectBoundingBox"><stop offset="0" stop-color="#ffb61e"/><stop offset="1" stop-color="#ffb062"/></linearGradient><linearGradient id="b" x1="0.072" y1="0.756" x2="0.96" y2="0.242" gradientUnits="objectBoundingBox"><stop offset="0" stop-color="#ff1e8f"/><stop offset="1" stop-color="#ff6262"/></linearGradient><linearGradient id="c" x1="0.072" y1="0.756" x2="0.96" y2="0.242" gradientUnits="objectBoundingBox"><stop offset="0" stop-color="#ff861e"/><stop offset="1" stop-color="#ffa462"/></linearGradient><linearGradient id="d" x1="0.072" y1="0.756" x2="0.96" y2="0.242" gradientUnits="objectBoundingBox"><stop offset="0" stop-color="#491eff"/><stop offset="1" stop-color="#62b7ff"/></linearGradient><linearGradient id="e" x1="0.072" y1="0.756" x2="0.96" y2="0.242" gradientUnits="objectBoundingBox"><stop offset="0" stop-color="#93ffa8"/><stop offset="1" stop-color="#03ceaf"/></linearGradient><linearGradient id="f" x1="0.072" y1="0.756" x2="2.06" y2="-0.283" gradientUnits="objectBoundingBox"><stop offset="0" stop-color="#861eff"/><stop offset="1" stop-color="#ff62cf"/></linearGradient><clipPath id="h"><rect width="1366" height="767"/></clipPath></defs><g id="g" class="a"><rect class="k" width="1366" height="767"/><circle class="b" cx="97" cy="97" r="97" transform="translate(251 218)"/><circle class="c" cx="67.5" cy="67.5" r="67.5" transform="translate(923 366)"/><circle class="c" cx="53" cy="53" r="53" transform="translate(717 86)"/><circle class="c" cx="81.5" cy="81.5" r="81.5" transform="translate(88 501)"/><circle class="d" cx="35.5" cy="35.5" r="35.5" transform="translate(630 636)"/><circle class="d" cx="102" cy="102" r="102" transform="translate(1250.035 86.897) rotate(-59)"/><circle class="e" cx="125" cy="125" r="125" transform="translate(498 744) rotate(180)"/><circle class="f" cx="91.5" cy="91.5" r="91.5" transform="matrix(0.883, -0.469, 0.469, 0.883, 841.838, 67.297)"/><circle class="g" cx="91.5" cy="91.5" r="91.5" transform="matrix(0.883, -0.469, 0.469, 0.883, 1219.838, 180.297)"/><circle class="h" cx="119.5" cy="119.5" r="119.5" transform="matrix(-0.259, -0.966, 0.966, -0.259, 1114.956, 737.478)"/><circle class="i" cx="94.5" cy="94.5" r="94.5" transform="matrix(0.966, 0.259, -0.259, 0.966, 187.147, 69.86)"/><circle class="j" cx="61" cy="61" r="61" transform="translate(154 505) rotate(180)"/></g></svg>