<svg xmlns="http://www.w3.org/2000/svg" xmlns:xlink="http://www.w3.org/1999/xlink" viewBox="0 0 2160 1212.826"><defs><style>.a{clip-path:url(#n);}.b{fill:#07093b;}.c,.d{opacity:0.7;}.c{fill:url(#a);}.d{fill:url(#d);}.e{fill:url(#g);}.f{fill:url(#h);}.g{fill:url(#i);}.h{fill:url(#j);}.i{fill:#fff;}.j{fill:url(#k);}.k{fill:url(#l);}.l{filter:url(#e);}.m{filter:url(#b);}</style><linearGradient id="a" x1="0.168" y1="0.892" x2="1.131" y2="0.3" gradientUnits="objectBoundingBox"><stop offset="0" stop-color="#18084c"/><stop offset="1" stop-color="#2700a7"/></linearGradient><filter id="b" x="-9" y="766.838" width="2178.242" height="411.461" filterUnits="userSpaceOnUse"><feOffset dy="-3" input="SourceAlpha"/><feGaussianBlur stdDeviation="3" result="c"/><feFlood flood-opacity="0.161"/><feComposite operator="in" in2="c"/><feComposite in="SourceGraphic"/></filter><linearGradient id="d" x1="0.992" y1="0.5" x2="0.01" y2="0.04" gradientUnits="objectBoundingBox"><stop offset="0" stop-color="#060b4f"/><stop offset="1" stop-color="#121da3"/></linearGradient><filter id="e" x="-111.57" y="-43.167" width="2356.681" height="494.124" filterUnits="userSpaceOnUse"><feOffset dy="3" input="SourceAlpha"/><feGaussianBlur stdDeviation="3" result="f"/><feFlood flood-opacity="0.161"/><feComposite operator="in" in2="f"/><feComposite in="SourceGraphic"/></filter><linearGradient id="g" x1="0.072" y1="0.756" x2="0.96" y2="0.242" gradientUnits="objectBoundingBox"><stop offset="0" stop-color="#ff1e8f"/><stop offset="1" stop-color="#ff6262"/></linearGradient><linearGradient id="h" x1="0.072" y1="0.756" x2="0.96" y2="0.242" gradientUnits="objectBoundingBox"><stop offset="0" stop-color="#ff861e"/><stop offset="1" stop-color="#ff6c00"/></linearGradient><linearGradient id="i" x1="0.072" y1="0.756" x2="0.96" y2="0.242" gradientUnits="objectBoundingBox"><stop offset="0" stop-color="#77d589"/><stop offset="1" stop-color="#02b59a"/></linearGradient><linearGradient id="j" x1="0.072" y1="0.756" x2="2.06" y2="-0.283" gradientUnits="objectBoundingBox"><stop offset="0" stop-color="#861eff"/><stop offset="1" stop-color="#ff62cf"/></linearGradient><linearGradient id="k" x1="0.072" y1="0.756" x2="0.922" y2="0.23" gradientUnits="objectBoundingBox"><stop offset="0" stop-color="#ffb61e"/><stop offset="1" stop-color="#d87513"/></linearGradient><linearGradient id="l" x1="0.072" y1="0.756" x2="0.96" y2="0.242" gradientUnits="objectBoundingBox"><stop offset="0" stop-color="#491eff"/><stop offset="1" stop-color="#62b7ff"/></linearGradient><clipPath id="n"><rect width="2160" height="1212.826"/></clipPath></defs><g id="m" class="a"><rect class="b" width="2160" height="1165"/><g class="m" transform="matrix(1, 0, 0, 1, 0, 0)"><path class="c" d="M-1533.064,2367.285V2255.852s294.991-192.741,649.272-192.915,524.237,138.089,821.144,133.021S433.8,1984.671,627.178,1973.824c-.288,142.982,0,393.461,0,393.461Z" transform="translate(1533.06 -1194.99)"/></g><g class="l" transform="matrix(1, 0, 0, 1, 0, 0)"><path class="d" d="M-2115.57,1241.049s230.839,316.861,889.391,117.147,733.821-91.106,872.631-31.2,422.486,320.558,576.658,181.815c-1.972-144.5,0-435.98,0-435.98H-2115.57Z" transform="translate(2013 -1110)"/></g><circle class="e" cx="141.07" cy="141.07" r="141.07" transform="matrix(0.883, -0.469, 0.469, 0.883, 1280.57, 121.411)"/><circle class="f" cx="141.07" cy="141.07" r="141.07" transform="matrix(-0.454, -0.891, 0.891, -0.454, 1847.565, 671.663)"/><circle class="g" cx="145.696" cy="145.696" r="145.696" transform="matrix(0.966, 0.259, -0.259, 0.966, 528.199, -64.638)"/><circle class="h" cx="94.047" cy="94.047" r="94.047" transform="translate(220.094 796.24) rotate(180)"/><path class="i" d="M831.357,2091.193s437.231,193.739,890.116,198.5,958.242-89.669,1394.958-232.721c53.7,214.926,49.363,417.627,49.363,417.627H831.357Z" transform="translate(-935 -1141.243)"/><circle class="j" cx="192.719" cy="192.719" r="192.719" transform="translate(750.457 1164.719) rotate(180)"/><circle class="k" cx="184.239" cy="184.239" r="184.239" transform="matrix(-0.259, -0.966, 0.966, -0.259, 1375.65, 1141.664)"/></g></svg>