<svg xmlns="http://www.w3.org/2000/svg" xmlns:xlink="http://www.w3.org/1999/xlink" viewBox="0 0 2160 1212.826"><defs><style>.a{clip-path:url(#h);}.b{fill:#07093b;}.c{fill:#aa01dd;}.c,.d{opacity:0.1;}.d{fill:#0320ff;}.e{fill:#03e2ff;opacity:0.07;}.f{fill:url(#a);}.g{fill:url(#b);}.h{fill:url(#c);}.i{fill:url(#d);}.j{fill:url(#e);}.k{fill:url(#f);}.l{fill:#fff;}</style><linearGradient id="a" x1="0.072" y1="0.756" x2="0.922" y2="0.23" gradientUnits="objectBoundingBox"><stop offset="0" stop-color="#ffb61e"/><stop offset="1" stop-color="#d87513"/></linearGradient><linearGradient id="b" x1="0.072" y1="0.756" x2="0.96" y2="0.242" gradientUnits="objectBoundingBox"><stop offset="0" stop-color="#ff1e8f"/><stop offset="1" stop-color="#ff6262"/></linearGradient><linearGradient id="c" x1="0.072" y1="0.756" x2="0.96" y2="0.242" gradientUnits="objectBoundingBox"><stop offset="0" stop-color="#ff861e"/><stop offset="1" stop-color="#ff6c00"/></linearGradient><linearGradient id="d" x1="0.072" y1="0.756" x2="0.96" y2="0.242" gradientUnits="objectBoundingBox"><stop offset="0" stop-color="#491eff"/><stop offset="1" stop-color="#62b7ff"/></linearGradient><linearGradient id="e" x1="0.072" y1="0.756" x2="0.96" y2="0.242" gradientUnits="objectBoundingBox"><stop offset="0" stop-color="#77d589"/><stop offset="1" stop-color="#02b59a"/></linearGradient><linearGradient id="f" x1="0.072" y1="0.756" x2="2.06" y2="-0.283" gradientUnits="objectBoundingBox"><stop offset="0" stop-color="#861eff"/><stop offset="1" stop-color="#ff62cf"/></linearGradient><clipPath id="h"><rect width="2160" height="1212.826"/></clipPath></defs><g id="g" class="a"><rect class="b" width="2160" height="1213"/><ellipse class="c" cx="149.55" cy="149.55" rx="149.55" ry="149.55" transform="translate(369.644 353.757)"/><circle class="d" cx="104.068" cy="104.068" r="104.068" transform="translate(1405.702 581.937)"/><ellipse class="d" cx="81.713" cy="81.713" rx="81.713" ry="81.713" transform="translate(1088.101 150.246)"/><circle class="d" cx="125.653" cy="125.653" r="125.653" transform="translate(118.338 790.073)"/><ellipse class="e" cx="54.732" cy="54.732" rx="54.732" ry="54.732" transform="translate(953.968 998.21)"/><circle class="e" cx="157.259" cy="157.259" r="157.259" transform="translate(1909.909 151.629) rotate(-59)"/><circle class="f" cx="192.719" cy="192.719" r="192.719" transform="translate(750.457 1164.719) rotate(180)"/><circle class="g" cx="141.07" cy="141.07" r="141.07" transform="matrix(0.883, -0.469, 0.469, 0.883, 1280.57, 121.411)"/><circle class="h" cx="141.07" cy="141.07" r="141.07" transform="matrix(-0.454, -0.891, 0.891, -0.454, 1847.565, 671.663)"/><circle class="i" cx="184.239" cy="184.239" r="184.239" transform="matrix(-0.259, -0.966, 0.966, -0.259, 1701.65, 1154.664)"/><circle class="j" cx="145.696" cy="145.696" r="145.696" transform="matrix(0.966, 0.259, -0.259, 0.966, 271.199, 125.362)"/><circle class="k" cx="94.047" cy="94.047" r="94.047" transform="translate(220.094 796.24) rotate(180)"/><path class="l" d="M831.357,2091.193s437.231,193.739,890.116,198.5,958.242-89.669,1394.958-232.721c53.7,214.926,49.363,417.627,49.363,417.627H831.357Z" transform="translate(-911 -1141.243)"/></g></svg>