<svg xmlns="http://www.w3.org/2000/svg" xmlns:xlink="http://www.w3.org/1999/xlink" viewBox="0 0 1366 767"><defs><style>.a{clip-path:url(#h);}.b{fill:#07093b;}.c{fill:#aa01dd;}.c,.d{opacity:0.1;}.d{fill:#0320ff;}.e{fill:url(#a);}.f{fill:url(#b);}.g{fill:url(#c);}.h{fill:#03e2ff;opacity:0.07;}.i{fill:url(#d);}.j{fill:url(#e);}.k{fill:url(#f);}.l{fill:#fff;}</style><linearGradient id="a" x1="0.072" y1="0.756" x2="0.96" y2="0.242" gradientUnits="objectBoundingBox"><stop offset="0" stop-color="#ff1e8f"/><stop offset="1" stop-color="#ff6262"/></linearGradient><linearGradient id="b" x1="0.072" y1="0.756" x2="0.96" y2="0.242" gradientUnits="objectBoundingBox"><stop offset="0" stop-color="#77d589"/><stop offset="1" stop-color="#02b59a"/></linearGradient><linearGradient id="c" x1="0.072" y1="0.756" x2="2.06" y2="-0.283" gradientUnits="objectBoundingBox"><stop offset="0" stop-color="#861eff"/><stop offset="1" stop-color="#ff62cf"/></linearGradient><linearGradient id="d" x1="0.072" y1="0.756" x2="0.922" y2="0.23" gradientUnits="objectBoundingBox"><stop offset="0" stop-color="#ffb61e"/><stop offset="1" stop-color="#d87513"/></linearGradient><linearGradient id="e" x1="0.072" y1="0.756" x2="0.96" y2="0.242" gradientUnits="objectBoundingBox"><stop offset="0" stop-color="#ff861e"/><stop offset="1" stop-color="#ff6c00"/></linearGradient><linearGradient id="f" x1="0.072" y1="0.756" x2="0.96" y2="0.242" gradientUnits="objectBoundingBox"><stop offset="0" stop-color="#491eff"/><stop offset="1" stop-color="#62b7ff"/></linearGradient><clipPath id="h"><rect width="1366" height="767"/></clipPath></defs><g id="g" class="a"><rect class="b" width="1366" height="752"/><ellipse class="c" cx="97.093" cy="97.093" rx="97.093" ry="97.093" transform="translate(440.048 354.796)"/><ellipse class="d" cx="75.051" cy="75.051" rx="75.051" ry="75.051" transform="translate(578.492 96.67)"/><circle class="e" cx="91.587" cy="91.587" r="91.587" transform="matrix(0.883, -0.469, 0.469, 0.883, 634.449, 24.949)"/><circle class="f" cx="94.59" cy="94.59" r="94.59" transform="matrix(0.966, 0.259, -0.259, 0.966, 388.134, 77.514)"/><ellipse class="g" cx="61.058" cy="61.058" rx="61.058" ry="61.058" transform="translate(254.955 513.069) rotate(180)"/><circle class="d" cx="67.564" cy="67.564" r="67.564" transform="translate(884.689 373.937)"/><ellipse class="d" cx="81.578" cy="81.578" rx="81.578" ry="81.578" transform="translate(48.892 509.065)"/><circle class="h" cx="35.534" cy="35.534" r="35.534" transform="translate(535.409 681.194)"/><circle class="h" cx="35.534" cy="35.534" r="35.534" transform="translate(728.409 312.194)"/><ellipse class="i" cx="125.119" cy="125.119" rx="125.119" ry="125.119" transform="translate(599.283 752.297) rotate(180)"/><circle class="j" cx="91.587" cy="91.587" r="91.587" transform="matrix(-0.454, -0.891, 0.891, -0.454, 1102.56, 432.189)"/><circle class="k" cx="119.614" cy="119.614" r="119.614" transform="matrix(-0.259, -0.966, 0.966, -0.259, 837.828, 705.769)"/><path class="l" d="M831.357,2079.188s283.864,125.781,577.891,128.87,622.12-58.216,905.65-151.09c34.865,139.537,32.048,271.136,32.048,271.136H831.357Z" transform="translate(-911 -1467.326)"/></g></svg>