<svg xmlns="http://www.w3.org/2000/svg" xmlns:xlink="http://www.w3.org/1999/xlink" viewBox="0 0 1366 767"><defs><style>.a{clip-path:url(#n);}.b{fill:#07093b;}.c,.d{opacity:0.7;}.c{fill:url(#a);}.d{fill:url(#d);}.e{fill:url(#g);}.f{fill:url(#h);}.g{fill:url(#i);}.h{fill:#03e2ff;opacity:0.07;}.i{fill:url(#j);}.j{fill:url(#k);}.k{fill:#fff;}.l{fill:url(#l);}.m{filter:url(#e);}.n{filter:url(#b);}</style><linearGradient id="a" x1="0.168" y1="0.892" x2="1.131" y2="0.3" gradientUnits="objectBoundingBox"><stop offset="0" stop-color="#18084c"/><stop offset="1" stop-color="#2700a7"/></linearGradient><filter id="b" x="-43.372" y="473.39" width="1454.332" height="279.61" filterUnits="userSpaceOnUse"><feOffset dy="-3" input="SourceAlpha"/><feGaussianBlur stdDeviation="3" result="c"/><feFlood flood-opacity="0.161"/><feComposite operator="in" in2="c"/><feComposite in="SourceGraphic"/></filter><linearGradient id="d" x1="0.992" y1="0.5" x2="0.01" y2="0.04" gradientUnits="objectBoundingBox"><stop offset="0" stop-color="#060b4f"/><stop offset="1" stop-color="#121da3"/></linearGradient><filter id="e" x="-111.57" y="-43.167" width="1572.976" height="334.572" filterUnits="userSpaceOnUse"><feOffset dy="3" input="SourceAlpha"/><feGaussianBlur stdDeviation="3" result="f"/><feFlood flood-opacity="0.161"/><feComposite operator="in" in2="f"/><feComposite in="SourceGraphic"/></filter><linearGradient id="g" x1="0.072" y1="0.756" x2="0.96" y2="0.242" gradientUnits="objectBoundingBox"><stop offset="0" stop-color="#ff1e8f"/><stop offset="1" stop-color="#ff6262"/></linearGradient><linearGradient id="h" x1="0.072" y1="0.756" x2="0.96" y2="0.242" gradientUnits="objectBoundingBox"><stop offset="0" stop-color="#77d589"/><stop offset="1" stop-color="#02b59a"/></linearGradient><linearGradient id="i" x1="0.072" y1="0.756" x2="2.06" y2="-0.283" gradientUnits="objectBoundingBox"><stop offset="0" stop-color="#861eff"/><stop offset="1" stop-color="#ff62cf"/></linearGradient><linearGradient id="j" x1="0.072" y1="0.756" x2="0.96" y2="0.242" gradientUnits="objectBoundingBox"><stop offset="0" stop-color="#ff861e"/><stop offset="1" stop-color="#ff6c00"/></linearGradient><linearGradient id="k" x1="0.072" y1="0.756" x2="0.96" y2="0.242" gradientUnits="objectBoundingBox"><stop offset="0" stop-color="#491eff"/><stop offset="1" stop-color="#62b7ff"/></linearGradient><linearGradient id="l" x1="0.072" y1="0.756" x2="0.922" y2="0.23" gradientUnits="objectBoundingBox"><stop offset="0" stop-color="#ffb61e"/><stop offset="1" stop-color="#d87513"/></linearGradient><clipPath id="n"><rect width="1366" height="767"/></clipPath></defs><g id="m" class="a"><rect class="b" width="1366" height="752"/><g class="n" transform="matrix(1, 0, 0, 1, 0, 0)"><path class="c" d="M-1533.064,2235.434v-74.092s196.138-128.152,431.7-128.268,348.562,91.815,545.974,88.445,330.087-140.484,458.661-147.7c-.192,95.068,0,261.61,0,261.61Z" transform="translate(1498.69 -1488.43)"/></g><g class="m" transform="matrix(1, 0, 0, 1, 0, 0)"><path class="d" d="M-2115.57,1184.679s153.484,210.679,591.351,77.891,487.913-60.576,580.207-20.743,280.909,213.137,383.417,120.888c-1.311-96.08,0-289.881,0-289.881H-2115.57Z" transform="translate(2013 -1110)"/></g><circle class="e" cx="91.587" cy="91.587" r="91.587" transform="matrix(0.883, -0.469, 0.469, 0.883, 734.449, 24.949)"/><circle class="f" cx="94.59" cy="94.59" r="94.59" transform="matrix(0.966, 0.259, -0.259, 0.966, 346.134, 77.514)"/><ellipse class="g" cx="61.058" cy="61.058" rx="61.058" ry="61.058" transform="translate(254.955 513.069) rotate(180)"/><circle class="h" cx="35.534" cy="35.534" r="35.534" transform="translate(535.409 681.194)"/><circle class="i" cx="91.587" cy="91.587" r="91.587" transform="matrix(-0.454, -0.891, 0.891, -0.454, 1102.56, 432.189)"/><circle class="j" cx="119.614" cy="119.614" r="119.614" transform="matrix(-0.259, -0.966, 0.966, -0.259, 854.828, 712.769)"/><path class="k" d="M831.357,2079.188s283.864,125.781,577.891,128.87,622.12-58.216,905.65-151.09c34.865,139.537,32.048,271.136,32.048,271.136H831.357Z" transform="translate(-911 -1467.326)"/><ellipse class="l" cx="125.119" cy="125.119" rx="125.119" ry="125.119" transform="translate(599.283 761.297) rotate(180)"/></g></svg>