<svg xmlns="http://www.w3.org/2000/svg" xmlns:xlink="http://www.w3.org/1999/xlink" viewBox="0 0 3465 1945.826"><defs><style>.a{clip-path:url(#h);}.b{fill:#07093b;}.c{fill:#aa01dd;}.c,.d{opacity:0.1;}.d{fill:#0320ff;}.e{fill:#03e2ff;opacity:0.07;}.f{fill:url(#a);}.g{fill:url(#b);}.h{fill:url(#c);}.i{fill:url(#d);}.j{fill:url(#e);}.k{fill:url(#f);}.l{fill:#fff;}</style><linearGradient id="a" x1="0.072" y1="0.756" x2="0.922" y2="0.23" gradientUnits="objectBoundingBox"><stop offset="0" stop-color="#ffb61e"/><stop offset="1" stop-color="#d87513"/></linearGradient><linearGradient id="b" x1="0.072" y1="0.756" x2="0.96" y2="0.242" gradientUnits="objectBoundingBox"><stop offset="0" stop-color="#ff1e8f"/><stop offset="1" stop-color="#ff6262"/></linearGradient><linearGradient id="c" x1="0.072" y1="0.756" x2="0.96" y2="0.242" gradientUnits="objectBoundingBox"><stop offset="0" stop-color="#ff861e"/><stop offset="1" stop-color="#ff6c00"/></linearGradient><linearGradient id="d" x1="0.072" y1="0.756" x2="0.96" y2="0.242" gradientUnits="objectBoundingBox"><stop offset="0" stop-color="#491eff"/><stop offset="1" stop-color="#62b7ff"/></linearGradient><linearGradient id="e" x1="0.072" y1="0.756" x2="0.96" y2="0.242" gradientUnits="objectBoundingBox"><stop offset="0" stop-color="#77d589"/><stop offset="1" stop-color="#02b59a"/></linearGradient><linearGradient id="f" x1="0.072" y1="0.756" x2="2.06" y2="-0.283" gradientUnits="objectBoundingBox"><stop offset="0" stop-color="#861eff"/><stop offset="1" stop-color="#ff62cf"/></linearGradient><clipPath id="h"><rect width="3465" height="1945.826"/></clipPath></defs><g id="g" class="a"><rect class="b" width="3465" height="1899"/><circle class="c" cx="237.03" cy="237.03" r="237.03" transform="translate(632.456 629.693)"/><circle class="d" cx="164.944" cy="164.944" r="164.944" transform="translate(2274.561 991.347)"/><circle class="d" cx="129.511" cy="129.511" r="129.511" transform="translate(1771.177 307.137)"/><ellipse class="d" cx="199.154" cy="199.154" rx="199.154" ry="199.154" transform="translate(234.148 1321.234)"/><circle class="e" cx="86.748" cy="86.748" r="86.748" transform="translate(1558.583 1651.121)"/><circle class="e" cx="249.248" cy="249.248" r="249.248" transform="translate(3073.706 309.329) rotate(-59)"/><circle class="f" cx="305.451" cy="305.451" r="305.451" transform="translate(1236.027 1915.031) rotate(180)"/><circle class="g" cx="223.59" cy="223.59" r="223.59" transform="matrix(0.883, -0.469, 0.469, 0.883, 2076.232, 261.435)"/><ellipse class="h" cx="223.59" cy="223.59" rx="223.59" ry="223.59" transform="matrix(-0.454, -0.891, 0.891, -0.454, 2974.893, 1133.559)"/><ellipse class="i" cx="292.011" cy="292.011" rx="292.011" ry="292.011" transform="matrix(-0.259, -0.966, 0.966, -0.259, 2743.625, 1899.093)"/><ellipse class="j" cx="230.921" cy="230.921" rx="230.921" ry="230.921" transform="matrix(0.966, 0.259, -0.259, 0.966, 476.425, 267.696)"/><ellipse class="k" cx="149.06" cy="149.06" rx="149.06" ry="149.06" transform="translate(395.426 1331.009) rotate(180)"/><path class="l" d="M831.357,2111.213s692.991,307.067,1410.792,314.608,1518.77-142.121,2210.945-368.852c85.116,340.648,78.238,661.92,78.238,661.92H831.357Z" transform="translate(-911 -536.581)"/><circle class="e" cx="157.259" cy="157.259" r="157.259" transform="translate(-320.091 1454.629) rotate(-59)"/></g></svg>