<svg xmlns="http://www.w3.org/2000/svg" xmlns:xlink="http://www.w3.org/1999/xlink" viewBox="0 0 2160 1212.826"><defs><style>.a{clip-path:url(#h);}.b{fill:#07093b;}.c{fill:#18084c;}.d{fill:#fff;}.e{fill:#060b4f;}.f{filter:url(#e);}.g{filter:url(#c);}.h{filter:url(#a);}</style><filter id="a" x="30.833" y="776.838" width="2148.408" height="411.461" filterUnits="userSpaceOnUse"><feOffset dy="-3" input="SourceAlpha"/><feGaussianBlur stdDeviation="3" result="b"/><feFlood flood-opacity="0.161"/><feComposite operator="in" in2="b"/><feComposite in="SourceGraphic"/></filter><filter id="c" x="-88.643" y="903.726" width="2352.521" height="435.627" filterUnits="userSpaceOnUse"><feOffset dy="-3" input="SourceAlpha"/><feGaussianBlur stdDeviation="3" result="d"/><feFlood flood-opacity="0.161"/><feComposite operator="in" in2="d"/><feComposite in="SourceGraphic"/></filter><filter id="e" x="-91.57" y="-43.167" width="2356.681" height="494.124" filterUnits="userSpaceOnUse"><feOffset dy="3" input="SourceAlpha"/><feGaussianBlur stdDeviation="3" result="f"/><feFlood flood-opacity="0.161"/><feComposite operator="in" in2="f"/><feComposite in="SourceGraphic"/></filter><clipPath id="h"><rect width="2160" height="1212.826"/></clipPath></defs><g id="g" class="a"><rect class="b" width="2160" height="1173"/><g class="h" transform="matrix(1, 0, 0, 1, 0, 0)"><path class="c" d="M-1533.064,2367.285V2255.852s290.917-192.741,640.3-192.915,517,138.089,809.8,133.021,489.595-211.287,680.3-222.134c-.284,142.982,0,393.461,0,393.461Z" transform="translate(1572.9 -1184.99)"/></g><g class="g" transform="matrix(1, 0, 0, 1, 0, 0)"><path class="d" d="M831.357,2091.193s437.231,193.739,890.116,198.5,958.242-89.669,1394.958-232.721c53.7,214.926,49.363,417.627,49.363,417.627H831.357Z" transform="translate(-911 -1141.24)"/></g><g class="f" transform="matrix(1, 0, 0, 1, 0, 0)"><path class="e" d="M-2115.57,1241.049s230.839,316.861,889.391,117.147,733.821-91.106,872.631-31.2,422.486,320.558,576.658,181.815c-1.972-144.5,0-435.98,0-435.98H-2115.57Z" transform="translate(2033 -1110)"/></g></g></svg>