<svg xmlns="http://www.w3.org/2000/svg" xmlns:xlink="http://www.w3.org/1999/xlink" viewBox="0 0 1366 767"><defs><style>.a{clip-path:url(#h);}.b{fill:#07093b;}.c,.d{opacity:0.7;}.c{fill:url(#a);}.d{fill:url(#d);}.e{fill:#fff;}.f{filter:url(#e);}.g{filter:url(#b);}</style><linearGradient id="a" x1="0.168" y1="0.892" x2="1.131" y2="0.3" gradientUnits="objectBoundingBox"><stop offset="0" stop-color="#18084c"/><stop offset="1" stop-color="#2700a7"/></linearGradient><filter id="b" x="-43.372" y="473.39" width="1454.332" height="279.61" filterUnits="userSpaceOnUse"><feOffset dy="-3" input="SourceAlpha"/><feGaussianBlur stdDeviation="3" result="c"/><feFlood flood-opacity="0.161"/><feComposite operator="in" in2="c"/><feComposite in="SourceGraphic"/></filter><linearGradient id="d" x1="0.992" y1="0.5" x2="0.01" y2="0.04" gradientUnits="objectBoundingBox"><stop offset="0" stop-color="#060b4f"/><stop offset="1" stop-color="#121da3"/></linearGradient><filter id="e" x="-111.57" y="-43.167" width="1572.976" height="334.572" filterUnits="userSpaceOnUse"><feOffset dy="3" input="SourceAlpha"/><feGaussianBlur stdDeviation="3" result="f"/><feFlood flood-opacity="0.161"/><feComposite operator="in" in2="f"/><feComposite in="SourceGraphic"/></filter><clipPath id="h"><rect width="1366" height="767"/></clipPath></defs><g id="g" class="a"><rect class="b" width="1366" height="752"/><g class="g" transform="matrix(1, 0, 0, 1, 0, 0)"><path class="c" d="M-1533.064,2235.434v-74.092s196.138-128.152,431.7-128.268,348.562,91.815,545.974,88.445,330.087-140.484,458.661-147.7c-.192,95.068,0,261.61,0,261.61Z" transform="translate(1498.69 -1488.43)"/></g><g class="f" transform="matrix(1, 0, 0, 1, 0, 0)"><path class="d" d="M-2115.57,1184.679s153.484,210.679,591.351,77.891,487.913-60.576,580.207-20.743,280.909,213.137,383.417,120.888c-1.311-96.08,0-289.881,0-289.881H-2115.57Z" transform="translate(2013 -1110)"/></g><path class="e" d="M831.357,2079.188s283.864,125.781,577.891,128.87,622.12-58.216,905.65-151.09c34.865,139.537,32.048,271.136,32.048,271.136H831.357Z" transform="translate(-911 -1467.326)"/></g></svg>