<svg xmlns="http://www.w3.org/2000/svg" viewBox="0 0 1315.58 309.84"><defs><style>.cls-1{fill:#fafafa;}.cls-2{fill:#f62e2f;}.cls-3{fill:#fff;}.cls-4{fill:#1b1b1b;}</style></defs><title>Como-Ayudar</title><g id="Capa_2" data-name="Capa 2"><g id="Capa_1-2" data-name="Capa 1"><rect class="cls-1" x="309.84" width="1005.74" height="309.84"/><g id="Capa_2-2" data-name="Capa 2"><g id="Capa_1-2-2" data-name="Capa 1-2"><rect class="cls-2" width="309.84" height="309.84"/><path class="cls-3" d="M123.32,40.64a42.54,42.54,0,0,1,11.83,6.8l-6.93,8.23A28.42,28.42,0,0,0,109.4,49a23.83,23.83,0,0,0-19.08,8.63Q83,66.26,83,85.08q0,18.56,7.12,27.19t19.15,8.63a29.25,29.25,0,0,0,11.5-2,43.24,43.24,0,0,0,9.28-5.55l6.41,8.19a34.31,34.31,0,0,1-11.44,7.4,42,42,0,0,1-16,2.82,38.42,38.42,0,0,1-20.32-5.42,37.26,37.26,0,0,1-14.12-15.94q-5.17-10.52-5.16-25.29t5.23-25.22a36.73,36.73,0,0,1,34-21.43A42.74,42.74,0,0,1,123.32,40.64Z"/><path class="cls-3" d="M189.72,107.69l-6.79,22.48H169.86l29.14-90h16.2l29.15,90H230.63l-6.8-22.48Zm31.1-10.31-14-46.8-14.08,46.8Z"/><path class="cls-3" d="M136.59,271.42H124.3l-2.48-45.74q-.52-9.93-.52-22.09l.13-10.59L107,255.34H94.9L79.48,193q.4,5.49.4,17.91,0,10.19-.26,14.89L77.4,271.41H65.49l5.1-90H87.45l13.85,61,13.2-61h17Z"/><path class="cls-3" d="M188.41,181.37,207.11,215l18.95-33.59H239.9l-25.35,41.45,28.36,48.62H228.15l-21.33-39.62-21.56,39.6H171.42l27.7-48-25.48-42.08Z"/></g></g><path class="cls-4" d="M399.27,148.43q-.12,8.6-2.59,12.59t-9.72,9.6a31.37,31.37,0,0,0-7,7.65,16.75,16.75,0,0,0-2.59,9.11q0,5.49,3,8.66t8.5,3.17a11.34,11.34,0,0,0,7.56-2.62q3.11-2.62,3.29-7.8h17.25l.12.37q.12,11.64-7.77,17.83t-20.45,6.19q-13.78,0-21.52-6.89t-7.74-18.77a24.64,24.64,0,0,1,4.51-14.2,41.4,41.4,0,0,1,11.4-11.16,14.13,14.13,0,0,0,4.85-5.64,21.92,21.92,0,0,0,1.19-8.08Zm-17.86-25.24h17.92v15.3H381.41Z"/><path class="cls-4" d="M490.58,130.32H477.35l-1.83-11.83a18.56,18.56,0,0,0-6.61-4.14,26.39,26.39,0,0,0-9.42-1.52q-11.58,0-17.83,8.41t-6.25,21.94v3.11q0,13.53,6.22,22t17.56,8.47a28.91,28.91,0,0,0,9.6-1.52,16,16,0,0,0,6.74-4.14l1.83-11.83h13.23v17.56a38.16,38.16,0,0,1-13.68,9.91,45.47,45.47,0,0,1-18.62,3.69q-17.86,0-29.26-12.37t-11.4-31.76v-3q0-19.32,11.34-31.76t29.32-12.43a44.63,44.63,0,0,1,18.59,3.75,39.88,39.88,0,0,1,13.72,9.91Z"/><path class="cls-4" d="M499.18,155.56q0-14.75,8.26-24.17T530.26,122q14.63,0,22.89,9.39t8.26,24.2v1.28q0,14.87-8.26,24.23t-22.77,9.36q-14.69,0-23-9.36t-8.26-24.23Zm17.8,1.28q0,9,3.17,14.48t10.24,5.46q6.89,0,10.09-5.49t3.2-14.45v-1.28q0-8.78-3.23-14.33t-10.18-5.55q-6.95,0-10.12,5.55T517,155.56Zm14.75-59.37h18.84l.12.37-16.82,15.85H519.6Z"/><path class="cls-4" d="M567.08,133.92V123.19h26l.73,8.72a22.15,22.15,0,0,1,8-7.35A22.88,22.88,0,0,1,612.86,122a20.16,20.16,0,0,1,10.85,2.8,17.31,17.31,0,0,1,6.83,8.47,22.85,22.85,0,0,1,7.92-8.29,21.5,21.5,0,0,1,11.46-3q9.75,0,15.39,6.74T671,149.22v27.43l8.59,1.83v10.67H645.47V178.48l7.68-1.83V149.16q0-7.5-2.44-10.42t-7.25-2.93a12.43,12.43,0,0,0-6.55,1.68,12.22,12.22,0,0,0-4.42,4.66q0,1.16.06,2t.06,1.68v30.84l7.19,1.83v10.67H607.68V178.48l7.19-1.83V149.16q0-7.31-2.44-10.33t-7.31-3a13.8,13.8,0,0,0-6.31,1.37,12.09,12.09,0,0,0-4.48,3.87v35.6l7.68,1.83v10.67H568V178.48l8.59-1.83v-40.9Z"/><path class="cls-4" d="M684.67,155.56q0-14.75,8.26-24.17T715.76,122q14.63,0,22.89,9.39t8.26,24.2v1.28q0,14.87-8.26,24.23t-22.77,9.36q-14.69,0-23-9.36t-8.26-24.23Zm17.8,1.28q0,9,3.17,14.48t10.24,5.46q6.89,0,10.09-5.49t3.2-14.45v-1.28q0-8.78-3.23-14.33t-10.18-5.55q-6.95,0-10.12,5.55t-3.17,14.33Z"/><path class="cls-4" d="M783.91,178.48l6.34-.91,27-77.17h18.23l26.82,77.17,6.34.91v10.67H838.4V178.48l6.16-1.1-3.9-12.19H811.89L808,177.38l6.16,1.1v10.67H783.91Zm32.19-26.39h20.36l-10-31.27h-.37Z"/><path class="cls-4" d="M931.6,133.92l-6.16.92L901.19,199A35.44,35.44,0,0,1,893.54,211q-4.79,4.81-14.42,4.82a23.3,23.3,0,0,1-4.24-.37q-2-.37-4.66-1l2.07-13,1.77.24a12.25,12.25,0,0,0,1.58.12q4.45,0,6.83-2.16a14.29,14.29,0,0,0,3.66-5.39l2-5L867.23,134.9l-6.16-1V123.19h32.31v10.73L886,135.14l9,26.33.91,4.75.37.06,10.42-31.15-7.44-1.22V123.19H931.6Z"/><path class="cls-4" d="M983.36,180.8a21.42,21.42,0,0,1-18.47,9.63q-10.42,0-16.34-6.67T942.64,163V135.75l-7.25-1.83V123.19h25.05v39.93q0,7.19,2.41,10.33t7.16,3.14a17.79,17.79,0,0,0,7.29-1.37,12.7,12.7,0,0,0,5-3.93V135.75l-7.8-1.83V123.19h25.6v53.46l8,1.83v10.67H984.51Z"/><path class="cls-4" d="M1058,181.1a21.84,21.84,0,0,1-7.34,6.95,19.41,19.41,0,0,1-9.66,2.38q-12.19,0-18.93-8.9T1015.36,158v-1.28q0-15.6,6.77-25.18t19-9.57a18.26,18.26,0,0,1,8.9,2.16,21.77,21.77,0,0,1,6.95,6.13V106.61l-9.51-1.83V94.05h27.31v82.6l8.53,1.83v10.67h-24ZM1033.16,158q0,8.66,2.9,13.62t9.48,5a13.77,13.77,0,0,0,6.77-1.58,12.64,12.64,0,0,0,4.69-4.57v-28a13.56,13.56,0,0,0-4.66-4.91,12.52,12.52,0,0,0-6.67-1.74,10,10,0,0,0-9.51,5.79q-3,5.79-3,15.12Z"/><path class="cls-4" d="M1131,189.15a32.4,32.4,0,0,1-1.28-3.38,26.75,26.75,0,0,1-.85-3.5,24.49,24.49,0,0,1-7.71,5.91,23.07,23.07,0,0,1-10.39,2.26q-9.69,0-15.39-5.27t-5.7-14.35a16.32,16.32,0,0,1,7.44-14.33q7.44-5.06,21.82-5.06H1128V145a9.72,9.72,0,0,0-2.74-7.37q-2.74-2.62-8.11-2.62a19.22,19.22,0,0,0-5.43.7,14.22,14.22,0,0,0-3.84,1.68l-1.16,7.07h-13.41l.06-14.63a50,50,0,0,1,11.19-5.55,40.57,40.57,0,0,1,13.75-2.26q12.25,0,19.9,6t7.65,17.1v27.25q0,1.52,0,2.87a20.17,20.17,0,0,0,.21,2.56l5.42.73v10.67Zm-15.42-11.89a15.43,15.43,0,0,0,7.31-1.74,14.12,14.12,0,0,0,5.12-4.36V161.11h-9.08q-5.67,0-8.6,2.65a8.3,8.3,0,0,0-2.93,6.37,6.59,6.59,0,0,0,2.16,5.24A8.83,8.83,0,0,0,1115.57,177.26Z"/><path class="cls-4" d="M1158.91,178.48l8.53-1.83v-40.9l-9.45-1.83V123.19h26l.79,9.63a20.76,20.76,0,0,1,6-8,13.35,13.35,0,0,1,8.47-2.87,21.72,21.72,0,0,1,3,.21,18.2,18.2,0,0,1,2.59.52l-1.89,16.21-7.31-.18a12.47,12.47,0,0,0-6.46,1.52,9.85,9.85,0,0,0-3.9,4.33v32.06l8.53,1.83v10.67h-34.87Z"/><path class="cls-4" d="M1226.15,163.91q.06-8.53,2.53-12.5t9.84-9.63a32.16,32.16,0,0,0,6.92-7.62A16.71,16.71,0,0,0,1248,125q0-5.61-3-8.78t-8.44-3.17a11.38,11.38,0,0,0-7.65,2.68q-3.14,2.68-3.2,7.86h-17.31l-.12-.37q-.18-11.7,7.71-17.92t20.57-6.22q13.65,0,21.43,6.92t7.77,18.81a24.72,24.72,0,0,1-4.54,14.33,40.58,40.58,0,0,1-11.37,11A14.51,14.51,0,0,0,1245,156a22,22,0,0,0-1.16,8ZM1244,189.15h-17.92V173.91H1244Z"/></g></g></svg>