<svg xmlns="http://www.w3.org/2000/svg" xmlns:xlink="http://www.w3.org/1999/xlink" viewBox="-10410 -2057 500 500">
  <defs>
    <style>
      .cls-1 {
        clip-path: url(#clip-Development);
      }

      .cls-2 {
        fill: #eee;
      }

      .cls-3 {
        fill: #333e48;
      }

      .cls-4 {
        fill: #283139;
      }

      .cls-5 {
        fill: #fff;
      }

      .cls-6 {
        fill: #ff5959;
      }

      .cls-7 {
        fill: #ffb61e;
      }

      .cls-8 {
        fill: #2ecc71;
      }

      .cls-9 {
        fill: #dee3ed;
      }

      .cls-10 {
        fill: #0071ce;
      }
    </style>
    <clipPath id="clip-Development">
      <rect x="-10410" y="-2057" width="500" height="500"/>
    </clipPath>
  </defs>
  <g id="Development" class="cls-1">
    <rect class="cls-5" x="-10410" y="-2057" width="500" height="500"/>
    <g id="Development-2" data-name="Development" transform="translate(-10378.183 -1971.499)">
      <g id="Capa_1" data-name="Capa 1" transform="translate(-89.573 -105.951)">
        <ellipse id="Ellipse_348" data-name="Ellipse 348" class="cls-2" cx="256.57" cy="191.246" rx="256.57" ry="191.246" transform="matrix(0.934, -0.358, 0.358, 0.934, 0, 183.642)"/>
        <path id="Path_7633" data-name="Path 7633" class="cls-3" d="M279.493,132.62H95.179a7.1,7.1,0,0,0-7.089,7.089V380.735a7.1,7.1,0,0,0,7.089,7.089H279.487V132.62Z" transform="translate(28.526 23.975)"/>
        <path id="Path_7616" data-name="Path 7616" class="cls-4" d="M454.366,74.62H95.419A20.716,20.716,0,0,0,74.71,95.329h0V357.642a20.716,20.716,0,0,0,20.709,20.709H454.366a20.709,20.709,0,0,0,20.709-20.709h0V95.329A20.709,20.709,0,0,0,454.366,74.62ZM419.853,88.4h6.905a6.905,6.905,0,0,1,.131,13.784h-7.036a6.905,6.905,0,1,1-.131-13.784Zm-193.281,0H392.245a6.905,6.905,0,1,1,.125,13.784h-165.8a6.905,6.905,0,0,1-.131-13.784Zm-34.513,0h6.9a6.905,6.905,0,0,1,0,13.784h-6.9a6.905,6.905,0,0,1,0-13.784Zm-27.608,0h6.9a6.905,6.905,0,1,1,.131,13.784h-7.03A6.905,6.905,0,1,1,164.32,88.4Zm-27.614,0a6.905,6.905,0,1,1-6.905,6.905h0a6.905,6.905,0,0,1,6.905-6.879Zm-20.709,0a6.905,6.905,0,1,1-6.905,6.905h0a6.905,6.905,0,0,1,6.905-6.9Zm-20.709,0a6.905,6.905,0,1,1-6.905,6.905h0a6.905,6.905,0,0,1,6.905-6.9Zm365.852,69.052v200.2a6.905,6.905,0,0,1-6.905,6.9H95.419a6.905,6.905,0,0,1-6.905-6.912v-234.7a6.905,6.905,0,0,1,6.905-6.905H454.366a6.905,6.905,0,0,1,6.905,6.905Zm-6.905-55.222h-6.9a6.905,6.905,0,1,1-.131-13.784h7.03a6.905,6.905,0,1,1,.131,13.784Z" transform="translate(33.124 43.905)"/>
        <path id="Path_7617" data-name="Path 7617" class="cls-5" d="M379.69,407.9H559.16a6.905,6.905,0,0,0,6.905-6.9V200.8H379.69ZM483.229,235.326v-6.9a6.905,6.905,0,0,1,6.938-6.905h48.317a6.905,6.905,0,0,1,6.905,6.905v62.121a6.905,6.905,0,0,1-6.905,6.905H490.167a6.905,6.905,0,0,1-6.905-6.905Zm-82.83,0v-6.9a6.905,6.905,0,0,1,6.9-6.905h48.323a6.9,6.9,0,0,1,6.9,6.905v62.121a6.9,6.9,0,0,1-6.9,6.905H407.3a6.912,6.912,0,0,1-6.905-6.905V235.326Zm6.9,82.836H538.451a6.905,6.905,0,0,1,6.905,6.905V380.29a6.905,6.905,0,0,1-6.905,6.905H407.3a6.9,6.9,0,0,1-6.9-6.905V325.068A6.9,6.9,0,0,1,407.3,318.162Z" transform="translate(-71.67 0.548)"/>
        <circle id="Ellipse_319" data-name="Ellipse 319" class="cls-6" cx="6.905" cy="6.905" r="6.905" transform="translate(121.638 132.329)"/>
        <circle id="Ellipse_320" data-name="Ellipse 320" class="cls-7" cx="6.905" cy="6.905" r="6.905" transform="translate(142.347 132.329)"/>
        <circle id="Ellipse_321" data-name="Ellipse 321" class="cls-8" cx="6.905" cy="6.905" r="6.905" transform="translate(163.056 132.329)"/>
        <path id="Union_21" data-name="Union 21" class="cls-5" d="M491.05,109.467a6.905,6.905,0,1,1,0-13.784h6.9a6.905,6.905,0,1,1,0,13.784Zm-27.614,0a6.905,6.905,0,1,1,0-13.784h6.905a6.905,6.905,0,0,1,0,13.784Zm-193.281,0a6.905,6.905,0,0,1,0-13.784H435.828a6.905,6.905,0,0,1,0,13.784Zm-34.513,0a6.912,6.912,0,0,1,0-13.784h6.9a6.905,6.905,0,0,1,0,13.784Zm-27.614,0a6.905,6.905,0,0,1,0-13.784h6.905a6.905,6.905,0,1,1,0,13.784Z" transform="translate(-10.459 36.672)"/>
        <path id="Path_7623" data-name="Path 7623" class="cls-7" d="M559.16,137.72H379.69v41.418H566.065V144.625a6.905,6.905,0,0,0-6.905-6.905Z" transform="translate(-71.67 22.223)"/>
        <path id="Union_17" data-name="Union 17" class="cls-4" d="M523.417,172.567a6.905,6.905,0,0,1,0-13.784h27.614a6.905,6.905,0,1,1,0,13.784Zm-55.222,0a6.905,6.905,0,1,1,0-13.784H495.8a6.905,6.905,0,1,1,0,13.784Zm-55.222,0a6.905,6.905,0,1,1,0-13.784h27.614a6.905,6.905,0,0,1,0,13.784Z" transform="translate(-80.588 14.99)"/>
        <g id="Group_2935" data-name="Group 2935" transform="translate(328.722 235.874)">
          <path id="Path_7627" data-name="Path 7627" class="cls-9" d="M418.135,315.527h48.323a6.905,6.905,0,0,0,6.9-6.905V253.4a6.905,6.905,0,0,1-6.9,6.905H418.135a6.905,6.905,0,0,1-6.905-6.905v55.222A6.912,6.912,0,0,0,418.135,315.527Z" transform="translate(-411.23 -253.4)"/>
          <path id="Path_7628" data-name="Path 7628" class="cls-9" d="M544.385,315.527H592.7a6.905,6.905,0,0,0,6.905-6.905V253.4a6.905,6.905,0,0,1-6.905,6.905H544.385a6.905,6.905,0,0,1-6.905-6.905v55.222A6.905,6.905,0,0,0,544.385,315.527Z" transform="translate(-454.611 -253.4)"/>
        </g>
        <path id="Path_7629" data-name="Path 7629" class="cls-6" d="M418.135,253.079h48.323a6.905,6.905,0,0,0,6.9-6.905v-6.9a6.905,6.905,0,0,0-6.9-6.905H418.135a6.912,6.912,0,0,0-6.905,6.905v6.9A6.912,6.912,0,0,0,418.135,253.079Z" transform="translate(-82.508 -10.3)"/>
        <path id="Path_7630" data-name="Path 7630" class="cls-10" d="M544.385,253.079H592.7a6.905,6.905,0,0,0,6.905-6.905v-6.9a6.905,6.905,0,0,0-6.905-6.905H544.385a6.905,6.905,0,0,0-6.905,6.905v6.9A6.905,6.905,0,0,0,544.385,253.079Z" transform="translate(-125.889 -10.3)"/>
        <path id="Path_7631" data-name="Path 7631" class="cls-9" d="M439.175,386.505v55.222a6.905,6.905,0,0,1-6.905,6.905H556.518a6.905,6.905,0,0,0,6.905-6.905V386.505a6.905,6.905,0,0,0-6.905-6.905H432.27A6.905,6.905,0,0,1,439.175,386.505Z" transform="translate(-89.737 -60.89)"/>
        <path id="Path_7632" data-name="Path 7632" class="cls-8" d="M418.135,448.626h6.905a6.905,6.905,0,0,0,6.905-6.9V386.505a6.905,6.905,0,0,0-6.905-6.905h-6.905a6.912,6.912,0,0,0-6.905,6.905v55.222A6.905,6.905,0,0,0,418.135,448.626Z" transform="translate(-82.508 -60.89)"/>
        <path id="Union_18" data-name="Union 18" class="cls-7" d="M176.478,376.368a6.905,6.905,0,0,1,0-13.784H286.929a6.905,6.905,0,0,1,0,13.784Zm0-110.444a6.905,6.905,0,0,1,0-13.784H286.929a6.905,6.905,0,0,1,0,13.784Zm0-82.83a6.905,6.905,0,0,1,0-13.784H286.929a6.905,6.905,0,0,1,0,13.784Z" transform="translate(0.382 11.368)"/>
        <path id="Union_20" data-name="Union 20" class="cls-8" d="M197.072,363.206a6.905,6.905,0,0,1,0-13.784h20.709a6.905,6.905,0,0,1,0,13.784Zm0-27.614a6.905,6.905,0,1,1,0-13.784h20.709a6.905,6.905,0,1,1,0,13.784Zm0-82.83a6.905,6.905,0,0,1,0-13.784h20.709a6.905,6.905,0,0,1,0,13.784Zm0-27.614a6.905,6.905,0,0,1,0-13.784h20.709a6.905,6.905,0,1,1,0,13.784Z" transform="translate(-6.402 -3.077)"/>
        <g id="Group_2937" data-name="Group 2937" transform="translate(170.316 208.266)">
          <path id="Path_7638" data-name="Path 7638" class="cls-5" d="M286.9,337.53H176.451a6.905,6.905,0,0,0-.131,13.784H286.9a6.905,6.905,0,0,0,0-13.784Z" transform="translate(-169.9 -254.7)"/>
          <path id="Path_7639" data-name="Path 7639" class="cls-5" d="M319.414,211.34H271.091a6.905,6.905,0,0,0-.131,13.784h48.455a6.905,6.905,0,0,0,0-13.784Z" transform="translate(-202.42 -211.34)"/>
          <path id="Path_7640" data-name="Path 7640" class="cls-5" d="M319.414,253.4H271.091a6.905,6.905,0,0,0-.131,13.784h48.455a6.905,6.905,0,0,0,0-13.784Z" transform="translate(-202.42 -225.792)"/>
          <path id="Path_7641" data-name="Path 7641" class="cls-5" d="M319.414,379.6H271.091a6.905,6.905,0,0,0-.131,13.784h48.455a6.905,6.905,0,0,0,0-13.784Z" transform="translate(-202.42 -269.156)"/>
          <path id="Path_7642" data-name="Path 7642" class="cls-5" d="M319.414,421.66H271.091a6.905,6.905,0,0,0-.131,13.784h48.455a6.905,6.905,0,0,0,.131-13.784Z" transform="translate(-202.42 -283.608)"/>
        </g>
        <path id="Union_19" data-name="Union 19" class="cls-6" d="M123.9,376.361a6.905,6.905,0,0,1,0-13.784H130.8a6.905,6.905,0,1,1,0,13.784Zm13.784-27.608a6.905,6.905,0,0,1,0-13.784h6.9a6.905,6.905,0,1,1,0,13.784Zm0-27.614a6.905,6.905,0,1,1,0-13.784h6.9a6.905,6.905,0,1,1,0,13.784ZM123.9,293.531a6.905,6.905,0,0,1,0-13.784H130.8a6.905,6.905,0,0,1,0,13.784Zm0-27.614a6.905,6.905,0,0,1,0-13.784H130.8a6.905,6.905,0,1,1,0,13.784Zm13.784-27.608a6.905,6.905,0,0,1,0-13.784h6.9a6.905,6.905,0,1,1,0,13.784Zm0-27.614a6.905,6.905,0,1,1,0-13.784h6.9a6.905,6.905,0,1,1,0,13.784ZM123.9,183.087a6.905,6.905,0,0,1,0-13.784H130.8a6.905,6.905,0,1,1,0,13.784Z" transform="translate(18.449 11.375)"/>
      </g>
    </g>
  </g>
</svg>
