<svg xmlns="http://www.w3.org/2000/svg" xmlns:xlink="http://www.w3.org/1999/xlink" viewBox="-10980 -2057 500 500">
  <defs>
    <style>
      .cls-1 {
        clip-path: url(#clip-Working);
      }

      .cls-2 {
        fill: #eee;
      }

      .cls-3 {
        fill: #d70c3f;
      }

      .cls-4 {
        fill: #b4183f;
      }

      .cls-5 {
        fill: #e07c4e;
      }

      .cls-6 {
        fill: #ebb48b;
      }

      .cls-7 {
        fill: #381210;
      }

      .cls-26, .cls-8 {
        fill: #1b1b1b;
      }

      .cls-9 {
        fill: #751f45;
      }

      .cls-10 {
        fill: #e6e6e6;
      }

      .cls-11 {
        fill: #db958f;
      }

      .cls-12 {
        fill: #d6d6d6;
      }

      .cls-13 {
        fill: #e3e3e2;
      }

      .cls-14 {
        fill: #ffb61e;
      }

      .cls-15 {
        fill: #f2a51d;
      }

      .cls-16 {
        fill: #fafafa;
      }

      .cls-17 {
        fill: #40484c;
      }

      .cls-18 {
        fill: #283139;
      }

      .cls-19 {
        fill: #333e48;
      }

      .cls-20 {
        fill: #fff;
      }

      .cls-21 {
        fill: #97bf1f;
      }

      .cls-22 {
        fill: #57b05e;
      }

      .cls-23 {
        opacity: 0.2;
      }

      .cls-24, .cls-26 {
        opacity: 0.1;
      }

      .cls-25 {
        opacity: 0.3;
      }

      .cls-27 {
        fill: #9ad3ef;
      }

      .cls-28 {
        fill: #dae7f0;
      }

      .cls-29 {
        fill: #a15f58;
      }

      .cls-30 {
        fill: #e6332a;
      }

      .cls-31 {
        fill: #29235c;
      }

      .cls-32 {
        fill: #2d2e83;
      }

      .cls-33 {
        fill: #3071b8;
      }

      .cls-34 {
        fill: #1b5582;
      }

      .cls-35 {
        fill: #ffdb83;
      }

      .cls-36 {
        fill: #818f99;
      }

      .cls-37 {
        fill: #b7c7d6;
      }

      .cls-38 {
        fill: #683c11;
      }

      .cls-39 {
        fill: #7d4e24;
      }

      .cls-40 {
        fill: #70797f;
      }
    </style>
    <clipPath id="clip-Working">
      <rect x="-10980" y="-2057" width="500" height="500"/>
    </clipPath>
  </defs>
  <g id="Working" class="cls-1">
    <rect class="cls-20" x="-10980" y="-2057" width="500" height="500"/>
    <g id="Working-2" data-name="Working" transform="translate(-10979.484 -2002.382)">
      <g id="Capa_1" data-name="Capa 1" transform="translate(-0.01 0)">
        <path id="Path_7792" data-name="Path 7792" class="cls-2" d="M498.722,245.906c-8.962,46.226-85.274,39.483-164.165,6.6s-83.119,140.82-164.67,157.981S-37.638,320,10.731,227.424c46.983-89.855,123.26-19.85,183.452-3.653,59.04,15.857,117.364-50.154,166.156-99.434A44.434,44.434,0,0,1,372,115.757C429.146,87.209,508.083,201.63,498.722,245.906Z" transform="translate(0.01 -45.911)"/>
        <path id="Path_7793" data-name="Path 7793" class="cls-2" d="M376.085,191.765c-13.337,20.825-40.206,27.426-60.009,14.747s-25.048-39.848-11.711-60.673,40.2-27.45,60.009-14.747S389.423,170.94,376.085,191.765Z" transform="translate(-122.564 -51.439)"/>
        <path id="Path_7794" data-name="Path 7794" class="cls-3" d="M591.686,315.373v61.941H516.46V315.373a37.587,37.587,0,0,1,63.915-26.886c.1.1.2.188.294.288a37.5,37.5,0,0,1,11.018,26.6Z" transform="translate(-213.143 -114.62)"/>
        <circle id="Ellipse_350" data-name="Ellipse 350" class="cls-4" cx="27.532" cy="27.532" r="27.532" transform="translate(313.395 138.547)"/>
        <path id="Path_7795" data-name="Path 7795" class="cls-5" d="M582.974,248.852v28.307a10.172,10.172,0,1,1-20.344,0V248.852a10.172,10.172,0,1,1,20.344,0Z" transform="translate(-232.198 -98.506)"/>
        <circle id="Ellipse_351" data-name="Ellipse 351" class="cls-6" cx="14.212" cy="14.212" r="14.212" transform="translate(361.917 99.187)"/>
        <circle id="Ellipse_352" data-name="Ellipse 352" class="cls-5" cx="8.745" cy="8.745" r="8.745" transform="translate(367.385 104.655)"/>
        <circle id="Ellipse_353" data-name="Ellipse 353" class="cls-6" cx="14.212" cy="14.212" r="14.212" transform="translate(290.861 99.187)"/>
        <circle id="Ellipse_354" data-name="Ellipse 354" class="cls-5" cx="8.745" cy="8.745" r="8.745" transform="translate(296.329 104.655)"/>
        <circle id="Ellipse_355" data-name="Ellipse 355" class="cls-7" cx="48.645" cy="48.645" r="48.645" transform="translate(291.959 31.96)"/>
        <path id="Path_7796" data-name="Path 7796" class="cls-6" d="M590.5,93.661v60.673a35.531,35.531,0,1,1-71.062,0V93.661a35.531,35.531,0,1,1,71.062,0Z" transform="translate(-214.373 -23.991)"/>
        <circle id="Ellipse_356" data-name="Ellipse 356" class="cls-7" cx="30.61" cy="30.61" r="30.61" transform="translate(322.563 14.465)"/>
        <circle id="Ellipse_357" data-name="Ellipse 357" class="cls-7" cx="25.418" cy="25.418" r="25.418" transform="translate(294.138 30.862)"/>
        <path id="Path_7797" data-name="Path 7797" class="cls-8" d="M586.293,237.013A19.287,19.287,0,0,1,548.56,231.4a19.524,19.524,0,0,1,.587-4.8Z" transform="translate(-226.391 -93.52)"/>
        <path id="Path_7798" data-name="Path 7798" class="cls-3" d="M582.433,253.609a19.287,19.287,0,0,1-28.683-4.317,19.3,19.3,0,0,1,28.683,4.317Z" transform="translate(-228.533 -101.007)"/>
        <circle id="Ellipse_358" data-name="Ellipse 358" class="cls-8" cx="6.014" cy="6.014" r="6.014" transform="translate(317.095 86.613)"/>
        <circle id="Ellipse_359" data-name="Ellipse 359" class="cls-8" cx="6.014" cy="6.014" r="6.014" transform="translate(352.08 86.613)"/>
        <path id="Path_7799" data-name="Path 7799" class="cls-5" d="M582.373,179.589v11.2a8.222,8.222,0,1,1-16.391,0v-11.2a8.222,8.222,0,0,1,16.4,0Z" transform="translate(-233.57 -70.981)"/>
        <path id="Path_7800" data-name="Path 7800" class="cls-8" d="M591.6,446.8v2.285a37.616,37.616,0,1,1-75.232,0V446.8Z" transform="translate(-213.106 -184.399)"/>
        <rect id="Rectangle_731" data-name="Rectangle 731" class="cls-8" width="18.036" height="126.079" transform="translate(313.489 262.947)"/>
        <rect id="Rectangle_732" data-name="Rectangle 732" class="cls-8" width="18.036" height="126.079" transform="translate(349.56 262.947)"/>
        <rect id="Rectangle_733" data-name="Rectangle 733" class="cls-4" width="18.37" height="64.408" rx="9.185" transform="matrix(0.851, -0.526, 0.526, 0.851, 362.827, 181.22)"/>
        <path id="Path_7801" data-name="Path 7801" class="cls-4" d="M667.741,385.86l-23.022,9.273L637.86,378.1l23.028-9.267a9.185,9.185,0,0,1,6.854,17.031Z" transform="translate(-263.246 -151.995)"/>
        <path id="Path_7802" data-name="Path 7802" class="cls-6" d="M626.64,402.031l-19.7,7.917a9.185,9.185,0,1,1-6.86-17.031L619.78,385Z" transform="translate(-245.166 -158.894)"/>
        <rect id="Rectangle_734" data-name="Rectangle 734" class="cls-4" width="18.37" height="64.408" rx="9.185" transform="matrix(-0.851, -0.526, 0.526, -0.851, 285.226, 236.026)"/>
        <path id="Path_7803" data-name="Path 7803" class="cls-4" d="M468.467,385.839l23.028,9.273,6.854-17.031L475.326,368.8a9.185,9.185,0,0,0-6.86,17.031Z" transform="translate(-191.073 -151.974)"/>
        <path id="Path_7804" data-name="Path 7804" class="cls-6" d="M511.53,402.031l19.686,7.923a9.185,9.185,0,1,0,6.854-17.031L518.384,385Z" transform="translate(-211.108 -158.894)"/>
        <rect id="Rectangle_735" data-name="Rectangle 735" class="cls-9" width="10.888" height="16.074" rx="5.444" transform="translate(312.813 366.91) rotate(25.69)"/>
        <path id="Path_7805" data-name="Path 7805" class="cls-4" d="M522.22,651.567c0-8.222,6.037-14.847,13.508-14.847s13.508,6.648,13.508,14.847Z" transform="translate(-215.52 -262.781)"/>
        <path id="Path_7806" data-name="Path 7806" class="cls-3" d="M535.752,653.779h-5.744c0-5.708-5.333-10.465-12.368-11.493a20.02,20.02,0,0,1,2.884-.206C528.928,642.033,535.752,647.318,535.752,653.779Z" transform="translate(-213.63 -264.993)"/>
        <path id="Path_7807" data-name="Path 7807" class="cls-2" d="M521.329,653.923H496.61c0-4.9,3.929-9.1,9.5-10.841a19.833,19.833,0,0,1,2.854-.652C516,643.434,521.329,648.191,521.329,653.923Z" transform="translate(-204.95 -265.138)"/>
        <rect id="Rectangle_736" data-name="Rectangle 736" class="cls-10" width="42.003" height="2.678" transform="translate(333.668 391.434) rotate(180)"/>
        <rect id="Rectangle_737" data-name="Rectangle 737" class="cls-9" width="10.888" height="16.074" rx="5.444" transform="translate(375.195 381.383) rotate(154.31)"/>
        <path id="Path_7808" data-name="Path 7808" class="cls-4" d="M618.4,651.567c0-8.222-6.037-14.847-13.508-14.847s-13.455,6.625-13.455,14.847Z" transform="translate(-244.088 -262.781)"/>
        <path id="Path_7809" data-name="Path 7809" class="cls-3" d="M611.09,653.746h5.744c0-5.708,5.333-10.466,12.368-11.493a20.016,20.016,0,0,0-2.9-.252C617.914,642,611.09,647.286,611.09,653.746Z" transform="translate(-252.198 -264.96)"/>
        <path id="Path_7810" data-name="Path 7810" class="cls-2" d="M620.87,653.923h24.742c0-4.9-3.929-9.1-9.5-10.841a19.825,19.825,0,0,0-2.854-.652C626.232,643.434,620.87,648.191,620.87,653.923Z" transform="translate(-256.234 -265.138)"/>
        <rect id="Rectangle_738" data-name="Rectangle 738" class="cls-10" width="42.003" height="2.678" transform="translate(347.352 388.762)"/>
        <path id="Path_7811" data-name="Path 7811" class="cls-4" d="M586.018,414.7h-23.1a1.452,1.452,0,0,1-.317-.029,1.387,1.387,0,0,1-.317.029H539.228a2.05,2.05,0,0,1-1.926-2.754l8.751-23.956a2.049,2.049,0,0,1,1.926-1.345h14.348a1.834,1.834,0,0,1,.317,0,1.923,1.923,0,0,1,.317,0h14.33a2.044,2.044,0,0,1,1.92,1.345l8.756,23.956a2.05,2.05,0,0,1-1.95,2.754Z" transform="translate(-221.693 -159.57)"/>
        <path id="Path_7812" data-name="Path 7812" class="cls-8" d="M404.957,424v2.455a40.416,40.416,0,1,1-80.832,0l0-2.455Z" transform="translate(-133.764 -174.989)"/>
        <rect id="Rectangle_739" data-name="Rectangle 739" class="cls-6" width="19.381" height="24.772" transform="translate(201.346 361.077)"/>
        <rect id="Rectangle_740" data-name="Rectangle 740" class="cls-8" width="19.381" height="111.479" transform="translate(201.346 249.598)"/>
        <rect id="Rectangle_741" data-name="Rectangle 741" class="cls-6" width="19.381" height="24.772" transform="translate(240.107 361.077)"/>
        <rect id="Rectangle_742" data-name="Rectangle 742" class="cls-8" width="19.381" height="111.479" transform="translate(240.107 249.598)"/>
        <rect id="Rectangle_743" data-name="Rectangle 743" class="cls-11" width="11.699" height="17.272" rx="5.849" transform="translate(267.738 380.716) rotate(154.31)"/>
        <path id="Path_7813" data-name="Path 7813" class="cls-12" d="M433.907,650.535c0-8.809-6.46-15.945-14.488-15.945s-14.488,7.141-14.488,15.945Z" transform="translate(-167.113 -261.902)"/>
        <path id="Path_7814" data-name="Path 7814" class="cls-13" d="M426.05,652.908h32.73c0-5.286-4.223-9.778-10.2-11.646a20.5,20.5,0,0,0-6.161-.922C433.379,640.34,426.05,645.972,426.05,652.908Z" transform="translate(-175.83 -264.275)"/>
        <rect id="Rectangle_744" data-name="Rectangle 744" class="cls-2" width="45.133" height="2.878" transform="translate(237.817 388.633)"/>
        <rect id="Rectangle_745" data-name="Rectangle 745" class="cls-11" width="11.699" height="17.272" rx="5.849" transform="translate(200.641 365.157) rotate(25.69)"/>
        <path id="Path_7815" data-name="Path 7815" class="cls-12" d="M330.44,650.535c0-8.809,6.49-15.945,14.488-15.945s14.488,7.141,14.488,15.945Z" transform="translate(-136.37 -261.902)"/>
        <path id="Path_7816" data-name="Path 7816" class="cls-13" d="M335.664,652.908H302.94c0-5.286,4.217-9.778,10.2-11.646a20.5,20.5,0,0,1,6.161-.922C328.334,640.34,335.664,645.972,335.664,652.908Z" transform="translate(-125.021 -264.275)"/>
        <rect id="Rectangle_746" data-name="Rectangle 746" class="cls-2" width="45.133" height="2.878" transform="translate(223.047 391.511) rotate(180)"/>
        <path id="Path_7817" data-name="Path 7817" class="cls-14" d="M404.959,282.264v66.557H324.13V282.264a40.411,40.411,0,0,1,68.678-28.889l.317.311A40.294,40.294,0,0,1,404.959,282.264Z" transform="translate(-133.766 -99.811)"/>
        <circle id="Ellipse_360" data-name="Ellipse 360" class="cls-15" cx="29.582" cy="29.582" r="29.582" transform="translate(201.199 115.62)"/>
        <path id="Path_7818" data-name="Path 7818" class="cls-15" d="M398.871,390.992h-24.8a2.155,2.155,0,0,1-.341-.029,2.1,2.1,0,0,1-.341.029H348.6a2.2,2.2,0,0,1-2.067-2.936l9.4-25.741A2.2,2.2,0,0,1,358,360.87h15.393a1.6,1.6,0,0,1,.341.029,1.635,1.635,0,0,1,.341-.029h15.4a2.2,2.2,0,0,1,2.067,1.445l9.4,25.741a2.208,2.208,0,0,1-2.061,2.936Z" transform="translate(-142.959 -148.935)"/>
        <path id="Path_7819" data-name="Path 7819" class="cls-15" d="M315.086,283.013l-28.137,44.528a9.872,9.872,0,0,1-13.619,3.072l-.775-.487a9.878,9.878,0,0,1-3.071-13.637l28.143-44.54a9.867,9.867,0,0,1,13.613-3.03l.775.493A9.866,9.866,0,0,1,315.086,283.013Z" transform="translate(-110.58 -110.35)"/>
        <path id="Path_7820" data-name="Path 7820" class="cls-15" d="M255.181,354.468,231.83,339.2l11.311-17.278,23.351,15.27a10.326,10.326,0,1,1-11.311,17.278Z" transform="translate(-95.673 -132.86)"/>
        <path id="Path_7821" data-name="Path 7821" class="cls-6" d="M214.515,328.8l-19.968-13.067a10.326,10.326,0,0,1,11.311-17.278l19.968,13.067Z" transform="translate(-78.358 -122.479)"/>
        <circle id="Ellipse_361" data-name="Ellipse 361" class="cls-6" cx="16.168" cy="16.168" r="16.168" transform="translate(255.025 72.125)"/>
        <circle id="Ellipse_362" data-name="Ellipse 362" class="cls-5" cx="9.949" cy="9.949" r="9.949" transform="translate(261.244 78.344)"/>
        <circle id="Ellipse_363" data-name="Ellipse 363" class="cls-6" cx="16.168" cy="16.168" r="16.168" transform="translate(174.196 72.125)"/>
        <circle id="Ellipse_364" data-name="Ellipse 364" class="cls-5" cx="9.949" cy="9.949" r="9.949" transform="translate(180.415 78.344)"/>
        <path id="Path_7822" data-name="Path 7822" class="cls-5" d="M398.727,167.529V214.77a16.979,16.979,0,1,1-33.957,0V167.529a16.979,16.979,0,0,1,33.957,0Z" transform="translate(-150.539 -62.134)"/>
        <path id="Path_7823" data-name="Path 7823" class="cls-7" d="M407.92,55.334c0,30.539-22.552,55.34-50.36,55.34-25.712,0-46.919-21.142-49.984-48.5a.443.443,0,0,1,0-.088,59.427,59.427,0,0,1-.376-6.748A58.152,58.152,0,0,1,321,17.3c.435-.5.875-.993,1.321-1.474a49.274,49.274,0,0,1,22.622-14.06A45.727,45.727,0,0,1,356.415,0h1.826c19.762.276,36.788,13.067,44.8,31.49q.693,1.6,1.3,3.259a59.739,59.739,0,0,1,3.577,20.584Z" transform="translate(-126.779 0)"/>
        <path id="Path_7824" data-name="Path 7824" class="cls-6" d="M404.957,58.417v54.724a40.416,40.416,0,1,1-80.832,0l0-54.724a40.416,40.416,0,1,1,80.832,0Z" transform="translate(-133.764 -7.429)"/>
        <circle id="Ellipse_365" data-name="Ellipse 365" class="cls-8" cx="6.842" cy="6.842" r="6.842" transform="translate(204.042 62.176)"/>
        <circle id="Ellipse_366" data-name="Ellipse 366" class="cls-8" cx="6.842" cy="6.842" r="6.842" transform="translate(243.837 62.176)"/>
        <path id="Path_7825" data-name="Path 7825" class="cls-5" d="M395.722,138.736v12.75a9.326,9.326,0,1,1-18.652,0v-12.75a9.326,9.326,0,1,1,18.652,0Z" transform="translate(-155.615 -53.409)"/>
        <path id="Path_7826" data-name="Path 7826" class="cls-7" d="M414,34.756a59.234,59.234,0,0,1-33.076,10.013,59.475,59.475,0,0,1-23.351-4.739A59.9,59.9,0,0,1,330.68,17.3c.435-.5.875-.993,1.321-1.474A49.273,49.273,0,0,1,354.63,1.762,54.847,54.847,0,0,1,367.215,0h.687c19.762.276,36.788,13.067,44.8,31.49Q413.406,33.1,414,34.756Z" transform="translate(-136.469 0)"/>
        <path id="Path_7827" data-name="Path 7827" class="cls-8" d="M398.726,203a19.891,19.891,0,0,1-5.121,9.338,8.809,8.809,0,0,0-13.889-.517,8.51,8.51,0,0,0-12.8,2.161A19.968,19.968,0,0,1,360,203Z" transform="translate(-148.57 -83.78)"/>
        <path id="Path_7828" data-name="Path 7828" class="cls-16" d="M398.881,194.443a19.771,19.771,0,0,1-.294,3.412c-.065.388-.147.763-.229,1.139H359.633c-.082-.376-.164-.752-.223-1.139a19.768,19.768,0,0,1-.3-3.412c0-.382,0-.758.035-1.133h39.724C398.869,193.715,398.881,194.062,398.881,194.443Z" transform="translate(-148.203 -79.781)"/>
        <path id="Path_7829" data-name="Path 7829" class="cls-3" d="M398.462,216.32a19.839,19.839,0,0,1-10.847,5.714,19.186,19.186,0,0,1-3.406.294,12.885,12.885,0,0,1-1.668-.07,19.815,19.815,0,0,1-10.771-4.293,8.51,8.51,0,0,1,12.8-2.161,8.809,8.809,0,0,1,13.889.517Z" transform="translate(-153.428 -87.768)"/>
        <path id="Path_7830" data-name="Path 7830" class="cls-7" d="M358.168,8.392a53.793,53.793,0,0,1-50.6,53.689,59.428,59.428,0,0,1-.387-6.747,58.152,58.152,0,0,1,13.8-38.039c.435-.5.875-.993,1.321-1.474a49.274,49.274,0,0,1,22.634-14.06A54.846,54.846,0,0,1,357.517,0a53.951,53.951,0,0,1,.652,8.392Z" transform="translate(-126.771 0)"/>
        <rect id="Rectangle_747" data-name="Rectangle 747" class="cls-17" width="133.526" height="5.362" rx="2.681" transform="translate(113.411 215.841)"/>
        <path id="Path_7831" data-name="Path 7831" class="cls-18" d="M282.976,327.411H186.461L176.43,259.82h96.591a5.286,5.286,0,0,1,5.2,4.481L286.9,322.86a3.964,3.964,0,0,1-3.929,4.551Z" transform="translate(-72.809 -107.23)"/>
        <path id="Path_7832" data-name="Path 7832" class="cls-19" d="M275.256,327.411h-90.73a5.6,5.6,0,0,1-5.544-4.775l-8.527-57.5a4.634,4.634,0,0,1,4.587-5.321h91.294a5.162,5.162,0,0,1,5.1,4.4l8.551,57.689a4.792,4.792,0,0,1-4.734,5.5Z" transform="translate(-70.321 -107.23)"/>
        <path id="Path_7833" data-name="Path 7833" class="cls-20" d="M252.8,300.92l-7.4,19.322h21.618Zm1.533,8.68,4.88,6.636H251.76Z" transform="translate(-101.273 -124.193)"/>
        <path id="Path_7834" data-name="Path 7834" class="cls-15" d="M466.9,333.828l-.869.294a9.866,9.866,0,0,1-12.486-6.231l-16.7-49.967a9.878,9.878,0,0,1,6.231-12.486l.869-.288a9.872,9.872,0,0,1,12.492,6.231l16.7,49.961a9.861,9.861,0,0,1-6.237,12.486Z" transform="translate(-180.074 -109.219)"/>
        <path id="Path_7835" data-name="Path 7835" class="cls-15" d="M463.411,372.5l-27.867,1.592-.241-4.317-.934-16.3,5.01-.288,22.857-1.3a10.342,10.342,0,0,1,10.853,9.2c0,.176.035.358.041.534s0,.335,0,.5v.282A10.336,10.336,0,0,1,463.411,372.5Z" transform="translate(-179.263 -145.217)"/>
        <path id="Path_7836" data-name="Path 7836" class="cls-6" d="M411.971,375.223l-1.321.076-22.493,1.257a10.33,10.33,0,0,1-10.865-9.215c0-.17-.029-.335-.041-.505v-.781A10.348,10.348,0,0,1,387,355.937l23.815-1.357.94,16.327Z" transform="translate(-155.689 -146.339)"/>
        <path id="Path_7837" data-name="Path 7837" class="cls-21" d="M130.784,289.05v29.517S120.87,309.681,130.784,289.05Z" transform="translate(-52.152 -119.294)"/>
        <path id="Path_7838" data-name="Path 7838" class="cls-22" d="M133.88,318.567s9.925-8.886,0-29.517v29.517" transform="translate(-55.248 -119.294)"/>
        <g id="Group_2987" data-name="Group 2987" class="cls-23" transform="translate(74.221 169.756)">
          <path id="Path_7839" data-name="Path 7839" class="cls-8" d="M130.78,318.561s-9.925-8.886,0-29.511C140.7,309.676,130.78,318.561,130.78,318.561Z" transform="translate(-126.369 -289.05)"/>
        </g>
        <path id="Path_7840" data-name="Path 7840" class="cls-21" d="M144.892,293.08l-11.628,27.15S127.638,308.179,144.892,293.08Z" transform="translate(-54.632 -120.957)"/>
        <path id="Path_7841" data-name="Path 7841" class="cls-22" d="M133.88,320.23s12.627-4.293,11.628-27.15L133.88,320.23" transform="translate(-55.248 -120.957)"/>
        <g id="Group_2988" data-name="Group 2988" class="cls-24" transform="translate(77.756 172.117)">
          <path id="Path_7842" data-name="Path 7842" class="cls-8" d="M133.264,320.22s-5.626-12.051,11.628-27.15C145.891,315.933,133.264,320.22,133.264,320.22Z" transform="translate(-132.387 -293.07)"/>
        </g>
        <path id="Path_7843" data-name="Path 7843" class="cls-22" d="M114.09,293.08l11.628,27.15S131.345,308.179,114.09,293.08Z" transform="translate(-47.08 -120.957)"/>
        <path id="Path_7844" data-name="Path 7844" class="cls-21" d="M125.679,320.23s-12.627-4.293-11.628-27.15l11.628,27.15" transform="translate(-47.041 -120.957)"/>
        <g id="Group_2991" data-name="Group 2991" class="cls-25" transform="translate(66.965 169.756)">
          <path id="Path_7845" data-name="Path 7845" class="cls-8" d="M133.806,339.09h0c0-.029-.053-.117-.106-.27Z" transform="translate(-122.139 -309.591)"/>
          <path id="Path_7846" data-name="Path 7846" class="cls-8" d="M133.88,339.29Z" transform="translate(-122.213 -309.785)"/>
          <path id="Path_7847" data-name="Path 7847" class="cls-8" d="M133.89,339.1l.112-.27c-.053.141-.088.223-.106.264h0Z" transform="translate(-122.217 -309.595)"/>
          <path id="Path_7848" data-name="Path 7848" class="cls-8" d="M137.63,311.08c.27-.487.587-.981.881-1.48C138.2,310.105,137.9,310.593,137.63,311.08Z" transform="translate(-123.761 -297.531)"/>
          <path id="Path_7849" data-name="Path 7849" class="cls-8" d="M140.195,307.73h0c-.082.112-.159.211-.235.323C140.03,307.953,140.113,307.842,140.195,307.73Z" transform="translate(-124.722 -296.759)"/>
          <g id="Group_2989" data-name="Group 2989" class="cls-23" transform="translate(11.561 10.971)">
            <path id="Path_7850" data-name="Path 7850" class="cls-8" d="M133.806,339.1h0c0-.029-.053-.117-.106-.27l.112.264Z" transform="translate(-133.7 -320.565)"/>
            <path id="Path_7851" data-name="Path 7851" class="cls-8" d="M133.89,339.1l.112-.27c-.053.141-.088.223-.106.264h0Z" transform="translate(-133.778 -320.565)"/>
            <path id="Path_7852" data-name="Path 7852" class="cls-8" d="M137.63,311.08c.27-.487.587-.981.881-1.48C138.2,310.105,137.9,310.593,137.63,311.08Z" transform="translate(-135.322 -308.502)"/>
            <path id="Path_7853" data-name="Path 7853" class="cls-8" d="M140.195,307.73h0c-.082.112-.159.211-.235.323C140.03,307.953,140.113,307.842,140.195,307.73Z" transform="translate(-136.284 -307.73)"/>
          </g>
          <path id="Path_7854" data-name="Path 7854" class="cls-8" d="M133.69,338.83l.112.264h0A1.36,1.36,0,0,1,133.69,338.83Z" transform="translate(-122.135 -309.595)"/>
          <path id="Path_7855" data-name="Path 7855" class="cls-8" d="M153.676,293.08l-.006.006v-.006Z" transform="translate(-130.381 -290.713)"/>
          <path id="Path_7856" data-name="Path 7856" class="cls-8" d="M133.88,339.29Z" transform="translate(-122.213 -309.785)"/>
          <path id="Path_7857" data-name="Path 7857" class="cls-8" d="M133.89,339.1l.112-.27c-.053.141-.088.223-.106.264h0Z" transform="translate(-122.217 -309.595)"/>
          <path id="Path_7858" data-name="Path 7858" class="cls-8" d="M152.22,304.846a46.46,46.46,0,0,0,.852-11.746h0A45.709,45.709,0,0,1,152.22,304.846Z" transform="translate(-129.782 -290.721)"/>
          <g id="Group_2990" data-name="Group 2990" class="cls-24" transform="translate(11.561 2.367)">
            <path id="Path_7859" data-name="Path 7859" class="cls-8" d="M133.806,339.09h0c0-.029-.053-.117-.106-.27Z" transform="translate(-133.7 -311.957)"/>
            <path id="Path_7860" data-name="Path 7860" class="cls-8" d="M133.88,339.29Z" transform="translate(-133.774 -312.151)"/>
            <path id="Path_7861" data-name="Path 7861" class="cls-8" d="M133.89,339.1l.112-.27c-.053.141-.088.223-.106.264h0Z" transform="translate(-133.778 -311.962)"/>
            <path id="Path_7862" data-name="Path 7862" class="cls-8" d="M137.63,311.08c.27-.487.587-.981.881-1.48C138.2,310.105,137.9,310.593,137.63,311.08Z" transform="translate(-135.322 -299.898)"/>
            <path id="Path_7863" data-name="Path 7863" class="cls-8" d="M140,308.065c.07-.112.153-.223.235-.335h0A1.525,1.525,0,0,0,140,308.065Z" transform="translate(-136.3 -299.126)"/>
            <path id="Path_7864" data-name="Path 7864" class="cls-8" d="M144,300.689a42.526,42.526,0,0,1,2.936-3.289A40.472,40.472,0,0,0,144,300.689Z" transform="translate(-137.951 -294.863)"/>
            <path id="Path_7865" data-name="Path 7865" class="cls-8" d="M153.006,293.08h0c-.329.282-.64.587-.946.846C152.365,293.62,152.683,293.362,153.006,293.08Z" transform="translate(-141.277 -293.08)"/>
          </g>
          <path id="Path_7866" data-name="Path 7866" class="cls-8" d="M134.006,338.83c-.053.141-.088.223-.106.264h0Z" transform="translate(-122.221 -309.595)"/>
          <path id="Path_7867" data-name="Path 7867" class="cls-8" d="M137.3,291.429h0c-.329.282-.64.587-.946.846-.628.587-1.216,1.128-1.762,1.686-1.116,1.116-2.108,2.2-2.989,3.277-.793.951-1.492,1.885-2.108,2.79h0c-.082.112-.159.211-.235.323.07-.112.153-.223.235-.335a46.138,46.138,0,0,0-3.806-10.965,46.139,46.139,0,0,0-3.806,10.965,45.738,45.738,0,0,0-7.817-8.6c-.975,22.317,11.065,26.945,11.6,27.133h0c0-.029-.053-.117-.106-.27l.112.264h0l.112-.27c-.053.141-.088.223-.106.264h0a13.284,13.284,0,0,0,4.475-3.066c.182-.182.358-.358.54-.552l.54-.587.276-.329c.182-.223.364-.452.546-.7a21.955,21.955,0,0,0,1.932-3.13c.141-.264.276-.54.411-.834a27.207,27.207,0,0,0,1.128-2.825c.117-.352.229-.711.335-1.081.206-.716.4-1.468.587-2.255A46.46,46.46,0,0,0,137.3,291.429Zm-8.539,9.69c-.311.505-.587.992-.881,1.48C128.154,302.111,128.442,301.618,128.765,301.119Z" transform="translate(-114.014 -289.05)"/>
          <path id="Path_7868" data-name="Path 7868" class="cls-8" d="M133.806,339.09h0c0-.029-.053-.117-.106-.27Z" transform="translate(-122.139 -309.591)"/>
          <path id="Path_7869" data-name="Path 7869" class="cls-8" d="M133.89,339.29Z" transform="translate(-122.217 -309.785)"/>
        </g>
        <path id="Path_7870" data-name="Path 7870" class="cls-21" d="M130.079,307.27v27.015S117.911,326.145,130.079,307.27Z" transform="translate(-51.447 -126.814)"/>
        <path id="Path_7871" data-name="Path 7871" class="cls-22" d="M133.88,334.265s12.174-8.128,0-27.015v27.015" transform="translate(-55.248 -126.805)"/>
        <g id="Group_2992" data-name="Group 2992" class="cls-23" transform="translate(73.224 180.445)">
          <path id="Path_7872" data-name="Path 7872" class="cls-8" d="M130.079,334.265s-12.169-8.134,0-27.015C142.248,326.131,130.079,334.265,130.079,334.265Z" transform="translate(-124.671 -307.25)"/>
        </g>
        <path id="Path_7873" data-name="Path 7873" class="cls-21" d="M147.384,311l-14.259,24.842S126.224,324.79,147.384,311Z" transform="translate(-54.492 -128.353)"/>
        <path id="Path_7874" data-name="Path 7874" class="cls-22" d="M133.88,335.792s15.487-3.923,14.259-24.842L133.88,335.792" transform="translate(-55.248 -128.332)"/>
        <g id="Group_2993" data-name="Group 2993" class="cls-24" transform="translate(77.557 182.618)">
          <path id="Path_7875" data-name="Path 7875" class="cls-8" d="M133.124,335.792s-6.9-11.029,14.259-24.842C148.611,331.869,133.124,335.792,133.124,335.792Z" transform="translate(-132.049 -310.95)"/>
        </g>
        <path id="Path_7876" data-name="Path 7876" class="cls-22" d="M109.61,311l14.259,24.842S130.77,324.79,109.61,311Z" transform="translate(-45.231 -128.353)"/>
        <path id="Path_7877" data-name="Path 7877" class="cls-21" d="M123.821,335.792s-15.487-3.923-14.259-24.842l14.259,24.842" transform="translate(-45.183 -128.332)"/>
        <path id="Path_7878" data-name="Path 7878" class="cls-13" d="M139.242,347.2a17.871,17.871,0,1,1-31.884-11.094H135.39A17.8,17.8,0,0,1,139.242,347.2Z" transform="translate(-42.71 -138.716)"/>
        <path id="Path_7879" data-name="Path 7879" class="cls-21" d="M130.784,289.05v29.517S120.87,309.681,130.784,289.05Z" transform="translate(-52.152 -119.294)"/>
        <path id="Path_7880" data-name="Path 7880" class="cls-22" d="M133.88,318.567s9.925-8.886,0-29.517Z" transform="translate(-55.248 -119.294)"/>
        <g id="Group_2994" data-name="Group 2994" class="cls-23" transform="translate(74.221 169.756)">
          <path id="Path_7881" data-name="Path 7881" class="cls-8" d="M130.78,318.561s-9.925-8.886,0-29.511C140.7,309.676,130.78,318.561,130.78,318.561Z" transform="translate(-126.369 -289.05)"/>
        </g>
        <path id="Path_7882" data-name="Path 7882" class="cls-21" d="M144.892,293.08l-11.628,27.15S127.638,308.179,144.892,293.08Z" transform="translate(-54.632 -120.957)"/>
        <path id="Path_7883" data-name="Path 7883" class="cls-22" d="M133.88,320.23s12.627-4.293,11.628-27.15Z" transform="translate(-55.248 -120.957)"/>
        <g id="Group_2995" data-name="Group 2995" class="cls-24" transform="translate(77.756 172.117)">
          <path id="Path_7884" data-name="Path 7884" class="cls-8" d="M133.264,320.22s-5.626-12.051,11.628-27.15C145.891,315.933,133.264,320.22,133.264,320.22Z" transform="translate(-132.387 -293.07)"/>
        </g>
        <path id="Path_7885" data-name="Path 7885" class="cls-22" d="M114.09,293.08l11.628,27.15S131.345,308.179,114.09,293.08Z" transform="translate(-47.08 -120.957)"/>
        <path id="Path_7886" data-name="Path 7886" class="cls-21" d="M125.679,320.23s-12.627-4.293-11.628-27.15Z" transform="translate(-47.041 -120.957)"/>
        <g id="Group_2998" data-name="Group 2998" class="cls-25" transform="translate(66.953 169.779)">
          <path id="Path_7887" data-name="Path 7887" class="cls-8" d="M133.806,339.09h0c0-.029-.053-.117-.106-.27Z" transform="translate(-122.127 -309.614)"/>
          <path id="Path_7888" data-name="Path 7888" class="cls-8" d="M133.88,339.29Z" transform="translate(-122.201 -309.808)"/>
          <path id="Path_7889" data-name="Path 7889" class="cls-8" d="M133.89,339.1l.112-.27c-.053.141-.088.223-.106.264h0Z" transform="translate(-122.205 -309.618)"/>
          <path id="Path_7890" data-name="Path 7890" class="cls-8" d="M137.63,311.08c.27-.487.587-.981.881-1.48C138.2,310.105,137.9,310.593,137.63,311.08Z" transform="translate(-123.749 -297.555)"/>
          <path id="Path_7891" data-name="Path 7891" class="cls-8" d="M140.195,307.73h0c-.082.112-.159.211-.235.323C140.03,307.953,140.113,307.842,140.195,307.73Z" transform="translate(-124.71 -296.783)"/>
          <g id="Group_2996" data-name="Group 2996" class="cls-23" transform="translate(11.573 10.947)">
            <path id="Path_7892" data-name="Path 7892" class="cls-8" d="M133.806,339.1h0c0-.029-.053-.117-.106-.27l.112.264Z" transform="translate(-133.7 -320.565)"/>
            <path id="Path_7893" data-name="Path 7893" class="cls-8" d="M133.89,339.1l.112-.27c-.053.141-.088.223-.106.264h0Z" transform="translate(-133.778 -320.565)"/>
            <path id="Path_7894" data-name="Path 7894" class="cls-8" d="M137.63,311.08c.27-.487.587-.981.881-1.48C138.2,310.105,137.9,310.593,137.63,311.08Z" transform="translate(-135.322 -308.502)"/>
            <path id="Path_7895" data-name="Path 7895" class="cls-8" d="M140.195,307.73h0c-.082.112-.159.211-.235.323C140.03,307.953,140.113,307.842,140.195,307.73Z" transform="translate(-136.284 -307.73)"/>
          </g>
          <path id="Path_7896" data-name="Path 7896" class="cls-8" d="M133.69,338.83l.112.264h0A1.36,1.36,0,0,1,133.69,338.83Z" transform="translate(-122.123 -309.618)"/>
          <path id="Path_7897" data-name="Path 7897" class="cls-8" d="M153.676,293.08l-.006.006v-.006Z" transform="translate(-130.368 -290.737)"/>
          <path id="Path_7898" data-name="Path 7898" class="cls-8" d="M133.88,339.29Z" transform="translate(-122.201 -309.808)"/>
          <path id="Path_7899" data-name="Path 7899" class="cls-8" d="M133.89,339.1l.112-.27c-.053.141-.088.223-.106.264h0Z" transform="translate(-122.205 -309.618)"/>
          <path id="Path_7900" data-name="Path 7900" class="cls-8" d="M152.22,304.846a46.46,46.46,0,0,0,.852-11.746h0A45.709,45.709,0,0,1,152.22,304.846Z" transform="translate(-129.77 -290.745)"/>
          <g id="Group_2997" data-name="Group 2997" class="cls-24" transform="translate(11.573 2.343)">
            <path id="Path_7901" data-name="Path 7901" class="cls-8" d="M133.806,339.09h0c0-.029-.053-.117-.106-.27Z" transform="translate(-133.7 -311.957)"/>
            <path id="Path_7902" data-name="Path 7902" class="cls-8" d="M133.88,339.29Z" transform="translate(-133.774 -312.151)"/>
            <path id="Path_7903" data-name="Path 7903" class="cls-8" d="M133.89,339.1l.112-.27c-.053.141-.088.223-.106.264h0Z" transform="translate(-133.778 -311.962)"/>
            <path id="Path_7904" data-name="Path 7904" class="cls-8" d="M137.63,311.08c.27-.487.587-.981.881-1.48C138.2,310.105,137.9,310.593,137.63,311.08Z" transform="translate(-135.322 -299.898)"/>
            <path id="Path_7905" data-name="Path 7905" class="cls-8" d="M140,308.065c.07-.112.153-.223.235-.335h0A1.525,1.525,0,0,0,140,308.065Z" transform="translate(-136.3 -299.126)"/>
            <path id="Path_7906" data-name="Path 7906" class="cls-8" d="M144,300.689a42.526,42.526,0,0,1,2.936-3.289A40.472,40.472,0,0,0,144,300.689Z" transform="translate(-137.951 -294.863)"/>
            <path id="Path_7907" data-name="Path 7907" class="cls-8" d="M153.006,293.08h0c-.329.282-.64.587-.946.846C152.365,293.62,152.683,293.362,153.006,293.08Z" transform="translate(-141.277 -293.08)"/>
          </g>
          <path id="Path_7908" data-name="Path 7908" class="cls-8" d="M134.006,338.83c-.053.141-.088.223-.106.264h0Z" transform="translate(-122.209 -309.618)"/>
          <path id="Path_7909" data-name="Path 7909" class="cls-8" d="M137.3,291.445h-.035l-.135.117c-.082.065-.159.141-.235.2a.37.37,0,0,1-.07.065h0c-.159.141-.311.276-.464.423-.311.276-.617.587-.91.846l-.435.417-.423.423c-.282.276-.552.587-.816.834s-.523.546-.775.822l-.358.405-.358.405h0l-.323.37v.035l-.341.452-.587.711c-.094.117-.188.235-.276.358s-.182.229-.264.346c-.182.235-.346.464-.511.693l-.364.517a.587.587,0,0,0-.076.106v.029h0c-.082-.393-.17-.8-.264-1.222v-.082l-.076-.317a1.062,1.062,0,0,0-.053-.217c-.053-.211-.106-.423-.164-.64a1.717,1.717,0,0,1-.059-.206c-.041-.147-.082-.288-.129-.44s-.123-.429-.182-.646h0c-.229-.734-.487-1.486-.763-2.267h0a.587.587,0,0,0-.047-.135,1.465,1.465,0,0,0-.053-.147l-.341-.9h0c-.1-.253-.2-.505-.311-.763s-.194-.458-.294-.693-.211-.493-.323-.746c-.041-.076-.07-.164-.112-.247s-.153-.335-.235-.505l-.352-.758h0c-.141.294-.282.587-.411.875-.035.07-.059.135-.094.211s-.059.123-.088.188h0c-.029.082-.07.17-.106.247l-.511.893c-.664,1.556-1.2,3.036-1.65,4.446-.059.188-.117.376-.17.587s-.059.2-.082.3c-.065.206-.123.411-.176.587s-.135.523-.206.781-.088.352-.129.529v.088c-.1.417-.188.828-.264,1.222-.123-.17-.241-.335-.358-.511l-.37-.505c-.147-.2-.294-.4-.446-.587-.247-.329-.5-.646-.763-.969-.147-.176-.294-.358-.446-.529-.294-.358-.587-.711-.928-1.069-.159-.176-.323-.364-.5-.54s-.317-.346-.482-.517-.346-.364-.534-.552l-.376-.376-.769-.74L115,292.3c-.3-.282-.628-.587-.951-.852-.059,1.38-.07,2.69-.041,3.941,0,.446.035.893.053,1.321v.946a8.039,8.039,0,0,0,.07.857c.029.27.053.587.088.84s.059.546.1.81q.082.617.176,1.175c.059.376.129.746.2,1.116s.164.8.258,1.175.141.634.223.934a.377.377,0,0,0,0,.041c.053.211.112.423.17.623s.129.435.194.646.129.417.206.628c.206.587.417,1.175.646,1.762.07.188.153.364.229.546s.164.352.241.529.164.346.247.511.164.335.247.493c.041.07.076.147.117.211.076.159.164.311.247.452a2.836,2.836,0,0,0,.153.264c.088.153.17.3.258.44a18.739,18.739,0,0,0,1.081,1.592c.088.123.182.247.276.364s.235.305.358.44.235.288.352.417l.106.117.206.235.37.388c.17.17.341.341.505.487s.264.247.393.364l.388.335.276.229h0l.429.329.223.164.247.176c.358.235.681.44.963.587a.071.071,0,0,1,.041.029l.206.112.523.264h0c.264.117.44.182.493.206h0l.17-.07a.657.657,0,0,0,.141-.059l.176-.076q.276-.123.652-.335l.288-.164c.123-.07.247-.141.37-.223l.1-.065c.035,0,.076-.047.106-.076a1.714,1.714,0,0,0,.217-.141h.029l.17-.112.229-.176h0l.435-.341h0c.217-.176.446-.37.681-.587l.112-.1h0a.874.874,0,0,1,.106-.1,1.725,1.725,0,0,0,.147-.147h0l.264-.253h0c.176-.182.358-.358.534-.552l.264-.305h0c.035-.029.059-.07.094-.106h0a2.2,2.2,0,0,0,.147-.17l.141-.159a1,1,0,0,0,.065-.082.874.874,0,0,1,.07-.082c.182-.223.364-.452.546-.7.076-.112.164-.223.253-.341v-.035h0c.035-.053.065-.106.106-.159a1.3,1.3,0,0,0,.112-.159.87.87,0,0,1,.047-.076h0l.1-.147c.053-.088.106-.17.164-.253a.746.746,0,0,1,.076-.112c.088-.153.188-.305.282-.464,0-.047.059-.1.088-.147a.875.875,0,0,0,.076-.147h0a2.019,2.019,0,0,0,.129-.223c.076-.135.159-.276.235-.423s.159-.288.229-.44.141-.27.206-.411.141-.282.206-.429c.029-.059.059-.117.088-.188s.076-.182.123-.276l.088-.2c.059-.129.117-.27.17-.405a.641.641,0,0,0,.053-.135c.059-.147.117-.288.17-.435s.053-.129.076-.194.1-.258.147-.388l.211-.587c.059-.17.117-.346.17-.529a.555.555,0,0,0,0-.094h0c.047-.141.088-.294.135-.446l.053-.194h0a1.327,1.327,0,0,1,.094-.346c.035-.117,0-.059,0-.088a1.192,1.192,0,0,1,.047-.182h0a.112.112,0,0,1,0-.059s0-.035,0-.053a.247.247,0,0,1,.047-.159c.029-.147.07-.294.106-.44h0v-.123a.429.429,0,0,0,0-.117v-.106c0-.029.059-.235.088-.358s.076-.37.112-.587a.376.376,0,0,0,0-.117h0v-.035h0a.894.894,0,0,0,0-.123,1.763,1.763,0,0,0,.047-.241,1,1,0,0,0,0-.129.588.588,0,0,0,.035-.17h0a.223.223,0,0,0,0-.059.241.241,0,0,0,0-.065v-.458h0v-.176c.035-.258.076-.523.112-.793a.875.875,0,0,0,0-.123c.029-.159.041-.323.059-.487s.029-.206.035-.305,0-.129,0-.194v-.247c.047-.452.082-.9.112-1.38,0-.317.047-.64.059-.975A10.568,10.568,0,0,0,137.3,291.445Zm-7.817,8.6-.117.17-.117.159.117-.176.112-.159h0Zm-3.788,18.523Z" transform="translate(-113.994 -289.09)"/>
          <path id="Path_7910" data-name="Path 7910" class="cls-8" d="M133.806,339.09h0c0-.029-.053-.117-.106-.27Z" transform="translate(-122.127 -309.614)"/>
          <path id="Path_7911" data-name="Path 7911" class="cls-8" d="M133.89,339.29Z" transform="translate(-122.205 -309.808)"/>
        </g>
        <path id="Path_7912" data-name="Path 7912" class="cls-21" d="M130.079,307.27v27.015S117.911,326.145,130.079,307.27Z" transform="translate(-51.447 -126.814)"/>
        <path id="Path_7913" data-name="Path 7913" class="cls-22" d="M133.88,334.265s12.174-8.128,0-27.015Z" transform="translate(-55.248 -126.805)"/>
        <g id="Group_2999" data-name="Group 2999" class="cls-23" transform="translate(73.224 180.445)">
          <path id="Path_7914" data-name="Path 7914" class="cls-8" d="M130.079,334.265s-12.169-8.134,0-27.015C142.248,326.131,130.079,334.265,130.079,334.265Z" transform="translate(-124.671 -307.25)"/>
        </g>
        <path id="Path_7915" data-name="Path 7915" class="cls-21" d="M147.384,311l-14.259,24.842S126.224,324.79,147.384,311Z" transform="translate(-54.492 -128.353)"/>
        <path id="Path_7916" data-name="Path 7916" class="cls-22" d="M133.88,335.792s15.487-3.923,14.259-24.842Z" transform="translate(-55.248 -128.332)"/>
        <g id="Group_3000" data-name="Group 3000" class="cls-24" transform="translate(77.557 182.618)">
          <path id="Path_7917" data-name="Path 7917" class="cls-8" d="M133.124,335.792s-6.9-11.029,14.259-24.842C148.611,331.869,133.124,335.792,133.124,335.792Z" transform="translate(-132.049 -310.95)"/>
        </g>
        <path id="Path_7918" data-name="Path 7918" class="cls-22" d="M109.61,311l14.259,24.842S130.77,324.79,109.61,311Z" transform="translate(-45.231 -128.353)"/>
        <path id="Path_7919" data-name="Path 7919" class="cls-21" d="M123.821,335.792s-15.487-3.923-14.259-24.842Z" transform="translate(-45.183 -128.332)"/>
        <path id="Path_7920" data-name="Path 7920" class="cls-13" d="M139.242,347.208a17.871,17.871,0,1,1-35.742,0,18.1,18.1,0,0,1,.587-4.581,18.305,18.305,0,0,1,3.271-6.507H135.39a17.548,17.548,0,0,1,2.7,4.763,17.789,17.789,0,0,1,.587,1.762A18.1,18.1,0,0,1,139.242,347.208Z" transform="translate(-42.71 -138.72)"/>
        <g id="Group_3001" data-name="Group 3001" class="cls-24" transform="translate(78.632 169.727)">
          <path id="Path_7921" data-name="Path 7921" class="cls-8" d="M138.77,301.375c-.029-.112-.065-.223-.1-.335C138.705,301.152,138.74,301.263,138.77,301.375Z" transform="translate(-135.857 -293.969)"/>
          <path id="Path_7922" data-name="Path 7922" class="cls-8" d="M133.9,289h0l.164.37C134.012,289.264,133.959,289.147,133.9,289Z" transform="translate(-133.888 -289)"/>
          <path id="Path_7923" data-name="Path 7923" class="cls-8" d="M137.53,297.67c.07.194.147.393.211.587C137.677,298.063,137.6,297.864,137.53,297.67Z" transform="translate(-135.386 -292.578)"/>
          <path id="Path_7924" data-name="Path 7924" class="cls-8" d="M140,306.18c.047.206.094.417.135.623A2.629,2.629,0,0,0,140,306.18Z" transform="translate(-136.406 -296.09)"/>
          <path id="Path_7925" data-name="Path 7925" class="cls-8" d="M139.45,303.75c.053.194.094.376.141.587C139.544,304.126,139.5,303.944,139.45,303.75Z" transform="translate(-136.179 -295.087)"/>
          <path id="Path_7926" data-name="Path 7926" class="cls-8" d="M135.22,291.9c.1.235.2.464.294.693C135.42,292.364,135.32,292.135,135.22,291.9Z" transform="translate(-134.433 -290.197)"/>
          <path id="Path_7927" data-name="Path 7927" class="cls-8" d="M136.43,294.79c.094.229.182.458.27.681C136.612,295.248,136.524,295.019,136.43,294.79Z" transform="translate(-134.932 -291.39)"/>
          <path id="Path_7928" data-name="Path 7928" class="cls-8" d="M141.017,306.21c-.206.288-.405.587-.587.846C140.612,306.774,140.812,306.5,141.017,306.21Z" transform="translate(-136.583 -296.103)"/>
          <path id="Path_7929" data-name="Path 7929" class="cls-8" d="M146.587,299.69l-.346.376Z" transform="translate(-138.981 -293.412)"/>
          <path id="Path_7930" data-name="Path 7930" class="cls-8" d="M144.347,302.27l-.247.305Z" transform="translate(-138.098 -294.477)"/>
          <path id="Path_7931" data-name="Path 7931" class="cls-8" d="M148.7,297.44l-.423.429Z" transform="translate(-139.823 -292.483)"/>
          <path id="Path_7932" data-name="Path 7932" class="cls-8" d="M150.969,295.24l-.429.411Z" transform="translate(-140.756 -291.575)"/>
          <path id="Path_7933" data-name="Path 7933" class="cls-8" d="M142.469,304.37l-.5.652Z" transform="translate(-137.219 -295.343)"/>
          <path id="Path_7934" data-name="Path 7934" class="cls-8" d="M153.5,293.144l.106-.094h0Z" transform="translate(-141.977 -290.671)"/>
          <path id="Path_7935" data-name="Path 7935" class="cls-8" d="M152.84,309.435l.094-.435Z" transform="translate(-141.705 -297.254)"/>
          <path id="Path_7936" data-name="Path 7936" class="cls-8" d="M152.34,312.132a2.343,2.343,0,0,1,.1-.482C152.4,311.814,152.369,311.967,152.34,312.132Z" transform="translate(-141.499 -298.348)"/>
          <path id="Path_7937" data-name="Path 7937" class="cls-8" d="M153.55,303.385v-.235A.788.788,0,0,1,153.55,303.385Z" transform="translate(-141.998 -294.84)"/>
          <path id="Path_7938" data-name="Path 7938" class="cls-8" d="M151.75,314.657c.041-.164.088-.323.129-.487C151.838,314.334,151.791,314.493,151.75,314.657Z" transform="translate(-141.255 -299.388)"/>
          <path id="Path_7939" data-name="Path 7939" class="cls-8" d="M153.68,293.05h0v0Z" transform="translate(-142.052 -290.671)"/>
          <path id="Path_7940" data-name="Path 7940" class="cls-8" d="M153.25,306.526a2.738,2.738,0,0,1,.047-.376C153.279,306.279,153.262,306.4,153.25,306.526Z" transform="translate(-141.874 -296.078)"/>
          <path id="Path_7941" data-name="Path 7941" class="cls-8" d="M145.588,293.88q0,1.8-.117,3.436v.229c-.035.517-.076,1.034-.129,1.527,0,.123-.035.247-.047.376-.053.435-.106.869-.164,1.286-.029.147-.053.294-.082.446-.059.376-.117.758-.194,1.122a2.725,2.725,0,0,1-.094.476c-.076.341-.141.675-.223,1-.035.176-.076.335-.123.5s-.053.211-.076.311a43.554,43.554,0,0,0-5.755,5.168,35.449,35.449,0,0,0-4.651-10.037V289c.059.129.106.247.164.364.211.452.417.887.587,1.321l.3.7c.141.335.282.664.411.992.094.235.188.464.276.693.129.335.247.67.37,1,.07.194.147.393.217.587.159.47.311.934.452,1.386l.1.341c.129.423.247.846.358,1.251.053.194.094.382.141.587.07.294.141.587.211.857s.088.423.129.628a1.382,1.382,0,0,0,.059.27v-.029c.182-.282.388-.587.587-.84.1-.147.211-.294.317-.429s.323-.44.505-.664.487-.617.746-.922l.253-.3c.317-.382.652-.758,1-1.175l.346-.37c.27-.294.558-.587.846-.893.141-.135.282-.282.423-.429l.91-.887c.141-.135.282-.27.435-.405.417-.4.852-.787,1.31-1.175l.106-.094Q145.588,292.665,145.588,293.88Z" transform="translate(-133.901 -289)"/>
          <path id="Path_7942" data-name="Path 7942" class="cls-8" d="M138.549,317.287a23.85,23.85,0,0,0-4.6,6.883h-.07V307.25A35.484,35.484,0,0,1,138.549,317.287Z" transform="translate(-133.88 -296.532)"/>
          <path id="Path_7943" data-name="Path 7943" class="cls-8" d="M148.189,310.93l-8.469,14.759H134a23.861,23.861,0,0,1,4.575-6.883,43.552,43.552,0,0,1,5.755-5.168C145.517,312.733,146.791,311.846,148.189,310.93Z" transform="translate(-133.93 -298.051)"/>
          <path id="Path_7944" data-name="Path 7944" class="cls-8" d="M149.584,325.689H143.74l8.469-14.759C152.59,317.308,151.4,322.13,149.584,325.689Z" transform="translate(-137.949 -298.051)"/>
          <path id="Path_7945" data-name="Path 7945" class="cls-8" d="M151.742,347.2A17.871,17.871,0,0,1,133.9,365.063V336.11h13.977A17.777,17.777,0,0,1,151.742,347.2Z" transform="translate(-133.888 -308.443)"/>
        </g>
        <path id="Path_7946" data-name="Path 7946" class="cls-26" d="M139.068,345.922H104.5a17.8,17.8,0,0,1,.587-1.762h33.429a17.79,17.79,0,0,1,.552,1.762Z" transform="translate(-43.122 -142.038)"/>
        <path id="Path_7947" data-name="Path 7947" class="cls-27" d="M506.927,321.373v.916a27.42,27.42,0,0,1-6.942,17.865l-.211.229c-12.128.229-43.36-.153-49.761-.235h0a27.3,27.3,0,0,1-6.883-17.372v-.993a31.813,31.813,0,0,1,9.215-22.364l45.85.54a31.778,31.778,0,0,1,8.733,21.413Z" transform="translate(-182.879 -123.574)"/>
        <path id="Path_7948" data-name="Path 7948" class="cls-28" d="M504.62,290.95l-45.85-.54h0a32.031,32.031,0,0,1,10.706-7.153,1.492,1.492,0,0,0,.945-1.374v-2.936a1.316,1.316,0,0,1,1.321-1.316l19.586.041a1.327,1.327,0,0,1,1.316,1.321v2.936a1.48,1.48,0,0,0,.9,1.386,32.142,32.142,0,0,1,10.407,6.942C504.185,290.492,504.4,290.721,504.62,290.95Z" transform="translate(-189.333 -114.581)"/>
        <rect id="Rectangle_748" data-name="Rectangle 748" class="cls-8" width="24.631" height="4.258" rx="2.129" transform="translate(279.888 161.559) rotate(0.13)"/>
        <path id="Path_7949" data-name="Path 7949" class="cls-21" d="M472.1,320.83l-.053,24.267S463.937,337.773,472.1,320.83Z" transform="translate(-193.332 -132.41)"/>
        <path id="Path_7950" data-name="Path 7950" class="cls-22" d="M474.57,345.1s8.14-7.288.053-24.267L474.57,345.1" transform="translate(-195.854 -132.41)"/>
        <g id="Group_3002" data-name="Group 3002" class="cls-23" transform="translate(275.123 188.426)">
          <path id="Path_7951" data-name="Path 7951" class="cls-8" d="M472.04,345.1s-8.1-7.324.053-24.261C480.185,337.813,472.04,345.1,472.04,345.1Z" transform="translate(-468.453 -320.84)"/>
        </g>
        <path id="Path_7952" data-name="Path 7952" class="cls-21" d="M483.638,324.18,474.072,346.5S469.485,336.56,483.638,324.18Z" transform="translate(-195.356 -133.793)"/>
        <path id="Path_7953" data-name="Path 7953" class="cls-22" d="M474.57,346.467s10.348-3.524,9.567-22.317l-9.567,22.317" transform="translate(-195.854 -133.78)"/>
        <g id="Group_3003" data-name="Group 3003" class="cls-24" transform="translate(278.003 190.37)">
          <path id="Path_7954" data-name="Path 7954" class="cls-8" d="M474.063,346.467s-4.581-9.919,9.573-22.317C484.417,342.961,474.063,346.467,474.063,346.467Z" transform="translate(-473.356 -324.15)"/>
        </g>
        <path id="Path_7955" data-name="Path 7955" class="cls-22" d="M458.44,324.11l9.473,22.317S472.547,336.555,458.44,324.11Z" transform="translate(-189.197 -133.764)"/>
        <path id="Path_7956" data-name="Path 7956" class="cls-21" d="M467.877,346.467s-10.33-3.524-9.473-22.317l9.473,22.317" transform="translate(-189.162 -133.78)"/>
        <path id="Path_7957" data-name="Path 7957" class="cls-29" d="M486.208,365.8l-2.3-.182-3.007.875-4.422,1.227-3.113-1.686,6.419-9.426,1.75,1.139.088,2.208h2.026l.8,1.157Z" transform="translate(-195.359 -147.177)"/>
        <path id="Path_7958" data-name="Path 7958" class="cls-26" d="M486.208,365.8l-2.3-.182-3.007.875-4.422,1.227-3.113-1.686,6.419-9.426,1.75,1.139.088,2.208h2.026l.8,1.157Z" transform="translate(-195.359 -147.177)"/>
        <path id="Path_7959" data-name="Path 7959" class="cls-29" d="M475.026,356.346l-6.419,9.426-.329-.176-3.365.611-1.85-.793-1.233-1.779.8-.523,3.095-3.442,1.333-2.737,2.3-.963,2.038,1.145,2.566-.963,1.051.182Z" transform="translate(-190.596 -146.913)"/>
        <g id="Group_3004" data-name="Group 3004" class="cls-24" transform="translate(279.879 184.309)">
          <path id="Path_7960" data-name="Path 7960" class="cls-8" d="M501.21,325.711l.388.229-.517.47a10.889,10.889,0,0,1-4.14,2.4,9.271,9.271,0,0,1-1.392.341,10.922,10.922,0,0,1-1.686.17h-.235a7.378,7.378,0,0,1-.834-.029h-.059a2.155,2.155,0,0,1-.916,1,2.279,2.279,0,0,1-1.4.482,2.123,2.123,0,0,1-.446-.047l-1.967-.4-.505-.106.1-.505a2.238,2.238,0,0,1,1.1-1.515,9.987,9.987,0,0,1-1.069-.587,11.111,11.111,0,0,1-2.349-1.973,11.552,11.552,0,0,1-1.292-1.762c0-.029-.035-.059-.047-.094a4.334,4.334,0,0,1-2.3,1.674l-.07.053h-.059a4.264,4.264,0,0,1-1.762.376,4.2,4.2,0,0,1-.857-.088l-1.838-.376-.505-.1.106-.505a4.739,4.739,0,0,1,3.236-3.618,4.41,4.41,0,0,1-.875-.987,4.78,4.78,0,0,1-.687-3.612l.106-.505.505.106,1.838.376a4.281,4.281,0,0,1,2.349,1.363,4.334,4.334,0,0,1,1.527,2.484l.1-.082a10.762,10.762,0,0,1,1.873-1.122,9.8,9.8,0,0,1,.922-.382,4.334,4.334,0,0,1-2.014-3.647,4.661,4.661,0,0,1,.088-.852l.106-.505.505.106,6.584,1.339a4.346,4.346,0,0,1,2.161,1.175,4.3,4.3,0,0,1,2.038,3.289c.147.082.294.17.435.264a10.12,10.12,0,0,1,1.139.857,10.947,10.947,0,0,1,3.03,4.2l.253.587Z" transform="translate(-476.55 -313.83)"/>
        </g>
        <path id="Path_7961" data-name="Path 7961" class="cls-30" d="M485.217,323.924h0l-1.838-.37a4.111,4.111,0,0,1-3.06-4.9h0l1.832.376a4.111,4.111,0,0,1,3.066,4.9Z" transform="translate(-198.185 -131.51)"/>
        <path id="Path_7962" data-name="Path 7962" class="cls-30" d="M484.108,327.328h0l-1.838-.37a4.111,4.111,0,0,0-4.739,3.312h0l1.838.376A4.111,4.111,0,0,0,484.108,327.328Z" transform="translate(-197.076 -134.914)"/>
        <path id="Path_7963" data-name="Path 7963" class="cls-30" d="M502.316,320.6h0a3.776,3.776,0,0,0-2.936-4.463L492.8,314.79h0a3.794,3.794,0,0,0,2.936,4.469Z" transform="translate(-203.344 -129.917)"/>
        <path id="Path_7964" data-name="Path 7964" class="cls-30" d="M496.24,340.019h0a1.762,1.762,0,0,1,2.061-1.363l1.962.405h0a1.762,1.762,0,0,1-2.061,1.363Z" transform="translate(-204.798 -139.754)"/>
        <path id="Path_7965" data-name="Path 7965" class="cls-31" d="M503.65,321.638h0a3.788,3.788,0,0,0-2.936-4.463l-6.578-1.345h0a3.794,3.794,0,0,0,2.936,4.469Z" transform="translate(-203.898 -130.346)"/>
        <path id="Path_7966" data-name="Path 7966" class="cls-32" d="M505.289,329.122a5.206,5.206,0,0,0,.464.294,10.524,10.524,0,0,1-3.952,2.29,9.986,9.986,0,0,1-1.315.323,10.442,10.442,0,0,1-1.6.159,10.089,10.089,0,0,1-1.034-.029,1.644,1.644,0,0,1-.446-.041,8.887,8.887,0,0,1-.963-.159,9.785,9.785,0,0,1-1.216-.329,10.187,10.187,0,0,1-2.3-1.086,10.353,10.353,0,0,1-3.447-3.577c-.176-.305-.341-.628-.493-.963-.094-.206-.188-.417-.27-.634v-.047h0l.035-.035c.159-.17.323-.329.493-.482a10.305,10.305,0,0,1,.834-.7,10.8,10.8,0,0,1,1.791-1.075,10.625,10.625,0,0,1,1.8-.652l.487-.112c.164-.035.329-.07.493-.094a10.571,10.571,0,0,1,3.794.076h.053a10.224,10.224,0,0,1,1.321.364,8.459,8.459,0,0,1,.928.364h.029a8.416,8.416,0,0,1,.763.382c.223.123.44.253.652.393a9.712,9.712,0,0,1,1.086.816,10.477,10.477,0,0,1,2.889,4.005,2.246,2.246,0,0,1-.487,0h-.117a.288.288,0,0,0-.141,0,4.031,4.031,0,0,1-.587-.112.516.516,0,0,0,.182.423.065.065,0,0,0,0,.041l-.029.135Z" transform="translate(-201.69 -132.909)"/>
        <path id="Path_7967" data-name="Path 7967" class="cls-31" d="M514.089,330.91a5.2,5.2,0,0,0,.464.294,10.524,10.524,0,0,1-3.952,2.29,6.137,6.137,0,0,1-.446-3.8,6.049,6.049,0,0,1,1.9-3.324,10.477,10.477,0,0,1,2.889,4.005,2.252,2.252,0,0,1-.487,0H514.2a4.038,4.038,0,0,1-.587-.112.517.517,0,0,0,.182.423,1.172,1.172,0,0,0,.294.223Z" transform="translate(-210.49 -134.696)"/>
        <circle id="Ellipse_367" data-name="Ellipse 367" class="cls-20" cx="0.899" cy="0.899" r="0.899" transform="translate(300.586 194.469)"/>
        <circle id="Ellipse_368" data-name="Ellipse 368" class="cls-8" cx="0.552" cy="0.552" r="0.552" transform="translate(301.091 194.728)"/>
        <path id="Path_7968" data-name="Path 7968" class="cls-31" d="M501.28,331.786h0l1.327-6.519a1.3,1.3,0,0,1,1.539-1.016h0l-1.327,6.5a1.31,1.31,0,0,1-1.539,1.034Z" transform="translate(-206.878 -133.811)"/>
        <path id="Path_7969" data-name="Path 7969" class="cls-31" d="M498.723,330.966h0l1.21-5.937a1.3,1.3,0,0,0-1.016-1.539h0l-1.216,5.937a1.3,1.3,0,0,0,1.022,1.539Z" transform="translate(-205.39 -133.508)"/>
        <path id="Path_7970" data-name="Path 7970" class="cls-31" d="M506.917,332.642h0l1.216-5.937a1.31,1.31,0,0,0-1.022-1.545h0L505.9,331.1A1.31,1.31,0,0,0,506.917,332.642Z" transform="translate(-208.774 -134.197)"/>
        <path id="Path_7971" data-name="Path 7971" class="cls-31" d="M493.63,329.65h0l.687-3.383a1.3,1.3,0,0,1,1.539-1.016h0l-.687,3.365a1.3,1.3,0,0,1-1.539,1.034Z" transform="translate(-203.721 -134.224)"/>
        <path id="Path_7972" data-name="Path 7972" class="cls-31" d="M496.68,339.759h0a1.762,1.762,0,0,1,2.061-1.363l1.967.4h0a1.762,1.762,0,0,1-2.061,1.363Z" transform="translate(-204.979 -139.646)"/>
        <path id="Path_7973" data-name="Path 7973" class="cls-31" d="M486.088,324.371h0l-1.762-.358a3.8,3.8,0,0,1-2.972-4.493h0l1.762.358a3.806,3.806,0,0,1,2.972,4.493Z" transform="translate(-198.622 -131.869)"/>
        <path id="Path_7974" data-name="Path 7974" class="cls-31" d="M485.07,327.474h0l-1.762-.358a3.817,3.817,0,0,0-4.5,2.972h0l1.762.358a3.811,3.811,0,0,0,4.5-2.972Z" transform="translate(-197.604 -134.972)"/>
        <path id="Path_7975" data-name="Path 7975" class="cls-21" d="M532.3,345.2l-1.95,12.6S527.313,353.446,532.3,345.2Z" transform="translate(-218.498 -142.468)"/>
        <path id="Path_7976" data-name="Path 7976" class="cls-22" d="M531,357.8s4.217-3.23,1.95-12.6L531,357.8" transform="translate(-219.144 -142.468)"/>
        <g id="Group_3005" data-name="Group 3005" class="cls-23" transform="translate(310.939 202.732)">
          <path id="Path_7977" data-name="Path 7977" class="cls-8" d="M530.355,357.8s-3.042-4.358,1.95-12.6C534.572,354.567,530.355,357.8,530.355,357.8Z" transform="translate(-529.437 -345.2)"/>
        </g>
        <path id="Path_7978" data-name="Path 7978" class="cls-21" d="M536.991,348l-6.049,10.959S529.679,353.491,536.991,348Z" transform="translate(-219.085 -143.623)"/>
        <path id="Path_7979" data-name="Path 7979" class="cls-22" d="M531,358.975s4.9-1.122,6.049-10.935L531,358.975" transform="translate(-219.144 -143.64)"/>
        <g id="Group_3006" data-name="Group 3006" class="cls-24" transform="translate(311.773 204.4)">
          <path id="Path_7980" data-name="Path 7980" class="cls-8" d="M530.942,358.975s-1.263-5.468,6.049-10.935C535.845,357.854,530.942,358.975,530.942,358.975Z" transform="translate(-530.858 -348.04)"/>
        </g>
        <path id="Path_7981" data-name="Path 7981" class="cls-22" d="M526.81,345.8l2.461,12.251S532.131,353.223,526.81,345.8Z" transform="translate(-217.414 -142.715)"/>
        <path id="Path_7982" data-name="Path 7982" class="cls-21" d="M528.941,358.051s-4.334-2.549-2.461-12.251l2.461,12.251" transform="translate(-217.084 -142.715)"/>
        <path id="Path_7983" data-name="Path 7983" class="cls-3" d="M530.932,352.86l-1.662,10.747S524.819,359.608,530.932,352.86Z" transform="translate(-217.784 -145.629)"/>
        <path id="Path_7984" data-name="Path 7984" class="cls-4" d="M530.37,363.607s5.45-2.472,1.662-10.747l-1.662,10.747" transform="translate(-218.883 -145.629)"/>
        <g id="Group_3007" data-name="Group 3007" class="cls-23" transform="translate(309.922 207.231)">
          <path id="Path_7985" data-name="Path 7985" class="cls-8" d="M529.27,363.607s-4.452-4.005,1.662-10.747C534.72,361.164,529.27,363.607,529.27,363.607Z" transform="translate(-527.706 -352.86)"/>
        </g>
        <path id="Path_7986" data-name="Path 7986" class="cls-3" d="M537.555,355.85l-7.329,8.991S528.094,360.049,537.555,355.85Z" transform="translate(-218.739 -146.863)"/>
        <path id="Path_7987" data-name="Path 7987" class="cls-4" d="M530.37,364.841s6.542-.587,7.329-8.991l-7.329,8.991" transform="translate(-218.883 -146.863)"/>
        <g id="Group_3008" data-name="Group 3008" class="cls-24" transform="translate(311.281 208.987)">
          <path id="Path_7988" data-name="Path 7988" class="cls-8" d="M530.225,364.841s-2.132-4.828,7.329-8.991C536.768,364.254,530.225,364.841,530.225,364.841Z" transform="translate(-530.02 -355.85)"/>
        </g>
        <path id="Path_7989" data-name="Path 7989" class="cls-4" d="M523.1,352.8l4.27,10.783S530.858,359.63,523.1,352.8Z" transform="translate(-215.883 -145.604)"/>
        <path id="Path_7990" data-name="Path 7990" class="cls-3" d="M527.137,363.583s-6.061-2.537-4.27-10.783l4.27,10.783" transform="translate(-215.65 -145.604)"/>
        <path id="Path_7991" data-name="Path 7991" class="cls-33" d="M525.38,360.35l3.136,5.92S525.38,365.653,525.38,360.35Z" transform="translate(-216.824 -148.72)"/>
        <path id="Path_7992" data-name="Path 7992" class="cls-34" d="M528.516,366.27s1.251-2.936-3.136-5.92l3.136,5.92" transform="translate(-216.824 -148.72)"/>
        <g id="Group_3009" data-name="Group 3009" class="cls-23" transform="translate(308.556 211.63)">
          <path id="Path_7993" data-name="Path 7993" class="cls-8" d="M528.516,366.27s-3.142-.617-3.136-5.92C529.767,363.322,528.516,366.27,528.516,366.27Z" transform="translate(-525.38 -360.35)"/>
        </g>
        <path id="Path_7994" data-name="Path 7994" class="cls-33" d="M529.551,358.83l.311,6.813S527.337,363.887,529.551,358.83Z" transform="translate(-218.17 -148.093)"/>
        <path id="Path_7995" data-name="Path 7995" class="cls-34" d="M530.5,365.643s2.349-2.349-.311-6.813l.311,6.813" transform="translate(-218.809 -148.093)"/>
        <g id="Group_3010" data-name="Group 3010" class="cls-24" transform="translate(310.471 210.737)">
          <path id="Path_7996" data-name="Path 7996" class="cls-8" d="M529.862,365.643s-2.525-1.762-.311-6.813C532.2,363.3,529.862,365.643,529.862,365.643Z" transform="translate(-528.642 -358.83)"/>
        </g>
        <path id="Path_7997" data-name="Path 7997" class="cls-34" d="M521.43,363.48l5.456,4.082S526.851,364.484,521.43,363.48Z" transform="translate(-215.194 -150.012)"/>
        <path id="Path_7998" data-name="Path 7998" class="cls-33" d="M526.886,367.562s-3.248.623-5.456-4.082l5.456,4.082" transform="translate(-215.194 -150.012)"/>
        <path id="Path_7999" data-name="Path 7999" class="cls-35" d="M504.594,369.013a28.372,28.372,0,0,1-21.142,9.338h-7.459a28.4,28.4,0,0,1-21.184-9.561C461.235,368.86,492.467,369.242,504.594,369.013Z" transform="translate(-187.699 -152.204)"/>
        <rect id="Rectangle_749" data-name="Rectangle 749" class="cls-36" width="6.66" height="119.184" transform="translate(146.032 226.917) rotate(45)"/>
        <rect id="Rectangle_750" data-name="Rectangle 750" class="cls-37" width="8.439" height="157.94" transform="translate(61.442 227.463)"/>
        <rect id="Rectangle_751" data-name="Rectangle 751" class="cls-36" width="6.971" height="30.809" rx="3.486" transform="translate(81.064 384.692) rotate(90)"/>
        <rect id="Rectangle_752" data-name="Rectangle 752" class="cls-36" width="6.66" height="119.184" transform="translate(437.743 311.188) rotate(135)"/>
        <rect id="Rectangle_753" data-name="Rectangle 753" class="cls-37" width="8.439" height="157.94" transform="translate(438.053 385.403) rotate(180)"/>
        <rect id="Rectangle_754" data-name="Rectangle 754" class="cls-36" width="6.971" height="30.809" rx="3.486" transform="translate(449.235 384.692) rotate(90)"/>
        <rect id="Rectangle_755" data-name="Rectangle 755" class="cls-38" width="398.065" height="12.862" rx="6.431" transform="translate(50.718 224.438)"/>
        <rect id="Rectangle_756" data-name="Rectangle 756" class="cls-39" width="409.763" height="12.862" rx="6.431" transform="translate(44.869 221.132)"/>
        <rect id="Rectangle_757" data-name="Rectangle 757" class="cls-40" width="101.442" height="4.07" rx="2.035" transform="translate(429.42 221.203) rotate(180)"/>
        <path id="Path_8000" data-name="Path 8000" class="cls-36" d="M603.877,339.243h73.329l7.635-51.353H611.429a3.988,3.988,0,0,0-3.941,3.406l-6.6,44.487a3.019,3.019,0,0,0,2.989,3.459Z" transform="translate(-247.973 -118.815)"/>
        <path id="Path_8001" data-name="Path 8001" class="cls-37" d="M610.218,339.243h68.924a4.252,4.252,0,0,0,4.211-3.629l6.46-43.683a3.524,3.524,0,0,0-3.489-4.041H617a3.917,3.917,0,0,0-3.876,3.348l-6.507,43.829a3.641,3.641,0,0,0,3.606,4.176Z" transform="translate(-250.333 -118.815)"/>
        <path id="Path_8002" data-name="Path 8002" class="cls-20" d="M663.51,333.792h16.444l-5.626-14.682Zm11.57-3.042h-5.638l3.706-5.039Z" transform="translate(-273.832 -131.7)"/>
      </g>
    </g>
  </g>
</svg>
